<svg xmlns="http://www.w3.org/2000/svg" xmlns:xlink="http://www.w3.org/1999/xlink" width="118.617" height="119.456" viewBox="0 0 118.617 119.456">
  <defs>
    <radialGradient id="radial-gradient" cx="0.076" cy="0.019" r="1.465" gradientTransform="translate(0.001)" gradientUnits="objectBoundingBox">
      <stop offset="0" stop-color="#f6f6f7"/>
      <stop offset="0.477" stop-color="#f9f9fa"/>
      <stop offset="0.715" stop-color="#fff"/>
    </radialGradient>
    <filter id="Trazado_765630" x="0" y="0.961" width="118.617" height="118.495" filterUnits="userSpaceOnUse">
      <feOffset dy="7" input="SourceAlpha"/>
      <feGaussianBlur stdDeviation="2.5" result="blur"/>
      <feFlood flood-opacity="0.102"/>
      <feComposite operator="in" in2="blur"/>
      <feComposite in="SourceGraphic"/>
    </filter>
  </defs>
  <g id="Grupo_1026255" data-name="Grupo 1026255" transform="translate(-272.883 -3805.134)">
    <g id="Grupo_1025909" data-name="Grupo 1025909" transform="translate(-1 -2606.908)">
      <g id="Grupo_1024863" data-name="Grupo 1024863" transform="translate(280.042 6412.042)">
        <g id="Grupo_18420" data-name="Grupo 18420">
          <g id="Grupo_18419" data-name="Grupo 18419">
            <path id="Trazado_40936" data-name="Trazado 40936" d="M299.581,2198.2a52.479,52.479,0,1,1-52.478-52.477A52.478,52.478,0,0,1,299.581,2198.2Z" transform="translate(-194.623 -2145.721)" fill="#fff"/>
          </g>
        </g>
      </g>
      <g transform="matrix(1, 0, 0, 1, 273.88, 6412.04)" filter="url(#Trazado_765630)">
        <path id="Trazado_765630-2" data-name="Trazado 765630" d="M299.094,2197.667a52.478,52.478,0,1,0-52.478,52.479A52.271,52.271,0,0,0,299.094,2197.667Z" transform="translate(-187.98 -2145.19)" fill="url(#radial-gradient)"/>
      </g>
      <path id="Trazado_765631" data-name="Trazado 765631" d="M289.67,2196.985a43.749,43.749,0,1,0-43.749,43.75A43.588,43.588,0,0,0,289.67,2196.985Z" transform="translate(87.212 4267.657)" fill="none" stroke="#fe7062" stroke-miterlimit="10" stroke-width="4"/>
      <g id="Grupo_1024864" data-name="Grupo 1024864" transform="translate(289.34 6441.505)">
        <path id="Trazado_40939" data-name="Trazado 40939" d="M290.9,2164.488a52.485,52.485,0,0,1-90.354,52.261,52.318,52.318,0,0,0,90.354-52.261Z" transform="translate(-200.545 -2164.488)" fill="#eceef0"/>
      </g>
    </g>
    <g id="_015-recommendation" data-name="015-recommendation" transform="translate(297.883 3824.803)">
      <g id="Grupo_1026252" data-name="Grupo 1026252" transform="translate(10.727 8.79)">
        <g id="Grupo_1026230" data-name="Grupo 1026230" transform="translate(15.239 0)">
          <g id="Grupo_1026222" data-name="Grupo 1026222" transform="translate(19.909 25.018)">
            <path id="Trazado_766619" data-name="Trazado 766619" d="M364,252.76l-7.983,6.62,4.281,9.94a.43.43,0,0,0,.76.056l2.763-4.453,5.134,1.052a.429.429,0,0,0,.481-.591Z" transform="translate(-356.022 -252.76)" fill="#fe7062" fill-rule="evenodd"/>
          </g>
          <g id="Grupo_1026223" data-name="Grupo 1026223" transform="translate(23.929 25.018)">
            <path id="Trazado_766620" data-name="Trazado 766620" d="M398.124,252.76l-1.055.875,5.06,11.748a.424.424,0,0,1-.025.391l.977.2a.429.429,0,0,0,.481-.591Zm-3.963,15.953,2.513-4.05,1.271.26-2.763,4.453a.429.429,0,0,1-.76-.057Z" transform="translate(-394.161 -252.76)" fill="#fd4755" fill-rule="evenodd"/>
          </g>
          <g id="Grupo_1026224" data-name="Grupo 1026224" transform="translate(1.314 27.06)">
            <path id="Trazado_766621" data-name="Trazado 766621" d="M194.4,276.2l-5.739,12.328a.43.43,0,0,1-.761.035l-2.633-4.531-5.163.9a.429.429,0,0,1-.464-.6l5.677-12.193Z" transform="translate(-179.596 -272.131)" fill="#fe7062" fill-rule="evenodd"/>
          </g>
          <g id="Grupo_1026225" data-name="Grupo 1026225" transform="translate(1.314 30.641)">
            <path id="Trazado_766622" data-name="Trazado 766622" d="M194.4,306.589l-5.739,12.328a.429.429,0,0,1-.761.034l-2.633-4.531-5.163.9a.429.429,0,0,1-.463-.6l.349-.75,4.552-.8,2.633,4.531a.429.429,0,0,0,.761-.034l5.384-11.564Z" transform="translate(-179.597 -306.105)" fill="#fd4755" fill-rule="evenodd"/>
          </g>
          <g id="Grupo_1026226" data-name="Grupo 1026226">
            <path id="Trazado_766623" data-name="Trazado 766623" d="M186.651,16.135c3.432,2.569,2.654,2.286,6.934,2.524a3.61,3.61,0,0,1,3.355,2.815c.355,1.514.528,3.423,1.684,4.508l2.005,1.882a3.61,3.61,0,0,1,.76,4.313c-1.934,3.826-1.79,3.01-1.281,7.267a3.61,3.61,0,0,1-2.19,3.793c-3.941,1.688-3.306,1.155-5.653,4.743a3.61,3.61,0,0,1-4.115,1.5c-4.1-1.24-3.275-1.24-7.379,0a3.61,3.61,0,0,1-4.115-1.5c-2.346-3.588-1.712-3.055-5.653-4.743a3.61,3.61,0,0,1-2.19-3.793c.509-4.257.653-3.441-1.281-7.267a3.61,3.61,0,0,1,.76-4.313c3.126-2.934,2.712-2.216,3.689-6.39a3.61,3.61,0,0,1,3.355-2.815c4.28-.238,3.5.045,6.934-2.524a3.61,3.61,0,0,1,4.379,0Z" transform="translate(-167.13 -15.395)" fill="#ffe177" fill-rule="evenodd"/>
          </g>
          <g id="Grupo_1026227" data-name="Grupo 1026227" transform="translate(11.625 0)">
            <path id="Trazado_766624" data-name="Trazado 766624" d="M285.322,16.136c3.432,2.569,2.654,2.286,6.934,2.524a3.61,3.61,0,0,1,3.355,2.815c.355,1.514.528,3.423,1.684,4.508l2.005,1.882a3.61,3.61,0,0,1,.76,4.313c-1.934,3.826-1.79,3.01-1.281,7.267a3.61,3.61,0,0,1-2.19,3.793c-3.941,1.688-3.306,1.155-5.652,4.743a3.607,3.607,0,0,1-3.976,1.537,3.629,3.629,0,0,0,2.1-1.537c2.346-3.588,1.712-3.055,5.653-4.743a3.61,3.61,0,0,0,2.19-3.793c-.509-4.257-.653-3.441,1.281-7.267a3.61,3.61,0,0,0-.76-4.313l-2.005-1.882c-1.156-1.085-1.33-2.994-1.684-4.508a3.61,3.61,0,0,0-3.355-2.815c-4.28-.238-3.5.045-6.934-2.524a3.709,3.709,0,0,0-1.251-.614,3.609,3.609,0,0,1,3.128.614Zm-3.128,32.532c-.627.143-1.435.413-2.751.81a3.662,3.662,0,0,1-2.016.039l.139-.039C280.354,48.636,280.866,48.366,282.194,48.668Z" transform="translate(-277.427 -15.396)" fill="#ffd064" fill-rule="evenodd"/>
          </g>
          <g id="Grupo_1026228" data-name="Grupo 1026228" transform="translate(5.511 5.303)">
            <circle id="Elipse_8592" data-name="Elipse 8592" cx="11.819" cy="11.819" r="11.819" fill="#eceff1"/>
          </g>
          <g id="Grupo_1026229" data-name="Grupo 1026229" transform="translate(5.511 5.303)">
            <path id="Trazado_766625" data-name="Trazado 766625" d="M231.24,65.7q.477,0,.945.038a11.82,11.82,0,0,0,0,23.564q-.468.037-.945.038a11.819,11.819,0,1,1,0-23.639Z" transform="translate(-219.421 -65.705)" fill="#d1d1d6" fill-rule="evenodd"/>
          </g>
        </g>
        <g id="Grupo_1026241" data-name="Grupo 1026241" transform="translate(0 29.792)">
          <g id="Grupo_1026233" data-name="Grupo 1026233" transform="translate(3.695)">
            <g id="Grupo_1026231" data-name="Grupo 1026231">
              <circle id="Elipse_8593" data-name="Elipse 8593" cx="5.014" cy="5.014" r="5.014" transform="translate(0 9.756) rotate(-76.7)" fill="#f6dccd"/>
            </g>
            <g id="Grupo_1026232" data-name="Grupo 1026232" transform="translate(5.339 1.006)">
              <path id="Trazado_766626" data-name="Trazado 766626" d="M108.95,307.587a5.014,5.014,0,1,1-.7,9.978,5.014,5.014,0,0,0,0-9.93A5.053,5.053,0,0,1,108.95,307.587Z" transform="translate(-108.252 -307.587)" fill="#f1cbbc" fill-rule="evenodd"/>
            </g>
          </g>
          <g id="Grupo_1026236" data-name="Grupo 1026236" transform="translate(0 11.951)">
            <g id="Grupo_1026234" data-name="Grupo 1026234" transform="translate(0 0)">
              <path id="Trazado_766627" data-name="Trazado 766627" d="M23.314,420.288H41.238a.767.767,0,0,0,.754-.923,9.918,9.918,0,0,0-19.432,0,.767.767,0,0,0,.754.923Z" transform="translate(-22.544 -411.439)" fill="#91b3fa" fill-rule="evenodd"/>
            </g>
            <g id="Grupo_1026235" data-name="Grupo 1026235" transform="translate(8.856)">
              <path id="Trazado_766628" data-name="Trazado 766628" d="M114.652,420.286H116.4a.767.767,0,0,0,.754-.923,9.919,9.919,0,0,0-9.716-7.926q-.443,0-.876.038a9.922,9.922,0,0,1,8.84,7.888A.767.767,0,0,1,114.652,420.286Z" transform="translate(-106.566 -411.437)" fill="#759cef" fill-rule="evenodd"/>
            </g>
          </g>
          <g id="Grupo_1026240" data-name="Grupo 1026240" transform="translate(7.341 11.951)">
            <g id="Grupo_1026237" data-name="Grupo 1026237" transform="translate(0 0.026)">
              <path id="Trazado_766629" data-name="Trazado 766629" d="M93.868,411.68H95.3l1.663,5.228a.253.253,0,0,1-.053.251l-2.131,2.406a.26.26,0,0,1-.389,0l-2.131-2.406a.253.253,0,0,1-.053-.251Z" transform="translate(-92.192 -411.68)" fill="#eceff1" fill-rule="evenodd"/>
            </g>
            <g id="Grupo_1026238" data-name="Grupo 1026238" transform="translate(1.959 0.001)">
              <path id="Trazado_766630" data-name="Trazado 766630" d="M111.05,411.45l.872.025,1.664,5.228a.253.253,0,0,1-.053.251L111.4,419.36a.26.26,0,0,1-.389,0l-.238-.269,1.893-2.137a.253.253,0,0,0,.053-.251Z" transform="translate(-110.775 -411.45)" fill="#d1d1d6" fill-rule="evenodd"/>
            </g>
            <g id="Grupo_1026239" data-name="Grupo 1026239" transform="translate(1.667)">
              <path id="Trazado_766631" data-name="Trazado 766631" d="M108.7,411.438h.032q.359,0,.711.026l.1.31a9.882,9.882,0,0,0-1.539-.283l.009-.028Q108.357,411.439,108.7,411.438Z" transform="translate(-108.007 -411.438)" fill="#d1d1d6" fill-rule="evenodd"/>
            </g>
          </g>
        </g>
        <g id="Grupo_1026251" data-name="Grupo 1026251" transform="translate(24.46 7.171)">
          <g id="Grupo_1026242" data-name="Grupo 1026242" transform="translate(0 7.139)">
            <path id="Trazado_766632" data-name="Trazado 766632" d="M258.036,151.16q.009,8.9,0,8.884h-2.957a.468.468,0,0,1-.467-.467v-7.95a.468.468,0,0,1,.467-.467Z" transform="translate(-254.612 -151.16)" fill="#d1d1d6" fill-rule="evenodd"/>
          </g>
          <g id="Grupo_1026243" data-name="Grupo 1026243" transform="translate(0 7.139)">
            <path id="Trazado_766633" data-name="Trazado 766633" d="M254.612,159.577a.468.468,0,0,0,.467.467h2.96V151.16h-.467v8.417Z" transform="translate(-254.612 -151.16)" fill="#b1b1b5" fill-rule="evenodd"/>
          </g>
          <g id="Grupo_1026244" data-name="Grupo 1026244" transform="translate(3.354 0)">
            <path id="Trazado_766634" data-name="Trazado 766634" d="M293.879,100.344c-3.443.593-5.445,1.026-7.447-.891V90.569c1.578-1.185,3.661-2.2,3.661-4.442v-2.7a3.244,3.244,0,0,1,3.235,3.234v2.092a3.111,3.111,0,0,1-.9,1.647C297.44,91.691,295.308,100.405,293.879,100.344Z" transform="translate(-286.432 -83.43)" fill="#f6dccd" fill-rule="evenodd"/>
          </g>
          <g id="Grupo_1026245" data-name="Grupo 1026245" transform="translate(3.354)">
            <path id="Trazado_766635" data-name="Trazado 766635" d="M287.219,100.087a5.634,5.634,0,0,1-.786-.634V90.569c1.578-1.185,3.661-2.2,3.661-4.442v-2.7a3.224,3.224,0,0,1,2.26.926A3.209,3.209,0,0,0,290.7,83.9v2.7c0,2.241-2.083,3.257-3.661,4.442V99.92Q287.128,100.007,287.219,100.087Z" transform="translate(-286.433 -83.43)" fill="#f1cbbc" fill-rule="evenodd"/>
          </g>
          <g id="Grupo_1026246" data-name="Grupo 1026246" transform="translate(9.365 6.693)">
            <path id="Trazado_766636" data-name="Trazado 766636" d="M345.291,157.214h2.075a1.285,1.285,0,0,0,0-2.571h.767a1.285,1.285,0,0,0,0-2.571h.9a1.285,1.285,0,1,0,0-2.57h-.541a1.285,1.285,0,1,0,0-2.57h-3.2a1.285,1.285,0,1,0,0,2.57h-.541a1.285,1.285,0,1,0,0,2.57h.541a1.285,1.285,0,1,0,0,2.571,1.285,1.285,0,1,0,0,2.571Z" transform="translate(-343.464 -146.932)" fill="#f6dccd" fill-rule="evenodd"/>
          </g>
          <g id="Grupo_1026247" data-name="Grupo 1026247" transform="translate(9.907 15.69)">
            <path id="Trazado_766637" data-name="Trazado 766637" d="M349.888,233.575h2.075a1.289,1.289,0,0,0,1.285-1.285H348.6A1.289,1.289,0,0,0,349.888,233.575Z" transform="translate(-348.603 -232.29)" fill="#f1cbbc" fill-rule="evenodd"/>
          </g>
          <g id="Grupo_1026248" data-name="Grupo 1026248" transform="translate(9.907 13.119)">
            <path id="Trazado_766638" data-name="Trazado 766638" d="M351.964,209.186h.767a1.289,1.289,0,0,0,1.285-1.285H348.6a1.289,1.289,0,0,0,1.285,1.285Z" transform="translate(-348.604 -207.901)" fill="#f1cbbc" fill-rule="evenodd"/>
          </g>
          <g id="Grupo_1026249" data-name="Grupo 1026249" transform="translate(9.365 10.549)">
            <path id="Trazado_766639" data-name="Trazado 766639" d="M348.135,184.8h.9a1.289,1.289,0,0,0,1.285-1.285h-6.855a1.289,1.289,0,0,0,1.285,1.285h3.383Z" transform="translate(-343.467 -183.513)" fill="#f1cbbc" fill-rule="evenodd"/>
          </g>
          <g id="Grupo_1026250" data-name="Grupo 1026250" transform="translate(9.907 7.978)">
            <path id="Trazado_766640" data-name="Trazado 766640" d="M353.09,160.41a1.289,1.289,0,0,0,1.285-1.285H348.6a1.289,1.289,0,0,0,1.285,1.285Z" transform="translate(-348.603 -159.125)" fill="#f1cbbc" fill-rule="evenodd"/>
          </g>
        </g>
      </g>
      <g id="Grupo_1026254" data-name="Grupo 1026254" transform="translate(9.335 8.012)">
        <g id="Grupo_1026253" data-name="Grupo 1026253" transform="translate(0 0)">
          <path id="Trazado_766641" data-name="Trazado 766641" d="M18.23,13.348a.842.842,0,0,1,.843-.843h2.072a.843.843,0,1,1,0,1.686H19.073A.843.843,0,0,1,18.23,13.348Zm3.886,3.887V15.161a.843.843,0,1,1,1.686,0v2.073a.843.843,0,0,1-1.686,0Zm0-5.7V9.462a.843.843,0,1,1,1.686,0v2.072a.843.843,0,1,1-1.686,0Zm1.814,1.814a.843.843,0,0,1,.843-.843h2.072a.843.843,0,0,1,0,1.686H24.773A.843.843,0,0,1,23.929,13.348ZM50.082,24a.448.448,0,0,1-.442.442h-3.2A.448.448,0,0,1,46,24a.444.444,0,0,1,.442-.442h3.2A.448.448,0,0,1,50.082,24Zm.1,2.128a.442.442,0,1,1,0,.884H45.9a.442.442,0,0,1,0-.884Zm-3.743,3.454a.442.442,0,1,1,0-.884H49.28a.442.442,0,0,1,0,.885Zm2.074,1.687a.448.448,0,0,1,.443.442.446.446,0,0,1-.443.442H46.438a.442.442,0,0,1,0-.884h2.074Zm-9,.4v-.182q0-.557,0-1.668,0-2.112,0-6.235c.126-.09.254-.181.386-.274,1.428-1.006,3.2-2.258,3.2-4.594v-1.7a2.4,2.4,0,0,1,1.548,2.237v2.024A2.34,2.34,0,0,1,44,22.4a.843.843,0,0,0-.1,1.072,1.708,1.708,0,0,1,.355,1.366,3.432,3.432,0,0,1-1.662,1.8.843.843,0,1,0,.839,1.463,7.015,7.015,0,0,0,.645-.417,2.173,2.173,0,0,0,.45.521,2.119,2.119,0,0,0,.213,2.226,2.1,2.1,0,0,0-.432,1.285,2.145,2.145,0,0,0,.1.646c-2.375.381-3.623.389-4.894-.685ZM37.83,31.2H36.089V24h1.739c0,4.11,0,6.2,0,7.2Zm8.608-9.33c-.067,0-.133,0-.2.009a2.976,2.976,0,0,0,.09-.418.815.815,0,0,0,.008-.115V19.257a4.082,4.082,0,0,0-4.078-4.077.843.843,0,0,0-.843.843v2.7c0,1.462-1.153,2.275-2.489,3.216-.176.124-.355.253-.535.382H35.245a.843.843,0,0,0-.843.843v8.884a.843.843,0,0,0,.843.843h3.1a5.373,5.373,0,0,0,3.793,1.4,22.3,22.3,0,0,0,3.633-.444l.244-.042a2.135,2.135,0,0,0,.426.043h2.074A2.127,2.127,0,0,0,50.479,30.9a2.129,2.129,0,0,0,.794-2.5,2.126,2.126,0,0,0,.275-3.456,2.128,2.128,0,0,0-1.909-3.069ZM21.724,58.6l1.967-2.221a.846.846,0,0,0,.172-.815L22.477,51.21A9.526,9.526,0,0,1,29.872,58.6ZM18.559,51.21l-1.385,4.356a.841.841,0,0,0,.172.815L19.312,58.6H11.164A9.524,9.524,0,0,1,18.559,51.21Zm-2.455-6.3a4.414,4.414,0,1,1,4.415,4.414h0A4.419,4.419,0,0,1,16.1,44.907ZM22.11,55.62l-1.467-4.61-.125,0h0l-.126,0-1.466,4.61,1.592,1.8Zm1.931-5.738a6.1,6.1,0,1,0-7.047,0A11.207,11.207,0,0,0,9.34,59.355a.846.846,0,0,0,.839.933H30.857a.844.844,0,0,0,.627-.281.836.836,0,0,0,.211-.652A11.208,11.208,0,0,0,24.042,49.882Zm19.178-12.9A11.065,11.065,0,1,0,32.154,25.918,11.078,11.078,0,0,0,43.22,36.983Zm0-23.817A12.752,12.752,0,1,0,55.972,25.918,12.766,12.766,0,0,0,43.22,13.166Zm16.121,11.9a2.716,2.716,0,0,0-.577-3.269c-.285-.267-.54-.5-.768-.716-2.154-2-2.234-2.138-2.887-5-.07-.3-.148-.643-.236-1.023a2.717,2.717,0,0,0-2.544-2.133c-.39-.022-.737-.039-1.049-.055-2.933-.146-3.086-.2-5.427-1.975-.249-.189-.526-.4-.838-.632a2.716,2.716,0,0,0-3.32,0c-.312.234-.589.444-.838.632-2.341,1.774-2.494,1.829-5.427,1.975-.312.016-.659.033-1.049.055a2.717,2.717,0,0,0-2.543,2.133c-.089.38-.167.719-.235,1.023-.653,2.864-.735,3-2.888,5-.229.213-.484.449-.768.716a2.717,2.717,0,0,0-.576,3.269c.176.348.335.657.477.935,1.34,2.614,1.368,2.773,1,5.688-.039.31-.082.654-.128,1.042a2.716,2.716,0,0,0,1.66,2.875c.358.154.679.289.966.41,2.707,1.141,2.831,1.244,4.425,3.712.17.261.357.554.571.881a2.719,2.719,0,0,0,3.12,1.135c.373-.113.7-.216,1-.308a10.2,10.2,0,0,1,2.888-.649,10.2,10.2,0,0,1,2.888.649c.3.092.63.195,1,.308a2.718,2.718,0,0,0,3.12-1.135c.214-.327.4-.62.571-.881,1.594-2.468,1.718-2.572,4.425-3.712.288-.122.608-.257.966-.41a2.716,2.716,0,0,0,1.66-2.875c-.046-.387-.09-.732-.128-1.042-.366-2.915-.337-3.074,1-5.688.143-.278.3-.587.478-.935Zm-5.55,19.724a.843.843,0,0,0-.886.38L50.6,48.892l-2.3-5.347a4.421,4.421,0,0,0,3.486-2.014c.216-.33.406-.624.576-.889a9.269,9.269,0,0,1,1.463-1.976,4.323,4.323,0,0,1,1-.579l3.265,7.58ZM36.053,50.732l-2.2-3.787a.841.841,0,0,0-.874-.407l-4.315.754,4.073-8.747c.056.039.109.08.158.122a9.255,9.255,0,0,1,1.463,1.976c.171.265.361.559.576.889a4.421,4.421,0,0,0,4.5,1.952ZM59.919,20.565c-.287-.269-.544-.508-.776-.722a9.289,9.289,0,0,1-1.692-1.783,9.317,9.317,0,0,1-.7-2.357c-.069-.307-.147-.649-.237-1.033a4.426,4.426,0,0,0-4.092-3.433c-.393-.022-.744-.039-1.058-.055a9.208,9.208,0,0,1-2.442-.279,9.227,9.227,0,0,1-2.051-1.356c-.251-.19-.53-.4-.845-.638a4.424,4.424,0,0,0-5.341,0c-.316.236-.6.448-.846.638A9.221,9.221,0,0,1,37.789,10.9a9.208,9.208,0,0,1-2.442.279c-.315.015-.665.033-1.059.055A4.425,4.425,0,0,0,30.2,14.67c-.09.384-.168.726-.237,1.033a9.287,9.287,0,0,1-.7,2.357,9.28,9.28,0,0,1-1.691,1.783c-.231.214-.488.453-.776.722a4.425,4.425,0,0,0-.928,5.26c.178.352.338.664.482.944a9.216,9.216,0,0,1,.979,2.255,9.255,9.255,0,0,1-.149,2.454c-.04.313-.083.66-.129,1.052a4.424,4.424,0,0,0,2.67,4.625c.363.155.686.291.976.414l.531.224L26.452,48.044a.844.844,0,0,0,.91,1.187l5.328-.931,2.718,4.676a.84.84,0,0,0,.729.419h.038a.846.846,0,0,0,.726-.487l4.679-10.05a6.523,6.523,0,0,1,1.777-.385,9.254,9.254,0,0,1,2.39.573l.571.176,3.368,7.819a.845.845,0,0,0,.712.508l.062,0a.844.844,0,0,0,.717-.4l2.851-4.6,5.3,1.084a.843.843,0,0,0,.944-1.159l-3.9-9.062.628-.266a4.425,4.425,0,0,0,2.67-4.625c-.047-.391-.09-.739-.13-1.052a9.261,9.261,0,0,1-.148-2.454,9.221,9.221,0,0,1,.979-2.255c.143-.28.3-.592.482-.944a4.425,4.425,0,0,0-.928-5.259Z" transform="translate(-9.335 -8.012)" fill="#242222" fill-rule="evenodd"/>
        </g>
      </g>
    </g>
  </g>
</svg>
