<svg xmlns="http://www.w3.org/2000/svg" width="135" height="136" viewBox="0 0 135 136">
  <g id="Grupo_1026036" data-name="Grupo 1026036" transform="translate(-470 -9052)">
    <g id="Grupo_1025829" data-name="Grupo 1025829" transform="translate(46 8285)">
      <ellipse id="Elipse_4848" data-name="Elipse 4848" cx="57.5" cy="58" rx="57.5" ry="58" transform="translate(434 777)" fill="#fff"/>
      <g id="Elipse_4849" data-name="Elipse 4849" transform="translate(434 777)" fill="none" stroke="#fff" stroke-linejoin="round" stroke-width="10" opacity="0.25">
        <ellipse cx="57.5" cy="58" rx="57.5" ry="58" stroke="none"/>
        <ellipse cx="57.5" cy="58" rx="62.5" ry="63" fill="none"/>
      </g>
    </g>
    <g id="_007-checklist" data-name="007-checklist" transform="translate(515 9088)">
      <path id="Trazado_766370" data-name="Trazado 766370" d="M7,3H47.587V58.54H7Z" transform="translate(-5.932 -1.932)" fill="#f1ffff"/>
      <path id="Trazado_766371" data-name="Trazado 766371" d="M58.634,51.074V48.56a1.184,1.184,0,0,0-1.184-1.184,1.2,1.2,0,0,1-1.151-.829,11.019,11.019,0,0,0-.756-1.822,1.2,1.2,0,0,1,.225-1.406,1.184,1.184,0,0,0,0-1.675l-1.778-1.778a1.184,1.184,0,0,0-1.675,0,1.2,1.2,0,0,1-1.406.225,11.019,11.019,0,0,0-1.822-.756,1.2,1.2,0,0,1-.829-1.151A1.184,1.184,0,0,0,47.074,37H44.56a1.184,1.184,0,0,0-1.184,1.184v.025a1.166,1.166,0,0,1-.8,1.119,10.907,10.907,0,0,0-1.847.764,1.2,1.2,0,0,1-1.406-.225,1.184,1.184,0,0,0-1.675,0l-1.778,1.778a1.184,1.184,0,0,0,0,1.675,1.2,1.2,0,0,1,.225,1.406,11.019,11.019,0,0,0-.756,1.822,1.2,1.2,0,0,1-1.151.829A1.184,1.184,0,0,0,33,48.56v2.514a1.184,1.184,0,0,0,1.184,1.184,1.2,1.2,0,0,1,1.151.829,11.02,11.02,0,0,0,.756,1.822,1.2,1.2,0,0,1-.225,1.406,1.184,1.184,0,0,0,0,1.675l1.778,1.778a1.184,1.184,0,0,0,1.675,0,1.2,1.2,0,0,1,1.406-.225,11.019,11.019,0,0,0,1.822.756,1.2,1.2,0,0,1,.829,1.151,1.184,1.184,0,0,0,1.183,1.183h2.514a1.184,1.184,0,0,0,1.184-1.184,1.2,1.2,0,0,1,.829-1.151,11.02,11.02,0,0,0,1.822-.756,1.2,1.2,0,0,1,1.406.225,1.184,1.184,0,0,0,1.675,0l1.778-1.778a1.184,1.184,0,0,0,0-1.675,1.2,1.2,0,0,1-.225-1.406,10.905,10.905,0,0,0,.764-1.847,1.166,1.166,0,0,1,1.119-.8h.025a1.184,1.184,0,0,0,1.183-1.183Z" transform="translate(-4.162 0.382)" fill="#fe7062"/>
      <circle id="Elipse_8563" data-name="Elipse 8563" cx="6.5" cy="6.5" r="6.5" transform="translate(35 43.71)" fill="#e6eef3"/>
      <path id="Trazado_766372" data-name="Trazado 766372" d="M59.288,48.69a.137.137,0,0,1-.132-.079,12.017,12.017,0,0,0-.831-2,.14.14,0,0,1,.038-.157,2.257,2.257,0,0,0,0-3.184l-1.777-1.776a2.249,2.249,0,0,0-3.187,0,.135.135,0,0,1-.153.036,11.962,11.962,0,0,0-2-.831.138.138,0,0,1-.08-.134,2.255,2.255,0,0,0-2.254-2.251h-.189V3.068A1.068,1.068,0,0,0,47.655,2H7.068A1.068,1.068,0,0,0,6,3.068v55.54a1.068,1.068,0,0,0,1.068,1.068H36.3a2.237,2.237,0,0,0,.641,1.453L38.721,62.9a2.249,2.249,0,0,0,3.187,0,.142.142,0,0,1,.153-.036,11.962,11.962,0,0,0,2,.831.138.138,0,0,1,.08.134A2.255,2.255,0,0,0,46.4,66.084h2.514a2.255,2.255,0,0,0,2.253-2.251.137.137,0,0,1,.078-.132,11.962,11.962,0,0,0,2-.832.139.139,0,0,1,.154.037,2.249,2.249,0,0,0,3.185,0l1.779-1.778a2.257,2.257,0,0,0,0-3.185.139.139,0,0,1-.035-.154,11.989,11.989,0,0,0,.838-2.029c.007-.026.049-.053.125-.053a2.255,2.255,0,0,0,2.249-2.249V50.942a2.255,2.255,0,0,0-2.251-2.253ZM8.136,57.54V4.136H46.587V38.314H46.4a2.261,2.261,0,0,0-2.253,2.278.107.107,0,0,1-.052.1,11.835,11.835,0,0,0-2.029.839.137.137,0,0,1-.154-.037,2.248,2.248,0,0,0-3.185,0l-1.779,1.778a2.257,2.257,0,0,0,0,3.185.141.141,0,0,1,.036.154,11.981,11.981,0,0,0-.832,2,.137.137,0,0,1-.132.079,2.255,2.255,0,0,0-2.247,2.253v2.514a2.255,2.255,0,0,0,2.251,2.253.137.137,0,0,1,.132.079,12.025,12.025,0,0,0,.713,1.752ZM59.4,53.456c0,.064-.052.116-.141.116a2.221,2.221,0,0,0-2.136,1.557,9.741,9.741,0,0,1-.689,1.665,2.259,2.259,0,0,0,.418,2.657.117.117,0,0,1,0,.166L55.074,61.4h-.166a2.256,2.256,0,0,0-2.661-.417,9.752,9.752,0,0,1-1.644.681,2.259,2.259,0,0,0-1.578,2.172.116.116,0,0,1-.116.115H46.4a.116.116,0,0,1-.116-.115,2.261,2.261,0,0,0-1.58-2.174,9.757,9.757,0,0,1-1.639-.68,2.232,2.232,0,0,0-1.044-.258A2.28,2.28,0,0,0,40.4,61.4h-.164l-1.78-1.776a.117.117,0,0,1,0-.167,2.259,2.259,0,0,0,.417-2.661,9.856,9.856,0,0,1-.681-1.642,2.257,2.257,0,0,0-2.172-1.58.116.116,0,0,1-.115-.114V50.942a.116.116,0,0,1,.115-.116,2.257,2.257,0,0,0,2.172-1.58,9.819,9.819,0,0,1,.682-1.643,2.259,2.259,0,0,0-.418-2.657.117.117,0,0,1,0-.166L40.237,43H40.4a2.258,2.258,0,0,0,2.658.415,9.9,9.9,0,0,1,1.665-.689,2.227,2.227,0,0,0,1.556-2.165.116.116,0,0,1,.115-.114h2.514a.116.116,0,0,1,.116.115,2.261,2.261,0,0,0,1.58,2.174,9.758,9.758,0,0,1,1.643.68A2.254,2.254,0,0,0,54.909,43h.164l1.777,1.776a.117.117,0,0,1,0,.167,2.259,2.259,0,0,0-.417,2.661,9.856,9.856,0,0,1,.681,1.642,2.257,2.257,0,0,0,2.172,1.58.116.116,0,0,1,.115.116Z" transform="translate(-6 -2)"/>
      <path id="Trazado_766373" data-name="Trazado 766373" d="M45.477,42a7.476,7.476,0,1,0,7.477,7.476A7.477,7.477,0,0,0,45.477,42Zm0,12.817a5.34,5.34,0,1,1,5.34-5.34,5.34,5.34,0,0,1-5.34,5.34Z" transform="translate(-3.822 0.723)"/>
      <path id="Trazado_766374" data-name="Trazado 766374" d="M14.536,17.751l-1.51-1.51-1.51,1.51,2.265,2.265a1.068,1.068,0,0,0,1.51,0l6.042-6.041-1.51-1.51Z" transform="translate(-5.625 -1.288)"/>
      <path id="Trazado_766375" data-name="Trazado 766375" d="M14.536,30.751l-1.51-1.51-1.51,1.51,2.265,2.265a1.068,1.068,0,0,0,1.51,0l6.042-6.041-1.51-1.51Z" transform="translate(-5.625 -0.403)"/>
      <path id="Trazado_766376" data-name="Trazado 766376" d="M14.536,43.751l-1.51-1.51-1.51,1.51,2.265,2.265a1.068,1.068,0,0,0,1.51,0l6.042-6.041-1.51-1.51Z" transform="translate(-5.625 0.482)"/>
      <path id="Trazado_766377" data-name="Trazado 766377" d="M24,15H42.157v2.136H24Z" transform="translate(-4.775 -1.115)"/>
      <path id="Trazado_766378" data-name="Trazado 766378" d="M24,28H42.157v2.136H24Z" transform="translate(-4.775 -0.23)"/>
      <path id="Trazado_766379" data-name="Trazado 766379" d="M24,41h8.545v2.136H24Z" transform="translate(-4.775 0.655)"/>
    </g>
  </g>
</svg>
