<svg xmlns="http://www.w3.org/2000/svg" width="88.689" height="88.689" viewBox="0 0 88.689 88.689">
  <g id="Grupo_1026221" data-name="Grupo 1026221" transform="translate(-390 -2838)">
    <g id="Grupo_1018564" data-name="Grupo 1018564" transform="translate(390 2838)">
      <g id="Grupo_20664" data-name="Grupo 20664" transform="translate(0 0)">
        <path id="Trazado_99075" data-name="Trazado 99075" d="M44.345,0A44.345,44.345,0,1,1,0,44.345,44.345,44.345,0,0,1,44.345,0Z" fill="#91b3fa"/>
        <path id="Trazado_715274" data-name="Trazado 715274" d="M35.122,0A35.122,35.122,0,1,1,0,35.122,35.122,35.122,0,0,1,35.122,0Z" transform="translate(9.223 9.223)" fill="#f6f6f6"/>
      </g>
    </g>
    <g id="_039-abilities" data-name="039-abilities" transform="translate(403.006 2849.943)">
      <g id="Grupo_1026219" data-name="Grupo 1026219" transform="translate(8.754 9.816)">
        <g id="Grupo_1026198" data-name="Grupo 1026198" transform="translate(29.224 14.153)">
          <g id="Grupo_1026194" data-name="Grupo 1026194">
            <path id="Trazado_766603" data-name="Trazado 766603" d="M333.638,167.49a6.977,6.977,0,0,1,2.042.847l1.327-.589,1.564,1.564-.589,1.327a6.98,6.98,0,0,1,.847,2.043l1.354.521v2.212l-1.354.521a6.976,6.976,0,0,1-.847,2.042l.589,1.327-1.564,1.564-1.327-.589a6.977,6.977,0,0,1-2.043.847l-.521,1.354H330.9l-.521-1.354a6.977,6.977,0,0,1-2.042-.847l-1.327.589L325.45,179.3l.589-1.327a6.974,6.974,0,0,1-.847-2.043l-1.354-.521V173.2l1.354-.521a6.972,6.972,0,0,1,.847-2.042l-.589-1.327,1.564-1.564,1.327.589a6.976,6.976,0,0,1,2.042-.847l.521-1.354h2.212Z" transform="translate(-323.839 -166.136)" fill="#ffe177" fill-rule="evenodd"/>
          </g>
          <g id="Grupo_1026195" data-name="Grupo 1026195" transform="translate(2.97 0)">
            <path id="Trazado_766604" data-name="Trazado 766604" d="M356.657,180.28l-1.327.589-.205-.205,1.244-.552Q356.511,180.2,356.657,180.28Zm5.3-12.789a6.973,6.973,0,0,1,2.017.831l.026.016-.379.168a9.212,9.212,0,0,0-2.331-1.015l-.521-1.354h.668Zm-6.829.463.205-.205,1.327.589q-.146.081-.289.168Zm9.736,0,.462-.205,1.564,1.564-.589,1.327a6.98,6.98,0,0,1,.847,2.043l1.354.521v2.212l-1.354.521a6.976,6.976,0,0,1-.847,2.042l.589,1.327-1.564,1.564-.462-.205,1.359-1.359-.589-1.327a6.972,6.972,0,0,0,.847-2.042l1.354-.521V173.2l-1.354-.521a6.977,6.977,0,0,0-.847-2.043l.589-1.327Zm-.89,12.342a6.975,6.975,0,0,1-2.017.831l-.521,1.354h-.668l.521-1.354a9.212,9.212,0,0,0,2.331-1.015l.379.168Z" transform="translate(-355.125 -166.137)" fill="#ffd064" fill-rule="evenodd"/>
          </g>
          <g id="Grupo_1026196" data-name="Grupo 1026196" transform="translate(2.422 2.433)">
            <circle id="Elipse_8590" data-name="Elipse 8590" cx="4.122" cy="4.122" r="4.122" transform="translate(0 6.687) rotate(-54.196)" fill="#eceff1"/>
          </g>
          <g id="Grupo_1026197" data-name="Grupo 1026197" transform="translate(4.049 4.049)">
            <path id="Trazado_766605" data-name="Trazado 766605" d="M370.615,208.792c.1,0,.194,0,.29.01a4.122,4.122,0,0,0,0,8.224c-.1.007-.192.01-.29.01a4.122,4.122,0,0,1,0-8.245Z" transform="translate(-366.493 -208.792)" fill="#d1d1d6" fill-rule="evenodd"/>
          </g>
        </g>
        <g id="Grupo_1026209" data-name="Grupo 1026209" transform="translate(13.98 27.459)">
          <g id="Grupo_1026201" data-name="Grupo 1026201" transform="translate(4.269)">
            <g id="Grupo_1026199" data-name="Grupo 1026199">
              <circle id="Elipse_8591" data-name="Elipse 8591" cx="4.536" cy="4.536" r="4.536" fill="#f6dccd"/>
            </g>
            <g id="Grupo_1026200" data-name="Grupo 1026200" transform="translate(3.904)">
              <path id="Trazado_766606" data-name="Trazado 766606" d="M249.977,306.3a4.536,4.536,0,1,1-.632,9.027,4.536,4.536,0,0,0,0-8.983A4.58,4.58,0,0,1,249.977,306.3Z" transform="translate(-249.345 -306.304)" fill="#f1cbbc" fill-rule="evenodd"/>
            </g>
          </g>
          <g id="Grupo_1026204" data-name="Grupo 1026204" transform="translate(0 9.903)">
            <g id="Grupo_1026202" data-name="Grupo 1026202">
              <path id="Trazado_766607" data-name="Trazado 766607" d="M163.954,418.62H180.17a.694.694,0,0,0,.682-.835,8.973,8.973,0,0,0-17.58,0A.694.694,0,0,0,163.954,418.62Z" transform="translate(-163.258 -410.614)" fill="#8ac9fe" fill-rule="evenodd"/>
            </g>
            <g id="Grupo_1026203" data-name="Grupo 1026203" transform="translate(8.012 0)">
              <path id="Trazado_766608" data-name="Trazado 766608" d="M254.965,418.621h1.585a.694.694,0,0,0,.682-.835,8.974,8.974,0,0,0-8.79-7.171q-.4,0-.793.035a8.976,8.976,0,0,1,8,7.136A.694.694,0,0,1,254.965,418.621Z" transform="translate(-247.65 -410.615)" fill="#60b7ff" fill-rule="evenodd"/>
            </g>
          </g>
          <g id="Grupo_1026208" data-name="Grupo 1026208" transform="translate(6.641 9.903)">
            <g id="Grupo_1026205" data-name="Grupo 1026205" transform="translate(0 0.023)">
              <path id="Trazado_766609" data-name="Trazado 766609" d="M234.729,410.858h1.295l1.5,4.73a.229.229,0,0,1-.048.227l-1.928,2.177a.235.235,0,0,1-.351,0l-1.928-2.177a.229.229,0,0,1-.048-.227Z" transform="translate(-233.213 -410.858)" fill="#eceff1" fill-rule="evenodd"/>
            </g>
            <g id="Grupo_1026206" data-name="Grupo 1026206" transform="translate(1.772 0.001)">
              <path id="Trazado_766610" data-name="Trazado 766610" d="M252.129,410.626l.788.022,1.506,4.73a.229.229,0,0,1-.048.227l-1.928,2.177a.235.235,0,0,1-.351,0l-.215-.243,1.713-1.934a.229.229,0,0,0,.048-.227Z" transform="translate(-251.88 -410.626)" fill="#d1d1d6" fill-rule="evenodd"/>
            </g>
            <g id="Grupo_1026207" data-name="Grupo 1026207" transform="translate(1.508)">
              <path id="Trazado_766611" data-name="Trazado 766611" d="M249.728,410.615h.029q.325,0,.643.023l.089.281a8.948,8.948,0,0,0-1.392-.256l.008-.025Q249.414,410.616,249.728,410.615Z" transform="translate(-249.098 -410.615)" fill="#d1d1d6" fill-rule="evenodd"/>
            </g>
          </g>
        </g>
        <g id="Grupo_1026212" data-name="Grupo 1026212" transform="translate(0 13.113)">
          <g id="Grupo_1026210" data-name="Grupo 1026210" transform="translate(0 0)">
            <path id="Trazado_766612" data-name="Trazado 766612" d="M16.286,157.911h3.2a.284.284,0,0,0,.284-.258,2.725,2.725,0,0,1,5.426,0,.284.284,0,0,0,.284.258h3.2a.286.286,0,0,1,.285.285v3.2a.284.284,0,0,1-.258.284,2.725,2.725,0,0,0,0,5.426.284.284,0,0,1,.258.284v3.2a.286.286,0,0,1-.285.285H16.286a.286.286,0,0,1-.285-.285V158.2a.286.286,0,0,1,.285-.285Z" transform="translate(-16.001 -155.186)" fill="#fe7062" fill-rule="evenodd"/>
          </g>
          <g id="Grupo_1026211" data-name="Grupo 1026211" transform="translate(6.007)">
            <path id="Trazado_766613" data-name="Trazado 766613" d="M79.277,155.227a2.727,2.727,0,0,1,3.188,2.425.284.284,0,0,0,.284.258H81.8a.284.284,0,0,1-.284-.258A2.726,2.726,0,0,0,79.277,155.227ZM85,157.911a.286.286,0,0,1,.285.285v3.2a.284.284,0,0,1-.258.284,2.725,2.725,0,0,0,0,5.426.284.284,0,0,1,.258.284v3.2a.286.286,0,0,1-.285.285h.949a.286.286,0,0,0,.285-.285v-3.2a.284.284,0,0,0-.258-.284,2.725,2.725,0,0,1,0-5.426.284.284,0,0,0,.258-.284v-3.2a.286.286,0,0,0-.285-.285Z" transform="translate(-79.277 -155.186)" fill="#fe7062" fill-rule="evenodd"/>
          </g>
        </g>
        <g id="Grupo_1026215" data-name="Grupo 1026215" transform="translate(16.307 0)">
          <g id="Grupo_1026213" data-name="Grupo 1026213">
            <path id="Trazado_766614" data-name="Trazado 766614" d="M188.292,17.056h9.034a.5.5,0,0,1,.364.151l2.89,2.89a.5.5,0,0,1,.151.364V32.8a.516.516,0,0,1-.515.515H188.292a.516.516,0,0,1-.515-.515V17.571a.516.516,0,0,1,.515-.515Z" transform="translate(-187.777 -17.056)" fill="#eceff1" fill-rule="evenodd"/>
          </g>
          <g id="Grupo_1026214" data-name="Grupo 1026214" transform="translate(8.599 0)">
            <path id="Trazado_766615" data-name="Trazado 766615" d="M278.36,17.056h.949a.5.5,0,0,1,.364.151l2.89,2.89a.5.5,0,0,1,.151.364V32.8a.516.516,0,0,1-.515.515h-.949a.516.516,0,0,0,.515-.515V20.461a.5.5,0,0,0-.151-.364l-2.89-2.89A.5.5,0,0,0,278.36,17.056Z" transform="translate(-278.36 -17.056)" fill="#d1d1d6" fill-rule="evenodd"/>
          </g>
        </g>
        <g id="Grupo_1026218" data-name="Grupo 1026218" transform="translate(26.069 0.045)">
          <g id="Grupo_1026216" data-name="Grupo 1026216">
            <path id="Trazado_766616" data-name="Trazado 766616" d="M290.606,17.526a.516.516,0,0,1,.151.106l2.89,2.89a.515.515,0,0,1,.106.151h-2.89a.258.258,0,0,1-.257-.257Z" transform="translate(-290.606 -17.526)" fill="#a79ba7" fill-rule="evenodd"/>
          </g>
          <g id="Grupo_1026217" data-name="Grupo 1026217">
            <path id="Trazado_766617" data-name="Trazado 766617" d="M290.606,17.526a.516.516,0,0,1,.151.106l2.89,2.89a.515.515,0,0,1,.106.151H292.8a.516.516,0,0,0-.106-.151l-2.091-2.091Z" transform="translate(-290.606 -17.526)" fill="#837683" fill-rule="evenodd"/>
          </g>
        </g>
      </g>
      <g id="Grupo_1026220" data-name="Grupo 1026220" transform="translate(7.994 9.057)">
        <path id="Trazado_766618" data-name="Trazado 766618" d="M35.926,22.954a.759.759,0,0,1-.76.76H27.91a.76.76,0,0,1,0-1.519h7.257A.759.759,0,0,1,35.926,22.954Zm0-3.34a.759.759,0,0,1-.76.76H27.91a.76.76,0,1,1,0-1.519h7.257a.759.759,0,0,1,.76.76Zm-8.776-6.68a.76.76,0,0,1,.76-.76h4.562a.759.759,0,0,1,0,1.519H27.91a.759.759,0,0,1-.76-.759Zm8.776,3.341a.759.759,0,0,1-.76.759H27.91a.759.759,0,1,1,0-1.519h7.257A.759.759,0,0,1,35.926,16.275Zm12.266,14.4a.758.758,0,0,1-.049,1.073l-2.1,1.9a.749.749,0,0,1-.509.2A.757.757,0,0,1,45,33.629l-.862-.864a.759.759,0,0,1,1.072-1.073l.353.352,1.559-1.417A.759.759,0,0,1,48.192,30.679ZM46.15,35.416a3.275,3.275,0,1,0-3.275-3.275A3.28,3.28,0,0,0,46.15,35.416Zm0-8.07a4.794,4.794,0,1,0,4.795,4.794,4.8,4.8,0,0,0-4.795-4.794Zm7.413,5.379V31.556l-.867-.333a.761.761,0,0,1-.465-.534,6.269,6.269,0,0,0-.755-1.82.763.763,0,0,1-.049-.707l.38-.849-.827-.827-.853.378a.758.758,0,0,1-.706-.047,6.2,6.2,0,0,0-1.819-.755.752.752,0,0,1-.532-.465l-.335-.868H45.564l-.331.868a.759.759,0,0,1-.536.465,6.2,6.2,0,0,0-1.819.755.758.758,0,0,1-.706.047l-.849-.378-.827.827.375.851a.76.76,0,0,1-.045.706,6.166,6.166,0,0,0-.755,1.82.758.758,0,0,1-.469.534l-.867.333v1.169l.867.333a.757.757,0,0,1,.469.534,6.145,6.145,0,0,0,.755,1.82.761.761,0,0,1,.045.706l-.375.851.827.827.849-.378a.757.757,0,0,1,.706.047,6.28,6.28,0,0,0,1.819.754.759.759,0,0,1,.536.466l.331.868h1.171l.335-.867a.75.75,0,0,1,.532-.466,6.179,6.179,0,0,0,1.819-.755.757.757,0,0,1,.706-.047l.853.378.827-.827-.38-.851a.762.762,0,0,1,.049-.706,6.282,6.282,0,0,0,.755-1.82.761.761,0,0,1,.465-.534ZM39.746,50.184a10.152,10.152,0,0,0-5.027-3.649,5.509,5.509,0,0,0,2.333-4.5,5.579,5.579,0,0,0-.058-.825l2.8-2.8.827.828a.759.759,0,0,0,.845.158l.974-.432a7.749,7.749,0,0,0,1.519.63l.38.993a.758.758,0,0,0,.71.486h2.212a.756.756,0,0,0,.706-.486l.384-.993c.179-.053.358-.115.532-.181a18.313,18.313,0,0,1-9.133,10.773Zm-6.51,4.24h6.77a8.624,8.624,0,0,0-6.752-6.705l1.032,5.069a.766.766,0,0,1-.174.658Zm-3.414-6.705L28.79,52.788a.755.755,0,0,0,.179.658l.871.979H23.07a8.624,8.624,0,0,1,6.752-6.705ZM14.183,39.377A18.09,18.09,0,0,0,23.33,50.184a10.152,10.152,0,0,1,5.027-3.649,5.509,5.509,0,0,1-2.333-4.5,5.782,5.782,0,0,1,.1-1.049l-3.646-3.647v1.281a.759.759,0,0,1-.76.76ZM9.513,26.414h3a.759.759,0,0,0,.76-.76,1.966,1.966,0,0,1,3.932,0,.759.759,0,0,0,.76.76h2.994v2.321a3.486,3.486,0,0,0,0,6.8v2.32H9.513ZM24.3,17.288a18.085,18.085,0,0,0-7.1,5.5,3.474,3.474,0,0,1,1.43,2.11h3.079a.759.759,0,0,1,.76.759v3.757a.759.759,0,0,1-.76.76,1.966,1.966,0,1,0,0,3.931.759.759,0,0,1,.76.759v.328L26.69,39.4a5.531,5.531,0,0,1,4.089-2.833V26.832h-5.2A1.276,1.276,0,0,1,24.3,25.558Zm1.519-6.712V25.313H37.258V13.768H35.082a1.019,1.019,0,0,1-1.019-1.017V10.576Zm9.759,1.074.6.6h-.6ZM31.538,46.029a4,4,0,1,0-3.995-4,4,4,0,0,0,3.995,4Zm1.184,6.689-1.184,1.326-1.184-1.326,1.055-5.167.13,0,.134,0ZM46.194,23.21a18.075,18.075,0,0,0-7.422-5.922v8.271A1.273,1.273,0,0,1,37.5,26.832H32.3V36.57a5.528,5.528,0,0,1,4.178,3.006l2.359-2.361a.73.73,0,0,1,.063-.387l.429-.972a7.8,7.8,0,0,1-.63-1.519l-.992-.382a.764.764,0,0,1-.487-.709V31.035a.765.765,0,0,1,.487-.709l.992-.382a7.8,7.8,0,0,1,.63-1.519l-.429-.972a.754.754,0,0,1,.156-.846l1.564-1.563a.76.76,0,0,1,.845-.157l.974.432a7.7,7.7,0,0,1,1.519-.63l.38-.993a.758.758,0,0,1,.71-.486h1.148Zm8.4,7.116-.992-.382a7.8,7.8,0,0,0-.63-1.519l.433-.973a.769.769,0,0,0-.156-.845l-1.564-1.563a.765.765,0,0,0-.849-.157l-.97.432a7.869,7.869,0,0,0-.827-.386,19.621,19.621,0,0,0-10.268-9.288V13.221a1.241,1.241,0,0,0-.371-.9L35.511,9.43a1.248,1.248,0,0,0-.9-.373H25.577A1.276,1.276,0,0,0,24.3,10.331v5.313a19.614,19.614,0,0,0-8.566,6.563,3.383,3.383,0,0,0-.5-.037,3.485,3.485,0,0,0-3.4,2.725H8.754a.759.759,0,0,0-.76.759V38.617a.759.759,0,0,0,.76.76H12.6a19.741,19.741,0,0,0,9.929,12.1A10.1,10.1,0,0,0,21.43,55.1a.763.763,0,0,0,.188.588.772.772,0,0,0,.568.253h18.7a.757.757,0,0,0,.755-.841,10.18,10.18,0,0,0-1.09-3.626A19.7,19.7,0,0,0,50.511,39.25l.326.145a.764.764,0,0,0,.849-.158l1.564-1.564a.77.77,0,0,0,.156-.846l-.433-.973a7.811,7.811,0,0,0,.63-1.518l.992-.382a.757.757,0,0,0,.487-.709V31.035a.758.758,0,0,0-.487-.709Z" transform="translate(-7.994 -9.057)" fill="#242222" fill-rule="evenodd"/>
      </g>
    </g>
  </g>
</svg>
