<svg xmlns="http://www.w3.org/2000/svg" width="90" height="90" viewBox="0 0 90 90">
  <g id="Grupo_1026570" data-name="Grupo 1026570" transform="translate(-1063 -6533)">
    <rect id="Rectángulo_351171" data-name="Rectángulo 351171" width="90" height="90" transform="translate(1063 6533)" fill="none"/>
    <g id="_029-vision" data-name="029-vision" transform="translate(1070 6540)">
      <g id="Grupo_1026569" data-name="Grupo 1026569" transform="translate(1.233 1.234)">
        <g id="Grupo_1026566" data-name="Grupo 1026566" transform="translate(19.44 19.44)">
          <path id="Trazado_766814" data-name="Trazado 766814" d="M174.775,146.572A23.3,23.3,0,0,1,181.6,149.4l4.432-1.969,5.224,5.224-1.968,4.431a23.29,23.29,0,0,1,2.828,6.823l4.522,1.74v7.388l-4.523,1.741a23.3,23.3,0,0,1-2.828,6.821l1.969,4.432-5.224,5.224-4.431-1.968a23.291,23.291,0,0,1-6.823,2.828l-1.741,4.522h-7.388l-1.741-4.523a23.3,23.3,0,0,1-6.821-2.828l-4.432,1.969-5.224-5.224L149.4,181.6a23.3,23.3,0,0,1-2.828-6.823l-4.522-1.741v-7.388l4.523-1.741a23.291,23.291,0,0,1,2.828-6.821l-1.968-4.432,5.224-5.224,4.432,1.969a23.3,23.3,0,0,1,6.821-2.828l1.741-4.523h7.387Z" transform="translate(-142.046 -142.049)" fill="#fe7062" fill-rule="evenodd"/>
          <path id="Trazado_766815" data-name="Trazado 766815" d="M211.5,189.288l-4.432,1.969-.682-.682,4.156-1.846Q211.019,189.019,211.5,189.288Zm17.69-42.715a23.3,23.3,0,0,1,6.821,2.828l-1.26.56a30.727,30.727,0,0,0-7.78-3.387l-1.741-4.523h2.219Zm6.822,42.715a23.291,23.291,0,0,1-6.823,2.828l-1.741,4.522h-2.219l1.741-4.522a30.714,30.714,0,0,0,7.782-3.388ZM206.39,148.115l.682-.682L211.5,149.4q-.486.268-.959.56Zm32.522,0,1.537-.682,5.224,5.224-1.968,4.431a23.292,23.292,0,0,1,2.828,6.823l4.522,1.74v7.388l-4.523,1.741A23.3,23.3,0,0,1,243.7,181.6l1.969,4.432-5.224,5.224-1.537-.682,4.542-4.542-1.969-4.432a23.3,23.3,0,0,0,2.828-6.821l4.523-1.741v-7.388l-4.522-1.74a23.294,23.294,0,0,0-2.828-6.823l1.968-4.431Z" transform="translate(-196.466 -142.05)" fill="#e06053" fill-rule="evenodd"/>
          <circle id="Elipse_8634" data-name="Elipse 8634" cx="17.091" cy="17.091" r="17.091" transform="translate(3.117 27.294) rotate(-45)" fill="#eceff1"/>
          <path id="Trazado_766816" data-name="Trazado 766816" d="M225.3,208.21a17.091,17.091,0,0,0,0,34.181q.686,0,1.359-.054a17.091,17.091,0,0,1,0-34.074Q225.982,208.211,225.3,208.21Z" transform="translate(-198.002 -198.006)" fill="#d1d1d6" fill-rule="evenodd"/>
        </g>
        <g id="Grupo_1026567" data-name="Grupo 1026567" transform="translate(34.26 38.918)">
          <path id="Trazado_766817" data-name="Trazado 766817" d="M240.766,276.6a2.63,2.63,0,1,1-2.63,2.63A2.63,2.63,0,0,1,240.766,276.6Zm19.69-8.252a2.63,2.63,0,1,1-2.63,2.63A2.63,2.63,0,0,1,260.456,268.344Zm-6.994,10.373a2.63,2.63,0,1,1-2.63,2.63A2.63,2.63,0,0,1,253.461,278.717Zm-5.424-9.394a2.63,2.63,0,1,1-2.63,2.63A2.63,2.63,0,0,1,248.038,269.323Z" transform="translate(-238.136 -268.344)" fill="#ffe177" fill-rule="evenodd"/>
          <path id="Trazado_766818" data-name="Trazado 766818" d="M252.857,276.6a2.63,2.63,0,1,1-.425,5.225,2.63,2.63,0,0,0,0-5.19A2.657,2.657,0,0,1,252.857,276.6Zm19.69-8.252a2.63,2.63,0,1,1-.425,5.225,2.63,2.63,0,0,0,0-5.19A2.657,2.657,0,0,1,272.547,268.344Zm-6.994,10.373a2.63,2.63,0,1,1-.425,5.225,2.63,2.63,0,0,0,0-5.19A2.659,2.659,0,0,1,265.553,278.717Zm-5.424-9.394a2.63,2.63,0,1,1-.425,5.225,2.63,2.63,0,0,0,0-5.19A2.654,2.654,0,0,1,260.129,269.323Z" transform="translate(-250.227 -268.344)" fill="#60b7ff" fill-rule="evenodd"/>
        </g>
        <g id="Grupo_1026568" data-name="Grupo 1026568">
          <ellipse id="Elipse_8635" data-name="Elipse 8635" cx="20.803" cy="10.851" rx="20.803" ry="10.851" fill="#8ac9fe"/>
          <path id="Trazado_766819" data-name="Trazado 766819" d="M146.652,16a25.334,25.334,0,0,1,20.8,10.851,25.334,25.334,0,0,1-20.8,10.851q-.387,0-.771-.012a25.336,25.336,0,0,0,20.032-10.839,25.336,25.336,0,0,0-20.032-10.839Q146.265,16,146.652,16Z" transform="translate(-125.849 -16)" fill="#60b7ff" fill-rule="evenodd"/>
          <ellipse id="Elipse_8636" data-name="Elipse 8636" cx="7.277" cy="7.277" rx="7.277" ry="7.277" transform="translate(12.046 5.434) rotate(-13.3)" fill="#eceff1"/>
          <path id="Trazado_766820" data-name="Trazado 766820" d="M110.972,39.17a7.32,7.32,0,0,1,.771.041,7.278,7.278,0,0,0,0,14.474,7.361,7.361,0,0,1-.771.041,7.277,7.277,0,0,1,0-14.555Z" transform="translate(-90.169 -35.597)" fill="#d1d1d6" fill-rule="evenodd"/>
          <ellipse id="Elipse_8637" data-name="Elipse 8637" cx="2.444" cy="2.444" rx="2.444" ry="2.444" transform="translate(18.358 8.406)" fill="#8ac9fe"/>
          <path id="Trazado_766821" data-name="Trazado 766821" d="M137.475,70.506a2.462,2.462,0,0,1,.386.03,2.445,2.445,0,0,0,0,4.828,2.445,2.445,0,1,1-.386-4.859Z" transform="translate(-116.673 -62.1)" fill="#60b7ff" fill-rule="evenodd"/>
        </g>
      </g>
      <path id="Trazado_766822" data-name="Trazado 766822" d="M67.212,50.783a1.4,1.4,0,1,1-1.4-1.4A1.4,1.4,0,0,1,67.212,50.783ZM58.82,62.553a1.4,1.4,0,1,1,1.394-1.4A1.4,1.4,0,0,1,58.82,62.553ZM52,51.762a1.4,1.4,0,1,1,1.4,1.4A1.4,1.4,0,0,1,52,51.762Zm-5.873,8.669a1.4,1.4,0,1,1,1.394-1.4,1.4,1.4,0,0,1-1.394,1.4Zm15.825-9.648a3.832,3.832,0,0,0,.8,2.344l-2.9,4.3a3.874,3.874,0,0,0-1.786-.062l-1.764-3.055a3.868,3.868,0,1,0-6.359-.836l-2.1,2.1a3.826,3.826,0,0,0-1.713-.4,3.855,3.855,0,1,0,3.463,2.147l2.091-2.1a3.871,3.871,0,0,0,1.72.4,3.821,3.821,0,0,0,.762-.076L55.923,58.6a3.86,3.86,0,1,0,5.967.208l2.9-4.3a3.864,3.864,0,1,0-2.838-3.725ZM55.967,71.827A15.857,15.857,0,1,0,40.113,55.97,15.869,15.869,0,0,0,55.967,71.827Zm0-34.181A18.324,18.324,0,1,0,74.289,55.97,18.343,18.343,0,0,0,55.967,37.646Zm26.061,21.17V53.124L78.3,51.686a1.23,1.23,0,0,1-.755-.865,22.04,22.04,0,0,0-2.679-6.461,1.22,1.22,0,0,1-.08-1.149l1.626-3.656L72.38,35.53l-3.659,1.624a1.232,1.232,0,0,1-1.147-.077A22.014,22.014,0,0,0,61.114,34.4a1.235,1.235,0,0,1-.864-.757L58.813,29.91H53.121l-1.437,3.732a1.235,1.235,0,0,1-.864.757,22.012,22.012,0,0,0-6.461,2.678,1.232,1.232,0,0,1-1.147.077L39.554,35.53l-4.029,4.025,1.626,3.658a1.216,1.216,0,0,1-.08,1.148A21.839,21.839,0,0,0,34.4,50.821a1.224,1.224,0,0,1-.762.865l-3.731,1.438v5.692l3.731,1.437a1.216,1.216,0,0,1,.755.865,22.022,22.022,0,0,0,2.679,6.461,1.22,1.22,0,0,1,.08,1.149l-1.626,3.657,4.029,4.025,3.659-1.624a1.231,1.231,0,0,1,1.147.077,21.991,21.991,0,0,0,6.461,2.678,1.235,1.235,0,0,1,.864.756l1.437,3.733h5.691L60.25,78.3a1.235,1.235,0,0,1,.864-.758,22.013,22.013,0,0,0,6.461-2.679,1.249,1.249,0,0,1,1.154-.077L72.38,76.41l4.029-4.025-1.626-3.658a1.216,1.216,0,0,1,.08-1.148,22.068,22.068,0,0,0,2.679-6.461,1.238,1.238,0,0,1,.755-.865ZM83.7,51.125l-3.927-1.511A24.54,24.54,0,0,0,77.3,43.63l1.706-3.847a1.226,1.226,0,0,0-.254-1.374l-4.566-4.562c.007-.011.022-.02.029-.033a1.238,1.238,0,0,0,.065-1.209c-.378-.768-.784-1.525-1.22-2.261a1.235,1.235,0,1,0-2.12,1.268q.436.734.828,1.49L68.308,34.64a24.594,24.594,0,0,0-5.982-2.481l-1.51-3.925a1.245,1.245,0,0,0-1.154-.791h-7.39a1.228,1.228,0,0,0-1.147.791l-1.517,3.925a24.6,24.6,0,0,0-5.982,2.481l-3.847-1.709a1.23,1.23,0,0,0-1.372.255L33.18,38.409a1.251,1.251,0,0,0-.254,1.374l1.713,3.847a24.584,24.584,0,0,0-2.483,5.984l-3.927,1.511a1.242,1.242,0,0,0-.791,1.152v7.388a1.24,1.24,0,0,0,.791,1.151l3.927,1.511a24.539,24.539,0,0,0,2.483,5.984L33.1,71.762l-.269-.13a1.232,1.232,0,0,0-1.793,1.259c.094.728.675.95,1.256,1.244L34,74.925a1.245,1.245,0,0,0,.661.083l3.746,3.746a1.23,1.23,0,0,0,1.372.255L43.626,77.3a24.566,24.566,0,0,0,5.982,2.482l1.517,3.924a1.228,1.228,0,0,0,1.147.791h7.39a1.245,1.245,0,0,0,1.154-.791l1.51-3.924a24.568,24.568,0,0,0,5.982-2.48l3.847,1.707a1.23,1.23,0,0,0,1.372-.255l5.227-5.223a1.226,1.226,0,0,0,.254-1.374l-1.713-3.848a24.27,24.27,0,0,0,2.483-5.982L83.7,60.815a1.23,1.23,0,0,0,.791-1.151V52.276a1.229,1.229,0,0,0-.791-1.151ZM28.825,20.087a1.212,1.212,0,1,1,1.212,1.21,1.213,1.213,0,0,1-1.212-1.21Zm4.893,0a3.68,3.68,0,1,0-3.68,3.678A3.686,3.686,0,0,0,33.717,20.087Zm-9.727,0a6.043,6.043,0,1,0,6.047-6.044A6.054,6.054,0,0,0,23.99,20.087Zm14.555,0a8.511,8.511,0,1,1-8.508-8.512A8.519,8.519,0,0,1,38.545,20.087ZM21.159,60.205a1.232,1.232,0,0,1-2.149,1.207L17.848,59.12a1.234,1.234,0,0,1,2.243-1.027ZM17.522,52.54a1.237,1.237,0,0,1-1.96-.763l-.341-2.547a1.224,1.224,0,0,1,.588-1.178,1.238,1.238,0,0,1,1.866.939l.319,2.343a1.232,1.232,0,0,1-.472,1.206ZM65.063,22.393a1.237,1.237,0,0,1,1.408.134c.646.555,1.278,1.136,1.88,1.744a1.233,1.233,0,1,1-1.742,1.745c-.559-.56-1.14-1.1-1.735-1.609A1.234,1.234,0,0,1,65.063,22.393ZM27.424,68.7a1.236,1.236,0,0,1-2.04.711l-1.837-1.8A1.233,1.233,0,0,1,25.34,65.92l1.2,1.195C27.024,67.576,27.561,67.926,27.424,68.7Zm-9.1-29.11c-.182.771-.334,1.54-.45,2.323a1.233,1.233,0,0,1-2.439-.369c.123-.85.29-1.686.486-2.522a1.234,1.234,0,0,1,2.4.568ZM56.061,18.725A1.236,1.236,0,0,1,57.7,17.251q1.2.474,2.352,1.042a1.236,1.236,0,0,1-1.1,2.215q-1.056-.526-2.156-.961a1.229,1.229,0,0,1-.74-.822Zm-45.3,1.362a24.127,24.127,0,0,1,38.554,0,24.131,24.131,0,0,1-38.554,0Zm7.854,11.734c.312-.606.653-1.2,1.009-1.782a26.669,26.669,0,0,1-11.4-9.246,1.233,1.233,0,0,1,0-1.415,26.6,26.6,0,0,1,39.94-4.241c.7.043,1.394.107,2.1.2a1.235,1.235,0,0,1,.3,2.366q.675.811,1.285,1.679a1.233,1.233,0,0,1,0,1.415A26.644,26.644,0,0,1,30.037,32.171a26.539,26.539,0,0,1-8.058-1.254c-.421.666-.813,1.347-1.183,2.045a1.232,1.232,0,1,1-2.185-1.14Z" transform="translate(-7.999 -8.002)" fill="#242222" fill-rule="evenodd"/>
    </g>
  </g>
</svg>
