<svg xmlns="http://www.w3.org/2000/svg" xmlns:xlink="http://www.w3.org/1999/xlink" width="400" height="195" viewBox="0 0 400 195">
  <defs>
    <clipPath id="clip-path">
      <rect id="Rectángulo_360348" data-name="Rectángulo 360348" width="323.01" height="195" transform="translate(0 0)" fill="none"/>
    </clipPath>
  </defs>
  <g id="Grupo_1027025" data-name="Grupo 1027025" transform="translate(-915 -6867)">
    <rect id="Rectángulo_359612" data-name="Rectángulo 359612" width="400" height="195" transform="translate(915 6867)" fill="none"/>
    <g id="Grupo_1027024" data-name="Grupo 1027024" transform="translate(953 6866.997)">
      <g id="Grupo_1027023" data-name="Grupo 1027023" transform="translate(0 0.003)" clip-path="url(#clip-path)">
        <path id="Trazado_768718" data-name="Trazado 768718" d="M323.01,1486.217c0-5.015-72.308-9.081-161.505-9.081S0,1481.2,0,1486.217s72.308,9.081,161.505,9.081,161.505-4.066,161.505-9.081" transform="translate(0 -1300.298)" fill="#62c1c5"/>
        <path id="Trazado_768719" data-name="Trazado 768719" d="M1503.765,290.963a.577.577,0,0,1-.114,0,.563.563,0,0,1-.5-.618c8.42-80.837,19.051-138.8,29.933-163.212.242-.542.416-.934.474-1.126a.563.563,0,0,1,1.078.327,13.372,13.372,0,0,1-.524,1.258c-10.835,24.307-21.433,82.149-29.842,162.87a.563.563,0,0,1-.505.5" transform="translate(-1323.194 -110.569)" fill="#62c1c5"/>
        <path id="Trazado_768720" data-name="Trazado 768720" d="M1754.273,30.681c-1.314,2.758-9.4,8.9-10.192,8.526s-1.109-10.529.206-13.286a5.531,5.531,0,0,1,9.986,4.76" transform="translate(-1534.681 -20.043)" fill="#62c1c5"/>
        <path id="Trazado_768721" data-name="Trazado 768721" d="M1623.308,155.366c1.443,2.772,1.48,13.165.689,13.577s-9.284-5.578-10.728-8.35a5.659,5.659,0,1,1,10.038-5.227" transform="translate(-1419.57 -134.085)" fill="#62c1c5"/>
        <path id="Trazado_768722" data-name="Trazado 768722" d="M1720.321,225.5c-3.026.782-13.16-1.522-13.383-2.386s7.525-7.79,10.551-8.572a5.659,5.659,0,0,1,2.832,10.958" transform="translate(-1502.584 -188.701)" fill="#62c1c5"/>
        <path id="Trazado_768723" data-name="Trazado 768723" d="M1435.222,611.732c2.91,4.365,4.852,21.7,3.606,22.531s-16.5-7.628-19.412-11.993a9.5,9.5,0,1,1,15.806-10.538" transform="translate(-1248.082 -534.773)" fill="#62c1c5"/>
        <path id="Trazado_768724" data-name="Trazado 768724" d="M1614.245,702.817c-4.908,1.852-22.236-.159-22.765-1.56s11.149-14.361,16.056-16.213a9.5,9.5,0,1,1,6.708,17.773" transform="translate(-1400.937 -602.491)" fill="#62c1c5"/>
        <path id="Trazado_768725" data-name="Trazado 768725" d="M1337.3,800.295c4.65,4.427,11.637,24.6,10.374,25.925s-21.754-4.661-26.4-9.088a11.624,11.624,0,1,1,16.03-16.838" transform="translate(-1159.918 -701.665)" fill="#62c1c5"/>
        <path id="Trazado_768726" data-name="Trazado 768726" d="M1586.625,907.147c-6.207,1.637-27.047-2.994-27.514-4.765s15.378-16.077,21.586-17.714a11.624,11.624,0,1,1,5.928,22.479" transform="translate(-1372.45 -778.417)" fill="#62c1c5"/>
        <path id="Trazado_768727" data-name="Trazado 768727" d="M1307.722,1021.748c4.649,4.426,11.637,24.6,10.373,25.925s-21.754-4.661-26.4-9.088a11.624,11.624,0,1,1,16.03-16.837" transform="translate(-1133.878 -896.606)" fill="#62c1c5"/>
        <path id="Trazado_768728" data-name="Trazado 768728" d="M1557.044,1128.6c-6.208,1.637-27.047-2.994-27.514-4.766s15.378-16.077,21.586-17.714a11.624,11.624,0,0,1,5.928,22.479" transform="translate(-1346.411 -973.358)" fill="#62c1c5"/>
        <path id="Trazado_768729" data-name="Trazado 768729" d="M1233.737,1330.131c5.985,2.322,20.129,18.311,19.466,20.019s-21.889,3.976-27.874,1.655a11.624,11.624,0,1,1,8.408-21.674" transform="translate(-1072.101 -1170.197)" fill="#62c1c5"/>
        <path id="Trazado_768730" data-name="Trazado 768730" d="M1532.127,1349.629c-5.954,2.4-27.209.411-27.894-1.288s13.248-17.873,19.2-20.273a11.624,11.624,0,0,1,8.692,21.562" transform="translate(-1324.13 -1168.331)" fill="#62c1c5"/>
        <path id="Trazado_768731" data-name="Trazado 768731" d="M1579.525,299.688c1.466,2.816,1.5,13.376.7,13.794s-9.433-5.667-10.9-8.484a5.75,5.75,0,1,1,10.2-5.311" transform="translate(-1380.877 -261.086)" fill="#62c1c5"/>
        <path id="Trazado_768732" data-name="Trazado 768732" d="M1675.02,373.177c-3.074.795-13.371-1.547-13.6-2.424s7.646-7.915,10.72-8.709a5.75,5.75,0,0,1,2.878,11.133" transform="translate(-1462.517 -318.539)" fill="#62c1c5"/>
        <path id="Trazado_768733" data-name="Trazado 768733" d="M1494.534,431.5c2.4,3.817,3.688,18.763,2.6,19.45s-14.017-6.925-16.421-10.742a8.168,8.168,0,1,1,13.823-8.708" transform="translate(-1302.338 -376.483)" fill="#62c1c5"/>
        <path id="Trazado_768734" data-name="Trazado 768734" d="M1644.525,528.585c-4.368,1.129-19-2.2-19.318-3.444s10.862-11.244,15.23-12.373a8.168,8.168,0,0,1,4.088,15.817" transform="translate(-1430.635 -451.15)" fill="#62c1c5"/>
        <path id="Trazado_768735" data-name="Trazado 768735" d="M233.636,467.937a.232.232,0,0,0,.111-.341c-18.118-28.106-32.795-47.405-41.327-54.343-.19-.154-.326-.265-.383-.325a.232.232,0,1,0-.335.32,5.485,5.485,0,0,0,.426.364c8.5,6.908,23.138,26.169,41.23,54.235a.232.232,0,0,0,.279.091" transform="translate(-168.694 -363.431)" fill="#1f8b8d"/>
        <path id="Trazado_768736" data-name="Trazado 768736" d="M152.712,383.087c1,.768,5.107,1.519,5.326,1.235s-1.55-4.071-2.545-4.839a2.276,2.276,0,0,0-2.781,3.6" transform="translate(-133.65 -333.636)" fill="#1f8b8d"/>
        <path id="Trazado_768737" data-name="Trazado 768737" d="M224.357,404.16c-.014,1.286,1.9,5.107,2.271,5.111s2.371-3.773,2.385-5.059a2.328,2.328,0,1,0-4.656-.053" transform="translate(-197.498 -353.749)" fill="#1f8b8d"/>
        <path id="Trazado_768738" data-name="Trazado 768738" d="M184.748,456.641c1.256-.275,4.547-3.005,4.469-3.364s-4.21-1.46-5.466-1.185a2.328,2.328,0,0,0,1,4.549" transform="translate(-160.142 -397.931)" fill="#1f8b8d"/>
        <path id="Trazado_768739" data-name="Trazado 768739" d="M361.568,540.7c-.257,2.143,2.253,8.867,2.865,8.941s4.639-5.868,4.9-8.011a3.908,3.908,0,1,0-7.761-.93" transform="translate(-318.266 -472.936)" fill="#1f8b8d"/>
        <path id="Trazado_768740" data-name="Trazado 768740" d="M285.924,621.046c2.146-.232,8.132-4.192,8.066-4.8s-6.762-3.2-8.908-2.966a3.908,3.908,0,1,0,.842,7.771" transform="translate(-247.883 -539.843)" fill="#1f8b8d"/>
        <path id="Trazado_768741" data-name="Trazado 768741" d="M422.947,593.908c-.884,2.489.3,11.192,1.012,11.444s7.118-5.755,8-8.244a4.783,4.783,0,1,0-9.014-3.2" transform="translate(-372.036 -520.005)" fill="#1f8b8d"/>
        <path id="Trazado_768742" data-name="Trazado 768742" d="M316.666,697.331c2.583-.553,9.371-6.127,9.213-6.864s-8.633-3.042-11.216-2.489a4.783,4.783,0,1,0,2,9.353" transform="translate(-273.664 -605.541)" fill="#1f8b8d"/>
        <path id="Trazado_768743" data-name="Trazado 768743" d="M474.971,669.694c-.884,2.489.3,11.192,1.012,11.444s7.118-5.755,8-8.244a4.783,4.783,0,1,0-9.014-3.2" transform="translate(-417.832 -586.718)" fill="#1f8b8d"/>
        <path id="Trazado_768744" data-name="Trazado 768744" d="M368.69,773.117c2.583-.553,9.371-6.126,9.213-6.864s-8.633-3.042-11.216-2.489a4.782,4.782,0,1,0,2,9.353" transform="translate(-319.459 -672.254)" fill="#1f8b8d"/>
        <path id="Trazado_768745" data-name="Trazado 768745" d="M542.919,769.156c-1.765,1.965-3.985,10.463-3.424,10.967s8.774-2.61,10.539-4.574a4.782,4.782,0,0,0-7.115-6.392" transform="translate(-474.831 -675.678)" fill="#1f8b8d"/>
        <path id="Trazado_768746" data-name="Trazado 768746" d="M421.6,848.158c2.631-.226,10.063-4.907,10-5.658s-8.185-4.1-10.817-3.872a4.782,4.782,0,1,0,.818,9.53" transform="translate(-366.553 -738.22)" fill="#1f8b8d"/>
        <path id="Trazado_768747" data-name="Trazado 768747" d="M266.861,449.09c-.015,1.306,1.934,5.189,2.307,5.193s2.409-3.834,2.424-5.14a2.366,2.366,0,0,0-4.731-.053" transform="translate(-234.913 -393.267)" fill="#1f8b8d"/>
        <path id="Trazado_768748" data-name="Trazado 768748" d="M228.159,502.659c1.276-.28,4.62-3.053,4.54-3.417s-4.278-1.484-5.554-1.2a2.366,2.366,0,1,0,1.013,4.621" transform="translate(-198.315 -438.375)" fill="#1f8b8d"/>
        <path id="Trazado_768749" data-name="Trazado 768749" d="M312.06,484.185c-.173,1.848,2.134,7.573,2.662,7.622s3.858-5.147,4.031-7a3.361,3.361,0,0,0-6.692-.627" transform="translate(-274.693 -423.538)" fill="#1f8b8d"/>
        <path id="Trazado_768750" data-name="Trazado 768750" d="M250.418,560.272c1.813-.4,6.564-4.338,6.45-4.855s-6.077-2.108-7.89-1.711a3.361,3.361,0,1,0,1.44,6.566" transform="translate(-216.846 -487.363)" fill="#1f8b8d"/>
        <path id="Trazado_768751" data-name="Trazado 768751" d="M1203.7,1307.423l-2.921,1.523a.723.723,0,0,0-.307.976l12.483,23.938a.724.724,0,0,0,.976.307l2.921-1.523a.723.723,0,0,0,.307-.976l-12.484-23.938a.723.723,0,0,0-.976-.307" transform="translate(-1056.68 -1150.83)" fill="#1a264c"/>
        <path id="Trazado_768752" data-name="Trazado 768752" d="M133.832,837.9s26.549-45.056-57.649-77.333c0,0,1.4,92.864,57.649,77.333" transform="translate(-67.063 -669.518)" fill="#62c1c5"/>
        <path id="Trazado_768753" data-name="Trazado 768753" d="M75.293,759.348l60.071,71.306c3.907-13.344,5.44-46.193-60.071-71.306" transform="translate(-66.279 -668.441)" fill="#1f8b8d"/>
        <path id="Trazado_768754" data-name="Trazado 768754" d="M132.387,827.262a.06.06,0,0,1-.046-.021L74.807,758.945a.06.06,0,0,1,.091-.077l57.534,68.295a.06.06,0,0,1-.046.1" transform="translate(-65.839 -668)" fill="#1a264c"/>
        <path id="Trazado_768755" data-name="Trazado 768755" d="M145.015,1032.09h-.008l-24.578-3.357a.06.06,0,0,1-.051-.067.059.059,0,0,1,.068-.051l24.578,3.357a.06.06,0,0,1-.008.119" transform="translate(-105.966 -905.471)" fill="#1a264c"/>
        <path id="Trazado_768756" data-name="Trazado 768756" d="M393.41,1003.431a.06.06,0,0,1-.059-.048l-4.8-23.874a.06.06,0,0,1,.117-.024l4.8,23.874a.06.06,0,0,1-.047.07h-.012" transform="translate(-342.037 -862.182)" fill="#1a264c"/>
        <path id="Trazado_768757" data-name="Trazado 768757" d="M114.835,1255.727s-2-35.194-61.274-21.741c0,0,35.571,51.516,61.274,21.741" transform="translate(-47.149 -1083.558)" fill="#1f8b8d"/>
        <path id="Trazado_768758" data-name="Trazado 768758" d="M53.561,1256.52l61.274,21.741s-20.117,32.124-61.274-21.741" transform="translate(-47.149 -1106.093)" fill="#62c1c5"/>
        <path id="Trazado_768759" data-name="Trazado 768759" d="M181.85,1342.787a.06.06,0,0,1-.007-.119l14.908-1.685a.06.06,0,1,1,.013.119l-14.908,1.685h-.007" transform="translate(-160.027 -1180.444)" fill="#1f8b8d"/>
        <path id="Trazado_768760" data-name="Trazado 768760" d="M348.105,1422.518a.06.06,0,0,1-.013-.118l19.4-4.2a.06.06,0,0,1,.025.117l-19.4,4.2h-.013" transform="translate(-306.379 -1248.418)" fill="#1f8b8d"/>
        <path id="Trazado_768761" data-name="Trazado 768761" d="M584.346,390.7a10.107,10.107,0,1,0,10.107,10.107A10.107,10.107,0,0,0,584.346,390.7m.23,17.588a7.482,7.482,0,1,1,7.481-7.482,7.482,7.482,0,0,1-7.481,7.482" transform="translate(-505.493 -343.927)" fill="#62c1c5"/>
        <rect id="Rectángulo_360332" data-name="Rectángulo 360332" width="2.756" height="3.938" transform="translate(77.475 43.754)" fill="#62c1c5"/>
        <rect id="Rectángulo_360333" data-name="Rectángulo 360333" width="3.938" height="2.756" transform="translate(81.267 47.581) rotate(-64.977)" fill="#62c1c5"/>
        <rect id="Rectángulo_360334" data-name="Rectángulo 360334" width="3.938" height="2.756" transform="matrix(0.747, -0.665, 0.665, 0.747, 84.637, 49.152)" fill="#62c1c5"/>
        <rect id="Rectángulo_360335" data-name="Rectángulo 360335" width="3.938" height="2.756" transform="matrix(0.916, -0.4, 0.4, 0.916, 86.899, 51.943)" fill="#62c1c5"/>
        <rect id="Rectángulo_360336" data-name="Rectángulo 360336" width="3.938" height="2.756" transform="translate(65.826 55.567)" fill="#62c1c5"/>
        <rect id="Rectángulo_360337" data-name="Rectángulo 360337" width="3.938" height="2.756" transform="translate(87.877 55.567)" fill="#62c1c5"/>
        <rect id="Rectángulo_360338" data-name="Rectángulo 360338" width="2.756" height="3.938" transform="matrix(0.906, -0.423, 0.423, 0.906, 72.21, 45.178)" fill="#62c1c5"/>
        <rect id="Rectángulo_360339" data-name="Rectángulo 360339" width="2.756" height="3.938" transform="matrix(0.665, -0.747, 0.747, 0.665, 68.23, 48.595)" fill="#62c1c5"/>
        <rect id="Rectángulo_360340" data-name="Rectángulo 360340" width="2.756" height="3.938" transform="translate(66.029 52.892) rotate(-66.396)" fill="#62c1c5"/>
        <rect id="Rectángulo_360341" data-name="Rectángulo 360341" width="2.756" height="3.938" transform="translate(77.508 66.199)" fill="#62c1c5"/>
        <rect id="Rectángulo_360342" data-name="Rectángulo 360342" width="2.756" height="3.938" transform="translate(81.3 66.31) rotate(-25.025)" fill="#62c1c5"/>
        <rect id="Rectángulo_360343" data-name="Rectángulo 360343" width="2.756" height="3.938" transform="matrix(0.665, -0.747, 0.747, 0.665, 84.669, 64.739)" fill="#62c1c5"/>
        <rect id="Rectángulo_360344" data-name="Rectángulo 360344" width="2.756" height="3.938" transform="translate(86.932 61.948) rotate(-66.393)" fill="#62c1c5"/>
        <rect id="Rectángulo_360345" data-name="Rectángulo 360345" width="3.938" height="2.756" transform="translate(72.243 68.713) rotate(-64.976)" fill="#62c1c5"/>
        <rect id="Rectángulo_360346" data-name="Rectángulo 360346" width="3.938" height="2.756" transform="matrix(0.747, -0.665, 0.665, 0.747, 68.262, 65.296)" fill="#62c1c5"/>
        <rect id="Rectángulo_360347" data-name="Rectángulo 360347" width="3.938" height="2.756" transform="matrix(0.916, -0.4, 0.4, 0.916, 66.062, 60.999)" fill="#62c1c5"/>
        <path id="Trazado_768762" data-name="Trazado 768762" d="M689.219,1304.861l2.9,1.557a.723.723,0,0,1,.3.979l-12.76,23.791a.723.723,0,0,1-.979.3l-2.9-1.557a.723.723,0,0,1-.3-.979l12.76-23.791a.723.723,0,0,1,.979-.3" transform="translate(-594.537 -1148.571)" fill="#1a264c"/>
        <path id="Trazado_768763" data-name="Trazado 768763" d="M619.919,503.059a62.54,62.54,0,1,0-62.9,62.177,62.54,62.54,0,0,0,62.9-62.177" transform="translate(-435.599 -387.462)" fill="#fe7062"/>
        <path id="Trazado_768764" data-name="Trazado 768764" d="M703.321,599.512a49.412,49.412,0,1,0-49.7,49.125,49.412,49.412,0,0,0,49.7-49.125" transform="translate(-532.129 -483.992)" fill="#fff"/>
        <path id="Trazado_768765" data-name="Trazado 768765" d="M772.823,679.891a38.472,38.472,0,1,0-38.695,38.248,38.472,38.472,0,0,0,38.695-38.248" transform="translate(-612.571 -564.434)" fill="#fe7062"/>
        <path id="Trazado_768766" data-name="Trazado 768766" d="M846.958,765.627A26.8,26.8,0,1,0,820,792.275a26.8,26.8,0,0,0,26.958-26.647" transform="translate(-698.374 -650.238)" fill="#fff"/>
        <path id="Trazado_768767" data-name="Trazado 768767" d="M915.3,844.666a16.045,16.045,0,1,0-16.138,15.952A16.045,16.045,0,0,0,915.3,844.666" transform="translate(-777.476 -729.339)" fill="#fe7062"/>
        <path id="Trazado_768768" data-name="Trazado 768768" d="M1566.115,1465.879s1.742,7,1.209,7.96c-.3.546-8.385,3.651-8.914,2.6s5.406-4.246,5.334-6.423a13.512,13.512,0,0,0-.816-4.051Z" transform="translate(-1371.812 -1290.389)" fill="#fb9391"/>
        <path id="Trazado_768769" data-name="Trazado 768769" d="M1567.227,1508.65c-3.687,3.292-5.3,2.929-5.954,2.361-1.518,1.317-3.112,2.508-2.827,3.075.528,1.053,8.61-2.052,8.913-2.6a6.923,6.923,0,0,0-.132-2.838" transform="translate(-1371.844 -1328.039)" fill="#f6a50f"/>
        <path id="Trazado_768770" data-name="Trazado 768770" d="M1791.948,1422.434s5.418,4.769,5.524,5.858c.06.622-4.818,7.773-5.851,7.208s2.029-6.568.732-8.317a13.509,13.509,0,0,0-2.976-2.867Z" transform="translate(-1575.157 -1252.144)" fill="#fb9391"/>
        <path id="Trazado_768771" data-name="Trazado 768771" d="M1810.676,1452.468c-1.159,4.8-2.693,5.425-3.553,5.329-.5,1.947-1.132,3.833-.575,4.138,1.033.565,5.912-6.587,5.851-7.208a6.92,6.92,0,0,0-1.724-2.259" transform="translate(-1590.082 -1278.583)" fill="#f6a50f"/>
        <path id="Trazado_768772" data-name="Trazado 768772" d="M2273.66,1391.581s3.9,2.282,3.937,2.346a2.768,2.768,0,0,0,.71.044l.956-1.087.161-1.422s-3.653-2.076-4.149-2.535-1.614,2.654-1.614,2.654" transform="translate(-2001.464 -1222.608)" fill="#fff"/>
        <path id="Trazado_768773" data-name="Trazado 768773" d="M2304.97,1410.44a3.705,3.705,0,0,1-1.9,2.412s-1.076,5.741.344,6.4c0,0,.277.44,1.417-1.64s2.956-5.285,2.96-5.4.459-.38-2.823-1.778" transform="translate(-2027.01 -1241.586)" fill="#1a264c"/>
        <path id="Trazado_768774" data-name="Trazado 768774" d="M2012.413,1494.512s.875,4.433.851,4.5.438.561.438.561l1.448,0,1.172-.822s-.866-4.111-.851-4.787-3.057.55-3.057.55" transform="translate(-1771.492 -1314.931)" fill="#fff"/>
        <path id="Trazado_768775" data-name="Trazado 768775" d="M1988.731,1535.444a3.7,3.7,0,0,1-3.064.177s-5.013,3-4.569,4.5c0,0-.146.5,2.168-.025s5.917-1.288,6-1.359.589.091-.538-3.293" transform="translate(-1743.901 -1351.625)" fill="#1a264c"/>
        <path id="Trazado_768776" data-name="Trazado 768776" d="M1828.071,911.852a24.957,24.957,0,0,1,9.916,2.845c5.076,2.7,10.6,8.763,8.594,18.561l-3.479-.394s-2.66-9.916-5.776-10.388c0,0,4.2,7.116,3.612,17.96l-17.235.277s-2.007-15.265-3.541-16.692c0,0-4.3,5.024-10.27,4.948l-5.97-.076-.4-2.61s6.2-.8,9.5-4.337c2.748-2.945,6.316-6.906,7.791-7.968s7.26-2.125,7.26-2.125" transform="translate(-1587.605 -802.688)" fill="#fff"/>
        <path id="Trazado_768777" data-name="Trazado 768777" d="M1991.249,959.679c-1.323-8.647-5.61-23.012-5.653-23.156l.029-.009c.043.144,4.331,14.511,5.654,23.161Z" transform="translate(-1747.886 -824.398)" fill="#acc7f9"/>
        <path id="Trazado_768778" data-name="Trazado 768778" d="M1959.409,1123.665l17.657-.861a24.587,24.587,0,0,1,1.854,5.792c.708,3.541,3.777,13.221,8.617,17.471a85.064,85.064,0,0,0,11.923,8.263l-2.833,4.958s-15.347-6.138-19.6-10.624-6.965-14.874-8.618-14.166-1.535,19.124-1.3,22.075,2.007,13.1,2.007,13.1l-5.076.59s-5.666-15.11-5.9-19.95,1.266-26.652,1.266-26.652" transform="translate(-1723.698 -988.385)" fill="#1a264c"/>
        <path id="Trazado_768779" data-name="Trazado 768779" d="M1974.813,922.964l.808,1.272,1.33-.288.427-1.586-1.707-.625Z" transform="translate(-1738.393 -811.389)" fill="#fdd246"/>
        <path id="Trazado_768780" data-name="Trazado 768780" d="M1929.676,861.228s-.453-.453-.684-.184c-.588.685.253,1.242.75,1.3Z" transform="translate(-1697.881 -757.887)" fill="#ea6868"/>
        <path id="Trazado_768781" data-name="Trazado 768781" d="M1930.7,807.708h0c-.013-.055-.026-.109-.038-.164a4.356,4.356,0,1,1,8.52.075c-.192,1.079-.366,2-.59,2.789a6.222,6.222,0,0,0,.2,3.943l.383.991a5.149,5.149,0,0,1-2.39,1.414,1.937,1.937,0,0,1-1.41-.538l-.432-1.873a.484.484,0,0,0-.539-.369h0c-3.3.45-3.4-4.8-3.7-6.268" transform="translate(-1699.458 -706.267)" fill="#fb9391"/>
        <path id="Trazado_768782" data-name="Trazado 768782" d="M1941.308,855.983a.317.317,0,1,1,.374.247.317.317,0,0,1-.374-.247" transform="translate(-1708.894 -753.173)" fill="#1a264c"/>
        <path id="Trazado_768783" data-name="Trazado 768783" d="M1973.743,856.128a.317.317,0,1,1,.374.247.317.317,0,0,1-.374-.247" transform="translate(-1737.446 -753.301)" fill="#1a264c"/>
        <path id="Trazado_768784" data-name="Trazado 768784" d="M1970.142,845.229a.235.235,0,0,0,.113-.057.238.238,0,0,0,.015-.336,1.274,1.274,0,0,0-1.782-.053.238.238,0,1,0,.293.374.8.8,0,0,1,1.138,0,.237.237,0,0,0,.223.072" transform="translate(-1732.746 -743.353)" fill="#213361"/>
        <path id="Trazado_768785" data-name="Trazado 768785" d="M1937.972,846.381a.235.235,0,0,0,.113-.058.238.238,0,0,0,.015-.336,1.274,1.274,0,0,0-1.782-.053.238.238,0,0,0,.293.374.8.8,0,0,1,1.138,0,.238.238,0,0,0,.223.072" transform="translate(-1704.427 -744.367)" fill="#213361"/>
        <path id="Trazado_768786" data-name="Trazado 768786" d="M1951.355,879.972a2.162,2.162,0,0,0,1.7-.483.071.071,0,0,0-.092-.107c-.049.042-1.2,1.008-2.142.134a.07.07,0,1,0-.1.1,1.444,1.444,0,0,0,.626.353" transform="translate(-1717.173 -774.09)" fill="#1a264c"/>
        <path id="Trazado_768787" data-name="Trazado 768787" d="M1917.437,797.764a2.92,2.92,0,0,0-.49-.621,2.6,2.6,0,0,0-1.824-.545c-.65.016-1.293.154-1.943.164a7,7,0,0,0-1.965.086.956.956,0,0,0-.381.2,2.51,2.51,0,0,0-.262.356,2.52,2.52,0,0,1-1.631.766l-1.048.2a1.48,1.48,0,0,0-.825.348,1.643,1.643,0,0,0-.31.953,1.154,1.154,0,0,1-.429.886c-.1.06-.227.1-.271.209a.318.318,0,0,0-.01.167.98.98,0,0,0,1.042.8,1.8,1.8,0,0,1,.358-.04c.434.038.59.615.968.831a.948.948,0,0,0,.779.023,5.8,5.8,0,0,0,.716-.363,3.609,3.609,0,0,1,.9-.324,1.387,1.387,0,0,1,.673-.011c.114.033.22.09.334.124a1.386,1.386,0,0,0,1.162-.3c.337-.241.622-.552.975-.768a1.2,1.2,0,0,1,1.178-.118,4.7,4.7,0,0,1,.537.467,2.467,2.467,0,0,0,1.811.274.645.645,0,0,0,.365-.117.567.567,0,0,0,.141-.234,4.109,4.109,0,0,0-.552-3.42" transform="translate(-1677.856 -701.231)" fill="#213361"/>
        <path id="Trazado_768788" data-name="Trazado 768788" d="M1987.171,829.618l-.557,3.054-.808,0-1.224-3.63Z" transform="translate(-1746.993 -729.795)" fill="#213361"/>
        <path id="Trazado_768789" data-name="Trazado 768789" d="M1993.135,854.161a.646.646,0,0,1,.271-.369,1.091,1.091,0,0,1,1.194-.13c.631.417-.14,2.022-1.323,1.544,0,0-.359-.237-.141-1.045" transform="translate(-1754.461 -751.348)" fill="#fb9391"/>
        <path id="Trazado_768790" data-name="Trazado 768790" d="M1954.318,859.348a.812.812,0,0,0,.72-.169.071.071,0,0,0-.1-.1.662.662,0,0,1-.8.047c-.073-.043-.115-.083-.123-.116s.032-.12.094-.22a2.075,2.075,0,0,0,.321-1.375.071.071,0,0,0-.141.01,1.924,1.924,0,0,1-.3,1.292c-.076.125-.136.224-.11.328a.353.353,0,0,0,.188.2.935.935,0,0,0,.244.1" transform="translate(-1719.967 -754.708)" fill="#ea6868"/>
        <path id="Trazado_768791" data-name="Trazado 768791" d="M1968.486,903.6l-1.088-.956-2.073,2.286-1.541-1.208-.724,1.353,1.321,1.628,1.01-1.477,1.719.95Z" transform="translate(-1728.05 -794.58)" fill="#fff"/>
        <path id="Trazado_768792" data-name="Trazado 768792" d="M1981.558,858.519s1.261,3.566,4.627,2.664,11.208-10.13,18.5-7.519l4.058-2.65-3.19-3.586s-4.857-1.1-8.937.625-9.774,13.521-13.727,10.178Z" transform="translate(-1744.331 -745.672)" fill="#91b3fa"/>
        <path id="Trazado_768793" data-name="Trazado 768793" d="M2004.259,978.2a.285.285,0,1,0-.285.285.285.285,0,0,0,.285-.285" transform="translate(-1763.812 -860.845)" fill="#1a264c"/>
        <path id="Trazado_768794" data-name="Trazado 768794" d="M2014.119,1013.7a.285.285,0,1,0-.285.285.285.285,0,0,0,.285-.285" transform="translate(-1772.491 -892.093)" fill="#1a264c"/>
        <path id="Trazado_768795" data-name="Trazado 768795" d="M2023.98,1056.1a.285.285,0,1,0-.285.285.285.285,0,0,0,.285-.285" transform="translate(-1781.172 -929.417)" fill="#1a264c"/>
        <path id="Trazado_768796" data-name="Trazado 768796" d="M2033.512,1096.858a.285.285,0,1,0-.285.285.285.285,0,0,0,.285-.285" transform="translate(-1789.563 -965.295)" fill="#1a264c"/>
        <path id="Trazado_768797" data-name="Trazado 768797" d="M2401.6,1068.29a.479.479,0,0,1-.409-.229l-10.411-17.014a.479.479,0,0,1,.083-.6l15.088-14a.479.479,0,0,1,.651.7l-14.8,13.731,10.207,16.68a.479.479,0,0,1-.408.729" transform="translate(-2104.502 -912.255)" fill="#13676b"/>
        <path id="Trazado_768798" data-name="Trazado 768798" d="M2348.177,1056.554a.478.478,0,0,1-.409-.229l-10.411-17.014a.479.479,0,0,1,.083-.6l15.088-14a.479.479,0,0,1,.651.7l-14.8,13.731,10.206,16.679a.479.479,0,0,1-.408.729" transform="translate(-2057.473 -901.924)" fill="#13676b"/>
        <path id="Trazado_768799" data-name="Trazado 768799" d="M2297.808,1048.957a.479.479,0,0,1-.409-.229l-10.411-17.014a.479.479,0,0,1,.083-.6l15.088-14a.479.479,0,1,1,.651.7l-14.8,13.732,10.206,16.679a.479.479,0,0,1-.408.729" transform="translate(-2013.134 -895.236)" fill="#13676b"/>
        <path id="Trazado_768800" data-name="Trazado 768800" d="M2254.634,1042.448a.479.479,0,0,1-.409-.229l-10.411-17.014a.479.479,0,0,1,.083-.6l15.088-14a.479.479,0,1,1,.651.7l-14.8,13.731,10.207,16.679a.479.479,0,0,1-.408.729" transform="translate(-1975.129 -889.507)" fill="#13676b"/>
        <path id="Trazado_768801" data-name="Trazado 768801" d="M2210.129,1036.884a.478.478,0,0,1-.409-.229l-10.411-17.014a.479.479,0,0,1,.083-.6l15.088-14a.479.479,0,0,1,.651.7l-14.8,13.731,10.206,16.679a.479.479,0,0,1-.408.729" transform="translate(-1935.952 -884.609)" fill="#13676b"/>
        <path id="Trazado_768802" data-name="Trazado 768802" d="M1229.539,967.217a.3.3,0,0,1-.048,0L1068.662,941.2a.3.3,0,0,1,.1-.591l160.829,26.016a.3.3,0,0,1-.047.595" transform="translate(-940.503 -827.996)" fill="#1a264c"/>
        <path id="Trazado_768803" data-name="Trazado 768803" d="M1002.206,903.542l24.072,9.8-5.852-7.931,5.973-6.858Z" transform="translate(-882.225 -790.98)" fill="#13676b"/>
        <path id="Trazado_768804" data-name="Trazado 768804" d="M2118.386,1088.146a5.4,5.4,0,0,1-.959,1.28c-.543.535-1.957.749-1.931.991.048.44,2.039.036,2.039.036s-.192,1.634-.265,2.111.028.964.373,1.045.458-.749.458-.749-.05.912.364.906c.334,0,.6-1.164.6-1.164a7.341,7.341,0,0,0,.011.992c.055.256.45.451.654-.286s.193-.718.193-.718a5.893,5.893,0,0,0,.1.963c.069.175.482.339.551-.3a13.342,13.342,0,0,0-.378-4.917Z" transform="translate(-1862.234 -957.877)" fill="#fb9391"/>
        <path id="Trazado_768805" data-name="Trazado 768805" d="M1755.574,1036.083a29.782,29.782,0,0,0-3.846.356c-1.151.266-2.88.929-2.745,1.3s2.3-.1,2.3-.1l3.738.6.842-.279Z" transform="translate(-1539.593 -912.046)" fill="#fb9391"/>
        <path id="Trazado_768806" data-name="Trazado 768806" d="M1768.629,1061.627a.305.305,0,1,0-.3.3.3.3,0,0,0,.3-.3" transform="translate(-1556.357 -934.264)" fill="#fb9391"/>
        <path id="Trazado_768807" data-name="Trazado 768807" d="M1763.075,1059.878a.342.342,0,1,0-.342.342.342.342,0,0,0,.342-.342" transform="translate(-1551.403 -932.692)" fill="#fb9391"/>
        <path id="Trazado_768808" data-name="Trazado 768808" d="M1757.364,1059.878a.342.342,0,1,0-.342.342.342.342,0,0,0,.342-.342" transform="translate(-1546.375 -932.692)" fill="#fb9391"/>
        <path id="Trazado_768809" data-name="Trazado 768809" d="M1753.091,1058.727a.342.342,0,1,0-.342.342.342.342,0,0,0,.342-.342" transform="translate(-1542.614 -931.678)" fill="#fb9391"/>
        <path id="Trazado_768810" data-name="Trazado 768810" d="M1718.262,1053.6a.3.3,0,1,0-.3.3.3.3,0,0,0,.3-.3" transform="translate(-1512.019 -927.193)" fill="#fb9391"/>
        <path id="Trazado_768811" data-name="Trazado 768811" d="M1712.707,1051.845a.342.342,0,1,0-.342.342.342.342,0,0,0,.342-.342" transform="translate(-1507.064 -925.62)" fill="#fb9391"/>
        <path id="Trazado_768812" data-name="Trazado 768812" d="M1707,1051.845a.342.342,0,1,0-.342.342.342.342,0,0,0,.342-.342" transform="translate(-1502.037 -925.62)" fill="#fb9391"/>
        <path id="Trazado_768813" data-name="Trazado 768813" d="M1702.723,1050.694a.342.342,0,1,0-.342.342.342.342,0,0,0,.342-.342" transform="translate(-1498.276 -924.607)" fill="#fb9391"/>
        <path id="Trazado_768814" data-name="Trazado 768814" d="M1566.9,796.725a3.917,3.917,0,0,1,4.073,4.014,4.122,4.122,0,0,1-.66,3.028,4.989,4.989,0,0,1-1.066,2.086,4.955,4.955,0,0,0-.809,3.538l.208,1.286c-2.888,1.513-3.858.073-3.858.073l.184-2.611a.668.668,0,0,0-.77-.69c-4.16.424-2.1-3.564-2.692-7.269,0,0-.091-3.365,5.389-3.453" transform="translate(-1374.571 -701.343)" fill="#fb9391"/>
        <path id="Trazado_768815" data-name="Trazado 768815" d="M1567.391,839.829a.3.3,0,1,1,.331.262.3.3,0,0,1-.331-.262" transform="translate(-1379.746 -738.994)" fill="#1a264c"/>
        <path id="Trazado_768816" data-name="Trazado 768816" d="M1565.092,833.218a.133.133,0,0,0,.084-.1.217.217,0,0,0-.1-.237,1.5,1.5,0,0,0-1.18-.064.17.17,0,0,0-.07.223.163.163,0,0,0,.2.118,1.256,1.256,0,0,1,.967.047.126.126,0,0,0,.1.011" transform="translate(-1376.598 -733.034)" fill="#1a264c"/>
        <path id="Trazado_768817" data-name="Trazado 768817" d="M1561.563,863.759l1.413-.17a2.086,2.086,0,0,1-1.307,1.2,4.523,4.523,0,0,1-.105-1.028" transform="translate(-1374.617 -760.203)" fill="#fff"/>
        <path id="Trazado_768818" data-name="Trazado 768818" d="M1556.926,841.993a6.65,6.65,0,0,1-.746,1.159.338.338,0,0,0,.036.484,1.322,1.322,0,0,0,.6.325c.375.039.108-1.968.108-1.968" transform="translate(-1369.803 -741.192)" fill="#fb9391"/>
        <path id="Trazado_768819" data-name="Trazado 768819" d="M1564.188,798.442s.479,1.572,1.225,2,1.776.6,1.88,1.51-.219,1.847.72,2.812.854,1.632,1.388,2.69a5.1,5.1,0,0,0,2.315,1.751s1.8-4.88,1.823-6.021.166-6.1-2.813-6.523-5.738.621-6.538,1.776" transform="translate(-1376.928 -701.209)" fill="#1a264c"/>
        <path id="Trazado_768820" data-name="Trazado 768820" d="M1588.456,845.115a.638.638,0,0,1,.229-.389,1.077,1.077,0,0,1,1.159-.247c.661.347.064,2-1.145,1.647,0,0-.375-.2-.243-1.011" transform="translate(-1398.265 -743.302)" fill="#fb9391"/>
        <path id="Trazado_768821" data-name="Trazado 768821" d="M1578.586,1081.117a20.137,20.137,0,0,1,3.187,7.37c.945,4.435,2.361,17.893,3.66,20.136s11.923,14.992,11.923,14.992l-2.946,2.951s-12.282-10.979-15.234-16.409-4.486-15.5-5.194-16.014-1.3,16.014-1.417,17.9.826,17.193.826,17.193l-4.6.641s-2.361-14.411-2.715-22.2-.945-23.61,0-25.5,12.513-1.062,12.513-1.062" transform="translate(-1378.138 -951.531)" fill="#1a264c"/>
        <path id="Trazado_768822" data-name="Trazado 768822" d="M1450,907.971a11.771,11.771,0,0,0,3.777-.215c1.23-.454,10.6.812,12.72,4.153s.773,10.795.773,10.795l-2.9-.105s-.945-6.77-2.833-7.413a6.678,6.678,0,0,0-2.692-.525s.3,7.484.672,8.818,2.374,5.179,1.666,5.795-5.785.911-8.146,1.294-6.71,2.115-6.956-.285.6-11.136,0-11.608-1.78,6.217-4.967,7.516-9.995-4.486-9.995-4.486l1.968-2.971s4.12,3.075,6.611,1.357c.714-.492,2.007-9.62,5.076-10.594s5.224-1.525,5.224-1.525" transform="translate(-1259.788 -799.004)" fill="#13676b"/>
        <path id="Trazado_768823" data-name="Trazado 768823" d="M1608.834,815.224c-.1-.336-.483-.511-.729-.727a3.133,3.133,0,0,1-.923-1.275c-.767-2.035.885-1.565.354-4s-3.837-2.29-4.545-4.164-.59-4.146-2.534-4.683l-2.759,7.4s-1.062,0-.822.467a6.811,6.811,0,0,1,.647,4.372c-.394,2.322,1.277,4.526,3.52,5.53s.826,3.305,2.656,4.25c2.106,1.087,3.076-2.2,3.611-3.6a12.419,12.419,0,0,1,.833-1.855c.284-.484.881-1.1.69-1.722m-5.978,2.985c-.667-1.18-1.38-1.3-3.072-2.322s-1.25-4.288-1.3-3.659c-.079,1.023,2.6,2.794,3.8,3.286a3.69,3.69,0,0,1,2.02,2.263c.315.787-.787,1.613-1.454.433" transform="translate(-1405.672 -704.559)" fill="#1a264c"/>
        <path id="Trazado_768824" data-name="Trazado 768824" d="M1695.741,1032.45a3.739,3.739,0,0,1-.551.594c-.256.2-1.436,1.062-1.456,1.554s.628-.07,1-.315a16.714,16.714,0,0,1,2.066-.787l1.328.2.07-1.153Z" transform="translate(-1490.964 -908.848)" fill="#fb9391"/>
        <path id="Trazado_768825" data-name="Trazado 768825" d="M1394.706,988.947s-1.441-1.018-1.936-1.405-2.627-.582-2.713-.258,1.486.575,1.68.75.157.267,0,.413-2.809-.741-2.972-.538,1.658.883,1.658.883-2.347-.6-2.39-.323,1.96.732,1.96.732a4.1,4.1,0,0,1-2.035-.42s-.484.107.011.457a8.015,8.015,0,0,0,2.261.566s-1.378.129-1.422.345,2.068.022,2.692,0a9.025,9.025,0,0,1,2.088.488Z" transform="translate(-1221.608 -868.945)" fill="#fb9391"/>
        <path id="Trazado_768826" data-name="Trazado 768826" d="M323.217,1134.405a21.93,21.93,0,0,1,1.09,2.746c.174.783.923,1.412.53,1.66s-1.3-1-1.3-1-.41,1.579-.463,2.083-.375,1.382-.747,1.373.049-2.415.049-2.415-.553,1.99-.9,2.055-.013-2.571-.013-2.571a13.535,13.535,0,0,1-.672,2.287c-.185.135-.366-.1-.379-.9a7.64,7.64,0,0,1,.181-1.628,17.317,17.317,0,0,1-.572,1.646c-.117.159-.394.293-.287-.9a12.385,12.385,0,0,1,1.6-4.87Z" transform="translate(-281.44 -998.213)" fill="#fb9391"/>
        <path id="Trazado_768827" data-name="Trazado 768827" d="M523.591,604a21.943,21.943,0,0,1-1.319-2.643c-.24-.765-1.04-1.329-.669-1.609s1.376.89,1.376.89.275-1.608.284-2.115.257-1.409.628-1.431.156,2.41.156,2.41.382-2.03.721-2.124.232,2.561.232,2.561a13.542,13.542,0,0,1,.475-2.336c.173-.151.373.065.454.865a7.646,7.646,0,0,1-.042,1.637,17.336,17.336,0,0,1,.43-1.688c.1-.169.368-.326.362.871a12.384,12.384,0,0,1-1.181,4.988Z" transform="translate(-459.073 -525.609)" fill="#fb9391"/>
        <path id="Trazado_768828" data-name="Trazado 768828" d="M422.335,1462.04s-.159,4.677-.2,4.742.31.668.31.668l1.462.335,1.375-.554s.091-4.351.265-5.029-3.213-.163-3.213-.163" transform="translate(-371.597 -1286.844)" fill="#fff"/>
        <path id="Trazado_768829" data-name="Trazado 768829" d="M383.688,1502.808a3.837,3.837,0,0,1-3.133-.541s-5.76,1.848-5.665,3.469c0,0-.264.469,2.192.483s6.272.089,6.376.038.572.23.23-3.448" transform="translate(-330.001 -1322.42)" fill="#1a264c"/>
        <path id="Trazado_768830" data-name="Trazado 768830" d="M568.535,1462.04s.158,4.677.2,4.742-.31.668-.31.668l-1.461.335-1.375-.554s-.091-4.351-.265-5.029,3.214-.163,3.214-.163" transform="translate(-497.637 -1286.844)" fill="#fff"/>
        <path id="Trazado_768831" data-name="Trazado 768831" d="M566.673,1502.808a3.837,3.837,0,0,0,3.133-.541s5.761,1.848,5.666,3.469c0,0,.264.469-2.192.483s-6.272.089-6.377.038-.572.23-.229-3.448" transform="translate(-498.724 -1322.42)" fill="#1a264c"/>
        <path id="Trazado_768832" data-name="Trazado 768832" d="M418.843,823.238l-5.88,3.433-.807,4.028,4.553,22.308,9.927-1.518-3.815-22.637Z" transform="translate(-362.814 -724.683)" fill="#fff"/>
        <path id="Trazado_768833" data-name="Trazado 768833" d="M424.755,1042.943s3.258,10.933,4.545,51.627l-5.755,1.233s-6.741-35.784-7.233-36.23-4.1,36.23-4.1,36.23h-6.235l-.328-49.639Z" transform="translate(-357.083 -918.085)" fill="#13676b"/>
        <path id="Trazado_768834" data-name="Trazado 768834" d="M468.01,668.1s6.482,19.842,7.3,34.856l7.384-.551s-3.938-16.542-3.938-19.933,2.3-19.745,2.3-23.6-1.969-11.869-1.969-11.869l-3.733.9s2.475,14.465-7.343,20.2" transform="translate(-411.981 -569.549)" fill="#1a264c"/>
        <path id="Trazado_768835" data-name="Trazado 768835" d="M333.8,851.916s4.376,18.769,4.594,22.129S339.68,884.2,339.68,884.2l-7.739.447-.766-13.257a61.41,61.41,0,0,0-2.954,7.227c-.547,2.174-1.531,8.191-1.531,8.191h-4.376s-.656-13.455,1.641-20.456,3.145-10.487,9.845-14.44" transform="translate(-283.651 -749.927)" fill="#1a264c"/>
        <path id="Trazado_768836" data-name="Trazado 768836" d="M457,761.848s.136-.685.507-.582c.948.264.525,1.277.111,1.634Z" transform="translate(-402.287 -670.12)" fill="#ea6868"/>
        <path id="Trazado_768837" data-name="Trazado 768837" d="M383.8,726.165l0,0c-.021-.057-.042-.115-.066-.172a4.748,4.748,0,1,0-7.667,5.241c.829.86,1.548,1.592,2.227,2.167a6.782,6.782,0,0,1,2.216,3.69l.255,1.129c3.289.328,3.971-1.514,3.971-1.514l-.747-1.958a.527.527,0,0,1,.264-.661l0,0c3.257-1.593.165-6.414-.455-7.921" transform="translate(-329.745 -636.49)" fill="#fb9391"/>
        <path id="Trazado_768838" data-name="Trazado 768838" d="M444.736,763.761a.345.345,0,1,0-.188.451.345.345,0,0,0,.188-.451" transform="translate(-390.909 -672.137)" fill="#1a264c"/>
        <path id="Trazado_768839" data-name="Trazado 768839" d="M415.463,783.583a.345.345,0,1,0-.188.451.345.345,0,0,0,.188-.451" transform="translate(-365.14 -689.587)" fill="#1a264c"/>
        <path id="Trazado_768840" data-name="Trazado 768840" d="M404.585,773.146a.259.259,0,0,1-.354-.279,1.388,1.388,0,0,1,1.581-1.129.259.259,0,1,1-.038.517.874.874,0,0,0-1.031.69.259.259,0,0,1-.158.2" transform="translate(-355.835 -679.343)" fill="#1a264c"/>
        <path id="Trazado_768841" data-name="Trazado 768841" d="M434.407,754.657a.259.259,0,0,1-.354-.279,1.388,1.388,0,0,1,1.581-1.129.259.259,0,0,1-.038.517.874.874,0,0,0-1.031.69.259.259,0,0,1-.158.2" transform="translate(-382.087 -663.067)" fill="#1a264c"/>
        <path id="Trazado_768842" data-name="Trazado 768842" d="M375.77,766.754l2.359,2.426.733-.488-1.1-4.029Z" transform="translate(-330.783 -673.12)" fill="#1a264c"/>
        <path id="Trazado_768843" data-name="Trazado 768843" d="M390.032,795.862a.705.705,0,0,0-.469-.169,1.19,1.19,0,0,0-1.16.607c-.318.761,1.355,1.745,2.135.594,0,0,.181-.432-.507-1.032" transform="translate(-341.87 -700.435)" fill="#fb9391"/>
        <path id="Trazado_768844" data-name="Trazado 768844" d="M434.738,775.8a.885.885,0,0,1-.755.284.077.077,0,0,1,.026-.152.721.721,0,0,0,.748-.44.271.271,0,0,0,.041-.18c-.018-.05-.1-.089-.219-.143a2.261,2.261,0,0,1-1.126-1.05.077.077,0,0,1,.134-.076,2.1,2.1,0,0,0,1.057.986c.145.067.259.12.3.23a.384.384,0,0,1-.047.3,1.019,1.019,0,0,1-.158.242" transform="translate(-381.553 -681.348)" fill="#ea6868"/>
        <path id="Trazado_768845" data-name="Trazado 768845" d="M433.042,790.545a6.58,6.58,0,0,0,2.606-1.406s.264,1.39-.662,1.89-1.943-.484-1.943-.484" transform="translate(-381.199 -694.666)" fill="#fff"/>
        <path id="Trazado_768846" data-name="Trazado 768846" d="M363.269,718.754a2.133,2.133,0,0,1-.549-.846,7.683,7.683,0,0,1-.5-4.042,2.136,2.136,0,0,1,.5-1.223.3.3,0,0,1,.162-.1c.157-.019.247.169.287.322l.281,1.064a12.6,12.6,0,0,1,1.267-2.128,4.229,4.229,0,0,1,1.961-1.459.656.656,0,0,1,.658.057c.224.221.074.6-.085.866a8.622,8.622,0,0,1,4.865-.309c.217.073.463.212.463.441s-.223.358-.43.409a1.75,1.75,0,0,0-.611.177,6.065,6.065,0,0,0,.816.222.718.718,0,0,1,.554.57c.02.426-.506.633-.925.713l-3.517.674c.167.24.467.343.7.525s.374.561.152.751a.635.635,0,0,1-.35.113l-2.626.3a.991.991,0,0,1,.474,1,1.6,1.6,0,0,1-.5.828c-.6.594-2.226,1.753-3.04,1.073" transform="translate(-318.784 -625.251)" fill="#1a264c"/>
        <path id="Trazado_768847" data-name="Trazado 768847" d="M439.764,733.563s.813.184,2.063,2.786c0,0-1.006-3.059-1.471-3.251s-.592.465-.592.465" transform="translate(-387.117 -645.303)" fill="#1a264c"/>
        <path id="Trazado_768848" data-name="Trazado 768848" d="M441.762,846.205v1.627l-.848.4-1.231-.82.766-1.2Z" transform="translate(-387.046 -744.9)" fill="#f6a50f"/>
        <path id="Trazado_768849" data-name="Trazado 768849" d="M422.011,829.01l.238-1.168,2.616.584,1.109-2.284.512.255.293,2.339-1.764-.041-.889,1.409Z" transform="translate(-371.489 -727.239)" fill="#eadcdc"/>
        <path id="Trazado_768850" data-name="Trazado 768850" d="M450.408,859.8l6.372,19-1.531,5.163-3.993-3.829-1.75-20.21Z" transform="translate(-395.692 -756.867)" fill="#f6a50f"/>
        <path id="Trazado_768851" data-name="Trazado 768851" d="M2104.26,333.824c6.222,4.917,14.423,6.475,22.322,7.178a4.571,4.571,0,0,0,2.765-.342,4.23,4.23,0,0,0,1.506-2c4.006-8.823,2.221-19.3-1.763-28.136-5.592-12.4-22.167-26.147-35.4-14.409-11.992,10.637.984,30.13,10.57,37.707" transform="translate(-1838.791 -256.739)" fill="#fff" opacity="0.6"/>
        <path id="Trazado_768852" data-name="Trazado 768852" d="M722.177,24.216V16.1h-6.921a15.2,15.2,0,0,0-1.464-2.985l4.583-5.527L712.125,2.4l-4.352,5.248a15.147,15.147,0,0,0-2.813-1.085V0h-8.118V6.568a15.149,15.149,0,0,0-2.813,1.085L689.678,2.4l-6.249,5.182,4.583,5.527a15.191,15.191,0,0,0-1.464,2.985h-6.921v8.118h6.3a15.158,15.158,0,0,0,1.788,4.74l-4.288,5.172,6.249,5.181,3.867-4.664a15.155,15.155,0,0,0,3.3,1.341v5.726h8.118V35.986a15.158,15.158,0,0,0,3.3-1.341l3.867,4.664,6.249-5.181-4.288-5.172a15.155,15.155,0,0,0,1.788-4.74ZM700.9,29.255a7.978,7.978,0,1,1,7.978-7.978,7.978,7.978,0,0,1-7.978,7.978" transform="translate(-598.264 -0.002)" fill="#1f8b8d"/>
        <path id="Trazado_768853" data-name="Trazado 768853" d="M356.4,224.815V220.93h-3.312a7.262,7.262,0,0,0-.7-1.428l2.193-2.645-2.991-2.48-2.082,2.512a7.25,7.25,0,0,0-1.346-.519v-3.142h-3.885v3.142a7.246,7.246,0,0,0-1.346.519l-2.083-2.512-2.991,2.48,2.193,2.645a7.276,7.276,0,0,0-.7,1.428h-3.312v3.885h3.016a7.253,7.253,0,0,0,.855,2.268l-2.052,2.475,2.991,2.48,1.851-2.232a7.252,7.252,0,0,0,1.578.642v2.74h3.885v-2.74a7.253,7.253,0,0,0,1.578-.642l1.851,2.232,2.991-2.48-2.052-2.475a7.254,7.254,0,0,0,.855-2.268Zm-10.181,2.411a3.818,3.818,0,1,1,3.818-3.818,3.818,3.818,0,0,1-3.818,3.818" transform="translate(-295.805 -187.7)" fill="#fff"/>
        <path id="Trazado_768854" data-name="Trazado 768854" d="M2236.438,385.875h-18.889a.828.828,0,0,1-.828-.828V366.158a.828.828,0,0,1,.828-.828h18.889a.828.828,0,0,1,.828.828v18.889a.828.828,0,0,1-.828.828m-18.061-1.656h17.233V366.986h-17.233Z" transform="translate(-1951.341 -321.594)" fill="#62c1c5"/>
        <path id="Trazado_768855" data-name="Trazado 768855" d="M2252.07,362.124h-.016a.827.827,0,0,1-.708-.426,33.458,33.458,0,0,0-5.858-7.534.828.828,0,0,1,1.1-1.241,32.427,32.427,0,0,1,5.493,6.77,180.677,180.677,0,0,1,10.846-16.007.828.828,0,0,1,1.3,1.028,183.292,183.292,0,0,0-11.444,17.011.828.828,0,0,1-.708.4" transform="translate(-1976.418 -302.265)" fill="#62c1c5"/>
        <path id="Trazado_768856" data-name="Trazado 768856" d="M1295.62,370.621H1284.75a.476.476,0,0,1-.476-.476v-10.87a.476.476,0,0,1,.476-.477h10.869a.476.476,0,0,1,.476.477v10.87a.476.476,0,0,1-.476.476m-10.393-.953h9.917v-9.917h-9.917Z" transform="translate(-1130.524 -315.845)" fill="#62c1c5"/>
        <path id="Trazado_768857" data-name="Trazado 768857" d="M1304.616,356.955h-.009a.476.476,0,0,1-.407-.245,19.245,19.245,0,0,0-3.371-4.336.476.476,0,0,1,.631-.714,18.656,18.656,0,0,1,3.161,3.9,103.97,103.97,0,0,1,6.241-9.211.476.476,0,1,1,.747.592,105.593,105.593,0,0,0-6.585,9.789.476.476,0,0,1-.407.229" transform="translate(-1144.955 -304.723)" fill="#62c1c5"/>
      </g>
    </g>
  </g>
</svg>
