<svg xmlns="http://www.w3.org/2000/svg" xmlns:xlink="http://www.w3.org/1999/xlink" width="118.617" height="119.456" viewBox="0 0 118.617 119.456">
  <defs>
    <radialGradient id="radial-gradient" cx="0.076" cy="0.019" r="1.465" gradientTransform="translate(0.001)" gradientUnits="objectBoundingBox">
      <stop offset="0" stop-color="#f6f6f7"/>
      <stop offset="0.477" stop-color="#f9f9fa"/>
      <stop offset="0.715" stop-color="#fff"/>
    </radialGradient>
    <filter id="Trazado_765630" x="0" y="0.962" width="118.617" height="118.494" filterUnits="userSpaceOnUse">
      <feOffset dy="7" input="SourceAlpha"/>
      <feGaussianBlur stdDeviation="2.5" result="blur"/>
      <feFlood flood-opacity="0.102"/>
      <feComposite operator="in" in2="blur"/>
      <feComposite in="SourceGraphic"/>
    </filter>
  </defs>
  <g id="Grupo_1026331" data-name="Grupo 1026331" transform="translate(-278.841 -8215.134)">
    <g id="Grupo_1025928" data-name="Grupo 1025928" transform="translate(4.958 1803.092)">
      <g id="Grupo_1024863" data-name="Grupo 1024863" transform="translate(280.042 6412.042)">
        <g id="Grupo_18420" data-name="Grupo 18420">
          <g id="Grupo_18419" data-name="Grupo 18419">
            <path id="Trazado_40936" data-name="Trazado 40936" d="M299.581,2198.2a52.479,52.479,0,1,1-52.478-52.477A52.478,52.478,0,0,1,299.581,2198.2Z" transform="translate(-194.623 -2145.721)" fill="#fff"/>
          </g>
        </g>
      </g>
      <g transform="matrix(1, 0, 0, 1, 273.88, 6412.04)" filter="url(#Trazado_765630)">
        <path id="Trazado_765630-2" data-name="Trazado 765630" d="M299.094,2197.667a52.478,52.478,0,1,0-52.478,52.479A52.271,52.271,0,0,0,299.094,2197.667Z" transform="translate(-187.98 -2145.19)" fill="url(#radial-gradient)"/>
      </g>
      <path id="Trazado_765631" data-name="Trazado 765631" d="M289.67,2196.985a43.749,43.749,0,1,0-43.749,43.75A43.588,43.588,0,0,0,289.67,2196.985Z" transform="translate(87.212 4267.657)" fill="none" stroke="#fe7062" stroke-miterlimit="10" stroke-width="4"/>
      <g id="Grupo_1024864" data-name="Grupo 1024864" transform="translate(289.34 6441.505)">
        <path id="Trazado_40939" data-name="Trazado 40939" d="M290.9,2164.488a52.485,52.485,0,0,1-90.354,52.261,52.318,52.318,0,0,0,90.354-52.261Z" transform="translate(-200.545 -2164.488)" fill="#eceef0"/>
      </g>
    </g>
    <g id="_006-organization" data-name="006-organization" transform="translate(302.937 8230.009)">
      <g id="Grupo_1026329" data-name="Grupo 1026329" transform="translate(8.89 9.879)">
        <g id="Grupo_1026289" data-name="Grupo 1026289" transform="translate(12.979 0)">
          <g id="Grupo_1026287" data-name="Grupo 1026287" transform="translate(0 0)">
            <path id="Trazado_766657" data-name="Trazado 766657" d="M149.27,19.255a11.673,11.673,0,0,1,3.417,1.417l2.22-.986,2.617,2.617-.986,2.22a11.668,11.668,0,0,1,1.417,3.418l2.265.872v3.7l-2.266.872a11.669,11.669,0,0,1-1.417,3.417l.986,2.22-2.617,2.617-2.22-.986a11.668,11.668,0,0,1-3.418,1.417l-.872,2.265h-3.7l-.872-2.266a11.674,11.674,0,0,1-3.417-1.417l-2.22.986-2.617-2.617.986-2.22a11.672,11.672,0,0,1-1.417-3.418l-2.265-.872v-3.7l2.266-.872a11.668,11.668,0,0,1,1.417-3.417l-.986-2.22,2.617-2.617,2.22.986a11.671,11.671,0,0,1,3.417-1.417l.872-2.266h3.7Z" transform="translate(-132.875 -16.989)" fill="#ffe177" fill-rule="evenodd"/>
          </g>
          <g id="Grupo_1026288" data-name="Grupo 1026288" transform="translate(4.971)">
            <path id="Trazado_766658" data-name="Trazado 766658" d="M180.2,40.652l-2.221.986-.342-.342,2.082-.924Q179.961,40.517,180.2,40.652Zm8.881-21.387a11.6,11.6,0,0,1,3.353,1.382l.043.026-.63.28a15.32,15.32,0,0,0-3.876-1.688l-.891-2.276h1.111Zm-11.442.76.342-.342,2.22.988q-.243.134-.48.28Zm16.291,0,.769-.342,2.633,2.657-.98,2.206a11.6,11.6,0,0,1,1.408,3.4l2.251.867v3.7l-2.252.867a11.469,11.469,0,0,1-1.408,3.373l.98,2.207-2.643,2.674-.769-.342,2.3-2.332-.98-2.207a11.6,11.6,0,0,0,1.408-3.4l2.252-.867V28.811l-2.251-.867a11.6,11.6,0,0,0-1.408-3.4l.98-2.206Zm-1.493,20.652a11.6,11.6,0,0,1-3.354,1.382l-.893,2.274h-1.11l.893-2.274a15.318,15.318,0,0,0,3.877-1.688l.63.28-.043.026Z" transform="translate(-177.642 -16.988)" fill="#ffd064" fill-rule="evenodd"/>
          </g>
        </g>
        <g id="Grupo_1026296" data-name="Grupo 1026296" transform="translate(0 37.487)">
          <g id="Grupo_1026290" data-name="Grupo 1026290">
            <circle id="Elipse_8599" data-name="Elipse 8599" cx="7.798" cy="7.798" r="7.798" fill="#fe7062"/>
          </g>
          <g id="Grupo_1026291" data-name="Grupo 1026291" transform="translate(7.105 0)">
            <path id="Trazado_766659" data-name="Trazado 766659" d="M87.087,362.36a7.762,7.762,0,0,1-1.3,4.314,7.809,7.809,0,0,1-5.8,3.454q.343.03.693.03a7.853,7.853,0,0,0,1.116-.079l.141-.021a7.8,7.8,0,0,0-1.257-15.5q-.35,0-.693.03A7.8,7.8,0,0,1,87.087,362.36Z" transform="translate(-79.982 -354.562)" fill="#c74336" fill-rule="evenodd"/>
          </g>
          <g id="Grupo_1026292" data-name="Grupo 1026292" transform="translate(2.384 9.355)">
            <path id="Trazado_766660" data-name="Trazado 766660" d="M42.88,438.8a5.448,5.448,0,0,0-5.415,4.86,7.772,7.772,0,0,0,5.415,2.186A7.855,7.855,0,0,0,44,445.766a7.775,7.775,0,0,0,4.3-2.107,5.447,5.447,0,0,0-5.415-4.86Z" transform="translate(-37.465 -438.799)" fill="#8ac9fe" fill-rule="evenodd"/>
          </g>
          <g id="Grupo_1026293" data-name="Grupo 1026293" transform="translate(7.105 9.355)">
            <path id="Trazado_766661" data-name="Trazado 766661" d="M79.984,438.844c3.242.412,4.548,2.865,4.848,5.8a7.832,7.832,0,0,0,1.259-.988,5.451,5.451,0,0,0-6.108-4.816Z" transform="translate(-79.984 -438.8)" fill="#60b7ff" fill-rule="evenodd"/>
          </g>
          <g id="Grupo_1026294" data-name="Grupo 1026294" transform="translate(5.045 3.905)">
            <circle id="Elipse_8600" data-name="Elipse 8600" cx="2.753" cy="2.753" r="2.753" fill="#f6dccd"/>
          </g>
          <g id="Grupo_1026295" data-name="Grupo 1026295" transform="translate(7.452 3.905)">
            <path id="Trazado_766662" data-name="Trazado 766662" d="M85.511,392.477a2.754,2.754,0,0,1-2.407,2.732,2.787,2.787,0,0,0,.347.022,2.753,2.753,0,1,0-.347-5.485A2.754,2.754,0,0,1,85.511,392.477Z" transform="translate(-83.104 -389.724)" fill="#f1cbbc" fill-rule="evenodd"/>
          </g>
        </g>
        <g id="Grupo_1026303" data-name="Grupo 1026303" transform="translate(18.704 37.329)">
          <g id="Grupo_1026297" data-name="Grupo 1026297" transform="translate(0 0)">
            <ellipse id="Elipse_8601" data-name="Elipse 8601" cx="7.798" cy="7.798" rx="7.798" ry="7.798" transform="translate(0 0.328) rotate(-1.203)" fill="#fe7062"/>
          </g>
          <g id="Grupo_1026298" data-name="Grupo 1026298" transform="translate(7.254 0.159)">
            <path id="Trazado_766663" data-name="Trazado 766663" d="M256.862,362.36a7.762,7.762,0,0,1-1.3,4.314,7.809,7.809,0,0,1-5.8,3.454q.343.03.693.03a7.854,7.854,0,0,0,1.116-.079l.141-.021a7.8,7.8,0,0,0-1.257-15.5q-.35,0-.693.03A7.8,7.8,0,0,1,256.862,362.36Z" transform="translate(-249.757 -354.562)" fill="#c74336" fill-rule="evenodd"/>
          </g>
          <g id="Grupo_1026299" data-name="Grupo 1026299" transform="translate(2.533 9.426)">
            <path id="Trazado_766664" data-name="Trazado 766664" d="M212.654,438.011a5.448,5.448,0,0,0-5.415,4.86,7.772,7.772,0,0,0,5.415,2.186,7.854,7.854,0,0,0,1.116-.079,7.776,7.776,0,0,0,4.3-2.107A5.447,5.447,0,0,0,212.654,438.011Z" transform="translate(-207.239 -438.011)" fill="#8ac9fe" fill-rule="evenodd"/>
          </g>
          <g id="Grupo_1026300" data-name="Grupo 1026300" transform="translate(7.254 9.426)">
            <path id="Trazado_766665" data-name="Trazado 766665" d="M249.759,438.055c3.242.412,4.548,2.865,4.848,5.8a7.835,7.835,0,0,0,1.259-.988,5.45,5.45,0,0,0-6.108-4.816Z" transform="translate(-249.759 -438.011)" fill="#60b7ff" fill-rule="evenodd"/>
          </g>
          <g id="Grupo_1026301" data-name="Grupo 1026301" transform="translate(5.151 4.034)">
            <circle id="Elipse_8602" data-name="Elipse 8602" cx="2.753" cy="2.753" r="2.753" transform="matrix(0.023, -1, 1, 0.023, 0, 5.507)" fill="#f6dccd"/>
          </g>
          <g id="Grupo_1026302" data-name="Grupo 1026302" transform="translate(7.601 4.092)">
            <path id="Trazado_766666" data-name="Trazado 766666" d="M255.287,392.73a2.754,2.754,0,0,1-2.407,2.732,2.787,2.787,0,0,0,.347.022A2.753,2.753,0,1,0,252.88,390,2.754,2.754,0,0,1,255.287,392.73Z" transform="translate(-252.88 -389.977)" fill="#f1cbbc" fill-rule="evenodd"/>
          </g>
        </g>
        <g id="Grupo_1026310" data-name="Grupo 1026310" transform="translate(37.707 37.487)">
          <g id="Grupo_1026304" data-name="Grupo 1026304">
            <path id="Trazado_766682" data-name="Trazado 766682" d="M7.8,0A7.8,7.8,0,1,1,0,7.8,7.8,7.8,0,0,1,7.8,0Z" fill="#fe7062"/>
          </g>
          <g id="Grupo_1026305" data-name="Grupo 1026305" transform="translate(7.105 0)">
            <path id="Trazado_766667" data-name="Trazado 766667" d="M426.636,362.36a7.762,7.762,0,0,1-1.3,4.314,7.809,7.809,0,0,1-5.8,3.454q.343.03.693.03a7.853,7.853,0,0,0,1.116-.079l.141-.021a7.8,7.8,0,0,0-1.257-15.5q-.35,0-.693.03a7.8,7.8,0,0,1,7.105,7.768Z" transform="translate(-419.531 -354.562)" fill="#c74336" fill-rule="evenodd"/>
          </g>
          <g id="Grupo_1026306" data-name="Grupo 1026306" transform="translate(2.384 9.268)">
            <path id="Trazado_766668" data-name="Trazado 766668" d="M382.429,438.021a5.448,5.448,0,0,0-5.415,4.86,7.772,7.772,0,0,0,5.415,2.186,7.855,7.855,0,0,0,1.116-.079,7.775,7.775,0,0,0,4.3-2.107A5.447,5.447,0,0,0,382.429,438.021Z" transform="translate(-377.014 -438.021)" fill="#8ac9fe" fill-rule="evenodd"/>
          </g>
          <g id="Grupo_1026307" data-name="Grupo 1026307" transform="translate(7.105 9.268)">
            <path id="Trazado_766669" data-name="Trazado 766669" d="M419.533,438.065c3.242.412,4.548,2.865,4.848,5.8a7.835,7.835,0,0,0,1.259-.988,5.451,5.451,0,0,0-6.107-4.816Z" transform="translate(-419.533 -438.021)" fill="#60b7ff" fill-rule="evenodd"/>
          </g>
          <g id="Grupo_1026308" data-name="Grupo 1026308" transform="translate(5.045 3.956)">
            <circle id="Elipse_8604" data-name="Elipse 8604" cx="2.753" cy="2.753" r="2.753" fill="#f6dccd"/>
          </g>
          <g id="Grupo_1026309" data-name="Grupo 1026309" transform="translate(7.452 3.956)">
            <path id="Trazado_766670" data-name="Trazado 766670" d="M425.061,392.941a2.754,2.754,0,0,1-2.407,2.732,2.786,2.786,0,0,0,.347.022,2.753,2.753,0,1,0-.347-5.485A2.754,2.754,0,0,1,425.061,392.941Z" transform="translate(-422.654 -390.188)" fill="#f1cbbc" fill-rule="evenodd"/>
          </g>
        </g>
        <g id="Grupo_1026313" data-name="Grupo 1026313" transform="translate(18.684 5.707)">
          <g id="Grupo_1026311" data-name="Grupo 1026311">
            <ellipse id="Elipse_8605" data-name="Elipse 8605" cx="7.872" cy="7.872" rx="7.872" ry="7.872" transform="translate(0 15.745) rotate(-89.37)" fill="#fe7062"/>
          </g>
          <g id="Grupo_1026312" data-name="Grupo 1026312" transform="translate(0.096 0.094)">
            <path id="Trazado_766671" data-name="Trazado 766671" d="M186.509,77.1a7.836,7.836,0,0,0,1.313,4.355,7.882,7.882,0,0,0,5.859,3.487q-.346.03-.7.031a7.936,7.936,0,0,1-1.127-.08l-.142-.022a7.873,7.873,0,0,1,1.269-15.643q.354,0,.7.031A7.873,7.873,0,0,0,186.509,77.1Z" transform="translate(-185.109 -69.224)" fill="#c74336" fill-rule="evenodd"/>
          </g>
        </g>
        <g id="Grupo_1026318" data-name="Grupo 1026318" transform="translate(21.38 15.585)">
          <g id="Grupo_1026316" data-name="Grupo 1026316">
            <g id="Grupo_1026314" data-name="Grupo 1026314" transform="translate(0 0)">
              <path id="Trazado_766672" data-name="Trazado 766672" d="M213.8,157.328a5.5,5.5,0,0,0-5.272,3.935,7.871,7.871,0,0,0,10.543,0A5.5,5.5,0,0,0,213.8,157.328Z" transform="translate(-208.528 -157.328)" fill="#8ac9fe" fill-rule="evenodd"/>
            </g>
            <g id="Grupo_1026315" data-name="Grupo 1026315" transform="translate(4.572)">
              <path id="Trazado_766673" data-name="Trazado 766673" d="M249.7,157.371c2.875.365,4.242,2.321,4.737,4.8a7.9,7.9,0,0,0,1.234-.913,5.5,5.5,0,0,0-5.272-3.935,5.577,5.577,0,0,0-.7.044Z" transform="translate(-249.699 -157.327)" fill="#60b7ff" fill-rule="evenodd"/>
            </g>
          </g>
          <g id="Grupo_1026317" data-name="Grupo 1026317" transform="translate(0 2.889)">
            <path id="Trazado_766674" data-name="Trazado 766674" d="M208.96,183.346a5.468,5.468,0,0,0-.432,1.046,7.845,7.845,0,0,0,4,1.924l.142.022a7.938,7.938,0,0,0,1.127.08q.354,0,.7-.031a7.88,7.88,0,0,1-5.54-3.041Z" transform="translate(-208.528 -183.346)" fill="#8ac9fe" fill-rule="evenodd"/>
          </g>
        </g>
        <g id="Grupo_1026321" data-name="Grupo 1026321" transform="translate(23.872 9.398)">
          <g id="Grupo_1026319" data-name="Grupo 1026319">
            <path id="Trazado_766675" data-name="Trazado 766675" d="M233.75,107.175a2.78,2.78,0,1,0-2.779-2.779A2.785,2.785,0,0,0,233.75,107.175Z" transform="translate(-230.971 -101.616)" fill="#f6dccd" fill-rule="evenodd"/>
          </g>
          <g id="Grupo_1026320" data-name="Grupo 1026320" transform="translate(2.43 0)">
            <path id="Trazado_766676" data-name="Trazado 766676" d="M255.279,104.4a2.78,2.78,0,0,1-2.43,2.758,2.779,2.779,0,1,0,0-5.515A2.78,2.78,0,0,1,255.279,104.4Z" transform="translate(-252.849 -101.617)" fill="#f1cbbc" fill-rule="evenodd"/>
          </g>
        </g>
        <g id="Grupo_1026328" data-name="Grupo 1026328" transform="translate(25.187 15.598)">
          <g id="Grupo_1026324" data-name="Grupo 1026324">
            <g id="Grupo_1026322" data-name="Grupo 1026322">
              <path id="Trazado_766677" data-name="Trazado 766677" d="M243.839,157.451h.88l1.008,3.168a.334.334,0,0,1-.07.331l-1.224,1.382a.205.205,0,0,1-.307,0L242.9,160.95a.334.334,0,0,1-.07-.331Z" transform="translate(-242.814 -157.451)" fill="#fff" fill-rule="evenodd"/>
            </g>
            <g id="Grupo_1026323" data-name="Grupo 1026323" transform="translate(1.122)">
              <path id="Trazado_766678" data-name="Trazado 766678" d="M253.016,157.451h.685l1.008,3.168a.334.334,0,0,1-.07.331l-1.224,1.382a.205.205,0,0,1-.307,0l-.189-.213,1.035-1.169a.334.334,0,0,0,.07-.331Z" transform="translate(-252.919 -157.451)" fill="#d1d1d6" fill-rule="evenodd"/>
            </g>
          </g>
          <g id="Grupo_1026327" data-name="Grupo 1026327" transform="translate(1.004)">
            <g id="Grupo_1026325" data-name="Grupo 1026325">
              <path id="Trazado_766679" data-name="Trazado 766679" d="M251.922,157.451h.781l.051,0,.1.31a6.022,6.022,0,0,0-1-.249l.02-.062Z" transform="translate(-251.852 -157.451)" fill="#d1d1d6" fill-rule="evenodd"/>
            </g>
            <g id="Grupo_1026326" data-name="Grupo 1026326" transform="translate(0.216)">
              <path id="Trazado_766680" data-name="Trazado 766680" d="M253.8,157.451h.635l.051,0,.1.31a5.881,5.881,0,0,0-.749-.2Z" transform="translate(-253.796 -157.451)" fill="#d1d1d6" fill-rule="evenodd"/>
            </g>
          </g>
        </g>
      </g>
      <g id="Grupo_1026330" data-name="Grupo 1026330" transform="translate(8.002 8.991)">
        <path id="Trazado_766681" data-name="Trazado 766681" d="M50.035,60.521a5.6,5.6,0,0,1,4.36-2.068h0a5.593,5.593,0,0,1,4.36,2.068,6.894,6.894,0,0,1-8.721,0Zm4.36-3.844h0A2.407,2.407,0,1,1,56.8,54.27a2.41,2.41,0,0,1-2.409,2.407h0Zm0-8.422a6.9,6.9,0,0,0-5.588,10.967,7.343,7.343,0,0,1,2.675-1.953,4.184,4.184,0,1,1,5.827,0,7.35,7.35,0,0,1,2.675,1.953,6.9,6.9,0,0,0-5.589-10.967Zm-11.942,6.91a6.874,6.874,0,0,1-1.321,4.057,7.34,7.34,0,0,0-2.677-1.953,4.183,4.183,0,1,0-5.825,0,7.34,7.34,0,0,0-2.676,1.953,6.909,6.909,0,1,1,12.5-4.057Zm-9.317-.9a2.409,2.409,0,0,0,2.4,2.407h0a2.407,2.407,0,1,0-2.407-2.407Zm-1.953,6.251a6.893,6.893,0,0,0,8.72,0,5.592,5.592,0,0,0-4.359-2.068h0A5.591,5.591,0,0,0,31.182,60.521ZM23.6,55.165a6.874,6.874,0,0,1-1.32,4.057A7.362,7.362,0,0,0,19.6,57.268a4.184,4.184,0,1,0-5.827,0A7.344,7.344,0,0,0,11.1,59.221a6.908,6.908,0,1,1,12.5-4.057Zm-9.317-.9a2.41,2.41,0,0,0,2.405,2.407h0a2.407,2.407,0,1,0-2.409-2.407Zm-1.953,6.251a6.894,6.894,0,0,0,8.721,0,5.594,5.594,0,0,0-4.36-2.068h0a5.6,5.6,0,0,0-4.36,2.068ZM33.649,34.64a.889.889,0,0,0-.623-.545,10.755,10.755,0,0,1-3.158-1.309.887.887,0,0,0-.826-.055l-1.664.739-1.754-1.754.739-1.662a.89.89,0,0,0-.055-.827A10.762,10.762,0,0,1,25,26.069a.887.887,0,0,0-.545-.624l-1.7-.653V22.312l1.7-.653A.889.889,0,0,0,25,21.035a10.781,10.781,0,0,1,1.309-3.157.889.889,0,0,0,.055-.826l-.739-1.663,1.754-1.754,1.664.739a.888.888,0,0,0,.826-.055,10.756,10.756,0,0,1,3.158-1.309.889.889,0,0,0,.623-.545l.653-1.7h2.481l.653,1.7a.89.89,0,0,0,.623.545,10.757,10.757,0,0,1,3.157,1.309.889.889,0,0,0,.826.055l1.663-.739,1.754,1.754-.737,1.662a.884.884,0,0,0,.055.826,10.754,10.754,0,0,1,1.308,3.158.891.891,0,0,0,.545.624l1.7.653v2.481l-1.7.653a.891.891,0,0,0-.545.624,10.763,10.763,0,0,1-1.309,3.157.891.891,0,0,0-.055.826l.739,1.663-1.754,1.754-1.662-.739a.889.889,0,0,0-.826.056A10.78,10.78,0,0,1,38.059,34.1a.89.89,0,0,0-.623.545l-.653,1.7H34.3Zm21.9,11.916V42.081a.889.889,0,0,0-.889-.889H36.43V38.113h.962a.889.889,0,0,0,.83-.569l.707-1.839a12.494,12.494,0,0,0,2.811-1.165l1.8.8a.889.889,0,0,0,.989-.183l2.616-2.617a.888.888,0,0,0,.185-.989l-.8-1.8A12.527,12.527,0,0,0,47.7,26.939l1.839-.708A.887.887,0,0,0,50.1,25.4V21.7a.887.887,0,0,0-.569-.829L47.7,20.165a12.473,12.473,0,0,0-1.165-2.811l.8-1.8a.888.888,0,0,0-.185-.988l-2.616-2.617a.89.89,0,0,0-.989-.184l-1.8.8a12.493,12.493,0,0,0-2.81-1.165L38.222,9.56a.889.889,0,0,0-.83-.569h-3.7a.889.889,0,0,0-.83.569L32.155,11.4a12.484,12.484,0,0,0-2.809,1.165l-1.8-.8a.89.89,0,0,0-.989.184l-2.617,2.617a.89.89,0,0,0-.184.988l.8,1.8a12.529,12.529,0,0,0-1.165,2.81l-1.839.708a.887.887,0,0,0-.569.829v3.7a.887.887,0,0,0,.569.829l1.839.708a12.52,12.52,0,0,0,1.165,2.811l-.8,1.8a.89.89,0,0,0,.184.989l2.617,2.617a.889.889,0,0,0,.989.183l1.8-.8A12.517,12.517,0,0,0,32.155,35.7l.707,1.839a.889.889,0,0,0,.83.569h.962v3.079H16.689a.888.888,0,0,0-.888.889v4.442a8.686,8.686,0,1,0,1.777,0V42.969H34.654v3.554a8.687,8.687,0,1,0,1.777,0V42.969h17.34V46.5a8.684,8.684,0,1,0,1.777.054ZM37.361,26.928l.956,3.01-.032.036a6.987,6.987,0,0,0,1.95-1.254,6.422,6.422,0,0,0-2.874-1.792ZM32.8,29.973l-.032-.036.958-3.009a6.414,6.414,0,0,0-2.875,1.791,7.009,7.009,0,0,0,1.95,1.254Zm2.743-2.9-.776,2.442.776.877.776-.877ZM32.756,22.1a2.786,2.786,0,1,0,2.786-2.787A2.79,2.79,0,0,0,32.756,22.1Zm2.786-5.528a6.977,6.977,0,0,0-5.85,10.791,8.192,8.192,0,0,1,2.793-1.878,4.563,4.563,0,1,1,6.114,0,8.194,8.194,0,0,1,2.793,1.878,6.978,6.978,0,0,0-5.85-10.791Zm8.76,6.984a8.761,8.761,0,1,0-8.76,8.76A8.77,8.77,0,0,0,44.3,23.552Z" transform="translate(-8.002 -8.991)" fill="#242222" fill-rule="evenodd"/>
      </g>
    </g>
  </g>
</svg>
