<svg xmlns="http://www.w3.org/2000/svg" width="90" height="90" viewBox="0 0 90 90">
  <g id="Grupo_1026571" data-name="Grupo 1026571" transform="translate(-443 -6533)">
    <rect id="Rectángulo_346076" data-name="Rectángulo 346076" width="90" height="90" transform="translate(443 6533)" fill="none"/>
    <g id="_036-processing" data-name="036-processing" transform="translate(450.002 6540)">
      <g id="Grupo_1026565" data-name="Grupo 1026565" transform="translate(9.607 9.613)">
        <g id="Grupo_1026561" data-name="Grupo 1026561" transform="translate(0)">
          <path id="Trazado_766806" data-name="Trazado 766806" d="M104.807,75.248a24.42,24.42,0,0,1,7.149,2.964l4.646-2.063,5.476,5.475-2.063,4.644a24.409,24.409,0,0,1,2.964,7.151l4.74,1.824v7.743l-4.741,1.825a24.419,24.419,0,0,1-2.964,7.149l2.063,4.646-5.475,5.475-4.644-2.063a24.411,24.411,0,0,1-7.151,2.964l-1.824,4.74H95.239l-1.825-4.741a24.42,24.42,0,0,1-7.149-2.964l-4.646,2.063-5.476-5.475,2.063-4.644a24.415,24.415,0,0,1-2.964-7.151l-4.74-1.824V95.244l4.74-1.825a24.413,24.413,0,0,1,2.964-7.15l-2.063-4.645,5.475-5.476,4.646,2.063a24.417,24.417,0,0,1,7.149-2.964l1.825-4.741h7.743Z" transform="translate(-70.498 -70.507)" fill="#fe7062" fill-rule="evenodd"/>
          <path id="Trazado_766807" data-name="Trazado 766807" d="M143.306,120.019l-4.646,2.063-.715-.715,4.356-1.934Q142.8,119.738,143.306,120.019Zm18.542-44.771A24.421,24.421,0,0,1,169,78.212l-1.32.587a32.208,32.208,0,0,0-8.155-3.55L157.7,70.507h2.326ZM169,120.019a24.411,24.411,0,0,1-7.151,2.964l-1.824,4.74H157.7l1.824-4.74a32.194,32.194,0,0,0,8.156-3.551ZM137.945,76.864l.715-.715,4.646,2.063q-.509.281-1.005.587Zm34.087,0,1.611-.715,5.476,5.475-2.063,4.644a24.409,24.409,0,0,1,2.964,7.151l4.74,1.824v7.743l-4.741,1.825a24.419,24.419,0,0,1-2.964,7.149l2.063,4.646-5.475,5.476-1.611-.715,4.76-4.76-2.063-4.646a24.417,24.417,0,0,0,2.964-7.149l4.741-1.825V95.244l-4.74-1.824a24.413,24.413,0,0,0-2.964-7.151l2.063-4.644Z" transform="translate(-127.539 -70.507)" fill="#e06053" fill-rule="evenodd"/>
          <circle id="Elipse_8632" data-name="Elipse 8632" cx="20.229" cy="20.229" r="20.229" transform="translate(0 28.608) rotate(-45)" fill="#eceff1"/>
          <path id="Trazado_766808" data-name="Trazado 766808" d="M145.061,124.837a20.229,20.229,0,0,0,0,40.458q.812,0,1.609-.064a20.23,20.23,0,0,1,0-40.331q-.8-.063-1.609-.064Z" transform="translate(-116.449 -116.458)" fill="#d1d1d6" fill-rule="evenodd"/>
        </g>
        <g id="Grupo_1026563" data-name="Grupo 1026563" transform="translate(19.353 15.602)">
          <path id="Trazado_766809" data-name="Trazado 766809" d="M196.49,171.671h13.456l6.429,6.429v19.5a.535.535,0,0,1-.533.533H196.49a.534.534,0,0,1-.533-.533V172.2A.535.535,0,0,1,196.49,171.671Z" transform="translate(-195.957 -171.671)" fill="#dedee1" fill-rule="evenodd"/>
          <g id="Grupo_1026562" data-name="Grupo 1026562">
            <path id="Trazado_766810" data-name="Trazado 766810" d="M196.49,171.671h1.542a.535.535,0,0,0-.533.533v25.4a.535.535,0,0,0,.533.533H196.49a.534.534,0,0,1-.533-.533V172.2A.535.535,0,0,1,196.49,171.671Z" transform="translate(-195.957 -171.671)" fill="#b1b1b5" fill-rule="evenodd"/>
            <path id="Trazado_766811" data-name="Trazado 766811" d="M286.665,171.971a1.048,1.048,0,0,1,.306.215l5.862,5.862a1.045,1.045,0,0,1,.215.306h-5.861a.523.523,0,0,1-.522-.522v-5.861Z" transform="translate(-272.675 -171.925)" fill="#b1b1b5" fill-rule="evenodd"/>
          </g>
        </g>
        <g id="Grupo_1026564" data-name="Grupo 1026564" transform="translate(34.697 35.069)">
          <ellipse id="Elipse_8633" data-name="Elipse 8633" cx="8.97" cy="8.97" rx="8.97" ry="8.97" transform="translate(0 0)" fill="#ffe177"/>
          <path id="Trazado_766812" data-name="Trazado 766812" d="M348.439,297.891a8.97,8.97,0,0,1,0,17.94,9.109,9.109,0,0,1-.943-.049,8.97,8.97,0,0,0,0-17.841A9.107,9.107,0,0,1,348.439,297.891Z" transform="translate(-339.469 -297.891)" fill="#ffd064" fill-rule="evenodd"/>
        </g>
      </g>
      <path id="Trazado_766813" data-name="Trazado 766813" d="M16.938,66.7a1.234,1.234,0,1,1-2.03,1.4A38.429,38.429,0,0,1,12.514,28.65l-1.508.819A1.234,1.234,0,0,1,9.826,27.3l5.508-3a1.234,1.234,0,0,1,1.823,1.115L17,31.688a1.233,1.233,0,1,1-2.466-.063l.04-1.572A36.113,36.113,0,0,0,16.938,66.7Zm7.438-50.081a1.236,1.236,0,0,1,.313-1.717,38.435,38.435,0,0,1,39.186-2.535l-.719-1.217A1.233,1.233,0,1,1,65.28,9.9l3.19,5.4a1.234,1.234,0,0,1-1.05,1.861l-6.268.063h-.012a1.234,1.234,0,0,1-.012-2.467l1.934-.02a36.182,36.182,0,0,0-36.968,2.205,1.234,1.234,0,0,1-1.717-.314ZM83.356,63.63a1.233,1.233,0,0,1-.444,1.687L77.5,68.473a1.247,1.247,0,0,1-.621.168,1.237,1.237,0,0,1-1.234-1.23l-.025-6.268a1.234,1.234,0,0,1,1.229-1.24h.005a1.236,1.236,0,0,1,1.234,1.229l.007,1.886A35.705,35.705,0,0,0,75.86,26.092a1.234,1.234,0,1,1,2.03-1.4A38.437,38.437,0,0,1,80.4,63.925l1.269-.74A1.233,1.233,0,0,1,83.356,63.63ZM68.421,76.173a1.233,1.233,0,0,1-.313,1.716A38.059,38.059,0,0,1,46.94,84.615c-.187,0-.373,0-.558,0a38.1,38.1,0,0,1-17.649-4.292l.793,1.419a1.234,1.234,0,0,1-2.155,1.2l-3.057-5.472a1.233,1.233,0,0,1,1.076-1.835h.017l6.268.088a1.234,1.234,0,0,1-.017,2.467h-.017l-1.694-.025a36.117,36.117,0,0,0,36.759-2.314,1.232,1.232,0,0,1,1.715.315ZM66.585,58.288a1.234,1.234,0,0,1-.085,1.743l-5.973,5.421a1.234,1.234,0,0,1-1.7-.041l-2.46-2.46a1.234,1.234,0,0,1,1.746-1.744l1.629,1.629,5.1-4.631A1.234,1.234,0,0,1,66.585,58.288ZM53.648,53.727H41.714a1.234,1.234,0,0,1,0-2.467H53.648a1.234,1.234,0,1,1,0,2.467ZM40.48,47.866a1.233,1.233,0,0,1,1.233-1.234H53.648a1.234,1.234,0,0,1,0,2.468H41.714A1.233,1.233,0,0,1,40.48,47.866Zm0-4.627a1.233,1.233,0,0,1,1.233-1.233h7.622a1.234,1.234,0,1,1,0,2.467H41.714A1.233,1.233,0,0,1,40.48,43.239ZM61.454,69.564a7.736,7.736,0,1,0-7.735-7.736A7.744,7.744,0,0,0,61.454,69.564ZM58.43,38.949a1.23,1.23,0,0,1,.361.871V51.98a10.17,10.17,0,0,1,5.733.119,18.964,18.964,0,1,0-12.871,12.56,10.2,10.2,0,0,1-.4-2.83c0-.248.011-.493.029-.738H37.673a1.769,1.769,0,0,1-1.768-1.766v-25.4a1.77,1.77,0,0,1,1.768-1.768H51.13A1.235,1.235,0,0,1,52,32.52l.017.018a2.273,2.273,0,0,1,.288.244,1.156,1.156,0,0,1,.169.214l5.479,5.476a1.246,1.246,0,0,1,.214.171,2.308,2.308,0,0,1,.242.287Zm-3.851-.363H52.363V36.37Zm-2.81,20.036a10.261,10.261,0,0,1,4.554-5.608V41.054H51.651A1.757,1.757,0,0,1,49.9,39.3V34.626H38.373v24Zm.04,10.445q.981-.234,1.946-.554a10.173,10.173,0,0,1-1.124-1.572A21.442,21.442,0,1,1,66.784,53.132a10.278,10.278,0,0,1,1.54,1.16,22.95,22.95,0,0,0,.742-2.483,1.238,1.238,0,0,1,.757-.865l3.95-1.521V43.374l-3.948-1.521a1.232,1.232,0,0,1-.757-.865A23.1,23.1,0,0,0,66.253,34.2a1.236,1.236,0,0,1-.077-1.148l1.719-3.87L63.617,24.9l-3.871,1.717a1.23,1.23,0,0,1-1.148-.075,23.114,23.114,0,0,0-6.79-2.814,1.238,1.238,0,0,1-.865-.757l-1.521-3.95H43.374l-1.52,3.95a1.238,1.238,0,0,1-.865.757A23.143,23.143,0,0,0,34.2,26.545a1.227,1.227,0,0,1-1.148.077L29.181,24.9,24.9,29.18l1.718,3.871a1.232,1.232,0,0,1-.077,1.148,23.186,23.186,0,0,0-2.815,6.789,1.232,1.232,0,0,1-.756.865l-3.95,1.521v6.048l3.948,1.521a1.235,1.235,0,0,1,.757.865,23.182,23.182,0,0,0,2.815,6.79,1.239,1.239,0,0,1,.077,1.148L24.9,63.616l4.276,4.278,3.871-1.72a1.231,1.231,0,0,1,1.148.078,23.2,23.2,0,0,0,6.789,2.813,1.234,1.234,0,0,1,.865.757l1.52,3.95h6.049l1.521-3.948a1.23,1.23,0,0,1,.865-.757ZM75.451,51.421a1.234,1.234,0,0,0,.79-1.152V42.527a1.235,1.235,0,0,0-.79-1.153l-4.143-1.594a25.589,25.589,0,0,0-2.617-6.314l1.8-4.059a1.236,1.236,0,0,0-.256-1.373l-5.475-5.475a1.234,1.234,0,0,0-1.373-.256l-4.061,1.8a25.6,25.6,0,0,0-6.313-2.617l-1.595-4.144a1.232,1.232,0,0,0-1.152-.789H42.528a1.234,1.234,0,0,0-1.152.789l-1.595,4.144a25.609,25.609,0,0,0-6.312,2.617l-4.062-1.8a1.233,1.233,0,0,0-1.372.256l-5.475,5.475a1.235,1.235,0,0,0-.256,1.374l1.8,4.059a25.554,25.554,0,0,0-2.616,6.313l-4.144,1.594a1.235,1.235,0,0,0-.789,1.153v7.742a1.234,1.234,0,0,0,.789,1.152l4.143,1.595a25.582,25.582,0,0,0,2.618,6.313l-1.8,4.059a1.233,1.233,0,0,0,.256,1.373l5.475,5.475a1.232,1.232,0,0,0,1.372.256l4.062-1.8a25.557,25.557,0,0,0,6.312,2.618l1.595,4.144a1.233,1.233,0,0,0,1.152.79H50.27a1.232,1.232,0,0,0,1.152-.79l1.595-4.142a26.041,26.041,0,0,0,2.855-.944A10.2,10.2,0,0,0,70.124,56.458a25.645,25.645,0,0,0,1.182-3.442Z" transform="translate(-8.179 -8.177)" fill="#242222" fill-rule="evenodd"/>
    </g>
  </g>
</svg>
