<svg xmlns="http://www.w3.org/2000/svg" width="135" height="136" viewBox="0 0 135 136">
  <g id="Grupo_1026037" data-name="Grupo 1026037" transform="translate(-985 -9052)">
    <g id="Grupo_1025830" data-name="Grupo 1025830" transform="translate(-58 8285)">
      <ellipse id="Elipse_8538" data-name="Elipse 8538" cx="57.5" cy="58" rx="57.5" ry="58" transform="translate(1053 777)" fill="#fff"/>
      <g id="Elipse_8537" data-name="Elipse 8537" transform="translate(1053 777)" fill="none" stroke="#fff" stroke-linejoin="round" stroke-width="10" opacity="0.25">
        <ellipse cx="57.5" cy="58" rx="57.5" ry="58" stroke="none"/>
        <ellipse cx="57.5" cy="58" rx="62.5" ry="63" fill="none"/>
      </g>
    </g>
    <g id="_011-evaluation" data-name="011-evaluation" transform="translate(1020 9088)">
      <path id="Trazado_766380" data-name="Trazado 766380" d="M35.042,20.593V17.449a1.479,1.479,0,0,0-1.48-1.479,1.5,1.5,0,0,1-1.44-1.037,13.672,13.672,0,0,0-.945-2.277,1.5,1.5,0,0,1,.282-1.757,1.48,1.48,0,0,0,0-2.093L29.238,6.581a1.48,1.48,0,0,0-2.093,0,1.5,1.5,0,0,1-1.757.282,13.671,13.671,0,0,0-2.277-.945,1.5,1.5,0,0,1-1.037-1.44A1.479,1.479,0,0,0,20.593,3H17.449A1.479,1.479,0,0,0,15.97,4.48v.031a1.457,1.457,0,0,1-1.006,1.4,13.648,13.648,0,0,0-2.308.955A1.5,1.5,0,0,1,10.9,6.583a1.48,1.48,0,0,0-2.093,0L6.581,8.8a1.48,1.48,0,0,0,0,2.093,1.5,1.5,0,0,1,.282,1.757,13.671,13.671,0,0,0-.945,2.277,1.5,1.5,0,0,1-1.44,1.037A1.479,1.479,0,0,0,3,17.449v3.144a1.479,1.479,0,0,0,1.48,1.479A1.5,1.5,0,0,1,5.92,23.11a13.671,13.671,0,0,0,.945,2.277,1.5,1.5,0,0,1-.282,1.757,1.48,1.48,0,0,0,0,2.093L8.806,31.46a1.48,1.48,0,0,0,2.093,0,1.5,1.5,0,0,1,1.757-.282,13.671,13.671,0,0,0,2.277.945,1.5,1.5,0,0,1,1.037,1.44,1.479,1.479,0,0,0,1.478,1.479h3.144a1.479,1.479,0,0,0,1.479-1.48,1.5,1.5,0,0,1,1.037-1.44,13.672,13.672,0,0,0,2.277-.945,1.5,1.5,0,0,1,1.757.282,1.48,1.48,0,0,0,2.093,0l2.223-2.223a1.48,1.48,0,0,0,0-2.093,1.5,1.5,0,0,1-.282-1.757,13.648,13.648,0,0,0,.955-2.308,1.457,1.457,0,0,1,1.4-1.006h.031a1.479,1.479,0,0,0,1.479-1.478Z" transform="translate(-1.932 -1.932)" fill="#fe7062"/>
      <ellipse id="Elipse_8564" data-name="Elipse 8564" cx="8.855" cy="8.412" rx="8.855" ry="8.412" transform="translate(8.3 8.855)" fill="#e6eef3"/>
      <path id="Trazado_766381" data-name="Trazado 766381" d="M18,18V63.927H48.974l5.34-5.34V18Z" transform="translate(-0.911 -0.911)" fill="#f1f5ff"/>
      <path id="Trazado_766382" data-name="Trazado 766382" d="M50.121,48.941l-4.91,1.133,1.133-4.913L57.673,33.84a2.136,2.136,0,0,1,3.021,0l.755.755a2.136,2.136,0,0,1,0,3.022Z" transform="translate(0.941 0.125)" fill="#63758c"/>
      <path id="Trazado_766383" data-name="Trazado 766383" d="M60.747,37.61l-1.506,1.517L55.46,35.346l1.517-1.506a2.136,2.136,0,0,1,3.023,0l.748.748a2.121,2.121,0,0,1,0,3.023Z" transform="translate(1.639 0.125)" fill="#d8e0e6"/>
      <path id="Trazado_766384" data-name="Trazado 766384" d="M50.871,47.47l-.748.758L45.21,49.361l1.132-4.913L47.1,43.7Z" transform="translate(0.941 0.839)" fill="#d8e0e6"/>
      <path id="Trazado_766385" data-name="Trazado 766385" d="M28,44.885V34.2A3.2,3.2,0,0,1,31.2,31h8.545a3.2,3.2,0,0,1,3.2,3.2V44.885Z" transform="translate(-0.23 -0.026)" fill="#91b3fa"/>
      <ellipse id="Elipse_8565" data-name="Elipse 8565" cx="3.985" cy="4.427" rx="3.985" ry="4.427" transform="translate(31.322 21.251)" fill="#ffdbac"/>
      <path id="Trazado_766386" data-name="Trazado 766386" d="M61.518,33.148a3.282,3.282,0,0,0-4.532,0L45.657,44.48a1.068,1.068,0,0,0-.286.515l-1.132,4.913A1.068,1.068,0,0,0,45.52,51.19l4.913-1.133a1.068,1.068,0,0,0,.516-.286L62.272,38.435a3.2,3.2,0,0,0,0-4.532ZM46.7,48.716l.6-2.594,2,2Zm4.24-1.974L48.678,44.48l7.551-7.551,2.265,2.265Zm9.818-9.819-.755.757-2.265-2.265.757-.757a1.093,1.093,0,0,1,1.508,0l.755.756a1.068,1.068,0,0,1,0,1.509Z" transform="translate(0.873 0.058)"/>
      <path id="Trazado_766387" data-name="Trazado 766387" d="M31.974,53.7l-1.51,1.51,3.022,3.022a1.068,1.068,0,0,0,1.51,0l6.8-6.8-1.51-1.51-6.042,6.042Z" transform="translate(-0.063 1.263)"/>
      <path id="Trazado_766388" data-name="Trazado 766388" d="M44.089,45.567V34.886a4.272,4.272,0,0,0-4.272-4.272h-1.1a5.34,5.34,0,1,0-6.342,0h-1.1A4.272,4.272,0,0,0,27,34.886V45.567a1.068,1.068,0,0,0,1.068,1.068H43.021A1.068,1.068,0,0,0,44.089,45.567ZM32.34,26.342a3.2,3.2,0,1,1,3.2,3.2A3.2,3.2,0,0,1,32.34,26.342ZM41.953,44.5H29.136V34.886a2.136,2.136,0,0,1,2.136-2.136h8.545a2.136,2.136,0,0,1,2.136,2.136Z" transform="translate(-0.298 -0.708)"/>
      <path id="Trazado_766389" data-name="Trazado 766389" d="M4.968,23.51a15.156,15.156,0,0,0,1.018,2.436.427.427,0,0,1-.087.5,1.08,1.08,0,0,0-.107.124,2.563,2.563,0,0,0,.1,3.5L8.12,32.294a2.563,2.563,0,0,0,3.487.1,1.078,1.078,0,0,0,.129-.113.427.427,0,0,1,.488-.091,15.315,15.315,0,0,0,2.463,1.029.413.413,0,0,1,.28.409,2.556,2.556,0,0,0,2.552,2.553h.5V65.016a1.068,1.068,0,0,0,1.068,1.068H50.063a1.068,1.068,0,0,0,.755-.313l5.341-5.341a1.068,1.068,0,0,0,.313-.755V55.4H54.336v3.83l-4.714,4.714H20.157V20.157H54.336V35.11h2.136V19.089A1.068,1.068,0,0,0,55.4,18.021H36.178v-.5a2.556,2.556,0,0,0-2.553-2.553.42.42,0,0,1-.415-.3,15.156,15.156,0,0,0-1.018-2.436.427.427,0,0,1,.087-.5,1.079,1.079,0,0,0,.107-.124,2.563,2.563,0,0,0-.1-3.5L30.059,5.885a2.563,2.563,0,0,0-3.487-.1,1.078,1.078,0,0,0-.129.113.427.427,0,0,1-.488.091,15.315,15.315,0,0,0-2.463-1.029.413.413,0,0,1-.28-.409A2.556,2.556,0,0,0,20.659,2h-3.14a2.563,2.563,0,0,0-2.553,2.585.376.376,0,0,1-.261.372,15.613,15.613,0,0,0-2.474,1.03.427.427,0,0,1-.5-.087,1.08,1.08,0,0,0-.123-.108,2.563,2.563,0,0,0-3.5.1L5.885,8.119a2.563,2.563,0,0,0-.1,3.487,1.078,1.078,0,0,0,.113.129.427.427,0,0,1,.091.488,15.315,15.315,0,0,0-1.029,2.463.413.413,0,0,1-.409.28A2.556,2.556,0,0,0,2,17.519v3.14a2.556,2.556,0,0,0,2.553,2.553.42.42,0,0,1,.415.3Zm14.121-5.489a1.068,1.068,0,0,0-1.068,1.068V26.48a7.476,7.476,0,1,1,8.459-8.459ZM4.136,20.659v-3.14a.412.412,0,0,1,.417-.417A2.533,2.533,0,0,0,7,15.328a13.093,13.093,0,0,1,.883-2.114,2.579,2.579,0,0,0-.385-2.9.961.961,0,0,0-.1-.112.413.413,0,0,1,0-.583L9.616,7.408a.415.415,0,0,1,.59-.006,1.114,1.114,0,0,0,.107.094,2.579,2.579,0,0,0,2.9.386A13.671,13.671,0,0,1,15.336,7,2.529,2.529,0,0,0,17.1,4.553a.412.412,0,0,1,.417-.417h3.14a.412.412,0,0,1,.417.417A2.533,2.533,0,0,0,22.85,7a13.094,13.094,0,0,1,2.114.883,2.577,2.577,0,0,0,2.9-.385.961.961,0,0,0,.112-.1.413.413,0,0,1,.583,0l2.215,2.215a.415.415,0,0,1,.006.59,1.114,1.114,0,0,0-.094.107,2.583,2.583,0,0,0-.383,2.909,12.936,12.936,0,0,1,.873,2.087A2.54,2.54,0,0,0,33.629,17.1a.412.412,0,0,1,.417.417v.5H28.639A9.613,9.613,0,1,0,18.021,28.639v5.4h-.5a.412.412,0,0,1-.417-.417,2.533,2.533,0,0,0-1.774-2.447,13.093,13.093,0,0,1-2.114-.883,2.579,2.579,0,0,0-2.9.385.962.962,0,0,0-.112.1.415.415,0,0,1-.583,0L7.408,28.562a.415.415,0,0,1-.006-.59,1.114,1.114,0,0,0,.094-.107,2.583,2.583,0,0,0,.379-2.91A12.935,12.935,0,0,1,7,22.868a2.54,2.54,0,0,0-2.457-1.792.412.412,0,0,1-.409-.417Z" transform="translate(-2 -2)"/>
    </g>
  </g>
</svg>
