<svg xmlns="http://www.w3.org/2000/svg" width="152" height="152" viewBox="0 0 152 152">
  <g id="Grupo_1026032" data-name="Grupo 1026032" transform="translate(-514 -3074)">
    <g id="Grupo_1020472" data-name="Grupo 1020472" transform="translate(521.173 3081)">
      <circle id="Elipse_8460" data-name="Elipse 8460" cx="76" cy="76" r="76" transform="translate(-7.173 -7)" fill="#91b3fa" opacity="0.45"/>
      <circle id="Elipse_8461" data-name="Elipse 8461" cx="62" cy="62" r="62" transform="translate(6.827 7)" fill="#fff"/>
    </g>
    <g id="_036-welfare" data-name="036-welfare" transform="translate(554 3114)">
      <g id="Grupo_1026002" data-name="Grupo 1026002" transform="translate(49.433 1.15)">
        <ellipse id="Elipse_8553" data-name="Elipse 8553" cx="10.5" cy="10" rx="10.5" ry="10" transform="translate(0.147 0.426)" fill="#526273"/>
      </g>
      <g id="Grupo_1026003" data-name="Grupo 1026003" transform="translate(54.032 4.598)">
        <path id="Trazado_766298" data-name="Trazado 766298" d="M56.615,7.073A7.855,7.855,0,0,1,53.755,5,7.859,7.859,0,0,1,50.9,7.073a8.064,8.064,0,0,1-2.881.631H48c-.007,1.255.122,4.834.738,6.242a9.807,9.807,0,0,0,5.01,4.849,9.808,9.808,0,0,0,5.01-4.849c.616-1.408.745-4.987.738-6.242a8.059,8.059,0,0,1-2.881-.631Z" transform="translate(-48 -5)" fill="#e6e6e6"/>
      </g>
      <g id="Grupo_1026004" data-name="Grupo 1026004" transform="translate(49.433 49.433)">
        <circle id="Elipse_8554" data-name="Elipse 8554" cx="10.5" cy="10.5" r="10.5" transform="translate(0.147 0.142)" fill="#adc4e6"/>
      </g>
      <g id="Grupo_1026005" data-name="Grupo 1026005" transform="translate(54.032 54.032)">
        <path id="Trazado_766299" data-name="Trazado 766299" d="M53.748,48,48,53.748H59.5Z" transform="translate(-48 -48)" fill="#405d80"/>
      </g>
      <g id="Grupo_1026006" data-name="Grupo 1026006" transform="translate(56.331 59.78)">
        <path id="Trazado_766300" data-name="Trazado 766300" d="M50,53h6.9v5.748H50Z" transform="translate(-50 -53)" fill="#e6e6e6"/>
      </g>
      <g id="Grupo_1026007" data-name="Grupo 1026007" transform="translate(1.15 49.433)">
        <ellipse id="Elipse_8555" data-name="Elipse 8555" cx="10" cy="10.5" rx="10" ry="10.5" transform="translate(0.432 0.142)" fill="#e6e6e6"/>
      </g>
      <g id="Grupo_1026008" data-name="Grupo 1026008" transform="translate(5.748 54.032)">
        <path id="Trazado_766301" data-name="Trazado 766301" d="M17.5,51.449H14.047V48h-4.6v3.449H6v4.6H9.449V59.5h4.6V56.047H17.5Z" transform="translate(-6 -48)" fill="#cc6c66"/>
      </g>
      <g id="Grupo_1026009" data-name="Grupo 1026009" transform="translate(1.15 1.15)">
        <circle id="Elipse_8556" data-name="Elipse 8556" cx="10" cy="10" r="10" transform="translate(0.432 0.426)" fill="#f2dfaa"/>
      </g>
      <g id="Grupo_1026010" data-name="Grupo 1026010" transform="translate(19.543 19.543)">
        <circle id="Elipse_8557" data-name="Elipse 8557" cx="16" cy="16" r="16" transform="translate(0.038 0.032)" fill="#e6e6e6"/>
      </g>
      <g id="Grupo_1026011" data-name="Grupo 1026011" transform="translate(26.441 35.638)">
        <path id="Trazado_766302" data-name="Trazado 766302" d="M37.8,32H28.6A4.6,4.6,0,0,0,24,36.6v8.6a16.047,16.047,0,0,0,18.394,0V36.6A4.6,4.6,0,0,0,37.8,32Z" transform="translate(-24 -32)" fill="#759acc"/>
      </g>
      <g id="Grupo_1026012" data-name="Grupo 1026012" transform="translate(31.04 26.441)">
        <ellipse id="Elipse_8558" data-name="Elipse 8558" cx="5" cy="4.5" rx="5" ry="4.5" transform="translate(-0.458 0.134)" fill="#759acc"/>
      </g>
      <path id="Trazado_766303" data-name="Trazado 766303" d="M34.244,17A17.223,17.223,0,0,0,23.9,48.007v.032h.044a17.113,17.113,0,0,0,20.606,0h.044v-.032A17.223,17.223,0,0,0,34.244,17Zm8.047,29.818c-.372.239-.755.466-1.15.671V38.843h-2.3v9.615a14.826,14.826,0,0,1-9.2,0V38.843h-2.3v8.646c-.394-.207-.777-.432-1.15-.671V38.843a3.453,3.453,0,0,1,3.449-3.449h9.2a3.453,3.453,0,0,1,3.449,3.449ZM30.8,29.646a3.449,3.449,0,1,1,3.449,3.449A3.453,3.453,0,0,1,30.8,29.646ZM44.591,45V38.843a5.755,5.755,0,0,0-5.748-5.748h-.03a5.689,5.689,0,0,0,1.18-3.449,5.748,5.748,0,1,0-11.5,0,5.689,5.689,0,0,0,1.18,3.449h-.03A5.755,5.755,0,0,0,23.9,38.843V45a14.945,14.945,0,1,1,20.693,0Z" transform="translate(1.394 1.394)"/>
      <path id="Trazado_766304" data-name="Trazado 766304" d="M12.5,23.992A11.5,11.5,0,1,0,1,12.5,11.509,11.509,0,0,0,12.5,23.992ZM12.5,3.3a9.2,9.2,0,1,1-9.2,9.2A9.208,9.208,0,0,1,12.5,3.3Z" transform="translate(-1 -1)"/>
      <path id="Trazado_766305" data-name="Trazado 766305" d="M54.5,1a11.5,11.5,0,1,0,11.5,11.5A11.509,11.509,0,0,0,54.5,1Zm0,20.693a9.2,9.2,0,1,1,9.2-9.2A9.208,9.208,0,0,1,54.5,21.693Z" transform="translate(5.284 -1)"/>
      <path id="Trazado_766306" data-name="Trazado 766306" d="M12.5,43a11.5,11.5,0,1,0,11.5,11.5A11.509,11.509,0,0,0,12.5,43Zm0,20.693a9.2,9.2,0,1,1,9.2-9.2A9.208,9.208,0,0,1,12.5,63.693Z" transform="translate(-1 5.284)"/>
      <path id="Trazado_766307" data-name="Trazado 766307" d="M54.5,43a11.5,11.5,0,1,0,11.5,11.5A11.509,11.509,0,0,0,54.5,43Zm0,20.693a9.2,9.2,0,1,1,9.2-9.2A9.208,9.208,0,0,1,54.5,63.693Z" transform="translate(5.284 5.284)"/>
      <path id="Trazado_766308" data-name="Trazado 766308" d="M11.449,15.347A1.15,1.15,0,0,1,10.3,14.2H8a3.444,3.444,0,0,0,2.3,3.237V18.8h2.3V17.434a3.44,3.44,0,0,0-1.15-6.686A1.15,1.15,0,1,1,12.6,9.6h2.3a3.444,3.444,0,0,0-2.3-3.237V5H10.3V6.361a3.44,3.44,0,0,0,1.15,6.686,1.15,1.15,0,1,1,0,2.3Z" transform="translate(0.047 -0.402)"/>
      <path id="Trazado_766309" data-name="Trazado 766309" d="M57.213,6.164a6.749,6.749,0,0,1-2.442-1.769A1.152,1.152,0,0,0,53.9,4h0a1.153,1.153,0,0,0-.867.4A6.717,6.717,0,0,1,50.6,6.164a6.885,6.885,0,0,1-2.446.541A1.15,1.15,0,0,0,47,7.849c0,.047-.016,4.766.837,6.711A10.985,10.985,0,0,0,53.439,20a1.15,1.15,0,0,0,.917,0,10.987,10.987,0,0,0,5.6-5.441c.852-1.944.836-6.662.836-6.709a1.149,1.149,0,0,0-1.111-1.143A6.931,6.931,0,0,1,57.213,6.164ZM52.748,16.975a8.106,8.106,0,0,1-2.806-3.34A17.657,17.657,0,0,1,49.315,8.9a9.155,9.155,0,0,0,2.179-.618,8.975,8.975,0,0,0,1.255-.654v9.348Zm5.107-3.342a8.117,8.117,0,0,1-2.807,3.342V7.619a8.93,8.93,0,0,0,1.269.662,9.082,9.082,0,0,0,2.165.616A17.7,17.7,0,0,1,57.855,13.633Z" transform="translate(5.882 -0.551)"/>
      <path id="Trazado_766310" data-name="Trazado 766310" d="M15.347,50.449v-2.3A1.149,1.149,0,0,0,14.2,47H9.6a1.149,1.149,0,0,0-1.15,1.15v2.3H6.15A1.149,1.149,0,0,0,5,51.6v4.6a1.149,1.149,0,0,0,1.15,1.15h2.3v2.3A1.149,1.149,0,0,0,9.6,60.8h4.6a1.149,1.149,0,0,0,1.15-1.15v-2.3h2.3A1.149,1.149,0,0,0,18.8,56.2V51.6a1.149,1.149,0,0,0-1.15-1.15Zm1.15,4.6H14.2a1.149,1.149,0,0,0-1.15,1.15v2.3h-2.3V56.2a1.149,1.149,0,0,0-1.15-1.15H7.3v-2.3H9.6a1.149,1.149,0,0,0,1.15-1.15V49.3h2.3v2.3a1.149,1.149,0,0,0,1.15,1.15h2.3Z" transform="translate(-0.402 5.882)"/>
      <path id="Trazado_766311" data-name="Trazado 766311" d="M53.085,47.337l-5.748,5.748a1.149,1.149,0,0,0,.813,1.962H49.3v4.6a1.149,1.149,0,0,0,1.15,1.15h6.9a1.149,1.149,0,0,0,1.15-1.15v-4.6h1.15a1.149,1.149,0,0,0,.813-1.962L54.71,47.337A1.148,1.148,0,0,0,53.085,47.337ZM56.2,58.5H51.6V55.047h4.6Zm-5.272-5.748L53.9,49.775l2.973,2.973Z" transform="translate(5.882 5.882)"/>
      <path id="Trazado_766312" data-name="Trazado 766312" d="M30.979,58.982l-.086,2.3c.771.028,1.559.03,2.341,0h.034l-.108-2.3C32.432,59.01,31.7,59.008,30.979,58.982Z" transform="translate(3.472 7.675)"/>
      <path id="Trazado_766313" data-name="Trazado 766313" d="M34.819,58.894l.237,2.287c.785-.082,1.576-.192,2.354-.329l-.4-2.265C36.288,58.715,35.55,58.818,34.819,58.894Z" transform="translate(4.06 7.616)"/>
      <path id="Trazado_766314" data-name="Trazado 766314" d="M26.785,60.827c.781.141,1.572.256,2.353.341l.248-2.285c-.727-.079-1.463-.185-2.192-.317Z" transform="translate(2.858 7.613)"/>
      <path id="Trazado_766315" data-name="Trazado 766315" d="M38.61,58.264l.561,2.23c.771-.194,1.54-.418,2.285-.664l-.722-2.183C40.044,57.877,39.327,58.084,38.61,58.264Z" transform="translate(4.627 7.475)"/>
      <path id="Trazado_766316" data-name="Trazado 766316" d="M22.779,59.786c.753.252,1.52.479,2.281.675l.574-2.227c-.708-.183-1.423-.393-2.124-.629Z" transform="translate(2.258 7.469)"/>
      <path id="Trazado_766317" data-name="Trazado 766317" d="M59.777,41.624c.253-.746.481-1.514.678-2.282l-2.227-.574c-.184.714-.4,1.427-.63,2.121Z" transform="translate(7.468 4.651)"/>
      <path id="Trazado_766318" data-name="Trazado 766318" d="M6.733,40.765c-.23-.7-.438-1.413-.62-2.127L3.884,39.2c.194.766.417,1.534.666,2.282Z" transform="translate(-0.569 4.631)"/>
      <path id="Trazado_766319" data-name="Trazado 766319" d="M58.561,37.172l2.262.413c.14-.771.256-1.563.344-2.352l-2.287-.253C58.8,35.716,58.692,36.454,58.561,37.172Z" transform="translate(7.612 4.084)"/>
      <path id="Trazado_766320" data-name="Trazado 766320" d="M5.756,37.04c-.129-.728-.232-1.466-.308-2.191l-2.287.237c.08.781.192,1.573.332,2.357Z" transform="translate(-0.677 4.064)"/>
      <path id="Trazado_766321" data-name="Trazado 766321" d="M61.285,31.088l0-.141-2.3.074,0,.141c.024.74.022,1.486-.007,2.214l2.3.09c.031-.782.033-1.582.008-2.377Z" transform="translate(7.675 3.48)"/>
      <path id="Trazado_766322" data-name="Trazado 766322" d="M3.017,33.23l0,.071,2.3-.145q-.034-1.083,0-2.147l-2.3-.082C2.994,31.7,2.993,32.47,3.017,33.23Z" transform="translate(-0.701 3.477)"/>
      <path id="Trazado_766323" data-name="Trazado 766323" d="M58.571,27.238c.129.723.235,1.461.313,2.192l2.285-.244c-.084-.786-.2-1.577-.336-2.353Z" transform="translate(7.613 2.865)"/>
      <path id="Trazado_766324" data-name="Trazado 766324" d="M5.767,27.224,3.5,26.816c-.139.776-.254,1.568-.338,2.354l2.285.246c.079-.732.184-1.469.315-2.192Z" transform="translate(-0.676 2.862)"/>
      <path id="Trazado_766325" data-name="Trazado 766325" d="M57.621,23.551c.231.694.44,1.409.623,2.124l2.228-.568c-.2-.769-.422-1.537-.67-2.282Z" transform="translate(7.471 2.265)"/>
      <path id="Trazado_766326" data-name="Trazado 766326" d="M4.576,22.806c-.251.75-.477,1.519-.673,2.284l2.227.569c.183-.712.393-1.426.627-2.122Z" transform="translate(-0.566 2.262)"/>
      <path id="Trazado_766327" data-name="Trazado 766327" d="M41.534,4.565c-.746-.249-1.514-.475-2.285-.671l-.567,2.229c.716.182,1.43.391,2.121.623Z" transform="translate(4.638 -0.567)"/>
      <path id="Trazado_766328" data-name="Trazado 766328" d="M22.855,4.558l.724,2.183c.7-.232,1.416-.441,2.126-.622l-.566-2.228c-.761.193-1.53.417-2.284.667Z" transform="translate(2.27 -0.567)"/>
      <path id="Trazado_766329" data-name="Trazado 766329" d="M34.894,5.449c.731.078,1.468.183,2.19.313L37.49,3.5c-.776-.139-1.568-.252-2.354-.335Z" transform="translate(4.071 -0.676)"/>
      <path id="Trazado_766330" data-name="Trazado 766330" d="M29.458,5.451l-.237-2.287c-.777.08-1.569.193-2.357.335l.4,2.262C28,5.63,28.737,5.525,29.458,5.451Z" transform="translate(2.87 -0.676)"/>
      <path id="Trazado_766331" data-name="Trazado 766331" d="M30.978,3.02l.179,2.3q1.064-.034,2.114,0l.079-2.3c-.743-.025-1.49-.028-2.207,0a.074.074,0,0,0-.023,0Z" transform="translate(3.485 -0.701)"/>
    </g>
  </g>
</svg>
