<svg xmlns="http://www.w3.org/2000/svg" width="152" height="152" viewBox="0 0 152 152">
  <g id="Grupo_1026033" data-name="Grupo 1026033" transform="translate(-724 -3074)">
    <g id="Grupo_1020472" data-name="Grupo 1020472" transform="translate(731.173 3081)">
      <circle id="Elipse_8460" data-name="Elipse 8460" cx="76" cy="76" r="76" transform="translate(-7.173 -7)" fill="#aeeae8"/>
      <circle id="Elipse_8461" data-name="Elipse 8461" cx="62" cy="62" r="62" transform="translate(6.827 7)" fill="#fff"/>
    </g>
    <g id="_035-wealth" data-name="035-wealth" transform="translate(764 3114)">
      <g id="Grupo_1026022" data-name="Grupo 1026022" transform="translate(24.143 65.528)">
        <path id="Trazado_766356" data-name="Trazado 766356" d="M44.417,62.6H22.575A.575.575,0,0,1,22,62.024V58.575A.575.575,0,0,1,22.575,58H44.417a.575.575,0,0,1,.575.575v3.449A.575.575,0,0,1,44.417,62.6Z" transform="translate(-22 -58)" fill="#d9c382"/>
      </g>
      <g id="Grupo_1026023" data-name="Grupo 1026023" transform="translate(47.447 51.793)">
        <path id="Trazado_766357" data-name="Trazado 766357" d="M62.858,58.6,42.63,50.354a.574.574,0,0,1-.315-.75l1.3-3.194a.574.574,0,0,1,.75-.315l20.229,8.242a.574.574,0,0,1,.315.75l-1.3,3.194A.576.576,0,0,1,62.858,58.6Z" transform="translate(-42.271 -46.052)" fill="#f2dfaa"/>
      </g>
      <g id="Grupo_1026024" data-name="Grupo 1026024" transform="translate(1.151 49.991)">
        <path id="Trazado_766358" data-name="Trazado 766358" d="M21.89,48.142,5.162,62.187a.574.574,0,0,1-.809-.07L2.136,59.475a.574.574,0,0,1,.07-.809L18.934,44.62a.574.574,0,0,1,.809.07l2.218,2.642A.576.576,0,0,1,21.89,48.142Z" transform="translate(-2.001 -44.485)" fill="#f2dfaa"/>
      </g>
      <g id="Grupo_1026025" data-name="Grupo 1026025" transform="translate(26.442 60.929)">
        <path id="Trazado_766359" data-name="Trazado 766359" d="M46.417,58.6H24.575A.575.575,0,0,1,24,58.024V54.575A.575.575,0,0,1,24.575,54H46.417a.575.575,0,0,1,.575.575v3.449A.575.575,0,0,1,46.417,58.6Z" transform="translate(-24 -54)" fill="#f2dfaa"/>
      </g>
      <g id="Grupo_1026026" data-name="Grupo 1026026" transform="translate(24.143 56.331)">
        <path id="Trazado_766360" data-name="Trazado 766360" d="M44.417,54.6H22.575A.575.575,0,0,1,22,54.024V50.575A.575.575,0,0,1,22.575,50H44.417a.575.575,0,0,1,.575.575v3.449A.575.575,0,0,1,44.417,54.6Z" transform="translate(-22 -50)" fill="#d9c382"/>
      </g>
      <g id="Grupo_1026027" data-name="Grupo 1026027" transform="translate(16.096 34.488)">
        <path id="Trazado_766361" data-name="Trazado 766361" d="M51.788,31l-11.5,8.047H28.8L17.3,31,15,34.449,27.646,44.8v8.047h13.8V44.8L54.087,34.449Z" transform="translate(-15 -31)" fill="#e6e6e6"/>
      </g>
      <g id="Grupo_1026028" data-name="Grupo 1026028" transform="translate(33.34 42.536)">
        <path id="Trazado_766362" data-name="Trazado 766362" d="M32.3,38,30,44.9l2.3,3.449L34.6,44.9Z" transform="translate(-30 -38)" fill="#526273"/>
      </g>
      <g id="Grupo_1026029" data-name="Grupo 1026029" transform="translate(31.041 33.339)">
        <circle id="Elipse_8561" data-name="Elipse 8561" cx="4.5" cy="4.5" r="4.5" transform="translate(0.122 -0.063)" fill="#ffdbac"/>
      </g>
      <g id="Grupo_1026030" data-name="Grupo 1026030" transform="translate(25.292 9.197)">
        <circle id="Elipse_8562" data-name="Elipse 8562" cx="10.5" cy="10.5" r="10.5" transform="translate(-0.13 0.079)" fill="#ffe38f"/>
      </g>
      <path id="Trazado_766363" data-name="Trazado 766363" d="M69.257,55.823l-20.23-8.24a1.727,1.727,0,0,0-2.247.946l-1.3,3.195a1.753,1.753,0,0,0-.079.269H42.74V45.639l12.224-10a1.151,1.151,0,0,0,.229-1.528l-2.3-3.449a1.148,1.148,0,0,0-1.615-.3L40.079,38.2h-.816a5.7,5.7,0,0,0,1.178-3.449,5.748,5.748,0,0,0-11.5,0,5.689,5.689,0,0,0,1.18,3.449h-.816l-11.2-7.839a1.167,1.167,0,0,0-.871-.189,1.148,1.148,0,0,0-.744.492l-2.3,3.449a1.15,1.15,0,0,0,.229,1.528l12.223,10v6.353H23.772a1.727,1.727,0,0,0-1.724,1.724v3.449a1.727,1.727,0,0,0,1.724,1.724h.575v2.3h-.575a1.727,1.727,0,0,0-1.724,1.724v3.449a1.727,1.727,0,0,0,1.724,1.724H45.614a1.727,1.727,0,0,0,1.724-1.724V63.488h.575a1.727,1.727,0,0,0,1.724-1.724V58.315a1.727,1.727,0,0,0-1.724-1.724h-.575V54.342l19.316,7.869h0a1.726,1.726,0,0,0,2.247-.946l1.3-3.195a1.73,1.73,0,0,0-.947-2.247ZM45.039,54.291v2.3H41.591v-2.3ZM34.693,31.3a3.449,3.449,0,1,1-3.449,3.449A3.453,3.453,0,0,1,34.693,31.3Zm1.03,14.775-1.03,1.546-1.03-1.546,1.03-3.092ZM16.684,34.518l1.069-1.6,10.533,7.374a1.146,1.146,0,0,0,.659.208H33.1L31.3,45.881a1.145,1.145,0,0,0,.135,1l2.3,3.449a1.15,1.15,0,0,0,1.913,0l2.3-3.449a1.153,1.153,0,0,0,.135-1L36.289,40.5h4.152a1.146,1.146,0,0,0,.659-.208l10.533-7.374,1.069,1.6L40.863,44.2a1.15,1.15,0,0,0-.422.89v6.9h-11.5v-6.9a1.15,1.15,0,0,0-.422-.89ZM38.142,58.89h3.449v2.3H38.142Zm-2.3-2.3v-2.3h3.449v2.3Zm-3.449,2.3h3.449v2.3H32.394Zm-2.3-2.3v-2.3h3.449v2.3Zm0,2.3v2.3H26.646v-2.3Zm-5.748-4.6H27.8v2.3H24.346Zm3.449,11.5H24.346v-2.3H27.8Zm5.748,0H30.094v-2.3h3.449Zm5.748,0H35.843v-2.3h3.449Zm5.748,0H41.591v-2.3h3.449Zm2.3-4.6H43.89v-2.3h3.449Zm3.681-7.83-3.194-1.3.867-2.13,3.194,1.3Zm5.323,2.168-3.194-1.3.868-2.129,3.194,1.3ZM61.666,57.7l-3.194-1.3.868-2.129,3.194,1.3Zm5.324,2.168-3.194-1.3.868-2.129,3.194,1.3Z" transform="translate(0.946 3.189)"/>
      <path id="Trazado_766364" data-name="Trazado 766364" d="M1.006,59.1a1.712,1.712,0,0,0,.4,1.259L3.62,63a1.708,1.708,0,0,0,1.171.61c.052,0,.1.007.154.007a1.712,1.712,0,0,0,1.106-.4L22.78,49.171a1.728,1.728,0,0,0,.212-2.429L20.773,44.1a1.727,1.727,0,0,0-2.429-.212L1.616,57.933a1.722,1.722,0,0,0-.61,1.171ZM19.382,46.019l1.478,1.761L18.219,50l-1.478-1.761Zm-4.4,3.7,1.478,1.761-2.642,2.218-1.478-1.761Zm-4.4,3.7,1.478,1.761L9.415,57.389,7.937,55.628Zm-4.4,3.7,1.478,1.761L5.013,61.087,3.535,59.325Z" transform="translate(-0.999 5.356)"/>
      <path id="Trazado_766365" data-name="Trazado 766365" d="M22,19.5A11.5,11.5,0,1,0,33.5,8,11.509,11.509,0,0,0,22,19.5Zm11.5-9.2a9.2,9.2,0,1,1-9.2,9.2A9.208,9.208,0,0,1,33.5,10.3Z" transform="translate(2.143 0.047)"/>
      <path id="Trazado_766366" data-name="Trazado 766366" d="M32.449,22.347A1.152,1.152,0,0,1,31.3,21.2H29a3.444,3.444,0,0,0,2.3,3.237V25.8h2.3V24.434a3.44,3.44,0,0,0-1.15-6.686A1.15,1.15,0,1,1,33.6,16.6h2.3a3.444,3.444,0,0,0-2.3-3.237V12H31.3v1.361a3.44,3.44,0,0,0,1.15,6.686,1.15,1.15,0,1,1,0,2.3Z" transform="translate(3.19 0.646)"/>
      <path id="Trazado_766367" data-name="Trazado 766367" d="M31,3h2.3V7.6H31Z" transform="translate(3.489 -0.701)"/>
      <path id="Trazado_766368" data-name="Trazado 766368" d="M36,1h2.3V5.6H36Z" transform="translate(4.237 -1)"/>
      <path id="Trazado_766369" data-name="Trazado 766369" d="M26,1h2.3V5.6H26Z" transform="translate(2.741 -1)"/>
    </g>
  </g>
</svg>
