<svg xmlns="http://www.w3.org/2000/svg" xmlns:xlink="http://www.w3.org/1999/xlink" width="118.617" height="119.456" viewBox="0 0 118.617 119.456">
  <defs>
    <radialGradient id="radial-gradient" cx="0.076" cy="0.019" r="1.465" gradientTransform="translate(0.001)" gradientUnits="objectBoundingBox">
      <stop offset="0" stop-color="#f6f6f7"/>
      <stop offset="0.477" stop-color="#f9f9fa"/>
      <stop offset="0.715" stop-color="#fff"/>
    </radialGradient>
    <filter id="Trazado_765630" x="0" y="0.961" width="118.617" height="118.495" filterUnits="userSpaceOnUse">
      <feOffset dy="7" input="SourceAlpha"/>
      <feGaussianBlur stdDeviation="2.5" result="blur"/>
      <feFlood flood-opacity="0.102"/>
      <feComposite operator="in" in2="blur"/>
      <feComposite in="SourceGraphic"/>
    </filter>
  </defs>
  <g id="Grupo_1026422" data-name="Grupo 1026422" transform="translate(-278.841 -1768.5)">
    <g id="Grupo_1025959" data-name="Grupo 1025959" transform="translate(0 -331.331)">
      <g id="Grupo_1024863" data-name="Grupo 1024863" transform="translate(285 2099.831)">
        <g id="Grupo_18420" data-name="Grupo 18420">
          <g id="Grupo_18419" data-name="Grupo 18419">
            <path id="Trazado_40936" data-name="Trazado 40936" d="M299.581,2198.2a52.479,52.479,0,1,1-52.478-52.477A52.478,52.478,0,0,1,299.581,2198.2Z" transform="translate(-194.623 -2145.721)" fill="#fff"/>
          </g>
        </g>
      </g>
      <g transform="matrix(1, 0, 0, 1, 278.84, 2099.83)" filter="url(#Trazado_765630)">
        <path id="Trazado_765630-2" data-name="Trazado 765630" d="M299.094,2197.667a52.478,52.478,0,1,0-52.478,52.479A52.271,52.271,0,0,0,299.094,2197.667Z" transform="translate(-187.98 -2145.19)" fill="url(#radial-gradient)"/>
      </g>
      <path id="Trazado_765631" data-name="Trazado 765631" d="M289.67,2196.985a43.749,43.749,0,1,0-43.749,43.75A43.588,43.588,0,0,0,289.67,2196.985Z" transform="translate(92.17 -44.554)" fill="none" stroke="#fe7062" stroke-miterlimit="10" stroke-width="4"/>
      <g id="Grupo_1024864" data-name="Grupo 1024864" transform="translate(294.298 2129.294)">
        <path id="Trazado_40939" data-name="Trazado 40939" d="M290.9,2164.488a52.485,52.485,0,0,1-90.354,52.261,52.318,52.318,0,0,0,90.354-52.261Z" transform="translate(-200.545 -2164.488)" fill="#eceef0"/>
      </g>
    </g>
    <g id="_017-performance" data-name="017-performance" transform="translate(294.481 1789.475)">
      <g id="Grupo_1026420" data-name="Grupo 1026420" transform="translate(22.659 8.794)">
        <g id="Grupo_1026387" data-name="Grupo 1026387" transform="translate(39.645 7.811)">
          <g id="Grupo_1026381" data-name="Grupo 1026381" transform="translate(0)">
            <path id="Trazado_766704" data-name="Trazado 766704" d="M436.208,118.466V97.159a2.1,2.1,0,0,0-2.1-2.1h-.839a2.1,2.1,0,0,0-2.1,2.1v21.307l2.517,4.359Z" transform="translate(-431.175 -95.062)" fill="#ffe177" fill-rule="evenodd"/>
          </g>
          <g id="Grupo_1026382" data-name="Grupo 1026382" transform="translate(0 0)">
            <path id="Trazado_766705" data-name="Trazado 766705" d="M434.409,95.084a2.1,2.1,0,0,0-.3-.021h-.839a2.1,2.1,0,0,0-2.1,2.1v21.307l2.517,4.359.717-1.242-1.8-3.117V97.16A2.1,2.1,0,0,1,434.409,95.084Z" transform="translate(-431.176 -95.063)" fill="#d0b450" fill-rule="evenodd"/>
          </g>
          <g id="Grupo_1026383" data-name="Grupo 1026383" transform="translate(0 23.404)">
            <path id="Trazado_766706" data-name="Trazado 766706" d="M433.691,336.321l2.517-4.359h-5.033Z" transform="translate(-431.175 -331.962)" fill="#837683" fill-rule="evenodd"/>
          </g>
          <g id="Grupo_1026384" data-name="Grupo 1026384" transform="translate(0 23.404)">
            <path id="Trazado_766707" data-name="Trazado 766707" d="M433.691,336.321l.717-1.242-1.8-3.117h-1.434Z" transform="translate(-431.175 -331.962)" fill="#685e68" fill-rule="evenodd"/>
          </g>
          <g id="Grupo_1026385" data-name="Grupo 1026385" transform="translate(0 0)">
            <path id="Trazado_766708" data-name="Trazado 766708" d="M436.209,98.921V97.16a2.1,2.1,0,0,0-2.1-2.1h-.839a2.1,2.1,0,0,0-2.1,2.1v1.761h5.033Z" transform="translate(-431.176 -95.063)" fill="#837683" fill-rule="evenodd"/>
          </g>
          <g id="Grupo_1026386" data-name="Grupo 1026386" transform="translate(0 0)">
            <path id="Trazado_766709" data-name="Trazado 766709" d="M434.409,95.084a2.1,2.1,0,0,0-.3-.021h-.839a2.1,2.1,0,0,0-2.1,2.1v1.761h1.434V97.16A2.1,2.1,0,0,1,434.409,95.084Z" transform="translate(-431.175 -95.063)" fill="#685e68" fill-rule="evenodd"/>
          </g>
        </g>
        <g id="Grupo_1026419" data-name="Grupo 1026419" transform="translate(0 0)">
          <g id="Grupo_1026399" data-name="Grupo 1026399">
            <g id="Grupo_1026390" data-name="Grupo 1026390" transform="translate(0 4.049)">
              <g id="Grupo_1026388" data-name="Grupo 1026388" transform="translate(0)">
                <path id="Trazado_766710" data-name="Trazado 766710" d="M64.745,56.984a2.13,2.13,0,0,1,2.126,2.126V98.229a2.13,2.13,0,0,1-2.126,2.126H32a2.13,2.13,0,0,1-2.126-2.126V59.11A2.13,2.13,0,0,1,32,56.984H64.745Z" transform="translate(-29.878 -56.984)" fill="#fe7062" fill-rule="evenodd"/>
              </g>
              <g id="Grupo_1026389" data-name="Grupo 1026389" transform="translate(0 0)">
                <path id="Trazado_766711" data-name="Trazado 766711" d="M34.186,100.356H32a2.13,2.13,0,0,1-2.126-2.126V59.111A2.13,2.13,0,0,1,32,56.985h2.182v43.371Z" transform="translate(-29.878 -56.985)" fill="#d55346" fill-rule="evenodd"/>
              </g>
            </g>
            <g id="Grupo_1026395" data-name="Grupo 1026395" transform="translate(2.958 7.007)">
              <g id="Grupo_1026393" data-name="Grupo 1026393">
                <g id="Grupo_1026391" data-name="Grupo 1026391">
                  <path id="Trazado_766712" data-name="Trazado 766712" d="M60.309,86.922H90.4a.5.5,0,0,1,.494.494v32.443a.477.477,0,0,1-.136.34l-3.829,4.025a.478.478,0,0,1-.358.154H60.309a.5.5,0,0,1-.494-.494V87.416a.5.5,0,0,1,.494-.494Z" transform="translate(-59.815 -86.922)" fill="#eceff1" fill-rule="evenodd"/>
                </g>
                <g id="Grupo_1026392" data-name="Grupo 1026392" transform="translate(0)">
                  <path id="Trazado_766713" data-name="Trazado 766713" d="M60.309,86.922h.856v37.456h-.856a.5.5,0,0,1-.494-.494V87.416A.5.5,0,0,1,60.309,86.922Zm15.237,0H90.4a.491.491,0,0,1,.2.042H75.546Z" transform="translate(-59.815 -86.922)" fill="#d1d1d6" fill-rule="evenodd"/>
                </g>
              </g>
              <g id="Grupo_1026394" data-name="Grupo 1026394" transform="translate(26.881 33.135)">
                <path id="Trazado_766714" data-name="Trazado 766714" d="M331.914,426.642a.651.651,0,0,0,.2-.143l3.786-3.975a.748.748,0,0,0,.143-.2l-3.753.061a.351.351,0,0,0-.347.347Z" transform="translate(-331.914 -422.321)" fill="#a79ba7" fill-rule="evenodd"/>
              </g>
            </g>
            <g id="Grupo_1026398" data-name="Grupo 1026398" transform="translate(10.311)">
              <g id="Grupo_1026396" data-name="Grupo 1026396" transform="translate(0)">
                <path id="Trazado_766715" data-name="Trazado 766715" d="M134.745,18.764h3.809a.487.487,0,0,0,.467-.332,3.615,3.615,0,0,1,6.832,0,.487.487,0,0,0,.467.332h3.809a.5.5,0,0,1,.494.494V23.8a.5.5,0,0,1-.494.494H134.745a.5.5,0,0,1-.494-.494v-4.54a.5.5,0,0,1,.494-.494Z" transform="translate(-134.251 -16)" fill="#e3a76f" fill-rule="evenodd"/>
              </g>
              <g id="Grupo_1026397" data-name="Grupo 1026397" transform="translate(0 2.764)">
                <path id="Trazado_766716" data-name="Trazado 766716" d="M134.745,43.977h.494v4.046a.5.5,0,0,0,.494.494h14.889v.494a.5.5,0,0,1-.494.494H134.745a.5.5,0,0,1-.494-.494v-4.54A.5.5,0,0,1,134.745,43.977Z" transform="translate(-134.251 -43.977)" fill="#c48958" fill-rule="evenodd"/>
              </g>
            </g>
          </g>
          <g id="Grupo_1026418" data-name="Grupo 1026418" transform="translate(5.032 12.081)">
            <g id="Grupo_1026402" data-name="Grupo 1026402" transform="translate(9.333)">
              <g id="Grupo_1026400" data-name="Grupo 1026400" transform="translate(0 0)">
                <path id="Trazado_766717" data-name="Trazado 766717" d="M179.192,138.4l.851,2.243a.174.174,0,0,0,.157.114l2.4.117a.177.177,0,0,1,.1.315l-1.87,1.5a.174.174,0,0,0-.06.185l.629,2.315a.177.177,0,0,1-.268.195l-2.007-1.314a.174.174,0,0,0-.194,0l-2.007,1.314a.177.177,0,0,1-.268-.195l.629-2.315a.174.174,0,0,0-.06-.185l-1.87-1.5a.177.177,0,0,1,.1-.315l2.4-.117a.174.174,0,0,0,.157-.114l.851-2.243A.178.178,0,0,1,179.192,138.4Z" transform="translate(-175.287 -138.283)" fill="#ffe177" fill-rule="evenodd"/>
              </g>
              <g id="Grupo_1026401" data-name="Grupo 1026401" transform="translate(1.361)">
                <path id="Trazado_766718" data-name="Trazado 766718" d="M194.251,140.833l.757.037a.177.177,0,0,1,.1.315l-1.87,1.5a.174.174,0,0,0-.06.185l.629,2.315a.177.177,0,0,1-.268.195l-.519-.34-.6-2.207a.174.174,0,0,1,.06-.185l1.87-1.5A.177.177,0,0,0,194.251,140.833ZM191.6,138.4l.851,2.243a.174.174,0,0,0,.156.114l-.757-.037a.174.174,0,0,1-.157-.114l-.631-1.662.206-.543A.178.178,0,0,1,191.6,138.4Zm-.069,5.673a.174.174,0,0,0-.194,0l-2.007,1.314a.177.177,0,0,1-.268-.195l.054-.2,1.814-1.188a.174.174,0,0,1,.194,0Z" transform="translate(-189.058 -138.282)" fill="#ffd064" fill-rule="evenodd"/>
              </g>
            </g>
            <g id="Grupo_1026405" data-name="Grupo 1026405" transform="translate(19.42)">
              <g id="Grupo_1026403" data-name="Grupo 1026403" transform="translate(0 0)">
                <path id="Trazado_766719" data-name="Trazado 766719" d="M281.3,138.4l.851,2.243a.174.174,0,0,0,.157.114l2.4.117a.177.177,0,0,1,.1.315l-1.87,1.5a.174.174,0,0,0-.06.185l.629,2.315a.177.177,0,0,1-.268.195l-2.007-1.314a.174.174,0,0,0-.194,0l-2.007,1.314a.177.177,0,0,1-.268-.195l.629-2.315a.174.174,0,0,0-.06-.185l-1.87-1.5a.177.177,0,0,1,.1-.315l2.4-.117a.174.174,0,0,0,.157-.114l.852-2.243A.178.178,0,0,1,281.3,138.4Z" transform="translate(-277.391 -138.283)" fill="#ffe177" fill-rule="evenodd"/>
              </g>
              <g id="Grupo_1026404" data-name="Grupo 1026404" transform="translate(1.36)">
                <path id="Trazado_766720" data-name="Trazado 766720" d="M296.354,140.833l.757.037a.177.177,0,0,1,.1.315l-1.87,1.5a.174.174,0,0,0-.06.185l.629,2.315a.177.177,0,0,1-.268.195l-.519-.34-.6-2.207a.174.174,0,0,1,.06-.185l1.87-1.5A.177.177,0,0,0,296.354,140.833Zm-2.647-2.437.851,2.243a.174.174,0,0,0,.156.114l-.757-.037a.174.174,0,0,1-.157-.114l-.631-1.662.206-.543A.178.178,0,0,1,293.706,138.4Zm-.069,5.673a.174.174,0,0,0-.194,0l-2.007,1.314a.177.177,0,0,1-.268-.195l.054-.2,1.814-1.188a.174.174,0,0,1,.194,0Z" transform="translate(-291.161 -138.282)" fill="#ffd064" fill-rule="evenodd"/>
              </g>
            </g>
            <g id="Grupo_1026408" data-name="Grupo 1026408" transform="translate(9.333 10.436)">
              <g id="Grupo_1026406" data-name="Grupo 1026406">
                <path id="Trazado_766721" data-name="Trazado 766721" d="M179.193,244.03l.851,2.243a.174.174,0,0,0,.157.114l2.4.117a.177.177,0,0,1,.1.315l-1.87,1.5a.174.174,0,0,0-.06.185l.629,2.315a.177.177,0,0,1-.268.195l-2.007-1.314a.174.174,0,0,0-.194,0l-2.007,1.314a.177.177,0,0,1-.268-.195l.629-2.315a.174.174,0,0,0-.06-.185l-1.87-1.5a.177.177,0,0,1,.1-.315l2.4-.117a.174.174,0,0,0,.157-.114l.851-2.243A.178.178,0,0,1,179.193,244.03Z" transform="translate(-175.288 -243.917)" fill="#ffe177" fill-rule="evenodd"/>
              </g>
              <g id="Grupo_1026407" data-name="Grupo 1026407" transform="translate(1.36)">
                <path id="Trazado_766722" data-name="Trazado 766722" d="M194.251,246.467l.757.037a.177.177,0,0,1,.1.315l-1.87,1.5a.174.174,0,0,0-.06.185l.629,2.315a.177.177,0,0,1-.268.195l-.519-.34-.6-2.207a.174.174,0,0,1,.06-.185l1.87-1.5A.177.177,0,0,0,194.251,246.467ZM191.6,244.03l.851,2.243a.174.174,0,0,0,.156.114l-.757-.037a.174.174,0,0,1-.157-.114l-.631-1.662.206-.543A.178.178,0,0,1,191.6,244.03Zm-.069,5.673a.174.174,0,0,0-.194,0l-2.007,1.314a.177.177,0,0,1-.268-.195l.054-.2,1.814-1.188a.174.174,0,0,1,.194,0Z" transform="translate(-189.058 -243.917)" fill="#ffd064" fill-rule="evenodd"/>
              </g>
            </g>
            <g id="Grupo_1026411" data-name="Grupo 1026411" transform="translate(0 0.891)">
              <g id="Grupo_1026409" data-name="Grupo 1026409" transform="translate(0 0)">
                <ellipse id="Elipse_8614" data-name="Elipse 8614" cx="3.371" cy="3.371" rx="3.371" ry="3.371" transform="translate(0 0.074) rotate(-0.63)" fill="#6cf5c2"/>
              </g>
              <g id="Grupo_1026410" data-name="Grupo 1026410" transform="translate(2.907 0.04)">
                <path id="Trazado_766723" data-name="Trazado 766723" d="M110.729,147.711a3.371,3.371,0,1,1-.494,6.706,3.371,3.371,0,0,0,0-6.67A3.421,3.421,0,0,1,110.729,147.711Z" transform="translate(-110.235 -147.711)" fill="#00e499" fill-rule="evenodd"/>
              </g>
            </g>
            <g id="Grupo_1026414" data-name="Grupo 1026414" transform="translate(0.004 11.328)">
              <g id="Grupo_1026412" data-name="Grupo 1026412" transform="translate(0 0)">
                <ellipse id="Elipse_8615" data-name="Elipse 8615" cx="3.371" cy="3.371" rx="3.371" ry="3.371" transform="translate(0 0.074) rotate(-0.63)" fill="#8ac9fe"/>
              </g>
              <g id="Grupo_1026413" data-name="Grupo 1026413" transform="translate(2.903 0.04)">
                <path id="Trazado_766724" data-name="Trazado 766724" d="M110.729,253.346a3.371,3.371,0,1,1-.494,6.706,3.371,3.371,0,0,0,0-6.67A3.41,3.41,0,0,1,110.729,253.346Z" transform="translate(-110.235 -253.346)" fill="#60b7ff" fill-rule="evenodd"/>
              </g>
            </g>
            <g id="Grupo_1026417" data-name="Grupo 1026417" transform="translate(0.008 21.764)">
              <g id="Grupo_1026415" data-name="Grupo 1026415" transform="translate(0 0)">
                <ellipse id="Elipse_8616" data-name="Elipse 8616" cx="3.371" cy="3.371" rx="3.371" ry="3.371" transform="translate(0 0.074) rotate(-0.63)" fill="#ffe177"/>
              </g>
              <g id="Grupo_1026416" data-name="Grupo 1026416" transform="translate(2.899 0.039)">
                <path id="Trazado_766725" data-name="Trazado 766725" d="M110.729,358.98a3.371,3.371,0,1,1-.494,6.706,3.371,3.371,0,0,0,0-6.669A3.4,3.4,0,0,1,110.729,358.98Z" transform="translate(-110.235 -358.98)" fill="#ffd064" fill-rule="evenodd"/>
              </g>
            </g>
          </g>
        </g>
      </g>
      <g id="Grupo_1026421" data-name="Grupo 1026421" transform="translate(21.868 8.004)">
        <path id="Trazado_766726" data-name="Trazado 766726" d="M31.092,48.629a2.58,2.58,0,1,1,2.58-2.58A2.583,2.583,0,0,1,31.092,48.629Zm0-6.742a4.161,4.161,0,1,0,4.161,4.161,4.166,4.166,0,0,0-4.161-4.161Zm1.864-7.628a.79.79,0,0,1-.054,1.116l-1.812,1.645A.79.79,0,0,1,30,36.994l-.746-.746A.79.79,0,1,1,30.37,35.13l.214.214L31.839,34.2a.79.79,0,0,1,1.116.054Zm-1.864,3.934a2.58,2.58,0,1,0-2.581-2.58A2.584,2.584,0,0,0,31.092,38.193Zm0-6.742a4.161,4.161,0,1,0,4.161,4.161,4.165,4.165,0,0,0-4.161-4.161Zm8.535,3.119a.968.968,0,0,0,.858-.623l.278-.733.278.733a.967.967,0,0,0,.858.623l.784.038-.611.491a.97.97,0,0,0-.329,1.009l.206.757-.656-.43a.966.966,0,0,0-1.06,0l-.657.43.205-.757a.966.966,0,0,0-.327-1.009l-.612-.491ZM36.6,34.83l1.557,1.251-.524,1.928a.967.967,0,0,0,1.463,1.063l1.672-1.094,1.671,1.094A.968.968,0,0,0,43.9,38.009l-.524-1.928,1.557-1.251a.968.968,0,0,0-.559-1.721l-1.995-.1-.709-1.868a.968.968,0,0,0-1.81,0l-.709,1.868-2,.1a.968.968,0,0,0-.56,1.721Zm-6.011-9.921,1.255-1.139A.79.79,0,1,1,32.9,24.94l-1.812,1.645A.791.791,0,0,1,30,26.559l-.746-.746a.79.79,0,0,1,1.117-1.118Zm3.088.269a2.58,2.58,0,1,0-2.58,2.581A2.583,2.583,0,0,0,33.672,25.177Zm-6.742,0a4.161,4.161,0,1,0,4.161-4.161,4.165,4.165,0,0,0-4.161,4.161Zm22.784-1.043a.968.968,0,0,0,.858-.623l.278-.734.279.734a.967.967,0,0,0,.858.623l.783.038-.611.492a.968.968,0,0,0-.327,1.008l.205.757L51.38,26a.968.968,0,0,0-1.06,0l-.657.43.206-.757a.968.968,0,0,0-.328-1.008l-.611-.491Zm-3.033.259,1.557,1.251-.524,1.928a.967.967,0,0,0,1.464,1.063l1.67-1.094,1.672,1.094a.968.968,0,0,0,1.464-1.063l-.525-1.928,1.557-1.251a.968.968,0,0,0-.558-1.72l-2-.1-.71-1.867a.967.967,0,0,0-1.808,0l-.71,1.867-2,.1a.967.967,0,0,0-.559,1.72Zm-7.055-.259a.968.968,0,0,0,.858-.623l.278-.734.278.734a.967.967,0,0,0,.858.623l.784.038-.612.491a.971.971,0,0,0-.328,1.008l.206.757L41.293,26a.967.967,0,0,0-1.06,0l-.657.43.205-.756a.967.967,0,0,0-.327-1.009l-.612-.491Zm-3.032.259,1.557,1.251-.524,1.927a.967.967,0,0,0,1.464,1.064l1.672-1.094,1.671,1.094A.968.968,0,0,0,43.9,27.573l-.524-1.928,1.557-1.251a.967.967,0,0,0-.559-1.72l-1.995-.1-.709-1.867a.968.968,0,0,0-1.81,0l-.709,1.867-2,.1a.968.968,0,0,0-.56,1.72Zm5.516-12.636a.956.956,0,1,1-.957-.956A.959.959,0,0,1,42.111,11.757Zm16.75,42.331V14.969a1.337,1.337,0,0,0-1.335-1.336H50.131V15.01h6.564a.791.791,0,0,1,.791.791V48.935a.786.786,0,0,1-.219.545L53.156,53.8a.792.792,0,0,1-.573.246H25.615a.792.792,0,0,1-.791-.791V15.8a.791.791,0,0,1,.791-.791h6.564V13.633H24.784a1.337,1.337,0,0,0-1.335,1.336V54.088a1.336,1.336,0,0,0,1.335,1.335H57.525a1.336,1.336,0,0,0,1.336-1.335Zm-4.038-4.333-1.52,1.6.014-1.573ZM49.34,17.876H32.969a.79.79,0,0,1-.79-.791v-.495H26.406V52.467H51.713l.026-3.13a1.136,1.136,0,0,1,1.125-1.131l3.04-.049V16.591H50.131v.495A.79.79,0,0,1,49.34,17.876ZM33.76,12.348V16.3H48.55V12.348H44.668a.79.79,0,0,1-.769-.605,2.825,2.825,0,0,0-5.49,0,.79.79,0,0,1-.769.605Zm23.765-.3H50.131v-.495a.79.79,0,0,0-.791-.791h-4.1a4.408,4.408,0,0,0-8.179,0h-4.1a.79.79,0,0,0-.79.791v.495H24.784a2.919,2.919,0,0,0-2.916,2.916V54.088A2.919,2.919,0,0,0,24.784,57H57.525a2.919,2.919,0,0,0,2.917-2.916V14.969a2.919,2.919,0,0,0-2.916-2.916Zm7.293,30.734L63.674,40.8h2.292Zm-1.724-3.568V21.94h3.454V39.219ZM64.4,17.4h.842A1.308,1.308,0,0,1,66.548,18.7V20.36H63.094V18.7A1.306,1.306,0,0,1,64.4,17.4Zm.842-1.581H64.4A2.89,2.89,0,0,0,61.514,18.7V40.009a.794.794,0,0,0,.106.4l2.515,4.359a.793.793,0,0,0,1.372,0L68.022,40.4a.79.79,0,0,0,.107-.4V18.7A2.892,2.892,0,0,0,65.241,15.814Z" transform="translate(-21.868 -8.004)" fill="#242222" fill-rule="evenodd"/>
      </g>
    </g>
  </g>
</svg>
