<svg xmlns="http://www.w3.org/2000/svg" xmlns:xlink="http://www.w3.org/1999/xlink" width="400" height="173" viewBox="0 0 400 173">
  <defs>
    <clipPath id="clip-path">
      <rect id="Rectángulo_360480" data-name="Rectángulo 360480" width="400" height="145.602" fill="none"/>
    </clipPath>
  </defs>
  <g id="Grupo_1027063" data-name="Grupo 1027063" transform="translate(-1020 -6085)">
    <rect id="Rectángulo_359687" data-name="Rectángulo 359687" width="400" height="173" transform="translate(1020 6085)" fill="none"/>
    <g id="Grupo_1027062" data-name="Grupo 1027062" transform="translate(1020 6099)">
      <g id="Grupo_1027061" data-name="Grupo 1027061" clip-path="url(#clip-path)">
        <path id="Trazado_770386" data-name="Trazado 770386" d="M155.437,56.273c3.538-3.53.183-10.28-2.347-9.6s-4.684-1.941-7.719-.257-4.916,2.249-4.993,5.579-1.592,6.35.084,7.547-.471,2.944,3.36,3.511,5.475,1.386,7.309-.908,4.306-5.869,4.306-5.869" fill="#441d00"/>
        <path id="Trazado_770387" data-name="Trazado 770387" d="M148.749,145.493H148.7a.508.508,0,0,1-.508-.521l.771-33.948,2.273-.265L149.3,144.975a.55.55,0,0,1-.549.518" fill="#b0d4ff"/>
        <path id="Trazado_770388" data-name="Trazado 770388" d="M135.5,145.493h-.049a.508.508,0,0,1-.508-.521l.771-33.948,2.273-.265-1.938,34.216a.55.55,0,0,1-.549.518" fill="#95c0f4"/>
        <path id="Trazado_770389" data-name="Trazado 770389" d="M172.055,145.493h.049a.508.508,0,0,0,.508-.521l-.771-33.948-2.273-.265,1.938,34.216a.55.55,0,0,0,.549.518" fill="#b0d4ff"/>
        <path id="Trazado_770390" data-name="Trazado 770390" d="M134,108.95V86.031a7.3,7.3,0,0,1,7.3-7.3h16.512a7.3,7.3,0,0,1,7.3,7.3v23.795Z" fill="#b0d4ff"/>
        <path id="Trazado_770391" data-name="Trazado 770391" d="M168.072,112.569H136.19A2.193,2.193,0,0,1,134,110.377v-1.426h34.075Z" fill="#95c0f4"/>
        <path id="Trazado_770392" data-name="Trazado 770392" d="M171.892,112.569h-24.12a1.621,1.621,0,0,1-1.621-1.621v-.376a1.621,1.621,0,0,1,1.621-1.621h24.12a1.621,1.621,0,0,1,1.621,1.621v.376a1.621,1.621,0,0,1-1.621,1.621" fill="#b0d4ff"/>
        <path id="Trazado_770393" data-name="Trazado 770393" d="M170.956,103.24a15.352,15.352,0,0,1-5.341,5.706H153.237s19.524-8.847,17.719-5.706" fill="#233862"/>
        <path id="Trazado_770394" data-name="Trazado 770394" d="M162.185,135.4c-.323.37-.651.354-.491.795l.281.117c.295.816,1.111,1.054,2.244,1.964.145.117.192.322.3.421.03.026.066.278.094.3s.258.285.28.3c1.057.974.23.619,2.128,2.6,2.164,2.252,2.616,2.31,3.04,2.1.358-.174.39-.688-.417-2.03l-.117-.2c-.108-.178-.215-.359-.321-.539-.947-1.615-.7-2.373-.479-4.777.182-1.954,3.039-10.915,3.039-10.915l-4.147-.715s-1.249,7.136-2.625,8.235c-.736.586-1.56.593-2.267,1.027q-.075.045-.147.093c-.4.267-.076.842-.4,1.213" fill="#ffb27d"/>
        <path id="Trazado_770395" data-name="Trazado 770395" d="M161.449,135.094a1.143,1.143,0,0,0-.2,1.224l0,.006a8.809,8.809,0,0,0,2.408,2.628c.143.119.269.228.381.33l.087.078.067.06c1.056.974.658,1.2,2.556,3.173,2.165,2.252,3.655,2.292,4.079,2.087.358-.175-.37-1.369-1.178-2.711a9.23,9.23,0,0,1-3.858-2.843c-1.3-1.663-2.172-3.8-3.059-5.037q-.075.045-.147.093a5.405,5.405,0,0,0-1.135.912" fill="#d34942"/>
        <path id="Trazado_770396" data-name="Trazado 770396" d="M195.153,132.286c.256,1.28,1.679.826,3.718.327s1.541-.029,4.442-.35,3.138-.668,3.227-1.1c.079-.383-.559-.671-2.1-.848-.193-.021-.388-.045-.582-.069-1.736-.218-3.008-1.339-4.585-2.259-1.494-.871-3.723-4.422-3.723-4.422l-3.979.315s2.088,3.172,2.9,4.551a4.808,4.808,0,0,1,.39,2.711c-.031.45.2.692.293,1.143" fill="#ffb27d"/>
        <path id="Trazado_770397" data-name="Trazado 770397" d="M199.011,133.073c2.039-.5,1.554.094,4.456-.227s3.78-1.4,3.869-1.835c.079-.383-1.355-.517-2.892-.7l-.015.03a8.179,8.179,0,0,1-4.155,1.292c-1.969.047-4.054-.517-5.413-.495a5.137,5.137,0,0,0,.03,1.362c.256,1.28,2.081,1.066,4.12.568" fill="#d34942"/>
        <path id="Trazado_770398" data-name="Trazado 770398" d="M179.641,107.06l-3.72,10.01-5.736,13.648a4.067,4.067,0,0,0-1.7-.814c-1.162-.336-1.858-.613-1.858-.613s.711-14.635,3.226-22.691a14.364,14.364,0,0,1,2.165-4.682c3.9-4.608,7.623,5.142,7.623,5.142" fill="#ffb27d"/>
        <path id="Trazado_770399" data-name="Trazado 770399" d="M175.922,117.07l3.72-10.01a18.14,18.14,0,0,0-2.979-5.045,27.833,27.833,0,0,0-4.28-.486,5.15,5.15,0,0,0-.364.39,14.357,14.357,0,0,0-2.165,4.681c-.162.519-.316,1.065-.463,1.633,2.977.668,5.146,7.109,4.982,12.524Z" fill="#ed975d"/>
        <path id="Trazado_770400" data-name="Trazado 770400" d="M175.859,91.163c-2.437-.786-9.388.223-16.37,1.59l-1.462-2.411-15.081-1.178s-4.977,11.036-2.252,18.068a2.55,2.55,0,0,0,2.552,1.719h.22s8.976-.006,11.891-.006c7.5,0,15.873-5.155,16.956-5.372,1.773-.355,2.482,3.191,4.255,6.914s17.19,16.782,17.19,16.782a18.108,18.108,0,0,0,2.709-.626c1.017-.381,1.389.054,1.389.054s-16.5-33.761-22-35.534" fill="#ffb27d"/>
        <path id="Trazado_770401" data-name="Trazado 770401" d="M153.95,66.172c.027.009-2.313,1.577-4.239,1.276-1.812-.282-3.753-2.619-3.729-2.627.728-.231,1.364-1.092.856-5.487l.344.029,5.784.486s.071,1.8.255,3.473c.154,1.409.39,2.736.729,2.85" fill="#ffb27d"/>
        <path id="Trazado_770402" data-name="Trazado 770402" d="M152.966,59.849s.071,1.8.255,3.473c-3.176.266-5.174-2.435-6.039-3.959Z" fill="#ed975d"/>
        <path id="Trazado_770403" data-name="Trazado 770403" d="M154.2,61.319s-7.478.964-8.007-3.7-1.849-7.684,2.9-8.5,5.883.863,6.438,2.377.6,9.452-1.334,9.823" fill="#ffb27d"/>
        <path id="Trazado_770404" data-name="Trazado 770404" d="M154.614,49.107s-3.555,5.219-6.612,6.382-4.518.472-4.518.472a12.7,12.7,0,0,0,1.891-4.815,2.289,2.289,0,0,1,1.474-1.791c2.192-.794,6.423-2.022,7.765-.248" fill="#441d00"/>
        <path id="Trazado_770405" data-name="Trazado 770405" d="M151.63,49.524a11.794,11.794,0,0,1,2.73,2.059,9.048,9.048,0,0,1,1.48,4.582s1.155-5.329-.818-7.239c-2.092-2.026-3.392.6-3.392.6" fill="#441d00"/>
        <path id="Trazado_770406" data-name="Trazado 770406" d="M141.791,92.184c-3.315,5.38-4.064,15.425-.977,16.856s23.45.635,27.646-.578c4.09-2.59,9.251-13.307,9.251-13.307l-18.659-5.293c-10.1,1.365-17.261,2.322-17.261,2.322" fill="#fe7062"/>
        <path id="Trazado_770407" data-name="Trazado 770407" d="M153.325,64.161s4.079,1.481,6.214,2.275a3.809,3.809,0,0,1,1.138,1.655c.763,2.8,5.313,19.177,5.313,19.177s-3.447,2.714-4.974,1.187-5.17-16.284-5.17-16.284Z" fill="#d34942"/>
        <path id="Trazado_770408" data-name="Trazado 770408" d="M161.3,78.73c-3.512,14.716-1.629,11.3-3.283,12.736a6.371,6.371,0,0,1-3,.649c-4.639.308-12.793-.457-13.1-1.314-1.07-2.966.493-4.081-.4-8.622-.093-.483-1.015-.812-1.15-1.381-.745-3.119-1.469-4.18,1.171-9.191,2.4-4.539,5.14-8.226,5.363-8.093,6.318,3.75,6.425.647,6.425.647s9.188,9.474,7.972,14.569" fill="#fe7062"/>
        <path id="Trazado_770409" data-name="Trazado 770409" d="M153.325,95.366c-4.7,1.871-12.248,3.54-14.262,5.1.848-8.072,3.365-9.382,1.646-18.1l2.237-6.3s-.37,7.015,1.7,8.86,7.135,3.841,8.141,5.383c.485.739.446,4.454.539,5.05" fill="#d34942"/>
        <path id="Trazado_770410" data-name="Trazado 770410" d="M149.7,89.164s4.576-1.019,5.315-.613a10.749,10.749,0,0,1,2.769,2.4c.225.515-1.644-.391-2.253-.554a5.43,5.43,0,0,0-1.943.426,6.465,6.465,0,0,1-3.484.35Z" fill="#ffb27d"/>
        <path id="Trazado_770411" data-name="Trazado 770411" d="M146.9,63.513s-6.406.379-8.533,3.345c-2.994,4.177-8.934,21.975-5.53,24.349,3.834,2.673,17.448.7,17.448.7s.454-2.117-.177-3.142-10.874-2.679-11.347-3.152,5.91-9.219,5.91-10.637S146.9,63.513,146.9,63.513" fill="#fe7062"/>
        <path id="Trazado_770412" data-name="Trazado 770412" d="M155.24,89.825a8.836,8.836,0,0,0,1.273,1.384.938.938,0,0,0,.518.111l-.647-1.163Z" fill="#ffb27d"/>
        <path id="Trazado_770413" data-name="Trazado 770413" d="M155.019,88.551l2.788,1.354a.5.5,0,0,1-.462.178,6.685,6.685,0,0,1-1.209-.332Z" fill="#ffb27d"/>
        <path id="Trazado_770414" data-name="Trazado 770414" d="M156.513,93.338h22.052l6.634-16.5H163.181Z" fill="#2b478b"/>
        <path id="Trazado_770415" data-name="Trazado 770415" d="M172.6,84.856a.765.765,0,0,0-.75-1.05,1.5,1.5,0,0,0-1.351,1.05.764.764,0,0,0,.749,1.05,1.505,1.505,0,0,0,1.352-1.05" fill="#233862"/>
        <path id="Trazado_770416" data-name="Trazado 770416" d="M178.824,92.695H149.7v.643h28.862Z" fill="#233862"/>
        <path id="Trazado_770417" data-name="Trazado 770417" d="M214.988,97.4,241.03,1.579H397.686V0H239.054L213.1,97.191Z" fill="#f1a34f"/>
        <path id="Trazado_770418" data-name="Trazado 770418" d="M317.316,49.268l7.615,90.538s.8,5.489-3.285,5.5c-6.712.016-33.409,0-33.409,0s5.052-1.142,4.991-3.713c-.072-3.03-8.9-93.18-8.9-93.18Z" fill="#1a0f91"/>
        <path id="Trazado_770419" data-name="Trazado 770419" d="M286.071,143.662c1.32,0,26.819.084,33.355,0,2.849-.036,3.348-2.533,3.372-4.149a8.11,8.11,0,0,0-.086-1.348l-.2-2.353-.505-6-.446-5.3-.573-6.809-.482-5.747L315.1,47.625l-32.988-.856s3.718,37.727,6.348,65.19c.294,3.059.573,5.993.831,8.732q.126,1.311.243,2.562c.243,2.6.466,4.984.66,7.091.1,1.11.2,2.142.282,3.087.336,3.7.532,6.069.535,6.518a3.854,3.854,0,0,1-.064.733c-.542,2.886-4.377,2.98-4.873,2.98" fill="#4545dd"/>
        <path id="Trazado_770420" data-name="Trazado 770420" d="M397.429,0,378.881,74.5l-2.539,10.2-8.639,34.7H207.213L239.053,0Z" fill="#3a36c9"/>
        <path id="Trazado_770421" data-name="Trazado 770421" d="M397.43,0,400,.857,371.12,122l-3.417-2.591Z" fill="#3a36c9"/>
        <path id="Trazado_770422" data-name="Trazado 770422" d="M371.121,122h-159.5l-4.4-2.591H367.7Z" fill="#1a0f91"/>
        <rect id="Rectángulo_360479" data-name="Rectángulo 360479" width="34.535" height="1.641" transform="translate(280.573 143.698)" fill="#4545dd"/>
        <path id="Trazado_770423" data-name="Trazado 770423" d="M289.352,122l.178,1.255,32.479,6.561-.446-5.3L321.35,122Z" fill="#1a0f91"/>
        <path id="Trazado_770424" data-name="Trazado 770424" d="M286.071,143.662c1.32,0,26.819.084,33.355,0,2.849-.036,3.348-2.533,3.372-4.149l-32.325-6.082c.336,3.7.532,6.069.535,6.518a3.854,3.854,0,0,1-.064.733c-.542,2.886-4.377,2.98-4.873,2.98" fill="#3a36c9"/>
        <path id="Trazado_770425" data-name="Trazado 770425" d="M297.2,95.234l70.5,24.173,8.639-34.7Z" fill="#1a0f91"/>
        <path id="Trazado_770426" data-name="Trazado 770426" d="M397.43,0H239.053l-25.7,95.965h161Z" fill="#699dee"/>
        <path id="Trazado_770427" data-name="Trazado 770427" d="M220.825,91.807H369.113l16.794-66.9,1.287-5.13,1.1-4.376.879-3.5,1.7-6.758H244.718l-.1.372L242.856,11.9l-.966,3.5-1.207,4.376-1.415,5.13Z" fill="#e9f3fe"/>
        <path id="Trazado_770428" data-name="Trazado 770428" d="M220.825,92.035H369.113l16.794-66.9,1.287-5.13,1.1-4.376.879-3.5,1.7-6.758H244.718l-.1.372-1.759,6.386-.966,3.5-1.207,4.376-1.415,5.13Z" fill="#dee9f0"/>
        <path id="Trazado_770429" data-name="Trazado 770429" d="M242.856,11.9H389.172l1.7-6.758h-146.1l-.159.372Z" fill="#afcdfb"/>
        <path id="Trazado_770430" data-name="Trazado 770430" d="M386.8,8.519a.97.97,0,0,0-.963-1.283,1.752,1.752,0,0,0-1.6,1.283A.969.969,0,0,0,385.2,9.8a1.753,1.753,0,0,0,1.6-1.283" fill="#e9f3fe"/>
        <path id="Trazado_770431" data-name="Trazado 770431" d="M382.541,8.519a.969.969,0,0,0-.963-1.283,1.752,1.752,0,0,0-1.6,1.283.969.969,0,0,0,.963,1.283,1.753,1.753,0,0,0,1.6-1.283" fill="#e9f3fe"/>
        <path id="Trazado_770432" data-name="Trazado 770432" d="M377.952,8.519a.97.97,0,0,0-.963-1.283,1.752,1.752,0,0,0-1.6,1.283.969.969,0,0,0,.962,1.283,1.753,1.753,0,0,0,1.6-1.283" fill="#e9f3fe"/>
        <path id="Trazado_770433" data-name="Trazado 770433" d="M322.921,92.035h14.663c.14-1.146.264-2.357.375-3.621.2-2.266.348-4.7.459-7.241q.041-.877.071-1.769c.029-.756.053-1.522.075-2.291.035-1.306.063-2.627.084-3.956v0c.026-1.694.039-3.4.042-5.1h0c0-.424,0-.849,0-1.272h0c0-.4,0-.795,0-1.191-.013-3.658-.068-7.245-.146-10.581-.168-7.381-.442-13.532-.587-16.489h0c-.059-1.214-.1-1.888-.1-1.888h0c-.033,0-.256.046-.606.13-.257.063-.583.148-.953.262h0c-.335.1-.7.226-1.093.373h0a12.788,12.788,0,0,0-2.042.987l-.031.015a5.893,5.893,0,0,0-2.535,2.77c-.387,1.011-1.293,6.442-2.388,13.656q-.045.309-.093.622c-.579,3.831-1.2,8.129-1.834,12.518-.665,4.65-1.331,9.4-1.943,13.8-.522,3.776-1.007,7.293-1.413,10.269" fill="#2b478b"/>
        <path id="Trazado_770434" data-name="Trazado 770434" d="M327.027,92.035h17.067c.327-1.408.634-2.766.906-4.04a44.062,44.062,0,0,0,1.216-7.934,2.313,2.313,0,0,0-.756-1.728,3.737,3.737,0,0,0-1.223-.722,14.549,14.549,0,0,0-5.674-.5c-.736.046-1.482.118-2.218.207a64.7,64.7,0,0,0-7.822,1.5s-.252,1.019-.549,2.8c-.224,1.335-.473,3.1-.658,5.186-.108,1.212-.194,2.532-.243,3.938q-.021.635-.046,1.3" fill="#233862"/>
        <path id="Trazado_770435" data-name="Trazado 770435" d="M334.909,80.081l.17,1.233.827,5.987.14,1.022.512,3.712h17.787c.138-2.453.266-4.844.29-6.928q0-.347,0-.679c0-3.138-.276-5.465-1.176-6.053-1.019-.665-4.4-.483-8-.042-.359.044-.721.091-1.082.139-2.1.283-4.2.632-5.889.932-.876.156-1.642.3-2.237.413-.841.161-1.343.264-1.343.264" fill="#c65447"/>
        <path id="Trazado_770436" data-name="Trazado 770436" d="M354.639,39.716s-9.771-6.318-16.78-3.087a13.138,13.138,0,0,0-3.3,2.957c-2.533,2.791-7.484,47.136-7.484,47.136s14.053,4.759,27.567-1.615Z" fill="#fff"/>
        <path id="Trazado_770437" data-name="Trazado 770437" d="M337.3,36.469s-9.892,4.054-11.232,7.169-5.694,22.244-5.694,24.487,7.582.5,8.8-3.117c1.014-3,4.433-12.233,6.235-18.07Z" fill="#2b478b"/>
        <path id="Trazado_770438" data-name="Trazado 770438" d="M339.357,39.558A11.125,11.125,0,0,0,347.011,38a22.042,22.042,0,0,1-1.631-5.761c-.009-.069-.016-.134-.022-.2a5.8,5.8,0,0,1-.027-1.32h-5.583s-1.527.7-1.527,1.18q0,.387-.006.741c-.011.642-.037,1.2-.071,1.684a15.263,15.263,0,0,1-.286,2.3s-.682,2.5,1.5,2.929" fill="#ffb27d"/>
        <path id="Trazado_770439" data-name="Trazado 770439" d="M338.145,34.325a7.718,7.718,0,0,0,7.236-2.087c.078-.085.118-.135.118-.135-.045-.022-.092-.042-.141-.063-1.574-.637-5.147-.13-7.143.6-.011.642-.037,1.2-.07,1.684" fill="#e2915a"/>
        <path id="Trazado_770440" data-name="Trazado 770440" d="M346.762,29.8c-.756,4.068-6.005,3.934-8.273,3.679-.638-.071-1.04-.153-1.04-.153-.72-.192-1.121-1.326-1.308-2.811a23.139,23.139,0,0,1,.594-8.356c.747-1.661,2.155-3.456,7.44-2.161s3.557,4.59,2.587,9.8" fill="#ffb27d"/>
        <path id="Trazado_770441" data-name="Trazado 770441" d="M336.538,19.892a12.079,12.079,0,0,1,3.646-2.975c2.988-1.617,6.814.051,6.83.058,4.317,1.9,5.445,5.2,3.156,10.347-2.421,5.441-4.725,4.829-4.725,4.829s.489-.3.445-2c0-.1-.007-.177-.011-.247a1.135,1.135,0,0,1,.36-.927c.536-.479.8-1.927.348-2.33-.541-.486-1.3.105-1.546.559a.662.662,0,0,1-.947.209c-1.344-.849-.471-2.549-1.755-3.588s-3.89-.167-5.816-.995c-2.522-.94-.529-2.186.015-2.94" fill="#233862"/>
        <path id="Trazado_770442" data-name="Trazado 770442" d="M335.844,92.035H357.12c-.152-4.412-.348-9.68-.553-15.013-.053-1.382-.108-2.771-.161-4.148-.025-.584-.046-1.164-.069-1.744-.47-11.844-.937-22.54-1.035-23.116-.224-1.3-.435-2.414-.663-3.377-.669-2.806-1.5-4.344-3.311-5.668-.176-.134-1.625-.863-2.9-1.5-1.043-.517-1.971-.969-2-.982v0h0a2.064,2.064,0,0,0-.689.832,14.056,14.056,0,0,0-.768,1.693,91.512,91.512,0,0,0-2.752,9.176l0,.009V48.2c-.471,1.843-.808,3.278-.9,3.691-.163.695-.378,2.04-.632,3.862v0c-.344,2.486-.754,5.857-1.188,9.684h0q-.067.591-.135,1.192-.076.688-.156,1.392h0c-.016.151-.033.3-.048.452v0c-.167,1.515-.336,3.078-.5,4.668l0,0c-.143,1.311-2.131,2.261-2.269,3.6-.01.1-.02.294-.033.567-.026.565-.056,1.46-.093,2.5-.016.461-.032.95-.05,1.45-.078,2.22-.174,4.653-.283,5.823-.005.055-.01.126-.014.211-.012.234-.023.578-.032,1.01-.017.917-.026,2.229-.029,3.724" fill="#2b478b"/>
        <path id="Trazado_770443" data-name="Trazado 770443" d="M350.358,52.789c.006.027.339,11.977-8.65,13.428s-3.016,1.836-3.016,1.836,16.912-.719,17.191-1.166-5.525-14.1-5.525-14.1" fill="#233862"/>
        <path id="Trazado_770444" data-name="Trazado 770444" d="M342.763,71.347s.169.119.492.328a.1.1,0,0,1,.017.01,42.174,42.174,0,0,0,11.367,4.862q.933.254,1.927.476c-.052-1.383-.107-2.771-.16-4.149a17.183,17.183,0,0,0,2.227-.308c-.023-.182-.048-.364-.071-.546-.754-.309-1.5-.607-2.226-.89-.588-.23-1.158-.449-1.7-.652-2.434-.924-4.238-1.551-4.238-1.551L343.2,71.21Z" fill="#233862"/>
        <path id="Trazado_770445" data-name="Trazado 770445" d="M340.856,71.147s.926.231,2.4.528a.028.028,0,0,1,.015,0,59,59,0,0,0,11.368,1.27c.6-.006,1.194-.03,1.767-.075a17.183,17.183,0,0,0,2.227-.308,6.93,6.93,0,0,0,3.559-1.68c6.071-6.184-3.313-28.377-5.286-30.537-2.3-2.521-6.508-3.406-8.829-3.709l-.28-.036c-.816-.1-1.34-.117-1.369-.118h0s.182.585.487,1.577c.118.385.255.83.406,1.327,1.426,4.67,4.177,13.847,5.39,19.022a13.154,13.154,0,0,1,.574,3.657c-.474,1.768-5.379,2.677-8.486,3.079-1.3.167-2.281.246-2.5.263a.344.344,0,0,0-.046,0l-.18.737-.43,1.768-.423,1.736Z" fill="#2b478b"/>
        <path id="Trazado_770446" data-name="Trazado 770446" d="M323.924,81.785l20.85-.878-4.23-25.984-20.85.878Z" fill="#f99746"/>
        <path id="Trazado_770447" data-name="Trazado 770447" d="M342.252,65.414s-4.059-.283-4.262.663c-.475,2.2,3.489,4.016,4.773,3.892s.423-4.7-.511-4.555" fill="#ffb27d"/>
        <path id="Trazado_770448" data-name="Trazado 770448" d="M320.834,61.077s3.883-1.214,4.3-.341c.972,2.036-2.466,4.714-3.744,4.891s-1.5-4.477-.556-4.55" fill="#ffb27d"/>
        <path id="Trazado_770449" data-name="Trazado 770449" d="M346.006,35.181a7.578,7.578,0,0,1,2.563,2.042s-6.382,11.082-6.353,10.978,2.157-11.6,3.79-13.02" fill="#233862"/>
        <path id="Trazado_770450" data-name="Trazado 770450" d="M338.056,35.337a4.872,4.872,0,0,0-1.883,1.927l-.759,9.675s1.62-7.1,2.445-10.309a5.439,5.439,0,0,0,.2-1.293" fill="#233862"/>
        <path id="Trazado_770451" data-name="Trazado 770451" d="M333.632,55.214a.947.947,0,0,0-1.114-.637c-.949.084-6.281.346-6.281.346s-1.028-.017-.933.642Z" fill="#c65447"/>
        <path id="Trazado_770452" data-name="Trazado 770452" d="M339.748,30.72a2.224,2.224,0,0,1-1.809.435c-.662-.115-1.033-.977-1.033-.977a5.009,5.009,0,0,1,2.842.542" fill="#fff"/>
        <path id="Trazado_770453" data-name="Trazado 770453" d="M240.951,38.807l15.4.057,4.994-19.12-15.4-.057Z" fill="#fff"/>
        <path id="Trazado_770454" data-name="Trazado 770454" d="M249.765,22.2l6.458.024.074-.283-6.458-.024Z" fill="#adcbf9"/>
        <path id="Trazado_770455" data-name="Trazado 770455" d="M248.734,22.985l8.108.03.074-.283-8.108-.03Z" fill="#adcbf9"/>
        <path id="Trazado_770456" data-name="Trazado 770456" d="M246.5,26.876l10.531.039.074-.283-10.531-.039Z" fill="#adcbf9"/>
        <path id="Trazado_770457" data-name="Trazado 770457" d="M246.261,27.808l10.531.039.074-.283-10.531-.039Z" fill="#adcbf9"/>
        <path id="Trazado_770458" data-name="Trazado 770458" d="M246.017,28.74l10.531.039.074-.283-10.531-.039Z" fill="#adcbf9"/>
        <path id="Trazado_770459" data-name="Trazado 770459" d="M245.774,29.673l10.531.039.074-.283-10.531-.039Z" fill="#adcbf9"/>
        <path id="Trazado_770460" data-name="Trazado 770460" d="M245.53,30.6l10.531.039.074-.283L245.6,30.322Z" fill="#adcbf9"/>
        <path id="Trazado_770461" data-name="Trazado 770461" d="M244.938,32.874l10.531.039.074-.283-10.531-.039Z" fill="#adcbf9"/>
        <path id="Trazado_770462" data-name="Trazado 770462" d="M244.694,33.806l10.531.039.074-.283-10.531-.039Z" fill="#adcbf9"/>
        <path id="Trazado_770463" data-name="Trazado 770463" d="M244.451,34.738l10.531.039.074-.283-10.531-.039Z" fill="#adcbf9"/>
        <path id="Trazado_770464" data-name="Trazado 770464" d="M244.207,35.67l10.531.039.074-.283-10.531-.039Z" fill="#adcbf9"/>
        <path id="Trazado_770465" data-name="Trazado 770465" d="M243.964,36.6l10.531.039.074-.283-10.531-.039Z" fill="#adcbf9"/>
        <path id="Trazado_770466" data-name="Trazado 770466" d="M234.745,62.566l15.4.057L255.14,43.5l-15.4-.057Z" fill="#fff"/>
        <path id="Trazado_770467" data-name="Trazado 770467" d="M243.559,45.958l6.458.024.074-.283-6.458-.024Z" fill="#adcbf9"/>
        <path id="Trazado_770468" data-name="Trazado 770468" d="M242.528,46.744l8.108.03.074-.283-8.108-.03Z" fill="#adcbf9"/>
        <path id="Trazado_770469" data-name="Trazado 770469" d="M240.3,50.635l10.531.039.074-.283-10.531-.039Z" fill="#adcbf9"/>
        <path id="Trazado_770470" data-name="Trazado 770470" d="M240.055,51.567l10.531.039.074-.283-10.531-.039Z" fill="#adcbf9"/>
        <path id="Trazado_770471" data-name="Trazado 770471" d="M239.811,52.5l10.531.039.074-.283-10.531-.039Z" fill="#adcbf9"/>
        <path id="Trazado_770472" data-name="Trazado 770472" d="M239.568,53.432l10.531.039.074-.283-10.531-.039Z" fill="#adcbf9"/>
        <path id="Trazado_770473" data-name="Trazado 770473" d="M239.324,54.364l10.531.039.074-.283L239.4,54.081Z" fill="#adcbf9"/>
        <path id="Trazado_770474" data-name="Trazado 770474" d="M238.732,56.633l10.531.039.074-.283-10.531-.039Z" fill="#adcbf9"/>
        <path id="Trazado_770475" data-name="Trazado 770475" d="M238.488,57.565l10.531.039.074-.283-10.531-.039Z" fill="#adcbf9"/>
        <path id="Trazado_770476" data-name="Trazado 770476" d="M238.245,58.5l10.531.039.074-.283-10.531-.039Z" fill="#adcbf9"/>
        <path id="Trazado_770477" data-name="Trazado 770477" d="M238,59.429l10.531.039.074-.283-10.531-.039Z" fill="#adcbf9"/>
        <path id="Trazado_770478" data-name="Trazado 770478" d="M237.758,60.362l10.531.039.074-.283-10.531-.039Z" fill="#adcbf9"/>
        <path id="Trazado_770479" data-name="Trazado 770479" d="M228.5,86.485l15.4.057,5-19.12-15.4-.057Z" fill="#fff"/>
        <path id="Trazado_770480" data-name="Trazado 770480" d="M237.311,69.877l6.458.024.074-.283-6.458-.024Z" fill="#adcbf9"/>
        <path id="Trazado_770481" data-name="Trazado 770481" d="M236.28,70.662l8.108.03.074-.283-8.108-.03Z" fill="#adcbf9"/>
        <path id="Trazado_770482" data-name="Trazado 770482" d="M234.051,74.554l10.531.039.074-.283-10.531-.039Z" fill="#adcbf9"/>
        <path id="Trazado_770483" data-name="Trazado 770483" d="M233.807,75.486l10.531.039.074-.283L233.881,75.2Z" fill="#adcbf9"/>
        <path id="Trazado_770484" data-name="Trazado 770484" d="M233.564,76.418l10.531.039.074-.283-10.531-.039Z" fill="#adcbf9"/>
        <path id="Trazado_770485" data-name="Trazado 770485" d="M233.32,77.351l10.531.039.074-.283-10.531-.039Z" fill="#adcbf9"/>
        <path id="Trazado_770486" data-name="Trazado 770486" d="M233.077,78.283l10.531.039.074-.283L233.151,78Z" fill="#adcbf9"/>
        <path id="Trazado_770487" data-name="Trazado 770487" d="M232.484,80.552l10.531.039.074-.283-10.531-.039Z" fill="#adcbf9"/>
        <path id="Trazado_770488" data-name="Trazado 770488" d="M232.24,81.484l10.531.039.074-.283L232.314,81.2Z" fill="#adcbf9"/>
        <path id="Trazado_770489" data-name="Trazado 770489" d="M232,82.416l10.531.039.074-.283-10.531-.039Z" fill="#adcbf9"/>
        <path id="Trazado_770490" data-name="Trazado 770490" d="M231.753,83.348l10.531.039.074-.283-10.531-.039Z" fill="#adcbf9"/>
        <path id="Trazado_770491" data-name="Trazado 770491" d="M231.51,84.281l10.531.039.074-.283L231.584,84Z" fill="#adcbf9"/>
        <path id="Trazado_770492" data-name="Trazado 770492" d="M248.748,86.646l53.866.2,15.5-59.351L311.1,19.938l-44.884-.166Z" fill="#fff"/>
        <path id="Trazado_770493" data-name="Trazado 770493" d="M281.053,29.8l18.984.07.218-.832-18.985-.07Z" fill="#adcbf9"/>
        <path id="Trazado_770494" data-name="Trazado 770494" d="M278.022,32.112l23.835.088.217-.832-23.835-.088Z" fill="#adcbf9"/>
        <path id="Trazado_770495" data-name="Trazado 770495" d="M271.469,43.551l30.959.114.217-.831-30.959-.115Z" fill="#adcbf9"/>
        <path id="Trazado_770496" data-name="Trazado 770496" d="M270.753,46.292l30.959.114.217-.831L270.97,45.46Z" fill="#adcbf9"/>
        <path id="Trazado_770497" data-name="Trazado 770497" d="M270.037,49.032,301,49.146l.217-.831L270.254,48.2Z" fill="#adcbf9"/>
        <path id="Trazado_770498" data-name="Trazado 770498" d="M269.321,51.773l30.959.114.217-.831-30.959-.115Z" fill="#adcbf9"/>
        <path id="Trazado_770499" data-name="Trazado 770499" d="M268.605,54.514l30.959.114.217-.831-30.959-.115Z" fill="#adcbf9"/>
        <path id="Trazado_770500" data-name="Trazado 770500" d="M266.863,61.183l30.959.114.217-.831-30.959-.115Z" fill="#adcbf9"/>
        <path id="Trazado_770501" data-name="Trazado 770501" d="M266.148,63.924l30.959.114.217-.831-30.959-.115Z" fill="#adcbf9"/>
        <path id="Trazado_770502" data-name="Trazado 770502" d="M265.432,66.664l30.959.114.217-.831-30.959-.115Z" fill="#adcbf9"/>
        <path id="Trazado_770503" data-name="Trazado 770503" d="M264.716,69.4l30.959.114.217-.831-30.959-.115Z" fill="#adcbf9"/>
        <path id="Trazado_770504" data-name="Trazado 770504" d="M264,72.145l30.959.114.217-.831-30.959-.115Z" fill="#adcbf9"/>
        <path id="Trazado_770505" data-name="Trazado 770505" d="M318.117,27.493l-8.982-.033,1.965-7.523Z" fill="#adcbf9"/>
        <path id="Trazado_770506" data-name="Trazado 770506" d="M82.708,145.225H82.66a.509.509,0,0,1-.509-.521l.771-33.446,2.273-.265-1.938,33.714a.55.55,0,0,1-.549.518" fill="#b0d4ff"/>
        <path id="Trazado_770507" data-name="Trazado 770507" d="M69.462,145.225h-.049a.508.508,0,0,1-.508-.521l.771-33.446,2.273-.265-1.938,33.714a.55.55,0,0,1-.549.518" fill="#95c0f4"/>
        <path id="Trazado_770508" data-name="Trazado 770508" d="M106.013,145.225h.049a.508.508,0,0,0,.508-.521l-.771-33.446-2.273-.265,1.938,33.714a.55.55,0,0,0,.549.518" fill="#b0d4ff"/>
        <path id="Trazado_770509" data-name="Trazado 770509" d="M67.956,109.184V86.265a7.3,7.3,0,0,1,7.3-7.3H91.77a7.3,7.3,0,0,1,7.3,7.3V110.06Z" fill="#b0d4ff"/>
        <path id="Trazado_770510" data-name="Trazado 770510" d="M102.03,112.8H70.148a2.193,2.193,0,0,1-2.193-2.192v-1.426H102.03Z" fill="#95c0f4"/>
        <path id="Trazado_770511" data-name="Trazado 770511" d="M105.851,112.8H81.731a1.621,1.621,0,0,1-1.621-1.621v-.376a1.621,1.621,0,0,1,1.621-1.621h24.12a1.621,1.621,0,0,1,1.621,1.621v.376a1.621,1.621,0,0,1-1.621,1.621" fill="#b0d4ff"/>
        <path id="Trazado_770512" data-name="Trazado 770512" d="M104.914,103.473a15.352,15.352,0,0,1-5.341,5.706H87.195s19.524-8.847,17.719-5.706" fill="#233862"/>
        <path id="Trazado_770513" data-name="Trazado 770513" d="M95.408,135.328a1.143,1.143,0,0,0-.2,1.224l0,.006a7.607,7.607,0,0,0,2.4,2.637c.144.116.273.223.385.321l.087.078.067.06c1.056.974.658,1.2,2.556,3.173,2.165,2.252,3.655,2.292,4.079,2.087.358-.175-.37-1.369-1.178-2.711-.039-.065-.077-.13-.117-.2-.108-.178-.215-.36-.321-.539-.947-1.615-.7-2.373-.479-4.778.182-1.953,3.039-10.914,3.039-10.914l-4.147-.715s-1.249,7.136-2.625,8.235c-.736.586-1.56.593-2.267,1.027q-.075.045-.147.093a5.406,5.406,0,0,0-1.135.912" fill="#ffb27d"/>
        <path id="Trazado_770514" data-name="Trazado 770514" d="M95.408,135.328a1.143,1.143,0,0,0-.2,1.224l0,.006a8.809,8.809,0,0,0,2.408,2.628c.143.119.269.228.381.33l.087.078.067.06c1.056.974.658,1.2,2.556,3.173,2.165,2.252,3.655,2.292,4.079,2.087.358-.175-.37-1.369-1.178-2.711a9.23,9.23,0,0,1-3.858-2.843c-1.3-1.663-2.172-3.8-3.059-5.037q-.075.045-.147.093a5.406,5.406,0,0,0-1.135.912" fill="#233862"/>
        <path id="Trazado_770515" data-name="Trazado 770515" d="M128.85,132.738c.256,1.28,2.081,1.067,4.12.568s1.554.1,4.455-.227,3.781-1.4,3.869-1.834c.08-.383-1.354-.518-2.892-.695-.193-.022-.387-.046-.582-.07-1.736-.218-3.007-1.338-4.585-2.258-1.493-.872-3.723-4.423-3.723-4.423l-3.979.316s2.088,3.171,2.9,4.55a4.8,4.8,0,0,1,.39,2.712,5.13,5.13,0,0,0,.031,1.361" fill="#ffb27d"/>
        <path id="Trazado_770516" data-name="Trazado 770516" d="M132.969,133.306c2.039-.5,1.554.094,4.456-.227s3.78-1.4,3.869-1.835c.079-.383-1.355-.517-2.892-.7l-.015.03a8.179,8.179,0,0,1-4.155,1.292c-1.969.047-4.054-.517-5.413-.495a5.137,5.137,0,0,0,.03,1.362c.256,1.28,2.081,1.066,4.12.568" fill="#233862"/>
        <path id="Trazado_770517" data-name="Trazado 770517" d="M113.6,107.294l-3.72,10.01-4.856,13.07a7.871,7.871,0,0,1-2.58-.236,11.2,11.2,0,0,1-2.5-1.215s1.349-14.033,3.864-22.089a14.364,14.364,0,0,1,2.165-4.682c3.9-4.608,7.623,5.142,7.623,5.142" fill="#233862"/>
        <path id="Trazado_770518" data-name="Trazado 770518" d="M109.818,91.4c-2.437-.786-9.388.223-16.37,1.59l-1.462-2.411L76.9,89.4s-4.977,11.036-2.252,18.068a2.55,2.55,0,0,0,2.552,1.719h.22s8.976-.006,11.891-.006c7.5,0,15.873-5.155,16.956-5.372,1.773-.355,2.482,3.191,4.255,6.914s16.665,16.488,16.665,16.488a13.084,13.084,0,0,0,3.234-.332,3.18,3.18,0,0,0,1.389-.877s-16.5-32.83-22-34.6" fill="#2b478b"/>
        <path id="Trazado_770519" data-name="Trazado 770519" d="M91.393,46.661a15.886,15.886,0,0,0-5.349-1.216c-5.715-.768-9.155,7.536-9.357,10.053-.373,4.638-2.826,5.345-6.28,8.249-6.924,5.825-4.894,12.592-1.107,15.107,2.271,1.509,6.276,0,6.276,0,.056.039,10.951-6.091,16.322-9.048,8.051-1.144,4.418-20.56-.505-23.145" fill="#233862"/>
        <path id="Trazado_770520" data-name="Trazado 770520" d="M87.4,67.289c.024.015-2.642.925-4.425.136-1.677-.741-2.947-3.5-2.923-3.5.763-.035,1.6-.7,2.246-5.078l.325.116,5.462,1.966s-.4,1.752-.652,3.421c-.215,1.4-.331,2.743-.033,2.941" fill="#ffb27d"/>
        <path id="Trazado_770521" data-name="Trazado 770521" d="M88.081,60.927s-.4,1.753-.652,3.421c-3.137-.565-4.368-3.69-4.81-5.386Z" fill="#ed975d"/>
        <path id="Trazado_770522" data-name="Trazado 770522" d="M88.894,62.666s-7.473-1-6.777-5.647.2-7.9,5-7.458,5.46,2.355,5.6,3.962-1.867,9.284-3.829,9.143" fill="#ffb27d"/>
        <path id="Trazado_770523" data-name="Trazado 770523" d="M92.451,50.977s-4.784,4.123-8.038,4.455-4.486-.712-4.486-.712A12.71,12.71,0,0,0,83,50.557a2.289,2.289,0,0,1,1.887-1.348c2.323-.2,6.728-.293,7.565,1.768" fill="#233862"/>
        <path id="Trazado_770524" data-name="Trazado 770524" d="M89.461,50.608a11.774,11.774,0,0,1,2.1,2.695,9.035,9.035,0,0,1,.245,4.809s2.494-4.849,1.082-7.2c-1.5-2.5-3.431-.3-3.431-.3" fill="#233862"/>
        <path id="Trazado_770525" data-name="Trazado 770525" d="M93.689,78.3c-.226,15.127-.062,11.966-1.717,13.4a6.364,6.364,0,0,1-3,.649c-4.638.308-12.792-.457-13.1-1.314-1.07-2.966-.315-3.887-1.207-8.428-.094-.483-.209-1.006-.344-1.575-.744-3.119-1.469-4.18,1.172-9.191,2.395-4.539,4.882-8.223,5.106-8.09,6.317,3.75,6.827.6,6.827.6s6.371,6.57,6.26,13.949" fill="#57dbd8"/>
        <path id="Trazado_770526" data-name="Trazado 770526" d="M109.88,117.3l-4.857,13.07a7.872,7.872,0,0,1-2.58-.236,11.2,11.2,0,0,1-2.5-1.214s1.349-14.034,3.864-22.09Z" fill="#2b478b"/>
        <path id="Trazado_770527" data-name="Trazado 770527" d="M87.429,64.348s6.5,1.1,7.264,3.9S99.948,87.5,99.948,87.5s-3.3.593-4.831-.933S89.805,72.4,89.805,72.4Z" fill="#57dbd8"/>
        <path id="Trazado_770528" data-name="Trazado 770528" d="M88.977,92.348c-4.639.308-12.792-.456-13.1-1.314-1.07-2.966-.314-3.887-1.207-8.428l2.237-6.3s-.37,7.015,1.7,8.861,8.471,3.561,9.477,5.1a5.645,5.645,0,0,1,.9,2.078" fill="#47c4be"/>
        <path id="Trazado_770529" data-name="Trazado 770529" d="M83.663,89.4s4.576-1.019,5.315-.613a10.749,10.749,0,0,1,2.769,2.4c.225.515-1.644-.391-2.253-.554a5.43,5.43,0,0,0-1.943.426,6.465,6.465,0,0,1-3.484.35Z" fill="#ffb27d"/>
        <path id="Trazado_770530" data-name="Trazado 770530" d="M80.6,63.747s-6.145.378-8.272,3.345c-2.994,4.177-8.934,21.975-5.53,24.349,3.834,2.673,17.448.7,17.448.7S84.7,90.022,84.067,89,73.193,86.319,72.72,85.846s5.91-9.219,5.91-10.638S80.6,63.747,80.6,63.747" fill="#57dbd8"/>
        <path id="Trazado_770531" data-name="Trazado 770531" d="M89.2,90.059a8.836,8.836,0,0,0,1.273,1.384.937.937,0,0,0,.518.111l-.647-1.163Z" fill="#ffb27d"/>
        <path id="Trazado_770532" data-name="Trazado 770532" d="M88.977,88.785l2.788,1.354a.5.5,0,0,1-.462.178,6.685,6.685,0,0,1-1.209-.332Z" fill="#ffb27d"/>
        <path id="Trazado_770533" data-name="Trazado 770533" d="M90.472,93.338h22.052l6.634-16.5H97.14Z" fill="#91b3fa"/>
        <path id="Trazado_770534" data-name="Trazado 770534" d="M112.783,92.695H83.662v.643h28.862Z" fill="#76a4f4"/>
        <path id="Trazado_770535" data-name="Trazado 770535" d="M106.957,85.09a.764.764,0,0,0-.749-1.05,1.5,1.5,0,0,0-1.351,1.05.764.764,0,0,0,.749,1.05,1.5,1.5,0,0,0,1.351-1.05" fill="#fff"/>
        <path id="Trazado_770536" data-name="Trazado 770536" d="M184.811,145.6h.064a.694.694,0,0,0,.673-.729l-1.02-46.829-3.006-.371,2.563,47.2a.746.746,0,0,0,.726.726" fill="#78acea"/>
        <path id="Trazado_770537" data-name="Trazado 770537" d="M62.936,145.6h-.064a.694.694,0,0,1-.673-.729l1.02-46.829,3.006-.371-2.563,47.2a.747.747,0,0,1-.726.726" fill="#78acea"/>
        <path id="Trazado_770538" data-name="Trazado 770538" d="M188.431,98.906H59.82A1.907,1.907,0,0,1,57.913,97V95.163a1.907,1.907,0,0,1,1.907-1.908H188.431a1.908,1.908,0,0,1,1.908,1.908V97a1.907,1.907,0,0,1-1.908,1.907" fill="#78acea"/>
        <path id="Trazado_770539" data-name="Trazado 770539" d="M158.912,72.569c-.14-.737.281-.386.281-.386a15.247,15.247,0,0,1,.346-5.747c-2.053-1.676-6.214-2.275-6.214-2.275,1.168,3.954,5.587,8.408,5.587,8.408" fill="#fe7062"/>
        <path id="Trazado_770540" data-name="Trazado 770540" d="M34.971,75.553s1.523,3.486,1.334,4.377a21.676,21.676,0,0,1-1.9,3.594l-1.255-7.618Z" fill="#ffb27d"/>
        <path id="Trazado_770541" data-name="Trazado 770541" d="M35.451,59.616l-.48,15.937a1.877,1.877,0,0,1-1.818.353L30.846,62.344Z" fill="#ffb27d"/>
        <path id="Trazado_770542" data-name="Trazado 770542" d="M8.832,17.8s-.547,3.629-2.477,4.644c-2.319,1.22-3.972,2.85-3.477,6.834S.677,33.264.183,35.9s-.434,7.463,6.186,6.021,21.779-.412,23.426-2.557.493-6.6-2.312-9.98.262-6.427-.559-9.578a11.856,11.856,0,0,0-5.873-7.092S11.729,11.36,8.832,17.8" fill="#441d00"/>
        <path id="Trazado_770543" data-name="Trazado 770543" d="M12.558,128.84l2.234,9.408,3.346-.019.122-9.389Z" fill="#ffb27d"/>
        <path id="Trazado_770544" data-name="Trazado 770544" d="M40.7,129.241l6.356,9.007,2.477-3.181L45.71,128Z" fill="#ffb27d"/>
        <path id="Trazado_770545" data-name="Trazado 770545" d="M21.347,34.03c.022.01-.409,10.474-2.2,10.492-.376,0-3.148-7.326-3.5-7.423-1.919-.523-2.188-5.217-2.162-5.222.813-.162,1.047-1.278,1.03-6.075l.366.073L21.05,27.1s-.14,1.943-.145,3.774c0,1.537.089,3,.442,3.159" fill="#ffb27d"/>
        <path id="Trazado_770546" data-name="Trazado 770546" d="M21.05,27.1s-.141,1.943-.145,3.774c-3.455-.1-5.281-3.25-6.03-5Z" fill="#ef9e67"/>
        <path id="Trazado_770547" data-name="Trazado 770547" d="M13.6,26.091S9.7,24.413,8.791,22.1c-.65-1.651-.517-9.428,6.486-9.805,0,0,3.993-1.279,6.8,1.119,1.3,1.107,1.631,2.279.513,8.267l-.2,1.988Z" fill="#441d00"/>
        <path id="Trazado_770548" data-name="Trazado 770548" d="M22.131,28.074s-7.987,1.748-9-3.243-2.724-8.127,2.333-9.453,6.437.376,7.18,1.96,1.538,10.153-.514,10.736" fill="#ffb27d"/>
        <path id="Trazado_770549" data-name="Trazado 770549" d="M19.09,14.52s-1.014,6.3-4.206,7.843-4.836.937-4.836.937a27.644,27.644,0,0,0,.617-7.01s6.208-4.224,8.425-1.77" fill="#441d00"/>
        <path id="Trazado_770550" data-name="Trazado 770550" d="M18.642,15.1a5.6,5.6,0,0,1,3.007,2.014A7.811,7.811,0,0,1,23.308,20.8s.85-4.313-1.461-6.191c-2.452-1.99-3.2.495-3.2.495" fill="#441d00"/>
        <path id="Trazado_770551" data-name="Trazado 770551" d="M14.679,137.722a9.075,9.075,0,0,1-.426,3.857s-.548,2.5,1.91,2.542,3.06-.186,2.782-1.716-.808-4.176-.808-4.176Z" fill="#ffb27d"/>
        <path id="Trazado_770552" data-name="Trazado 770552" d="M14.253,141.579a12.93,12.93,0,0,0-.165,3.7,7.309,7.309,0,0,0,2.494.294,9.214,9.214,0,0,0,2.6-.294,13.657,13.657,0,0,0-.4-3.765s-1.742,2.614-4.524.064" fill="#1c468a"/>
        <path id="Trazado_770553" data-name="Trazado 770553" d="M55.456,142.655s-4.53-5.029-5.921-7.587l-3.369,1.726,7.53,7.072,1.762-.232Z" fill="#ffb27d"/>
        <path id="Trazado_770554" data-name="Trazado 770554" d="M58.334,145.6s-4.868,0-5.7-.093-1.507-1.3-2.411-3.106a3.042,3.042,0,0,0-2.051-1.372v4.558H46.882l-1.217-4.821c-.8-1.474-.119-2.7.446-3.862.79.245,2.648.7,5.824,4.106a4.514,4.514,0,0,0,3.521,1.642.246.246,0,0,0,.05.027c2.782,1.252,2.828,2.921,2.828,2.921" fill="#1c468a"/>
        <path id="Trazado_770555" data-name="Trazado 770555" d="M48.939,133.01s-1.641.283-2.988.386c-.3.023-.584.036-.832.036a14.717,14.717,0,0,1-2.6-.427l-.059-.014c-.344-.081-.607-.148-.705-.173l-.041-.011a69.922,69.922,0,0,1-12.774-23.716q-.161-.51-.339-1.03c-2.513-7.326-7.721-16.52-10.465-24.843-.437-1.325-.829-2.573-1.18-3.753q-.171-.567-.328-1.115a88.172,88.172,0,0,1-3.147-16.572l18.509,5.246s3.008,28.563,16.952,65.986" fill="#91b3fa"/>
        <path id="Trazado_770556" data-name="Trazado 770556" d="M45.951,133.4c-.3.023-.583.036-.832.036a14.615,14.615,0,0,1-2.6-.427l-.059-.014-.705-.173-.042-.011a69.912,69.912,0,0,1-12.773-23.715q-.161-.512-.34-1.031c-2.513-7.326-7.72-16.52-10.465-24.843-.436-1.325-.829-2.573-1.18-3.753-.113-.378-.223-.75-.327-1.115l2.917-2.216s8.763,14.188,11.475,27.54c2.249,11.067,11.929,25.415,14.933,29.722" fill="#76a4f4"/>
        <path id="Trazado_770557" data-name="Trazado 770557" d="M19.849,104.918c.049,6.492-.279,21.42-1.124,27.6a4.4,4.4,0,0,1-2.791.718,4.8,4.8,0,0,1-2.947-.743c-2.122-10.745-3.631-19.636-4.73-27.3-.9-6.287-1.7-11.678-2.318-16.318-.546-4.112,2.9-15.247,2.9-15.247L21.8,72.368c-.216,11.377-1.975,28.776-1.947,32.55" fill="#91b3fa"/>
        <path id="Trazado_770558" data-name="Trazado 770558" d="M15.934,133.237a5.065,5.065,0,0,1-2.947-.743c-2.122-10.745-3.631-19.636-4.73-27.3-.9-6.287-1.7-11.678-2.318-16.318-.546-4.112,2.9-15.247,2.9-15.247l4.391,2.808s-6.228,5.666-4.7,16.377,5.268,38.9,7.4,40.421" fill="#76a4f4"/>
        <path id="Trazado_770559" data-name="Trazado 770559" d="M36.335,64.662a15.269,15.269,0,0,1-2.623.563,16.053,16.053,0,0,0-3.733.75c-2.646,1.2-9.064-34.237-9.064-34.237s4.671.045,6.816,3.425,10.49,20.075,11.232,25.426c.333,2.4-.914,3.494-2.628,4.073" fill="#1c468a"/>
        <path id="Trazado_770560" data-name="Trazado 770560" d="M27.272,60.559c1.041,3.483,2.006,5.735,2.707,5.417a16.1,16.1,0,0,1,3.733-.751,15.215,15.215,0,0,0,2.623-.562c-.725-4.407-8.8-18-8.8-18Z" fill="#233862"/>
        <path id="Trazado_770561" data-name="Trazado 770561" d="M34.089,75.973,26.207,35.4a3.971,3.971,0,0,0-2.637-2.809l-2.655-.853L19.772,44.522,13.93,31.509l-2.436.374S5.88,65.478,4.65,79.539c1.23,2.131,24.758.324,29.439-3.566" fill="#1c468a"/>
        <path id="Trazado_770562" data-name="Trazado 770562" d="M27.121,63.265,13.568,61.891l2.2-19.637,13.553,1.374Z" fill="#fe7062"/>
        <path id="Trazado_770563" data-name="Trazado 770563" d="M15.766,42.254l-.869-.066L12.853,61.81l.715.081Z" fill="#d34942"/>
        <path id="Trazado_770564" data-name="Trazado 770564" d="M4.4,52.374a143.367,143.367,0,0,0,18.61,4.208s3,1.3,1.592,1.653c-.361.091-18.573,4.063-21.273,1.486Z" fill="#ffb27d"/>
        <path id="Trazado_770565" data-name="Trazado 770565" d="M13.907,31.51s-7.119.861-8.318,2.3C1.8,38.354-1.632,57.761,1.337,62.242c3.547,5.353,9.01-3.048,10.723-8,.888-2.566,2.335-18.07,1.847-22.736" fill="#1c468a"/>
        <path id="Trazado_770566" data-name="Trazado 770566" d="M22.111,56.449s1.118-.1,1.331-.461c.424-.715,1.1-.706,1.654-.8s1.188-.707,1.3-.584-.413.8-.7,1.05a2.426,2.426,0,0,0,1-.153c.4-.189,1.792-1.78,1.8-1.1.016,1.65-.111,1.913-1.524,3.079-1.161.958-5.1,1.314-5.1,1.314Z" fill="#ffb27d"/>
        <path id="Trazado_770567" data-name="Trazado 770567" d="M13.887,51.946l-.277,2.788a9.49,9.49,0,0,1-1.551-.489c-3.9-1.562-2.364-9.323-2.364-9.323a13.471,13.471,0,0,0,4.192,7.024" fill="#233862"/>
        <path id="Trazado_770568" data-name="Trazado 770568" d="M19.27,25.331s.369.71.909.714a7.35,7.35,0,0,0,2.018-.26,6.821,6.821,0,0,0,.362-.879,10.484,10.484,0,0,0-3.289.425" fill="#fff"/>
      </g>
    </g>
  </g>
</svg>
