<svg xmlns="http://www.w3.org/2000/svg" xmlns:xlink="http://www.w3.org/1999/xlink" width="80.346" height="62.118" viewBox="0 0 80.346 62.118">
  <defs>
    <filter id="Trazado_766277" x="0" y="0" width="80.346" height="62.118" filterUnits="userSpaceOnUse">
      <feOffset dx="3" dy="3" input="SourceAlpha"/>
      <feGaussianBlur stdDeviation="3" result="blur"/>
      <feFlood flood-opacity="0.161"/>
      <feComposite operator="in" in2="blur"/>
      <feComposite in="SourceGraphic"/>
    </filter>
  </defs>
  <g id="Grupo_1025977" data-name="Grupo 1025977" transform="translate(-365.042 -2858.001)">
    <rect id="Rectángulo_359691" data-name="Rectángulo 359691" width="38.331" height="28.184" transform="translate(382.214 2873.019)" fill="#fff"/>
    <g transform="matrix(1, 0, 0, 1, 365.04, 2858)" filter="url(#Trazado_766277)">
      <path id="Trazado_766277-2" data-name="Trazado 766277" d="M49.4,67.393H12.949A12.949,12.949,0,0,0,0,80.342V98.562a12.949,12.949,0,0,0,12.949,12.949H49.4A12.949,12.949,0,0,0,62.346,98.562V80.342A12.949,12.949,0,0,0,49.4,67.393ZM40.641,90.338,23.592,98.47a.684.684,0,0,1-.979-.618V81.081a.684.684,0,0,1,.994-.61L40.656,89.11A.684.684,0,0,1,40.641,90.338Z" transform="translate(6 -61.39)" fill="#f61c0d"/>
    </g>
  </g>
</svg>
