<svg xmlns="http://www.w3.org/2000/svg" width="166" height="166" viewBox="0 0 166 166">
  <g id="Grupo_1026193" data-name="Grupo 1026193" transform="translate(-304 -6007)">
    <circle id="Elipse_8441" data-name="Elipse 8441" cx="83" cy="83" r="83" transform="translate(304 6007)" fill="#fff" opacity="0.45"/>
    <g id="Grupo_1026188" data-name="Grupo 1026188">
      <circle id="Elipse_8442" data-name="Elipse 8442" cx="67" cy="67" r="67" transform="translate(320 6023)" fill="#fff"/>
      <g id="_001-evaluation" data-name="001-evaluation" transform="translate(346 6050)">
        <g id="Grupo_1026159" data-name="Grupo 1026159" transform="translate(1.23 1.287)">
          <g id="Grupo_1026140" data-name="Grupo 1026140" transform="translate(13.307)">
            <g id="Grupo_1026127" data-name="Grupo 1026127" transform="translate(0 5.477)">
              <g id="Grupo_1026125" data-name="Grupo 1026125">
                <path id="Trazado_766561" data-name="Trazado 766561" d="M99,54.713a2.882,2.882,0,0,0-2.876,2.876v52.918A2.882,2.882,0,0,0,99,113.383h44.29a2.882,2.882,0,0,0,2.876-2.876V57.589a2.882,2.882,0,0,0-2.876-2.876Z" transform="translate(-96.123 -54.713)" fill="#eceff1" fill-rule="evenodd"/>
              </g>
              <g id="Grupo_1026126" data-name="Grupo 1026126">
                <path id="Trazado_766562" data-name="Trazado 766562" d="M99,54.713a2.882,2.882,0,0,0-2.876,2.876v52.918A2.882,2.882,0,0,0,99,113.383h1.65a2.882,2.882,0,0,1-2.876-2.876V57.589a2.882,2.882,0,0,1,2.876-2.876Z" transform="translate(-96.123 -54.713)" fill="#d1d1d6" fill-rule="evenodd"/>
              </g>
            </g>
            <g id="Grupo_1026130" data-name="Grupo 1026130" transform="translate(13.948)">
              <g id="Grupo_1026128" data-name="Grupo 1026128">
                <path id="Trazado_766563" data-name="Trazado 766563" d="M202,25.249h-4.885a.812.812,0,0,1-.774-.54,4.891,4.891,0,0,0-9.178,0,.812.812,0,0,1-.774.54H181.5a.826.826,0,0,0-.825.825V31.9a.826.826,0,0,0,.825.825H202a.826.826,0,0,0,.825-.825V26.074A.826.826,0,0,0,202,25.249Z" transform="translate(-180.679 -21.51)" fill="#e3a76f" fill-rule="evenodd"/>
              </g>
              <g id="Grupo_1026129" data-name="Grupo 1026129" transform="translate(0 3.739)">
                <path id="Trazado_766564" data-name="Trazado 766564" d="M182.33,44.175H181.5a.826.826,0,0,0-.825.825v5.828a.826.826,0,0,0,.825.825H202a.826.826,0,0,0,.825-.825V50H183.154a.826.826,0,0,1-.825-.825v-5Z" transform="translate(-180.68 -44.175)" fill="#c48958" fill-rule="evenodd"/>
              </g>
            </g>
            <g id="Grupo_1026133" data-name="Grupo 1026133" transform="translate(13.978 23.24)">
              <g id="Grupo_1026131" data-name="Grupo 1026131">
                <path id="Trazado_766565" data-name="Trazado 766565" d="M181.681,162.393h3.488a.826.826,0,0,1,.825.825v6.2a.826.826,0,0,1-.825.825h-3.488a.826.826,0,0,1-.825-.825v-6.2A.826.826,0,0,1,181.681,162.393Z" transform="translate(-180.856 -162.393)" fill="#fe7062" fill-rule="evenodd"/>
              </g>
              <g id="Grupo_1026132" data-name="Grupo 1026132">
                <path id="Trazado_766566" data-name="Trazado 766566" d="M181.681,162.393h1.65a.826.826,0,0,0-.825.825v6.2a.826.826,0,0,0,.825.825h-1.65a.826.826,0,0,1-.825-.825v-6.2A.826.826,0,0,1,181.681,162.393Z" transform="translate(-180.856 -162.393)" fill="#fe7062" fill-rule="evenodd"/>
              </g>
            </g>
            <g id="Grupo_1026136" data-name="Grupo 1026136" transform="translate(22.453 19.126)">
              <g id="Grupo_1026134" data-name="Grupo 1026134">
                <path id="Trazado_766567" data-name="Trazado 766567" d="M236.543,137.451h-3.488a.826.826,0,0,0-.825.825v10.317a.826.826,0,0,0,.825.825h3.488a.826.826,0,0,0,.825-.825V138.276A.826.826,0,0,0,236.543,137.451Z" transform="translate(-232.231 -137.451)" fill="#ffe177" fill-rule="evenodd"/>
              </g>
              <g id="Grupo_1026135" data-name="Grupo 1026135" transform="translate(0)">
                <path id="Trazado_766568" data-name="Trazado 766568" d="M234.705,137.451h-1.65a.826.826,0,0,0-.825.825v10.317a.826.826,0,0,0,.825.825h1.65a.826.826,0,0,1-.825-.825V138.276A.826.826,0,0,1,234.705,137.451Z" transform="translate(-232.231 -137.451)" fill="#ffd064" fill-rule="evenodd"/>
              </g>
            </g>
            <g id="Grupo_1026139" data-name="Grupo 1026139" transform="translate(30.927 14.83)">
              <g id="Grupo_1026137" data-name="Grupo 1026137">
                <path id="Trazado_766569" data-name="Trazado 766569" d="M287.917,111.408H284.43a.826.826,0,0,0-.825.825v14.614a.826.826,0,0,0,.825.825h3.488a.826.826,0,0,0,.825-.825V112.233a.826.826,0,0,0-.825-.825Z" transform="translate(-283.605 -111.408)" fill="#6cf5c2" fill-rule="evenodd"/>
              </g>
              <g id="Grupo_1026138" data-name="Grupo 1026138">
                <path id="Trazado_766570" data-name="Trazado 766570" d="M286.079,111.408h-1.65a.826.826,0,0,0-.825.825v14.614a.826.826,0,0,0,.825.825h1.65a.826.826,0,0,1-.825-.825V112.233a.827.827,0,0,1,.825-.825Z" transform="translate(-283.605 -111.408)" fill="#00e499" fill-rule="evenodd"/>
              </g>
            </g>
          </g>
          <g id="Grupo_1026148" data-name="Grupo 1026148" transform="translate(47.412 51.818)">
            <g id="Grupo_1026141" data-name="Grupo 1026141" transform="translate(1.424 7.606)">
              <path id="Trazado_766571" data-name="Trazado 766571" d="M311.5,381.741v12.486a2.345,2.345,0,0,0,2.338,2.338h24.425a2.345,2.345,0,0,0,2.338-2.338V381.742Z" transform="translate(-311.499 -381.741)" fill="#ecba78" fill-rule="evenodd"/>
            </g>
            <g id="Grupo_1026142" data-name="Grupo 1026142" transform="translate(1.424 7.606)">
              <path id="Trazado_766572" data-name="Trazado 766572" d="M311.5,381.741v12.486a2.345,2.345,0,0,0,2.338,2.338h1.856a2.345,2.345,0,0,1-2.338-2.338V381.741Z" transform="translate(-311.499 -381.741)" fill="#e3a76f" fill-rule="evenodd"/>
            </g>
            <g id="Grupo_1026143" data-name="Grupo 1026143">
              <path id="Trazado_766573" data-name="Trazado 766573" d="M332.665,345.737a7.287,7.287,0,0,0,.728-.521,3.419,3.419,0,0,0,1.424-2.684v-5.7a1.2,1.2,0,0,0-1.2-1.2H304.066a1.2,1.2,0,0,0-1.2,1.2v5.7a3.419,3.419,0,0,0,1.424,2.684,7.263,7.263,0,0,0,.728.522C309.884,348.814,327.836,348.792,332.665,345.737Z" transform="translate(-302.868 -335.633)" fill="#e3a76f" fill-rule="evenodd"/>
            </g>
            <g id="Grupo_1026144" data-name="Grupo 1026144" transform="translate(7.633 0)">
              <path id="Trazado_766574" data-name="Trazado 766574" d="M349.137,335.633h16.684v3.9a1.507,1.507,0,0,1-1.5,1.5h-13.68a1.507,1.507,0,0,1-1.5-1.5Z" transform="translate(-349.137 -335.633)" fill="#c48958" fill-rule="evenodd"/>
            </g>
            <g id="Grupo_1026145" data-name="Grupo 1026145" transform="translate(0 0)">
              <path id="Trazado_766575" data-name="Trazado 766575" d="M306.148,335.633h-2.082a1.2,1.2,0,0,0-1.2,1.2v5.7a3.418,3.418,0,0,0,1.424,2.684,7.286,7.286,0,0,0,.728.522,7.38,7.38,0,0,0,1.128.568V335.633Z" transform="translate(-302.868 -335.633)" fill="#c48958" fill-rule="evenodd"/>
            </g>
            <g id="Grupo_1026146" data-name="Grupo 1026146" transform="translate(13.03 9.837)">
              <path id="Trazado_766576" data-name="Trazado 766576" d="M381.857,398.21a2.944,2.944,0,1,0,2.944-2.944A2.944,2.944,0,0,0,381.857,398.21Z" transform="translate(-381.857 -395.266)" fill="#837683" fill-rule="evenodd"/>
            </g>
            <g id="Grupo_1026147" data-name="Grupo 1026147" transform="translate(13.03 9.837)">
              <path id="Trazado_766577" data-name="Trazado 766577" d="M381.857,398.21a2.946,2.946,0,0,0,3.408,2.908,2.945,2.945,0,0,1,0-5.816,2.946,2.946,0,0,0-3.408,2.908Z" transform="translate(-381.857 -395.266)" fill="#685e68" fill-rule="evenodd"/>
            </g>
          </g>
          <g id="Grupo_1026157" data-name="Grupo 1026157" transform="translate(0 37.678)">
            <g id="Grupo_1026149" data-name="Grupo 1026149" transform="translate(7.914 23.652)">
              <path id="Trazado_766578" data-name="Trazado 766578" d="M69.261,393.3a12.733,12.733,0,0,0,2.185,2.334l-5.757,5.817-2.259-2.259Z" transform="translate(-63.429 -393.298)" fill="#a79ba7" fill-rule="evenodd"/>
            </g>
            <g id="Grupo_1026150" data-name="Grupo 1026150" transform="translate(7.914 23.613)">
              <path id="Trazado_766579" data-name="Trazado 766579" d="M69.221,393.063a1.469,1.469,0,0,0,.649.843l-5.718,5.854-.723-.768Z" transform="translate(-63.429 -393.063)" fill="#837683" fill-rule="evenodd"/>
            </g>
            <g id="Grupo_1026151" data-name="Grupo 1026151" transform="translate(0 27.982)">
              <path id="Trazado_766580" data-name="Trazado 766580" d="M18.341,430.914l-2.55-2.55a1.155,1.155,0,0,1,0-1.628l6.852-6.853a1.155,1.155,0,0,1,1.628,0l2.55,2.55a1.155,1.155,0,0,1,0,1.628l-6.852,6.853A1.155,1.155,0,0,1,18.341,430.914Z" transform="translate(-15.455 -419.548)" fill="#f1ba84" fill-rule="evenodd"/>
            </g>
            <g id="Grupo_1026152" data-name="Grupo 1026152" transform="translate(0 27.982)">
              <path id="Trazado_766581" data-name="Trazado 766581" d="M23.671,419.868l-6.852,6.853a1.155,1.155,0,0,0,0,1.628l2.55,2.55a1.142,1.142,0,0,0,.315.223,1.156,1.156,0,0,1-1.344-.208l-2.55-2.55a1.155,1.155,0,0,1,0-1.628l6.852-6.853a1.156,1.156,0,0,1,1.313-.223,1.142,1.142,0,0,0-.284.208Z" transform="translate(-15.454 -419.548)" fill="#e3a76f" fill-rule="evenodd"/>
            </g>
            <g id="Grupo_1026153" data-name="Grupo 1026153" transform="translate(5.975 0)">
              <ellipse id="Elipse_8587" data-name="Elipse 8587" cx="12.665" cy="12.665" rx="12.665" ry="12.665" transform="translate(0 11.981) rotate(-28.231)" fill="#8ac9fe"/>
            </g>
            <g id="Grupo_1026154" data-name="Grupo 1026154" transform="translate(10.474 4.469)">
              <path id="Trazado_766582" data-name="Trazado 766582" d="M91.423,277.012a12.665,12.665,0,1,0,.383,25.327q.309,0,.614-.024a12.665,12.665,0,0,1-.382-25.3Q91.732,277.008,91.423,277.012Z" transform="translate(-78.949 -277.01)" fill="#60b7ff" fill-rule="evenodd"/>
            </g>
            <g id="Grupo_1026155" data-name="Grupo 1026155" transform="translate(14.045 8.04)">
              <path id="Trazado_766583" data-name="Trazado 766583" d="M109.551,298.657a9.094,9.094,0,1,0,9.23,8.956A9.094,9.094,0,0,0,109.551,298.657Z" transform="translate(-100.595 -298.656)" fill="#eceff1" fill-rule="evenodd"/>
            </g>
            <g id="Grupo_1026156" data-name="Grupo 1026156" transform="translate(22.387 8.04)">
              <path id="Trazado_766584" data-name="Trazado 766584" d="M151.78,298.657c-.207,0-.411.014-.614.03a9.094,9.094,0,0,1,.274,18.144c.2.011.408.015.615.012a9.094,9.094,0,0,0-.274-18.186Z" transform="translate(-151.166 -298.656)" fill="#d1d1d6" fill-rule="evenodd"/>
            </g>
          </g>
          <g id="Grupo_1026158" data-name="Grupo 1026158" transform="translate(17.518 50.582)">
            <path id="Trazado_766585" data-name="Trazado 766585" d="M122.09,331.174a1.506,1.506,0,0,1,2.123,0l1.521,1.521,4.116-4.116a1.5,1.5,0,1,1,2.123,2.123l-5.148,5.148a1.64,1.64,0,0,1-2.4-.218L122.09,333.3A1.506,1.506,0,0,1,122.09,331.174Z" transform="translate(-121.652 -328.141)" fill="#8ac9fe" fill-rule="evenodd"/>
          </g>
        </g>
        <g id="Grupo_1026160" data-name="Grupo 1026160" transform="translate(0 0)">
          <path id="Trazado_766586" data-name="Trazado 766586" d="M85.755,86.938V78.716A31.552,31.552,0,0,1,76.7,80.425a4.266,4.266,0,0,1-8.379,0,31.4,31.4,0,0,1-9.052-1.709v8.221a1.022,1.022,0,0,0,1.02,1.02H84.735a1.021,1.021,0,0,0,1.02-1.02ZM56.633,77.858V77a4.513,4.513,0,0,1-1.425-3.269v-5.7a2.521,2.521,0,0,1,2.518-2.519h6.749v-.936a4.056,4.056,0,0,1,4.052-4.052h2.63V23.383A1.559,1.559,0,0,0,69.6,21.826H59.847v4.42a1.32,1.32,0,0,1-1.32,1.319H36.383a1.32,1.32,0,0,1-1.32-1.319v-4.42H25.31a1.559,1.559,0,0,0-1.557,1.557V58.528a13.885,13.885,0,0,1,19.5,19.329ZM43.279,69.685A11.255,11.255,0,1,1,32.025,58.43,11.267,11.267,0,0,1,43.279,69.685ZM22.538,79.822q-.336-.314-.651-.651l-1.905,1.905.641.66Zm-2.93,4.659-2.247-2.315L10.71,88.62l2.247,2.315ZM37.7,24.927V20.088h5a1.319,1.319,0,0,0,1.283-1.009,3.57,3.57,0,0,1,6.94,0,1.319,1.319,0,0,0,1.283,1.009h5v4.839H37.7ZM76.5,63.163a1.414,1.414,0,0,1,1.413,1.412v.936h-10.8v-.936a1.414,1.414,0,0,1,1.412-1.412ZM65.485,68.151H79.542V70.73a.188.188,0,0,1-.183.183H65.668a.188.188,0,0,1-.183-.183V68.151ZM72.514,78a1.627,1.627,0,1,1-1.627,1.627A1.628,1.628,0,0,1,72.514,78Zm14.666-9.845v5.583a2.05,2.05,0,0,1-.943,1.666,6.109,6.109,0,0,1-.6.427c-1.536.971-4.959,1.695-9.27,1.974a4.264,4.264,0,0,0-7.715,0c-4.305-.276-7.728-1-9.269-1.975a6.035,6.035,0,0,1-.6-.427,2.05,2.05,0,0,1-.942-1.666V68.151h5V70.73a2.826,2.826,0,0,0,2.823,2.822h13.69a2.826,2.826,0,0,0,2.823-2.822V68.151Zm2.64,5.583A4.512,4.512,0,0,1,88.394,77v9.935A3.663,3.663,0,0,1,84.735,90.6H60.292a3.663,3.663,0,0,1-3.659-3.659V80.5h-15.9a13.85,13.85,0,0,1-16.091.951l-2.408,2.408a2.488,2.488,0,0,1,.082.666,2.447,2.447,0,0,1-.746,1.731l-6.905,6.7a2.466,2.466,0,0,1-3.482-.052h0L8.693,90.332a2.465,2.465,0,0,1,.052-3.482l6.905-6.7a2.434,2.434,0,0,1,1.752-.694,2.571,2.571,0,0,1,.425.045l2.434-2.434A13.849,13.849,0,0,1,21.114,61.1V23.383a4.2,4.2,0,0,1,4.2-4.2h9.753v-.419a1.32,1.32,0,0,1,1.32-1.32h5.373a6.213,6.213,0,0,1,11.4,0h5.373a1.32,1.32,0,0,1,1.32,1.32v.419H69.6a4.2,4.2,0,0,1,4.2,4.2V60.524h2.7a4.056,4.056,0,0,1,4.052,4.052v.936H87.3a2.521,2.521,0,0,1,2.519,2.519v5.7ZM36.085,67.111a.179.179,0,0,1-.052.129l-5.148,5.148c-.15.151-.471-.155-.534-.218l-2.335-2.336a.175.175,0,0,1-.051-.128.181.181,0,0,1,.308-.128L29.795,71.1a1.319,1.319,0,0,0,1.866,0l4.116-4.116a.18.18,0,0,1,.308.128Zm2.639,0a2.8,2.8,0,0,1-.824,2l-5.148,5.148a2.719,2.719,0,0,1-1.944.822,3.312,3.312,0,0,1-2.323-1.04L26.15,71.7a2.821,2.821,0,0,1,3.989-3.989l.588.588,3.183-3.183a2.819,2.819,0,0,1,4.814,1.995Zm.872,2.573a7.571,7.571,0,1,1-7.571-7.571A7.58,7.58,0,0,1,39.6,69.685Zm2.64,0A10.211,10.211,0,1,1,32.025,59.473,10.222,10.222,0,0,1,42.236,69.685Zm11.114-1.6a1.32,1.32,0,1,1,0,2.639H47.945a1.32,1.32,0,1,1,0-2.639Zm1.116-2.155h-7.18a1.32,1.32,0,1,1,0-2.639h7.18a1.32,1.32,0,1,1,0,2.639Zm12.017-6.113a1.32,1.32,0,0,1-1.32,1.319H45.1a1.32,1.32,0,1,1,0-2.639H65.163A1.32,1.32,0,0,1,66.483,59.818Zm0-4.795a1.32,1.32,0,0,1-1.32,1.32H38.536a1.32,1.32,0,1,1,0-2.639H65.163A1.32,1.32,0,0,1,66.483,55.024Zm0-4.794a1.32,1.32,0,0,1-1.32,1.319H29.747a1.32,1.32,0,1,1,0-2.639H65.163A1.32,1.32,0,0,1,66.483,50.23ZM37.731,44.8V39.589h2.5V44.8Zm-2.64,1.319V38.27a1.32,1.32,0,0,1,1.32-1.32h5.137a1.32,1.32,0,0,1,1.32,1.32v7.852a1.32,1.32,0,0,1-1.32,1.32H36.412a1.32,1.32,0,0,1-1.32-1.32ZM46.206,44.8V35.475h2.5V44.8Zm-2.639,1.319V34.156a1.32,1.32,0,0,1,1.32-1.32h5.137a1.32,1.32,0,0,1,1.32,1.32V46.122a1.32,1.32,0,0,1-1.32,1.32H44.887a1.32,1.32,0,0,1-1.32-1.32ZM54.681,44.8V31.18h2.5V44.8Zm-2.639,1.319V29.86a1.32,1.32,0,0,1,1.32-1.32H58.5a1.32,1.32,0,0,1,1.32,1.32V46.122a1.32,1.32,0,0,1-1.32,1.32H53.361A1.32,1.32,0,0,1,52.042,46.122ZM48.749,19.038a1.293,1.293,0,1,0-1.293,1.293A1.3,1.3,0,0,0,48.749,19.038Z" transform="translate(-7.998 -13.71)" fill="#242222" fill-rule="evenodd"/>
        </g>
      </g>
    </g>
  </g>
</svg>
