<svg xmlns="http://www.w3.org/2000/svg" width="166" height="166" viewBox="0 0 166 166">
  <g id="Grupo_1026192" data-name="Grupo 1026192" transform="translate(-1131 -6007)">
    <circle id="Elipse_8445" data-name="Elipse 8445" cx="83" cy="83" r="83" transform="translate(1131 6007)" fill="#fff" opacity="0.45"/>
    <g id="Grupo_1026190" data-name="Grupo 1026190">
      <circle id="Elipse_8446" data-name="Elipse 8446" cx="67" cy="67" r="67" transform="translate(1147 6023)" fill="#fff"/>
      <g id="_012-clarification" data-name="012-clarification" transform="translate(1180 6058)">
        <g id="Grupo_1026123" data-name="Grupo 1026123" transform="translate(1.218 1.112)">
          <g id="Grupo_1026104" data-name="Grupo 1026104" transform="translate(0.758 31.531)">
            <g id="Grupo_1026100" data-name="Grupo 1026100" transform="translate(0 16.33)">
              <path id="Trazado_766547" data-name="Trazado 766547" d="M24.363,393.4H49.233a2.13,2.13,0,0,0,2.039-2.744,15.121,15.121,0,0,0-28.948,0,2.13,2.13,0,0,0,2.039,2.744Z" transform="translate(-22.227 -379.912)" fill="#8ac9fe" fill-rule="evenodd"/>
            </g>
            <g id="Grupo_1026101" data-name="Grupo 1026101" transform="translate(12.441 16.33)">
              <path id="Trazado_766548" data-name="Trazado 766548" d="M126.339,393.4a2.13,2.13,0,0,0,2.039-2.744,15.133,15.133,0,0,0-16.6-10.6,15.133,15.133,0,0,1,12.345,10.6,2.13,2.13,0,0,1-2.039,2.744Z" transform="translate(-111.774 -379.913)" fill="#60b7ff" fill-rule="evenodd"/>
            </g>
            <g id="Grupo_1026102" data-name="Grupo 1026102" transform="translate(6.996)">
              <ellipse id="Elipse_8584" data-name="Elipse 8584" cx="7.575" cy="7.575" rx="7.575" ry="7.575" transform="translate(0)" fill="#f6dccd"/>
            </g>
            <g id="Grupo_1026103" data-name="Grupo 1026103" transform="translate(13.515 0)">
              <path id="Trazado_766549" data-name="Trazado 766549" d="M120.562,262.377a7.575,7.575,0,1,1-1.055,15.076,7.575,7.575,0,0,0,0-15A7.619,7.619,0,0,1,120.562,262.377Z" transform="translate(-119.507 -262.377)" fill="#f1cbbc" fill-rule="evenodd"/>
            </g>
          </g>
          <g id="Grupo_1026109" data-name="Grupo 1026109" transform="translate(35.788 31.531)">
            <g id="Grupo_1026105" data-name="Grupo 1026105" transform="translate(0 16.26)">
              <path id="Trazado_766550" data-name="Trazado 766550" d="M276.522,393.042h25.127a2.152,2.152,0,0,0,2.06-2.773,15.277,15.277,0,0,0-29.247,0,2.152,2.152,0,0,0,2.06,2.773Z" transform="translate(-274.365 -379.413)" fill="#8ac9fe" fill-rule="evenodd"/>
            </g>
            <g id="Grupo_1026106" data-name="Grupo 1026106" transform="translate(12.569 16.26)">
              <path id="Trazado_766551" data-name="Trazado 766551" d="M379.549,393.042a2.152,2.152,0,0,0,2.06-2.773,15.289,15.289,0,0,0-16.775-10.705,15.289,15.289,0,0,1,12.472,10.705,2.152,2.152,0,0,1-2.06,2.773Z" transform="translate(-364.834 -379.413)" fill="#60b7ff" fill-rule="evenodd"/>
            </g>
            <g id="Grupo_1026107" data-name="Grupo 1026107" transform="translate(7.146)">
              <ellipse id="Elipse_8585" data-name="Elipse 8585" cx="7.575" cy="7.575" rx="7.575" ry="7.575" fill="#f6dccd"/>
            </g>
            <g id="Grupo_1026108" data-name="Grupo 1026108" transform="translate(13.665)">
              <path id="Trazado_766552" data-name="Trazado 766552" d="M373.779,262.377a7.575,7.575,0,1,1-1.055,15.076,7.575,7.575,0,0,0,0-15A7.619,7.619,0,0,1,373.779,262.377Z" transform="translate(-372.724 -262.377)" fill="#f1cbbc" fill-rule="evenodd"/>
            </g>
          </g>
          <g id="Grupo_1026113" data-name="Grupo 1026113" transform="translate(0 0.869)">
            <g id="Grupo_1026112" data-name="Grupo 1026112">
              <g id="Grupo_1026110" data-name="Grupo 1026110">
                <path id="Trazado_766553" data-name="Trazado 766553" d="M19.69,41.681H39.755a2.929,2.929,0,0,1,2.92,2.92v14.25a2.929,2.929,0,0,1-2.92,2.92H26.909v4.276a.417.417,0,0,1-.713.293l-4.512-4.569H19.69a2.929,2.929,0,0,1-2.92-2.92V44.6a2.929,2.929,0,0,1,2.92-2.92Z" transform="translate(-16.77 -41.681)" fill="#fe7062" fill-rule="evenodd"/>
              </g>
              <g id="Grupo_1026111" data-name="Grupo 1026111" transform="translate(8.75 0)">
                <path id="Trazado_766554" data-name="Trazado 766554" d="M92.595,41.681h1.389A2.929,2.929,0,0,1,96.9,44.6v14.25a2.929,2.929,0,0,1-2.92,2.92H92.595a2.929,2.929,0,0,0,2.92-2.92V44.6A2.929,2.929,0,0,0,92.595,41.681ZM81.138,61.771v4.276a.417.417,0,0,1-.713.293l-.676-.685V61.771Z" transform="translate(-79.749 -41.681)" fill="#fe7062" fill-rule="evenodd"/>
              </g>
            </g>
          </g>
          <g id="Grupo_1026117" data-name="Grupo 1026117" transform="translate(31.644)">
            <g id="Grupo_1026116" data-name="Grupo 1026116">
              <g id="Grupo_1026114" data-name="Grupo 1026114">
                <path id="Trazado_766555" data-name="Trazado 766555" d="M276.456,35.423H247.445a2.918,2.918,0,0,0-2.909,2.909v14.2a2.918,2.918,0,0,0,2.909,2.909h21.819v4.257a.417.417,0,0,0,.713.293l4.493-4.549h1.986a2.918,2.918,0,0,0,2.909-2.909v-14.2A2.918,2.918,0,0,0,276.456,35.423Z" transform="translate(-244.536 -35.423)" fill="#6cf5c2" fill-rule="evenodd"/>
              </g>
              <g id="Grupo_1026115" data-name="Grupo 1026115" transform="translate(24.728 0)">
                <path id="Trazado_766556" data-name="Trazado 766556" d="M429.713,35.423h-1.389a2.918,2.918,0,0,1,2.909,2.909v14.2a2.918,2.918,0,0,1-2.909,2.909h1.389a2.918,2.918,0,0,0,2.909-2.909v-14.2A2.918,2.918,0,0,0,429.713,35.423ZM422.521,59.3v.392a.417.417,0,0,0,.713.293l4.493-4.549h-1.389Z" transform="translate(-422.521 -35.423)" fill="#00e499" fill-rule="evenodd"/>
              </g>
            </g>
          </g>
          <g id="Grupo_1026122" data-name="Grupo 1026122" transform="translate(20.409 10.571)">
            <g id="Grupo_1026118" data-name="Grupo 1026118">
              <path id="Trazado_766557" data-name="Trazado 766557" d="M178.67,113.585a10.675,10.675,0,0,1,3.126,1.3l2.031-.9,2.394,2.394-.9,2.031a10.677,10.677,0,0,1,1.3,3.127l2.072.8v3.386l-2.073.8a10.675,10.675,0,0,1-1.3,3.126l.9,2.031-2.394,2.394-2.031-.9a10.676,10.676,0,0,1-3.127,1.3l-.8,2.073h-3.386l-.8-2.073a10.674,10.674,0,0,1-3.126-1.3l-2.031.9-2.394-2.394.9-2.031a10.677,10.677,0,0,1-1.3-3.127l-2.073-.8v-3.386l2.073-.8a10.674,10.674,0,0,1,1.3-3.126l-.9-2.031,2.394-2.394,2.031.9a10.675,10.675,0,0,1,3.126-1.3l.8-2.073h3.386Z" transform="translate(-163.67 -111.512)" fill="#ffe177" fill-rule="evenodd"/>
            </g>
            <g id="Grupo_1026119" data-name="Grupo 1026119" transform="translate(4.547 0)">
              <path id="Trazado_766558" data-name="Trazado 766558" d="M198.742,133.165l-2.031.9-.314-.314,1.9-.846Q198.518,133.041,198.742,133.165Zm8.108-19.577a10.676,10.676,0,0,1,3.087,1.272l.039.024-.58.258a14.1,14.1,0,0,0-3.568-1.554l-.8-2.073h1.022ZM196.4,114.3l.314-.314,2.031.9q-.224.123-.442.258Zm14.9,0,.708-.314,2.394,2.394-.9,2.031a10.678,10.678,0,0,1,1.3,3.127l2.072.8v3.386l-2.073.8a10.674,10.674,0,0,1-1.3,3.126l.9,2.031-2.394,2.394-.708-.314,2.08-2.08-.9-2.031a10.671,10.671,0,0,0,1.3-3.126l2.073-.8v-3.386l-2.073-.8a10.676,10.676,0,0,0-1.3-3.127l.9-2.031Zm-1.362,18.893a10.679,10.679,0,0,1-3.087,1.272l-.8,2.073H205.03l.8-2.073a14.1,14.1,0,0,0,3.569-1.554l.58.258Z" transform="translate(-196.396 -111.515)" fill="#ffd064" fill-rule="evenodd"/>
            </g>
            <g id="Grupo_1026120" data-name="Grupo 1026120" transform="translate(3.524 3.532)">
              <circle id="Elipse_8586" data-name="Elipse 8586" cx="6.35" cy="6.35" r="6.35" transform="translate(0 8.979) rotate(-45)" fill="#eceff1"/>
            </g>
            <g id="Grupo_1026121" data-name="Grupo 1026121" transform="translate(6.159 6.16)">
              <path id="Trazado_766559" data-name="Trazado 766559" d="M214.354,155.848c.15,0,.3.006.446.016a6.35,6.35,0,0,0,0,12.668c-.148.01-.3.016-.446.016a6.35,6.35,0,1,1,0-12.7Z" transform="translate(-208.004 -155.848)" fill="#d1d1d6" fill-rule="evenodd"/>
            </g>
          </g>
        </g>
        <g id="Grupo_1026124" data-name="Grupo 1026124" transform="translate(0 0)">
          <path id="Trazado_766560" data-name="Trazado 766560" d="M42.245,56.359a4.744,4.744,0,1,1,4.744-4.744A4.75,4.75,0,0,1,42.245,56.359Zm0-11.711a6.967,6.967,0,1,0,6.968,6.966A6.974,6.974,0,0,0,42.245,44.648Zm-18.6-.013a1.111,1.111,0,1,1-1.112-1.111A1.112,1.112,0,0,1,23.644,44.635Zm3.293-7.976a4.46,4.46,0,0,1-1.921,3.3c-.823.742-1.329,1.235-1.374,1.988a1.111,1.111,0,0,1-1.108,1.046l-.066,0a1.111,1.111,0,0,1-1.044-1.175,5.083,5.083,0,0,1,2.1-3.508c.735-.662,1.186-1.1,1.186-1.645a2.435,2.435,0,1,0-4.87,0,1.111,1.111,0,0,1-2.223,0,4.658,4.658,0,0,1,9.316,0ZM72.2,34.088A1.112,1.112,0,0,1,71.09,35.2H45.68a1.112,1.112,0,0,1,0-2.223H71.09A1.112,1.112,0,0,1,72.2,34.088Zm2.487,11.551v-14.2a1.8,1.8,0,0,0-1.8-1.8H43.88a1.8,1.8,0,0,0-1.8,1.8v6.551h1.856a1.109,1.109,0,0,1,.656.216,1.111,1.111,0,0,1,1.086-.88H71.09a1.111,1.111,0,1,1,0,2.223H45.68a1.1,1.1,0,0,1-.409-.079l.3.775a11.724,11.724,0,0,1,2.36.979l1.514-.672a1.112,1.112,0,0,1,1.236.23l.9.9H71.09a1.112,1.112,0,1,1,0,2.223H53.4a1.105,1.105,0,0,1-.092.511l-.672,1.512a11.616,11.616,0,0,1,.693,1.508H65.7a1.111,1.111,0,0,1,1.111,1.111v2.565l3.3-3.345a1.109,1.109,0,0,1,.79-.33H72.89a1.8,1.8,0,0,0,1.8-1.8Zm-21.046,6.9V50.685l-1.36-.524a1.11,1.11,0,0,1-.682-.78,9.557,9.557,0,0,0-1.161-2.8,1.114,1.114,0,0,1-.069-1.034l.592-1.333L49.648,42.9l-1.334.592a1.11,1.11,0,0,1-1.034-.069,9.556,9.556,0,0,0-2.8-1.161,1.112,1.112,0,0,1-.78-.682l-.524-1.361H41.316l-.524,1.361a1.111,1.111,0,0,1-.78.682,9.55,9.55,0,0,0-2.8,1.161,1.11,1.11,0,0,1-1.034.069L34.843,42.9l-1.315,1.315.592,1.334a1.11,1.11,0,0,1-.069,1.034,9.54,9.54,0,0,0-1.161,2.8,1.111,1.111,0,0,1-.682.78l-1.361.524v1.859l1.361.524a1.112,1.112,0,0,1,.682.78,9.554,9.554,0,0,0,1.161,2.8,1.112,1.112,0,0,1,.069,1.034l-.592,1.333,1.315,1.314,1.334-.592a1.11,1.11,0,0,1,1.034.069,9.572,9.572,0,0,0,2.8,1.161,1.109,1.109,0,0,1,.78.681l.524,1.361h1.859l.524-1.36a1.112,1.112,0,0,1,.78-.682,9.563,9.563,0,0,0,2.8-1.161,1.109,1.109,0,0,1,1.033-.069l1.334.592,1.316-1.314-.593-1.334a1.112,1.112,0,0,1,.069-1.034,9.574,9.574,0,0,0,1.161-2.8,1.109,1.109,0,0,1,.682-.78ZM19.465,48.381H30.643l.236-.091a11.82,11.82,0,0,1,.979-2.361l-.672-1.512a1.11,1.11,0,0,1,.23-1.237l2.393-2.395a1.125,1.125,0,0,1,.309-.215V32.323a1.811,1.811,0,0,0-1.809-1.809H12.247a1.811,1.811,0,0,0-1.809,1.809V46.573a1.811,1.811,0,0,0,1.809,1.809H14.24a1.111,1.111,0,0,1,.791.331l3.323,3.365V49.493a1.111,1.111,0,0,1,1.111-1.112ZM72.89,27.422H43.88a4.025,4.025,0,0,0-4.02,4.021v6.8a1.106,1.106,0,0,0-.345.466l-.594,1.543a11.724,11.724,0,0,0-2.36.979l-.218-.1V32.323a4.036,4.036,0,0,0-4.032-4.032H12.247a4.036,4.036,0,0,0-4.032,4.032V46.573A4.036,4.036,0,0,0,12.247,50.6h1.529l4.9,4.961a1.111,1.111,0,0,0,1.9-.781V50.6h8.047v2.7a1.11,1.11,0,0,0,.713,1.037l1.543.594a11.776,11.776,0,0,0,.979,2.361l-.672,1.512a1.109,1.109,0,0,0,.23,1.237l2.394,2.394a1.111,1.111,0,0,0,1.237.23L36.561,62a11.746,11.746,0,0,0,2.36.978l.594,1.543a1.112,1.112,0,0,0,1.038.713h3.386a1.111,1.111,0,0,0,1.036-.713l.594-1.543A11.811,11.811,0,0,0,47.93,62l1.513.672a1.11,1.11,0,0,0,1.236-.23l2.394-2.394a1.112,1.112,0,0,0,.23-1.237L52.631,57.3a11.714,11.714,0,0,0,.978-2.36l1.544-.594a1.111,1.111,0,0,0,.712-1.037V49.922a1.08,1.08,0,0,0-.035-.262h8.756v4.16a1.112,1.112,0,0,0,1.9.781l4.88-4.941H72.89a4.025,4.025,0,0,0,4.021-4.021v-14.2A4.026,4.026,0,0,0,72.89,27.422ZM45.582,88.712A14.485,14.485,0,0,1,59.834,76.984h0A14.487,14.487,0,0,1,74.088,88.712Zm7.461-20.743a6.792,6.792,0,1,1,6.794,6.792h0a6.8,6.8,0,0,1-6.791-6.792Zm18.02,11.114a16.718,16.718,0,0,1,5.421,10.623,1.112,1.112,0,0,1-1.106,1.229H44.292a1.111,1.111,0,0,1-1.105-1.229A16.758,16.758,0,0,1,54.895,75.5a9.015,9.015,0,1,1,9.881,0,16.736,16.736,0,0,1,6.287,3.579ZM10.4,88.712A14.485,14.485,0,0,1,24.654,76.984h0A14.486,14.486,0,0,1,38.908,88.712Zm7.461-20.743a6.792,6.792,0,1,1,6.794,6.792h0a6.8,6.8,0,0,1-6.791-6.792ZM35.882,79.083A16.7,16.7,0,0,1,41.3,89.706a1.11,1.11,0,0,1-1.1,1.229H9.112a1.111,1.111,0,0,1-1.105-1.229A16.758,16.758,0,0,1,19.715,75.5a9.015,9.015,0,1,1,9.881,0A16.735,16.735,0,0,1,35.882,79.083Z" transform="translate(-8.001 -27.422)" fill="#242222" fill-rule="evenodd"/>
        </g>
      </g>
    </g>
  </g>
</svg>
