<svg xmlns="http://www.w3.org/2000/svg" xmlns:xlink="http://www.w3.org/1999/xlink" width="148.162" height="57.488" viewBox="0 0 148.162 57.488">
  <defs>
    <clipPath id="clip-path">
      <rect id="Rectángulo_359331" data-name="Rectángulo 359331" width="46.343" height="46.531" transform="translate(0 0)" fill="none"/>
    </clipPath>
    <clipPath id="clip-path-2">
      <rect id="Rectángulo_355931" data-name="Rectángulo 355931" width="42.466" height="47.931" transform="translate(0 0)" fill="none"/>
    </clipPath>
    <clipPath id="clip-path-4">
      <rect id="Rectángulo_355930" data-name="Rectángulo 355930" width="59.829" height="46.693" transform="translate(0 0)" fill="none"/>
    </clipPath>
  </defs>
  <g id="Grupo_1024867" data-name="Grupo 1024867" transform="translate(-1080 -202)">
    <g id="Grupo_1024791" data-name="Grupo 1024791" transform="translate(107 -121.751)">
      <g id="Grupo_1024765" data-name="Grupo 1024765" transform="translate(973 323.751)">
        <g id="Grupo_1024764" data-name="Grupo 1024764" clip-path="url(#clip-path)">
          <path id="Trazado_764805" data-name="Trazado 764805" d="M23.1.628A22.633,22.633,0,1,1,.47,23.261,22.633,22.633,0,0,1,23.1.628" fill="#eff9fc" fill-rule="evenodd"/>
          <path id="Trazado_764806" data-name="Trazado 764806" d="M23.267.3A22.965,22.965,0,0,1,45.9,19.4a3.782,3.782,0,0,0-.761-.508A22.321,22.321,0,0,0,15.011,2.539V1.833A22.919,22.919,0,0,1,23.267.3M44.083,32.957a22.956,22.956,0,0,1-20.2,13.262,3.773,3.773,0,0,0-.036-.657A22.3,22.3,0,0,0,43.4,32.863a3.757,3.757,0,0,0,.683.094M13.452,44.025a22.979,22.979,0,0,1-4.674-2.954,3.87,3.87,0,0,0,.458-.474,22.232,22.232,0,0,0,4.573,2.87,3.776,3.776,0,0,0-.357.558M.8,28.026A22.97,22.97,0,0,1,7.738,6.351c.068.243.114.49.184.727A22.314,22.314,0,0,0,1.5,28.141a3.809,3.809,0,0,0-.7-.115" fill="#61a0e0" fill-rule="evenodd"/>
          <path id="Trazado_764807" data-name="Trazado 764807" d="M23.267.3A22.965,22.965,0,0,1,45.9,19.4a3.782,3.782,0,0,0-.761-.508A22.321,22.321,0,0,0,15.011,2.539V1.833A22.919,22.919,0,0,1,23.267.3ZM44.083,32.957a22.956,22.956,0,0,1-20.2,13.262,3.773,3.773,0,0,0-.036-.657A22.3,22.3,0,0,0,43.4,32.863,3.757,3.757,0,0,0,44.083,32.957ZM13.452,44.025a22.979,22.979,0,0,1-4.674-2.954,3.87,3.87,0,0,0,.458-.474,22.232,22.232,0,0,0,4.573,2.87A3.776,3.776,0,0,0,13.452,44.025ZM.8,28.026A22.97,22.97,0,0,1,7.738,6.351c.068.243.114.49.184.727A22.314,22.314,0,0,0,1.5,28.141,3.809,3.809,0,0,0,.8,28.026Z" fill="none" stroke="#61a0e0" stroke-miterlimit="10" stroke-width="0.608"/>
        </g>
      </g>
      <g id="Grupo_1019174" data-name="Grupo 1019174" transform="translate(974.938 333.309)">
        <path id="Trazado_748591" data-name="Trazado 748591" d="M11.182,40.516h0Z" fill="#013177"/>
        <g id="Grupo_1019170" data-name="Grupo 1019170">
          <g id="Grupo_1019169" data-name="Grupo 1019169" clip-path="url(#clip-path-2)">
            <path id="Trazado_748592" data-name="Trazado 748592" d="M30.986,41.377h-19.8a.861.861,0,0,1,0-1.721h19.8a.861.861,0,0,1,0,1.721" fill="#161091"/>
            <path id="Trazado_748593" data-name="Trazado 748593" d="M8.532,44.568h0Z" fill="#013177"/>
            <path id="Trazado_748594" data-name="Trazado 748594" d="M33.393,45.429H8.532a.861.861,0,1,1,0-1.721H33.393a.861.861,0,1,1,0,1.721" fill="#161091"/>
            <path id="Trazado_748595" data-name="Trazado 748595" d="M13.737,37.218a.642.642,0,0,0-.386-.4l-3.226-1.222a.649.649,0,0,0-.725.19L.15,46.872a.646.646,0,0,0,.495,1.059H6.669a.647.647,0,0,0,.541-.292l6.453-9.868a.644.644,0,0,0,.074-.553" fill="#595bc1"/>
            <path id="Trazado_748596" data-name="Trazado 748596" d="M42.317,46.872l-9.251-11.09a.646.646,0,0,0-.724-.19l-3.227,1.221a.647.647,0,0,0-.312.957l6.454,9.869a.65.65,0,0,0,.54.292h6.024a.646.646,0,0,0,.5-1.059" fill="#595bc1"/>
            <path id="Trazado_748597" data-name="Trazado 748597" d="M28.288,0H14.137A8.036,8.036,0,0,0,6.11,8.026V30.095a8.035,8.035,0,0,0,8.027,8.025H28.288a8.034,8.034,0,0,0,8.025-8.025V8.026A8.035,8.035,0,0,0,28.288,0" fill="#fc7062"/>
            <path id="Trazado_748598" data-name="Trazado 748598" d="M28.288,0H14.137A8.036,8.036,0,0,0,6.11,8.026V22.588a.646.646,0,0,0,.646.645H35.668a.645.645,0,0,0,.645-.645V8.026A8.035,8.035,0,0,0,28.288,0" fill="#161091"/>
            <path id="Trazado_748599" data-name="Trazado 748599" d="M32.363,6.325H9.942a.86.86,0,0,0-.86.86V19.06a.86.86,0,0,0,.86.861H32.363a.86.86,0,0,0,.86-.861V7.185a.859.859,0,0,0-.86-.86" fill="#fff"/>
            <path id="Trazado_748600" data-name="Trazado 748600" d="M15.236,29.3a2.027,2.027,0,1,1-2.027-2.026A2.026,2.026,0,0,1,15.236,29.3" fill="#fff"/>
            <path id="Trazado_748601" data-name="Trazado 748601" d="M13.208,31.973A2.672,2.672,0,1,1,15.881,29.3a2.675,2.675,0,0,1-2.673,2.673m0-4.054A1.381,1.381,0,1,0,14.59,29.3a1.382,1.382,0,0,0-1.382-1.381" fill="#013177"/>
            <path id="Trazado_748602" data-name="Trazado 748602" d="M30.986,29.3a2.027,2.027,0,1,1-2.026-2.026A2.026,2.026,0,0,1,30.986,29.3" fill="#fff"/>
            <path id="Trazado_748603" data-name="Trazado 748603" d="M28.959,31.973A2.672,2.672,0,1,1,31.631,29.3a2.676,2.676,0,0,1-2.672,2.673m0-4.054A1.381,1.381,0,1,0,30.34,29.3a1.382,1.382,0,0,0-1.381-1.381" fill="#013177"/>
            <path id="Trazado_748604" data-name="Trazado 748604" d="M28.481,2.969H13.9a.861.861,0,0,0,0,1.721H28.481a.861.861,0,0,0,0-1.721" fill="#fff"/>
          </g>
        </g>
      </g>
    </g>
    <g id="Grupo_1024794" data-name="Grupo 1024794" transform="translate(-125.924 -192.751)">
      <g id="Grupo_1024767" data-name="Grupo 1024767" transform="translate(1301 396.751)">
        <g id="Grupo_1024764-2" data-name="Grupo 1024764" clip-path="url(#clip-path)">
          <path id="Trazado_764805-2" data-name="Trazado 764805" d="M23.1.628A22.633,22.633,0,1,1,.47,23.261,22.633,22.633,0,0,1,23.1.628" fill="#eff9fc" fill-rule="evenodd"/>
          <path id="Trazado_764806-2" data-name="Trazado 764806" d="M23.267.3A22.965,22.965,0,0,1,45.9,19.4a3.782,3.782,0,0,0-.761-.508A22.321,22.321,0,0,0,15.011,2.539V1.833A22.919,22.919,0,0,1,23.267.3M44.083,32.957a22.956,22.956,0,0,1-20.2,13.262,3.773,3.773,0,0,0-.036-.657A22.3,22.3,0,0,0,43.4,32.863a3.757,3.757,0,0,0,.683.094M13.452,44.025a22.979,22.979,0,0,1-4.674-2.954,3.87,3.87,0,0,0,.458-.474,22.232,22.232,0,0,0,4.573,2.87,3.776,3.776,0,0,0-.357.558M.8,28.026A22.97,22.97,0,0,1,7.738,6.351c.068.243.114.49.184.727A22.314,22.314,0,0,0,1.5,28.141a3.809,3.809,0,0,0-.7-.115" fill="#61a0e0" fill-rule="evenodd"/>
          <path id="Trazado_764807-2" data-name="Trazado 764807" d="M23.267.3A22.965,22.965,0,0,1,45.9,19.4a3.782,3.782,0,0,0-.761-.508A22.321,22.321,0,0,0,15.011,2.539V1.833A22.919,22.919,0,0,1,23.267.3ZM44.083,32.957a22.956,22.956,0,0,1-20.2,13.262,3.773,3.773,0,0,0-.036-.657A22.3,22.3,0,0,0,43.4,32.863,3.757,3.757,0,0,0,44.083,32.957ZM13.452,44.025a22.979,22.979,0,0,1-4.674-2.954,3.87,3.87,0,0,0,.458-.474,22.232,22.232,0,0,0,4.573,2.87A3.776,3.776,0,0,0,13.452,44.025ZM.8,28.026A22.97,22.97,0,0,1,7.738,6.351c.068.243.114.49.184.727A22.314,22.314,0,0,0,1.5,28.141,3.809,3.809,0,0,0,.8,28.026Z" fill="none" stroke="#61a0e0" stroke-miterlimit="10" stroke-width="0.608"/>
        </g>
      </g>
      <g id="Grupo_1019175" data-name="Grupo 1019175" transform="translate(1294.257 402.782)">
        <g id="Grupo_1019167" data-name="Grupo 1019167" clip-path="url(#clip-path-4)">
          <path id="Trazado_748584" data-name="Trazado 748584" d="M34.4,0H25.382a.645.645,0,0,0-.645.645v5.48a.645.645,0,0,0,.645.645H34.4a.645.645,0,0,0,.645-.645V.645A.644.644,0,0,0,34.4,0" fill="#595bc1"/>
          <path id="Trazado_748585" data-name="Trazado 748585" d="M38.969,8.811H36.017V6.125a.645.645,0,0,0-.645-.646H24.414a.646.646,0,0,0-.645.646V8.811H20.818a.646.646,0,0,0-.646.647V20.733a.645.645,0,0,0,.646.644h3.6a.645.645,0,0,0,.646-.644V19.268h9.666v1.465a.645.645,0,0,0,.646.644h3.6a.644.644,0,0,0,.645-.644V9.458a.646.646,0,0,0-.645-.647" fill="#161091"/>
          <path id="Trazado_748586" data-name="Trazado 748586" d="M30.273,10.08a.647.647,0,0,0-.664.032L14.572,20.184a.646.646,0,0,0-.255.736l6.1,18.747a.646.646,0,0,0,.511.437l3.99.646a.606.606,0,0,0,.1.009.59.59,0,0,0,.151-.019l4.835-1.163a.645.645,0,0,0,.5-.625l.107-28.3a.645.645,0,0,0-.34-.571" fill="#d1524b"/>
          <path id="Trazado_748587" data-name="Trazado 748587" d="M29.86,37.96a5.226,5.226,0,0,0-2.26.95,4.928,4.928,0,0,1-5.907.046l-.131-.092a4.928,4.928,0,0,0-5.907.046l-2.944,2.121H29.86Z" fill="#013177"/>
          <path id="Trazado_748588" data-name="Trazado 748588" d="M45.331,20.184,30.294,10.113A.638.638,0,0,0,29.968,10V39.585a.634.634,0,0,0,.352-.184.62.62,0,0,0,.557.292c.649,0,1.27.077,1.916.128.6.047,1.19.028,1.786.053.575.026,1.137.077,1.715.077H38.32a.838.838,0,0,0,.114-.008.624.624,0,0,0,.234.138.633.633,0,0,0,.2.032.644.644,0,0,0,.613-.446l6.1-18.747a.645.645,0,0,0-.254-.736" fill="#fc7062"/>
          <path id="Trazado_748589" data-name="Trazado 748589" d="M56.884,44.571a4.926,4.926,0,0,0-5.906-.045l-.132.092a4.925,4.925,0,0,1-5.906-.047,4.928,4.928,0,0,0-5.907-.045l-.131.092A4.925,4.925,0,0,1,33,44.571a5.232,5.232,0,0,0-6.164,0,4.926,4.926,0,0,1-5.907.047l-.131-.092a4.926,4.926,0,0,0-5.906.045,4.926,4.926,0,0,1-5.907.047l-.131-.092a4.928,4.928,0,0,0-5.907.045L0,46.693H59.828Z" fill="#161091"/>
          <path id="Trazado_748590" data-name="Trazado 748590" d="M44.065,38.91a4.926,4.926,0,0,0-5.906-.046l-.132.092a4.926,4.926,0,0,1-5.906-.046,5.23,5.23,0,0,0-2.261-.95,5.226,5.226,0,0,0-2.26.95,4.928,4.928,0,0,1-5.907.046l-.131-.092a4.928,4.928,0,0,0-5.907.046l-2.944,2.121h34.3Z" fill="#161091"/>
        </g>
      </g>
    </g>
  </g>
</svg>
