<svg xmlns="http://www.w3.org/2000/svg" xmlns:xlink="http://www.w3.org/1999/xlink" width="59.954" height="46.531" viewBox="0 0 59.954 46.531">
  <defs>
    <clipPath id="clip-path">
      <rect id="Rect치ngulo_359331" data-name="Rect치ngulo 359331" width="46.343" height="46.531" transform="translate(0 0)" fill="none"/>
    </clipPath>
    <clipPath id="clip-path-2">
      <rect id="Rect치ngulo_355927" data-name="Rect치ngulo 355927" width="59.954" height="28.582" transform="translate(0 0)" fill="none"/>
    </clipPath>
  </defs>
  <g id="Grupo_1024866" data-name="Grupo 1024866" transform="translate(-1060.194 -159.751)">
    <g id="Grupo_1024766" data-name="Grupo 1024766" transform="translate(1067 159.751)">
      <g id="Grupo_1024764" data-name="Grupo 1024764" clip-path="url(#clip-path)">
        <path id="Trazado_764805" data-name="Trazado 764805" d="M23.1.628A22.633,22.633,0,1,1,.47,23.261,22.633,22.633,0,0,1,23.1.628" fill="#eff9fc" fill-rule="evenodd"/>
        <path id="Trazado_764806" data-name="Trazado 764806" d="M23.267.3A22.965,22.965,0,0,1,45.9,19.4a3.782,3.782,0,0,0-.761-.508A22.321,22.321,0,0,0,15.011,2.539V1.833A22.919,22.919,0,0,1,23.267.3M44.083,32.957a22.956,22.956,0,0,1-20.2,13.262,3.773,3.773,0,0,0-.036-.657A22.3,22.3,0,0,0,43.4,32.863a3.757,3.757,0,0,0,.683.094M13.452,44.025a22.979,22.979,0,0,1-4.674-2.954,3.87,3.87,0,0,0,.458-.474,22.232,22.232,0,0,0,4.573,2.87,3.776,3.776,0,0,0-.357.558M.8,28.026A22.97,22.97,0,0,1,7.738,6.351c.068.243.114.49.184.727A22.314,22.314,0,0,0,1.5,28.141a3.809,3.809,0,0,0-.7-.115" fill="#61a0e0" fill-rule="evenodd"/>
        <path id="Trazado_764807" data-name="Trazado 764807" d="M23.267.3A22.965,22.965,0,0,1,45.9,19.4a3.782,3.782,0,0,0-.761-.508A22.321,22.321,0,0,0,15.011,2.539V1.833A22.919,22.919,0,0,1,23.267.3ZM44.083,32.957a22.956,22.956,0,0,1-20.2,13.262,3.773,3.773,0,0,0-.036-.657A22.3,22.3,0,0,0,43.4,32.863,3.757,3.757,0,0,0,44.083,32.957ZM13.452,44.025a22.979,22.979,0,0,1-4.674-2.954,3.87,3.87,0,0,0,.458-.474,22.232,22.232,0,0,0,4.573,2.87A3.776,3.776,0,0,0,13.452,44.025ZM.8,28.026A22.97,22.97,0,0,1,7.738,6.351c.068.243.114.49.184.727A22.314,22.314,0,0,0,1.5,28.141,3.809,3.809,0,0,0,.8,28.026Z" fill="none" stroke="#61a0e0" stroke-miterlimit="10" stroke-width="0.608"/>
      </g>
    </g>
    <g id="Grupo_1019172" data-name="Grupo 1019172" transform="translate(1060.194 170.709)">
      <g id="Grupo_1019163" data-name="Grupo 1019163" clip-path="url(#clip-path-2)">
        <path id="Trazado_748566" data-name="Trazado 748566" d="M59.843,6.173a5.388,5.388,0,0,0-2.606-3.6l-.145-.083A13.45,13.45,0,0,0,46.069,1.44l-.018.006-33.1,13.467a1.169,1.169,0,0,1-1.5-.585l-1.4-2.975-.02-.038A2.579,2.579,0,0,0,5.251,13.09l1.254,6.062a5.176,5.176,0,0,0,5.049,4.1,5.069,5.069,0,0,0,.968-.093l35.939-6.927a14.729,14.729,0,0,0,10.387-5.728,5.384,5.384,0,0,0,.995-4.336" fill="#fc7062"/>
        <path id="Trazado_748567" data-name="Trazado 748567" d="M59.4,4.876l-.242-.495L27.711,13.987,6.838,20.377l.523.73a5.15,5.15,0,0,0,5.161,2.058l35.939-6.928A14.724,14.724,0,0,0,58.848,10.51,5.362,5.362,0,0,0,59.4,4.876" fill="#d1524b"/>
        <path id="Trazado_748568" data-name="Trazado 748568" d="M43.238,9.495,13.929.188A4.024,4.024,0,0,0,8.773,3.2a.859.859,0,0,0,.392.909L27.449,15.338a.861.861,0,0,0,.686.094l15.078-4.29a.86.86,0,0,0,.025-1.647" fill="#595bc1"/>
        <path id="Trazado_748569" data-name="Trazado 748569" d="M59.373,4.817a5.361,5.361,0,0,0-2.136-2.249l-.145-.082A13.371,13.371,0,0,0,49.205.771a.645.645,0,0,0-.542.879l.015.038,0,.01,2.331,5.616a.646.646,0,0,0,.6.4.623.623,0,0,0,.17-.024l7.187-1.96a.644.644,0,0,0,.407-.912" fill="#161091"/>
        <path id="Trazado_748570" data-name="Trazado 748570" d="M9.615,28.582a.645.645,0,0,1-.14-1.275l8.748-1.946a.645.645,0,0,1,.281,1.26L9.755,28.566a.62.62,0,0,1-.14.016" fill="#161091"/>
        <path id="Trazado_748571" data-name="Trazado 748571" d="M.645,23.024A.645.645,0,0,1,.5,21.749L14.451,18.63a.645.645,0,0,1,.281,1.26L.787,23.008a.631.631,0,0,1-.142.016" fill="#161091"/>
        <path id="Trazado_748572" data-name="Trazado 748572" d="M36.357,13.066,9.936,2.577a.861.861,0,0,0-.771,1.532L27.45,15.337a.867.867,0,0,0,.685.1Z" fill="#161091"/>
      </g>
    </g>
  </g>
</svg>
