<svg xmlns="http://www.w3.org/2000/svg" xmlns:xlink="http://www.w3.org/1999/xlink" width="47.443" height="46.531" viewBox="0 0 47.443 46.531">
  <defs>
    <clipPath id="clip-path">
      <rect id="Rect치ngulo_359331" data-name="Rect치ngulo 359331" width="46.343" height="46.531" transform="translate(0 0)" fill="none"/>
    </clipPath>
    <clipPath id="clip-path-2">
      <rect id="Rect치ngulo_359332" data-name="Rect치ngulo 359332" width="47.443" height="32.124" fill="none"/>
    </clipPath>
  </defs>
  <g id="Grupo_1024865" data-name="Grupo 1024865" transform="translate(-1203 -473.751)">
    <g id="Grupo_1024770" data-name="Grupo 1024770" transform="translate(1203 473.751)">
      <g id="Grupo_1024764" data-name="Grupo 1024764" clip-path="url(#clip-path)">
        <path id="Trazado_764805" data-name="Trazado 764805" d="M23.1.628A22.633,22.633,0,1,1,.47,23.261,22.633,22.633,0,0,1,23.1.628" fill="#eff9fc" fill-rule="evenodd"/>
        <path id="Trazado_764806" data-name="Trazado 764806" d="M23.267.3A22.965,22.965,0,0,1,45.9,19.4a3.782,3.782,0,0,0-.761-.508A22.321,22.321,0,0,0,15.011,2.539V1.833A22.919,22.919,0,0,1,23.267.3M44.083,32.957a22.956,22.956,0,0,1-20.2,13.262,3.773,3.773,0,0,0-.036-.657A22.3,22.3,0,0,0,43.4,32.863a3.757,3.757,0,0,0,.683.094M13.452,44.025a22.979,22.979,0,0,1-4.674-2.954,3.87,3.87,0,0,0,.458-.474,22.232,22.232,0,0,0,4.573,2.87,3.776,3.776,0,0,0-.357.558M.8,28.026A22.97,22.97,0,0,1,7.738,6.351c.068.243.114.49.184.727A22.314,22.314,0,0,0,1.5,28.141a3.809,3.809,0,0,0-.7-.115" fill="#61a0e0" fill-rule="evenodd"/>
        <path id="Trazado_764807" data-name="Trazado 764807" d="M23.267.3A22.965,22.965,0,0,1,45.9,19.4a3.782,3.782,0,0,0-.761-.508A22.321,22.321,0,0,0,15.011,2.539V1.833A22.919,22.919,0,0,1,23.267.3ZM44.083,32.957a22.956,22.956,0,0,1-20.2,13.262,3.773,3.773,0,0,0-.036-.657A22.3,22.3,0,0,0,43.4,32.863,3.757,3.757,0,0,0,44.083,32.957ZM13.452,44.025a22.979,22.979,0,0,1-4.674-2.954,3.87,3.87,0,0,0,.458-.474,22.232,22.232,0,0,0,4.573,2.87A3.776,3.776,0,0,0,13.452,44.025ZM.8,28.026A22.97,22.97,0,0,1,7.738,6.351c.068.243.114.49.184.727A22.314,22.314,0,0,0,1.5,28.141,3.809,3.809,0,0,0,.8,28.026Z" fill="none" stroke="#61a0e0" stroke-miterlimit="10" stroke-width="0.608"/>
      </g>
    </g>
    <g id="Grupo_1024769" data-name="Grupo 1024769" transform="translate(1203 482.877)">
      <g id="Grupo_1024768" data-name="Grupo 1024768" transform="translate(0 0)" clip-path="url(#clip-path-2)">
        <path id="Trazado_764808" data-name="Trazado 764808" d="M47.779,25.251l-.124-.14a15.211,15.211,0,0,0-11.4-5.143.557.557,0,0,0-.556.549l-.141,11.1H5.425a.556.556,0,0,0-.556.556V36.7a.557.557,0,0,0,.556.557H49.2a.557.557,0,0,0,.557-.557V30.469a7.879,7.879,0,0,0-1.974-5.218" transform="translate(-2.309 -9.47)" fill="#fc7062"/>
        <path id="Trazado_764809" data-name="Trazado 764809" d="M27.283,0H4.365A4.37,4.37,0,0,0,0,4.364V18.931a4.37,4.37,0,0,0,4.365,4.364H27.283a4.369,4.369,0,0,0,4.365-4.364V4.364A4.369,4.369,0,0,0,27.283,0" transform="translate(0 0)" fill="#161091"/>
        <path id="Trazado_764810" data-name="Trazado 764810" d="M75.69,50.122a3.412,3.412,0,1,1-3.413-3.413,3.413,3.413,0,0,1,3.413,3.413" transform="translate(-32.661 -22.153)" fill="#1a0f91"/>
        <path id="Trazado_764811" data-name="Trazado 764811" d="M71.607,53.607a4.155,4.155,0,1,1,4.155-4.154,4.159,4.159,0,0,1-4.155,4.154m0-6.826a2.671,2.671,0,1,0,2.671,2.671,2.674,2.674,0,0,0-2.671-2.671" transform="translate(-31.991 -21.484)" fill="#1a0f91"/>
        <path id="Trazado_764812" data-name="Trazado 764812" d="M27.358.126H4.5A4.313,4.313,0,0,0,.141,4.385v8.02H31.714V4.385A4.313,4.313,0,0,0,27.358.126" transform="translate(-0.067 -0.06)" fill="#595bc1"/>
        <path id="Trazado_764813" data-name="Trazado 764813" d="M80.865,28.958a7.925,7.925,0,0,0-1.714-3.219l-.124-.141a15.169,15.169,0,0,0-7.3-4.58.557.557,0,0,0-.707.536V29.1a.557.557,0,0,0,.556.557h8.754a.557.557,0,0,0,.538-.7" transform="translate(-33.681 -9.959)" fill="#1a0f91"/>
        <path id="Trazado_764814" data-name="Trazado 764814" d="M14.032,45.3a4.155,4.155,0,1,0,4.154,4.154A4.159,4.159,0,0,0,14.032,45.3" transform="translate(-4.684 -21.484)" fill="#1a0f91"/>
        <path id="Trazado_764815" data-name="Trazado 764815" d="M71.607,45.3a4.155,4.155,0,1,0,4.155,4.154A4.159,4.159,0,0,0,71.607,45.3" transform="translate(-31.991 -21.484)" fill="#1a0f91"/>
        <path id="Trazado_764816" data-name="Trazado 764816" d="M15.132,47.617a2.935,2.935,0,1,0,2.935,2.935,2.939,2.939,0,0,0-2.935-2.935" transform="translate(-5.784 -22.584)" fill="#595bc1"/>
        <path id="Trazado_764817" data-name="Trazado 764817" d="M72.707,47.617a2.935,2.935,0,1,0,2.936,2.935,2.938,2.938,0,0,0-2.936-2.935" transform="translate(-33.091 -22.584)" fill="#595bc1"/>
      </g>
    </g>
  </g>
</svg>
