<svg xmlns="http://www.w3.org/2000/svg" xmlns:xlink="http://www.w3.org/1999/xlink" width="146" height="146" viewBox="0 0 146 146">
  <defs>
    <clipPath id="clip-path">
      <rect id="Rectángulo_359720" data-name="Rectángulo 359720" width="146" height="107.034" fill="none"/>
    </clipPath>
  </defs>
  <g id="Grupo_1026058" data-name="Grupo 1026058" transform="translate(-1078 -3341)">
    <circle id="Elipse_8582" data-name="Elipse 8582" cx="60" cy="60" r="60" transform="translate(1091 3354)" fill="#f6f6f6"/>
    <g id="Grupo_1026043" data-name="Grupo 1026043" transform="translate(702 -3)">
      <rect id="Rectángulo_351087" data-name="Rectángulo 351087" width="146" height="146" transform="translate(376 3344)" fill="none"/>
      <g id="Grupo_1026041" data-name="Grupo 1026041" transform="translate(376 3363)">
        <g id="Grupo_1026040" data-name="Grupo 1026040" clip-path="url(#clip-path)">
          <path id="Trazado_766410" data-name="Trazado 766410" d="M74.973,6.577A3.452,3.452,0,1,1,71.52,3.124a3.453,3.453,0,0,1,3.453,3.453" fill="#fc7062"/>
          <path id="Trazado_766411" data-name="Trazado 766411" d="M132.189,69.219a3.452,3.452,0,1,1-3.453-3.453,3.454,3.454,0,0,1,3.453,3.453" fill="#fc7062"/>
          <path id="Trazado_766412" data-name="Trazado 766412" d="M26.635,59.354A3.453,3.453,0,1,1,23.182,55.9a3.453,3.453,0,0,1,3.453,3.453" fill="#53dad8"/>
          <path id="Trazado_766413" data-name="Trazado 766413" d="M84.838,62.313a3.452,3.452,0,1,1-3.453-3.453,3.453,3.453,0,0,1,3.453,3.453" fill="#53dad8"/>
          <path id="Trazado_766414" data-name="Trazado 766414" d="M33.294,7.152V27.868H18.99v6.5l-8.08-6.5H4.193V7.152Z" fill="none" stroke="#231f20" stroke-linejoin="round" stroke-width="1.48"/>
          <rect id="Rectángulo_359715" data-name="Rectángulo 359715" width="23.676" height="15.291" transform="translate(6.905 9.371)" fill="#fc7062"/>
          <line id="Línea_3355" data-name="Línea 3355" x1="1.973" transform="translate(25.155 12.085)" fill="none" stroke="#231f20" stroke-linejoin="round" stroke-width="1.48"/>
          <line id="Línea_3356" data-name="Línea 3356" x1="1.973" transform="translate(21.703 12.085)" fill="none" stroke="#231f20" stroke-linejoin="round" stroke-width="1.48"/>
          <line id="Línea_3357" data-name="Línea 3357" x1="15.784" transform="translate(11.344 15.537)" fill="none" stroke="#231f20" stroke-linejoin="round" stroke-width="1.48"/>
          <line id="Línea_3358" data-name="Línea 3358" x1="15.784" transform="translate(11.344 19.483)" fill="none" stroke="#231f20" stroke-linejoin="round" stroke-width="1.48"/>
          <path id="Trazado_766415" data-name="Trazado 766415" d="M119.858,18.25H23.182V52.284h22.2v7.249l7.079-7.249h17.09v7.249l7.494-7.249H91.25v7.249l7.3-7.249h21.305Z" fill="#fc7062"/>
          <path id="Trazado_766416" data-name="Trazado 766416" d="M112.953,107.034v-14.8c0-4.778-3.371-7.889-8.151-7.889H90.376c-4.781,0-8.991,3.111-8.991,7.889v14.8" fill="#fc7062"/>
          <path id="Trazado_766417" data-name="Trazado 766417" d="M86.811,107.034v-14.8c0-4.778-3.35-7.889-8.131-7.889H64.254c-4.78,0-9.011,3.111-9.011,7.889v14.8" fill="#fc7062"/>
          <path id="Trazado_766418" data-name="Trazado 766418" d="M60.669,107.034v-14.8c0-4.778-3.33-7.889-8.11-7.889H38.133c-4.781,0-9.032,3.111-9.032,7.889v14.8" fill="#53dad8"/>
          <path id="Trazado_766419" data-name="Trazado 766419" d="M41.808,85.686l3.537,9.433,3.563-9.5" fill="none" stroke="#231f20" stroke-linejoin="round" stroke-width="1.48"/>
          <line id="Línea_3359" data-name="Línea 3359" y2="3.453" transform="translate(44.639 98.156)" fill="none" stroke="#231f20" stroke-linejoin="round" stroke-width="1.48"/>
          <line id="Línea_3360" data-name="Línea 3360" y2="2.959" transform="translate(44.639 104.075)" fill="none" stroke="#231f20" stroke-linejoin="round" stroke-width="1.48"/>
          <path id="Rectángulo_359716" data-name="Rectángulo 359716" d="M5.771,0H9.027A5.77,5.77,0,0,1,14.8,5.77v4.244a5.77,5.77,0,0,1-5.77,5.77H5.77A5.77,5.77,0,0,1,0,10.014V5.771A5.771,5.771,0,0,1,5.771,0Z" transform="translate(37.733 64.368)" fill="none" stroke="#231f20" stroke-linejoin="round" stroke-width="1.48"/>
          <line id="Línea_3361" data-name="Línea 3361" y1="10.358" transform="translate(36.253 96.676)" fill="none" stroke="#231f20" stroke-linejoin="round" stroke-width="1.48"/>
          <line id="Línea_3362" data-name="Línea 3362" y1="10.358" transform="translate(53.517 96.676)" fill="none" stroke="#231f20" stroke-linejoin="round" stroke-width="1.48"/>
          <path id="Trazado_766420" data-name="Trazado 766420" d="M86.564,107.034v-14.8c0-4.778-3.257-7.643-8.037-7.643H64.121" fill="none" stroke="#231f20" stroke-linejoin="round" stroke-width="1.48"/>
          <path id="Trazado_766421" data-name="Trazado 766421" d="M66.986,84.31l4.328,10.81,4.054-10.81" fill="none" stroke="#231f20" stroke-linejoin="round" stroke-width="1.48"/>
          <line id="Línea_3363" data-name="Línea 3363" y2="3.453" transform="translate(70.78 98.156)" fill="none" stroke="#231f20" stroke-linejoin="round" stroke-width="1.48"/>
          <line id="Línea_3364" data-name="Línea 3364" y2="2.959" transform="translate(70.78 104.075)" fill="none" stroke="#231f20" stroke-linejoin="round" stroke-width="1.48"/>
          <path id="Rectángulo_359717" data-name="Rectángulo 359717" d="M5.771,0H9.027A5.77,5.77,0,0,1,14.8,5.77v4.244a5.77,5.77,0,0,1-5.77,5.77H5.77A5.77,5.77,0,0,1,0,10.014V5.771A5.771,5.771,0,0,1,5.771,0Z" transform="translate(63.382 64.368)" fill="none" stroke="#231f20" stroke-linejoin="round" stroke-width="1.48"/>
          <line id="Línea_3365" data-name="Línea 3365" y1="10.358" transform="translate(79.659 96.676)" fill="none" stroke="#231f20" stroke-linejoin="round" stroke-width="1.48"/>
          <path id="Trazado_766422" data-name="Trazado 766422" d="M112.706,107.034v-14.8c0-4.778-3.431-7.643-8.211-7.643H90.263" fill="none" stroke="#231f20" stroke-linejoin="round" stroke-width="1.48"/>
          <path id="Trazado_766423" data-name="Trazado 766423" d="M93.228,84.31l4.051,10.8L101.263,84.5" fill="none" stroke="#231f20" stroke-linejoin="round" stroke-width="1.48"/>
          <line id="Línea_3366" data-name="Línea 3366" y2="3.453" transform="translate(96.922 98.156)" fill="none" stroke="#231f20" stroke-linejoin="round" stroke-width="1.48"/>
          <line id="Línea_3367" data-name="Línea 3367" y2="2.959" transform="translate(96.922 104.075)" fill="none" stroke="#231f20" stroke-linejoin="round" stroke-width="1.48"/>
          <path id="Rectángulo_359718" data-name="Rectángulo 359718" d="M5.771,0H9.027A5.77,5.77,0,0,1,14.8,5.77v4.244a5.77,5.77,0,0,1-5.77,5.77H5.77A5.77,5.77,0,0,1,0,10.014V5.771A5.771,5.771,0,0,1,5.771,0Z" transform="translate(89.524 64.368)" fill="none" stroke="#231f20" stroke-linejoin="round" stroke-width="1.48"/>
          <line id="Línea_3368" data-name="Línea 3368" y1="10.358" transform="translate(105.307 96.676)" fill="none" stroke="#231f20" stroke-linejoin="round" stroke-width="1.48"/>
          <path id="Trazado_766424" data-name="Trazado 766424" d="M76.273,34.692a5.25,5.25,0,1,1-5.25-5.25,5.25,5.25,0,0,1,5.25,5.25" fill="#fff"/>
          <path id="Trazado_766425" data-name="Trazado 766425" d="M50.536,34.692a5.25,5.25,0,1,1-5.25-5.25,5.251,5.251,0,0,1,5.25,5.25" fill="#fff"/>
          <path id="Trazado_766426" data-name="Trazado 766426" d="M101.627,34.692a5.25,5.25,0,1,1-5.25-5.25,5.25,5.25,0,0,1,5.25,5.25" fill="#fff"/>
          <line id="Línea_3369" data-name="Línea 3369" x2="3.946" transform="translate(106.047 13.071)" fill="none" stroke="#231f20" stroke-linejoin="round" stroke-width="1.48"/>
          <line id="Línea_3370" data-name="Línea 3370" x2="21.703" transform="translate(111.966 13.071)" fill="none" stroke="#231f20" stroke-linejoin="round" stroke-width="1.48"/>
          <line id="Línea_3371" data-name="Línea 3371" x2="3.946" transform="translate(106.047 17.017)" fill="none" stroke="#231f20" stroke-linejoin="round" stroke-width="1.48"/>
          <line id="Línea_3372" data-name="Línea 3372" x2="21.703" transform="translate(111.966 17.017)" fill="none" stroke="#231f20" stroke-linejoin="round" stroke-width="1.48"/>
          <line id="Línea_3373" data-name="Línea 3373" x2="3.946" transform="translate(106.047 20.963)" fill="none" stroke="#231f20" stroke-linejoin="round" stroke-width="1.48"/>
          <line id="Línea_3374" data-name="Línea 3374" x2="21.703" transform="translate(111.966 20.963)" fill="none" stroke="#231f20" stroke-linejoin="round" stroke-width="1.48"/>
          <line id="Línea_3375" data-name="Línea 3375" x2="3.946" transform="translate(106.047 24.909)" fill="none" stroke="#231f20" stroke-linejoin="round" stroke-width="1.48"/>
          <line id="Línea_3376" data-name="Línea 3376" x2="12.824" transform="translate(111.966 24.909)" fill="none" stroke="#231f20" stroke-linejoin="round" stroke-width="1.48"/>
          <line id="Línea_3377" data-name="Línea 3377" x1="3.453" transform="translate(31.567 56.477)" fill="none" stroke="#231f20" stroke-linejoin="round" stroke-width="1.48"/>
          <line id="Línea_3378" data-name="Línea 3378" x1="22.196" transform="translate(7.399 56.477)" fill="none" stroke="#231f20" stroke-linejoin="round" stroke-width="1.48"/>
          <line id="Línea_3379" data-name="Línea 3379" x1="3.453" transform="translate(31.567 52.531)" fill="none" stroke="#231f20" stroke-linejoin="round" stroke-width="1.48"/>
          <line id="Línea_3380" data-name="Línea 3380" x1="22.196" transform="translate(7.399 52.531)" fill="none" stroke="#231f20" stroke-linejoin="round" stroke-width="1.48"/>
          <line id="Línea_3381" data-name="Línea 3381" x1="3.453" transform="translate(31.567 48.585)" fill="none" stroke="#231f20" stroke-linejoin="round" stroke-width="1.48"/>
          <line id="Línea_3382" data-name="Línea 3382" x1="22.196" transform="translate(7.399 48.585)" fill="none" stroke="#231f20" stroke-linejoin="round" stroke-width="1.48"/>
          <line id="Línea_3383" data-name="Línea 3383" x1="3.453" transform="translate(31.567 44.639)" fill="none" stroke="#231f20" stroke-linejoin="round" stroke-width="1.48"/>
          <line id="Línea_3384" data-name="Línea 3384" x1="12.824" transform="translate(16.771 44.639)" fill="none" stroke="#231f20" stroke-linejoin="round" stroke-width="1.48"/>
          <path id="Trazado_766427" data-name="Trazado 766427" d="M107.28,34.774V55.49h14.8v6.646l8.42-6.646h6.378V34.774Z" fill="none" stroke="#231f20" stroke-linejoin="round" stroke-width="1.48"/>
          <rect id="Rectángulo_359719" data-name="Rectángulo 359719" width="24.169" height="14.797" transform="translate(109.993 37.487)" fill="#53dad8"/>
          <line id="Línea_3385" data-name="Línea 3385" x2="1.973" transform="translate(114.432 40.693)" fill="none" stroke="#231f20" stroke-linejoin="round" stroke-width="1.48"/>
          <line id="Línea_3386" data-name="Línea 3386" x2="1.973" transform="translate(117.885 40.693)" fill="none" stroke="#231f20" stroke-linejoin="round" stroke-width="1.48"/>
          <line id="Línea_3387" data-name="Línea 3387" x2="15.784" transform="translate(114.432 44.145)" fill="none" stroke="#231f20" stroke-linejoin="round" stroke-width="1.48"/>
          <line id="Línea_3388" data-name="Línea 3388" x2="15.784" transform="translate(114.432 48.091)" fill="none" stroke="#231f20" stroke-linejoin="round" stroke-width="1.48"/>
          <circle id="Elipse_8573" data-name="Elipse 8573" cx="3.073" cy="3.073" r="3.073" transform="translate(53.865 14.204)" fill="none" stroke="#231f20" stroke-linejoin="round" stroke-width="1.48"/>
          <path id="Trazado_766428" data-name="Trazado 766428" d="M71.536,17.277A3.074,3.074,0,1,1,68.463,14.2,3.073,3.073,0,0,1,71.536,17.277Z" fill="none" stroke="#231f20" stroke-linejoin="round" stroke-width="1.48"/>
          <path id="Trazado_766429" data-name="Trazado 766429" d="M83.06,17.277A3.073,3.073,0,1,1,79.987,14.2,3.073,3.073,0,0,1,83.06,17.277Z" fill="none" stroke="#231f20" stroke-linejoin="round" stroke-width="1.48"/>
          <circle id="Elipse_8574" data-name="Elipse 8574" cx="2.525" cy="2.525" r="2.525" transform="translate(114.175 70.288)" fill="none" stroke="#231f20" stroke-linejoin="round" stroke-width="1.48"/>
          <circle id="Elipse_8575" data-name="Elipse 8575" cx="2.525" cy="2.525" r="2.525" transform="translate(123.643 70.288)" fill="none" stroke="#231f20" stroke-linejoin="round" stroke-width="1.48"/>
          <circle id="Elipse_8576" data-name="Elipse 8576" cx="2.525" cy="2.525" r="2.525" transform="translate(133.111 70.288)" fill="none" stroke="#231f20" stroke-linejoin="round" stroke-width="1.48"/>
          <circle id="Elipse_8577" data-name="Elipse 8577" cx="2.525" cy="2.525" r="2.525" transform="translate(6.616 64.142)" fill="none" stroke="#231f20" stroke-linejoin="round" stroke-width="1.48"/>
          <circle id="Elipse_8578" data-name="Elipse 8578" cx="2.525" cy="2.525" r="2.525" transform="translate(16.084 64.142)" fill="none" stroke="#231f20" stroke-linejoin="round" stroke-width="1.48"/>
          <circle id="Elipse_8579" data-name="Elipse 8579" cx="2.525" cy="2.525" r="2.525" transform="translate(25.552 64.142)" fill="none" stroke="#231f20" stroke-linejoin="round" stroke-width="1.48"/>
          <line id="Línea_3389" data-name="Línea 3389" y2="6.412" transform="translate(55.49 0)" fill="none" stroke="#231f20" stroke-linejoin="round" stroke-width="1.48"/>
          <line id="Línea_3390" data-name="Línea 3390" x2="6.412" transform="translate(52.284 3.7)" fill="none" stroke="#231f20" stroke-linejoin="round" stroke-width="1.48"/>
          <line id="Línea_3391" data-name="Línea 3391" y2="6.412" transform="translate(16.524 76.946)" fill="none" stroke="#231f20" stroke-linejoin="round" stroke-width="1.48"/>
          <line id="Línea_3392" data-name="Línea 3392" x2="6.412" transform="translate(13.318 80.645)" fill="none" stroke="#231f20" stroke-linejoin="round" stroke-width="1.48"/>
          <line id="Línea_3393" data-name="Línea 3393" y2="6.412" transform="translate(142.794 23.183)" fill="none" stroke="#231f20" stroke-linejoin="round" stroke-width="1.48"/>
          <line id="Línea_3394" data-name="Línea 3394" x2="6.412" transform="translate(139.588 26.882)" fill="none" stroke="#231f20" stroke-linejoin="round" stroke-width="1.48"/>
          <line id="Línea_3395" data-name="Línea 3395" y2="6.412" transform="translate(83.112 56.723)" fill="none" stroke="#231f20" stroke-linejoin="round" stroke-width="1.48"/>
          <line id="Línea_3396" data-name="Línea 3396" x2="6.412" transform="translate(79.905 60.422)" fill="none" stroke="#231f20" stroke-linejoin="round" stroke-width="1.48"/>
          <line id="Línea_3397" data-name="Línea 3397" x2="4.439" transform="translate(78.426 7.152)" fill="none" stroke="#231f20" stroke-linejoin="round" stroke-width="1.48"/>
          <line id="Línea_3398" data-name="Línea 3398" x2="4.932" transform="translate(84.838 7.152)" fill="none" stroke="#231f20" stroke-linejoin="round" stroke-width="1.48"/>
          <line id="Línea_3399" data-name="Línea 3399" x2="4.439" transform="translate(0 74.233)" fill="none" stroke="#231f20" stroke-linejoin="round" stroke-width="1.48"/>
          <line id="Línea_3400" data-name="Línea 3400" x2="4.932" transform="translate(6.412 74.233)" fill="none" stroke="#231f20" stroke-linejoin="round" stroke-width="1.48"/>
          <line id="Línea_3401" data-name="Línea 3401" x2="4.439" transform="translate(132.682 64.368)" fill="none" stroke="#231f20" stroke-linejoin="round" stroke-width="1.48"/>
          <line id="Línea_3402" data-name="Línea 3402" x2="4.932" transform="translate(139.095 64.368)" fill="none" stroke="#231f20" stroke-linejoin="round" stroke-width="1.48"/>
          <line id="Línea_3403" data-name="Línea 3403" x2="4.439" transform="translate(59.682 55.49)" fill="none" stroke="#231f20" stroke-linejoin="round" stroke-width="1.48"/>
          <line id="Línea_3404" data-name="Línea 3404" x2="4.932" transform="translate(66.095 55.49)" fill="none" stroke="#231f20" stroke-linejoin="round" stroke-width="1.48"/>
        </g>
      </g>
    </g>
  </g>
</svg>
