<svg xmlns="http://www.w3.org/2000/svg" xmlns:xlink="http://www.w3.org/1999/xlink" width="118.617" height="119.456" viewBox="0 0 118.617 119.456">
  <defs>
    <radialGradient id="radial-gradient" cx="0.076" cy="0.019" r="1.465" gradientTransform="translate(0.001)" gradientUnits="objectBoundingBox">
      <stop offset="0" stop-color="#f6f6f7"/>
      <stop offset="0.477" stop-color="#f9f9fa"/>
      <stop offset="0.715" stop-color="#fff"/>
    </radialGradient>
    <filter id="Trazado_765630" x="0" y="0.961" width="118.617" height="118.495" filterUnits="userSpaceOnUse">
      <feOffset dy="7" input="SourceAlpha"/>
      <feGaussianBlur stdDeviation="2.5" result="blur"/>
      <feFlood flood-opacity="0.102"/>
      <feComposite operator="in" in2="blur"/>
      <feComposite in="SourceGraphic"/>
    </filter>
  </defs>
  <g id="Grupo_1026380" data-name="Grupo 1026380" transform="translate(-278.841 -5246)">
    <g id="Grupo_1024869" data-name="Grupo 1024869" transform="translate(0 3146.169)">
      <g id="Grupo_1024863" data-name="Grupo 1024863" transform="translate(285 2099.831)">
        <g id="Grupo_18420" data-name="Grupo 18420">
          <g id="Grupo_18419" data-name="Grupo 18419">
            <path id="Trazado_40936" data-name="Trazado 40936" d="M299.581,2198.2a52.479,52.479,0,1,1-52.478-52.477A52.478,52.478,0,0,1,299.581,2198.2Z" transform="translate(-194.623 -2145.721)" fill="#fff"/>
          </g>
        </g>
      </g>
      <g transform="matrix(1, 0, 0, 1, 278.84, 2099.83)" filter="url(#Trazado_765630)">
        <path id="Trazado_765630-2" data-name="Trazado 765630" d="M299.094,2197.667a52.478,52.478,0,1,0-52.478,52.479A52.271,52.271,0,0,0,299.094,2197.667Z" transform="translate(-187.98 -2145.19)" fill="url(#radial-gradient)"/>
      </g>
      <path id="Trazado_765631" data-name="Trazado 765631" d="M289.67,2196.985a43.749,43.749,0,1,0-43.749,43.75A43.588,43.588,0,0,0,289.67,2196.985Z" transform="translate(92.17 -44.554)" fill="none" stroke="#fe7062" stroke-miterlimit="10" stroke-width="4"/>
      <g id="Grupo_1024864" data-name="Grupo 1024864" transform="translate(294.298 2129.294)">
        <path id="Trazado_40939" data-name="Trazado 40939" d="M290.9,2164.488a52.485,52.485,0,0,1-90.354,52.261,52.318,52.318,0,0,0,90.354-52.261Z" transform="translate(-200.545 -2164.488)" fill="#eceef0"/>
      </g>
    </g>
    <g id="_026-operation" data-name="026-operation" transform="translate(300.955 5262.998)">
      <g id="Grupo_1026378" data-name="Grupo 1026378" transform="translate(9.927 8.884)">
        <g id="Grupo_1026366" data-name="Grupo 1026366" transform="translate(0 0)">
          <g id="Grupo_1026362" data-name="Grupo 1026362">
            <path id="Trazado_766695" data-name="Trazado 766695" d="M42.635,19.537a18.211,18.211,0,0,1,5.333,2.211l3.465-1.539,4.084,4.084-1.539,3.464a18.216,18.216,0,0,1,2.211,5.334l3.535,1.361v5.776L56.189,41.59a18.214,18.214,0,0,1-2.211,5.333l1.539,3.465-4.084,4.084-3.464-1.539a18.216,18.216,0,0,1-5.334,2.211L41.274,58.68H35.5l-1.361-3.536A18.213,18.213,0,0,1,28.8,52.933l-3.465,1.539-4.084-4.084,1.539-3.464a18.217,18.217,0,0,1-2.211-5.334l-3.535-1.361V34.453l3.536-1.361a18.211,18.211,0,0,1,2.211-5.333l-1.539-3.465,4.084-4.084L28.8,21.748a18.216,18.216,0,0,1,5.333-2.211L35.5,16h5.776Z" transform="translate(-17.046 -16.001)" fill="#fe7062" fill-rule="evenodd"/>
          </g>
          <g id="Grupo_1026363" data-name="Grupo 1026363" transform="translate(7.756 0)">
            <path id="Trazado_766696" data-name="Trazado 766696" d="M91.382,52.934l-3.465,1.539-.536-.536,3.248-1.442Q91,52.724,91.382,52.934Zm13.831-33.4a18.214,18.214,0,0,1,5.266,2.17c.022.015.044.028.067.041l-.99.44a24.054,24.054,0,0,0-6.087-2.651L102.108,16h1.744ZM87.38,20.746l.536-.536,3.465,1.539q-.382.211-.754.44Zm25.423,0,1.208-.536,4.084,4.084-1.539,3.464a18.216,18.216,0,0,1,2.211,5.334l3.535,1.361v5.776l-3.536,1.361a18.214,18.214,0,0,1-2.211,5.333l1.539,3.465-4.084,4.084-1.208-.536,3.548-3.548-1.539-3.465a18.211,18.211,0,0,0,2.211-5.333l3.536-1.361V34.454l-3.535-1.361a18.216,18.216,0,0,0-2.211-5.334l1.539-3.464Zm-2.324,32.23a18.214,18.214,0,0,1-5.267,2.17l-1.361,3.535h-1.744l1.361-3.535a24.056,24.056,0,0,0,6.088-2.651l.99.44Q110.512,52.954,110.479,52.976Z" transform="translate(-87.38 -16.002)" fill="#d3594d" fill-rule="evenodd"/>
          </g>
          <g id="Grupo_1026364" data-name="Grupo 1026364" transform="translate(3.792 3.797)">
            <circle id="Elipse_8611" data-name="Elipse 8611" cx="12.407" cy="12.407" r="12.407" transform="translate(0 17.543) rotate(-45)" fill="#eceff1"/>
          </g>
          <g id="Grupo_1026365" data-name="Grupo 1026365" transform="translate(8.933 8.933)">
            <path id="Trazado_766697" data-name="Trazado 766697" d="M110.46,97.007c.293,0,.584.011.872.031a12.406,12.406,0,0,0,0,24.752c-.288.02-.579.031-.872.031a12.407,12.407,0,0,1,0-24.814Z" transform="translate(-98.053 -97.007)" fill="#d1d1d6" fill-rule="evenodd"/>
          </g>
        </g>
        <g id="Grupo_1026373" data-name="Grupo 1026373" transform="translate(28.297 28.528)">
          <g id="Grupo_1026369" data-name="Grupo 1026369" transform="translate(0)">
            <g id="Grupo_1026367" data-name="Grupo 1026367" transform="translate(0 0)">
              <path id="Trazado_766698" data-name="Trazado 766698" d="M288.284,276.723a10.415,10.415,0,0,1,3.049,1.264l1.981-.88,2.335,2.335-.88,1.981a10.418,10.418,0,0,1,1.264,3.05l2.022.778v3.3l-2.022.778a10.412,10.412,0,0,1-1.264,3.049l.88,1.981-2.335,2.335-1.981-.88a10.417,10.417,0,0,1-3.05,1.264l-.778,2.022h-3.3l-.778-2.022a10.414,10.414,0,0,1-3.049-1.264l-1.981.88-2.335-2.335.88-1.981a10.418,10.418,0,0,1-1.264-3.05l-2.022-.778v-3.3l2.022-.778a10.414,10.414,0,0,1,1.264-3.05l-.88-1.981,2.335-2.335,1.982.88a10.415,10.415,0,0,1,3.049-1.264l.778-2.022h3.3Z" transform="translate(-273.653 -274.701)" fill="#91b3fa" fill-rule="evenodd"/>
            </g>
            <g id="Grupo_1026368" data-name="Grupo 1026368" transform="translate(4.435)">
              <path id="Trazado_766699" data-name="Trazado 766699" d="M316.157,295.816l-1.981.88-.307-.307,1.857-.825Q315.939,295.7,316.157,295.816Zm7.908-19.1a10.414,10.414,0,0,1,3.011,1.241l.038.023-.566.251a13.754,13.754,0,0,0-3.48-1.516l-.778-2.022h1Zm-10.2.691.307-.307,1.982.88q-.218.12-.431.251Zm14.537,0,.691-.307,2.335,2.335-.88,1.981a10.419,10.419,0,0,1,1.264,3.05l2.022.778v3.3l-2.022.778a10.411,10.411,0,0,1-1.264,3.049l.88,1.981L329.1,296.7l-.691-.307,2.029-2.029-.88-1.981a10.415,10.415,0,0,0,1.264-3.049l2.022-.778v-3.3l-2.022-.778a10.414,10.414,0,0,0-1.264-3.05l.88-1.981Zm-1.329,18.429a10.414,10.414,0,0,1-3.012,1.241l-.778,2.022h-1l.778-2.022a13.748,13.748,0,0,0,3.481-1.516l.566.251Z" transform="translate(-313.869 -274.699)" fill="#837683" fill-rule="evenodd"/>
            </g>
          </g>
          <g id="Grupo_1026372" data-name="Grupo 1026372" transform="translate(5.029 5.036)">
            <g id="Grupo_1026370" data-name="Grupo 1026370" transform="translate(0 0)">
              <ellipse id="Elipse_8612" data-name="Elipse 8612" cx="6.244" cy="6.244" rx="6.244" ry="6.244" transform="matrix(0.16, -0.987, 0.987, 0.16, 0, 12.326)" fill="#eceff1"/>
            </g>
            <g id="Grupo_1026371" data-name="Grupo 1026371" transform="translate(0.929 0.922)">
              <path id="Trazado_766700" data-name="Trazado 766700" d="M333.926,328.727c.148,0,.294.005.439.016a6.244,6.244,0,0,0,0,12.457c-.145.01-.291.016-.439.016a6.244,6.244,0,0,1,0-12.488Z" transform="translate(-327.682 -328.727)" fill="#d1d1d6" fill-rule="evenodd"/>
            </g>
          </g>
        </g>
        <g id="Grupo_1026376" data-name="Grupo 1026376" transform="translate(9.478 9.379)">
          <g id="Grupo_1026374" data-name="Grupo 1026374" transform="translate(0 0)">
            <circle id="Elipse_8613" data-name="Elipse 8613" cx="8.369" cy="8.369" r="8.369" transform="translate(0 11.834) rotate(-45)" fill="#57dbd8"/>
          </g>
          <g id="Grupo_1026375" data-name="Grupo 1026375" transform="translate(11.288 3.465)">
            <path id="Trazado_766701" data-name="Trazado 766701" d="M205.91,132.473c-.185,0-.369.007-.551.019a8.369,8.369,0,0,1,0,16.7c.182.012.366.019.551.019a8.369,8.369,0,0,0,0-16.738Z" transform="translate(-205.359 -132.473)" fill="#60b7ff" fill-rule="evenodd"/>
          </g>
        </g>
        <g id="Grupo_1026377" data-name="Grupo 1026377" transform="translate(16.027 17.208)">
          <path id="Trazado_766702" data-name="Trazado 766702" d="M162.813,175.034a1.481,1.481,0,0,1,2.088,0l1.5,1.5,4.048-4.048a1.476,1.476,0,0,1,2.088,2.088l-5.063,5.063a1.613,1.613,0,0,1-2.36-.215l-2.3-2.3A1.481,1.481,0,0,1,162.813,175.034Z" transform="translate(-162.383 -172.052)" fill="#d8ecfe" fill-rule="evenodd"/>
        </g>
      </g>
      <g id="Grupo_1026379" data-name="Grupo 1026379" transform="translate(9.045 8.002)">
        <path id="Trazado_766703" data-name="Trazado 766703" d="M50.425,54.55a4.937,4.937,0,1,1,4.938-4.937A4.943,4.943,0,0,1,50.425,54.55Zm0-11.638a6.7,6.7,0,1,0,6.7,6.7A6.708,6.708,0,0,0,50.425,42.913Zm11.32,7.747V48.569l-1.456-.562a.881.881,0,0,1-.542-.618A9.528,9.528,0,0,0,58.591,44.6a.88.88,0,0,1-.055-.821l.633-1.427L57.69,40.87l-1.428.634a.881.881,0,0,1-.821-.055,9.505,9.505,0,0,0-2.791-1.157.885.885,0,0,1-.619-.541l-.56-1.457H49.379l-.561,1.457a.88.88,0,0,1-.619.541,9.462,9.462,0,0,0-2.791,1.157.884.884,0,0,1-.82.055L43.16,40.87l-1.479,1.479.634,1.428a.88.88,0,0,1-.055.821A9.518,9.518,0,0,0,41.1,47.389a.881.881,0,0,1-.541.618l-1.457.562v2.091l1.457.561a.883.883,0,0,1,.541.619,9.527,9.527,0,0,0,1.156,2.792.88.88,0,0,1,.055.821l-.634,1.427,1.479,1.479,1.428-.634a.884.884,0,0,1,.82.056A9.552,9.552,0,0,0,48.2,58.936a.881.881,0,0,1,.62.541l.56,1.456h2.092l.56-1.455a.88.88,0,0,1,.619-.541,9.507,9.507,0,0,0,2.792-1.158.885.885,0,0,1,.821-.056l1.427.634,1.479-1.479-.634-1.428a.883.883,0,0,1,.055-.821,9.487,9.487,0,0,0,1.157-2.791.881.881,0,0,1,.541-.619ZM35.311,47.17a17.278,17.278,0,0,0,4.6-1.825,11.313,11.313,0,0,1,.608-1.265l-.7-1.569a.882.882,0,0,1,.182-.981l2.336-2.336a.883.883,0,0,1,.983-.182l1.567.7a11.1,11.1,0,0,1,1.394-.659,17.31,17.31,0,0,0,1.928-4.779.88.88,0,0,1,.541-.62l2.97-1.144V27.942L48.753,26.8a.878.878,0,0,1-.541-.619,17.275,17.275,0,0,0-2.1-5.076.883.883,0,0,1-.055-.821l1.294-2.911-3.227-3.227-2.912,1.294a.881.881,0,0,1-.821-.055,17.3,17.3,0,0,0-5.075-2.1.883.883,0,0,1-.618-.541L33.549,9.766H28.985L27.84,12.737a.879.879,0,0,1-.619.541,17.307,17.307,0,0,0-5.075,2.1.881.881,0,0,1-.821.055l-2.911-1.294-3.227,3.228,1.292,2.912a.88.88,0,0,1-.055.821,17.284,17.284,0,0,0-2.1,5.075.879.879,0,0,1-.541.619l-2.97,1.143v4.565l2.97,1.143a.884.884,0,0,1,.541.62,17.3,17.3,0,0,0,2.1,5.076.882.882,0,0,1,.055.821l-1.292,2.91L18.415,46.3l2.911-1.293a.883.883,0,0,1,.821.055,17.3,17.3,0,0,0,5.075,2.1.884.884,0,0,1,.62.542l1.143,2.97h4.564l1.144-2.969a.879.879,0,0,1,.618-.541Zm27.634-.031-1.6-.615a11.274,11.274,0,0,0-1.013-2.446l.7-1.567a.882.882,0,0,0-.183-.981l-2.336-2.336a.881.881,0,0,0-.982-.182l-1.568.7a11.217,11.217,0,0,0-2.444-1.013l-.617-1.6a.881.881,0,0,0-.823-.565H49.385q.242-.69.429-1.4l3.109-1.2a.882.882,0,0,0,.566-.823V27.336a.883.883,0,0,0-.566-.824l-3.109-1.2a19.055,19.055,0,0,0-1.963-4.736L49.2,17.535a.885.885,0,0,0-.183-.983l-4.083-4.084a.884.884,0,0,0-.983-.183l-3.047,1.353a19.083,19.083,0,0,0-4.734-1.963l-1.2-3.109A.883.883,0,0,0,34.154,8H28.378a.88.88,0,0,0-.823.566l-1.2,3.109a19.076,19.076,0,0,0-4.734,1.963l-3.047-1.353a.882.882,0,0,0-.982.183l-4.085,4.084a.881.881,0,0,0-.182.983l1.352,3.045a19.1,19.1,0,0,0-1.963,4.736l-3.109,1.2a.881.881,0,0,0-.565.824v5.776a.88.88,0,0,0,.565.823l3.109,1.2a19.037,19.037,0,0,0,1.963,4.736l-1.352,3.046a.88.88,0,0,0,.182.982L17.6,47.979a.881.881,0,0,0,.982.182l3.047-1.353a19.021,19.021,0,0,0,4.735,1.963l1.2,3.11a.88.88,0,0,0,.823.564h5.776a.882.882,0,0,0,.824-.564l1.2-3.109c.392-.1.782-.222,1.167-.35v2.843a.881.881,0,0,0,.566.823l1.6.616a11.284,11.284,0,0,0,1.014,2.446l-.7,1.567a.883.883,0,0,0,.182.982l2.336,2.336a.883.883,0,0,0,.983.182l1.567-.7a11.241,11.241,0,0,0,2.445,1.014l.615,1.6a.884.884,0,0,0,.824.564h3.3a.881.881,0,0,0,.823-.564l.616-1.6a11.293,11.293,0,0,0,2.446-1.015l1.567.7a.88.88,0,0,0,.982-.182L60.845,57.7a.883.883,0,0,0,.183-.982l-.7-1.568A11.243,11.243,0,0,0,61.344,52.7l1.6-.616a.884.884,0,0,0,.566-.824v-3.3A.883.883,0,0,0,62.945,47.139ZM35.48,27.988l-5.063,5.063c-.417.417-.957-.06-1.113-.215l-2.3-2.3a.6.6,0,0,1,0-.84.588.588,0,0,1,.42-.173.6.6,0,0,1,.42.172l1.5,1.5a.883.883,0,0,0,1.248,0l4.047-4.048a.595.595,0,0,1,.84.841ZM36.728,25.9a2.362,2.362,0,0,1,0,3.336L31.666,34.3a2.265,2.265,0,0,1-1.618.681,2.846,2.846,0,0,1-1.991-.9l-2.3-2.3A2.359,2.359,0,0,1,29.1,28.451l.872.872L33.392,25.9a2.361,2.361,0,0,1,3.335,0ZM31.244,37.584A7.487,7.487,0,1,1,38.731,30.1,7.5,7.5,0,0,1,31.244,37.584Zm0-16.738A9.251,9.251,0,1,1,21.992,30.1a9.262,9.262,0,0,1,9.252-9.252Zm.022,21.417A12.039,12.039,0,1,1,43.305,30.224,12.052,12.052,0,0,1,31.266,42.263Zm13.8-12.039a13.8,13.8,0,1,1-13.8-13.8,13.819,13.819,0,0,1,13.8,13.8Z" transform="translate(-9.045 -8.002)" fill="#242222" fill-rule="evenodd"/>
      </g>
    </g>
  </g>
</svg>
