<svg xmlns="http://www.w3.org/2000/svg" xmlns:xlink="http://www.w3.org/1999/xlink" width="146" height="146" viewBox="0 0 146 146">
  <defs>
    <clipPath id="clip-path">
      <rect id="Rectángulo_359748" data-name="Rectángulo 359748" width="119.702" height="96.429" transform="translate(0 0)" fill="none"/>
    </clipPath>
  </defs>
  <g id="Grupo_1026059" data-name="Grupo 1026059" transform="translate(-728 -3341)">
    <circle id="Elipse_8581" data-name="Elipse 8581" cx="60" cy="60" r="60" transform="translate(740 3354)" fill="#f6f6f6"/>
    <g id="Grupo_1026057" data-name="Grupo 1026057">
      <rect id="Rectángulo_359635" data-name="Rectángulo 359635" width="146" height="146" transform="translate(728 3341)" fill="none"/>
      <g id="Grupo_1026056" data-name="Grupo 1026056" transform="translate(740 3366)">
        <g id="Grupo_1026053" data-name="Grupo 1026053">
          <g id="Grupo_1026052" data-name="Grupo 1026052" clip-path="url(#clip-path)">
            <line id="Línea_3447" data-name="Línea 3447" y2="6.412" transform="translate(34.98 0)" fill="none" stroke="#231f20" stroke-linejoin="round" stroke-width="1.48"/>
          </g>
        </g>
        <line id="Línea_3448" data-name="Línea 3448" x2="6.412" transform="translate(31.774 3.699)" fill="none" stroke="#231f20" stroke-linejoin="round" stroke-width="1.48"/>
        <line id="Línea_3449" data-name="Línea 3449" y2="6.412" transform="translate(112.193 58.449)" fill="none" stroke="#231f20" stroke-linejoin="round" stroke-width="1.48"/>
        <line id="Línea_3450" data-name="Línea 3450" x2="6.412" transform="translate(108.987 62.149)" fill="none" stroke="#231f20" stroke-linejoin="round" stroke-width="1.48"/>
        <line id="Línea_3451" data-name="Línea 3451" y2="6.412" transform="translate(113.426 6.906)" fill="none" stroke="#231f20" stroke-linejoin="round" stroke-width="1.48"/>
        <line id="Línea_3452" data-name="Línea 3452" x2="6.412" transform="translate(110.22 10.605)" fill="none" stroke="#231f20" stroke-linejoin="round" stroke-width="1.48"/>
        <line id="Línea_3453" data-name="Línea 3453" y2="6.412" transform="translate(11.489 65.601)" fill="none" stroke="#231f20" stroke-linejoin="round" stroke-width="1.48"/>
        <line id="Línea_3454" data-name="Línea 3454" x2="6.412" transform="translate(8.283 69.301)" fill="none" stroke="#231f20" stroke-linejoin="round" stroke-width="1.48"/>
        <line id="Línea_3455" data-name="Línea 3455" x2="1.973" transform="translate(85.065 4.686)" fill="none" stroke="#231f20" stroke-linejoin="round" stroke-width="1.48"/>
        <line id="Línea_3456" data-name="Línea 3456" x2="1.973" transform="translate(88.517 4.686)" fill="none" stroke="#231f20" stroke-linejoin="round" stroke-width="1.48"/>
        <line id="Línea_3457" data-name="Línea 3457" x2="15.784" transform="translate(85.065 8.139)" fill="none" stroke="#231f20" stroke-linejoin="round" stroke-width="1.48"/>
        <line id="Línea_3458" data-name="Línea 3458" x2="15.784" transform="translate(85.065 12.085)" fill="none" stroke="#231f20" stroke-linejoin="round" stroke-width="1.48"/>
        <rect id="Rectángulo_359749" data-name="Rectángulo 359749" width="90.757" height="24.662" transform="translate(15.271 17.51)" fill="#fc7062"/>
        <rect id="Rectángulo_359750" data-name="Rectángulo 359750" width="81.878" height="38.966" transform="translate(19.71 42.172)" fill="#7987cf"/>
        <rect id="Rectángulo_359751" data-name="Rectángulo 359751" width="81.901" height="7.2" transform="translate(19.8 42.227)" fill="#626fc2"/>
        <g id="Grupo_1026055" data-name="Grupo 1026055">
          <g id="Grupo_1026054" data-name="Grupo 1026054" clip-path="url(#clip-path)">
            <path id="Trazado_766445" data-name="Trazado 766445" d="M102.575,96.429v-14.8c0-4.778-3.371-7.889-8.151-7.889H80c-4.781,0-8.991,3.111-8.991,7.889v14.8" fill="#53dad8"/>
            <path id="Trazado_766446" data-name="Trazado 766446" d="M76.433,96.429v-14.8c0-4.778-3.351-7.889-8.131-7.889H53.876c-4.78,0-9.011,3.111-9.011,7.889v14.8" fill="#b6bde5"/>
            <path id="Trazado_766447" data-name="Trazado 766447" d="M50.291,96.429v-14.8c0-4.778-3.33-7.889-8.111-7.889H27.755c-4.781,0-9.032,3.111-9.032,7.889v14.8" fill="#fc7062"/>
            <path id="Trazado_766448" data-name="Trazado 766448" d="M31.43,75.081l3.538,9.433,3.562-9.5" fill="none" stroke="#231f20" stroke-linejoin="round" stroke-width="1.48"/>
            <line id="Línea_3459" data-name="Línea 3459" y2="3.453" transform="translate(34.261 87.551)" fill="none" stroke="#231f20" stroke-linejoin="round" stroke-width="1.48"/>
            <line id="Línea_3460" data-name="Línea 3460" y2="2.959" transform="translate(34.261 93.47)" fill="none" stroke="#231f20" stroke-linejoin="round" stroke-width="1.48"/>
            <line id="Línea_3461" data-name="Línea 3461" y1="10.358" transform="translate(25.875 86.071)" fill="none" stroke="#231f20" stroke-linejoin="round" stroke-width="1.48"/>
            <line id="Línea_3462" data-name="Línea 3462" y1="10.358" transform="translate(43.139 86.071)" fill="none" stroke="#231f20" stroke-linejoin="round" stroke-width="1.48"/>
            <path id="Trazado_766449" data-name="Trazado 766449" d="M76.186,96.429v-14.8c0-4.778-3.257-7.643-8.037-7.643H53.743" fill="none" stroke="#231f20" stroke-linejoin="round" stroke-width="1.48"/>
            <path id="Trazado_766450" data-name="Trazado 766450" d="M56.608,73.7l4.328,10.81L64.989,73.7" fill="none" stroke="#231f20" stroke-linejoin="round" stroke-width="1.48"/>
            <line id="Línea_3463" data-name="Línea 3463" y2="3.453" transform="translate(60.403 87.551)" fill="none" stroke="#231f20" stroke-linejoin="round" stroke-width="1.48"/>
            <line id="Línea_3464" data-name="Línea 3464" y2="2.959" transform="translate(60.403 93.47)" fill="none" stroke="#231f20" stroke-linejoin="round" stroke-width="1.48"/>
            <line id="Línea_3465" data-name="Línea 3465" y1="10.358" transform="translate(69.281 86.071)" fill="none" stroke="#231f20" stroke-linejoin="round" stroke-width="1.48"/>
            <path id="Trazado_766451" data-name="Trazado 766451" d="M102.328,96.429v-14.8c0-4.778-3.431-7.643-8.211-7.643H79.885" fill="none" stroke="#231f20" stroke-linejoin="round" stroke-width="1.48"/>
            <path id="Trazado_766452" data-name="Trazado 766452" d="M82.85,73.7l4.051,10.8L90.884,73.9" fill="none" stroke="#231f20" stroke-linejoin="round" stroke-width="1.48"/>
            <line id="Línea_3466" data-name="Línea 3466" y2="3.453" transform="translate(86.544 87.551)" fill="none" stroke="#231f20" stroke-linejoin="round" stroke-width="1.48"/>
            <line id="Línea_3467" data-name="Línea 3467" y2="2.959" transform="translate(86.544 93.47)" fill="none" stroke="#231f20" stroke-linejoin="round" stroke-width="1.48"/>
            <rect id="Rectángulo_359752" data-name="Rectángulo 359752" width="14.797" height="15.784" rx="5.771" transform="translate(27.109 54.01)" fill="#fff"/>
            <rect id="Rectángulo_359753" data-name="Rectángulo 359753" width="14.797" height="15.784" rx="5.771" transform="translate(78.899 54.01)" fill="#fff"/>
            <rect id="Rectángulo_359754" data-name="Rectángulo 359754" width="14.797" height="15.784" rx="5.771" transform="translate(52.757 54.01)" fill="#fff"/>
            <rect id="Rectángulo_359755" data-name="Rectángulo 359755" width="14.797" height="15.784" rx="5.771" transform="translate(27.355 53.764)" fill="none" stroke="#231f20" stroke-linejoin="round" stroke-width="1.48"/>
            <rect id="Rectángulo_359756" data-name="Rectángulo 359756" width="14.797" height="15.784" rx="5.771" transform="translate(53.004 53.764)" fill="none" stroke="#231f20" stroke-linejoin="round" stroke-width="1.48"/>
            <rect id="Rectángulo_359757" data-name="Rectángulo 359757" width="14.797" height="15.784" rx="5.771" transform="translate(79.146 53.764)" fill="none" stroke="#231f20" stroke-linejoin="round" stroke-width="1.48"/>
            <line id="Línea_3468" data-name="Línea 3468" y1="10.358" transform="translate(94.929 86.071)" fill="none" stroke="#231f20" stroke-linejoin="round" stroke-width="1.48"/>
            <rect id="Rectángulo_359758" data-name="Rectángulo 359758" width="17.757" height="7.399" transform="translate(52.017 37.486)" fill="#d6dbf1"/>
            <rect id="Rectángulo_359759" data-name="Rectángulo 359759" width="17.757" height="7.399" transform="translate(52.017 37.486)" fill="none" stroke="#231f20" stroke-linejoin="round" stroke-width="1.48"/>
            <line id="Línea_3469" data-name="Línea 3469" y1="10.851" transform="translate(47.085 6.659)" fill="none" stroke="#231f20" stroke-linejoin="round" stroke-width="1.48"/>
            <line id="Línea_3470" data-name="Línea 3470" y1="10.851" transform="translate(74.707 6.659)" fill="none" stroke="#231f20" stroke-linejoin="round" stroke-width="1.48"/>
            <rect id="Rectángulo_359760" data-name="Rectángulo 359760" width="34.527" height="3.946" transform="translate(43.386 3.206)" fill="#fc7062"/>
            <line id="Línea_3471" data-name="Línea 3471" x2="21.703" transform="translate(19.71 42.419)" fill="none" stroke="#231f20" stroke-linejoin="round" stroke-width="1.48"/>
            <line id="Línea_3472" data-name="Línea 3472" x2="6.659" transform="translate(79.886 42.419)" fill="none" stroke="#231f20" stroke-linejoin="round" stroke-width="1.48"/>
            <path id="Trazado_766453" data-name="Trazado 766453" d="M26.655,22.576H29.85v-6.9H26.655A5.884,5.884,0,0,0,25.9,13.51l2.754-2.921L23.875,5.73,21,8.441a4.358,4.358,0,0,0-1.95-.8V4.576h-6.9V7.64c0,.033-1.541.709-1.635.759L7.859,5.645,3.133,10.42,5.91,13.51a6.019,6.019,0,0,0-.734,2.166H.75v6.9H5.176c.032,0,.709,1.327.758,1.42L3.181,26.544l4.775,4.673,2.559-2.8c.094.049,1.635.675,1.635.707v4.557h6.9V29.119A4.462,4.462,0,0,0,21,28.361l2.814,2.753,4.806-4.775L25.881,24C25.931,23.9,26.623,22.576,26.655,22.576Z" fill="none" stroke="#231f20" stroke-linejoin="round" stroke-width="1.5"/>
            <path id="Trazado_766454" data-name="Trazado 766454" d="M18.888,18.779a3.7,3.7,0,1,1-3.7-3.7,3.7,3.7,0,0,1,3.7,3.7" fill="#fc7062"/>
            <path id="Trazado_766455" data-name="Trazado 766455" d="M115.932,42.977h3.019v-6.9h-3.019a4.646,4.646,0,0,0-.759-2.255l2.754-2.965-4.775-4.881-2.963,2.7a3.411,3.411,0,0,0-2.038-.812V24.677h-6.9v3.187c0,.032-1.453.709-1.547.759l-2.612-2.754-4.7,4.775,2.788,3.178a4.793,4.793,0,0,0-.723,2.255h-4.6v6.9h4.6c.032,0,.709,1.238.758,1.331l-2.753,2.5,4.775,4.651L99.7,48.647c.094.049,1.547.664,1.547.7v4.434h6.9V49.343a3.522,3.522,0,0,0,2.038-.758l2.858,2.753,4.828-4.775-2.728-2.255C115.2,44.215,115.9,42.977,115.932,42.977Z" fill="none" stroke="#231f20" stroke-linejoin="round" stroke-width="1.5"/>
            <path id="Trazado_766456" data-name="Trazado 766456" d="M108.165,39a3.7,3.7,0,1,1-3.7-3.7,3.7,3.7,0,0,1,3.7,3.7" fill="#fc7062"/>
            <line id="Línea_3473" data-name="Línea 3473" x1="1.973" transform="translate(20.696 57.71)" fill="none" stroke="#231f20" stroke-linejoin="round" stroke-width="1.48"/>
            <line id="Línea_3474" data-name="Línea 3474" x1="1.973" transform="translate(17.244 57.71)" fill="none" stroke="#231f20" stroke-linejoin="round" stroke-width="1.48"/>
            <line id="Línea_3475" data-name="Línea 3475" x1="15.784" transform="translate(6.885 54.257)" fill="none" stroke="#231f20" stroke-linejoin="round" stroke-width="1.48"/>
            <line id="Línea_3476" data-name="Línea 3476" x1="15.784" transform="translate(6.885 50.311)" fill="none" stroke="#231f20" stroke-linejoin="round" stroke-width="1.48"/>
            <line id="Línea_3477" data-name="Línea 3477" y2="6.412" transform="translate(67.554 20.963)" fill="none" stroke="#231f20" stroke-linejoin="round" stroke-width="1.48"/>
            <line id="Línea_3478" data-name="Línea 3478" x2="6.412" transform="translate(64.348 24.662)" fill="none" stroke="#231f20" stroke-linejoin="round" stroke-width="1.48"/>
            <line id="Línea_3479" data-name="Línea 3479" x2="2.4" transform="translate(38.1 30.077)" fill="none" stroke="#231f20" stroke-linejoin="round" stroke-width="1.5"/>
            <line id="Línea_3480" data-name="Línea 3480" x2="2.4" transform="translate(42 30.077)" fill="none" stroke="#231f20" stroke-linejoin="round" stroke-width="1.5"/>
            <line id="Línea_3481" data-name="Línea 3481" x2="2.4" transform="translate(45.901 30.077)" fill="none" stroke="#231f20" stroke-linejoin="round" stroke-width="1.5"/>
            <line id="Línea_3482" data-name="Línea 3482" x2="2.4" transform="translate(72.901 49.277)" fill="none" stroke="#231f20" stroke-linejoin="round" stroke-width="1.5"/>
            <line id="Línea_3483" data-name="Línea 3483" x2="2.7" transform="translate(76.801 49.277)" fill="none" stroke="#231f20" stroke-linejoin="round" stroke-width="1.5"/>
            <line id="Línea_3484" data-name="Línea 3484" x2="2.4" transform="translate(81.001 49.277)" fill="none" stroke="#231f20" stroke-linejoin="round" stroke-width="1.5"/>
          </g>
        </g>
      </g>
    </g>
  </g>
</svg>
