<svg id="Grupo_1025936" data-name="Grupo 1025936" xmlns="http://www.w3.org/2000/svg" width="10.49" height="10.49" viewBox="0 0 10.49 10.49">
  <path id="Trazado_712721" data-name="Trazado 712721" d="M5.245,0A5.245,5.245,0,1,1,0,5.245,5.245,5.245,0,0,1,5.245,0Z" fill="#57dbd8"/>
  <path id="Trazado_231796" data-name="Trazado 231796" d="M167.7,197.154c.85-.852,1.664-1.672,2.484-2.485a.554.554,0,0,1,.928.108.512.512,0,0,1-.094.616q-1.455,1.468-2.922,2.922a.528.528,0,0,1-.793-.015q-.706-.687-1.393-1.392a.552.552,0,1,1,.779-.782c.338.328.662.67,1.012,1.027" transform="translate(-163.209 -191.232)" fill="#12263f"/>
</svg>
