<svg xmlns="http://www.w3.org/2000/svg" xmlns:xlink="http://www.w3.org/1999/xlink" width="60.301" height="54.246" viewBox="0 0 60.301 54.246">
  <defs>
    <clipPath id="clip-path">
      <rect id="Rect치ngulo_355929" data-name="Rect치ngulo 355929" width="60.301" height="54.247" fill="none"/>
    </clipPath>
  </defs>
  <g id="Grupo_1024793" data-name="Grupo 1024793" transform="translate(0 -0.001)">
    <g id="Grupo_1019165" data-name="Grupo 1019165" transform="translate(0 0.001)" clip-path="url(#clip-path)">
      <path id="Trazado_748573" data-name="Trazado 748573" d="M58.41,12.819,15.769,4.657a.752.752,0,0,0-.88.6L7.67,42.97a.752.752,0,0,0,.6.88l42.641,8.162a.754.754,0,0,0,.881-.6L59.007,13.7a.752.752,0,0,0-.6-.88" transform="translate(1.267 0.768)" fill="#595bc1"/>
      <path id="Trazado_748574" data-name="Trazado 748574" d="M57.874,13.9,52.267,5.847a.752.752,0,0,0-.476-.309L22.928.014a.749.749,0,0,0-.556.111L14.188,5.536A.753.753,0,0,0,14.462,6.9l42.654,8.164a.752.752,0,0,0,.759-1.169" transform="translate(2.292 -0.001)" fill="#161091"/>
      <path id="Trazado_748575" data-name="Trazado 748575" d="M39.909,36.436a3.942,3.942,0,0,1-3.127-4.606l.956-4.993a.753.753,0,0,1,.881-.6l6.254,1.2a.752.752,0,0,1,.6.88l-.956,4.993a3.941,3.941,0,0,1-4.606,3.126m-.834-8.577-.815,4.254a2.432,2.432,0,0,0,4.777.914l.813-4.254Z" transform="translate(6.074 4.339)" fill="#fc7062"/>
      <path id="Trazado_748576" data-name="Trazado 748576" d="M42.081,41.279l-6.254-1.2a.752.752,0,1,1,.282-1.478l6.255,1.2a.752.752,0,0,1-.283,1.478" transform="translate(5.827 6.385)" fill="#fc7062"/>
      <path id="Trazado_748577" data-name="Trazado 748577" d="M38.509,41.487a.752.752,0,0,1-.6-.88l1.2-6.289a.752.752,0,0,1,1.478.283l-1.2,6.288a.752.752,0,0,1-.88.6" transform="translate(6.271 5.577)" fill="#fc7062"/>
      <rect id="Rect치ngulo_355928" data-name="Rect치ngulo 355928" width="38.501" height="7.737" transform="translate(26.996 48.011) rotate(-79.164)" fill="#fc7062"/>
      <path id="Trazado_748578" data-name="Trazado 748578" d="M17.451,30.219l5.3,7.81Z" transform="translate(2.888 5)" fill="#f7941e"/>
      <path id="Trazado_748579" data-name="Trazado 748579" d="M22.717,38.875a.752.752,0,0,1-.481-.316l-5.3-7.811A.752.752,0,1,1,18.18,29.9l5.3,7.81a.751.751,0,0,1-.763,1.161" transform="translate(2.781 4.893)" fill="#fff"/>
      <path id="Trazado_748580" data-name="Trazado 748580" d="M30.452,44.027l-6.027-8.88a2.963,2.963,0,0,0-4.109-.786,2.961,2.961,0,0,0-.787,4.109l6.027,8.88a2.959,2.959,0,1,0,4.9-3.324" transform="translate(3.147 5.601)" fill="#013177"/>
      <path id="Trazado_748581" data-name="Trazado 748581" d="M14.12,15.319a.752.752,0,0,0,.85-.6l.744-3.878a.754.754,0,0,0-.618-.885A13.009,13.009,0,0,0,10.2,35.5l.02,0a.752.752,0,0,0,.88-.6l.742-3.878a.753.753,0,0,0-.568-.874,7.559,7.559,0,0,1,2.84-14.835" transform="translate(0 1.618)" fill="#d1524b"/>
      <path id="Trazado_748582" data-name="Trazado 748582" d="M22.321,15.465A12.9,12.9,0,0,0,13.646,9.93h0l-1.024,5.354c.016,0,.034.008.051.01A7.559,7.559,0,1,1,9.832,30.13c-.016,0-.034-.007-.051-.01L8.756,35.475c.122.027.245.051.367.075a12.88,12.88,0,0,0,9.739-2.015,13.024,13.024,0,0,0,3.459-18.069" transform="translate(1.449 1.642)" fill="#fc7062"/>
      <path id="Trazado_748583" data-name="Trazado 748583" d="M36.955,2.875l-4.446-.851L29.373,9.865l7.6,1.455Z" transform="translate(4.86 0.334)" fill="#d1524b"/>
    </g>
  </g>
</svg>
