<svg xmlns="http://www.w3.org/2000/svg" width="135" height="136" viewBox="0 0 135 136">
  <g id="Grupo_1026062" data-name="Grupo 1026062" transform="translate(-222 -8535)">
    <g id="Grupo_1025829" data-name="Grupo 1025829" transform="translate(-202 7768)">
      <ellipse id="Elipse_4848" data-name="Elipse 4848" cx="57.5" cy="58" rx="57.5" ry="58" transform="translate(434 777)" fill="#fff"/>
      <g id="Elipse_4849" data-name="Elipse 4849" transform="translate(434 777)" fill="none" stroke="#c4f2f1" stroke-linejoin="round" stroke-width="10" opacity="0.25">
        <ellipse cx="57.5" cy="58" rx="57.5" ry="58" stroke="none"/>
        <ellipse cx="57.5" cy="58" rx="62.5" ry="63" fill="none"/>
      </g>
    </g>
    <g id="_026-training" data-name="026-training" transform="translate(258 8571)">
      <path id="Trazado_766477" data-name="Trazado 766477" d="M2,2H62V41H2Z" fill="#939393"/>
      <path id="Trazado_766478" data-name="Trazado 766478" d="M39.088,47.465,28,44V40.9a11.894,11.894,0,0,1-10,0V44L6.912,47.465A7,7,0,0,0,2,54.146V62H44V54.146a7,7,0,0,0-4.912-6.681Z" fill="#f2f2f2"/>
      <path id="Trazado_766479" data-name="Trazado 766479" d="M23,8A12,12,0,0,1,35,20v1H11V20A12,12,0,0,1,23,8Z" fill="#f3a845"/>
      <path id="Trazado_766480" data-name="Trazado 766480" d="M8,55H38v7H8Z" fill="#1faca9"/>
      <path id="Trazado_766481" data-name="Trazado 766481" d="M8,55v7H32a4,4,0,0,0,4-4V55Z" fill="#57dbd8"/>
      <g id="Grupo_1026061" data-name="Grupo 1026061">
        <path id="Trazado_766482" data-name="Trazado 766482" d="M23,42a11.923,11.923,0,0,1-5-1.1L18,44l.03.119a5.123,5.123,0,0,0,9.94,0L28,44V40.9A11.926,11.926,0,0,1,23,42Z" fill="#fddfb1"/>
        <path id="Trazado_766483" data-name="Trazado 766483" d="M11,25v5a12,12,0,0,0,24,0V25Z" fill="#fddfb1"/>
        <path id="Trazado_766484" data-name="Trazado 766484" d="M11,30V28H9.5a2.5,2.5,0,0,0,0,5h1.893A12.017,12.017,0,0,1,11,30Z" fill="#fddfb1"/>
        <path id="Trazado_766485" data-name="Trazado 766485" d="M36.5,28H35v2a12.017,12.017,0,0,1-.393,3H36.5a2.5,2.5,0,0,0,0-5Z" fill="#fddfb1"/>
      </g>
      <path id="Trazado_766486" data-name="Trazado 766486" d="M11,25v5a11.933,11.933,0,0,0,1.618,6H27a4,4,0,0,0,4-4V25Z" fill="#feecd0"/>
      <path id="Trazado_766487" data-name="Trazado 766487" d="M14,45.25,10,46.5V55h4Z" fill="#939393"/>
      <path id="Trazado_766488" data-name="Trazado 766488" d="M36,46.5l-4-1.25V55h4Z" fill="#939393"/>
      <path id="Trazado_766489" data-name="Trazado 766489" d="M9,21H37v4H9Z" fill="#474747"/>
      <path id="Trazado_766490" data-name="Trazado 766490" d="M20,6l1,15h4L26,6Z" fill="#eecc61"/>
      <rect id="Rectángulo_359762" data-name="Rectángulo 359762" width="13" height="5" rx="2" transform="translate(13 57)" fill="#79fbf8"/>
      <path id="Trazado_766491" data-name="Trazado 766491" d="M9,23H33a2,2,0,0,0,2-2H9Z" fill="#686868"/>
      <path id="Trazado_766492" data-name="Trazado 766492" d="M42,8h4v4H42Z" fill="#ccc"/>
      <path id="Trazado_766493" data-name="Trazado 766493" d="M42,8v3h1a2,2,0,0,0,2-2V8Z" fill="#f2f2f2"/>
      <path id="Trazado_766494" data-name="Trazado 766494" d="M42,16h4v4H42Z" fill="#ccc"/>
      <path id="Trazado_766495" data-name="Trazado 766495" d="M42,16v3h1a2,2,0,0,0,2-2V16Z" fill="#f2f2f2"/>
      <path id="Trazado_766496" data-name="Trazado 766496" d="M42,24h4v4H42Z" fill="#ccc"/>
      <path id="Trazado_766497" data-name="Trazado 766497" d="M42,24v3h1a2,2,0,0,0,2-2V24Z" fill="#f2f2f2"/>
      <path id="Trazado_766498" data-name="Trazado 766498" d="M42,32h4v4H42Z" fill="#ccc"/>
      <path id="Trazado_766499" data-name="Trazado 766499" d="M42,32v3h1a2,2,0,0,0,2-2V32Z" fill="#f2f2f2"/>
      <path id="Trazado_766500" data-name="Trazado 766500" d="M39.386,46.511,29,43.265V41.521A13.058,13.058,0,0,0,35.364,34H36.5a3.5,3.5,0,0,0,0-7H36V26h1a1,1,0,0,0,1-1V21a1,1,0,0,0-1-1H36a12.986,12.986,0,0,0-9.1-12.4L27,6.066A1,1,0,0,0,26,5H20a1,1,0,0,0-1,1.066l.1,1.539A12.986,12.986,0,0,0,10,20H9a1,1,0,0,0-1,1v4a1,1,0,0,0,1,1h1v1H9.5a3.5,3.5,0,0,0,0,7h1.136A13.058,13.058,0,0,0,17,41.521v1.744L6.614,46.511A7.964,7.964,0,0,0,1,54.146V62a1,1,0,0,0,1,1H44a1,1,0,0,0,1-1V54.146a7.964,7.964,0,0,0-5.614-7.635ZM17.362,45.247a6.111,6.111,0,0,0,11.276,0L31.049,46H31v8H15V46h-.049ZM13,54H11V47.235l2-.625Zm24,2v5H9V56Zm-4-2V46.61l2,.625V54Zm3.5-25a1.5,1.5,0,0,1,0,3h-.67A13.056,13.056,0,0,0,36,30V29Zm-6.28-9,1.373-6.865A10.989,10.989,0,0,1,34,20Zm-.32-8.573L28.18,20H26.069l.689-10.338A10.958,10.958,0,0,1,29.9,11.427ZM24.931,7l-.866,13h-2.13L21.069,7Zm-5,13H17.82L16.1,11.427a10.958,10.958,0,0,1,3.137-1.765Zm-5.524-6.865L15.78,20H12a10.99,10.99,0,0,1,2.408-6.866ZM10,22H36v2H10ZM9.5,32a1.5,1.5,0,0,1,0-3H10v1a13.056,13.056,0,0,0,.17,2ZM12,30V26H34v4a11,11,0,1,1-22,0ZM23,43a12.94,12.94,0,0,0,4-.636v1.513a4.123,4.123,0,0,1-8,0V42.364A12.94,12.94,0,0,0,23,43ZM3,54.146a5.975,5.975,0,0,1,4.21-5.727L9,47.86V54H8a1,1,0,0,0-1,1v6H3ZM43,61H39V55a1,1,0,0,0-1-1H37V47.86l1.79.559A5.975,5.975,0,0,1,43,54.146Z"/>
      <path id="Trazado_766501" data-name="Trazado 766501" d="M17,27h2v4H17Z"/>
      <path id="Trazado_766502" data-name="Trazado 766502" d="M27,27h2v4H27Z"/>
      <path id="Trazado_766503" data-name="Trazado 766503" d="M28,34H26a3,3,0,0,1-6,0H18a5,5,0,0,0,10,0Z"/>
      <path id="Trazado_766504" data-name="Trazado 766504" d="M62,1H2A1,1,0,0,0,1,2V41a1,1,0,0,0,1,1H13V40H3V3H61V40H33v2H62a1,1,0,0,0,1-1V2A1,1,0,0,0,62,1Z"/>
      <path id="Trazado_766505" data-name="Trazado 766505" d="M42,13h4a1,1,0,0,0,1-1V8a1,1,0,0,0-1-1H42a1,1,0,0,0-1,1v4A1,1,0,0,0,42,13Zm1-4h2v2H43Z"/>
      <path id="Trazado_766506" data-name="Trazado 766506" d="M41,20a1,1,0,0,0,1,1h4a1,1,0,0,0,1-1V16a1,1,0,0,0-1-1H42a1,1,0,0,0-1,1Zm2-3h2v2H43Z"/>
      <path id="Trazado_766507" data-name="Trazado 766507" d="M41,28a1,1,0,0,0,1,1h4a1,1,0,0,0,1-1V24a1,1,0,0,0-1-1H42a1,1,0,0,0-1,1Zm2-3h2v2H43Z"/>
      <path id="Trazado_766508" data-name="Trazado 766508" d="M41,36a1,1,0,0,0,1,1h4a1,1,0,0,0,1-1V32a1,1,0,0,0-1-1H42a1,1,0,0,0-1,1Zm2-3h2v2H43Z"/>
      <path id="Trazado_766509" data-name="Trazado 766509" d="M49,7H59V9H49Z"/>
      <path id="Trazado_766510" data-name="Trazado 766510" d="M49,11h6v2H49Z"/>
      <path id="Trazado_766511" data-name="Trazado 766511" d="M57,11h2v2H57Z"/>
      <path id="Trazado_766512" data-name="Trazado 766512" d="M49,15H59v2H49Z"/>
      <path id="Trazado_766513" data-name="Trazado 766513" d="M49,19h6v2H49Z"/>
      <path id="Trazado_766514" data-name="Trazado 766514" d="M57,19h2v2H57Z"/>
      <path id="Trazado_766515" data-name="Trazado 766515" d="M49,23H59v2H49Z"/>
      <path id="Trazado_766516" data-name="Trazado 766516" d="M49,27h6v2H49Z"/>
      <path id="Trazado_766517" data-name="Trazado 766517" d="M57,27h2v2H57Z"/>
      <path id="Trazado_766518" data-name="Trazado 766518" d="M49,31H59v2H49Z"/>
      <path id="Trazado_766519" data-name="Trazado 766519" d="M49,35h6v2H49Z"/>
      <path id="Trazado_766520" data-name="Trazado 766520" d="M57,35h2v2H57Z"/>
    </g>
  </g>
</svg>
