<svg xmlns="http://www.w3.org/2000/svg" xmlns:xlink="http://www.w3.org/1999/xlink" width="118.617" height="119.456" viewBox="0 0 118.617 119.456">
  <defs>
    <radialGradient id="radial-gradient" cx="0.076" cy="0.019" r="1.465" gradientTransform="translate(0.001)" gradientUnits="objectBoundingBox">
      <stop offset="0" stop-color="#f6f6f7"/>
      <stop offset="0.477" stop-color="#f9f9fa"/>
      <stop offset="0.715" stop-color="#fff"/>
    </radialGradient>
    <filter id="Trazado_765630" x="0" y="0.961" width="118.617" height="118.495" filterUnits="userSpaceOnUse">
      <feOffset dy="7" input="SourceAlpha"/>
      <feGaussianBlur stdDeviation="2.5" result="blur"/>
      <feFlood flood-opacity="0.102"/>
      <feComposite operator="in" in2="blur"/>
      <feComposite in="SourceGraphic"/>
    </filter>
  </defs>
  <g id="Grupo_1026444" data-name="Grupo 1026444" transform="translate(-278.841 -2601)">
    <g id="Grupo_1025967" data-name="Grupo 1025967" transform="translate(0 501.169)">
      <g id="Grupo_1024863" data-name="Grupo 1024863" transform="translate(285 2099.831)">
        <g id="Grupo_18420" data-name="Grupo 18420">
          <g id="Grupo_18419" data-name="Grupo 18419">
            <path id="Trazado_40936" data-name="Trazado 40936" d="M299.581,2198.2a52.479,52.479,0,1,1-52.478-52.477A52.478,52.478,0,0,1,299.581,2198.2Z" transform="translate(-194.623 -2145.721)" fill="#fff"/>
          </g>
        </g>
      </g>
      <g transform="matrix(1, 0, 0, 1, 278.84, 2099.83)" filter="url(#Trazado_765630)">
        <path id="Trazado_765630-2" data-name="Trazado 765630" d="M299.094,2197.667a52.478,52.478,0,1,0-52.478,52.479A52.271,52.271,0,0,0,299.094,2197.667Z" transform="translate(-187.98 -2145.19)" fill="url(#radial-gradient)"/>
      </g>
      <path id="Trazado_765631" data-name="Trazado 765631" d="M289.67,2196.985a43.749,43.749,0,1,0-43.749,43.75A43.588,43.588,0,0,0,289.67,2196.985Z" transform="translate(92.17 -44.554)" fill="none" stroke="#fe7062" stroke-miterlimit="10" stroke-width="4"/>
      <g id="Grupo_1024864" data-name="Grupo 1024864" transform="translate(294.298 2129.294)">
        <path id="Trazado_40939" data-name="Trazado 40939" d="M290.9,2164.488a52.485,52.485,0,0,1-90.354,52.261,52.318,52.318,0,0,0,90.354-52.261Z" transform="translate(-200.545 -2164.488)" fill="#eceef0"/>
      </g>
    </g>
    <g id="_033-talent_recognition" data-name="033-talent recognition" transform="translate(303.761 2618.934)">
      <g id="Grupo_1026442" data-name="Grupo 1026442" transform="translate(8.86 10.907)">
        <g id="Grupo_1026436" data-name="Grupo 1026436" transform="translate(0 0)">
          <g id="Grupo_1026425" data-name="Grupo 1026425" transform="translate(13.071 29.651)">
            <g id="Grupo_1026423" data-name="Grupo 1026423">
              <path id="Trazado_766727" data-name="Trazado 766727" d="M143.041,293.242l3.1,3.408-5.61,5.453-3.21-3.3Z" transform="translate(-137.322 -293.242)" fill="#a79ba7" fill-rule="evenodd"/>
            </g>
            <g id="Grupo_1026424" data-name="Grupo 1026424">
              <path id="Trazado_766728" data-name="Trazado 766728" d="M143.041,293.242l1.026,1.127-5.667,5.509,2.148,2.21-.015.015-3.21-3.3Z" transform="translate(-137.322 -293.242)" fill="#837683" fill-rule="evenodd"/>
            </g>
          </g>
          <g id="Grupo_1026432" data-name="Grupo 1026432" transform="translate(13.205)">
            <g id="Grupo_1026428" data-name="Grupo 1026428">
              <g id="Grupo_1026426" data-name="Grupo 1026426">
                <path id="Trazado_766729" data-name="Trazado 766729" d="M153.98,21.236a16.436,16.436,0,0,0-4.812,1.995l-3.127-1.389-3.685,3.685,1.388,3.126a16.436,16.436,0,0,0-2,4.813l-3.19,1.228v5.212l3.191,1.228a16.433,16.433,0,0,0,2,4.812l-1.389,3.127,3.685,3.685,3.126-1.388a16.437,16.437,0,0,0,4.813,2l1.228,3.19h5.212l1.228-3.191a16.436,16.436,0,0,0,4.812-1.995l3.127,1.389,3.685-3.685-1.388-3.126a16.438,16.438,0,0,0,2-4.813l3.19-1.228V34.7l-3.191-1.228a16.432,16.432,0,0,0-2-4.813l1.389-3.127-3.685-3.686-3.127,1.389a16.435,16.435,0,0,0-4.812-1.995l-1.228-3.191h-5.212Z" transform="translate(-138.558 -18.045)" fill="#ffe177" fill-rule="evenodd"/>
              </g>
              <g id="Grupo_1026427" data-name="Grupo 1026427" transform="translate(0 0)">
                <path id="Trazado_766730" data-name="Trazado 766730" d="M166.46,51.373l3.127,1.389.484-.484-2.931-1.3Q166.8,51.183,166.46,51.373ZM153.98,21.238a16.434,16.434,0,0,0-4.752,1.958c-.02.013-.04.026-.06.037l.893.4a21.705,21.705,0,0,1,5.492-2.392l1.228-3.191h-1.574Zm16.091,1.09-.484-.484-3.127,1.389q.345.19.68.4Zm-22.941,0-1.09-.484-3.685,3.685,1.388,3.126a16.437,16.437,0,0,0-2,4.813l-3.19,1.228v5.212l3.191,1.228a16.432,16.432,0,0,0,2,4.812l-1.389,3.127,3.685,3.685,1.09-.484-3.2-3.2,1.389-3.127a16.431,16.431,0,0,1-1.995-4.812l-3.191-1.228V34.7l3.19-1.228a16.438,16.438,0,0,1,2-4.813l-1.388-3.126Zm2.1,29.082a16.435,16.435,0,0,0,4.753,1.958l1.228,3.19h1.574l-1.228-3.19a21.706,21.706,0,0,1-5.494-2.392l-.893.4c.021.011.041.024.061.037Z" transform="translate(-138.558 -18.047)" fill="#ffd064" fill-rule="evenodd"/>
              </g>
            </g>
            <g id="Grupo_1026431" data-name="Grupo 1026431" transform="translate(3.42 3.427)">
              <g id="Grupo_1026429" data-name="Grupo 1026429">
                <circle id="Elipse_8617" data-name="Elipse 8617" cx="11.195" cy="11.195" r="11.195" transform="translate(0 15.83) rotate(-45)" fill="#eceff1"/>
              </g>
              <g id="Grupo_1026430" data-name="Grupo 1026430" transform="translate(15.049 4.633)">
                <path id="Trazado_766731" data-name="Trazado 766731" d="M310.761,92.859c-.265,0-.527.01-.787.028a11.2,11.2,0,0,1,0,22.335c.26.018.522.028.787.028a11.2,11.2,0,1,0,0-22.39Z" transform="translate(-309.974 -92.859)" fill="#d1d1d6" fill-rule="evenodd"/>
              </g>
            </g>
          </g>
          <g id="Grupo_1026435" data-name="Grupo 1026435" transform="translate(0 34.496)">
            <g id="Grupo_1026433" data-name="Grupo 1026433">
              <path id="Trazado_766732" data-name="Trazado 766732" d="M20.092,354.5l-3.623-3.727a1.664,1.664,0,0,1,.033-2.347l10.017-9.737a1.665,1.665,0,0,1,2.347.033l3.623,3.727a1.665,1.665,0,0,1-.033,2.347l-10.017,9.737a1.665,1.665,0,0,1-2.347-.033Z" transform="translate(-16.001 -338.217)" fill="#fe7062" fill-rule="evenodd"/>
            </g>
            <g id="Grupo_1026434" data-name="Grupo 1026434" transform="translate(0 4.307)">
              <path id="Trazado_766733" data-name="Trazado 766733" d="M20.092,390.167l-3.623-3.727a1.665,1.665,0,0,1-.072-2.234c.023.027.047.053.072.079l3.623,3.727a1.665,1.665,0,0,0,2.347.033l10.017-9.737c.037-.036.072-.074.105-.113a1.665,1.665,0,0,1-.105,2.268L22.439,390.2A1.665,1.665,0,0,1,20.092,390.167Z" transform="translate(-16.002 -378.195)" fill="#c25247" fill-rule="evenodd"/>
            </g>
          </g>
        </g>
        <g id="Grupo_1026441" data-name="Grupo 1026441" transform="translate(26.239 12.794)">
          <g id="Grupo_1026437" data-name="Grupo 1026437" transform="translate(0 7.113)">
            <path id="Trazado_766734" data-name="Trazado 766734" d="M271.062,208.566H260.441a.909.909,0,0,1-.871-1.172,6.457,6.457,0,0,1,12.362,0,.909.909,0,0,1-.871,1.172Z" transform="translate(-259.529 -202.805)" fill="#91b3fa" fill-rule="evenodd"/>
          </g>
          <g id="Grupo_1026438" data-name="Grupo 1026438" transform="translate(0 7.113)">
            <path id="Trazado_766735" data-name="Trazado 766735" d="M260.442,208.566a.909.909,0,0,1-.871-1.172,6.458,6.458,0,0,1,6.181-4.589,6.527,6.527,0,0,1,.909.064,6.463,6.463,0,0,0-5.272,4.525.909.909,0,0,0,.871,1.172Z" transform="translate(-259.53 -202.806)" fill="#7fa0e5" fill-rule="evenodd"/>
          </g>
          <g id="Grupo_1026439" data-name="Grupo 1026439" transform="translate(2.898)">
            <ellipse id="Elipse_8618" data-name="Elipse 8618" cx="3.264" cy="3.264" rx="3.264" ry="3.264" transform="translate(0 0.124) rotate(-1.088)" fill="#f6dccd"/>
          </g>
          <g id="Grupo_1026440" data-name="Grupo 1026440" transform="translate(2.958 0.051)">
            <path id="Trazado_766736" data-name="Trazado 766736" d="M290.25,137.261a3.264,3.264,0,1,0,.455,6.5,3.264,3.264,0,0,1,0-6.464A3.294,3.294,0,0,0,290.25,137.261Z" transform="translate(-286.986 -137.261)" fill="#f1cbbc" fill-rule="evenodd"/>
          </g>
        </g>
      </g>
      <g id="Grupo_1026443" data-name="Grupo 1026443" transform="translate(7.998 10.045)">
        <path id="Trazado_766737" data-name="Trazado 766737" d="M35.663,35.712a5.861,5.861,0,0,1,5.656-4.287h0a5.86,5.86,0,0,1,5.657,4.287Zm3.114-8.555A2.544,2.544,0,1,1,41.324,29.7h0a2.547,2.547,0,0,1-2.542-2.544Zm5.452,3.119a4.268,4.268,0,1,0-5.816,0,7.573,7.573,0,0,0-4.646,6.206.861.861,0,0,0,.857.953H48.019a.862.862,0,0,0,.858-.953A7.574,7.574,0,0,0,44.23,30.276ZM41.322,41.015A10.852,10.852,0,1,0,30.468,30.163,10.865,10.865,0,0,0,41.322,41.015Zm0-23.429A12.576,12.576,0,1,0,53.9,30.163,12.591,12.591,0,0,0,41.322,17.586Zm18.394,14.59V28.148l-2.638-1.015a.863.863,0,0,1-.529-.606,15.531,15.531,0,0,0-1.891-4.561.863.863,0,0,1-.054-.8l1.149-2.585L52.9,15.732,50.318,16.88a.862.862,0,0,1-.8-.054,15.561,15.561,0,0,0-4.56-1.891.863.863,0,0,1-.606-.528l-1.015-2.639H39.308l-1.016,2.639a.864.864,0,0,1-.6.528,15.54,15.54,0,0,0-4.56,1.891.863.863,0,0,1-.8.054l-2.586-1.148L26.891,18.58l1.148,2.586a.86.86,0,0,1-.054.8,15.561,15.561,0,0,0-1.89,4.56.865.865,0,0,1-.529.606l-2.639,1.015v4.028l2.638,1.016a.856.856,0,0,1,.529.6,15.543,15.543,0,0,0,1.891,4.561.864.864,0,0,1,.054.8l-1.148,2.585,2.849,2.848,2.587-1.149a.863.863,0,0,1,.8.054,15.55,15.55,0,0,0,4.56,1.891.863.863,0,0,1,.6.529l1.016,2.639h4.028l1.015-2.639a.862.862,0,0,1,.6-.528A15.545,15.545,0,0,0,49.518,43.5a.858.858,0,0,1,.8-.054L52.9,44.593l2.849-2.848L54.6,39.159a.864.864,0,0,1,.054-.8,15.537,15.537,0,0,0,1.89-4.56.861.861,0,0,1,.529-.6Zm-35,19.183L14.7,61.1a.8.8,0,0,1-1.129-.016h0L9.947,57.354a.8.8,0,0,1,.016-1.128L19.98,46.488a.807.807,0,0,1,.567-.223.782.782,0,0,1,.56.239l3.624,3.727a.8.8,0,0,1,.223.567A.784.784,0,0,1,24.715,51.359Zm-1.563-5.227,2.886-2.8,2.037,2.037L25.16,48.2ZM60.887,26.752l-2.773-1.067a17.3,17.3,0,0,0-1.753-4.229l1.207-2.717a.861.861,0,0,0-.178-.959L53.7,14.094a.861.861,0,0,0-.959-.177l-2.718,1.207A17.249,17.249,0,0,0,45.8,13.371L44.732,10.6a.859.859,0,0,0-.8-.552H38.716a.86.86,0,0,0-.8.552l-1.068,2.774a17.246,17.246,0,0,0-4.227,1.752L29.9,13.916a.861.861,0,0,0-.96.177L25.253,17.78a.863.863,0,0,0-.179.959l1.208,2.718a17.265,17.265,0,0,0-1.753,4.227l-2.773,1.068a.861.861,0,0,0-.553.8v5.212a.863.863,0,0,0,.553.8l2.773,1.068a17.275,17.275,0,0,0,1.752,4.228l-1.207,2.717a.878.878,0,0,0-.072.344l-3.1,3.013a2.525,2.525,0,0,0-3.123.309L8.761,54.99a2.522,2.522,0,0,0-.051,3.565l3.622,3.727a2.526,2.526,0,0,0,3.566.051L25.916,52.6a2.53,2.53,0,0,0,.4-3.116l3.1-3.009a.865.865,0,0,0,.487-.061L32.617,45.2a17.256,17.256,0,0,0,4.227,1.752l1.068,2.774a.861.861,0,0,0,.8.553h5.212a.86.86,0,0,0,.8-.553L45.8,46.954A17.245,17.245,0,0,0,50.028,45.2l2.717,1.208a.863.863,0,0,0,.959-.179l3.686-3.685a.862.862,0,0,0,.178-.96l-1.207-2.718a17.29,17.29,0,0,0,1.752-4.227l2.774-1.068a.862.862,0,0,0,.552-.8V27.556a.861.861,0,0,0-.552-.8Z" transform="translate(-7.998 -10.045)" fill="#242222" fill-rule="evenodd"/>
      </g>
    </g>
  </g>
</svg>
