<svg xmlns="http://www.w3.org/2000/svg" width="135" height="136" viewBox="0 0 135 136">
  <g id="Grupo_1026063" data-name="Grupo 1026063" transform="translate(-1249 -8535)">
    <g id="Grupo_1025961" data-name="Grupo 1025961" transform="translate(825 7768)">
      <ellipse id="Elipse_4848" data-name="Elipse 4848" cx="57.5" cy="58" rx="57.5" ry="58" transform="translate(434 777)" fill="#fff"/>
      <g id="Elipse_4849" data-name="Elipse 4849" transform="translate(434 777)" fill="none" stroke="#d8e4fd" stroke-linejoin="round" stroke-width="10" opacity="0.25">
        <ellipse cx="57.5" cy="58" rx="57.5" ry="58" stroke="none"/>
        <ellipse cx="57.5" cy="58" rx="62.5" ry="63" fill="none"/>
      </g>
    </g>
    <g id="_025-traffic_cone" data-name="025-traffic cone" transform="translate(1285 8571)">
      <path id="Trazado_766457" data-name="Trazado 766457" d="M42,2H34L18,52H58Z" fill="#fe7062"/>
      <path id="Trazado_766458" data-name="Trazado 766458" d="M52,44H20.56l-1.6,5H48a4,4,0,0,0,4-4Z" fill="#ff5444"/>
      <path id="Trazado_766459" data-name="Trazado 766459" d="M20.56,44H55.44l-1.92-6H22.48Z" fill="#ccc"/>
      <path id="Trazado_766460" data-name="Trazado 766460" d="M50,38H22.48L21.2,42H47a3,3,0,0,0,3-3Z" fill="#f2f2f2"/>
      <path id="Trazado_766461" data-name="Trazado 766461" d="M25.04,30H50.96l-1.92-6H26.96Z" fill="#ccc"/>
      <path id="Trazado_766462" data-name="Trazado 766462" d="M29.52,16H46.48l-1.92-6H31.44Z" fill="#ccc"/>
      <path id="Trazado_766463" data-name="Trazado 766463" d="M59,52H37.72A17.034,17.034,0,0,1,38,55v3H62V55a3,3,0,0,0-3-3Z" fill="#ff5444"/>
      <path id="Trazado_766464" data-name="Trazado 766464" d="M21,38A17,17,0,0,1,38,55v3H4V55A17,17,0,0,1,21,38Z" fill="#f3a845"/>
      <path id="Trazado_766465" data-name="Trazado 766465" d="M59,52H37.72A17.034,17.034,0,0,1,38,55H57a2.992,2.992,0,0,0,2.982-2.822A2.962,2.962,0,0,0,59,52Z" fill="#d24034"/>
      <path id="Trazado_766466" data-name="Trazado 766466" d="M2,58H40v4H2Z" fill="#474747"/>
      <path id="Trazado_766467" data-name="Trazado 766467" d="M16,37l2,21h6l2-21Z" fill="#eecc61"/>
      <path id="Trazado_766468" data-name="Trazado 766468" d="M24.476,53l.381-4H17.143l.381,4Z" fill="#686868"/>
      <path id="Trazado_766469" data-name="Trazado 766469" d="M2,58v2H35a2.99,2.99,0,0,0,2.816-2Z" fill="#686868"/>
      <path id="Trazado_766470" data-name="Trazado 766470" d="M17.143,49l.286,3H21a2,2,0,0,0,2-2V49Z" fill="#939393"/>
      <path id="Trazado_766471" data-name="Trazado 766471" d="M41,2H34L32.4,7H38a3,3,0,0,0,3-3Z" fill="#ff5444"/>
      <path id="Trazado_766472" data-name="Trazado 766472" d="M42,10H31.44l-1.28,4H39a3,3,0,0,0,3-3Z" fill="#f2f2f2"/>
      <path id="Trazado_766473" data-name="Trazado 766473" d="M43,16H29.52l-1.6,5H39a4,4,0,0,0,4-4Z" fill="#ff5444"/>
      <path id="Trazado_766474" data-name="Trazado 766474" d="M45,24H26.96l-1.28,4H42a3,3,0,0,0,3-3Z" fill="#f2f2f2"/>
      <path id="Trazado_766475" data-name="Trazado 766475" d="M46,30H25.04l-1.6,5H43a3,3,0,0,0,3-3Z" fill="#ff5444"/>
      <path id="Trazado_766476" data-name="Trazado 766476" d="M59,51h-.27L42.953,1.7A1,1,0,0,0,42,1H34a1,1,0,0,0-.953.7L22.07,36H16a1,1,0,0,0-1,1.1l.087.912A17.9,17.9,0,0,0,3,55v2H2a1,1,0,0,0-1,1v4a1,1,0,0,0,1,1H40a1,1,0,0,0,1-1V58a1,1,0,0,0-1-1H39V55a18.372,18.372,0,0,0-.122-2H59a2,2,0,0,1,2,2v2H43v2H62a1,1,0,0,0,1-1V55A4,4,0,0,0,59,51ZM45.11,15H30.89l1.28-4H43.83Zm.64,2,1.92,6H28.33l1.92-6Zm2.56,8,1.28,4H26.41l1.28-4ZM34.73,3h6.54l1.92,6H32.81ZM25.77,31H50.23l1.92,6H31v2H52.79l1.28,4H34.439a17.952,17.952,0,0,0-7.53-4.993L27,37.1A1,1,0,0,0,26,36H24.17ZM25.1,57l1.613-16.943a15.967,15.967,0,0,1,5.18,3.211L28.232,57Zm-6.191,0-.285-3h4.752l-.285,3Zm4.658-5H18.433l-.19-2h5.514ZM24.9,38l-.952,10h-5.9L17.1,38Zm-8,19H13.768L10.107,43.268a15.967,15.967,0,0,1,5.18-3.211ZM5,55A15.956,15.956,0,0,1,8.5,45l3.2,12H5Zm34,6H3V59H39Zm-8.7-4,3.2-12A15.956,15.956,0,0,1,37,55v2Zm5.679-12H54.71l1.92,6H38.548a17.88,17.88,0,0,0-2.567-6Z"/>
    </g>
  </g>
</svg>
