<svg xmlns="http://www.w3.org/2000/svg" xmlns:xlink="http://www.w3.org/1999/xlink" width="118.617" height="119.456" viewBox="0 0 118.617 119.456">
  <defs>
    <radialGradient id="radial-gradient" cx="0.076" cy="0.019" r="1.465" gradientTransform="translate(0.001)" gradientUnits="objectBoundingBox">
      <stop offset="0" stop-color="#f6f6f7"/>
      <stop offset="0.477" stop-color="#f9f9fa"/>
      <stop offset="0.715" stop-color="#fff"/>
    </radialGradient>
    <filter id="Trazado_765630" x="0" y="0.961" width="118.617" height="118.495" filterUnits="userSpaceOnUse">
      <feOffset dy="7" input="SourceAlpha"/>
      <feGaussianBlur stdDeviation="2.5" result="blur"/>
      <feFlood flood-opacity="0.102"/>
      <feComposite operator="in" in2="blur"/>
      <feComposite in="SourceGraphic"/>
    </filter>
  </defs>
  <g id="Grupo_1026560" data-name="Grupo 1026560" transform="translate(-278.841 -2022)">
    <g id="Grupo_1024869" data-name="Grupo 1024869" transform="translate(0 -77.831)">
      <g id="Grupo_1024863" data-name="Grupo 1024863" transform="translate(285 2099.831)">
        <g id="Grupo_18420" data-name="Grupo 18420">
          <g id="Grupo_18419" data-name="Grupo 18419">
            <path id="Trazado_40936" data-name="Trazado 40936" d="M299.581,2198.2a52.479,52.479,0,1,1-52.478-52.477A52.478,52.478,0,0,1,299.581,2198.2Z" transform="translate(-194.623 -2145.721)" fill="#fff"/>
          </g>
        </g>
      </g>
      <g transform="matrix(1, 0, 0, 1, 278.84, 2099.83)" filter="url(#Trazado_765630)">
        <path id="Trazado_765630-2" data-name="Trazado 765630" d="M299.094,2197.667a52.478,52.478,0,1,0-52.478,52.479A52.271,52.271,0,0,0,299.094,2197.667Z" transform="translate(-187.98 -2145.19)" fill="url(#radial-gradient)"/>
      </g>
      <path id="Trazado_765631" data-name="Trazado 765631" d="M289.67,2196.985a43.749,43.749,0,1,0-43.749,43.75A43.588,43.588,0,0,0,289.67,2196.985Z" transform="translate(92.17 -44.554)" fill="none" stroke="#fe7062" stroke-miterlimit="10" stroke-width="4"/>
      <g id="Grupo_1024864" data-name="Grupo 1024864" transform="translate(294.298 2129.294)">
        <path id="Trazado_40939" data-name="Trazado 40939" d="M290.9,2164.488a52.485,52.485,0,0,1-90.354,52.261,52.318,52.318,0,0,0,90.354-52.261Z" transform="translate(-200.545 -2164.488)" fill="#eceef0"/>
      </g>
    </g>
    <g id="_045-implementation" data-name="045-implementation" transform="translate(303.146 2037.617)">
      <g id="Grupo_1026558" data-name="Grupo 1026558" transform="translate(8.693 14.868)">
        <g id="Grupo_1026542" data-name="Grupo 1026542" transform="translate(0 16.51)">
          <g id="Grupo_1026538" data-name="Grupo 1026538">
            <g id="Grupo_1026536" data-name="Grupo 1026536" transform="translate(0 0)">
              <path id="Trazado_766792" data-name="Trazado 766792" d="M30.454,208.466a11.507,11.507,0,0,1,3.37,1.4l2.19-.973,2.581,2.581-.972,2.189a11.508,11.508,0,0,1,1.4,3.371l2.234.86v3.65l-2.235.86a11.508,11.508,0,0,1-1.4,3.37l.973,2.19-2.581,2.581-2.189-.972a11.507,11.507,0,0,1-3.371,1.4l-.86,2.234h-3.65l-.86-2.235a11.509,11.509,0,0,1-3.37-1.4l-2.19.973-2.581-2.581.972-2.189a11.511,11.511,0,0,1-1.4-3.371l-2.234-.86v-3.65l2.234-.86a11.506,11.506,0,0,1,1.4-3.37l-.972-2.189,2.581-2.581,2.19.973a11.509,11.509,0,0,1,3.37-1.4l.86-2.235h3.65Z" transform="translate(-14.285 -206.232)" fill="#fe7062" fill-rule="evenodd"/>
            </g>
            <g id="Grupo_1026537" data-name="Grupo 1026537" transform="translate(4.901)">
              <path id="Trazado_766793" data-name="Trazado 766793" d="M61.291,229.567l-2.19.973-.339-.339,2.052-.911Q61.049,229.434,61.291,229.567Zm8.74-21.1a11.51,11.51,0,0,1,3.328,1.371l.042.026-.626.278a15.2,15.2,0,0,0-3.846-1.675l-.86-2.235h1.1Zm-11.268.763.339-.339,2.19.973q-.241.133-.476.278Zm16.065,0,.763-.339,2.581,2.581-.972,2.189a11.508,11.508,0,0,1,1.4,3.371l2.234.86v3.65l-2.235.86a11.507,11.507,0,0,1-1.4,3.37l.973,2.19L75.59,230.54l-.763-.339,2.242-2.242-.973-2.19a11.509,11.509,0,0,0,1.4-3.37l2.235-.86v-3.65l-2.234-.86a11.513,11.513,0,0,0-1.4-3.371l.972-2.189Zm-1.469,20.365a11.512,11.512,0,0,1-3.328,1.371l-.86,2.234h-1.1l.86-2.234a15.2,15.2,0,0,0,3.847-1.675l.626.278Z" transform="translate(-58.762 -206.23)" fill="#fe7062" fill-rule="evenodd"/>
            </g>
          </g>
          <g id="Grupo_1026541" data-name="Grupo 1026541" transform="translate(5.217 5.235)">
            <g id="Grupo_1026539" data-name="Grupo 1026539" transform="translate(0)">
              <circle id="Elipse_8630" data-name="Elipse 8630" cx="6.868" cy="6.868" r="6.868" transform="translate(0 13.365) rotate(-76.7)" fill="#eceff1"/>
            </g>
            <g id="Grupo_1026540" data-name="Grupo 1026540" transform="translate(1.399 1.381)">
              <path id="Trazado_766794" data-name="Trazado 766794" d="M81.2,266.274c.162,0,.323.006.483.017a6.868,6.868,0,0,0,0,13.7c-.16.011-.32.017-.483.017a6.868,6.868,0,1,1,0-13.736Z" transform="translate(-74.329 -266.274)" fill="#d1d1d6" fill-rule="evenodd"/>
            </g>
          </g>
        </g>
        <g id="Grupo_1026550" data-name="Grupo 1026550" transform="translate(35.705)">
          <g id="Grupo_1026543" data-name="Grupo 1026543" transform="translate(4.772 18.92)">
            <path id="Trazado_766795" data-name="Trazado 766795" d="M385.141,228.1h-3.52v1.79a1.07,1.07,0,0,0,1.067,1.067h1.385a1.07,1.07,0,0,0,1.067-1.067V228.1Z" transform="translate(-381.621 -228.101)" fill="#b1b1b5" fill-rule="evenodd"/>
          </g>
          <g id="Grupo_1026544" data-name="Grupo 1026544" transform="translate(3.678 16.343)">
            <path id="Trazado_766796" data-name="Trazado 766796" d="M377.4,204.711h-5.709v2.233a1.07,1.07,0,0,0,1.067,1.067h3.574a1.07,1.07,0,0,0,1.067-1.067Z" transform="translate(-371.689 -204.711)" fill="#d1d1d6" fill-rule="evenodd"/>
          </g>
          <g id="Grupo_1026545" data-name="Grupo 1026545" transform="translate(3.678 17.508)">
            <path id="Trazado_766797" data-name="Trazado 766797" d="M372.932,215.284v1.067a1.058,1.058,0,0,0,.057.345,1.071,1.071,0,0,0,1.01.723h-1.243a1.07,1.07,0,0,1-1.067-1.067v-1.068h1.243Z" transform="translate(-371.689 -215.284)" fill="#b1b1b5" fill-rule="evenodd"/>
          </g>
          <g id="Grupo_1026546" data-name="Grupo 1026546" transform="translate(2.646 14.308)">
            <path id="Trazado_766798" data-name="Trazado 766798" d="M370.17,186.242h-7.843v2.133a1.07,1.07,0,0,0,1.067,1.067H369.1a1.07,1.07,0,0,0,1.067-1.067Z" transform="translate(-362.327 -186.242)" fill="#eceff1" fill-rule="evenodd"/>
          </g>
          <g id="Grupo_1026547" data-name="Grupo 1026547" transform="translate(2.646 15.374)">
            <path id="Trazado_766799" data-name="Trazado 766799" d="M363.57,195.915v1.067a1.07,1.07,0,0,0,1.067,1.067h-1.279a1.071,1.071,0,0,1-1.032-1.067v-1.067h1.243Z" transform="translate(-362.327 -195.915)" fill="#d1d1d6" fill-rule="evenodd"/>
          </g>
          <g id="Grupo_1026548" data-name="Grupo 1026548">
            <path id="Trazado_766800" data-name="Trazado 766800" d="M344.881,56.4a6.568,6.568,0,0,0-6.568,6.568c0,3.648,2.33,3.43,2.646,8.806H348.8c.316-5.376,2.646-5.159,2.646-8.806A6.568,6.568,0,0,0,344.881,56.4Z" transform="translate(-338.313 -56.395)" fill="#ffe177" fill-rule="evenodd"/>
          </g>
          <g id="Grupo_1026549" data-name="Grupo 1026549">
            <path id="Trazado_766801" data-name="Trazado 766801" d="M345.5,56.424a6.568,6.568,0,0,0-5.946,6.539c0,3.388,2.01,3.441,2.55,7.74.041.329.074.683.1,1.066h-1.243c-.316-5.377-2.646-5.159-2.646-8.806a6.568,6.568,0,0,1,6.568-6.568Q345.195,56.4,345.5,56.424Z" transform="translate(-338.313 -56.395)" fill="#ffd064" fill-rule="evenodd"/>
          </g>
        </g>
        <g id="Grupo_1026557" data-name="Grupo 1026557" transform="translate(29.514 29.301)">
          <g id="Grupo_1026553" data-name="Grupo 1026553">
            <g id="Grupo_1026551" data-name="Grupo 1026551">
              <path id="Trazado_766802" data-name="Trazado 766802" d="M293.368,323.862a8,8,0,0,1,2.341.971l1.521-.676,1.793,1.793-.675,1.521a8,8,0,0,1,.971,2.342l1.552.6v2.536l-1.552.6a7.993,7.993,0,0,1-.971,2.341l.676,1.521L297.23,339.2l-1.521-.675a8,8,0,0,1-2.342.971l-.6,1.552h-2.536l-.6-1.552a8,8,0,0,1-2.341-.971l-1.521.676-1.793-1.793.675-1.521a8,8,0,0,1-.971-2.342l-1.552-.6V330.41l1.552-.6a7.991,7.991,0,0,1,.971-2.341l-.676-1.521,1.793-1.793,1.521.676a7.993,7.993,0,0,1,2.341-.971l.6-1.552h2.536Z" transform="translate(-282.134 -322.309)" fill="#91b3fa" fill-rule="evenodd"/>
            </g>
            <g id="Grupo_1026552" data-name="Grupo 1026552" transform="translate(3.405 0)">
              <path id="Trazado_766803" data-name="Trazado 766803" d="M314.792,338.524l-1.521.676-.235-.235,1.426-.633Q314.624,338.431,314.792,338.524Zm6.072-14.661a8,8,0,0,1,2.312.953l.029.018-.435.193a10.558,10.558,0,0,0-2.672-1.164l-.6-1.552h.766Zm-7.829.53.236-.236,1.521.676q-.168.092-.331.193Zm11.161,0,.53-.236,1.793,1.793-.675,1.521a8,8,0,0,1,.971,2.342l1.552.6v2.536l-1.552.6a7.994,7.994,0,0,1-.971,2.341l.676,1.521-1.793,1.793-.53-.235,1.558-1.558-.676-1.521a7.993,7.993,0,0,0,.971-2.341l1.552-.6V330.41l-1.552-.6a8,8,0,0,0-.971-2.342l.675-1.521Zm-1.02,14.149a7.993,7.993,0,0,1-2.312.953l-.6,1.552H319.5l.6-1.552a10.561,10.561,0,0,0,2.673-1.164l.435.193Z" transform="translate(-313.035 -322.31)" fill="#91b3fa" fill-rule="evenodd"/>
            </g>
          </g>
          <g id="Grupo_1026556" data-name="Grupo 1026556" transform="translate(3.041 3.049)">
            <g id="Grupo_1026554" data-name="Grupo 1026554" transform="translate(0 0)">
              <circle id="Elipse_8631" data-name="Elipse 8631" cx="4.469" cy="4.469" r="4.469" transform="translate(0 6.319) rotate(-45)" fill="#fff"/>
            </g>
            <g id="Grupo_1026555" data-name="Grupo 1026555" transform="translate(1.859 1.85)">
              <path id="Trazado_766804" data-name="Trazado 766804" d="M331.07,366.776c.106,0,.21,0,.314.011a4.468,4.468,0,0,0,0,8.915c-.1.007-.209.011-.314.011a4.469,4.469,0,1,1,0-8.937Z" transform="translate(-326.601 -366.776)" fill="#91b3fa" fill-rule="evenodd"/>
            </g>
          </g>
        </g>
      </g>
      <g id="Grupo_1026559" data-name="Grupo 1026559" transform="translate(8 9.726)">
        <path id="Trazado_766805" data-name="Trazado 766805" d="M62.155,49.832,59.173,51.27a.883.883,0,0,1-1.246-.613l-.681-3.24a.882.882,0,1,1,1.726-.362l.138.652a22.034,22.034,0,0,0-1.275-18.9.881.881,0,1,1,1.535-.866A23.79,23.79,0,0,1,60.649,48.6l.742-.358a.881.881,0,1,1,.764,1.588Zm-45.7-18.709a23.815,23.815,0,0,1,17.9-14.9l-.5-.27a.882.882,0,0,1,.842-1.549l2.909,1.581a.881.881,0,0,1,.23,1.369L35.617,19.8a.882.882,0,0,1-1.3-1.188l.642-.7a22.049,22.049,0,0,0-16.85,13.841.881.881,0,1,1-1.646-.629Zm42.5-13.395a.881.881,0,0,1,.322-1.2l1.377-.8a.882.882,0,0,1,.882,1.527l-1.377.795a.881.881,0,0,1-1.2-.323ZM55.233,13.12l.795-1.376a.882.882,0,1,1,1.527.882L56.759,14a.881.881,0,1,1-1.526-.882ZM39.948,16.052a.882.882,0,0,1,1.2-.323l1.376.8a.881.881,0,0,1-.882,1.526l-1.376-.795A.882.882,0,0,1,39.948,16.052Zm4.308-3.427a.881.881,0,1,1,1.526-.882l.8,1.376A.882.882,0,0,1,45.051,14Zm5.767-.428v-1.59a.881.881,0,0,1,1.763,0V12.2a.881.881,0,1,1-1.763,0Zm2.928,9.767v-.688a.687.687,0,1,1,.688.688Zm-2.046-6.6a5.874,5.874,0,0,0-5.868,5.868,5.376,5.376,0,0,0,.983,3.183A11,11,0,0,1,47.688,29.4h1.17V23.728h-.686a2.45,2.45,0,1,1,2.45-2.451v.688h.567v-.688a2.45,2.45,0,1,1,2.451,2.451h-.688V29.4h1.171a10.97,10.97,0,0,1,1.668-4.985,5.379,5.379,0,0,0,.983-3.183,5.875,5.875,0,0,0-5.868-5.868Zm.711,20.617H50.194a.218.218,0,0,1-.216-.215v-.216h1.855v.216a.218.218,0,0,1-.215.215Zm1.124-2.194H49.069a.217.217,0,0,1-.215-.215v-.215h4.1v.215a.219.219,0,0,1-.216.215Zm1.312-2.624v.215a.218.218,0,0,1-.215.216H47.972a.219.219,0,0,1-.216-.216v-.215ZM51.189,29.4h-.567V23.728h.567Zm-2.331-7.431h-.686a.687.687,0,1,1,.686-.688Zm-2.865,8.341v1.068a1.978,1.978,0,0,0,1.1,1.768v.425a1.98,1.98,0,0,0,1.124,1.782v.412a1.98,1.98,0,0,0,1.979,1.978h1.424A1.98,1.98,0,0,0,53.6,35.762v-.412a1.979,1.979,0,0,0,1.125-1.782v-.425a1.977,1.977,0,0,0,1.1-1.768V30.306a9.559,9.559,0,0,1,1.5-5,7.135,7.135,0,0,0,1.224-4.074,7.631,7.631,0,1,0-15.261,0A7.123,7.123,0,0,0,44.5,25.3a9.553,9.553,0,0,1,1.494,5ZM47.5,56.719a3.054,3.054,0,1,1,3.053-3.055A3.059,3.059,0,0,1,47.5,56.719Zm0-7.871a4.817,4.817,0,1,0,4.816,4.816A4.823,4.823,0,0,0,47.5,48.848ZM56,54.412V53.088l-.988-.38a.885.885,0,0,1-.541-.619A7.111,7.111,0,0,0,53.611,50a.879.879,0,0,1-.056-.82l.43-.967-.938-.937-.967.43a.882.882,0,0,1-.82-.055,7.126,7.126,0,0,0-2.084-.864.882.882,0,0,1-.618-.541l-.38-.987H46.853l-.38.987a.879.879,0,0,1-.618.541,7.13,7.13,0,0,0-2.084.864.881.881,0,0,1-.819.055l-.968-.43-.938.937.43.969a.88.88,0,0,1-.054.82,7.072,7.072,0,0,0-.864,2.083.881.881,0,0,1-.541.619l-.988.38v1.324l.986.38a.881.881,0,0,1,.541.618,7.1,7.1,0,0,0,.864,2.084.88.88,0,0,1,.055.82l-.43.969.938.937.968-.43a.879.879,0,0,1,.819.055,7.131,7.131,0,0,0,2.084.864.88.88,0,0,1,.618.54l.38.988h1.326l.38-.987a.882.882,0,0,1,.618-.541,7.1,7.1,0,0,0,2.084-.864.883.883,0,0,1,.82-.055l.967.43.938-.937-.43-.969a.882.882,0,0,1,.054-.82,7.1,7.1,0,0,0,.864-2.083.883.883,0,0,1,.541-.619Zm1.2-2.752-1.133-.436a8.88,8.88,0,0,0-.718-1.733l.493-1.111a.881.881,0,0,0-.182-.981l-1.794-1.793a.881.881,0,0,0-.981-.183l-1.11.494a8.837,8.837,0,0,0-1.732-.719l-.436-1.133a.883.883,0,0,0-.823-.565H46.248a.883.883,0,0,0-.823.565L44.989,45.2a8.858,8.858,0,0,0-1.732.719l-1.11-.494a.882.882,0,0,0-.981.183L39.372,47.4a.882.882,0,0,0-.183.981l.493,1.111a8.853,8.853,0,0,0-.718,1.733l-1.134.436a.879.879,0,0,0-.564.822v2.535a.881.881,0,0,0,.564.823l1.133.436a8.912,8.912,0,0,0,.719,1.733l-.493,1.11a.883.883,0,0,0,.183.982l1.793,1.793a.879.879,0,0,0,.981.182l1.11-.493a8.944,8.944,0,0,0,1.732.718l.436,1.133a.882.882,0,0,0,.823.565h2.536a.882.882,0,0,0,.823-.565l.435-1.133a8.78,8.78,0,0,0,1.733-.718l1.11.493a.879.879,0,0,0,.981-.182L55.66,60.1a.883.883,0,0,0,.182-.982l-.494-1.111a8.832,8.832,0,0,0,.718-1.732L57.2,55.84a.881.881,0,0,0,.564-.823V52.482a.878.878,0,0,0-.564-.822Zm-35.1-.671a6.034,6.034,0,1,1,6.034-6.034A6.041,6.041,0,0,1,22.1,50.989Zm0-13.831a7.8,7.8,0,1,0,7.8,7.8A7.806,7.806,0,0,0,22.1,37.158Zm12.375,9.1V43.889l-1.628-.627a.883.883,0,0,1-.541-.618,10.345,10.345,0,0,0-1.264-3.05.886.886,0,0,1-.055-.821l.709-1.6L30.015,35.5l-1.6.709a.879.879,0,0,1-.82-.054,10.407,10.407,0,0,0-3.05-1.265.883.883,0,0,1-.618-.541L23.3,32.72H20.932L20.3,34.349a.883.883,0,0,1-.619.541,10.4,10.4,0,0,0-3.049,1.265.879.879,0,0,1-.819.054l-1.6-.709-1.677,1.677.709,1.6a.884.884,0,0,1-.055.82,10.363,10.363,0,0,0-1.264,3.05.884.884,0,0,1-.541.618l-1.629.627v2.372l1.628.626a.881.881,0,0,1,.541.619,10.378,10.378,0,0,0,1.265,3.05.883.883,0,0,1,.055.82l-.709,1.6,1.677,1.677,1.6-.709a.882.882,0,0,1,.819.055,10.354,10.354,0,0,0,3.049,1.264.882.882,0,0,1,.619.541l.627,1.629H23.3L23.93,55.8a.883.883,0,0,1,.618-.541A10.4,10.4,0,0,0,27.6,54a.882.882,0,0,1,.819-.055l1.6.709,1.677-1.677-.709-1.6a.883.883,0,0,1,.055-.821A10.41,10.41,0,0,0,32.3,47.507a.883.883,0,0,1,.541-.619Zm1.2-3.8L33.9,41.78a12.094,12.094,0,0,0-1.122-2.705l.77-1.734a.881.881,0,0,0-.182-.982l-2.533-2.533a.883.883,0,0,0-.982-.182l-1.734.77a12.223,12.223,0,0,0-2.7-1.122l-.682-1.77a.882.882,0,0,0-.822-.565H20.326a.88.88,0,0,0-.822.565l-.683,1.77a12.229,12.229,0,0,0-2.7,1.122l-1.735-.77a.88.88,0,0,0-.981.182l-2.534,2.533a.881.881,0,0,0-.181.982l.77,1.734a12.113,12.113,0,0,0-1.122,2.705l-1.77.681A.883.883,0,0,0,8,43.284v3.582a.883.883,0,0,0,.565.823l1.77.681a12.112,12.112,0,0,0,1.122,2.705l-.77,1.735a.88.88,0,0,0,.181.981L13.4,56.324a.882.882,0,0,0,.981.183l1.735-.771a12.136,12.136,0,0,0,2.7,1.122l.683,1.771a.881.881,0,0,0,.822.564h3.583a.882.882,0,0,0,.822-.564l.681-1.77a12.224,12.224,0,0,0,2.706-1.122l1.734.77a.882.882,0,0,0,.981-.183l2.533-2.533a.88.88,0,0,0,.182-.981l-.77-1.735a12.13,12.13,0,0,0,1.122-2.7l1.77-.682a.88.88,0,0,0,.565-.822V43.284A.883.883,0,0,0,35.67,42.461Z" transform="translate(-8 -9.726)" fill="#242222" fill-rule="evenodd"/>
      </g>
    </g>
  </g>
</svg>
