<svg xmlns="http://www.w3.org/2000/svg" xmlns:xlink="http://www.w3.org/1999/xlink" width="118.617" height="119.456" viewBox="0 0 118.617 119.456">
  <defs>
    <radialGradient id="radial-gradient" cx="0.076" cy="0.019" r="1.465" gradientTransform="translate(0.001)" gradientUnits="objectBoundingBox">
      <stop offset="0" stop-color="#f6f6f7"/>
      <stop offset="0.477" stop-color="#f9f9fa"/>
      <stop offset="0.715" stop-color="#fff"/>
    </radialGradient>
    <filter id="Trazado_765630" x="0" y="0.961" width="118.617" height="118.495" filterUnits="userSpaceOnUse">
      <feOffset dy="7" input="SourceAlpha"/>
      <feGaussianBlur stdDeviation="2.5" result="blur"/>
      <feFlood flood-opacity="0.102"/>
      <feComposite operator="in" in2="blur"/>
      <feComposite in="SourceGraphic"/>
    </filter>
  </defs>
  <g id="Grupo_1026286" data-name="Grupo 1026286" transform="translate(-278.841 -6288.134)">
    <g id="Grupo_1025918" data-name="Grupo 1025918" transform="translate(4.958 -123.908)">
      <g id="Grupo_1024863" data-name="Grupo 1024863" transform="translate(280.042 6412.042)">
        <g id="Grupo_18420" data-name="Grupo 18420">
          <g id="Grupo_18419" data-name="Grupo 18419">
            <path id="Trazado_40936" data-name="Trazado 40936" d="M299.581,2198.2a52.479,52.479,0,1,1-52.478-52.477A52.478,52.478,0,0,1,299.581,2198.2Z" transform="translate(-194.623 -2145.721)" fill="#fff"/>
          </g>
        </g>
      </g>
      <g transform="matrix(1, 0, 0, 1, 273.88, 6412.04)" filter="url(#Trazado_765630)">
        <path id="Trazado_765630-2" data-name="Trazado 765630" d="M299.094,2197.667a52.478,52.478,0,1,0-52.478,52.479A52.271,52.271,0,0,0,299.094,2197.667Z" transform="translate(-187.98 -2145.19)" fill="url(#radial-gradient)"/>
      </g>
      <path id="Trazado_765631" data-name="Trazado 765631" d="M289.67,2196.985a43.749,43.749,0,1,0-43.749,43.75A43.588,43.588,0,0,0,289.67,2196.985Z" transform="translate(87.212 4267.657)" fill="none" stroke="#fe7062" stroke-miterlimit="10" stroke-width="4"/>
      <g id="Grupo_1024864" data-name="Grupo 1024864" transform="translate(289.34 6441.505)">
        <path id="Trazado_40939" data-name="Trazado 40939" d="M290.9,2164.488a52.485,52.485,0,0,1-90.354,52.261,52.318,52.318,0,0,0,90.354-52.261Z" transform="translate(-200.545 -2164.488)" fill="#eceef0"/>
      </g>
    </g>
    <g id="_002-learning" data-name="002-learning" transform="translate(300.328 6297.753)">
      <g id="Grupo_1026284" data-name="Grupo 1026284" transform="translate(8.974 16.834)">
        <g id="Grupo_1026260" data-name="Grupo 1026260" transform="translate(19.65 37.389)">
          <g id="Grupo_1026256" data-name="Grupo 1026256" transform="translate(0 0)">
            <path id="Trazado_766642" data-name="Trazado 766642" d="M189.063,333a8.136,8.136,0,0,1,2.381.987l1.547-.687,1.823,1.823-.687,1.546a8.132,8.132,0,0,1,.987,2.381l1.578.607v2.578l-1.579.608a8.131,8.131,0,0,1-.987,2.381l.687,1.547-1.823,1.823-1.546-.687a8.132,8.132,0,0,1-2.381.987l-.607,1.578h-2.578l-.608-1.579a8.133,8.133,0,0,1-2.381-.987l-1.547.687-1.823-1.823.687-1.546a8.132,8.132,0,0,1-.987-2.381l-1.578-.607v-2.578l1.578-.608a8.126,8.126,0,0,1,.987-2.381l-.687-1.547,1.823-1.823,1.547.687a8.128,8.128,0,0,1,2.381-.987l.608-1.579h2.578Z" transform="translate(-177.64 -331.419)" fill="#ffe177" fill-rule="evenodd"/>
          </g>
          <g id="Grupo_1026257" data-name="Grupo 1026257" transform="translate(3.462)">
            <path id="Trazado_766643" data-name="Trazado 766643" d="M207.906,347.905l-1.547.687-.239-.239,1.45-.644Q207.736,347.811,207.906,347.905ZM214.081,333a8.13,8.13,0,0,1,2.351.969l.03.018-.442.2A10.738,10.738,0,0,0,213.3,333l-.608-1.579h.779Zm-7.961.539.239-.239,1.547.687q-.171.094-.337.2Zm11.349,0,.539-.239,1.823,1.823-.687,1.546a8.131,8.131,0,0,1,.987,2.381l1.578.607v2.578l-1.579.608a8.13,8.13,0,0,1-.987,2.381l.687,1.547-1.823,1.823-.539-.24,1.584-1.584-.687-1.547a8.132,8.132,0,0,0,.987-2.381l1.579-.608v-2.578l-1.578-.607a8.133,8.133,0,0,0-.987-2.381l.687-1.546Zm-1.037,14.387a8.131,8.131,0,0,1-2.351.969l-.607,1.578h-.779l.607-1.578a10.738,10.738,0,0,0,2.718-1.183l.442.2Z" transform="translate(-206.12 -331.419)" fill="#ffd064" fill-rule="evenodd"/>
          </g>
          <g id="Grupo_1026258" data-name="Grupo 1026258" transform="translate(2.414 2.421)">
            <circle id="Elipse_8594" data-name="Elipse 8594" cx="5.023" cy="5.023" r="5.023" transform="translate(0 7.103) rotate(-45)" fill="#eceff1"/>
          </g>
          <g id="Grupo_1026259" data-name="Grupo 1026259" transform="translate(4.503 4.502)">
            <path id="Trazado_766644" data-name="Trazado 766644" d="M219.7,368.456c.119,0,.236,0,.353.013a5.023,5.023,0,0,0,0,10.022q-.175.012-.353.013a5.023,5.023,0,1,1,0-10.047Z" transform="translate(-214.678 -368.456)" fill="#d1d1d6" fill-rule="evenodd"/>
          </g>
        </g>
        <g id="Grupo_1026271" data-name="Grupo 1026271" transform="translate(12.093 0)">
          <g id="Grupo_1026265" data-name="Grupo 1026265" transform="translate(0 2)">
            <g id="Grupo_1026263" data-name="Grupo 1026263">
              <g id="Grupo_1026261" data-name="Grupo 1026261" transform="translate(0 0)">
                <path id="Trazado_766645" data-name="Trazado 766645" d="M135.07,64.89v.58a1.27,1.27,0,0,1-1.266,1.266H131.34a1.27,1.27,0,0,1-1.266-1.266v-.58H116.187a.713.713,0,0,1-.712-.712V41.024a.713.713,0,0,1,.712-.712H148.93a.713.713,0,0,1,.712.712V64.178a.713.713,0,0,1-.712.712Z" transform="translate(-115.475 -40.312)" fill="#8d9ca8" fill-rule="evenodd"/>
              </g>
              <g id="Grupo_1026262" data-name="Grupo 1026262" transform="translate(17.113)">
                <path id="Trazado_766646" data-name="Trazado 766646" d="M258.727,64.889v.58a1.27,1.27,0,0,1-1.266,1.266h-1.216a1.27,1.27,0,0,0,1.266-1.266v-.58Zm12.644-24.578h1.216a.713.713,0,0,1,.712.712V64.177a.713.713,0,0,1-.712.712h-1.216a.713.713,0,0,0,.712-.712V41.023A.713.713,0,0,0,271.371,40.311Z" transform="translate(-256.245 -40.311)" fill="#8192a5" fill-rule="evenodd"/>
              </g>
            </g>
            <g id="Grupo_1026264" data-name="Grupo 1026264" transform="translate(2.213 0)">
              <path id="Trazado_766647" data-name="Trazado 766647" d="M133.683,40.311h29.739v21.07a1.71,1.71,0,0,1-1.69,1.708c-3.911.042-8.874.439-12.372,2.316a1.69,1.69,0,0,1-1.615,0c-3.5-1.877-8.461-2.274-12.372-2.316a1.71,1.71,0,0,1-1.69-1.708V40.311Z" transform="translate(-133.683 -40.311)" fill="#8192a5" fill-rule="evenodd"/>
            </g>
          </g>
          <g id="Grupo_1026270" data-name="Grupo 1026270" transform="translate(3.21)">
            <g id="Grupo_1026266" data-name="Grupo 1026266" transform="translate(0 0)">
              <path id="Trazado_766648" data-name="Trazado 766648" d="M142.6,23.863c6.461.044,8.281.693,13.156,2,4.875-1.306,6.7-1.956,13.156-2a.712.712,0,0,1,.717.712V46.932a.713.713,0,0,1-.7.712c-4.732.05-9.463.627-12.832,2.434a.693.693,0,0,1-.673,0c-3.369-1.807-8.1-2.383-12.833-2.434a.713.713,0,0,1-.7-.712V24.575a.712.712,0,0,1,.717-.712Z" transform="translate(-141.88 -23.863)" fill="#d1d1d6" fill-rule="evenodd"/>
            </g>
            <g id="Grupo_1026267" data-name="Grupo 1026267" transform="translate(0 21.646)">
              <path id="Trazado_766649" data-name="Trazado 766649" d="M169.626,201.921v1.424a.713.713,0,0,1-.7.712c-4.732.05-9.463.627-12.832,2.434a.693.693,0,0,1-.673,0c-3.369-1.807-8.1-2.383-12.833-2.434a.713.713,0,0,1-.7-.712v-1.424a.713.713,0,0,0,.7.712c4.732.05,9.463.627,12.833,2.434a.693.693,0,0,0,.673,0c3.369-1.807,8.1-2.383,12.832-2.434A.713.713,0,0,0,169.626,201.921Z" transform="translate(-141.88 -201.921)" fill="#b1b1b5" fill-rule="evenodd"/>
            </g>
            <g id="Grupo_1026268" data-name="Grupo 1026268" transform="translate(13.873)">
              <path id="Trazado_766650" data-name="Trazado 766650" d="M256,25.862c4.875-1.306,6.7-1.956,13.156-2a.712.712,0,0,1,.717.712V46.932a.713.713,0,0,1-.7.712c-4.732.05-9.463.627-12.833,2.434a.708.708,0,0,1-.336.087Z" transform="translate(-256 -23.862)" fill="#eceff1" fill-rule="evenodd"/>
            </g>
            <g id="Grupo_1026269" data-name="Grupo 1026269" transform="translate(13.873 21.646)">
              <path id="Trazado_766651" data-name="Trazado 766651" d="M269.873,201.921v1.424a.713.713,0,0,1-.7.712c-4.732.05-9.463.627-12.833,2.434a.708.708,0,0,1-.336.087v-1.424a.709.709,0,0,0,.336-.087c3.369-1.807,8.1-2.383,12.833-2.434A.713.713,0,0,0,269.873,201.921Z" transform="translate(-256 -201.921)" fill="#d1d1d6" fill-rule="evenodd"/>
            </g>
          </g>
        </g>
        <g id="Grupo_1026274" data-name="Grupo 1026274" transform="translate(8.564 29.608)">
          <g id="Grupo_1026272" data-name="Grupo 1026272">
            <circle id="Elipse_8595" data-name="Elipse 8595" cx="2.796" cy="2.796" r="2.796" transform="matrix(0.221, -0.975, 0.975, 0.221, 0, 5.452)" fill="#91b3fa"/>
          </g>
          <g id="Grupo_1026273" data-name="Grupo 1026273" transform="translate(2.746 0.548)">
            <path id="Trazado_766652" data-name="Trazado 766652" d="M109.648,271.916a2.805,2.805,0,0,0-.608.066,2.8,2.8,0,0,1,0,5.459,2.8,2.8,0,1,0,.608-5.525Z" transform="translate(-109.04 -271.916)" fill="#91b3fa" fill-rule="evenodd"/>
          </g>
        </g>
        <g id="Grupo_1026277" data-name="Grupo 1026277" transform="translate(0 44.119)">
          <g id="Grupo_1026275" data-name="Grupo 1026275">
            <circle id="Elipse_8596" data-name="Elipse 8596" cx="2.796" cy="2.796" r="2.796" fill="#57dbd8"/>
          </g>
          <g id="Grupo_1026276" data-name="Grupo 1026276" transform="translate(2.188)">
            <path id="Trazado_766653" data-name="Trazado 766653" d="M34.607,386.779a2.805,2.805,0,0,0-.608.066,2.8,2.8,0,0,1,0,5.459,2.8,2.8,0,1,0,.608-5.525Z" transform="translate(-33.999 -386.779)" fill="#57dbd8" fill-rule="evenodd"/>
          </g>
        </g>
        <g id="Grupo_1026280" data-name="Grupo 1026280" transform="translate(43.638 30.155)">
          <g id="Grupo_1026278" data-name="Grupo 1026278">
            <circle id="Elipse_8597" data-name="Elipse 8597" cx="2.796" cy="2.796" r="2.796" fill="#fe7062"/>
          </g>
          <g id="Grupo_1026279" data-name="Grupo 1026279" transform="translate(2.188 0)">
            <path id="Trazado_766654" data-name="Trazado 766654" d="M393.568,271.918a2.8,2.8,0,1,1-.608,5.525,2.8,2.8,0,0,0,0-5.459A2.811,2.811,0,0,1,393.568,271.918Z" transform="translate(-392.96 -271.918)" fill="#fe7062" fill-rule="evenodd"/>
          </g>
        </g>
        <g id="Grupo_1026283" data-name="Grupo 1026283" transform="translate(52.76 44.119)">
          <g id="Grupo_1026281" data-name="Grupo 1026281">
            <circle id="Elipse_8598" data-name="Elipse 8598" cx="2.796" cy="2.796" r="2.796" fill="#ffe177"/>
          </g>
          <g id="Grupo_1026282" data-name="Grupo 1026282" transform="translate(2.188)">
            <path id="Trazado_766655" data-name="Trazado 766655" d="M468.608,386.779a2.805,2.805,0,0,0-.608.066,2.8,2.8,0,0,1,0,5.459,2.8,2.8,0,1,0,.608-5.525Z" transform="translate(-468 -386.779)" fill="#ffd064" fill-rule="evenodd"/>
          </g>
        </g>
      </g>
      <g id="Grupo_1026285" data-name="Grupo 1026285" transform="translate(8.002 15.861)">
        <path id="Trazado_766656" data-name="Trazado 766656" d="M66.354,63.749a1.824,1.824,0,1,0-1.824,1.823A1.826,1.826,0,0,0,66.354,63.749ZM55.408,51.608a1.823,1.823,0,1,0-1.824-1.823A1.825,1.825,0,0,0,55.408,51.608ZM22.716,49.785a1.823,1.823,0,1,0-1.824,1.823A1.826,1.826,0,0,0,22.716,49.785ZM13.594,63.749a1.824,1.824,0,1,0-1.824,1.823A1.826,1.826,0,0,0,13.594,63.749ZM36.932,44.285H39.4a.3.3,0,0,0,.294-.293v-.45q-.558.252-1.053.537a.971.971,0,0,1-.972,0q-.482-.278-1.026-.525v.438a.3.3,0,0,0,.294.293Zm-14.89-1.846h11.2a40.491,40.491,0,0,0-8.966-.854.973.973,0,0,1-.972-.973v-20.8H22.042Zm3.209-2.792V17.811a35.978,35.978,0,0,1,11.475,1.648l.451.122V41.662c-2.936-1.278-6.865-1.941-11.927-2.015ZM39.575,19.459l-.452.122V41.663c2.937-1.279,6.865-1.942,11.927-2.016V17.811A35.981,35.981,0,0,0,39.575,19.459ZM52.023,41.584A.973.973,0,0,0,53,40.612v-20.8H54.26V42.439h-11.2A40.5,40.5,0,0,1,52.023,41.584ZM68.3,63.749a3.769,3.769,0,0,1-7.41.972H55.408a.973.973,0,0,1-.973-.972V53.425a3.784,3.784,0,0,1-2.668-2.668H24.533a3.782,3.782,0,0,1-2.668,2.668V63.749a.972.972,0,0,1-.972.972H15.411a3.769,3.769,0,1,1,0-1.945h4.51v-9.35a3.768,3.768,0,1,1,4.613-4.613H37.192V46.23h-.26a2.243,2.243,0,0,1-2.2-1.846H21.069a.973.973,0,0,1-.973-.973V18.835a.973.973,0,0,1,.973-.972h2.237V16.834a.973.973,0,0,1,.972-.973,38.968,38.968,0,0,1,12.957,1.72l.916.248.916-.248a38.972,38.972,0,0,1,12.956-1.72.973.973,0,0,1,.973.973v1.029h2.238a.973.973,0,0,1,.973.972V43.411a.973.973,0,0,1-.973.973H41.6a2.242,2.242,0,0,1-2.2,1.846h-.259v2.582H51.767a3.769,3.769,0,1,1,4.613,4.613v9.35h4.509a3.769,3.769,0,0,1,7.41.973Zm-26.627.019a3.526,3.526,0,1,0-3.526,3.525A3.53,3.53,0,0,0,41.671,63.768Zm1.945,0a5.471,5.471,0,1,0-5.471,5.47,5.477,5.477,0,0,0,5.471-5.47Zm3.088-.641-.956-.367a.97.97,0,0,1-.6-.683,7.153,7.153,0,0,0-.869-2.1.971.971,0,0,1-.061-.905l.415-.936-.879-.88-.937.416a.973.973,0,0,1-.9-.06,7.143,7.143,0,0,0-2.1-.869.973.973,0,0,1-.682-.6l-.368-.956H37.529l-.368.956a.973.973,0,0,1-.683.6,7.141,7.141,0,0,0-2.1.869.973.973,0,0,1-.9.06l-.937-.416-.879.88.416.936a.971.971,0,0,1-.061.9,7.158,7.158,0,0,0-.869,2.1.972.972,0,0,1-.6.683l-.955.367V64.37l.954.367a.973.973,0,0,1,.6.683,7.15,7.15,0,0,0,.869,2.1.972.972,0,0,1,.061.9l-.415.936.879.879.937-.416a.973.973,0,0,1,.9.061,7.154,7.154,0,0,0,2.1.869.972.972,0,0,1,.683.6l.368.956h1.243l.367-.955a.972.972,0,0,1,.683-.6,7.152,7.152,0,0,0,2.1-.869.972.972,0,0,1,.9-.061l.936.416.879-.879-.415-.936a.97.97,0,0,1,.06-.9,7.134,7.134,0,0,0,.869-2.1.972.972,0,0,1,.6-.683l.956-.368V63.127Zm1.945-.667a.973.973,0,0,0-.624-.908l-1.116-.43a9.054,9.054,0,0,0-.709-1.708l.486-1.095a.971.971,0,0,0-.2-1.083l-1.823-1.823a.974.974,0,0,0-1.083-.2l-1.095.486a9.109,9.109,0,0,0-1.707-.708l-.43-1.118a.973.973,0,0,0-.907-.623H36.862a.972.972,0,0,0-.908.623l-.43,1.118a9.1,9.1,0,0,0-1.707.708l-1.1-.486a.973.973,0,0,0-1.083.2l-1.823,1.823a.972.972,0,0,0-.2,1.083l.486,1.095a9.088,9.088,0,0,0-.708,1.708l-1.117.43a.973.973,0,0,0-.623.908v2.578a.973.973,0,0,0,.623.908l1.117.43a9.124,9.124,0,0,0,.708,1.708l-.486,1.095a.972.972,0,0,0,.2,1.083l1.823,1.823a.973.973,0,0,0,1.083.2l1.1-.486a9.092,9.092,0,0,0,1.707.708l.43,1.118a.972.972,0,0,0,.907.623H39.44a.973.973,0,0,0,.907-.623l.43-1.117a9.085,9.085,0,0,0,1.708-.708l1.094.486a.974.974,0,0,0,1.083-.2l1.823-1.823a.972.972,0,0,0,.2-1.083l-.486-1.1a9.076,9.076,0,0,0,.708-1.707l1.117-.43a.973.973,0,0,0,.624-.908V62.459ZM40.341,23.208a.973.973,0,0,1-.266-1.908,34.349,34.349,0,0,1,9.73-1.426.973.973,0,0,1,.052,1.944,32.676,32.676,0,0,0-9.25,1.353A.978.978,0,0,1,40.341,23.208Zm9.461.626a.973.973,0,0,1,.057,1.944,31.765,31.765,0,0,0-9.236,1.4.973.973,0,1,1-.564-1.861A33.923,33.923,0,0,1,49.8,23.834Zm0,3.961a.972.972,0,0,1,.061,1.944,31.063,31.063,0,0,0-9.223,1.439.973.973,0,0,1-.6-1.852A33.26,33.26,0,0,1,49.8,27.8Zm0,3.961a.972.972,0,0,1,.063,1.944,30.6,30.6,0,0,0-9.21,1.471.961.961,0,0,1-.312.052.973.973,0,0,1-.313-1.893A32.393,32.393,0,0,1,49.8,31.756Zm0,3.961a.972.972,0,0,1,.067,1.944,30.241,30.241,0,0,0-9.2,1.5.973.973,0,0,1-.652-1.833A32.1,32.1,0,0,1,49.8,35.717Zm-23.354-13.9a.973.973,0,1,1,.053-1.944,34.353,34.353,0,0,1,9.73,1.426.973.973,0,1,1-.532,1.871,32.684,32.684,0,0,0-9.25-1.353Zm0,3.961a.973.973,0,0,1,.057-1.944,33.922,33.922,0,0,1,9.743,1.483.972.972,0,0,1-.563,1.861,31.769,31.769,0,0,0-9.237-1.4Zm9.816,3.548a.973.973,0,1,1-.6,1.852,31.063,31.063,0,0,0-9.223-1.439A.972.972,0,1,1,26.5,27.8a33.266,33.266,0,0,1,9.757,1.531Zm.015,4a.972.972,0,1,1-.625,1.841A30.6,30.6,0,0,0,26.438,33.7a.972.972,0,0,1,.064-1.944,32.388,32.388,0,0,1,9.77,1.573Zm.6,5.237a.971.971,0,0,1-1.242.59,30.242,30.242,0,0,0-9.2-1.5.972.972,0,0,1,.067-1.944,32.1,32.1,0,0,1,9.782,1.606.973.973,0,0,1,.59,1.243Z" transform="translate(-8.002 -15.861)" fill="#242222" fill-rule="evenodd"/>
      </g>
    </g>
  </g>
</svg>
