<svg xmlns="http://www.w3.org/2000/svg" xmlns:xlink="http://www.w3.org/1999/xlink" width="400" height="240" viewBox="0 0 400 240">
  <defs>
    <linearGradient id="linear-gradient" x1="0.5" y1="1" x2="0.5" gradientUnits="objectBoundingBox">
      <stop offset="0" stop-color="#fff"/>
      <stop offset="0.742" stop-color="#f1f1f1"/>
      <stop offset="1" stop-color="#fff"/>
    </linearGradient>
    <clipPath id="clip-path">
      <rect id="Rectángulo_359869" data-name="Rectángulo 359869" width="271.263" height="160.7" fill="none"/>
    </clipPath>
    <clipPath id="clip-path-2">
      <path id="Trazado_767002" data-name="Trazado 767002" d="M130.492,1.563a9.694,9.694,0,0,0-9.65,8.767L108.213,141.648a8.442,8.442,0,0,0,7.575,9.209l98.414,9.69q.447.043.889.047h.147a9.708,9.708,0,0,0,9.584-8.872L236.755,13.057A10.586,10.586,0,0,0,226.208,1.563Z" transform="translate(-108.174 -1.563)" fill="none"/>
    </clipPath>
    <linearGradient id="linear-gradient-2" x1="-0.519" y1="1.024" x2="-0.513" y2="1.024" gradientUnits="objectBoundingBox">
      <stop offset="0" stop-color="#7f7f7f"/>
      <stop offset="1" stop-color="#444"/>
    </linearGradient>
    <clipPath id="clip-path-3">
      <path id="Trazado_767003" data-name="Trazado 767003" d="M128.732,0a9.694,9.694,0,0,0-9.651,8.767L106.45,140.085a8.443,8.443,0,0,0,7.576,9.209l98.414,9.69a9.705,9.705,0,0,0,10.62-8.826L234.993,11.495A10.586,10.586,0,0,0,224.446,0Z" transform="translate(-106.411 -0.001)" fill="none"/>
    </clipPath>
    <linearGradient id="linear-gradient-3" x1="-0.407" y1="0.951" x2="-0.402" y2="0.951" xlink:href="#linear-gradient-2"/>
    <clipPath id="clip-path-4">
      <path id="Trazado_767004" data-name="Trazado 767004" d="M128.482,3.664a5.759,5.759,0,0,0-5.758,5.224l-1.056,10.992L110.1,140.212a4.538,4.538,0,0,0,4.06,4.944l98.415,9.684a4.843,4.843,0,0,0,.578.031,5.836,5.836,0,0,0,5.765-5.3L229.963,21.208l.883-10.3a6.662,6.662,0,0,0-6.65-7.243Z" transform="translate(-110.077 -3.664)" fill="none"/>
    </clipPath>
    <linearGradient id="linear-gradient-4" x1="-0.526" y1="1.04" x2="-0.52" y2="1.04" gradientUnits="objectBoundingBox">
      <stop offset="0" stop-color="#fbfbfb"/>
      <stop offset="1" stop-color="#e5e5e5"/>
    </linearGradient>
    <clipPath id="clip-path-5">
      <path id="Trazado_767005" data-name="Trazado 767005" d="M234.647,10.744,222.713,149.407a9.7,9.7,0,0,1-10.619,8.825l-98.414-9.69a8.418,8.418,0,0,1-6.154-3.658,8.422,8.422,0,0,0,6.424,4.1l98.413,9.69a9.705,9.705,0,0,0,10.621-8.824L234.917,11.183a10.514,10.514,0,0,0-1.641-6.612,10.515,10.515,0,0,1,1.37,6.173" transform="translate(-107.526 -4.571)" fill="none"/>
    </clipPath>
    <linearGradient id="linear-gradient-5" x1="-0.435" y1="0.946" x2="-0.43" y2="0.946" gradientUnits="objectBoundingBox">
      <stop offset="0" stop-color="#7f7f7f"/>
      <stop offset="1" stop-color="#fefeff"/>
    </linearGradient>
    <clipPath id="clip-path-7">
      <path id="Trazado_767014" data-name="Trazado 767014" d="M125.141,48.606c6.96.376,10.422.554,17.32.9,0,0,.706-5.626-6.316-6.763a15.732,15.732,0,0,0-2.514-.214c-7.334,0-8.49,6.079-8.49,6.079" transform="translate(-125.141 -42.527)" fill="none"/>
    </clipPath>
    <linearGradient id="linear-gradient-6" x1="-7.705" y1="6.735" x2="-7.643" y2="6.735" gradientUnits="objectBoundingBox">
      <stop offset="0" stop-color="#fbfbfb"/>
      <stop offset="0.681" stop-color="#e5e5e5"/>
      <stop offset="1" stop-color="#a4a4a6"/>
    </linearGradient>
    <clipPath id="clip-path-8">
      <path id="Trazado_767015" data-name="Trazado 767015" d="M130.724,35.113a7.94,7.94,0,0,0-.551,2.553c.183.5.449.529.449.529a3.779,3.779,0,0,0-.639.867c-.041.224-.382,3.387-.056,3.508s2.172.625,2.172.625c-.042.439-.063.659-.1,1.1,0,0,.054.65,2.109.753a3.835,3.835,0,0,0,2.947-.846c.556-3.264.834-4.9,1.391-8.152a30.982,30.982,0,0,0-6.512-1.374c-.65,0-1.11.122-1.206.439" transform="translate(-129.787 -34.674)" fill="none"/>
    </clipPath>
    <linearGradient id="linear-gradient-7" x1="-9.935" y1="9.199" x2="-9.857" y2="9.199" gradientUnits="objectBoundingBox">
      <stop offset="0" stop-color="#ffd4ae"/>
      <stop offset="1" stop-color="#e5a26a"/>
    </linearGradient>
    <clipPath id="clip-path-9">
      <path id="Trazado_767016" data-name="Trazado 767016" d="M129.532,34.286a4.335,4.335,0,0,0,3.75,2.343c2.5.218,2.99-.085,3.076-.172-.13.17-.939,1.266-.46,1.778.52.556-.512,1.752.121,1.939.315.1.531-.473.768-1.04s.49-1.136.883-1.042c.783.188-1.18,1.96-.246,2.555s3.1-2.081,3.238-3.52a2.868,2.868,0,0,0-1.3-2.374s.744-2.544-2.949-2.715c-.125-.005-.25-.009-.374-.009a12.146,12.146,0,0,0-6.51,2.258" transform="translate(-129.532 -32.028)" fill="none"/>
    </clipPath>
    <linearGradient id="linear-gradient-8" x1="-9.483" y1="8.88" x2="-9.409" y2="8.88" xlink:href="#linear-gradient-2"/>
    <clipPath id="clip-path-11">
      <path id="Trazado_767020" data-name="Trazado 767020" d="M151.567,48.724l-1.908.187c.495.564.74.846,1.234,1.411l-.5,1.886c.707-.326,1.061-.489,1.766-.816.639.392.958.589,1.595.982l-.139-1.921,1.487-1.284-1.851-.365c-.27-.709-.406-1.062-.676-1.769l-1.005,1.69" transform="translate(-149.659 -47.034)" fill="none"/>
    </clipPath>
    <linearGradient id="linear-gradient-9" x1="-27.473" y1="18.762" x2="-27.289" y2="18.762" gradientUnits="objectBoundingBox">
      <stop offset="0" stop-color="#fe7f0a"/>
      <stop offset="1" stop-color="#ffb538"/>
    </linearGradient>
    <clipPath id="clip-path-12">
      <path id="Trazado_767021" data-name="Trazado 767021" d="M159.393,49.089l-1.9.191c.491.565.737.849,1.228,1.415-.2.758-.3,1.139-.5,1.9.7-.328,1.056-.493,1.761-.822.637.393.955.59,1.589.984l-.139-1.929,1.482-1.293-1.846-.364c-.269-.711-.4-1.066-.673-1.775-.4.678-.6,1.019-1,1.7" transform="translate(-157.493 -47.391)" fill="none"/>
    </clipPath>
    <linearGradient id="linear-gradient-10" x1="-28.806" y1="18.746" x2="-28.623" y2="18.746" xlink:href="#linear-gradient-9"/>
    <clipPath id="clip-path-13">
      <path id="Trazado_767022" data-name="Trazado 767022" d="M167.2,49.446l-1.895.194,1.225,1.422c-.2.762-.3,1.143-.5,1.905.7-.33,1.054-.5,1.756-.829.634.4.952.592,1.586.988-.056-.776-.083-1.165-.14-1.94.593-.52.888-.781,1.479-1.3l-1.841-.364c-.268-.715-.4-1.071-.671-1.784l-1,1.708" transform="translate(-165.302 -47.738)" fill="none"/>
    </clipPath>
    <linearGradient id="linear-gradient-11" x1="-30.103" y1="18.719" x2="-29.921" y2="18.719" xlink:href="#linear-gradient-9"/>
    <clipPath id="clip-path-14">
      <path id="Trazado_767023" data-name="Trazado 767023" d="M174.979,49.8l-1.89.2,1.223,1.427c-.2.766-.3,1.149-.5,1.916l1.752-.834,1.583.99c-.057-.78-.084-1.17-.14-1.949.59-.523.884-.784,1.474-1.308l-1.836-.365-.671-1.791-1,1.717" transform="translate(-173.089 -48.079)" fill="none"/>
    </clipPath>
    <linearGradient id="linear-gradient-12" x1="-31.389" y1="18.687" x2="-31.207" y2="18.687" xlink:href="#linear-gradient-9"/>
    <clipPath id="clip-path-15">
      <path id="Trazado_767024" data-name="Trazado 767024" d="M182.744,50.142l-1.885.2,1.221,1.433c-.2.771-.3,1.157-.5,1.928.7-.335,1.049-.5,1.747-.841l1.581,1c-.057-.785-.084-1.178-.14-1.961l1.47-1.316-1.833-.366c-.268-.721-.4-1.082-.671-1.8-.4.69-.595,1.035-.993,1.726" transform="translate(-180.859 -48.416)" fill="none"/>
    </clipPath>
    <linearGradient id="linear-gradient-13" x1="-32.637" y1="18.651" x2="-32.456" y2="18.651" xlink:href="#linear-gradient-9"/>
    <clipPath id="clip-path-16">
      <path id="Trazado_767025" data-name="Trazado 767025" d="M206.482,36.361c.786,2.2,1.179,3.307,1.966,5.533,2.811-1.187,4.216-1.78,7.022-2.968-.314-.912-.471-1.366-.784-2.273-2.076.821-3.116,1.233-5.194,2.052-.325-1.276-.486-1.913-.81-3.18l-2.2.836" transform="translate(-206.482 -35.525)" fill="none"/>
    </clipPath>
    <linearGradient id="linear-gradient-14" x1="-30.931" y1="13.05" x2="-30.782" y2="13.05" xlink:href="#linear-gradient-4"/>
    <clipPath id="clip-path-18">
      <path id="Trazado_767029" data-name="Trazado 767029" d="M122.016,81.957c6.918.508,10.366.758,17.246,1.255,0,0,.7-5.65-6.3-6.928a15.357,15.357,0,0,0-2.755-.266c-7.082,0-8.193,5.938-8.193,5.938" transform="translate(-122.016 -76.019)" fill="none"/>
    </clipPath>
    <linearGradient id="linear-gradient-15" x1="-7.463" y1="4.715" x2="-7.402" y2="4.715" xlink:href="#linear-gradient-6"/>
    <clipPath id="clip-path-19">
      <path id="Trazado_767030" data-name="Trazado 767030" d="M127.559,68.528a7.962,7.962,0,0,0-.546,2.558c.182.508.448.538.448.538a3.69,3.69,0,0,0-.636.861c-.041.226-.38,3.394-.054,3.52s2.163.668,2.163.668c-.041.44-.061.66-.1,1.1,0,0,.053.654,2.1.8a3.738,3.738,0,0,0,2.935-.791c.553-3.273.83-4.909,1.383-8.185,0,0-4.423-1.487-6.569-1.487-.606,0-1.03.119-1.123.422" transform="translate(-126.631 -68.106)" fill="none"/>
    </clipPath>
    <linearGradient id="linear-gradient-16" x1="-9.634" y1="6.541" x2="-9.556" y2="6.541" xlink:href="#linear-gradient-7"/>
    <clipPath id="clip-path-20">
      <path id="Trazado_767031" data-name="Trazado 767031" d="M126.374,67.676a4.409,4.409,0,0,0,3.736,2.414c2.493.26,2.978-.037,3.064-.124-.13.169-.937,1.259-.458,1.785.518.569-.509,1.755.121,1.955.314.1.53-.467.765-1.035s.489-1.137.88-1.035c.782.2-1.177,1.953-.244,2.57s3.09-2.041,3.228-3.49a2.971,2.971,0,0,0-1.3-2.421s.741-2.56-2.94-2.786c-.166-.011-.33-.015-.493-.015a11.881,11.881,0,0,0-6.361,2.183" transform="translate(-126.374 -65.493)" fill="none"/>
    </clipPath>
    <linearGradient id="linear-gradient-17" x1="-9.209" y1="6.395" x2="-9.136" y2="6.395" xlink:href="#linear-gradient-2"/>
    <clipPath id="clip-path-22">
      <path id="Trazado_767035" data-name="Trazado 767035" d="M148.355,82.644l-1.905.144,1.233,1.448c-.2.754-.3,1.13-.5,1.883.706-.311,1.06-.466,1.764-.778.639.409.957.614,1.594,1.024-.056-.773-.083-1.16-.14-1.933.595-.5.892-.754,1.486-1.258l-1.85-.412c-.27-.72-.4-1.079-.676-1.8-.4.672-.6,1.008-1,1.679" transform="translate(-146.45 -80.965)" fill="none"/>
    </clipPath>
    <linearGradient id="linear-gradient-18" x1="-26.597" y1="12.615" x2="-26.415" y2="12.615" xlink:href="#linear-gradient-9"/>
    <clipPath id="clip-path-23">
      <path id="Trazado_767036" data-name="Trazado 767036" d="M156.181,83.2l-1.9.147,1.228,1.455c-.2.758-.3,1.139-.5,1.9l1.762-.783c.637.411.955.616,1.589,1.03-.056-.779-.082-1.167-.138-1.946.593-.5.89-.758,1.482-1.265-.739-.167-1.108-.249-1.847-.413-.269-.724-.4-1.086-.673-1.808-.4.675-.6,1.013-1,1.688" transform="translate(-154.28 -81.512)" fill="none"/>
    </clipPath>
    <linearGradient id="linear-gradient-19" x1="-27.876" y1="12.53" x2="-27.695" y2="12.53" xlink:href="#linear-gradient-9"/>
    <clipPath id="clip-path-24">
      <path id="Trazado_767037" data-name="Trazado 767037" d="M163.992,83.755l-1.9.148,1.226,1.464c-.2.763-.3,1.144-.5,1.905.7-.314,1.055-.472,1.759-.788.635.413.953.621,1.588,1.036-.056-.784-.084-1.175-.14-1.958.594-.508.89-.763,1.481-1.272l-1.843-.417-.673-1.819c-.4.68-.6,1.02-1,1.7" transform="translate(-162.094 -82.056)" fill="none"/>
    </clipPath>
    <linearGradient id="linear-gradient-20" x1="-29.127" y1="12.439" x2="-28.947" y2="12.439" xlink:href="#linear-gradient-9"/>
    <clipPath id="clip-path-25">
      <path id="Trazado_767038" data-name="Trazado 767038" d="M171.791,84.312l-1.895.15,1.224,1.473c-.2.767-.3,1.15-.5,1.917l1.756-.794c.634.417.953.624,1.586,1.041l-.139-1.97c.592-.511.888-.768,1.478-1.281l-1.84-.418L172.79,82.6c-.4.684-.6,1.026-1,1.709" transform="translate(-169.896 -82.603)" fill="none"/>
    </clipPath>
    <linearGradient id="linear-gradient-21" x1="-30.374" y1="12.349" x2="-30.195" y2="12.349" xlink:href="#linear-gradient-9"/>
    <clipPath id="clip-path-26">
      <path id="Trazado_767039" data-name="Trazado 767039" d="M179.579,84.872c-.756.059-1.135.09-1.893.151.49.591.735.888,1.225,1.48-.2.772-.3,1.158-.5,1.928l1.754-.8,1.585,1.047c-.057-.791-.084-1.188-.141-1.98.591-.515.887-.771,1.476-1.288l-1.839-.421c-.268-.736-.4-1.1-.673-1.839l-1,1.721" transform="translate(-177.686 -83.151)" fill="none"/>
    </clipPath>
    <linearGradient id="linear-gradient-22" x1="-31.6" y1="12.252" x2="-31.421" y2="12.252" xlink:href="#linear-gradient-9"/>
    <clipPath id="clip-path-27">
      <path id="Trazado_767040" data-name="Trazado 767040" d="M203.425,71.417c.79,2.3,1.186,3.453,1.976,5.763,2.826-1.143,4.238-1.717,7.06-2.871-.314-.952-.472-1.426-.787-2.378-2.088.8-3.133,1.2-5.223,1.991l-.813-3.317-2.213.812" transform="translate(-203.425 -70.605)" fill="none"/>
    </clipPath>
    <linearGradient id="linear-gradient-23" x1="-29.597" y1="9.048" x2="-29.452" y2="9.048" xlink:href="#linear-gradient-4"/>
    <clipPath id="clip-path-29">
      <path id="Trazado_767044" data-name="Trazado 767044" d="M118.933,115.193c6.869.622,10.3.93,17.151,1.548,0,0,.689-5.587-6.274-7a15.055,15.055,0,0,0-2.98-.32c-6.83,0-7.9,5.77-7.9,5.77" transform="translate(-118.933 -109.423)" fill="none"/>
    </clipPath>
    <linearGradient id="linear-gradient-24" x1="-7.263" y1="2.732" x2="-7.202" y2="2.732" xlink:href="#linear-gradient-6"/>
    <clipPath id="clip-path-30">
      <path id="Trazado_767045" data-name="Trazado 767045" d="M124.433,101.915a7.853,7.853,0,0,0-.543,2.539c.181.511.444.546.444.546a3.574,3.574,0,0,0-.631.846c-.04.223-.375,3.374-.05,3.508s2.15.7,2.15.7l-.1,1.094s.053.652,2.089.832a3.668,3.668,0,0,0,2.921-.731c.548-3.242.822-4.864,1.372-8.115,0,0-4.53-1.622-6.627-1.622-.554,0-.938.113-1.024.4" transform="translate(-123.513 -101.516)" fill="none"/>
    </clipPath>
    <linearGradient id="linear-gradient-25" x1="-9.392" y1="3.932" x2="-9.314" y2="3.932" xlink:href="#linear-gradient-7"/>
    <clipPath id="clip-path-31">
      <path id="Trazado_767046" data-name="Trazado 767046" d="M123.252,101.035a4.513,4.513,0,0,0,3.717,2.484c2.482.312,2.964.025,3.049-.059-.129.164-.932,1.235-.456,1.768.517.578-.506,1.737.121,1.948.313.107.527-.453.76-1.013s.487-1.123.876-1.013c.779.219-1.168,1.919-.24,2.553s3.075-1.965,3.212-3.406A3.038,3.038,0,0,0,133,101.859s.736-2.537-2.93-2.841c-.225-.019-.45-.028-.671-.028a11.608,11.608,0,0,0-6.147,2.045" transform="translate(-123.252 -98.99)" fill="none"/>
    </clipPath>
    <linearGradient id="linear-gradient-26" x1="-8.993" y1="3.946" x2="-8.919" y2="3.946" xlink:href="#linear-gradient-2"/>
    <clipPath id="clip-path-33">
      <path id="Trazado_767050" data-name="Trazado 767050" d="M145.154,116.354l-1.9.106,1.229,1.453-.5,1.848,1.761-.735,1.591,1.038c-.057-.763-.084-1.144-.14-1.907l1.484-1.209-1.848-.443-.675-1.787c-.4.656-.6.983-1,1.636" transform="translate(-143.253 -114.718)" fill="none"/>
    </clipPath>
    <linearGradient id="linear-gradient-27" x1="-26.27" y1="6.526" x2="-26.087" y2="6.526" xlink:href="#linear-gradient-9"/>
    <clipPath id="clip-path-34">
      <path id="Trazado_767051" data-name="Trazado 767051" d="M152.971,117.059l-1.9.106,1.229,1.454c-.2.741-.3,1.112-.5,1.851l1.76-.736c.636.417.954.625,1.59,1.039l-.139-1.909,1.482-1.211-1.847-.444c-.27-.716-.4-1.073-.674-1.79l-1,1.641" transform="translate(-151.07 -115.418)" fill="none"/>
    </clipPath>
    <linearGradient id="linear-gradient-28" x1="-27.666" y1="6.4" x2="-27.482" y2="6.4" xlink:href="#linear-gradient-9"/>
    <clipPath id="clip-path-35">
      <path id="Trazado_767052" data-name="Trazado 767052" d="M160.783,117.762l-1.9.106,1.228,1.458c-.2.742-.3,1.112-.5,1.852l1.76-.736,1.588,1.04c-.056-.764-.083-1.146-.139-1.912.594-.485.89-.727,1.482-1.213l-1.846-.444c-.269-.717-.4-1.077-.672-1.794-.4.658-.6.987-1,1.644" transform="translate(-158.883 -116.118)" fill="none"/>
    </clipPath>
    <linearGradient id="linear-gradient-29" x1="-29.051" y1="6.275" x2="-28.868" y2="6.275" xlink:href="#linear-gradient-9"/>
    <clipPath id="clip-path-36">
      <path id="Trazado_767053" data-name="Trazado 767053" d="M168.59,118.465l-1.9.108c.49.583.735.876,1.226,1.459-.2.743-.3,1.115-.5,1.856l1.759-.737,1.589,1.041c-.057-.765-.084-1.148-.14-1.914.593-.487.89-.729,1.481-1.217l-1.845-.444-.673-1.8c-.4.659-.6.988-1,1.645" transform="translate(-166.693 -116.82)" fill="none"/>
    </clipPath>
    <linearGradient id="linear-gradient-30" x1="-30.437" y1="6.149" x2="-30.254" y2="6.149" xlink:href="#linear-gradient-9"/>
    <clipPath id="clip-path-37">
      <path id="Trazado_767054" data-name="Trazado 767054" d="M176.4,119.172c-.758.042-1.139.064-1.9.107l1.228,1.462c-.2.743-.3,1.116-.5,1.856l1.759-.737,1.588,1.043c-.056-.766-.084-1.15-.14-1.917l1.48-1.218-1.845-.445-.673-1.8-1,1.65" transform="translate(-174.498 -117.522)" fill="none"/>
    </clipPath>
    <linearGradient id="linear-gradient-31" x1="-31.811" y1="6.02" x2="-31.628" y2="6.02" xlink:href="#linear-gradient-9"/>
    <clipPath id="clip-path-38">
      <path id="Trazado_767055" data-name="Trazado 767055" d="M200.34,106.637c.793,2.275,1.189,3.409,1.983,5.671,2.839-1.039,4.259-1.56,7.1-2.61-.316-.935-.473-1.4-.789-2.339-2.1.726-3.15,1.086-5.251,1.805-.327-1.3-.49-1.956-.816-3.265l-2.224.738" transform="translate(-200.34 -105.899)" fill="none"/>
    </clipPath>
    <linearGradient id="linear-gradient-32" x1="-29.815" y1="5.114" x2="-29.667" y2="5.114" xlink:href="#linear-gradient-4"/>
    <clipPath id="clip-path-40">
      <path id="Trazado_767059" data-name="Trazado 767059" d="M226.49,49.373c1.737,4.857,2.6,7.3,4.344,12.217,6.208-2.619,9.307-3.931,15.505-6.555-.692-2.012-1.038-3.016-1.73-5.02-4.586,1.815-6.881,2.721-11.471,4.533-.717-2.818-1.073-4.224-1.789-7.023l-4.859,1.848" transform="translate(-226.49 -47.525)" fill="none"/>
    </clipPath>
    <linearGradient id="linear-gradient-33" x1="-15.428" y1="5.391" x2="-15.361" y2="5.391" xlink:href="#linear-gradient-4"/>
    <clipPath id="clip-path-42">
      <path id="Trazado_767062" data-name="Trazado 767062" d="M36.488,125.483a1.919,1.919,0,0,0-.292.14l-.017.009c-.063.038-.124.083-.184.128-.013.011-.028.018-.04.029l0,0a2.157,2.157,0,0,0-.166.15l-.042.046c-.014.014-.028.03-.04.044s-.036.037-.053.058c-.037.046-.074.093-.109.143-.007.009-.013.019-.019.028a.233.233,0,0,0-.019.03c-.019.028-.038.056-.057.084-.03.047-.059.1-.088.147-.007.014-.014.03-.021.045a.267.267,0,0,0-.016.03c-.011.023-.024.045-.035.069-.022.048-.045.1-.067.15-.013.033-.027.067-.04.1,0,.007-.006.014-.01.022a.254.254,0,0,1-.01.026c-.019.05-.036.1-.053.156s-.033.106-.048.16l-.007.032-.007.027c-.01.035-.019.07-.028.108-.012.057-.025.114-.037.173s-.016.091-.025.137c0,.015,0,.029-.007.044-.01.062-.019.126-.027.189s-.014.129-.02.194v.026l0,.027c-.005.051-.009.1-.012.153,0,.069-.006.14-.007.211,0,.024,0,.048,0,.073v.05c0,.032,0,.065,0,.1,0,.075,0,.151.006.226,0,.035,0,.073.006.108l0,.052.005.069c.005.075.012.151.02.227,0,.05.011.1.018.152,0,.013,0,.025,0,.037l.005.036c.01.073.02.147.032.22s.026.151.04.225v.009c.015.074.03.147.046.222.019.092.041.184.064.275h0c.033.136.07.271.111.406,0,.015.01.03.015.044.028.093.06.185.091.277.021.063.041.126.063.189,0,.013.011.028.016.042.014.036.028.072.043.108.026.07.052.141.08.21s.047.112.072.167l.017.041a.275.275,0,0,0,.014.031c.03.068.061.136.093.2s.059.123.09.185c0,.009.01.017.013.026l.012.024.066.129.1.176c.021.037.044.075.065.113l.017.028.018.033c.035.06.07.119.107.177l.113.175.016.023.016.023c.028.043.058.087.087.128.041.058.081.114.124.171l.054.073.026.034c.016.018.03.038.045.058.042.053.085.107.128.159s.08.094.121.14l0,.005,0,0c.043.049.088.1.131.144s.088.093.132.137c.015.016.031.03.047.045l.026.027c.021.019.042.04.062.06.045.042.091.083.137.124s.089.076.132.112l.009.007c.049.04.1.078.145.114s.1.073.147.107l.036.025.03.019c.03.02.059.041.089.059.052.034.106.066.158.1.02.013.042.022.063.034l.042.022.064.034c.062.032.123.06.184.085.016.007.033.013.05.019l.056.022c.031.012.062.025.093.035.063.022.124.04.187.057l.03.009.01,0a2.46,2.46,0,0,0,.295.056h.01c.014,0,.027,0,.041,0a1.921,1.921,0,0,0,.246.011c.03,0,.059,0,.088,0a1.787,1.787,0,0,0,.2-.021c.028-.005.054-.009.081-.015a1.954,1.954,0,0,0,.261-.072l17.207-6.36h0a1.785,1.785,0,0,1-.258.074c-.027.005-.054.009-.082.013q-.1.016-.2.022c-.029,0-.059,0-.088,0a2.392,2.392,0,0,1-.246-.01c-.014,0-.028,0-.042,0a2.409,2.409,0,0,1-.313-.06l-.031-.01a2.358,2.358,0,0,1-.279-.091l-.056-.021a3.138,3.138,0,0,1-.3-.141l-.041-.021c-.1-.056-.206-.117-.31-.187l-.031-.021c-.111-.076-.223-.159-.336-.252s-.223-.192-.331-.3l-.027-.026c-.107-.1-.211-.215-.314-.329l0-.005c-.1-.114-.2-.234-.294-.357l-.026-.034q-.138-.181-.266-.372l-.015-.023c-.089-.134-.174-.269-.255-.41-.005-.009-.01-.017-.016-.026-.079-.138-.155-.277-.227-.42l-.012-.024c-.074-.146-.143-.294-.209-.445-.006-.013-.012-.027-.017-.041-.054-.124-.1-.249-.153-.376l-.042-.108c-.028-.076-.053-.154-.079-.231s-.063-.184-.091-.277c-.047-.15-.09-.3-.127-.451h0c-.042-.166-.078-.332-.11-.5v0c-.03-.162-.056-.324-.077-.486l0-.036c-.018-.15-.033-.3-.043-.449,0-.017,0-.035,0-.052-.01-.146-.013-.289-.012-.434v-.049c0-.147.007-.293.019-.436l0-.028c.013-.153.031-.305.057-.453s.054-.285.09-.419l.007-.026c.034-.13.075-.255.119-.375l.009-.022c.045-.112.092-.22.143-.32.005-.01.01-.02.016-.03a2.588,2.588,0,0,1,.164-.277l.019-.029a2.186,2.186,0,0,1,.182-.229c.013-.016.027-.03.04-.045a2.3,2.3,0,0,1,.211-.2c.013-.011.028-.018.04-.028a2.246,2.246,0,0,1,.2-.138,1.92,1.92,0,0,1,.292-.14Z" transform="translate(-34.876 -119.124)" fill="none"/>
    </clipPath>
    <linearGradient id="linear-gradient-34" x1="-1.345" y1="1.633" x2="-1.304" y2="1.633" xlink:href="#linear-gradient-4"/>
    <clipPath id="clip-path-44">
      <path id="Trazado_767064" data-name="Trazado 767064" d="M84.9,146.946c-16.539-2.138-27.132-18.719-23.647-37.039s19.726-31.429,36.264-29.29,27.131,18.72,23.646,37.039c-3.234,17-17.449,29.52-32.705,29.519a27.915,27.915,0,0,1-3.558-.23M54.457,109.03c-4.275,22.472,8.708,42.821,29.007,45.447s40.222-13.466,44.5-35.94-8.708-42.821-29.014-45.448a33.9,33.9,0,0,0-4.362-.281c-18.715,0-36.159,15.363-40.126,36.222" transform="translate(-53.643 -72.808)" fill="none"/>
    </clipPath>
    <linearGradient id="linear-gradient-35" x1="-0.455" y1="0.904" x2="-0.444" y2="0.904" xlink:href="#linear-gradient-2"/>
    <clipPath id="clip-path-45">
      <path id="Trazado_767065" data-name="Trazado 767065" d="M78.916,144.711a26.705,26.705,0,0,1-7.671-2.178c-11.983-5.483-18.886-19.567-15.981-34.858C58.753,89.357,75,76.248,91.53,78.383a26.389,26.389,0,0,1,10.637,3.788c10.136,6.3,15.674,19.27,13.013,33.257-3.235,17-17.45,29.511-32.7,29.512a27.817,27.817,0,0,1-3.564-.23M48.477,106.8c-4.279,22.472,8.711,42.818,29,45.443s40.226-13.471,44.5-35.942-8.7-42.819-29.013-45.442a34.083,34.083,0,0,0-4.373-.282c-18.712,0-36.152,15.36-40.115,36.223" transform="translate(-47.662 -70.578)" fill="none"/>
    </clipPath>
    <linearGradient id="linear-gradient-36" x1="-0.341" y1="0.905" x2="-0.331" y2="0.905" xlink:href="#linear-gradient-4"/>
    <clipPath id="clip-path-47">
      <rect id="Rectángulo_359848" data-name="Rectángulo 359848" width="58.259" height="65.178" fill="none"/>
    </clipPath>
    <clipPath id="clip-path-48">
      <path id="Trazado_767066" data-name="Trazado 767066" d="M114.549,114.842c2.659-13.985-2.878-26.958-13.014-33.256a26.16,26.16,0,0,0-7.653-2.18C77.339,77.263,61.1,90.37,57.617,108.7c-2.662,13.978,2.876,26.941,13,33.249a26.749,26.749,0,0,0,7.671,2.178c16.542,2.144,32.778-10.964,36.265-29.283" transform="translate(-56.953 -79.177)" fill="none"/>
    </clipPath>
    <linearGradient id="linear-gradient-37" x1="-0.71" y1="1.138" x2="-0.695" y2="1.138" gradientUnits="objectBoundingBox">
      <stop offset="0" stop-color="#3abaf9"/>
      <stop offset="1" stop-color="#267ebd"/>
    </linearGradient>
    <clipPath id="clip-path-49">
      <path id="Trazado_767067" data-name="Trazado 767067" d="M77.426,106.364a9.954,9.954,0,0,1-4.835,3.762c-3.285,1.188-5.189,3.761-2.059,4.653s10.058-2.97,10.058-2.97l3.466-2.871-.109-5.323s-5.925,1.952-6.521,2.75" transform="translate(-68.938 -103.614)" fill="none"/>
    </clipPath>
    <linearGradient id="linear-gradient-38" x1="-4.65" y1="2.812" x2="-4.581" y2="2.812" gradientUnits="objectBoundingBox">
      <stop offset="0" stop-color="#161616"/>
      <stop offset="1" stop-color="#444"/>
    </linearGradient>
    <clipPath id="clip-path-50">
      <path id="Trazado_767068" data-name="Trazado 767068" d="M68.182,76.844c-.109,3.4,7.572,31.111,7.572,31.111s-.013,2.958,3.493,2.41,5.367-5.039,5.367-5.039l2.082-26.51,5.968-11.433-8.8-5.633s-15.567,11.7-15.677,15.094" transform="translate(-68.181 -61.75)" fill="none"/>
    </clipPath>
    <linearGradient id="linear-gradient-39" x1="-1.049" y1="2.03" x2="-1.03" y2="2.03" xlink:href="#linear-gradient-2"/>
    <clipPath id="clip-path-51">
      <path id="Trazado_767069" data-name="Trazado 767069" d="M90.284,67.671S78.02,78.285,77.253,80.694s2.26,28.151,2.26,28.151.658,2.614,4.273,2.286,4.71-2.286,4.71-2.286L86.853,87.8s12.707-7.778,17.308-10.955.657-11.438.657-11.438a2.366,2.366,0,0,0-1.7-.419c-3.928,0-12.832,2.686-12.832,2.686" transform="translate(-77.128 -64.985)" fill="none"/>
    </clipPath>
    <linearGradient id="linear-gradient-40" x1="-1.236" y1="1.83" x2="-1.217" y2="1.83" xlink:href="#linear-gradient-2"/>
    <clipPath id="clip-path-53">
      <path id="Trazado_767073" data-name="Trazado 767073" d="M91.843,36.739V39.4s1.1,1.63,3.738.64,3.336-2.1,3.336-2.1l-.578-5.741Z" transform="translate(-91.843 -32.192)" fill="none"/>
    </clipPath>
    <linearGradient id="linear-gradient-41" x1="-10.8" y1="12.358" x2="-10.681" y2="12.358" xlink:href="#linear-gradient-7"/>
    <clipPath id="clip-path-54">
      <path id="Trazado_767074" data-name="Trazado 767074" d="M88.371,25.187s-.554,3.518-.3,4.178a8.927,8.927,0,0,0,.586,1.21,1.248,1.248,0,0,0-.654,1.025,28.735,28.735,0,0,0,.327,4.936c.217.379,2.342,1.479,2.929,1.222s5.095-1.5,6.67-2.9a5.551,5.551,0,0,0,.586-6.633c-1.355-1.8-6.486-3.482-6.486-3.482Z" transform="translate(-87.999 -24.748)" fill="none"/>
    </clipPath>
    <linearGradient id="linear-gradient-42" x1="-5.2" y1="7.981" x2="-5.139" y2="7.981" xlink:href="#linear-gradient-7"/>
    <clipPath id="clip-path-55">
      <path id="Trazado_767075" data-name="Trazado 767075" d="M87.077,24.378c-.375,1.146,1.686,3.227,4.251,3.372s3.886.33,3.738,1.064-1.539,2.712-.219,3.518.586,2.638,1.245,2.382,1.209-3.48,2.125-3.115-.769,3.445.7,3.555,3.518-3.372,4.25-5.571-.806-4.507-.806-4.507.624-4.655-3.371-5.095a8.148,8.148,0,0,0-.89-.046c-4.1,0-10.408,2.57-11.021,4.443" transform="translate(-87.033 -19.935)" fill="none"/>
    </clipPath>
    <linearGradient id="linear-gradient-43" x1="-4.129" y1="6.337" x2="-4.08" y2="6.337" xlink:href="#linear-gradient-38"/>
    <clipPath id="clip-path-56">
      <path id="Trazado_767076" data-name="Trazado 767076" d="M81.463,107.226s-4.687,8.657-6.929,10.313-1.579,5.8,1.956,4.447,8.615-7.284,12.26-8.534-.326-7.4-.326-7.4-3.2,3.233-6.962,1.176" transform="translate(-73.236 -106.05)" fill="none"/>
    </clipPath>
    <linearGradient id="linear-gradient-44" x1="-3.559" y1="2.143" x2="-3.51" y2="2.143" xlink:href="#linear-gradient-38"/>
    <clipPath id="clip-path-57">
      <path id="Trazado_767077" data-name="Trazado 767077" d="M84.24,75.82l.9.37A2.026,2.026,0,0,0,87,76.023l8.054-5.143c.481-.308.642-1.911.123-2.149L82.136,63.724Z" transform="translate(-82.136 -63.724)" fill="none"/>
    </clipPath>
    <linearGradient id="linear-gradient-45" x1="-4.937" y1="5.606" x2="-4.876" y2="5.606" gradientUnits="objectBoundingBox">
      <stop offset="0" stop-color="#878787"/>
      <stop offset="1" stop-color="#e5e5e5"/>
    </linearGradient>
    <clipPath id="clip-path-58">
      <path id="Trazado_767078" data-name="Trazado 767078" d="M86.117,75.617l8.94-5.709a.722.722,0,0,0-.088-1.264L82.136,62.752Z" transform="translate(-82.136 -62.752)" fill="none"/>
    </clipPath>
    <linearGradient id="linear-gradient-46" x1="-5.536" y1="5.944" x2="-5.468" y2="5.944" xlink:href="#linear-gradient-4"/>
    <clipPath id="clip-path-59">
      <path id="Trazado_767079" data-name="Trazado 767079" d="M63.144,48.024l3.024,18.16a.839.839,0,0,0,.47.648l19.7,10.3c.6.287,1.68-.876,1.594-1.536l-2.4-18.36a.839.839,0,0,0-.47-.648l-20.1-9.627a.774.774,0,0,0-.333-.066c-.648,0-1.556.578-1.484,1.132" transform="translate(-63.14 -46.892)" fill="none"/>
    </clipPath>
    <linearGradient id="linear-gradient-47" x1="-1.632" y1="2.936" x2="-1.604" y2="2.936" xlink:href="#linear-gradient-4"/>
    <clipPath id="clip-path-60">
      <path id="Trazado_767080" data-name="Trazado 767080" d="M62.814,48.4l2.4,18.361a.839.839,0,0,0,.469.648l20.1,9.625a.839.839,0,0,0,1.194-.866l-2.4-18.36a.84.84,0,0,0-.47-.648l-20.1-9.625a.837.837,0,0,0-1.194.865" transform="translate(-62.807 -47.453)" fill="none"/>
    </clipPath>
    <linearGradient id="linear-gradient-48" x1="-1.78" y1="3.604" x2="-1.749" y2="3.604" xlink:href="#linear-gradient-4"/>
    <clipPath id="clip-path-61">
      <path id="Trazado_767081" data-name="Trazado 767081" d="M88.975,65.051c-.475.709-3.954,5.542-2.923,6.766s3.356-.454,5.09-2.9a8.338,8.338,0,0,1,3.663-3.094s.975-3.06-2.64-3.552a26.421,26.421,0,0,0-3.19,2.78" transform="translate(-85.862 -62.271)" fill="none"/>
    </clipPath>
    <linearGradient id="linear-gradient-49" x1="-6.91" y1="7.339" x2="-6.828" y2="7.339" xlink:href="#linear-gradient-7"/>
    <clipPath id="clip-path-62">
      <path id="Trazado_767083" data-name="Trazado 767083" d="M49.672,3.8a2.5,2.5,0,0,0-2.526,2.1L42.6,33.21a3.147,3.147,0,0,0,2.813,3.53l21.442,1.951,3.068,17.232L75.69,39.5l2.172.2a2.517,2.517,0,0,0,2.8-2.175L84.723,7.261A3.15,3.15,0,0,0,81.639,3.8Z" transform="translate(-42.561 -3.804)" fill="none"/>
    </clipPath>
    <linearGradient id="linear-gradient-50" x1="-0.239" y1="1.896" x2="-0.227" y2="1.896" xlink:href="#linear-gradient-37"/>
    <clipPath id="clip-path-64">
      <path id="Trazado_767089" data-name="Trazado 767089" d="M74.406,10.838l-20.7-.39Z" transform="translate(-53.708 -10.448)" fill="none"/>
    </clipPath>
    <linearGradient id="linear-gradient-51" x1="-2.715" y1="7.755" x2="-2.665" y2="7.755" xlink:href="#linear-gradient-37"/>
    <clipPath id="clip-path-66">
      <path id="Trazado_767091" data-name="Trazado 767091" d="M73.924,15.345l-20.589-.627Z" transform="translate(-53.335 -14.718)" fill="none"/>
    </clipPath>
    <linearGradient id="linear-gradient-52" x1="-2.677" y1="7.483" x2="-2.627" y2="7.483" xlink:href="#linear-gradient-37"/>
    <clipPath id="clip-path-68">
      <path id="Trazado_767093" data-name="Trazado 767093" d="M73.443,19.853l-20.481-.864Z" transform="translate(-52.962 -18.989)" fill="none"/>
    </clipPath>
    <linearGradient id="linear-gradient-53" x1="-2.639" y1="7.215" x2="-2.589" y2="7.215" xlink:href="#linear-gradient-37"/>
    <clipPath id="clip-path-70">
      <path id="Trazado_767095" data-name="Trazado 767095" d="M72.961,24.36l-20.372-1.1Z" transform="translate(-52.589 -23.259)" fill="none"/>
    </clipPath>
    <linearGradient id="linear-gradient-54" x1="-2.602" y1="6.95" x2="-2.552" y2="6.95" xlink:href="#linear-gradient-37"/>
    <clipPath id="clip-path-72">
      <path id="Trazado_767097" data-name="Trazado 767097" d="M72.48,28.867,52.215,27.53Z" transform="translate(-52.215 -27.53)" fill="none"/>
    </clipPath>
    <linearGradient id="linear-gradient-55" x1="-2.565" y1="6.688" x2="-2.515" y2="6.688" xlink:href="#linear-gradient-37"/>
  </defs>
  <g id="Grupo_1026823" data-name="Grupo 1026823" transform="translate(-1020 -4673)">
    <rect id="hombre-negocios-dibuja-grafico-crecimiento-progreso-negocios-analiza-finanzas-inversion" width="400" height="240" rx="10" transform="translate(1020 4673)" fill="url(#linear-gradient)"/>
    <g id="Grupo_1026822" data-name="Grupo 1026822" transform="translate(1084 4713)">
      <g id="Grupo_1026821" data-name="Grupo 1026821" clip-path="url(#clip-path)">
        <g id="Grupo_1026677" data-name="Grupo 1026677" transform="translate(115.538 1.669)">
          <g id="Grupo_1026676" data-name="Grupo 1026676" clip-path="url(#clip-path-2)">
            <rect id="Rectángulo_359803" data-name="Rectángulo 359803" width="176.609" height="151.841" transform="translate(-23.917 155.475) rotate(-81.401)" fill="url(#linear-gradient-2)"/>
          </g>
        </g>
        <g id="Grupo_1026679" data-name="Grupo 1026679" transform="translate(113.655 0.001)">
          <g id="Grupo_1026678" data-name="Grupo 1026678" clip-path="url(#clip-path-3)">
            <rect id="Rectángulo_359804" data-name="Rectángulo 359804" width="196.258" height="179.582" transform="translate(-55.507 137.418) rotate(-68.15)" fill="url(#linear-gradient-3)"/>
          </g>
        </g>
        <g id="Grupo_1026681" data-name="Grupo 1026681" transform="translate(117.57 3.913)">
          <g id="Grupo_1026680" data-name="Grupo 1026680" clip-path="url(#clip-path-4)">
            <rect id="Rectángulo_359805" data-name="Rectángulo 359805" width="173.429" height="150.42" transform="matrix(0.212, -0.977, 0.977, 0.212, -31.507, 144.43)" fill="url(#linear-gradient-4)"/>
          </g>
        </g>
        <g id="Grupo_1026683" data-name="Grupo 1026683" transform="translate(114.846 4.882)">
          <g id="Grupo_1026682" data-name="Grupo 1026682" clip-path="url(#clip-path-5)">
            <rect id="Rectángulo_359806" data-name="Rectángulo 359806" width="191.013" height="175.984" transform="translate(-53.415 133.213) rotate(-68.15)" fill="url(#linear-gradient-5)"/>
          </g>
        </g>
        <g id="Grupo_1026685" data-name="Grupo 1026685">
          <g id="Grupo_1026684" data-name="Grupo 1026684" clip-path="url(#clip-path)">
            <path id="Trazado_767006" data-name="Trazado 767006" d="M230.107,10.907l-1.02,11.883L120.929,19.878l1.056-10.99a5.76,5.76,0,0,1,5.757-5.225h95.716a6.665,6.665,0,0,1,6.649,7.244" transform="translate(8.232 0.249)" fill="#1a0f91"/>
            <path id="Trazado_767007" data-name="Trazado 767007" d="M130.743,11.445a1.692,1.692,0,1,1-1.693-1.693,1.693,1.693,0,0,1,1.693,1.693" transform="translate(8.67 0.664)" fill="#fff"/>
            <path id="Trazado_767008" data-name="Trazado 767008" d="M136.564,11.445a1.692,1.692,0,1,1-1.693-1.693,1.693,1.693,0,0,1,1.693,1.693" transform="translate(9.066 0.664)" fill="#fff"/>
            <path id="Trazado_767009" data-name="Trazado 767009" d="M142.385,11.445a1.692,1.692,0,1,1-1.693-1.693,1.693,1.693,0,0,1,1.693,1.693" transform="translate(9.462 0.664)" fill="#fff"/>
            <path id="Trazado_767010" data-name="Trazado 767010" d="M216.039,10.641l-.381,3.323a2.422,2.422,0,0,1-2.414,2.154L197.045,16l-45.8-.318a1.84,1.84,0,0,1-1.822-2.05l.3-2.938A2.312,2.312,0,0,1,152,8.637l46.552.017,15.738.006a1.768,1.768,0,0,1,1.752,1.98" transform="translate(10.171 0.588)" fill="#fff"/>
            <path id="Trazado_767011" data-name="Trazado 767011" d="M212.969,10.64l-.381,3.323a2.422,2.422,0,0,1-2.414,2.154L194.506,16l.973-7.352,15.738.006a1.768,1.768,0,0,1,1.752,1.98" transform="translate(13.241 0.589)" fill="#fe7062"/>
            <path id="Trazado_767012" data-name="Trazado 767012" d="M142.028,51.124c-6.689-.336-10.046-.509-16.794-.876a2.462,2.462,0,0,1-2.348-2.7c.627-6.668.942-10,1.573-16.654a2.721,2.721,0,0,1,2.838-2.418c6.767.34,10.131.495,16.827.786a2.4,2.4,0,0,1,2.318,2.662c-.643,6.665-.964,10.021-1.605,16.747a2.724,2.724,0,0,1-2.809,2.451" transform="translate(8.364 1.938)" fill="#91b3fa"/>
            <path id="Trazado_767013" data-name="Trazado 767013" d="M215.129,45.85c-3.856-.16-5.784-.239-9.642-.4a1.444,1.444,0,0,1-1.342-1.627c.36-4.081.539-6.108.9-10.122a1.616,1.616,0,0,1,1.614-1.487l9.623.317a1.42,1.42,0,0,1,1.339,1.6c-.351,4.041-.527,6.084-.879,10.2a1.619,1.619,0,0,1-1.613,1.519" transform="translate(13.897 2.193)" fill="#b3b3b3"/>
          </g>
        </g>
        <g id="Grupo_1026687" data-name="Grupo 1026687" transform="translate(133.66 45.422)">
          <g id="Grupo_1026686" data-name="Grupo 1026686" clip-path="url(#clip-path-7)">
            <rect id="Rectángulo_359808" data-name="Rectángulo 359808" width="17.389" height="17.947" transform="matrix(0.681, -0.732, 0.732, 0.681, -3.479, 3.737)" fill="url(#linear-gradient-6)"/>
          </g>
        </g>
        <g id="Grupo_1026689" data-name="Grupo 1026689" transform="translate(138.622 37.034)">
          <g id="Grupo_1026688" data-name="Grupo 1026688" clip-path="url(#clip-path-8)">
            <rect id="Rectángulo_359809" data-name="Rectángulo 359809" width="13.69" height="13.608" transform="translate(-5.41 5.61) rotate(-47.046)" fill="url(#linear-gradient-7)"/>
          </g>
        </g>
        <g id="Grupo_1026691" data-name="Grupo 1026691" transform="translate(138.35 34.208)">
          <g id="Grupo_1026690" data-name="Grupo 1026690" clip-path="url(#clip-path-9)">
            <rect id="Rectángulo_359810" data-name="Rectángulo 359810" width="14.422" height="14.526" transform="matrix(0.681, -0.732, 0.732, 0.681, -4.595, 4.936)" fill="url(#linear-gradient-8)"/>
          </g>
        </g>
        <g id="Grupo_1026693" data-name="Grupo 1026693">
          <g id="Grupo_1026692" data-name="Grupo 1026692" clip-path="url(#clip-path)">
            <path id="Trazado_767017" data-name="Trazado 767017" d="M152.239,30.933q25.526,1,51.059,1.817" transform="translate(10.363 2.106)" fill="none" stroke="#b3b3b3" stroke-linecap="round" stroke-linejoin="round" stroke-width="1.465"/>
            <path id="Trazado_767018" data-name="Trazado 767018" d="M151.677,36.77q25.541,1.046,51.086,1.948" transform="translate(10.325 2.503)" fill="none" stroke="#b3b3b3" stroke-linecap="round" stroke-linejoin="round" stroke-width="1.465"/>
            <path id="Trazado_767019" data-name="Trazado 767019" d="M151.115,42.634q25.554,1.112,51.112,2.115" transform="translate(10.287 2.902)" fill="none" stroke="#b3b3b3" stroke-linecap="round" stroke-linejoin="round" stroke-width="1.465"/>
          </g>
        </g>
        <g id="Grupo_1026695" data-name="Grupo 1026695" transform="translate(159.847 50.236)">
          <g id="Grupo_1026694" data-name="Grupo 1026694" clip-path="url(#clip-path-11)">
            <rect id="Rectángulo_359812" data-name="Rectángulo 359812" width="5.812" height="5.903" transform="translate(-0.483 5.295) rotate(-84.785)" fill="url(#linear-gradient-9)"/>
          </g>
        </g>
        <g id="Grupo_1026697" data-name="Grupo 1026697" transform="translate(168.214 50.617)">
          <g id="Grupo_1026696" data-name="Grupo 1026696" clip-path="url(#clip-path-12)">
            <rect id="Rectángulo_359813" data-name="Rectángulo 359813" width="5.832" height="5.886" transform="matrix(0.091, -0.996, 0.996, 0.091, -0.485, 5.317)" fill="url(#linear-gradient-10)"/>
          </g>
        </g>
        <g id="Grupo_1026699" data-name="Grupo 1026699" transform="translate(176.555 50.988)">
          <g id="Grupo_1026698" data-name="Grupo 1026698" clip-path="url(#clip-path-13)">
            <rect id="Rectángulo_359814" data-name="Rectángulo 359814" width="5.858" height="5.874" transform="translate(-0.488 5.344) rotate(-84.785)" fill="url(#linear-gradient-11)"/>
          </g>
        </g>
        <g id="Grupo_1026701" data-name="Grupo 1026701" transform="translate(184.872 51.352)">
          <g id="Grupo_1026700" data-name="Grupo 1026700" clip-path="url(#clip-path-14)">
            <rect id="Rectángulo_359815" data-name="Rectángulo 359815" width="5.882" height="5.864" transform="matrix(0.091, -0.996, 0.996, 0.091, -0.49, 5.369)" fill="url(#linear-gradient-12)"/>
          </g>
        </g>
        <g id="Grupo_1026703" data-name="Grupo 1026703" transform="translate(193.171 51.712)">
          <g id="Grupo_1026702" data-name="Grupo 1026702" clip-path="url(#clip-path-15)">
            <rect id="Rectángulo_359816" data-name="Rectángulo 359816" width="5.911" height="5.855" transform="matrix(0.091, -0.996, 0.996, 0.091, -0.493, 5.399)" fill="url(#linear-gradient-13)"/>
          </g>
        </g>
        <g id="Grupo_1026705" data-name="Grupo 1026705" transform="translate(220.538 37.943)">
          <g id="Grupo_1026704" data-name="Grupo 1026704" clip-path="url(#clip-path-16)">
            <rect id="Rectángulo_359817" data-name="Rectángulo 359817" width="7.16" height="9.53" transform="translate(-0.577 6.316) rotate(-84.785)" fill="url(#linear-gradient-14)"/>
          </g>
        </g>
        <g id="Grupo_1026707" data-name="Grupo 1026707">
          <g id="Grupo_1026706" data-name="Grupo 1026706" clip-path="url(#clip-path)">
            <path id="Trazado_767026" data-name="Trazado 767026" d="M123.182,55c32.007,1.8,64.028,3.335,96.041,5.014" transform="translate(8.385 3.744)" fill="none" stroke="#b3b3b3" stroke-linecap="round" stroke-linejoin="round" stroke-width="0.549"/>
            <path id="Trazado_767027" data-name="Trazado 767027" d="M138.83,84.832c-6.671-.485-10.014-.728-16.723-1.223a2.514,2.514,0,0,1-2.336-2.742c.619-6.658.929-9.991,1.552-16.658a2.679,2.679,0,0,1,2.822-2.4c6.733.409,10.086.607,16.769,1a2.47,2.47,0,0,1,2.316,2.736c-.641,6.756-.96,10.137-1.6,16.887a2.648,2.648,0,0,1-2.8,2.4" transform="translate(8.153 4.207)" fill="#91b3fa"/>
            <path id="Trazado_767028" data-name="Trazado 767028" d="M212.116,81.425c-3.876-.272-5.815-.407-9.694-.674a1.517,1.517,0,0,1-1.347-1.7c.363-4.171.545-6.259.908-10.429a1.6,1.6,0,0,1,1.622-1.511c3.872.226,5.806.34,9.676.571a1.512,1.512,0,0,1,1.347,1.7c-.356,4.211-.533,6.321-.89,10.532a1.586,1.586,0,0,1-1.622,1.509" transform="translate(13.687 4.568)" fill="#57dbd8"/>
          </g>
        </g>
        <g id="Grupo_1026709" data-name="Grupo 1026709" transform="translate(130.322 81.194)">
          <g id="Grupo_1026708" data-name="Grupo 1026708" clip-path="url(#clip-path-18)">
            <rect id="Rectángulo_359819" data-name="Rectángulo 359819" width="17.492" height="18.035" transform="matrix(0.681, -0.732, 0.732, 0.681, -3.588, 3.853)" fill="url(#linear-gradient-15)"/>
          </g>
        </g>
        <g id="Grupo_1026711" data-name="Grupo 1026711" transform="translate(135.251 72.742)">
          <g id="Grupo_1026710" data-name="Grupo 1026710" clip-path="url(#clip-path-19)">
            <rect id="Rectángulo_359820" data-name="Rectángulo 359820" width="13.762" height="13.672" transform="matrix(0.681, -0.732, 0.732, 0.681, -5.475, 5.681)" fill="url(#linear-gradient-16)"/>
          </g>
        </g>
        <g id="Grupo_1026713" data-name="Grupo 1026713" transform="translate(134.977 69.951)">
          <g id="Grupo_1026712" data-name="Grupo 1026712" clip-path="url(#clip-path-20)">
            <rect id="Rectángulo_359821" data-name="Rectángulo 359821" width="14.48" height="14.576" transform="translate(-4.653 4.998) rotate(-47.046)" fill="url(#linear-gradient-17)"/>
          </g>
        </g>
        <g id="Grupo_1026715" data-name="Grupo 1026715">
          <g id="Grupo_1026714" data-name="Grupo 1026714" clip-path="url(#clip-path)">
            <path id="Trazado_767032" data-name="Trazado 767032" d="M149.024,64.638q25.6,1.474,51.2,2.935" transform="translate(10.145 4.4)" fill="none" stroke="#b3b3b3" stroke-linecap="round" stroke-linejoin="round" stroke-width="1.465"/>
            <path id="Trazado_767033" data-name="Trazado 767033" d="M148.464,70.566q25.607,1.588,51.214,3.182" transform="translate(10.106 4.804)" fill="none" stroke="#b3b3b3" stroke-linecap="round" stroke-linejoin="round" stroke-width="1.465"/>
            <path id="Trazado_767034" data-name="Trazado 767034" d="M147.9,76.5q25.618,1.7,51.234,3.43" transform="translate(10.068 5.207)" fill="none" stroke="#b3b3b3" stroke-linecap="round" stroke-linejoin="round" stroke-width="1.465"/>
          </g>
        </g>
        <g id="Grupo_1026717" data-name="Grupo 1026717" transform="translate(156.419 86.477)">
          <g id="Grupo_1026716" data-name="Grupo 1026716" clip-path="url(#clip-path-22)">
            <rect id="Rectángulo_359823" data-name="Rectángulo 359823" width="5.873" height="5.903" transform="matrix(0.091, -0.996, 0.996, 0.091, -0.489, 5.357)" fill="url(#linear-gradient-18)"/>
          </g>
        </g>
        <g id="Grupo_1026719" data-name="Grupo 1026719" transform="translate(164.782 87.061)">
          <g id="Grupo_1026718" data-name="Grupo 1026718" clip-path="url(#clip-path-23)">
            <rect id="Rectángulo_359824" data-name="Rectángulo 359824" width="5.903" height="5.895" transform="translate(-0.492 5.387) rotate(-84.785)" fill="url(#linear-gradient-19)"/>
          </g>
        </g>
        <g id="Grupo_1026721" data-name="Grupo 1026721" transform="translate(173.128 87.642)">
          <g id="Grupo_1026720" data-name="Grupo 1026720" clip-path="url(#clip-path-24)">
            <rect id="Rectángulo_359825" data-name="Rectángulo 359825" width="5.935" height="5.89" transform="translate(-0.495 5.42) rotate(-84.785)" fill="url(#linear-gradient-20)"/>
          </g>
        </g>
        <g id="Grupo_1026723" data-name="Grupo 1026723" transform="translate(181.461 88.226)">
          <g id="Grupo_1026722" data-name="Grupo 1026722" clip-path="url(#clip-path-25)">
            <rect id="Rectángulo_359826" data-name="Rectángulo 359826" width="5.965" height="5.884" transform="translate(-0.498 5.451) rotate(-84.785)" fill="url(#linear-gradient-21)"/>
          </g>
        </g>
        <g id="Grupo_1026725" data-name="Grupo 1026725" transform="translate(189.782 88.811)">
          <g id="Grupo_1026724" data-name="Grupo 1026724" clip-path="url(#clip-path-26)">
            <rect id="Rectángulo_359827" data-name="Rectángulo 359827" width="5.996" height="5.881" transform="matrix(0.091, -0.996, 0.996, 0.091, -0.5, 5.483)" fill="url(#linear-gradient-22)"/>
          </g>
        </g>
        <g id="Grupo_1026727" data-name="Grupo 1026727" transform="translate(217.273 75.411)">
          <g id="Grupo_1026726" data-name="Grupo 1026726" clip-path="url(#clip-path-27)">
            <rect id="Rectángulo_359828" data-name="Rectángulo 359828" width="7.369" height="9.596" transform="translate(-0.595 6.521) rotate(-84.785)" fill="url(#linear-gradient-23)"/>
          </g>
        </g>
        <g id="Grupo_1026729" data-name="Grupo 1026729">
          <g id="Grupo_1026728" data-name="Grupo 1026728" clip-path="url(#clip-path)">
            <path id="Trazado_767041" data-name="Trazado 767041" d="M120.072,88.326c32.043,2.485,64.09,4.908,96.127,7.483" transform="translate(8.174 6.013)" fill="none" stroke="#b3b3b3" stroke-linecap="round" stroke-linejoin="round" stroke-width="0.549"/>
            <path id="Trazado_767042" data-name="Trazado 767042" d="M135.653,118.35l-16.63-1.5a2.555,2.555,0,0,1-2.319-2.774c.608-6.636.913-9.953,1.527-16.6a2.6,2.6,0,0,1,2.8-2.336c6.69.547,10.027.818,16.689,1.36a2.533,2.533,0,0,1,2.309,2.783c-.636,6.718-.954,10.069-1.587,16.741a2.576,2.576,0,0,1-2.79,2.326" transform="translate(7.944 6.476)" fill="#fe7062"/>
            <path id="Trazado_767043" data-name="Trazado 767043" d="M209.071,116.58c-3.9-.352-5.844-.529-9.742-.879a1.525,1.525,0,0,1-1.353-1.68c.367-4.037.55-6.073.916-10.168a1.548,1.548,0,0,1,1.631-1.445c3.89.33,5.835.5,9.725.828a1.542,1.542,0,0,1,1.353,1.709c-.359,4.12-.539,6.167-.9,10.219a1.526,1.526,0,0,1-1.632,1.416" transform="translate(13.476 6.971)" fill="#b3b3b3"/>
          </g>
        </g>
        <g id="Grupo_1026731" data-name="Grupo 1026731" transform="translate(127.029 116.872)">
          <g id="Grupo_1026730" data-name="Grupo 1026730" clip-path="url(#clip-path-29)">
            <rect id="Rectángulo_359830" data-name="Rectángulo 359830" width="17.512" height="18.043" transform="translate(-3.649 3.92) rotate(-47.046)" fill="url(#linear-gradient-24)"/>
          </g>
        </g>
        <g id="Grupo_1026733" data-name="Grupo 1026733" transform="translate(131.921 108.427)">
          <g id="Grupo_1026732" data-name="Grupo 1026732" clip-path="url(#clip-path-30)">
            <rect id="Rectángulo_359831" data-name="Rectángulo 359831" width="13.76" height="13.665" transform="matrix(0.681, -0.732, 0.732, 0.681, -5.495, 5.704)" fill="url(#linear-gradient-25)"/>
          </g>
        </g>
        <g id="Grupo_1026735" data-name="Grupo 1026735" transform="translate(131.642 105.729)">
          <g id="Grupo_1026734" data-name="Grupo 1026734" clip-path="url(#clip-path-31)">
            <rect id="Rectángulo_359832" data-name="Rectángulo 359832" width="14.456" height="14.548" transform="matrix(0.681, -0.732, 0.732, 0.681, -4.662, 5.007)" fill="url(#linear-gradient-26)"/>
          </g>
        </g>
        <g id="Grupo_1026737" data-name="Grupo 1026737">
          <g id="Grupo_1026736" data-name="Grupo 1026736" clip-path="url(#clip-path)">
            <path id="Trazado_767047" data-name="Trazado 767047" d="M145.818,98.524q25.648,2.1,51.293,4.249" transform="translate(9.926 6.707)" fill="none" stroke="#b3b3b3" stroke-linecap="round" stroke-linejoin="round" stroke-width="1.465"/>
            <path id="Trazado_767048" data-name="Trazado 767048" d="M145.26,104.408q25.655,2.188,51.306,4.415" transform="translate(9.888 7.107)" fill="none" stroke="#b3b3b3" stroke-linecap="round" stroke-linejoin="round" stroke-width="1.465"/>
            <path id="Trazado_767049" data-name="Trazado 767049" d="M144.7,110.274q25.661,2.257,51.318,4.546" transform="translate(9.85 7.507)" fill="none" stroke="#b3b3b3" stroke-linecap="round" stroke-linejoin="round" stroke-width="1.465"/>
          </g>
        </g>
        <g id="Grupo_1026739" data-name="Grupo 1026739" transform="translate(153.005 122.527)">
          <g id="Grupo_1026738" data-name="Grupo 1026738" clip-path="url(#clip-path-33)">
            <rect id="Rectángulo_359834" data-name="Rectángulo 359834" width="5.817" height="5.889" transform="translate(-0.484 5.302) rotate(-84.785)" fill="url(#linear-gradient-27)"/>
          </g>
        </g>
        <g id="Grupo_1026741" data-name="Grupo 1026741" transform="translate(161.354 123.275)">
          <g id="Grupo_1026740" data-name="Grupo 1026740" clip-path="url(#clip-path-34)">
            <rect id="Rectángulo_359835" data-name="Rectángulo 359835" width="5.825" height="5.887" transform="matrix(0.091, -0.996, 0.996, 0.091, -0.485, 5.31)" fill="url(#linear-gradient-28)"/>
          </g>
        </g>
        <g id="Grupo_1026743" data-name="Grupo 1026743" transform="translate(169.699 124.023)">
          <g id="Grupo_1026742" data-name="Grupo 1026742" clip-path="url(#clip-path-35)">
            <rect id="Rectángulo_359836" data-name="Rectángulo 359836" width="5.834" height="5.885" transform="translate(-0.486 5.32) rotate(-84.785)" fill="url(#linear-gradient-29)"/>
          </g>
        </g>
        <g id="Grupo_1026745" data-name="Grupo 1026745" transform="translate(178.04 124.772)">
          <g id="Grupo_1026744" data-name="Grupo 1026744" clip-path="url(#clip-path-36)">
            <rect id="Rectángulo_359837" data-name="Rectángulo 359837" width="5.842" height="5.882" transform="translate(-0.486 5.328) rotate(-84.785)" fill="url(#linear-gradient-30)"/>
          </g>
        </g>
        <g id="Grupo_1026747" data-name="Grupo 1026747" transform="translate(186.377 125.522)">
          <g id="Grupo_1026746" data-name="Grupo 1026746" clip-path="url(#clip-path-37)">
            <rect id="Rectángulo_359838" data-name="Rectángulo 359838" width="5.852" height="5.883" transform="translate(-0.487 5.338) rotate(-84.785)" fill="url(#linear-gradient-31)"/>
          </g>
        </g>
        <g id="Grupo_1026749" data-name="Grupo 1026749" transform="translate(213.978 113.108)">
          <g id="Grupo_1026748" data-name="Grupo 1026748" clip-path="url(#clip-path-38)">
            <rect id="Rectángulo_359839" data-name="Rectángulo 359839" width="7.208" height="9.625" transform="matrix(0.091, -0.996, 0.996, 0.091, -0.58, 6.357)" fill="url(#linear-gradient-32)"/>
          </g>
        </g>
        <g id="Grupo_1026751" data-name="Grupo 1026751">
          <g id="Grupo_1026750" data-name="Grupo 1026750" clip-path="url(#clip-path)">
            <path id="Trazado_767056" data-name="Trazado 767056" d="M117.01,121.526q48.063,4.4,96.127,8.775" transform="translate(7.965 8.273)" fill="none" stroke="#b3b3b3" stroke-linecap="round" stroke-linejoin="round" stroke-width="0.549"/>
            <path id="Trazado_767057" data-name="Trazado 767057" d="M223.817,38.427h29.565a3.034,3.034,0,0,1,3.022,3.3l-2.278,32.233a3.033,3.033,0,0,1-3.226,2.757L220.925,74.7a3.032,3.032,0,0,1-2.818-3.295L220.8,41.192a3.033,3.033,0,0,1,3.022-2.765" transform="translate(14.847 2.616)" fill="#50bcb7"/>
            <path id="Trazado_767058" data-name="Trazado 767058" d="M222.525,37.2H252.09a3.034,3.034,0,0,1,3.022,3.3l-2.278,32.233a3.033,3.033,0,0,1-3.226,2.757l-29.974-2.022a3.032,3.032,0,0,1-2.818-3.3L219.5,39.969a3.033,3.033,0,0,1,3.022-2.765" transform="translate(14.759 2.533)" fill="#57dbd8"/>
          </g>
        </g>
        <g id="Grupo_1026753" data-name="Grupo 1026753" transform="translate(241.908 50.76)">
          <g id="Grupo_1026752" data-name="Grupo 1026752" clip-path="url(#clip-path-40)">
            <rect id="Rectángulo_359841" data-name="Rectángulo 359841" width="15.81" height="21.045" transform="matrix(0.091, -0.996, 0.996, 0.091, -1.273, 13.948)" fill="url(#linear-gradient-33)"/>
          </g>
        </g>
        <g id="Grupo_1026755" data-name="Grupo 1026755">
          <g id="Grupo_1026754" data-name="Grupo 1026754" clip-path="url(#clip-path)">
            <path id="Trazado_767060" data-name="Trazado 767060" d="M4.3,150.708c-.076-.066-.152-.135-.226-.205l-.1-.1-.044-.042-.077-.075c-.073-.073-.145-.147-.216-.223s-.145-.156-.216-.236l-.006-.007-.005-.007c-.067-.075-.134-.152-.2-.23s-.141-.173-.21-.261c-.025-.031-.048-.063-.073-.1l-.043-.057c-.03-.04-.061-.078-.09-.117-.068-.093-.136-.186-.2-.281-.048-.069-.1-.14-.142-.21-.01-.012-.018-.025-.027-.037l-.026-.038c-.063-.1-.124-.191-.185-.288s-.119-.192-.176-.291c-.011-.017-.02-.036-.031-.054l-.026-.045c-.036-.062-.073-.123-.107-.186-.054-.1-.106-.192-.158-.289l-.109-.211-.019-.038c-.006-.014-.014-.028-.021-.042-.05-.1-.1-.2-.147-.3s-.1-.222-.153-.334l-.021-.051-.029-.066c-.038-.09-.078-.18-.116-.272-.047-.114-.09-.231-.134-.346-.022-.059-.046-.116-.068-.176-.009-.023-.018-.046-.027-.069-.037-.1-.067-.205-.1-.308-.051-.152-.1-.3-.15-.454-.007-.025-.017-.048-.025-.072-.066-.222-.127-.443-.183-.666v0c-.037-.15-.073-.3-.1-.45-.027-.122-.051-.244-.075-.365V143.1q-.035-.184-.064-.368c-.02-.121-.037-.241-.053-.362,0-.019,0-.038-.007-.059s0-.041-.007-.061c-.01-.083-.021-.167-.03-.25-.013-.124-.023-.248-.033-.372l-.006-.114c0-.028,0-.057-.005-.085,0-.059-.007-.119-.011-.177Q0,141.06,0,140.875c0-.054,0-.107,0-.161v-.081c0-.04,0-.08,0-.12,0-.116.007-.232.013-.347.005-.083.012-.166.018-.248,0-.015,0-.03,0-.045l0-.043c.01-.107.021-.214.034-.318s.028-.207.044-.31c0-.024.007-.047.012-.07.013-.077.027-.152.042-.225.019-.1.04-.191.061-.284.014-.06.03-.119.046-.177,0-.014.006-.029.011-.043L.3,138.35c.025-.089.05-.176.078-.262s.058-.173.088-.256c.005-.015.012-.029.017-.043l.015-.037c.021-.056.043-.112.065-.167.035-.084.073-.167.11-.246.019-.04.04-.076.059-.114.007-.016.016-.032.025-.049s.025-.049.037-.073c.045-.082.092-.163.14-.24.03-.048.062-.094.093-.14l.032-.048c.011-.015.02-.032.031-.046.059-.082.119-.16.182-.235.028-.033.057-.062.085-.094s.044-.049.066-.073.044-.051.067-.075a3.453,3.453,0,0,1,.272-.246l.005,0c.021-.017.045-.03.066-.047a3.551,3.551,0,0,1,.3-.211c.009-.005.018-.007.027-.013a3.038,3.038,0,0,1,.48-.23l32.821-12.435a2.993,2.993,0,0,0-.48.23,3.316,3.316,0,0,0-.329.224c-.021.017-.044.03-.065.047a3.513,3.513,0,0,0-.346.325c-.022.023-.044.048-.065.073a3.889,3.889,0,0,0-.3.375l-.032.048a4.468,4.468,0,0,0-.27.454l-.026.048a5.516,5.516,0,0,0-.233.527c-.005.013-.011.025-.015.037-.073.193-.139.4-.2.613,0,.014-.006.029-.011.043-.058.219-.107.446-.147.686s-.072.49-.093.742l0,.045c-.019.235-.029.473-.032.715v.081c0,.234.005.472.019.711,0,.028,0,.057.005.084.015.245.038.489.069.736,0,.02,0,.041.007.061q.051.4.126.795v.007c.052.272.111.544.179.815v0c.062.248.132.495.207.739.047.152.1.3.151.454.043.126.083.252.129.377.021.06.046.119.068.177.079.207.161.414.25.617.01.022.018.045.028.066.109.247.223.49.344.728.006.013.013.027.02.04.119.233.242.462.373.687l.025.044c.135.229.273.453.419.672l.026.037q.21.314.435.61c.015.018.029.037.043.056.155.2.315.4.48.584l.009.01q.25.282.514.54l.044.042c.176.171.357.334.542.486s.37.288.553.413l.05.034q.255.17.506.308l.067.035c.164.086.327.163.489.23l.091.035a4.459,4.459,0,0,0,.457.15c.017.005.034.012.051.016a3.94,3.94,0,0,0,.514.1l.067,0a3.449,3.449,0,0,0,.4.017c.048,0,.1,0,.143-.007a2.972,2.972,0,0,0,.326-.036c.045-.007.09-.013.134-.022a3.013,3.013,0,0,0,.425-.119h0L8.792,152.046a3.081,3.081,0,0,1-.427.119c-.044.01-.088.015-.132.022a3.248,3.248,0,0,1-.327.037c-.048,0-.1.005-.143.006a3.417,3.417,0,0,1-.4-.017l-.067,0H7.277a4.027,4.027,0,0,1-.483-.092l-.016,0-.049-.015c-.1-.028-.2-.057-.307-.092-.05-.017-.1-.04-.152-.059l-.092-.036c-.027-.011-.054-.019-.081-.031-.1-.043-.2-.09-.3-.14l-.106-.057-.068-.036-.1-.056q-.13-.074-.26-.157c-.048-.03-.1-.063-.144-.1l-.049-.033c-.02-.014-.041-.026-.061-.041-.079-.056-.159-.113-.24-.174s-.159-.123-.238-.188l-.014-.012c-.074-.06-.145-.121-.217-.184" transform="translate(0 8.371)" fill="#444962"/>
            <path id="Trazado_767061" data-name="Trazado 767061" d="M30.858,126.709a13.828,13.828,0,0,0,4.384,11.761c3.085,2.532,6.126,1.379,6.794-2.582a13.826,13.826,0,0,0-4.381-11.752c-3.089-2.537-6.132-1.382-6.8,2.573" transform="translate(2.092 8.359)" fill="#484e64"/>
          </g>
        </g>
        <g id="Grupo_1026757" data-name="Grupo 1026757" transform="translate(37.25 127.233)">
          <g id="Grupo_1026756" data-name="Grupo 1026756" clip-path="url(#clip-path-42)">
            <rect id="Rectángulo_359843" data-name="Rectángulo 359843" width="26.308" height="22.253" transform="translate(-4.445 1.288) rotate(-16.158)" fill="url(#linear-gradient-34)"/>
          </g>
        </g>
        <g id="Grupo_1026759" data-name="Grupo 1026759">
          <g id="Grupo_1026758" data-name="Grupo 1026758" clip-path="url(#clip-path)">
            <path id="Trazado_767063" data-name="Trazado 767063" d="M51.066,121.406a8.437,8.437,0,0,0,2.674,7.175c1.882,1.546,3.738.842,4.145-1.575a8.436,8.436,0,0,0-2.672-7.17c-1.885-1.548-3.741-.843-4.147,1.57" transform="translate(3.471 8.102)" fill="#898989"/>
          </g>
        </g>
        <g id="Grupo_1026761" data-name="Grupo 1026761" transform="translate(57.294 77.764)">
          <g id="Grupo_1026760" data-name="Grupo 1026760" clip-path="url(#clip-path-44)">
            <rect id="Rectángulo_359845" data-name="Rectángulo 359845" width="99.332" height="100.994" transform="translate(-22.437 4.513) rotate(-13.379)" fill="url(#linear-gradient-35)"/>
          </g>
        </g>
        <g id="Grupo_1026763" data-name="Grupo 1026763" transform="translate(50.906 75.382)">
          <g id="Grupo_1026762" data-name="Grupo 1026762" clip-path="url(#clip-path-45)">
            <rect id="Rectángulo_359846" data-name="Rectángulo 359846" width="105.156" height="106.538" transform="matrix(0.945, -0.328, 0.328, 0.945, -29.568, 9.055)" fill="url(#linear-gradient-36)"/>
          </g>
        </g>
        <g id="Grupo_1026770" data-name="Grupo 1026770">
          <g id="Grupo_1026769" data-name="Grupo 1026769" clip-path="url(#clip-path)">
            <g id="Grupo_1026768" data-name="Grupo 1026768" transform="translate(60.83 84.567)" opacity="0.51">
              <g id="Grupo_1026767" data-name="Grupo 1026767">
                <g id="Grupo_1026766" data-name="Grupo 1026766" clip-path="url(#clip-path-47)">
                  <g id="Grupo_1026765" data-name="Grupo 1026765" transform="translate(0 0)">
                    <g id="Grupo_1026764" data-name="Grupo 1026764" clip-path="url(#clip-path-48)">
                      <rect id="Rectángulo_359847" data-name="Rectángulo 359847" width="74.359" height="68.244" transform="translate(-8.219 66.526) rotate(-84.806)" fill="url(#linear-gradient-37)"/>
                    </g>
                  </g>
                </g>
              </g>
            </g>
          </g>
        </g>
        <g id="Grupo_1026772" data-name="Grupo 1026772" transform="translate(73.631 110.667)">
          <g id="Grupo_1026771" data-name="Grupo 1026771" clip-path="url(#clip-path-49)">
            <rect id="Rectángulo_359850" data-name="Rectángulo 359850" width="15.617" height="19.011" transform="translate(-4.278 11.396) rotate(-76.472)" fill="url(#linear-gradient-38)"/>
          </g>
        </g>
        <g id="Grupo_1026774" data-name="Grupo 1026774" transform="translate(72.822 65.954)">
          <g id="Grupo_1026773" data-name="Grupo 1026773" clip-path="url(#clip-path-50)">
            <rect id="Rectángulo_359851" data-name="Rectángulo 359851" width="54.874" height="45.848" transform="translate(-21.372 36.912) rotate(-60.054)" fill="url(#linear-gradient-39)"/>
          </g>
        </g>
        <g id="Grupo_1026776" data-name="Grupo 1026776" transform="translate(82.379 69.409)">
          <g id="Grupo_1026775" data-name="Grupo 1026775" clip-path="url(#clip-path-51)">
            <rect id="Rectángulo_359852" data-name="Rectángulo 359852" width="56.381" height="51.165" transform="translate(-20.744 34.894) rotate(-60.054)" fill="url(#linear-gradient-40)"/>
          </g>
        </g>
        <g id="Grupo_1026778" data-name="Grupo 1026778">
          <g id="Grupo_1026777" data-name="Grupo 1026777" clip-path="url(#clip-path)">
            <path id="Trazado_767070" data-name="Trazado 767070" d="M86,36.668s-2.011,2.488-2.821,8.062-1.932,9.627-2.68,10.5-7.667,7.354-7.667,7.354,3.117.263,3.989,2.033a3.422,3.422,0,0,1-.374,3.39s7.6-5.921,10.033-10.346S86,36.668,86,36.668" transform="translate(4.958 2.496)" fill="#fffbff"/>
            <path id="Trazado_767071" data-name="Trazado 767071" d="M94.439,33.255c1.583-.317-10.967-1.086-10.752,9.127s.182,21.874.182,21.874.489,4.529,6.9,5.942,13.048-2.924,13.048-2.924,1.706-23.914,1.706-25.87-11.627-8.039-11.082-8.148" transform="translate(5.697 2.253)" fill="#40c6c2"/>
            <path id="Trazado_767072" data-name="Trazado 767072" d="M104.808,40.392c-1.76-.272-5.8-.367-4.56,4.992s2.457,11.682,2.457,11.682L91.2,63.6a4.227,4.227,0,0,1,2.887,2.038,3.918,3.918,0,0,1,0,3.241S107.728,63.4,108.912,60.4s-1.726-19.644-4.1-20.011" transform="translate(6.209 2.743)" fill="#fffbff"/>
          </g>
        </g>
        <g id="Grupo_1026780" data-name="Grupo 1026780" transform="translate(98.095 34.383)">
          <g id="Grupo_1026779" data-name="Grupo 1026779" clip-path="url(#clip-path-53)">
            <rect id="Rectángulo_359854" data-name="Rectángulo 359854" width="8.994" height="10.279" transform="translate(-2.066 0.513) rotate(-13.943)" fill="url(#linear-gradient-41)"/>
          </g>
        </g>
        <g id="Grupo_1026782" data-name="Grupo 1026782" transform="translate(93.99 26.433)">
          <g id="Grupo_1026781" data-name="Grupo 1026781" clip-path="url(#clip-path-54)">
            <rect id="Rectángulo_359855" data-name="Rectángulo 359855" width="17.516" height="17.072" transform="matrix(0.499, -0.866, 0.866, 0.499, -5.922, 9.962)" fill="url(#linear-gradient-42)"/>
          </g>
        </g>
        <g id="Grupo_1026784" data-name="Grupo 1026784" transform="translate(92.957 21.292)">
          <g id="Grupo_1026783" data-name="Grupo 1026783" clip-path="url(#clip-path-55)">
            <rect id="Rectángulo_359856" data-name="Rectángulo 359856" width="21.867" height="22.553" transform="translate(-6.961 11.509) rotate(-60.054)" fill="url(#linear-gradient-43)"/>
          </g>
        </g>
        <g id="Grupo_1026786" data-name="Grupo 1026786" transform="translate(78.221 113.269)">
          <g id="Grupo_1026785" data-name="Grupo 1026785" clip-path="url(#clip-path-56)">
            <rect id="Rectángulo_359857" data-name="Rectángulo 359857" width="21.513" height="23.588" transform="matrix(0.234, -0.972, 0.972, 0.234, -4.874, 16.345)" fill="url(#linear-gradient-44)"/>
          </g>
        </g>
        <g id="Grupo_1026788" data-name="Grupo 1026788" transform="translate(87.727 68.062)">
          <g id="Grupo_1026787" data-name="Grupo 1026787" clip-path="url(#clip-path-57)">
            <rect id="Rectángulo_359858" data-name="Rectángulo 359858" width="17.382" height="16.922" transform="matrix(0.925, -0.381, 0.381, 0.925, -4.477, 1.843)" fill="url(#linear-gradient-45)"/>
          </g>
        </g>
        <g id="Grupo_1026790" data-name="Grupo 1026790" transform="translate(87.727 67.024)">
          <g id="Grupo_1026789" data-name="Grupo 1026789" clip-path="url(#clip-path-58)">
            <rect id="Rectángulo_359859" data-name="Rectángulo 359859" width="15.643" height="16.039" transform="translate(-2.926 12.161) rotate(-76.472)" fill="url(#linear-gradient-46)"/>
          </g>
        </g>
        <g id="Grupo_1026792" data-name="Grupo 1026792" transform="translate(67.438 50.084)">
          <g id="Grupo_1026791" data-name="Grupo 1026791" clip-path="url(#clip-path-59)">
            <rect id="Rectángulo_359860" data-name="Rectángulo 359860" width="37.448" height="39.15" transform="matrix(0.843, -0.538, 0.538, 0.843, -13.911, 8.835)" fill="url(#linear-gradient-47)"/>
          </g>
        </g>
        <g id="Grupo_1026794" data-name="Grupo 1026794" transform="translate(67.083 50.683)">
          <g id="Grupo_1026793" data-name="Grupo 1026793" clip-path="url(#clip-path-60)">
            <rect id="Rectángulo_359861" data-name="Rectángulo 359861" width="34.73" height="30.63" transform="matrix(0.234, -0.972, 0.972, 0.234, -6.855, 28.236)" fill="url(#linear-gradient-48)"/>
          </g>
        </g>
        <g id="Grupo_1026796" data-name="Grupo 1026796" transform="translate(91.707 66.51)">
          <g id="Grupo_1026795" data-name="Grupo 1026795" clip-path="url(#clip-path-61)">
            <rect id="Rectángulo_359862" data-name="Rectángulo 359862" width="12.989" height="12.981" transform="translate(-3.29 10.181) rotate(-76.472)" fill="url(#linear-gradient-49)"/>
          </g>
        </g>
        <g id="Grupo_1026798" data-name="Grupo 1026798" transform="translate(45.458 4.063)">
          <g id="Grupo_1026797" data-name="Grupo 1026797" clip-path="url(#clip-path-62)">
            <path id="Trazado_767082" data-name="Trazado 767082" d="M57.82-15.521,110.212,22.2,72.513,77.88,20.121,40.159Z" transform="translate(-44.089 -5.12)" fill="url(#linear-gradient-50)"/>
          </g>
        </g>
        <g id="Grupo_1026800" data-name="Grupo 1026800">
          <g id="Grupo_1026799" data-name="Grupo 1026799" clip-path="url(#clip-path)">
            <path id="Trazado_767084" data-name="Trazado 767084" d="M53.1,11.486H26.577a2.078,2.078,0,0,0-2.1,1.745L20.707,35.889a2.61,2.61,0,0,0,2.334,2.929l14.785,1.346L40.4,53.737,46.76,40.978l3.212.292a2.087,2.087,0,0,0,2.321-1.8l3.371-25.109a2.614,2.614,0,0,0-2.56-2.87" transform="translate(1.407 0.782)" fill="#fe7062"/>
            <path id="Trazado_767085" data-name="Trazado 767085" d="M32.881,23.932a1.29,1.29,0,0,1-1.305,1.445,1.628,1.628,0,0,1-1.585-1.445A1.289,1.289,0,0,1,31.3,22.487a1.628,1.628,0,0,1,1.585,1.445" transform="translate(2.041 1.531)" fill="#fff"/>
            <path id="Trazado_767086" data-name="Trazado 767086" d="M37.284,23.932a1.29,1.29,0,0,1-1.305,1.445,1.628,1.628,0,0,1-1.585-1.445A1.289,1.289,0,0,1,35.7,22.487a1.628,1.628,0,0,1,1.585,1.445" transform="translate(2.341 1.531)" fill="#fff"/>
            <path id="Trazado_767087" data-name="Trazado 767087" d="M41.686,23.932a1.29,1.29,0,0,1-1.305,1.445A1.628,1.628,0,0,1,38.8,23.932,1.289,1.289,0,0,1,40.1,22.487a1.628,1.628,0,0,1,1.585,1.445" transform="translate(2.64 1.531)" fill="#fff"/>
          </g>
        </g>
        <g id="Grupo_1026802" data-name="Grupo 1026802" transform="translate(57.364 11.159)">
          <g id="Grupo_1026801" data-name="Grupo 1026801" clip-path="url(#clip-path-64)">
            <path id="Trazado_767088" data-name="Trazado 767088" d="M60.826.994,74.6,11.225,67.311,21.579,53.539,11.348Z" transform="translate(-53.719 -11.092)" fill="url(#linear-gradient-51)"/>
          </g>
        </g>
        <g id="Grupo_1026804" data-name="Grupo 1026804">
          <g id="Grupo_1026803" data-name="Grupo 1026803" clip-path="url(#clip-path)">
            <line id="Línea_3485" data-name="Línea 3485" x2="20.697" y2="0.39" transform="translate(57.365 11.159)" fill="none" stroke="#fff" stroke-miterlimit="10" stroke-width="0.798"/>
          </g>
        </g>
        <g id="Grupo_1026806" data-name="Grupo 1026806" transform="translate(56.966 15.72)">
          <g id="Grupo_1026805" data-name="Grupo 1026805" clip-path="url(#clip-path-66)">
            <path id="Trazado_767090" data-name="Trazado 767090" d="M60.422,5.314l13.81,10.26L66.874,26.03,53.064,15.77Z" transform="translate(-53.353 -15.358)" fill="url(#linear-gradient-52)"/>
          </g>
        </g>
        <g id="Grupo_1026808" data-name="Grupo 1026808">
          <g id="Grupo_1026807" data-name="Grupo 1026807" clip-path="url(#clip-path)">
            <line id="Línea_3486" data-name="Línea 3486" x2="20.589" y2="0.627" transform="translate(56.966 15.72)" fill="none" stroke="#fff" stroke-miterlimit="10" stroke-width="0.798"/>
          </g>
        </g>
        <g id="Grupo_1026810" data-name="Grupo 1026810" transform="translate(56.567 20.282)">
          <g id="Grupo_1026809" data-name="Grupo 1026809" clip-path="url(#clip-path-68)">
            <path id="Trazado_767092" data-name="Trazado 767092" d="M60.019,9.634,73.868,19.923,66.437,30.482,52.588,20.193Z" transform="translate(-52.987 -19.626)" fill="url(#linear-gradient-53)"/>
          </g>
        </g>
        <g id="Grupo_1026812" data-name="Grupo 1026812">
          <g id="Grupo_1026811" data-name="Grupo 1026811" clip-path="url(#clip-path)">
            <line id="Línea_3487" data-name="Línea 3487" x2="20.481" y2="0.864" transform="translate(56.567 20.281)" fill="none" stroke="#fff" stroke-miterlimit="10" stroke-width="0.798"/>
          </g>
        </g>
        <g id="Grupo_1026814" data-name="Grupo 1026814" transform="translate(56.169 24.842)">
          <g id="Grupo_1026813" data-name="Grupo 1026813" clip-path="url(#clip-path-70)">
            <path id="Trazado_767094" data-name="Trazado 767094" d="M59.616,13.954,73.5,24.27,66,34.932,52.113,24.616Z" transform="translate(-52.621 -23.892)" fill="url(#linear-gradient-54)"/>
          </g>
        </g>
        <g id="Grupo_1026816" data-name="Grupo 1026816">
          <g id="Grupo_1026815" data-name="Grupo 1026815" clip-path="url(#clip-path)">
            <line id="Línea_3488" data-name="Línea 3488" x2="20.372" y2="1.101" transform="translate(56.168 24.843)" fill="none" stroke="#fff" stroke-miterlimit="10" stroke-width="0.798"/>
          </g>
        </g>
        <g id="Grupo_1026818" data-name="Grupo 1026818" transform="translate(55.769 29.404)">
          <g id="Grupo_1026817" data-name="Grupo 1026817" clip-path="url(#clip-path-72)">
            <path id="Trazado_767096" data-name="Trazado 767096" d="M59.212,18.274,73.137,28.619,65.561,39.383,51.636,29.038Z" transform="translate(-52.254 -28.16)" fill="url(#linear-gradient-55)"/>
          </g>
        </g>
        <g id="Grupo_1026820" data-name="Grupo 1026820">
          <g id="Grupo_1026819" data-name="Grupo 1026819" clip-path="url(#clip-path)">
            <line id="Línea_3489" data-name="Línea 3489" x2="20.265" y2="1.338" transform="translate(55.769 29.404)" fill="none" stroke="#fff" stroke-miterlimit="10" stroke-width="0.798"/>
          </g>
        </g>
      </g>
    </g>
  </g>
</svg>
