<svg xmlns="http://www.w3.org/2000/svg" xmlns:xlink="http://www.w3.org/1999/xlink" width="400" height="195" viewBox="0 0 400 195">
  <defs>
    <clipPath id="clip-path">
      <rect id="Rectángulo_360359" data-name="Rectángulo 360359" width="372.618" height="195" fill="none"/>
    </clipPath>
    <clipPath id="clip-path-3">
      <rect id="Rectángulo_360349" data-name="Rectángulo 360349" width="63.96" height="105.948" transform="translate(307.8 32.473)" fill="none"/>
    </clipPath>
  </defs>
  <g id="Grupo_1027034" data-name="Grupo 1027034" transform="translate(11052 4291)">
    <rect id="Rectángulo_359614" data-name="Rectángulo 359614" width="400" height="195" transform="translate(-11052 -4291)" fill="none"/>
    <g id="Grupo_1027033" data-name="Grupo 1027033" transform="translate(-11038 -4291)">
      <g id="Grupo_1027032" data-name="Grupo 1027032" clip-path="url(#clip-path)">
        <g id="Grupo_1027031" data-name="Grupo 1027031">
          <g id="Grupo_1027030" data-name="Grupo 1027030" clip-path="url(#clip-path)">
            <g id="Grupo_1027029" data-name="Grupo 1027029" opacity="0.5">
              <g id="Grupo_1027028" data-name="Grupo 1027028">
                <g id="Grupo_1027027" data-name="Grupo 1027027" clip-path="url(#clip-path-3)">
                  <path id="Trazado_768858" data-name="Trazado 768858" d="M327.538,134.516a.329.329,0,0,1-.068-.014.342.342,0,0,1-.225-.429c14.674-47.241,27.937-80.567,37.346-93.839.209-.3.359-.507.417-.615a.343.343,0,1,1,.605.324,8.164,8.164,0,0,1-.463.688c-9.368,13.214-22.6,46.471-37.251,93.645a.342.342,0,0,1-.361.24" fill="#62c1c5"/>
                  <path id="Trazado_768859" data-name="Trazado 768859" d="M371.089,37.856c-1.114,1.489-6.676,4.19-7.1,3.872s.6-6.416,1.709-7.9a3.367,3.367,0,1,1,5.392,4.033" fill="#62c1c5"/>
                  <path id="Trazado_768860" data-name="Trazado 768860" d="M360.357,42.316c.53,1.827-.688,8.034-1.209,8.185s-4.876-4.437-5.406-6.264a3.444,3.444,0,1,1,6.615-1.921" fill="#62c1c5"/>
                  <path id="Trazado_768861" data-name="Trazado 768861" d="M366.859,53.25c-1.9.106-7.673-2.479-7.7-3.021s5.421-3.751,7.32-3.857a3.444,3.444,0,1,1,.383,6.878" fill="#62c1c5"/>
                  <path id="Trazado_768862" data-name="Trazado 768862" d="M343.8,73.565c1.216,2.952.306,13.531-.537,13.878s-8.939-6.522-10.155-9.475a5.782,5.782,0,0,1,10.692-4.4" fill="#62c1c5"/>
                  <path id="Trazado_768863" data-name="Trazado 768863" d="M356.633,90.635c-3.15.52-13.252-2.749-13.4-3.648s8.368-7.241,11.518-7.761a5.782,5.782,0,0,1,1.883,11.409" fill="#62c1c5"/>
                  <path id="Trazado_768864" data-name="Trazado 768864" d="M335.4,85.336c2.247,3.2,4.01,16.07,3.1,16.711s-12.427-5.378-14.674-8.575A7.075,7.075,0,0,1,335.4,85.336" fill="#62c1c5"/>
                  <path id="Trazado_768865" data-name="Trazado 768865" d="M353.761,107.691c-3.9.236-15.785-5.015-15.853-6.128s11.1-7.76,15-8a7.075,7.075,0,1,1,.855,14.124" fill="#62c1c5"/>
                  <path id="Trazado_768866" data-name="Trazado 768866" d="M330.118,100.736c2.247,3.2,4.01,16.07,3.1,16.711s-12.427-5.378-14.674-8.575a7.075,7.075,0,0,1,11.577-8.136" fill="#62c1c5"/>
                  <path id="Trazado_768867" data-name="Trazado 768867" d="M348.483,123.092c-3.9.236-15.785-5.015-15.853-6.128s11.1-7.76,15-8a7.075,7.075,0,1,1,.855,14.124" fill="#62c1c5"/>
                  <path id="Trazado_768868" data-name="Trazado 768868" d="M318.678,120.045c3.295,2.1,9.828,13.331,9.229,14.272s-13.539-.24-16.834-2.34a7.075,7.075,0,1,1,7.605-11.932" fill="#62c1c5"/>
                  <path id="Trazado_768869" data-name="Trazado 768869" d="M343.8,138.329c-3.84.722-16.288-3-16.494-4.1s10.04-9.086,13.88-9.808a7.075,7.075,0,1,1,2.614,13.906" fill="#62c1c5"/>
                  <path id="Trazado_768870" data-name="Trazado 768870" d="M355.251,52.046c.539,1.856-.7,8.164-1.229,8.317S349.069,55.855,348.53,54a3.5,3.5,0,1,1,6.721-1.953" fill="#62c1c5"/>
                  <path id="Trazado_768871" data-name="Trazado 768871" d="M361.606,63.271c-1.93.107-7.8-2.519-7.826-3.07s5.508-3.811,7.437-3.918a3.5,3.5,0,1,1,.389,6.988" fill="#62c1c5"/>
                  <path id="Trazado_768872" data-name="Trazado 768872" d="M349.441,61.073c.979,2.565-.038,11.639-.77,11.919s-7.54-5.806-8.519-8.372a4.972,4.972,0,1,1,9.289-3.547" fill="#62c1c5"/>
                  <path id="Trazado_768873" data-name="Trazado 768873" d="M359.713,77.042c-2.742.152-11.075-3.579-11.119-4.361s7.825-5.415,10.567-5.567a4.972,4.972,0,0,1,.552,9.928" fill="#62c1c5"/>
                </g>
              </g>
            </g>
            <path id="Trazado_768874" data-name="Trazado 768874" d="M34.159,144.407a.14.14,0,0,0,.026-.016.154.154,0,0,0,.027-.216C20.624,126.713,9.821,114.854,3.791,110.781c-.134-.091-.231-.156-.272-.192a.153.153,0,0,0-.2.231,3.615,3.615,0,0,0,.3.215c6,4.055,16.783,15.891,30.351,33.329a.154.154,0,0,0,.189.043" fill="#1f8b8d"/>
            <path id="Trazado_768875" data-name="Trazado 768875" d="M.695,110.81a7.726,7.726,0,0,0,3.583.5,7.74,7.74,0,0,0-1.962-3.04A1.506,1.506,0,0,0,.695,110.81" fill="#1f8b8d"/>
            <path id="Trazado_768876" data-name="Trazado 768876" d="M5.891,110.985a7.91,7.91,0,0,0,1.8,3.236,7.906,7.906,0,0,0,1.276-3.474,1.541,1.541,0,0,0-3.072.238" fill="#1f8b8d"/>
            <path id="Trazado_768877" data-name="Trazado 768877" d="M4.892,116.587a7.9,7.9,0,0,0,2.748-2.479,7.916,7.916,0,0,0-3.672-.46,1.54,1.54,0,1,0,.924,2.939" fill="#1f8b8d"/>
            <path id="Trazado_768878" data-name="Trazado 768878" d="M17.744,121.457c-.044,1.427,2,5.712,2.412,5.725s2.714-4.139,2.757-5.567a2.586,2.586,0,1,0-5.169-.158" fill="#1f8b8d"/>
            <path id="Trazado_768879" data-name="Trazado 768879" d="M15.064,130.624c1.4-.279,5.114-3.239,5.034-3.639s-4.643-1.712-6.044-1.433a2.586,2.586,0,1,0,1.01,5.072" fill="#1f8b8d"/>
            <path id="Trazado_768880" data-name="Trazado 768880" d="M23.119,125.059c-.437,1.692.854,7.359,1.337,7.483s4.355-4.21,4.791-5.9a3.164,3.164,0,0,0-6.128-1.581" fill="#1f8b8d"/>
            <path id="Trazado_768881" data-name="Trazado 768881" d="M18.955,137.311c1.669-.516,5.816-4.587,5.67-5.063s-5.869-1.5-7.538-.984a3.164,3.164,0,1,0,1.868,6.047" fill="#1f8b8d"/>
            <path id="Trazado_768882" data-name="Trazado 768882" d="M27.755,130.674c-.437,1.692.854,7.359,1.337,7.483s4.355-4.21,4.791-5.9a3.164,3.164,0,1,0-6.128-1.581" fill="#1f8b8d"/>
            <path id="Trazado_768883" data-name="Trazado 768883" d="M23.591,142.926c1.67-.516,5.817-4.587,5.67-5.064s-5.868-1.5-7.538-.983a3.164,3.164,0,0,0,1.868,6.047" fill="#1f8b8d"/>
            <path id="Trazado_768884" data-name="Trazado 768884" d="M35.587,136.953c-1.048,1.4-2.013,7.129-1.614,7.429s5.63-2.234,6.678-3.633a3.164,3.164,0,0,0-5.064-3.8" fill="#1f8b8d"/>
            <path id="Trazado_768885" data-name="Trazado 768885" d="M27.953,148.566c1.721-.3,6.345-3.824,6.259-4.315s-5.635-2.221-7.356-1.918a3.164,3.164,0,1,0,1.1,6.233" fill="#1f8b8d"/>
            <path id="Trazado_768886" data-name="Trazado 768886" d="M9.561,114.253a8.035,8.035,0,0,0,1.825,3.288,8.03,8.03,0,0,0,1.3-3.53,1.565,1.565,0,1,0-3.121.242" fill="#1f8b8d"/>
            <path id="Trazado_768887" data-name="Trazado 768887" d="M8.67,119.953a8.028,8.028,0,0,0,2.792-2.518,8.024,8.024,0,0,0-3.731-.469,1.566,1.566,0,0,0,.939,2.987" fill="#1f8b8d"/>
            <path id="Trazado_768888" data-name="Trazado 768888" d="M13.416,117.116c-.006,1.228,1.85,4.866,2.2,4.868s2.241-3.619,2.246-4.847a2.224,2.224,0,0,0-4.447-.021" fill="#1f8b8d"/>
            <path id="Trazado_768889" data-name="Trazado 768889" d="M11.633,125.419c1.172-.368,4.072-3.243,3.967-3.578s-4.129-1.033-5.3-.665a2.224,2.224,0,0,0,1.334,4.243" fill="#1f8b8d"/>
            <path id="Trazado_768890" data-name="Trazado 768890" d="M63.6,110.75a.263.263,0,0,0,.049,0,.241.241,0,0,0,.238-.246c-.554-35.007-2.923-60.282-6.669-71.17-.083-.242-.143-.416-.161-.5a.243.243,0,1,0-.475.1c.024.114.082.282.177.559,3.73,10.841,6.089,36.063,6.643,71.019a.243.243,0,0,0,.2.235" fill="#62c1c5"/>
            <path id="Trazado_768891" data-name="Trazado 768891" d="M53.273,36.429c.46,1.233,3.7,4.175,4.051,4.044s.874-4.476.414-5.709a2.383,2.383,0,1,0-4.465,1.665" fill="#62c1c5"/>
            <path id="Trazado_768892" data-name="Trazado 768892" d="M59.673,41.6c-.724,1.135-1.133,5.593-.809,5.8s4.195-2.042,4.919-3.177a2.438,2.438,0,1,0-4.11-2.623" fill="#62c1c5"/>
            <path id="Trazado_768893" data-name="Trazado 768893" d="M53.079,47.727c1.269.45,5.705-.155,5.833-.517s-2.934-3.628-4.2-4.078a2.438,2.438,0,1,0-1.63,4.6" fill="#62c1c5"/>
            <path id="Trazado_768894" data-name="Trazado 768894" d="M64.689,66.116c-1.414,1.763-2.9,9.129-2.4,9.532s7.37-2.649,8.784-4.412a4.092,4.092,0,1,0-6.384-5.12" fill="#62c1c5"/>
            <path id="Trazado_768895" data-name="Trazado 768895" d="M52.576,75.153c2.036.981,9.548.773,9.828.192s-4.241-6.584-6.277-7.565a4.092,4.092,0,0,0-3.551,7.373" fill="#62c1c5"/>
            <path id="Trazado_768896" data-name="Trazado 768896" d="M68.055,75.785c-2.163,1.724-5.924,10.115-5.432,10.732s9.511-1.177,11.674-2.9a5.008,5.008,0,1,0-6.242-7.832" fill="#62c1c5"/>
            <path id="Trazado_768897" data-name="Trazado 768897" d="M51.129,87.309c2.6.937,11.719-.261,11.987-1s-5.991-7.481-8.593-8.418a5.007,5.007,0,1,0-3.394,9.422" fill="#62c1c5"/>
            <path id="Trazado_768898" data-name="Trazado 768898" d="M68.572,87.295c-2.163,1.723-5.924,10.115-5.432,10.732s9.511-1.177,11.674-2.9a5.008,5.008,0,1,0-6.242-7.832" fill="#62c1c5"/>
            <path id="Trazado_768899" data-name="Trazado 768899" d="M51.646,98.82c2.6.937,11.719-.261,11.987-1S57.642,90.335,55.04,89.4a5.007,5.007,0,1,0-3.394,9.422" fill="#62c1c5"/>
            <path id="Trazado_768900" data-name="Trazado 768900" d="M72.494,102.688c-2.656.77-9.331,7.1-9.111,7.854s9.243,2.535,11.9,1.765a5.007,5.007,0,0,0-2.788-9.619" fill="#62c1c5"/>
            <path id="Trazado_768901" data-name="Trazado 768901" d="M51.791,110.1c2.464,1.255,11.66,1.206,12.018.5s-5.008-8.171-7.472-9.427a5.008,5.008,0,1,0-4.546,8.924" fill="#62c1c5"/>
            <path id="Trazado_768902" data-name="Trazado 768902" d="M61.2,49.221c-.736,1.154-1.151,5.684-.822,5.894s4.262-2.075,5-3.228A2.477,2.477,0,0,0,61.2,49.221" fill="#62c1c5"/>
            <path id="Trazado_768903" data-name="Trazado 768903" d="M54.65,55.578c1.289.457,5.8-.158,5.927-.526s-2.982-3.685-4.271-4.143a2.477,2.477,0,0,0-1.656,4.669" fill="#62c1c5"/>
            <path id="Trazado_768904" data-name="Trazado 768904" d="M63.35,56.509c-1.176,1.547-2.293,7.912-1.851,8.248s6.277-2.441,7.453-3.988a3.519,3.519,0,0,0-5.6-4.26" fill="#62c1c5"/>
            <path id="Trazado_768905" data-name="Trazado 768905" d="M53.193,65.308c1.832.65,8.235-.224,8.42-.747s-4.236-5.236-6.067-5.886a3.519,3.519,0,1,0-2.353,6.633" fill="#62c1c5"/>
            <path id="Trazado_768906" data-name="Trazado 768906" d="M309.513,176.073s-23.436-40.006,51.284-68.432c0,0-1.451,82.328-51.284,68.432" fill="#1f8b8d"/>
            <path id="Trazado_768907" data-name="Trazado 768907" d="M360.892,107.511l-53.418,63.083c-3.435-11.84-4.72-40.966,53.418-63.083" fill="#62c1c5"/>
            <path id="Trazado_768908" data-name="Trazado 768908" d="M309.729,168.065a.135.135,0,0,1-.1-.222l51.162-60.419a.135.135,0,0,1,.206.174l-51.162,60.419a.134.134,0,0,1-.1.048" fill="#1a264c"/>
            <path id="Trazado_768909" data-name="Trazado 768909" d="M334.182,139.187a.135.135,0,0,1-.018-.268l21.8-2.921a.135.135,0,0,1,.036.267l-21.8,2.921h-.018" fill="#1a264c"/>
            <path id="Trazado_768910" data-name="Trazado 768910" d="M323.223,152.13a.124.124,0,0,1-.027,0,.134.134,0,0,1-.105-.159l4.306-21.155a.135.135,0,0,1,.265.054l-4.307,21.155a.135.135,0,0,1-.132.108" fill="#1a264c"/>
            <path id="Trazado_768911" data-name="Trazado 768911" d="M320.395,176.373s-5.342-32.956,52.222-32.627c0,0-22.368,54.909-52.222,32.627" fill="#62c1c5"/>
            <path id="Trazado_768912" data-name="Trazado 768912" d="M372.618,143.746,320.4,176.373s25.168,25.6,52.222-32.627" fill="#1f8b8d"/>
            <path id="Trazado_768913" data-name="Trazado 768913" d="M360.834,158.049l-.025.005-14.13,1.488a.2.2,0,0,1-.215-.174.2.2,0,0,1,.174-.215l14.13-1.486a.2.2,0,0,1,.215.173.193.193,0,0,1-.149.209" fill="#62c1c5"/>
            <path id="Trazado_768914" data-name="Trazado 768914" d="M344.83,172.989a.211.211,0,0,1-.044.005l-18.8.083a.194.194,0,1,1,0-.389l18.8-.083a.195.195,0,0,1,.046.384" fill="#62c1c5"/>
            <path id="Trazado_768915" data-name="Trazado 768915" d="M65.57,179.549S104.592,144.9,34.53,88.442c0,0-27.135,88.615,31.04,91.107" fill="#62c1c5"/>
            <path id="Trazado_768916" data-name="Trazado 768916" d="M34.473,88.27,69.661,174.4c7.8-11.475,19.325-42.2-35.188-86.126" fill="#1f8b8d"/>
            <path id="Trazado_768917" data-name="Trazado 768917" d="M68.175,170.894a.135.135,0,0,1-.125-.084l-33.7-82.489a.135.135,0,0,1,.25-.1l33.7,82.489a.135.135,0,0,1-.074.176.132.132,0,0,1-.051.01" fill="#1a264c"/>
            <path id="Trazado_768918" data-name="Trazado 768918" d="M52.067,131.468a.132.132,0,0,1-.058-.013L29.7,120.733a.135.135,0,0,1,.117-.243l22.31,10.722a.135.135,0,0,1-.058.256" fill="#1a264c"/>
            <path id="Trazado_768919" data-name="Trazado 768919" d="M59.287,149.137h-.015a.134.134,0,0,1-.119-.149l2.762-24.141a.135.135,0,1,1,.268.03l-2.762,24.141a.136.136,0,0,1-.134.12" fill="#060633"/>
            <path id="Trazado_768920" data-name="Trazado 768920" d="M60.128,178.933S71.439,143.1,7.276,134.1c0,0,15.979,64.791,52.852,44.832" fill="#1f8b8d"/>
            <path id="Trazado_768921" data-name="Trazado 768921" d="M7.276,134.1l52.852,44.832S27.934,203.346,7.276,134.1" fill="#62c1c5"/>
            <path id="Trazado_768922" data-name="Trazado 768922" d="M18.073,151.947l.027.009,15.5,3.955a.219.219,0,1,0,.109-.424l-15.5-3.956a.219.219,0,0,0-.135.416" fill="#1f8b8d"/>
            <path id="Trazado_768923" data-name="Trazado 768923" d="M33.467,171.189a.188.188,0,0,0,.048.013l20.928,3.152a.219.219,0,0,0,.065-.434L33.58,170.768a.219.219,0,0,0-.113.421" fill="#1f8b8d"/>
            <path id="Trazado_768924" data-name="Trazado 768924" d="M344.511,183.028c0-6.612-70.928-11.972-158.423-11.972s-158.423,5.36-158.423,11.972S98.593,195,186.088,195s158.423-5.36,158.423-11.972" fill="#62c1c5"/>
            <path id="Trazado_768925" data-name="Trazado 768925" d="M187.96,151.954s-1.81,23.2.658,25.664,6.086,4.771,6.415,6.252-10.692-.165-11.679-1.645-.823-3.949-1.81-10.858-2.468-19.413-2.468-19.413Z" fill="#fb9391"/>
            <path id="Trazado_768926" data-name="Trazado 768926" d="M195.033,183.87c-.224-1.008-1.972-2.4-3.843-3.958-.412,3.167-6.632-.08-8.768-1.3a8.318,8.318,0,0,0,.931,3.611c.987,1.481,12.01,3.126,11.68,1.645" fill="#0b0755"/>
            <path id="Trazado_768927" data-name="Trazado 768927" d="M175.449,151.954s-1.81,23.2.658,25.664,6.086,4.771,6.415,6.252-10.692-.165-11.679-1.645-.823-3.949-1.81-10.858-2.468-19.413-2.468-19.413Z" fill="#fb9391"/>
            <path id="Trazado_768928" data-name="Trazado 768928" d="M182.523,183.87c-.225-1.008-1.972-2.4-3.843-3.958-.412,3.167-6.632-.08-8.769-1.3a8.333,8.333,0,0,0,.931,3.611c.987,1.481,12.01,3.126,11.681,1.645" fill="#0b0755"/>
            <rect id="Rectángulo_360350" data-name="Rectángulo 360350" width="2.694" height="12.577" transform="translate(139.121 120.488)" fill="#060633"/>
            <path id="Trazado_768929" data-name="Trazado 768929" d="M161.409,140.859H130.9a2.37,2.37,0,0,1-2.37-2.37v-5.8a2.37,2.37,0,0,1,2.37-2.37h30.513a2.37,2.37,0,0,1,2.37,2.37v5.8a2.37,2.37,0,0,1-2.37,2.37" fill="#fa7267"/>
            <path id="Trazado_768930" data-name="Trazado 768930" d="M149.794,122.809H128.683a3.13,3.13,0,0,1-3.13-3.131V98.568a3.13,3.13,0,0,1,3.13-3.131h21.111a3.131,3.131,0,0,1,3.131,3.131v21.11a3.131,3.131,0,0,1-3.131,3.131" fill="#fa7267"/>
            <rect id="Rectángulo_360351" data-name="Rectángulo 360351" width="2.694" height="38.066" transform="translate(145.529 140.858)" fill="#060633"/>
            <path id="Trazado_768931" data-name="Trazado 768931" d="M160.3,179.733H133.513a.808.808,0,0,1,0-1.616H160.3a.808.808,0,1,1,0,1.616" fill="#060633"/>
            <path id="Trazado_768932" data-name="Trazado 768932" d="M156.269,181.41a1.968,1.968,0,1,1,1.969,1.969,1.969,1.969,0,0,1-1.969-1.969" fill="#060633"/>
            <path id="Trazado_768933" data-name="Trazado 768933" d="M134.094,181.41a1.969,1.969,0,1,1,1.969,1.969,1.969,1.969,0,0,1-1.969-1.969" fill="#060633"/>
            <path id="Trazado_768934" data-name="Trazado 768934" d="M144.907,181.41a1.968,1.968,0,1,1,1.969,1.969,1.969,1.969,0,0,1-1.969-1.969" fill="#060633"/>
            <path id="Trazado_768935" data-name="Trazado 768935" d="M142.639,120.488s-1.118,11.508,3.514,14.223,18.144,6.078,18.856,8.4,1.04,16.228,1.04,16.228a42.13,42.13,0,0,0,24.562-1.746s0-22.011-3.75-25.214c-7.866-6.719-19.4-10.6-19.4-10.6Z" fill="#1a264c"/>
            <path id="Trazado_768936" data-name="Trazado 768936" d="M187.059,100.449a32.947,32.947,0,0,1,.311-4.435c.275-1.175-.331-2.518.364-2.6s1.1,2.206,1.1,2.206,1.587-1.873,1.987-2.523,1.41-1.631,1.909-1.375-1.642,3.243-1.642,3.243,2.049-2.338,2.559-2.2-1.658,3.5-1.658,3.5a20.242,20.242,0,0,1,2.4-2.664c.339-.063.433.369-.074,1.468a11.51,11.51,0,0,1-1.308,2.089,26.175,26.175,0,0,1,1.849-1.859c.263-.14.727-.141-.2,1.407s-3.464,4.567-5.346,5.561Z" fill="#fb9391"/>
            <path id="Trazado_768937" data-name="Trazado 768937" d="M155.527,127.343a33.032,33.032,0,0,1,3.828,2.262c.928.771,2.4.829,2.16,1.486s-2.467,0-2.467,0,.967,2.256,1.37,2.9.827,1.99.376,2.322-2.168-2.918-2.168-2.918,1.176,2.878.825,3.273-2.386-3.047-2.386-3.047a20.348,20.348,0,0,1,1.309,3.34c-.1.332-.524.223-1.28-.722a11.514,11.514,0,0,1-1.285-2.1,26.12,26.12,0,0,1,.837,2.485c.007.3-.2.712-1.17-.8s-2.537-5.141-2.585-7.269Z" fill="#fb9391"/>
            <path id="Trazado_768938" data-name="Trazado 768938" d="M154.134,81.05s-10.795,3.1-13.667,6.594-6.363,20.985-5.393,25.621,17.068,17.826,17.068,17.826l5.237-4.314-2.134-3.968s8.987,2.062,14.676,0l-.258-10.819s2.457,4.877,7.887,4.877,13.06-14.6,13.06-14.6L186.6,99.153s-5.381,5.234-9,6.213a1.438,1.438,0,0,1-1.775-1.009c-1.006-3.77-4.4-15.826-7.333-18.652-3.491-3.362-14.365-4.655-14.365-4.655" fill="#13676b"/>
            <path id="Trazado_768939" data-name="Trazado 768939" d="M169.663,112.057a.067.067,0,0,1-.067-.065l-.259-7.665a.073.073,0,0,1,.009-.035,11.81,11.81,0,0,0,1.349-4.881c0-2.4-2.669-5.1-2.7-5.124a.069.069,0,0,1,0-.1.068.068,0,0,1,.1,0c.028.028,2.735,2.764,2.735,5.22a11.9,11.9,0,0,1-1.357,4.93l.258,7.646a.067.067,0,0,1-.065.07Z" fill="#060633"/>
            <path id="Trazado_768940" data-name="Trazado 768940" d="M155.246,122.876a.068.068,0,0,1-.055-.028l-7.834-11.129a2.616,2.616,0,0,1-.466-1.733l1.209-13.62a.066.066,0,0,1,.073-.061.068.068,0,0,1,.061.073L147.025,110a2.487,2.487,0,0,0,.442,1.645L155.3,122.77a.067.067,0,0,1-.016.094.071.071,0,0,1-.039.012" fill="#060633"/>
            <path id="Trazado_768941" data-name="Trazado 768941" d="M159.867,73.9c.289-.059,5.734-3.033,3.509-10.123s-8.746-6.412-11.9-5.261-7.753,7.129-4.29,12.183,6.745,6.53,6.745,6.53Z" fill="#0b0755"/>
            <path id="Trazado_768942" data-name="Trazado 768942" d="M163.092,69.4s.569-.921,1.053-.569c1.233.9-.032,2.183-.825,2.475Z" fill="#ea6868"/>
            <path id="Trazado_768943" data-name="Trazado 768943" d="M155.165,58.678a7.361,7.361,0,0,0-5.9,10.534,31.763,31.763,0,0,0,3.089,6.04,7.325,7.325,0,0,1,1.441,5.168l-.207,1.862c4.349,2.007,6.166.163,6.166.163l-.145-4.637c4.613-.7,3.729-9.223,3.65-11.749h-.007c0-.094,0-.189,0-.285a7.363,7.363,0,0,0-8.082-7.1" fill="#fb9391"/>
            <path id="Trazado_768944" data-name="Trazado 768944" d="M154.871,66.182a31.462,31.462,0,0,0-2.374,3.039,7.952,7.952,0,0,0-1.755,3.633,9.478,9.478,0,0,1-2.716-3.534,6.948,6.948,0,0,1-.742-1.942,7.689,7.689,0,0,1,.247-2.926,8.043,8.043,0,0,1,1.372-3.518,6.116,6.116,0,0,1,2.016-1.491,10.372,10.372,0,0,1,5.7-1.144,7.462,7.462,0,0,1,5.068,2.692c1.558,1.994,1.809,4.68,2,7.2a7.453,7.453,0,0,0-1.709-2.719,6.326,6.326,0,0,0-1.53-1.433,30.89,30.89,0,0,1-3.128-1.606,8.718,8.718,0,0,1-2.448,3.746" fill="#0b0755"/>
            <path id="Trazado_768945" data-name="Trazado 768945" d="M162.164,69.44a.642.642,0,1,0-.683.6.642.642,0,0,0,.683-.6" fill="#060633"/>
            <path id="Trazado_768946" data-name="Trazado 768946" d="M155.835,70.372a.642.642,0,1,0-.683.6.642.642,0,0,0,.683-.6" fill="#060633"/>
            <path id="Trazado_768947" data-name="Trazado 768947" d="M161.053,73.625s-.9-.467-1.22-.348a.956.956,0,0,0-.465.529.743.743,0,0,0-.628-.349,7.162,7.162,0,0,0-1.662.894s1.4,1.586,2.584,1.262c1.208-.33,1.391-1.988,1.391-1.988" fill="#ea6868"/>
            <path id="Trazado_768948" data-name="Trazado 768948" d="M153.885,69.763a.268.268,0,0,1-.186-.467,3.21,3.21,0,0,1,2.025-.7.269.269,0,0,1,.265.271.275.275,0,0,1-.271.264,2.669,2.669,0,0,0-1.664.567.269.269,0,0,1-.169.067" fill="#0b0755"/>
            <path id="Trazado_768949" data-name="Trazado 768949" d="M160.348,68.553a.267.267,0,0,1-.048-.5,3.174,3.174,0,0,1,2.14-.11.267.267,0,0,1-.155.512,2.658,2.658,0,0,0-1.756.081.272.272,0,0,1-.181.017" fill="#0b0755"/>
            <path id="Trazado_768950" data-name="Trazado 768950" d="M158.8,72.729a1.144,1.144,0,0,0,1-1.047.221.221,0,0,0-.055-.157,3.324,3.324,0,0,1-.675-2.041.225.225,0,0,0-.449-.016,3.769,3.769,0,0,0,.718,2.273c-.039.179-.209.581-.931.568a.225.225,0,0,0-.008.45,1.96,1.96,0,0,0,.4-.03" fill="#ea6868"/>
            <path id="Trazado_768951" data-name="Trazado 768951" d="M157.078,74.351a38.083,38.083,0,0,0,3.975-.726s-.615,1.3-1.548,1.388a6.042,6.042,0,0,1-2.427-.662" fill="#fff"/>
            <path id="Trazado_768952" data-name="Trazado 768952" d="M155.162,72.573a2.2,2.2,0,0,1-2.139-1.725,2.187,2.187,0,1,1,2.139,1.725m.005-4.259a2.119,2.119,0,0,0-.444.049,2.057,2.057,0,1,0,.444-.049" fill="#060633"/>
            <path id="Trazado_768953" data-name="Trazado 768953" d="M161.49,71.465a2.212,2.212,0,1,1,.476-.053,2.144,2.144,0,0,1-.476.053m.008-4.259a2.068,2.068,0,1,0,1.1.326,2.056,2.056,0,0,0-1.1-.326" fill="#060633"/>
            <rect id="Rectángulo_360352" data-name="Rectángulo 360352" width="2.663" height="0.135" transform="matrix(0.995, -0.104, 0.104, 0.995, 150.383, 70.818)" fill="#060633"/>
            <path id="Trazado_768954" data-name="Trazado 768954" d="M157.332,70.245l-.089-.1a1.933,1.933,0,0,1,2.221-.415l-.067.117a1.772,1.772,0,0,0-2.065.4" fill="#060633"/>
            <path id="Trazado_768955" data-name="Trazado 768955" d="M151.57,71.2a1.093,1.093,0,0,0-.589-.5,1.845,1.845,0,0,0-2.014.25c-.876.933,1.017,3.272,2.777,2.025,0,0,.5-.53-.174-1.774" fill="#fb9391"/>
            <path id="Trazado_768956" data-name="Trazado 768956" d="M152.1,59.28a4.518,4.518,0,1,0-3.44,5.384,4.517,4.517,0,0,0,3.44-5.384" fill="#0b0755"/>
            <path id="Trazado_768957" data-name="Trazado 768957" d="M223.66,67.379c.058,2.034,2.5,3.729,1.833,5.649-.148.427-.444.794-.563,1.23a2.089,2.089,0,0,0,1.383,2.337,4,4,0,0,0,2.9-.229c.917-.383,1.75-.942,2.654-1.354,2.028-.923,4.309-1.062,6.495-1.492,2.217-.436,4.421-1.186,6.676-1.029,2.6.181,4.943,1.543,7.378,2.474a23.075,23.075,0,0,0,7.783,1.513,8.376,8.376,0,0,0,4.05-.727,5.659,5.659,0,0,0,2.417-6.975,6.74,6.74,0,0,0-3.012-3.348c-1.191-.664-2.71-.887-3.609-2-1.258-1.559-.486-3.889-.983-5.829a5.721,5.721,0,0,0-3.311-3.625c-1.419-.607-3.182-.691-4.247-1.94-1.158-1.357-.774-3.235-.982-4.864a8.068,8.068,0,0,0-3.838-5.633,10.36,10.36,0,0,0-1.917-.93c-4.473-1.642-10.3-.51-11.872,4.6-.481,1.567-.446,3.32-1.3,4.717-.931,1.519-2.806,2.417-3.323,4.122-.649,2.142,1.187,4.443.582,6.6-.4,1.408-1.711,2.319-2.875,3.205s-2.357,2.064-2.316,3.526" fill="#060633"/>
            <path id="Trazado_768958" data-name="Trazado 768958" d="M248.02,173.522s-.148,10.748-1.277,11.923c-.645.67-13.462,2.078-13.823.361s9.4-4.066,10.118-7.228a20.115,20.115,0,0,0,.362-6.143Z" fill="#fb9391"/>
            <path id="Trazado_768959" data-name="Trazado 768959" d="M213.328,170.752s-2.579,5.673-3.094,6.7-1.032,4.642-2.063,4.771-12.12,1.289-12.378-.516,9.8-4.77,10.444-6.189,3.094-7.349,3.094-7.349Z" fill="#fb9391"/>
            <path id="Trazado_768960" data-name="Trazado 768960" d="M250.815,96.491s7.228,12.082,7.875,18.339-3.991,29.665-3.938,31.175.656,4.963.031,7.336-4.507,9.493-3.968,11.435-.971,11.219-.971,11.219H241.43s1.079-11,0-15.75-1.079-12.514-1.079-15.75V120.331s-5.178,9.925-5.394,11.219-.431,2.373-2.157,6.9-5.61,8.2-6.257,10.141-.863,3.883-1.942,5.825-3.667,2.8-4.746,7.551-5.394,11.435-5.394,11.435l-9.277-3.237s6.9-17.907,6.9-18.554,3.236-4.1,3.236-10.356,3.884-14.671,4.962-16.181,11-28.371,15-30.205,15.534,1.618,15.534,1.618" fill="#91b5f8"/>
            <path id="Trazado_768961" data-name="Trazado 768961" d="M246.338,63.319c4.369.162,11.165,2.1,15.048,8.576a60.773,60.773,0,0,1,5.664,12.46l-9.385,3.4-.971-3.722s-2.427,11.812-4.854,12.783-4.046-.809-5.5-.971-6.149,1.295-10.032.162-4.046-4.045-4.531-7.443-1.133-6.473-1.133-6.473l-1.456,1.133-7.5-7.5s8.8-9,13.651-10.459a62.5,62.5,0,0,1,11-1.942" fill="#fff"/>
            <path id="Trazado_768962" data-name="Trazado 768962" d="M265.152,85.042s.637,10.046,0,14.9-5.815,15.318-5.815,15.318l-3.129-3.236s5.194-14.487,2.543-24.665Z" fill="#fb9391"/>
            <path id="Trazado_768963" data-name="Trazado 768963" d="M233.846,52.441s-.727-.8-1.138-.368c-1.05,1.106.425,2.139,1.259,2.283Z" fill="#ea6868"/>
            <path id="Trazado_768964" data-name="Trazado 768964" d="M239.7,40.473a7.358,7.358,0,0,1,7.708,9.287,31.768,31.768,0,0,1-1.944,6.494,7.326,7.326,0,0,0-.482,5.341l.54,1.793c-3.911,2.759-6.084.924-6.084.924l-.643-4.233c-4.661.149-5.333-8.391-5.712-10.889h.007c-.018-.093-.036-.186-.05-.281a7.358,7.358,0,0,1,6.66-8.437" fill="#fb9391"/>
            <path id="Trazado_768965" data-name="Trazado 768965" d="M241.346,47.8a31.611,31.611,0,0,1,2.883,2.558,7.947,7.947,0,0,1,2.382,3.254,9.5,9.5,0,0,0,2.03-3.965,6.9,6.9,0,0,0,.377-2.043,7.664,7.664,0,0,0-.771-2.831,8.029,8.029,0,0,0-1.985-3.21,6.106,6.106,0,0,0-2.251-1.1,10.358,10.358,0,0,0-5.81-.094,7.456,7.456,0,0,0-4.493,3.562c-1.172,2.242-.933,4.927-.662,7.442a7.433,7.433,0,0,1,1.187-2.982,6.354,6.354,0,0,1,1.244-1.685,30.69,30.69,0,0,0,2.784-2.144,8.706,8.706,0,0,0,3.085,3.239" fill="#060633"/>
            <path id="Trazado_768966" data-name="Trazado 768966" d="M245.5,52.135a1.091,1.091,0,0,1,.488-.6,1.844,1.844,0,0,1,2.026-.118c1.029.758-.409,3.4-2.364,2.492,0,0-.585-.431-.15-1.775" fill="#fb9391"/>
            <path id="Trazado_768967" data-name="Trazado 768967" d="M235.061,52.327a.642.642,0,1,1,.78.465.642.642,0,0,1-.78-.465" fill="#060633"/>
            <path id="Trazado_768968" data-name="Trazado 768968" d="M241.156,52.089a.642.642,0,1,1,.78.465.642.642,0,0,1-.78-.465" fill="#060633"/>
            <path id="Trazado_768969" data-name="Trazado 768969" d="M237.143,56.706s.5-.45.839-.391a.951.951,0,0,1,.552.436.744.744,0,0,1,.555-.457,9.246,9.246,0,0,1,1.54.155s-.868,1.79-2.083,1.607a1.609,1.609,0,0,1-1.381-1.294Z" fill="#ea6868"/>
            <path id="Trazado_768970" data-name="Trazado 768970" d="M238.322,57.29a3.8,3.8,0,0,0,2.633-.988.091.091,0,0,0-.124-.132c-.08.076-1.995,1.837-3.69.4a.09.09,0,0,0-.128.01.091.091,0,0,0,.01.128,2.4,2.4,0,0,0,1.3.582" fill="#240d39"/>
            <path id="Trazado_768971" data-name="Trazado 768971" d="M243.106,50.861a.267.267,0,0,0,.072-.5,3.2,3.2,0,0,0-2.132-.211.268.268,0,0,0-.194.325.273.273,0,0,0,.324.193,2.673,2.673,0,0,1,1.75.164.266.266,0,0,0,.18.026" fill="#060633"/>
            <path id="Trazado_768972" data-name="Trazado 768972" d="M236.479,50.744a.267.267,0,0,0-.018-.5,3.177,3.177,0,0,0-2.135.175.267.267,0,1,0,.221.486,2.651,2.651,0,0,1,1.75-.152.27.27,0,0,0,.182-.007" fill="#060633"/>
            <path id="Trazado_768973" data-name="Trazado 768973" d="M238.666,54.941a1.142,1.142,0,0,1-1.175-.848.219.219,0,0,1,.026-.164,3.326,3.326,0,0,0,.294-2.128.225.225,0,1,1,.439-.1,3.773,3.773,0,0,1-.3,2.364c.071.169.311.534,1.018.39a.225.225,0,1,1,.09.441,1.994,1.994,0,0,1-.4.042" fill="#ea6868"/>
            <path id="Trazado_768974" data-name="Trazado 768974" d="M230.642,82.145a.056.056,0,0,1-.056-.051c-.295-3.216,2.193-7.753,2.218-7.8a.057.057,0,0,1,.077-.022.056.056,0,0,1,.022.076c-.025.046-2.5,4.554-2.205,7.735a.056.056,0,0,1-.051.061h-.005" fill="#272035"/>
            <path id="Trazado_768975" data-name="Trazado 768975" d="M248.485,84.279a10.085,10.085,0,0,1-5.091-1.6.056.056,0,0,1,.064-.092c.044.031,4.438,3.025,8.245.7a.056.056,0,1,1,.058.1,6.18,6.18,0,0,1-3.276.9" fill="#272035"/>
            <path id="Trazado_768976" data-name="Trazado 768976" d="M247.635,181.306c-6.558,3.342-8.746,2.208-9.471,1.142-2.686,1.322-5.432,2.432-5.238,3.357.362,1.717,13.179.309,13.823-.361.413-.43.7-2.141.886-4.138" fill="#474fea"/>
            <path id="Trazado_768977" data-name="Trazado 768977" d="M200.747,178.441c-2.588,1.154-5.084,2.36-4.953,3.271.257,1.8,11.346.644,12.377.515.936-.117,1.448-3.1,1.92-4.422-5.5,3.079-8.278,1.548-9.344.636" fill="#474fea"/>
            <path id="Trazado_768978" data-name="Trazado 768978" d="M257.032,111.395a35.777,35.777,0,0,0-3.841,2.905c-.9.944-2.481,1.187-2.142,1.865s2.655-.3,2.655-.3-.764,2.548-1.117,3.295-.646,2.244-.119,2.545,1.973-3.407,1.973-3.407-.911,3.242-.485,3.624,2.193-3.573,2.193-3.573a22.05,22.05,0,0,0-1,3.756c.144.345.592.175,1.29-.934a12.487,12.487,0,0,0,1.123-2.422,27.983,27.983,0,0,0-.594,2.777c.028.321.3.742,1.16-1.01s2.1-5.844,1.888-8.14Z" fill="#fb9391"/>
            <path id="Trazado_768979" data-name="Trazado 768979" d="M204.112,73.017a35.785,35.785,0,0,0-1.389-4.611c-.571-1.176-.252-2.739-1.005-2.657s-.638,2.6-.638,2.6-2.124-1.6-2.7-2.192-1.879-1.385-2.345-1,2.509,3.034,2.509,3.034-2.723-1.981-3.229-1.714,2.588,3.3,2.588,3.3a22.058,22.058,0,0,0-3.175-2.241c-.374.015-.37.494.428,1.534a12.5,12.5,0,0,0,1.88,1.895,28.276,28.276,0,0,0-2.4-1.523c-.311-.085-.8.024.544,1.439s4.751,4,6.977,4.6Z" fill="#fb9391"/>
            <path id="Trazado_768980" data-name="Trazado 768980" d="M227.66,81.7s-7.1,8.5-12.882,7.57-13.645-15-13.645-15l2.8-1.707s8.717,9.534,11.762,8.925,7.345-4.411,7.345-4.411Z" fill="#fb9391"/>
            <rect id="Rectángulo_360353" data-name="Rectángulo 360353" width="2.694" height="12.577" transform="translate(311.828 120.488)" fill="#060633"/>
            <path id="Trazado_768981" data-name="Trazado 768981" d="M292.234,140.859h30.514a2.37,2.37,0,0,0,2.369-2.37v-5.8a2.37,2.37,0,0,0-2.369-2.37H292.234a2.369,2.369,0,0,0-2.369,2.37v5.8a2.369,2.369,0,0,0,2.369,2.37" fill="#fa7267"/>
            <path id="Trazado_768982" data-name="Trazado 768982" d="M303.849,122.809H324.96a3.13,3.13,0,0,0,3.13-3.131V98.568a3.13,3.13,0,0,0-3.13-3.131H303.849a3.131,3.131,0,0,0-3.131,3.131v21.11a3.131,3.131,0,0,0,3.131,3.131" fill="#fa7267"/>
            <rect id="Rectángulo_360354" data-name="Rectángulo 360354" width="2.694" height="38.066" transform="translate(305.42 140.858)" fill="#060633"/>
            <path id="Trazado_768983" data-name="Trazado 768983" d="M320.13,179.733H293.346a.808.808,0,1,1,0-1.616H320.13a.808.808,0,0,1,0,1.616" fill="#060633"/>
            <path id="Trazado_768984" data-name="Trazado 768984" d="M297.374,181.41a1.968,1.968,0,1,0-1.969,1.969,1.969,1.969,0,0,0,1.969-1.969" fill="#060633"/>
            <path id="Trazado_768985" data-name="Trazado 768985" d="M319.549,181.41a1.969,1.969,0,1,0-1.969,1.969,1.97,1.97,0,0,0,1.969-1.969" fill="#060633"/>
            <path id="Trazado_768986" data-name="Trazado 768986" d="M308.736,181.41a1.968,1.968,0,1,0-1.969,1.969,1.969,1.969,0,0,0,1.969-1.969" fill="#060633"/>
            <path id="Trazado_768987" data-name="Trazado 768987" d="M276.566,93.62a32.995,32.995,0,0,0-.312-4.435c-.275-1.175.331-2.518-.364-2.6s-1.1,2.206-1.1,2.206-1.587-1.873-1.987-2.523-1.41-1.63-1.909-1.375,1.642,3.243,1.642,3.243-2.049-2.338-2.559-2.2,1.659,3.5,1.659,3.5a20.313,20.313,0,0,0-2.4-2.664c-.34-.063-.434.369.073,1.468a11.51,11.51,0,0,0,1.308,2.089,26.174,26.174,0,0,0-1.849-1.859c-.263-.14-.726-.141.2,1.407s3.464,4.567,5.346,5.561Z" fill="#fb9391"/>
            <path id="Trazado_768988" data-name="Trazado 768988" d="M278.6,172.22s-.514,6.835-.566,6.931.489.934.489.934l2.113.379,1.929-.887s1.047-6.668,1.249-7.65-5.214.293-5.214.293" fill="#fb9391"/>
            <path id="Trazado_768989" data-name="Trazado 768989" d="M282.566,179.577a5.5,5.5,0,0,1-4.518-.558s-8.11,3.04-7.862,5.352c0,0-.345.688,3.168.539s8.975-.305,9.122-.386.834.29.09-4.947" fill="#0b0755"/>
            <path id="Trazado_768990" data-name="Trazado 768990" d="M295.447,171.685s.1,6.7.044,6.795.489.935.489.935l2.113.378,1.929-.887s-.17-6.228.032-7.21-4.607-.011-4.607-.011" fill="#fb9391"/>
            <path id="Trazado_768991" data-name="Trazado 768991" d="M300.022,178.906a5.5,5.5,0,0,1-4.518-.558s-8.11,3.04-7.862,5.351c0,0-.346.689,3.168.54s8.975-.3,9.122-.386.834.29.09-4.947" fill="#0b0755"/>
            <path id="Trazado_768992" data-name="Trazado 768992" d="M303.166,65.241s-.514-.954-1.019-.631c-1.285.825-.194,2.134.582,2.474Z" fill="#ea6868"/>
            <path id="Trazado_768993" data-name="Trazado 768993" d="M303.2,61.9l.007,0c0-.1.01-.189.019-.285a7.367,7.367,0,1,1,13.763,4.267c-.836,1.654-1.568,3.067-2.312,4.23a10.525,10.525,0,0,0-1.6,6.483l.138,1.791c-4.727,1.989-6.58-.43-6.58-.43l.212-3.245a.817.817,0,0,0-.694-.859h-.008c-5.556-.874-3.174-9.435-2.945-11.953" fill="#fb9391"/>
            <path id="Trazado_768994" data-name="Trazado 768994" d="M310.409,66.437a.686.686,0,1,1,.621.745.686.686,0,0,1-.621-.745" fill="#060633"/>
            <path id="Trazado_768995" data-name="Trazado 768995" d="M304.45,64.669a.686.686,0,1,1,.621.745.686.686,0,0,1-.621-.745" fill="#060633"/>
            <path id="Trazado_768996" data-name="Trazado 768996" d="M312.952,65.594a.4.4,0,0,0,.4-.575,2.155,2.155,0,0,0-2.861-.952.4.4,0,0,0,.293.749,1.355,1.355,0,0,1,1.844.553.4.4,0,0,0,.326.225" fill="#060633"/>
            <path id="Trazado_768997" data-name="Trazado 768997" d="M306.647,63.944a.413.413,0,0,0,.211-.038.4.4,0,0,0,.187-.537,2.154,2.154,0,0,0-2.86-.952.4.4,0,0,0,.292.749,1.355,1.355,0,0,1,1.844.553.4.4,0,0,0,.326.225" fill="#060633"/>
            <path id="Trazado_768998" data-name="Trazado 768998" d="M318.51,63.517,316.067,68.3l-1.309-.388-.217-6.476Z" fill="#060633"/>
            <path id="Trazado_768999" data-name="Trazado 768999" d="M314.566,67.734a1.09,1.09,0,0,1,.618-.465,1.844,1.844,0,0,1,2,.37c.819.983-1.211,3.207-2.895,1.856,0,0-.465-.558.28-1.761" fill="#fb9391"/>
            <path id="Trazado_769000" data-name="Trazado 769000" d="M306.674,68.59a1.369,1.369,0,0,0,1.249.076.118.118,0,0,0,.053-.159.12.12,0,0,0-.16-.054,1.118,1.118,0,0,1-1.311-.311c-.1-.106-.145-.189-.142-.247,0-.082.111-.179.259-.312a3.505,3.505,0,0,0,1.19-2.071.119.119,0,0,0-.233-.051,3.256,3.256,0,0,1-1.116,1.945c-.184.165-.33.3-.338.477a.592.592,0,0,0,.2.42,1.551,1.551,0,0,0,.344.287" fill="#ea6868"/>
            <path id="Trazado_769001" data-name="Trazado 769001" d="M304.641,59.156s-1.121.645-1.786,5.074c0,0,.094-5,.7-5.493s1.09.419,1.09.419" fill="#060633"/>
            <path id="Trazado_769002" data-name="Trazado 769002" d="M325.838,117.119l-24.046-6.969-8.811,6.737.486,8.251-.033,0-9.861,8.093a10.929,10.929,0,0,0-3.951,7.469l-3.081,34.318h8.437L294,140.859v34.155h7.557l5.531-31.316,12.524-8.458a14.491,14.491,0,0,0,6.377-12.385Z" fill="#1a264c"/>
            <path id="Trazado_769003" data-name="Trazado 769003" d="M313.61,77.5h-7.341l-2.845,12.306v23.606s6.739,3.265,15.612-1l-2.587-27.625Z" fill="#fff"/>
            <path id="Trazado_769004" data-name="Trazado 769004" d="M313.61,77.5s11.077,4.688,13.253,7.7c2.01,2.783,1.728.136,7.518,15.758a6.464,6.464,0,0,1-.805,6.009,4.357,4.357,0,0,1-2.031,1.527l-5.7,2.129.6,14.507-11.05,1.088Z" fill="#4851ec"/>
            <path id="Trazado_769005" data-name="Trazado 769005" d="M306.269,77.5s-11.077,4.688-13.253,7.7.418,39.93.418,39.93l11.05,1.088Z" fill="#4851ec"/>
            <path id="Trazado_769006" data-name="Trazado 769006" d="M311.23,78.883l-1.29,2.2,2.688,31.079-4.148,6.7-3.08-6.864,2.984-31.1-.942-2.2,2.532-.942Z" fill="#fa7267"/>
            <path id="Trazado_769007" data-name="Trazado 769007" d="M313.61,77.5l-.55-1.207L309.608,77.5l-2.856-1.312-.483,1.312.608,2.26,2.606-1.692,2.542,1.849Z" fill="#fff"/>
            <path id="Trazado_769008" data-name="Trazado 769008" d="M316.005,54.675c-.21-.216-.6-.389-.777-.145a.525.525,0,0,0-.063.35,3.271,3.271,0,0,0,.247,1.026,6.61,6.61,0,0,0-5.208-1.873c-1.906.029-3.8.445-5.705.352-.755-.037-1.66-.091-2.1.521a1.3,1.3,0,0,0,.072,1.479,2.282,2.282,0,0,0,1.325.8,1.028,1.028,0,0,0-1.291,1.459,2.066,2.066,0,0,0,1.723.744,58.028,58.028,0,0,0,6.227.176l-.906.731a.779.779,0,0,0-.259.295.583.583,0,0,0,.09.517,1.535,1.535,0,0,0,1.212.618,6.2,6.2,0,0,0,1.4-.151,11.025,11.025,0,0,1,2.053-.142,1.016,1.016,0,0,1,.417.071,1.318,1.318,0,0,1,.411.394,5.943,5.943,0,0,0,2.983,1.585c.34.1.789.17.978-.131a.783.783,0,0,0,.087-.4,9.2,9.2,0,0,0-1.146-4.745.517.517,0,0,0,.939.03c.289-.547-.4-1-.785-1.224-.354-.2-.691-.249-.954-.593-.413-.54-.455-1.226-.966-1.749" fill="#060633"/>
            <path id="Trazado_769009" data-name="Trazado 769009" d="M308.519,70.382l-3.879-.937s.223,2.149,1.632,2.149a2.977,2.977,0,0,0,2.247-1.212" fill="#fff"/>
            <path id="Trazado_769010" data-name="Trazado 769010" d="M317.93,79.482l-2.175,8.965,2.175.909-3.205,18.588L313.61,77.5Z" fill="#2f3dbc"/>
            <path id="Trazado_769011" data-name="Trazado 769011" d="M295.725,82.913a12.577,12.577,0,0,0-5.22,6.477c-1.551,4.461-3.731,11.422-6.651,12.473-2.328.837-6.441-9.14-6.441-9.14l-5.43,1.891s3.4,20.361,13.964,18.536c6.715-1.16,8.922-15.9,8.922-15.9Z" fill="#4851ec"/>
            <path id="Trazado_769012" data-name="Trazado 769012" d="M301.949,79.482l2.175,8.965-2.175.909,3.2,18.588L306.269,77.5Z" fill="#2f3dbc"/>
            <path id="Trazado_769013" data-name="Trazado 769013" d="M315.466,107.2a33.56,33.56,0,0,0-4.339-1.273c-1.217-.154-2.283-1.207-2.6-.572s1.713,1.832,1.713,1.832-2.348.849-3.11,1-2.053.768-1.986,1.333,3.673-.416,3.673-.416-2.955,1.125-3,1.66,3.921-.343,3.921-.343a20.78,20.78,0,0,0-3.391,1.347c-.18.3.2.545,1.425.45a11.7,11.7,0,0,0,2.455-.506,26.354,26.354,0,0,0-2.427,1.1c-.226.2-.391.642,1.411.31s5.581-1.685,7.2-3.127Z" fill="#fb9391"/>
            <path id="Trazado_769014" data-name="Trazado 769014" d="M294,140.993h0a.135.135,0,0,1-.135-.135,15.114,15.114,0,0,1,2.743-8.168c1.719-2.251,9.973-7.319,10.323-7.533a.137.137,0,0,1,.186.044.135.135,0,0,1-.045.185c-.085.053-8.561,5.257-10.25,7.467a14.817,14.817,0,0,0-2.687,8.005.135.135,0,0,1-.135.135" fill="#0b0755"/>
            <path id="Trazado_769015" data-name="Trazado 769015" d="M317.079,112.441a.067.067,0,0,1-.064-.047l-1.8-5.819a.068.068,0,0,1,.031-.078l9.781-5.636-2.726-6.511a.067.067,0,0,1,.036-.088.068.068,0,0,1,.088.036l2.749,6.566a.067.067,0,0,1-.028.084l-9.786,5.639,1.761,5.709,8.7-1.736a.066.066,0,0,1,.079.053.068.068,0,0,1-.053.08l-8.763,1.747h-.013" fill="#17152b"/>
            <rect id="Rectángulo_360355" data-name="Rectángulo 360355" width="197.599" height="4.267" transform="translate(98.889 117.514)" fill="#060633"/>
            <path id="Trazado_769016" data-name="Trazado 769016" d="M257.841,184.665h-.021a.4.4,0,0,1-.383-.424l3.3-64.613a.4.4,0,0,1,.807.041l-3.3,64.614a.4.4,0,0,1-.4.383" fill="#060633"/>
            <path id="Trazado_769017" data-name="Trazado 769017" d="M289.525,184.665a.4.4,0,0,1-.4-.383l-3.3-64.614a.4.4,0,1,1,.807-.041l3.3,64.613a.4.4,0,0,1-.383.424h-.021" fill="#060633"/>
            <path id="Trazado_769018" data-name="Trazado 769018" d="M250.543,99.177l25.059-.035,7.883,18.323-25.059.035Z" fill="#0b0755"/>
            <rect id="Rectángulo_360356" data-name="Rectángulo 360356" width="16.777" height="1.109" transform="matrix(1, -0.001, 0.001, 1, 278.564, 116.364)" fill="#0b0755"/>
            <path id="Trazado_769019" data-name="Trazado 769019" d="M265.637,108.052a1.1,1.1,0,1,0-1.109,1.1,1.1,1.1,0,0,0,1.109-1.1" fill="#fff"/>
            <path id="Trazado_769020" data-name="Trazado 769020" d="M85.021,185.1a.673.673,0,0,1-.655-.834l3.949-16.137a.674.674,0,0,1,1.309.32l-3.949,16.137a.675.675,0,0,1-.654.514" fill="#0b0755"/>
            <path id="Trazado_769021" data-name="Trazado 769021" d="M62.8,185.1a.673.673,0,0,1-.655-.834l5.73-23.413a.673.673,0,1,1,1.308.32l-5.729,23.413a.674.674,0,0,1-.654.514" fill="#0b0755"/>
            <path id="Trazado_769022" data-name="Trazado 769022" d="M71.674,100.969c39.465,0,31.881,40.586,44.317,39.889S134.2,169.476,88.97,169.476s-53.618-68.507-17.3-68.507" fill="#fa7267"/>
            <path id="Trazado_769023" data-name="Trazado 769023" d="M125.7,171.854s-.1,6.7-.044,6.795-.489.935-.489.935l-2.113.378-1.929-.887s.17-6.228-.032-7.21,4.607-.011,4.607-.011" fill="#fb9391"/>
            <path id="Trazado_769024" data-name="Trazado 769024" d="M121.123,179.075a5.5,5.5,0,0,0,4.518-.558s8.11,3.04,7.862,5.351c0,0,.346.689-3.168.54s-8.976-.305-9.122-.386-.834.29-.09-4.947" fill="#0b0755"/>
            <path id="Trazado_769025" data-name="Trazado 769025" d="M105.236,171.854s-.1,6.7-.044,6.795-.489.935-.489.935l-2.113.378-1.929-.887s.17-6.228-.032-7.21,4.607-.011,4.607-.011" fill="#fb9391"/>
            <path id="Trazado_769026" data-name="Trazado 769026" d="M100.661,179.075a5.5,5.5,0,0,0,4.518-.558s8.11,3.04,7.862,5.351c0,0,.346.689-3.168.54s-8.975-.305-9.122-.386-.834.29-.09-4.947" fill="#0b0755"/>
            <path id="Trazado_769027" data-name="Trazado 769027" d="M86.469,92.432s.707-.848,1.145-.422c1.115,1.083-.24,2.169-1.084,2.35Z" fill="#ea6868"/>
            <path id="Trazado_769028" data-name="Trazado 769028" d="M87.113,89.089h-.007c.014-.1.028-.192.039-.288a7.5,7.5,0,1,0-14.6,1.461c.5,1.821.941,3.38,1.448,4.691a10.721,10.721,0,0,1,.279,6.8l-.5,1.759c4.313,2.945,6.654.907,6.654.907l.447-3.281a.833.833,0,0,1,.868-.716h.008c5.723.257,5.085-8.77,5.368-11.33" fill="#fb9391"/>
            <path id="Trazado_769029" data-name="Trazado 769029" d="M79,92.154a.7.7,0,1,0-.771.617A.7.7,0,0,0,79,92.154" fill="#050521"/>
            <path id="Trazado_769030" data-name="Trazado 769030" d="M85.3,91.6a.7.7,0,1,0-.771.617A.7.7,0,0,0,85.3,91.6" fill="#050521"/>
            <path id="Trazado_769031" data-name="Trazado 769031" d="M76.631,90.8a.419.419,0,0,1-.2-.081.41.41,0,0,1-.077-.574,2.194,2.194,0,0,1,3.048-.368.409.409,0,0,1-.444.687A1.382,1.382,0,0,0,77,90.637a.409.409,0,0,1-.371.159" fill="#050521"/>
            <path id="Trazado_769032" data-name="Trazado 769032" d="M83.259,90.431a.419.419,0,0,1-.2-.081.41.41,0,0,1-.077-.574,2.193,2.193,0,0,1,3.048-.368.409.409,0,0,1-.444.687,1.382,1.382,0,0,0-1.953.177.409.409,0,0,1-.371.159" fill="#050521"/>
            <path id="Trazado_769033" data-name="Trazado 769033" d="M71.507,87.594l1.466,5.269,1.386-.122,1.532-6.418Z" fill="#0b0755"/>
            <path id="Trazado_769034" data-name="Trazado 769034" d="M74.586,92.6a1.111,1.111,0,0,0-.523-.59A1.878,1.878,0,0,0,72,91.978c-1.017.814.558,3.446,2.512,2.44,0,0,.578-.462.079-1.814" fill="#fb9391"/>
            <path id="Trazado_769035" data-name="Trazado 769035" d="M82.288,95.062a1.392,1.392,0,0,1-1.262-.178.12.12,0,0,1-.02-.17.122.122,0,0,1,.17-.021,1.139,1.139,0,0,0,1.371-.044c.119-.086.184-.159.193-.218.012-.082-.075-.2-.2-.363a3.573,3.573,0,0,1-.766-2.309.122.122,0,0,1,.243,0,3.313,3.313,0,0,0,.718,2.168c.151.2.269.362.241.545a.609.609,0,0,1-.29.378,1.6,1.6,0,0,1-.4.216" fill="#ea6868"/>
            <path id="Trazado_769036" data-name="Trazado 769036" d="M79.348,96.018a10.39,10.39,0,0,0,4.678.023s-.686,2.129-2.35,2.12-2.328-2.143-2.328-2.143" fill="#fff"/>
            <path id="Trazado_769037" data-name="Trazado 769037" d="M86.234,86.06s.988.871.751,5.426c0,0,.922-5,.422-5.622s-1.173.2-1.173.2" fill="#0b0755"/>
            <path id="Trazado_769038" data-name="Trazado 769038" d="M71.188,85.9a7.849,7.849,0,0,1,1.184-3.082,2.074,2.074,0,0,1-1.53-.21c-.42-.321-.409-1.149.109-1.256.3-.063.589.143.893.185.695.1,1.2-.644,1.422-1.309s.419-1.447,1.052-1.747a1.169,1.169,0,0,1,.644-.1,3.749,3.749,0,0,1-.333,2.406,9.807,9.807,0,0,1,3.038-2.476,3.865,3.865,0,0,1,2.949-.48c.2.789-1.109,1.163-1.277,1.96a17.645,17.645,0,0,1,5.34-.484,3.534,3.534,0,0,1,1.348.284,1.378,1.378,0,0,1,.807,1.052,1.08,1.08,0,0,1-1.135,1.12,11.328,11.328,0,0,1,2.53,1.464,3.815,3.815,0,0,1,1.437,2.469,3.786,3.786,0,0,1-1.876-.477,1.379,1.379,0,0,1,.527,1.419,1.087,1.087,0,0,1-.959.6,3.17,3.17,0,0,1-1.164-.222l-5.729-1.857a6.615,6.615,0,0,1,1.55,2.876,8.981,8.981,0,0,1-4.733-2.071,8.939,8.939,0,0,1-.824,2.354.661.661,0,0,1-.244.3c-.386.21-.7-.365-1.044-.635a1.432,1.432,0,0,0-1.524.07c-.817.445-1.383,1.093-2.007.126a3.614,3.614,0,0,1-.451-2.278" fill="#0b0755"/>
            <path id="Trazado_769039" data-name="Trazado 769039" d="M117.176,138.56s7.847.635,10.364,10.633c1.462,5.809.888,24.725.888,24.725l-10.174,1.6s.913-21.139-6.967-27.653c0,0,1.6,4.294-4.179,28.723h-7.55l-2.517-25.022s-17.767.593-23.1-3.849a16.03,16.03,0,0,1-5.864-9.757l25.111-3.817Z" fill="#13676b"/>
            <path id="Trazado_769040" data-name="Trazado 769040" d="M72.069,104.579s.494-3.8,1.283-3.6a76.573,76.573,0,0,0,8.489,1.329c.69-.144,0,3.212,0,3.212s7.888.718,9.863,4.074,6.565,16.1,8.243,17.185a57.912,57.912,0,0,1,4.99,4.107L91.289,138.56l-12.928-.6s-9.352,5.6-16.656,1.24-6.021-27.263.889-31.309,9.475-3.307,9.475-3.307" fill="#fff"/>
            <path id="Trazado_769041" data-name="Trazado 769041" d="M95.047,135.036a.066.066,0,0,1-.027-.006c-3.92-1.712-6.029-18.691-6.117-19.413a.068.068,0,0,1,.059-.075.065.065,0,0,1,.075.059c.021.176,2.187,17.624,6.037,19.306a.067.067,0,0,1-.027.129" fill="#0b0755"/>
            <path id="Trazado_769042" data-name="Trazado 769042" d="M78.36,138.022a.067.067,0,0,1-.027-.129L81.2,136.64l-.4-5.01c-.716-.14-8.848-1.727-12.711-2.178a.069.069,0,0,1-.06-.066c-.006-.383-.141-9.389.45-10.72a.067.067,0,0,1,.123.055c-.555,1.249-.45,9.806-.439,10.6,4.052.479,12.627,2.166,12.713,2.183a.067.067,0,0,1,.054.061l.411,5.108a.069.069,0,0,1-.04.067l-2.913,1.272a.066.066,0,0,1-.027.006" fill="#0b0755"/>
            <path id="Trazado_769043" data-name="Trazado 769043" d="M111.287,147.928a.067.067,0,0,1-.066-.055,10.087,10.087,0,0,0-2.625-4.522c-2.019-2.123-5.99-4.767-13.435-5.3a.067.067,0,0,1,.009-.134c7.5.541,11.494,3.21,13.53,5.353a10.215,10.215,0,0,1,2.653,4.583.067.067,0,0,1-.054.079h-.012" fill="#0b0755"/>
            <path id="Trazado_769044" data-name="Trazado 769044" d="M83.544,132.274l.525.016c1.62.05,6.467.217,7.03.415.676.239-1.36,4.468-1.36,4.468s-5.825.319-7.7-.931,1.5-3.968,1.5-3.968" fill="#f78181"/>
            <path id="Trazado_769045" data-name="Trazado 769045" d="M88.97,137.2s3.249,1.47,3.537,1.149-2.544-1.961-2.544-1.961Z" fill="#f78181"/>
            <path id="Trazado_769046" data-name="Trazado 769046" d="M89.855,136.158s4.81,1.979,5.174,1.314-4.959-2.382-4.959-2.382Z" fill="#f78181"/>
            <path id="Trazado_769047" data-name="Trazado 769047" d="M90.494,134.992s4.965,1.551,5.269.857-5.148-1.94-5.148-1.94Z" fill="#f78181"/>
            <path id="Trazado_769048" data-name="Trazado 769048" d="M90.746,133.741s4.638,1.514,4.928.819-4.807-1.9-4.807-1.9Z" fill="#f78181"/>
            <path id="Trazado_769049" data-name="Trazado 769049" d="M84.652,132.413l-3.66-.458.337,4.137,1.883.422Z" fill="#f78181"/>
            <path id="Trazado_769050" data-name="Trazado 769050" d="M126.092,119.612l-26.783-.037-8.425,19.583,26.783.038Z" fill="#91b5f8"/>
            <rect id="Rectángulo_360357" data-name="Rectángulo 360357" width="1.186" height="17.931" transform="translate(78.211 139.14) rotate(-89.92)" fill="#91b5f8"/>
            <path id="Trazado_769051" data-name="Trazado 769051" d="M109.96,129.1a1.179,1.179,0,1,1,1.185,1.173,1.179,1.179,0,0,1-1.185-1.173" fill="#fff"/>
            <path id="Trazado_769052" data-name="Trazado 769052" d="M210.3,17.694C210.3,7.922,201.718,0,191.136,0s-19.161,7.922-19.161,17.694a16.945,16.945,0,0,0,5.3,12.22,15.257,15.257,0,0,1,4.689,10.961,6.066,6.066,0,0,0,6.065,6.065h6.206a6.066,6.066,0,0,0,6.065-6.065,15.257,15.257,0,0,1,4.689-10.961,16.945,16.945,0,0,0,5.3-12.22" fill="#fdd246"/>
            <path id="Trazado_769053" data-name="Trazado 769053" d="M194.5,49.143a.225.225,0,0,1-.225-.213c-.106-1.973,2.884-32.789,3.011-34.1a.226.226,0,1,1,.45.044c-.032.32-3.115,32.093-3.01,34.031a.227.227,0,0,1-.214.238H194.5" fill="#060633"/>
            <path id="Trazado_769054" data-name="Trazado 769054" d="M187.6,49.143h-.012a.227.227,0,0,1-.214-.238c.1-1.938-2.978-33.711-3.009-34.031a.226.226,0,1,1,.449-.044c.127,1.311,3.117,32.127,3.011,34.1a.225.225,0,0,1-.225.213" fill="#060633"/>
            <path id="Trazado_769055" data-name="Trazado 769055" d="M190.471,22.729a2.8,2.8,0,0,1-1.69-.6,1.887,1.887,0,0,1-1.271.379,2.229,2.229,0,0,1-1.651-1.174,17.965,17.965,0,0,1-1.021-3.254.112.112,0,1,1,.22-.047,17.959,17.959,0,0,0,1,3.187,2,2,0,0,0,1.476,1.063,1.656,1.656,0,0,0,1.073-.3l0,0a4.322,4.322,0,0,1-1.245-2.57,3.394,3.394,0,0,1,.357-2.341,1.363,1.363,0,0,1,.618-.569,1.32,1.32,0,0,1,1.572.734A3.321,3.321,0,0,1,190.1,19a5.554,5.554,0,0,1-.574,2.307,2.647,2.647,0,0,1-.559.677,2.369,2.369,0,0,0,2.294.361,2.141,2.141,0,0,0,.791-.6,1.667,1.667,0,0,1-.655-.7A2.763,2.763,0,0,1,191.176,20a9.6,9.6,0,0,1,.338-3.091.114.114,0,0,1,.074-.077.844.844,0,0,1,.9.344,2.065,2.065,0,0,1,.321.869,6.209,6.209,0,0,1,.066,2.522,3.244,3.244,0,0,1-.48,1.11,1.869,1.869,0,0,0,1.269.068,2.2,2.2,0,0,0,.65-.332,3.348,3.348,0,0,1-.335-.686,6.856,6.856,0,0,1,.136-4.955.111.111,0,0,1,.066-.063,1.117,1.117,0,0,1,1.244.516,2.718,2.718,0,0,1,.345,1.3,6.24,6.24,0,0,1-.247,2.585,3.255,3.255,0,0,1-.9,1.344,1.139,1.139,0,0,0,.783.47,1.169,1.169,0,0,0,.672-.173,1.638,1.638,0,0,0,.765-1.623.114.114,0,0,1,.094-.129.112.112,0,0,1,.129.093,1.847,1.847,0,0,1-.874,1.854,1.273,1.273,0,0,1-1.748-.348,2.413,2.413,0,0,1-.716.365,2.1,2.1,0,0,1-1.473-.1,2.4,2.4,0,0,1-.907.695,2.234,2.234,0,0,1-.874.172M188.7,16.652a.765.765,0,0,0-.288.056,1.155,1.155,0,0,0-.513.48,3.223,3.223,0,0,0-.325,2.189,4.111,4.111,0,0,0,1.174,2.437l.034.03a2.424,2.424,0,0,0,.54-.645,5.351,5.351,0,0,0,.545-2.214,3.134,3.134,0,0,0-.171-1.651,1.2,1.2,0,0,0-1-.682m3.01.382a9.385,9.385,0,0,0-.313,2.956,2.55,2.55,0,0,0,.2.964,1.458,1.458,0,0,0,.589.622,2.974,2.974,0,0,0,.464-1.057,6.01,6.01,0,0,0-.068-2.429,1.888,1.888,0,0,0-.28-.777.657.657,0,0,0-.588-.279M194.3,15.91a6.628,6.628,0,0,0-.111,4.742,3.125,3.125,0,0,0,.3.619,3.028,3.028,0,0,0,.819-1.238,6.027,6.027,0,0,0,.234-2.491,2.529,2.529,0,0,0-.309-1.192.92.92,0,0,0-.934-.44" fill="#060633"/>
            <path id="Trazado_769056" data-name="Trazado 769056" d="M197.227,56.658H185.046a1.61,1.61,0,0,1-1.61-1.611v-2.79h15.4v2.79a1.61,1.61,0,0,1-1.61,1.611" fill="#3a3a3a"/>
            <path id="Trazado_769057" data-name="Trazado 769057" d="M192.084,54.386a31.585,31.585,0,0,1-8.829-1.376,1.467,1.467,0,1,1,.911-2.789c.135.043,8.507,2.7,13.74.082a1.467,1.467,0,0,1,1.313,2.624,16.058,16.058,0,0,1-7.135,1.459" fill="#060633"/>
            <path id="Trazado_769058" data-name="Trazado 769058" d="M192.084,52a31.585,31.585,0,0,1-8.829-1.376,1.467,1.467,0,1,1,.911-2.789c.135.044,8.507,2.7,13.74.082a1.467,1.467,0,0,1,1.313,2.624A16.058,16.058,0,0,1,192.084,52" fill="#3a3a3a"/>
            <path id="Trazado_769059" data-name="Trazado 769059" d="M192.084,49.619a31.585,31.585,0,0,1-8.829-1.376,1.467,1.467,0,1,1,.911-2.789c.135.044,8.507,2.7,13.74.082a1.467,1.467,0,0,1,1.313,2.624,16.058,16.058,0,0,1-7.135,1.459" fill="#060633"/>
            <path id="Trazado_769060" data-name="Trazado 769060" d="M305.91,46.52H295.487a.457.457,0,0,1-.457-.456V35.641a.457.457,0,0,1,.457-.457H305.91a.457.457,0,0,1,.456.457V46.064a.456.456,0,0,1-.456.456m-9.966-.913h9.509V36.1h-9.509Z" fill="#62c1c5"/>
            <path id="Trazado_769061" data-name="Trazado 769061" d="M300.7,44.081h-.009a.458.458,0,0,1-.391-.235,18.432,18.432,0,0,0-3.232-4.158.457.457,0,1,1,.6-.684,17.866,17.866,0,0,1,3.031,3.735,100.03,100.03,0,0,1,5.985-8.832.457.457,0,0,1,.716.567,101.46,101.46,0,0,0-6.314,9.387.456.456,0,0,1-.391.22" fill="#62c1c5"/>
            <path id="Trazado_769062" data-name="Trazado 769062" d="M285.36,30.2H274.938a.457.457,0,0,1-.457-.457V19.319a.457.457,0,0,1,.457-.457H285.36a.457.457,0,0,1,.457.457V29.742a.457.457,0,0,1-.457.457m-9.965-.914H284.9V19.776h-9.509Z" fill="#62c1c5"/>
            <path id="Trazado_769063" data-name="Trazado 769063" d="M280.149,27.759h-.009a.458.458,0,0,1-.391-.235,18.431,18.431,0,0,0-3.232-4.158.457.457,0,1,1,.605-.684,17.868,17.868,0,0,1,3.031,3.735,100.027,100.027,0,0,1,5.985-8.832.457.457,0,1,1,.716.567,101.207,101.207,0,0,0-6.314,9.387.456.456,0,0,1-.391.22" fill="#62c1c5"/>
            <path id="Trazado_769064" data-name="Trazado 769064" d="M119.574,55.042H101.463V87.769h23.2V59.544Z" fill="#fff"/>
            <path id="Trazado_769065" data-name="Trazado 769065" d="M126.09,59.689h-6.516a.134.134,0,0,1-.135-.135V55.042a.134.134,0,1,1,.269,0V59.42h6.382a.135.135,0,1,1,0,.269" fill="#dde7fe"/>
            <path id="Trazado_769066" data-name="Trazado 769066" d="M117.6,59.422h-9.676a.135.135,0,0,1,0-.269H117.6a.135.135,0,1,1,0,.269" fill="#7c9af2"/>
            <path id="Trazado_769067" data-name="Trazado 769067" d="M122.832,63.645H103.286a.135.135,0,0,1,0-.269h19.546a.135.135,0,1,1,0,.269" fill="#7c9af2"/>
            <path id="Trazado_769068" data-name="Trazado 769068" d="M122.832,65.117H103.286a.134.134,0,0,1,0-.269h19.546a.134.134,0,1,1,0,.269" fill="#7c9af2"/>
            <path id="Trazado_769069" data-name="Trazado 769069" d="M122.832,67.217H103.286a.134.134,0,0,1,0-.268h19.546a.134.134,0,1,1,0,.268" fill="#7c9af2"/>
            <path id="Trazado_769070" data-name="Trazado 769070" d="M122.832,68.689H103.286a.135.135,0,0,1,0-.269h19.546a.135.135,0,1,1,0,.269" fill="#7c9af2"/>
            <path id="Trazado_769071" data-name="Trazado 769071" d="M122.832,70.161H103.286a.135.135,0,0,1,0-.269h19.546a.135.135,0,1,1,0,.269" fill="#7c9af2"/>
            <path id="Trazado_769072" data-name="Trazado 769072" d="M122.832,71.632H103.286a.134.134,0,0,1,0-.268h19.546a.134.134,0,1,1,0,.268" fill="#7c9af2"/>
            <path id="Trazado_769073" data-name="Trazado 769073" d="M122.832,77.214H103.286a.134.134,0,0,1,0-.269h19.546a.134.134,0,1,1,0,.269" fill="#7c9af2"/>
            <path id="Trazado_769074" data-name="Trazado 769074" d="M122.832,78.686H103.286a.134.134,0,0,1,0-.269h19.546a.134.134,0,1,1,0,.269" fill="#7c9af2"/>
            <path id="Trazado_769075" data-name="Trazado 769075" d="M122.832,80.157H103.286a.134.134,0,0,1,0-.269h19.546a.134.134,0,1,1,0,.269" fill="#7c9af2"/>
            <path id="Trazado_769076" data-name="Trazado 769076" d="M122.832,81.629H103.286a.134.134,0,0,1,0-.269h19.546a.134.134,0,1,1,0,.269" fill="#7c9af2"/>
          </g>
        </g>
      </g>
    </g>
  </g>
</svg>
