<svg xmlns="http://www.w3.org/2000/svg" width="166" height="166" viewBox="0 0 166 166">
  <g id="Grupo_1026191" data-name="Grupo 1026191" transform="translate(-717 -6007)">
    <circle id="Elipse_8443" data-name="Elipse 8443" cx="83" cy="83" r="83" transform="translate(717 6007)" fill="#fff" opacity="0.45"/>
    <g id="Grupo_1026189" data-name="Grupo 1026189">
      <circle id="Elipse_8444" data-name="Elipse 8444" cx="67" cy="67" r="67" transform="translate(733 6023)" fill="#fff"/>
      <g id="_039-abilities" data-name="039-abilities" transform="translate(759 6049)">
        <g id="Grupo_1026186" data-name="Grupo 1026186" transform="translate(1.321 1.32)">
          <g id="Grupo_1026165" data-name="Grupo 1026165" transform="translate(50.781 24.592)">
            <g id="Grupo_1026161" data-name="Grupo 1026161" transform="translate(0 0)">
              <path id="Trazado_766587" data-name="Trazado 766587" d="M340.866,168.489a12.123,12.123,0,0,1,3.549,1.471l2.306-1.024,2.718,2.718-1.024,2.305a12.126,12.126,0,0,1,1.471,3.55l2.353.906v3.843l-2.353.906a12.124,12.124,0,0,1-1.471,3.549l1.024,2.306-2.718,2.718-2.305-1.024a12.123,12.123,0,0,1-3.55,1.471l-.905,2.352h-3.844l-.906-2.353a12.124,12.124,0,0,1-3.549-1.471l-2.306,1.024-2.718-2.718,1.024-2.305a12.119,12.119,0,0,1-1.471-3.55l-2.353-.905v-3.843l2.353-.906a12.116,12.116,0,0,1,1.471-3.549l-1.024-2.306,2.718-2.718,2.306,1.024a12.121,12.121,0,0,1,3.549-1.471l.906-2.353h3.843Z" transform="translate(-323.839 -166.136)" fill="#ffe177" fill-rule="evenodd"/>
            </g>
            <g id="Grupo_1026162" data-name="Grupo 1026162" transform="translate(5.161 0)">
              <path id="Trazado_766588" data-name="Trazado 766588" d="M357.788,190.712l-2.306,1.024-.357-.357,2.161-.96Q357.534,190.572,357.788,190.712Zm9.2-22.222a12.117,12.117,0,0,1,3.5,1.444l.045.027-.659.293a16.008,16.008,0,0,0-4.05-1.764l-.906-2.353h1.16Zm-11.866.8.357-.357,2.306,1.024q-.254.14-.5.293Zm16.917,0,.8-.357,2.718,2.718-1.024,2.305a12.128,12.128,0,0,1,1.471,3.55l2.353.906v3.843l-2.353.906a12.124,12.124,0,0,1-1.471,3.549l1.024,2.306-2.718,2.718-.8-.357,2.361-2.361-1.024-2.306a12.116,12.116,0,0,0,1.471-3.549l2.353-.906v-3.843l-2.353-.906a12.125,12.125,0,0,0-1.471-3.55l1.024-2.305ZM370.5,190.74a12.121,12.121,0,0,1-3.5,1.444l-.906,2.353h-1.16l.905-2.353a16.008,16.008,0,0,0,4.051-1.764l.659.293C370.525,190.721,370.51,190.73,370.5,190.74Z" transform="translate(-355.125 -166.137)" fill="#ffd064" fill-rule="evenodd"/>
            </g>
            <g id="Grupo_1026163" data-name="Grupo 1026163" transform="translate(4.209 4.228)">
              <ellipse id="Elipse_8588" data-name="Elipse 8588" cx="7.163" cy="7.163" rx="7.163" ry="7.163" transform="translate(0 11.619) rotate(-54.196)" fill="#eceff1"/>
            </g>
            <g id="Grupo_1026164" data-name="Grupo 1026164" transform="translate(7.036 7.037)">
              <path id="Trazado_766589" data-name="Trazado 766589" d="M373.656,208.792c.169,0,.337.006.5.018a7.163,7.163,0,0,0,0,14.291c-.166.012-.334.018-.5.018a7.163,7.163,0,0,1,0-14.327Z" transform="translate(-366.493 -208.792)" fill="#d1d1d6" fill-rule="evenodd"/>
            </g>
          </g>
          <g id="Grupo_1026176" data-name="Grupo 1026176" transform="translate(24.292 47.715)">
            <g id="Grupo_1026168" data-name="Grupo 1026168" transform="translate(7.418)">
              <g id="Grupo_1026166" data-name="Grupo 1026166">
                <ellipse id="Elipse_8589" data-name="Elipse 8589" cx="7.881" cy="7.881" rx="7.881" ry="7.881" fill="#f6dccd"/>
              </g>
              <g id="Grupo_1026167" data-name="Grupo 1026167" transform="translate(6.783)">
                <path id="Trazado_766590" data-name="Trazado 766590" d="M250.443,306.3a7.881,7.881,0,1,1-1.1,15.686,7.882,7.882,0,0,0,0-15.61A7.954,7.954,0,0,1,250.443,306.3Z" transform="translate(-249.345 -306.304)" fill="#f1cbbc" fill-rule="evenodd"/>
              </g>
            </g>
            <g id="Grupo_1026171" data-name="Grupo 1026171" transform="translate(0 17.207)">
              <g id="Grupo_1026169" data-name="Grupo 1026169">
                <path id="Trazado_766591" data-name="Trazado 766591" d="M164.468,424.525h28.177a1.205,1.205,0,0,0,1.185-1.451,15.591,15.591,0,0,0-30.547,0A1.206,1.206,0,0,0,164.468,424.525Z" transform="translate(-163.258 -410.614)" fill="#8ac9fe" fill-rule="evenodd"/>
              </g>
              <g id="Grupo_1026170" data-name="Grupo 1026170" transform="translate(13.921 0)">
                <path id="Trazado_766592" data-name="Trazado 766592" d="M260.361,424.526h2.755a1.205,1.205,0,0,0,1.185-1.451,15.593,15.593,0,0,0-15.274-12.46q-.7,0-1.377.06a15.6,15.6,0,0,1,13.9,12.4A1.205,1.205,0,0,1,260.361,424.526Z" transform="translate(-247.65 -410.615)" fill="#60b7ff" fill-rule="evenodd"/>
              </g>
            </g>
            <g id="Grupo_1026175" data-name="Grupo 1026175" transform="translate(11.54 17.207)">
              <g id="Grupo_1026172" data-name="Grupo 1026172" transform="translate(0 0.04)">
                <path id="Trazado_766593" data-name="Trazado 766593" d="M235.847,410.858h2.25l2.614,8.219a.4.4,0,0,1-.083.394l-3.35,3.783a.408.408,0,0,1-.611,0l-3.35-3.783a.4.4,0,0,1-.083-.394Z" transform="translate(-233.213 -410.858)" fill="#eceff1" fill-rule="evenodd"/>
              </g>
              <g id="Grupo_1026173" data-name="Grupo 1026173" transform="translate(3.079 0.002)">
                <path id="Trazado_766594" data-name="Trazado 766594" d="M252.313,410.626l1.37.039,2.616,8.219a.4.4,0,0,1-.083.394l-3.35,3.783a.408.408,0,0,1-.611,0l-.374-.423,2.976-3.36a.4.4,0,0,0,.083-.394Z" transform="translate(-251.88 -410.626)" fill="#d1d1d6" fill-rule="evenodd"/>
              </g>
              <g id="Grupo_1026174" data-name="Grupo 1026174" transform="translate(2.62)">
                <path id="Trazado_766595" data-name="Trazado 766595" d="M250.193,410.615h.05q.564,0,1.118.041l.155.488a15.543,15.543,0,0,0-2.418-.445l.014-.043Q249.648,410.617,250.193,410.615Z" transform="translate(-249.098 -410.615)" fill="#d1d1d6" fill-rule="evenodd"/>
              </g>
            </g>
          </g>
          <g id="Grupo_1026179" data-name="Grupo 1026179" transform="translate(0 22.786)">
            <g id="Grupo_1026177" data-name="Grupo 1026177" transform="translate(0 0)">
              <path id="Trazado_766596" data-name="Trazado 766596" d="M16.5,159.921h5.56a.494.494,0,0,0,.493-.449,4.736,4.736,0,0,1,9.428,0,.494.494,0,0,0,.493.449h5.56a.5.5,0,0,1,.5.5v5.56a.494.494,0,0,1-.449.493,4.735,4.735,0,0,0,0,9.428.494.494,0,0,1,.449.493v5.56a.5.5,0,0,1-.5.5H16.5a.5.5,0,0,1-.5-.5V160.416a.5.5,0,0,1,.5-.5Z" transform="translate(-16.001 -155.186)" fill="#6cf5c2" fill-rule="evenodd"/>
            </g>
            <g id="Grupo_1026178" data-name="Grupo 1026178" transform="translate(10.438 0)">
              <path id="Trazado_766597" data-name="Trazado 766597" d="M79.277,155.258a4.738,4.738,0,0,1,5.539,4.214.494.494,0,0,0,.493.449h-1.65a.494.494,0,0,1-.493-.449A4.737,4.737,0,0,0,79.277,155.258Zm9.943,4.663a.5.5,0,0,1,.5.5v5.56a.494.494,0,0,1-.449.493,4.735,4.735,0,0,0,0,9.428.494.494,0,0,1,.449.493v5.56a.5.5,0,0,1-.5.5h1.65a.5.5,0,0,0,.5-.5v-5.56a.494.494,0,0,0-.449-.493,4.735,4.735,0,0,1,0-9.428.494.494,0,0,0,.449-.493v-5.56a.5.5,0,0,0-.5-.5Z" transform="translate(-79.277 -155.186)" fill="#00e499" fill-rule="evenodd"/>
            </g>
          </g>
          <g id="Grupo_1026182" data-name="Grupo 1026182" transform="translate(28.336)">
            <g id="Grupo_1026180" data-name="Grupo 1026180">
              <path id="Trazado_766598" data-name="Trazado 766598" d="M188.671,17.056h15.7a.865.865,0,0,1,.632.262l5.022,5.022a.864.864,0,0,1,.262.632V44.41a.9.9,0,0,1-.894.894h-20.72a.9.9,0,0,1-.894-.894V17.95a.9.9,0,0,1,.894-.894Z" transform="translate(-187.777 -17.056)" fill="#eceff1" fill-rule="evenodd"/>
            </g>
            <g id="Grupo_1026181" data-name="Grupo 1026181" transform="translate(14.943 0)">
              <path id="Trazado_766599" data-name="Trazado 766599" d="M278.36,17.056h1.65a.865.865,0,0,1,.632.262l5.022,5.022a.864.864,0,0,1,.262.632V44.41a.9.9,0,0,1-.894.894h-1.65a.9.9,0,0,0,.894-.894V22.972a.864.864,0,0,0-.262-.632l-5.022-5.022a.865.865,0,0,0-.632-.262Z" transform="translate(-278.36 -17.056)" fill="#d1d1d6" fill-rule="evenodd"/>
            </g>
          </g>
          <g id="Grupo_1026185" data-name="Grupo 1026185" transform="translate(45.299 0.078)">
            <g id="Grupo_1026183" data-name="Grupo 1026183">
              <path id="Trazado_766600" data-name="Trazado 766600" d="M290.606,17.526a.9.9,0,0,1,.262.184l5.022,5.022a.9.9,0,0,1,.184.262h-5.021a.448.448,0,0,1-.447-.447Z" transform="translate(-290.606 -17.526)" fill="#a79ba7" fill-rule="evenodd"/>
            </g>
            <g id="Grupo_1026184" data-name="Grupo 1026184">
              <path id="Trazado_766601" data-name="Trazado 766601" d="M290.606,17.526a.9.9,0,0,1,.262.184l5.022,5.022a.9.9,0,0,1,.184.262h-1.65a.9.9,0,0,0-.184-.262L290.606,19.1Z" transform="translate(-290.606 -17.526)" fill="#837683" fill-rule="evenodd"/>
            </g>
          </g>
        </g>
        <g id="Grupo_1026187" data-name="Grupo 1026187" transform="translate(0 0)">
          <path id="Trazado_766602" data-name="Trazado 766602" d="M56.53,33.205a1.319,1.319,0,0,1-1.32,1.32H42.6a1.32,1.32,0,1,1,0-2.64H55.21A1.319,1.319,0,0,1,56.53,33.205Zm0-5.8a1.319,1.319,0,0,1-1.32,1.32H42.6a1.32,1.32,0,1,1,0-2.64H55.21a1.32,1.32,0,0,1,1.32,1.32ZM41.28,15.794a1.32,1.32,0,0,1,1.32-1.32h7.928a1.32,1.32,0,0,1,0,2.639H42.6A1.319,1.319,0,0,1,41.28,15.794Zm15.25,5.8a1.319,1.319,0,0,1-1.32,1.319H42.6a1.32,1.32,0,1,1,0-2.639H55.21A1.319,1.319,0,0,1,56.53,21.6ZM77.844,46.628a1.317,1.317,0,0,1-.085,1.864L74.109,51.8a1.3,1.3,0,0,1-.885.342,1.316,1.316,0,0,1-.932-.387l-1.5-1.5a1.318,1.318,0,0,1,1.864-1.865L73.27,49l2.71-2.462a1.319,1.319,0,0,1,1.863.09ZM74.3,54.86A5.691,5.691,0,1,0,68.6,49.168,5.7,5.7,0,0,0,74.3,54.86Zm0-14.022a8.331,8.331,0,1,0,8.331,8.331A8.343,8.343,0,0,0,74.3,40.838Zm12.881,9.347V48.153l-1.506-.579a1.323,1.323,0,0,1-.807-.927,10.894,10.894,0,0,0-1.312-3.162,1.326,1.326,0,0,1-.085-1.229l.66-1.476-1.436-1.437L81.206,40a1.318,1.318,0,0,1-1.227-.082,10.764,10.764,0,0,0-3.16-1.311,1.308,1.308,0,0,1-.924-.808l-.582-1.508H73.278L72.7,37.8a1.32,1.32,0,0,1-.932.808,10.764,10.764,0,0,0-3.16,1.311A1.317,1.317,0,0,1,67.385,40l-1.475-.657-1.436,1.437.652,1.478a1.321,1.321,0,0,1-.078,1.227,10.714,10.714,0,0,0-1.312,3.162,1.317,1.317,0,0,1-.815.927l-1.506.579v2.032l1.506.579a1.315,1.315,0,0,1,.815.927,10.678,10.678,0,0,0,1.312,3.162,1.322,1.322,0,0,1,.078,1.227l-.652,1.478L65.91,59l1.475-.656a1.315,1.315,0,0,1,1.227.082,10.913,10.913,0,0,0,3.16,1.31,1.318,1.318,0,0,1,.932.81l.575,1.508h2.034l.582-1.506a1.3,1.3,0,0,1,.924-.81,10.737,10.737,0,0,0,3.16-1.311,1.315,1.315,0,0,1,1.227-.082l1.483.656,1.436-1.436-.66-1.478a1.323,1.323,0,0,1,.085-1.227,10.916,10.916,0,0,0,1.312-3.162,1.322,1.322,0,0,1,.807-.927ZM63.169,80.521a17.641,17.641,0,0,0-8.735-6.341,9.573,9.573,0,0,0,4.053-7.824,9.694,9.694,0,0,0-.1-1.433l4.861-4.86L64.683,61.5a1.319,1.319,0,0,0,1.467.274l1.693-.751a13.465,13.465,0,0,0,2.64,1.094l.66,1.725a1.317,1.317,0,0,0,1.235.845h3.843a1.314,1.314,0,0,0,1.227-.845l.668-1.725c.311-.092.621-.2.924-.315A31.821,31.821,0,0,1,63.169,80.521ZM51.856,87.89H63.619A14.986,14.986,0,0,0,51.887,76.238l1.794,8.807a1.331,1.331,0,0,1-.3,1.144ZM45.924,76.239,44.13,85.046a1.311,1.311,0,0,0,.311,1.144l1.514,1.7H34.192A14.986,14.986,0,0,1,45.924,76.239Zm-27.176-14.5A31.434,31.434,0,0,0,34.642,80.521a17.641,17.641,0,0,1,8.735-6.341,9.573,9.573,0,0,1-4.053-7.824,10.048,10.048,0,0,1,.171-1.822L33.159,58.2v2.225a1.319,1.319,0,0,1-1.32,1.32ZM10.634,39.216h5.21a1.319,1.319,0,0,0,1.32-1.32A3.416,3.416,0,0,1,24,37.9a1.319,1.319,0,0,0,1.32,1.32h5.2V43.25a6.058,6.058,0,0,0,0,11.821V59.1H10.634Zm25.7-15.857A31.425,31.425,0,0,0,24,32.91a6.036,6.036,0,0,1,2.485,3.667h5.35a1.319,1.319,0,0,1,1.32,1.319v6.528a1.319,1.319,0,0,1-1.32,1.32,3.416,3.416,0,1,0,0,6.831,1.32,1.32,0,0,1,1.32,1.319v.569l7.322,7.323a9.611,9.611,0,0,1,7.1-4.922V39.944H38.547a2.217,2.217,0,0,1-2.213-2.214ZM38.974,11.7V37.3H58.844V17.242H55.063a1.77,1.77,0,0,1-1.77-1.767V11.7Zm16.958,1.866,1.04,1.041h-1.04ZM48.905,73.3a6.945,6.945,0,1,0-6.941-6.945A6.957,6.957,0,0,0,48.905,73.3Zm2.058,11.623-2.058,2.3-2.058-2.3,1.832-8.979c.07,0,.147,0,.225,0s.155,0,.233,0Zm23.41-51.274a31.408,31.408,0,0,0-12.9-10.29V37.73a2.212,2.212,0,0,1-2.213,2.214H50.225v16.92a9.605,9.605,0,0,1,7.26,5.224l4.1-4.1a1.269,1.269,0,0,1,.109-.672l.745-1.689a13.561,13.561,0,0,1-1.095-2.639l-1.724-.664a1.327,1.327,0,0,1-.846-1.231V47.246a1.329,1.329,0,0,1,.846-1.232l1.724-.663a13.559,13.559,0,0,1,1.095-2.639l-.745-1.69a1.311,1.311,0,0,1,.272-1.47l2.718-2.717a1.32,1.32,0,0,1,1.467-.273l1.693.75a13.371,13.371,0,0,1,2.64-1.094l.66-1.725a1.317,1.317,0,0,1,1.235-.844h2Zm14.6,12.365-1.724-.663a13.559,13.559,0,0,0-1.095-2.639l.753-1.691a1.336,1.336,0,0,0-.272-1.468l-2.718-2.717a1.33,1.33,0,0,0-1.475-.273l-1.685.75a13.674,13.674,0,0,0-1.436-.671A34.1,34.1,0,0,0,61.476,20.5v-4.21a2.157,2.157,0,0,0-.645-1.565L55.808,9.705a2.169,2.169,0,0,0-1.561-.648h-15.7a2.217,2.217,0,0,0-2.213,2.214V20.5a34.082,34.082,0,0,0-14.885,11.4,5.878,5.878,0,0,0-.87-.065,6.056,6.056,0,0,0-5.909,4.735H9.314A1.319,1.319,0,0,0,7.994,37.9V60.422a1.319,1.319,0,0,0,1.32,1.32h6.677A34.3,34.3,0,0,0,33.244,82.768a17.543,17.543,0,0,0-1.9,6.3,1.325,1.325,0,0,0,.326,1.023,1.342,1.342,0,0,0,.986.439h32.5a1.315,1.315,0,0,0,1.312-1.461,17.689,17.689,0,0,0-1.895-6.3,34.234,34.234,0,0,0,17.3-21.245l.567.252a1.328,1.328,0,0,0,1.475-.274l2.718-2.717a1.338,1.338,0,0,0,.272-1.47l-.753-1.69a13.572,13.572,0,0,0,1.095-2.638l1.724-.664a1.315,1.315,0,0,0,.846-1.231V47.246a1.317,1.317,0,0,0-.846-1.232Z" transform="translate(-7.994 -9.057)" fill="#242222" fill-rule="evenodd"/>
        </g>
      </g>
    </g>
  </g>
</svg>
