<svg xmlns="http://www.w3.org/2000/svg" xmlns:xlink="http://www.w3.org/1999/xlink" width="400" height="276" viewBox="0 0 400 276">
  <defs>
    <clipPath id="clip-path">
      <rect id="Rect치ngulo_359963" data-name="Rect치ngulo 359963" width="391.636" height="265.239" fill="none"/>
    </clipPath>
    <clipPath id="clip-path-3">
      <rect id="Rect치ngulo_359959" data-name="Rect치ngulo 359959" width="391.636" height="191.803" transform="translate(0 52.17)" fill="none"/>
    </clipPath>
    <filter id="Trazado_767745">
      <feOffset dx="3" dy="3" input="SourceAlpha"/>
      <feGaussianBlur stdDeviation="3" result="blur"/>
      <feFlood flood-opacity="0.161" result="color"/>
      <feComposite operator="out" in="SourceGraphic" in2="blur"/>
      <feComposite operator="in" in="color"/>
      <feComposite operator="in" in2="SourceGraphic"/>
    </filter>
    <filter id="Trazado_767746">
      <feOffset dx="3" dy="3" input="SourceAlpha"/>
      <feGaussianBlur stdDeviation="3" result="blur-2"/>
      <feFlood flood-opacity="0.161" result="color-2"/>
      <feComposite operator="out" in="SourceGraphic" in2="blur-2"/>
      <feComposite operator="in" in="color-2"/>
      <feComposite operator="in" in2="SourceGraphic"/>
    </filter>
    <filter id="Trazado_767747">
      <feOffset dx="3" dy="3" input="SourceAlpha"/>
      <feGaussianBlur stdDeviation="3" result="blur-3"/>
      <feFlood flood-opacity="0.161" result="color-3"/>
      <feComposite operator="out" in="SourceGraphic" in2="blur-3"/>
      <feComposite operator="in" in="color-3"/>
      <feComposite operator="in" in2="SourceGraphic"/>
    </filter>
  </defs>
  <g id="Grupo_1027202" data-name="Grupo 1027202" transform="translate(-180 -5574)">
    <g id="Grupo_1026917" data-name="Grupo 1026917" transform="translate(184 5579)">
      <g id="Grupo_1026916" data-name="Grupo 1026916" clip-path="url(#clip-path)">
        <g id="Grupo_1026915" data-name="Grupo 1026915">
          <g id="Grupo_1026914" data-name="Grupo 1026914" clip-path="url(#clip-path)">
            <g id="Grupo_1026913" data-name="Grupo 1026913" opacity="0.2">
              <g id="Grupo_1026912" data-name="Grupo 1026912">
                <g id="Grupo_1026911" data-name="Grupo 1026911" clip-path="url(#clip-path-3)">
                  <path id="Trazado_767748" data-name="Trazado 767748" d="M102.475,241.36a2.692,2.692,0,1,0,2.691-2.614,2.653,2.653,0,0,0-2.691,2.614" fill="#375a64"/>
                  <path id="Trazado_767749" data-name="Trazado 767749" d="M102.475,233.586a2.692,2.692,0,1,0,2.691-2.614,2.654,2.654,0,0,0-2.691,2.614" fill="#375a64"/>
                  <path id="Trazado_767750" data-name="Trazado 767750" d="M370.488,225.812a2.692,2.692,0,1,0,2.691-2.614,2.653,2.653,0,0,0-2.691,2.614" fill="#375a64"/>
                  <path id="Trazado_767751" data-name="Trazado 767751" d="M338.957,225.812a2.692,2.692,0,1,0,2.691-2.614,2.653,2.653,0,0,0-2.691,2.614" fill="#375a64"/>
                  <path id="Trazado_767752" data-name="Trazado 767752" d="M110.358,225.812a2.692,2.692,0,1,0,2.691-2.614,2.653,2.653,0,0,0-2.691,2.614" fill="#375a64"/>
                  <path id="Trazado_767753" data-name="Trazado 767753" d="M102.475,225.812a2.692,2.692,0,1,0,2.691-2.614,2.653,2.653,0,0,0-2.691,2.614" fill="#375a64"/>
                  <path id="Trazado_767754" data-name="Trazado 767754" d="M370.488,218.038a2.692,2.692,0,1,0,2.691-2.614,2.653,2.653,0,0,0-2.691,2.614" fill="#375a64"/>
                  <path id="Trazado_767755" data-name="Trazado 767755" d="M338.957,218.038a2.692,2.692,0,1,0,2.691-2.614,2.653,2.653,0,0,0-2.691,2.614" fill="#375a64"/>
                  <path id="Trazado_767756" data-name="Trazado 767756" d="M118.241,218.038a2.692,2.692,0,1,0,2.691-2.614,2.653,2.653,0,0,0-2.691,2.614" fill="#375a64"/>
                  <path id="Trazado_767757" data-name="Trazado 767757" d="M110.358,218.038a2.692,2.692,0,1,0,2.691-2.614,2.653,2.653,0,0,0-2.691,2.614" fill="#375a64"/>
                  <path id="Trazado_767758" data-name="Trazado 767758" d="M102.475,218.038a2.692,2.692,0,1,0,2.691-2.614,2.653,2.653,0,0,0-2.691,2.614" fill="#375a64"/>
                  <path id="Trazado_767759" data-name="Trazado 767759" d="M346.84,210.264a2.692,2.692,0,1,0,2.691-2.614,2.653,2.653,0,0,0-2.691,2.614" fill="#375a64"/>
                  <path id="Trazado_767760" data-name="Trazado 767760" d="M338.957,210.264a2.692,2.692,0,1,0,2.691-2.614,2.653,2.653,0,0,0-2.691,2.614" fill="#375a64"/>
                  <path id="Trazado_767761" data-name="Trazado 767761" d="M331.075,210.264a2.692,2.692,0,1,0,2.691-2.614,2.653,2.653,0,0,0-2.691,2.614" fill="#375a64"/>
                  <path id="Trazado_767762" data-name="Trazado 767762" d="M323.192,210.264a2.692,2.692,0,1,0,2.69-2.614,2.652,2.652,0,0,0-2.69,2.614" fill="#375a64"/>
                  <path id="Trazado_767763" data-name="Trazado 767763" d="M315.309,210.264A2.692,2.692,0,1,0,318,207.65a2.653,2.653,0,0,0-2.691,2.614" fill="#375a64"/>
                  <path id="Trazado_767764" data-name="Trazado 767764" d="M307.427,210.264a2.692,2.692,0,1,0,2.69-2.614,2.653,2.653,0,0,0-2.69,2.614" fill="#375a64"/>
                  <path id="Trazado_767765" data-name="Trazado 767765" d="M212.834,210.264a2.692,2.692,0,1,0,2.691-2.614,2.653,2.653,0,0,0-2.691,2.614" fill="#375a64"/>
                  <path id="Trazado_767766" data-name="Trazado 767766" d="M204.951,210.264a2.692,2.692,0,1,0,2.691-2.614,2.653,2.653,0,0,0-2.691,2.614" fill="#375a64"/>
                  <path id="Trazado_767767" data-name="Trazado 767767" d="M126.124,210.264a2.692,2.692,0,1,0,2.691-2.614,2.653,2.653,0,0,0-2.691,2.614" fill="#375a64"/>
                  <path id="Trazado_767768" data-name="Trazado 767768" d="M118.241,210.264a2.692,2.692,0,1,0,2.691-2.614,2.653,2.653,0,0,0-2.691,2.614" fill="#375a64"/>
                  <path id="Trazado_767769" data-name="Trazado 767769" d="M110.358,210.264a2.692,2.692,0,1,0,2.691-2.614,2.653,2.653,0,0,0-2.691,2.614" fill="#375a64"/>
                  <path id="Trazado_767770" data-name="Trazado 767770" d="M102.475,210.264a2.692,2.692,0,1,0,2.691-2.614,2.653,2.653,0,0,0-2.691,2.614" fill="#375a64"/>
                  <path id="Trazado_767771" data-name="Trazado 767771" d="M338.957,202.49a2.692,2.692,0,1,0,2.691-2.614,2.653,2.653,0,0,0-2.691,2.614" fill="#375a64"/>
                  <path id="Trazado_767772" data-name="Trazado 767772" d="M331.075,202.49a2.692,2.692,0,1,0,2.691-2.614,2.653,2.653,0,0,0-2.691,2.614" fill="#375a64"/>
                  <path id="Trazado_767773" data-name="Trazado 767773" d="M323.192,202.49a2.692,2.692,0,1,0,2.69-2.614,2.652,2.652,0,0,0-2.69,2.614" fill="#375a64"/>
                  <path id="Trazado_767774" data-name="Trazado 767774" d="M315.309,202.49A2.692,2.692,0,1,0,318,199.876a2.653,2.653,0,0,0-2.691,2.614" fill="#375a64"/>
                  <path id="Trazado_767775" data-name="Trazado 767775" d="M307.427,202.49a2.692,2.692,0,1,0,2.69-2.614,2.653,2.653,0,0,0-2.69,2.614" fill="#375a64"/>
                  <path id="Trazado_767776" data-name="Trazado 767776" d="M228.6,202.49a2.692,2.692,0,1,0,2.691-2.614,2.653,2.653,0,0,0-2.691,2.614" fill="#375a64"/>
                  <path id="Trazado_767777" data-name="Trazado 767777" d="M212.834,202.49a2.692,2.692,0,1,0,2.691-2.614,2.653,2.653,0,0,0-2.691,2.614" fill="#375a64"/>
                  <path id="Trazado_767778" data-name="Trazado 767778" d="M204.951,202.49a2.692,2.692,0,1,0,2.691-2.614,2.653,2.653,0,0,0-2.691,2.614" fill="#375a64"/>
                  <path id="Trazado_767779" data-name="Trazado 767779" d="M197.068,202.49a2.692,2.692,0,1,0,2.691-2.614,2.653,2.653,0,0,0-2.691,2.614" fill="#375a64"/>
                  <path id="Trazado_767780" data-name="Trazado 767780" d="M126.124,202.49a2.692,2.692,0,1,0,2.691-2.614,2.653,2.653,0,0,0-2.691,2.614" fill="#375a64"/>
                  <path id="Trazado_767781" data-name="Trazado 767781" d="M118.241,202.49a2.692,2.692,0,1,0,2.691-2.614,2.653,2.653,0,0,0-2.691,2.614" fill="#375a64"/>
                  <path id="Trazado_767782" data-name="Trazado 767782" d="M110.358,202.49a2.692,2.692,0,1,0,2.691-2.614,2.653,2.653,0,0,0-2.691,2.614" fill="#375a64"/>
                  <path id="Trazado_767783" data-name="Trazado 767783" d="M338.957,194.716a2.692,2.692,0,1,0,2.691-2.614,2.653,2.653,0,0,0-2.691,2.614" fill="#375a64"/>
                  <path id="Trazado_767784" data-name="Trazado 767784" d="M331.075,194.716a2.692,2.692,0,1,0,2.691-2.614,2.653,2.653,0,0,0-2.691,2.614" fill="#375a64"/>
                  <path id="Trazado_767785" data-name="Trazado 767785" d="M323.192,194.716a2.692,2.692,0,1,0,2.69-2.614,2.652,2.652,0,0,0-2.69,2.614" fill="#375a64"/>
                  <path id="Trazado_767786" data-name="Trazado 767786" d="M315.309,194.716A2.692,2.692,0,1,0,318,192.1a2.653,2.653,0,0,0-2.691,2.614" fill="#375a64"/>
                  <path id="Trazado_767787" data-name="Trazado 767787" d="M228.6,194.716a2.692,2.692,0,1,0,2.691-2.614,2.653,2.653,0,0,0-2.691,2.614" fill="#375a64"/>
                  <path id="Trazado_767788" data-name="Trazado 767788" d="M220.717,194.716a2.692,2.692,0,1,0,2.691-2.614,2.653,2.653,0,0,0-2.691,2.614" fill="#375a64"/>
                  <path id="Trazado_767789" data-name="Trazado 767789" d="M212.834,194.716a2.692,2.692,0,1,0,2.691-2.614,2.653,2.653,0,0,0-2.691,2.614" fill="#375a64"/>
                  <path id="Trazado_767790" data-name="Trazado 767790" d="M204.951,194.716a2.692,2.692,0,1,0,2.691-2.614,2.653,2.653,0,0,0-2.691,2.614" fill="#375a64"/>
                  <path id="Trazado_767791" data-name="Trazado 767791" d="M197.068,194.716a2.692,2.692,0,1,0,2.691-2.614,2.653,2.653,0,0,0-2.691,2.614" fill="#375a64"/>
                  <path id="Trazado_767792" data-name="Trazado 767792" d="M134.007,194.716a2.692,2.692,0,1,0,2.69-2.614,2.652,2.652,0,0,0-2.69,2.614" fill="#375a64"/>
                  <path id="Trazado_767793" data-name="Trazado 767793" d="M126.124,194.716a2.692,2.692,0,1,0,2.691-2.614,2.653,2.653,0,0,0-2.691,2.614" fill="#375a64"/>
                  <path id="Trazado_767794" data-name="Trazado 767794" d="M118.241,194.716a2.692,2.692,0,1,0,2.691-2.614,2.653,2.653,0,0,0-2.691,2.614" fill="#375a64"/>
                  <path id="Trazado_767795" data-name="Trazado 767795" d="M110.358,194.716a2.692,2.692,0,1,0,2.691-2.614,2.653,2.653,0,0,0-2.691,2.614" fill="#375a64"/>
                  <path id="Trazado_767796" data-name="Trazado 767796" d="M102.475,194.716a2.692,2.692,0,1,0,2.691-2.614,2.653,2.653,0,0,0-2.691,2.614" fill="#375a64"/>
                  <path id="Trazado_767797" data-name="Trazado 767797" d="M315.309,186.942A2.692,2.692,0,1,0,318,184.328a2.653,2.653,0,0,0-2.691,2.614" fill="#375a64"/>
                  <path id="Trazado_767798" data-name="Trazado 767798" d="M307.427,186.942a2.692,2.692,0,1,0,2.69-2.614,2.653,2.653,0,0,0-2.69,2.614" fill="#375a64"/>
                  <path id="Trazado_767799" data-name="Trazado 767799" d="M220.717,186.942a2.692,2.692,0,1,0,2.691-2.614,2.653,2.653,0,0,0-2.691,2.614" fill="#375a64"/>
                  <path id="Trazado_767800" data-name="Trazado 767800" d="M212.834,186.942a2.692,2.692,0,1,0,2.691-2.614,2.653,2.653,0,0,0-2.691,2.614" fill="#375a64"/>
                  <path id="Trazado_767801" data-name="Trazado 767801" d="M204.951,186.942a2.692,2.692,0,1,0,2.691-2.614,2.653,2.653,0,0,0-2.691,2.614" fill="#375a64"/>
                  <path id="Trazado_767802" data-name="Trazado 767802" d="M197.068,186.942a2.692,2.692,0,1,0,2.691-2.614,2.653,2.653,0,0,0-2.691,2.614" fill="#375a64"/>
                  <path id="Trazado_767803" data-name="Trazado 767803" d="M141.889,186.942a2.692,2.692,0,1,0,2.691-2.614,2.653,2.653,0,0,0-2.691,2.614" fill="#375a64"/>
                  <path id="Trazado_767804" data-name="Trazado 767804" d="M134.007,186.942a2.692,2.692,0,1,0,2.69-2.614,2.652,2.652,0,0,0-2.69,2.614" fill="#375a64"/>
                  <path id="Trazado_767805" data-name="Trazado 767805" d="M126.124,186.942a2.692,2.692,0,1,0,2.691-2.614,2.653,2.653,0,0,0-2.691,2.614" fill="#375a64"/>
                  <path id="Trazado_767806" data-name="Trazado 767806" d="M118.241,186.942a2.692,2.692,0,1,0,2.691-2.614,2.653,2.653,0,0,0-2.691,2.614" fill="#375a64"/>
                  <path id="Trazado_767807" data-name="Trazado 767807" d="M110.358,186.942a2.692,2.692,0,1,0,2.691-2.614,2.653,2.653,0,0,0-2.691,2.614" fill="#375a64"/>
                  <path id="Trazado_767808" data-name="Trazado 767808" d="M102.475,186.942a2.692,2.692,0,1,0,2.691-2.614,2.653,2.653,0,0,0-2.691,2.614" fill="#375a64"/>
                  <path id="Trazado_767809" data-name="Trazado 767809" d="M94.593,186.942a2.692,2.692,0,1,0,2.691-2.614,2.653,2.653,0,0,0-2.691,2.614" fill="#375a64"/>
                  <path id="Trazado_767810" data-name="Trazado 767810" d="M331.075,179.168a2.692,2.692,0,1,0,2.691-2.614,2.653,2.653,0,0,0-2.691,2.614" fill="#375a64"/>
                  <path id="Trazado_767811" data-name="Trazado 767811" d="M323.192,179.168a2.692,2.692,0,1,0,2.69-2.614,2.652,2.652,0,0,0-2.69,2.614" fill="#375a64"/>
                  <path id="Trazado_767812" data-name="Trazado 767812" d="M307.427,179.168a2.692,2.692,0,1,0,2.69-2.614,2.653,2.653,0,0,0-2.69,2.614" fill="#375a64"/>
                  <path id="Trazado_767813" data-name="Trazado 767813" d="M291.661,179.168a2.692,2.692,0,1,0,2.691-2.614,2.653,2.653,0,0,0-2.691,2.614" fill="#375a64"/>
                  <path id="Trazado_767814" data-name="Trazado 767814" d="M220.717,179.168a2.692,2.692,0,1,0,2.691-2.614,2.653,2.653,0,0,0-2.691,2.614" fill="#375a64"/>
                  <path id="Trazado_767815" data-name="Trazado 767815" d="M212.834,179.168a2.692,2.692,0,1,0,2.691-2.614,2.653,2.653,0,0,0-2.691,2.614" fill="#375a64"/>
                  <path id="Trazado_767816" data-name="Trazado 767816" d="M204.951,179.168a2.692,2.692,0,1,0,2.691-2.614,2.653,2.653,0,0,0-2.691,2.614" fill="#375a64"/>
                  <path id="Trazado_767817" data-name="Trazado 767817" d="M197.068,179.168a2.692,2.692,0,1,0,2.691-2.614,2.653,2.653,0,0,0-2.691,2.614" fill="#375a64"/>
                  <path id="Trazado_767818" data-name="Trazado 767818" d="M134.007,179.168a2.692,2.692,0,1,0,2.69-2.614,2.652,2.652,0,0,0-2.69,2.614" fill="#375a64"/>
                  <path id="Trazado_767819" data-name="Trazado 767819" d="M126.124,179.168a2.692,2.692,0,1,0,2.691-2.614,2.653,2.653,0,0,0-2.691,2.614" fill="#375a64"/>
                  <path id="Trazado_767820" data-name="Trazado 767820" d="M118.241,179.168a2.692,2.692,0,1,0,2.691-2.614,2.653,2.653,0,0,0-2.691,2.614" fill="#375a64"/>
                  <path id="Trazado_767821" data-name="Trazado 767821" d="M110.358,179.168a2.692,2.692,0,1,0,2.691-2.614,2.653,2.653,0,0,0-2.691,2.614" fill="#375a64"/>
                  <path id="Trazado_767822" data-name="Trazado 767822" d="M102.475,179.168a2.692,2.692,0,1,0,2.691-2.614,2.653,2.653,0,0,0-2.691,2.614" fill="#375a64"/>
                  <path id="Trazado_767823" data-name="Trazado 767823" d="M94.593,179.168a2.692,2.692,0,1,0,2.691-2.614,2.653,2.653,0,0,0-2.691,2.614" fill="#375a64"/>
                  <path id="Trazado_767824" data-name="Trazado 767824" d="M307.427,171.394a2.692,2.692,0,1,0,2.69-2.614,2.653,2.653,0,0,0-2.69,2.614" fill="#375a64"/>
                  <path id="Trazado_767825" data-name="Trazado 767825" d="M291.661,171.394a2.692,2.692,0,1,0,2.691-2.614,2.653,2.653,0,0,0-2.691,2.614" fill="#375a64"/>
                  <path id="Trazado_767826" data-name="Trazado 767826" d="M283.778,171.394a2.692,2.692,0,1,0,2.691-2.614,2.653,2.653,0,0,0-2.691,2.614" fill="#375a64"/>
                  <path id="Trazado_767827" data-name="Trazado 767827" d="M228.6,171.394a2.692,2.692,0,1,0,2.691-2.614,2.653,2.653,0,0,0-2.691,2.614" fill="#375a64"/>
                  <path id="Trazado_767828" data-name="Trazado 767828" d="M220.717,171.394a2.692,2.692,0,1,0,2.691-2.614,2.653,2.653,0,0,0-2.691,2.614" fill="#375a64"/>
                  <path id="Trazado_767829" data-name="Trazado 767829" d="M212.834,171.394a2.692,2.692,0,1,0,2.691-2.614,2.653,2.653,0,0,0-2.691,2.614" fill="#375a64"/>
                  <path id="Trazado_767830" data-name="Trazado 767830" d="M204.951,171.394a2.692,2.692,0,1,0,2.691-2.614,2.653,2.653,0,0,0-2.691,2.614" fill="#375a64"/>
                  <path id="Trazado_767831" data-name="Trazado 767831" d="M197.068,171.394a2.692,2.692,0,1,0,2.691-2.614,2.653,2.653,0,0,0-2.691,2.614" fill="#375a64"/>
                  <path id="Trazado_767832" data-name="Trazado 767832" d="M189.186,171.394a2.692,2.692,0,1,0,2.691-2.614,2.653,2.653,0,0,0-2.691,2.614" fill="#375a64"/>
                  <path id="Trazado_767833" data-name="Trazado 767833" d="M173.42,171.394a2.692,2.692,0,1,0,2.691-2.614,2.653,2.653,0,0,0-2.691,2.614" fill="#375a64"/>
                  <path id="Trazado_767834" data-name="Trazado 767834" d="M118.241,171.394a2.692,2.692,0,1,0,2.691-2.614,2.653,2.653,0,0,0-2.691,2.614" fill="#375a64"/>
                  <path id="Trazado_767835" data-name="Trazado 767835" d="M110.358,171.394a2.692,2.692,0,1,0,2.691-2.614,2.653,2.653,0,0,0-2.691,2.614" fill="#375a64"/>
                  <path id="Trazado_767836" data-name="Trazado 767836" d="M102.475,171.394a2.692,2.692,0,1,0,2.691-2.614,2.653,2.653,0,0,0-2.691,2.614" fill="#375a64"/>
                  <path id="Trazado_767837" data-name="Trazado 767837" d="M315.309,163.62A2.692,2.692,0,1,0,318,161.006a2.653,2.653,0,0,0-2.691,2.614" fill="#375a64"/>
                  <path id="Trazado_767838" data-name="Trazado 767838" d="M299.544,163.62a2.692,2.692,0,1,0,2.691-2.614,2.653,2.653,0,0,0-2.691,2.614" fill="#375a64"/>
                  <path id="Trazado_767839" data-name="Trazado 767839" d="M268.013,163.62a2.692,2.692,0,1,0,2.691-2.614,2.653,2.653,0,0,0-2.691,2.614" fill="#375a64"/>
                  <path id="Trazado_767840" data-name="Trazado 767840" d="M236.482,163.62a2.692,2.692,0,1,0,2.691-2.614,2.653,2.653,0,0,0-2.691,2.614" fill="#375a64"/>
                  <path id="Trazado_767841" data-name="Trazado 767841" d="M228.6,163.62a2.692,2.692,0,1,0,2.691-2.614,2.653,2.653,0,0,0-2.691,2.614" fill="#375a64"/>
                  <path id="Trazado_767842" data-name="Trazado 767842" d="M220.717,163.62a2.692,2.692,0,1,0,2.691-2.614,2.653,2.653,0,0,0-2.691,2.614" fill="#375a64"/>
                  <path id="Trazado_767843" data-name="Trazado 767843" d="M212.834,163.62a2.692,2.692,0,1,0,2.691-2.614,2.653,2.653,0,0,0-2.691,2.614" fill="#375a64"/>
                  <path id="Trazado_767844" data-name="Trazado 767844" d="M204.951,163.62a2.692,2.692,0,1,0,2.691-2.614,2.653,2.653,0,0,0-2.691,2.614" fill="#375a64"/>
                  <path id="Trazado_767845" data-name="Trazado 767845" d="M197.068,163.62a2.692,2.692,0,1,0,2.691-2.614,2.653,2.653,0,0,0-2.691,2.614" fill="#375a64"/>
                  <path id="Trazado_767846" data-name="Trazado 767846" d="M189.186,163.62a2.692,2.692,0,1,0,2.691-2.614,2.653,2.653,0,0,0-2.691,2.614" fill="#375a64"/>
                  <path id="Trazado_767847" data-name="Trazado 767847" d="M181.3,163.62a2.692,2.692,0,1,0,2.691-2.614,2.653,2.653,0,0,0-2.691,2.614" fill="#375a64"/>
                  <path id="Trazado_767848" data-name="Trazado 767848" d="M173.42,163.62a2.692,2.692,0,1,0,2.691-2.614,2.653,2.653,0,0,0-2.691,2.614" fill="#375a64"/>
                  <path id="Trazado_767849" data-name="Trazado 767849" d="M165.537,163.62a2.692,2.692,0,1,0,2.691-2.614,2.653,2.653,0,0,0-2.691,2.614" fill="#375a64"/>
                  <path id="Trazado_767850" data-name="Trazado 767850" d="M102.475,163.62a2.692,2.692,0,1,0,2.691-2.614,2.653,2.653,0,0,0-2.691,2.614" fill="#375a64"/>
                  <path id="Trazado_767851" data-name="Trazado 767851" d="M86.71,163.62a2.692,2.692,0,1,0,2.691-2.614,2.653,2.653,0,0,0-2.691,2.614" fill="#375a64"/>
                  <path id="Trazado_767852" data-name="Trazado 767852" d="M299.544,155.846a2.692,2.692,0,1,0,2.691-2.614,2.653,2.653,0,0,0-2.691,2.614" fill="#375a64"/>
                  <path id="Trazado_767853" data-name="Trazado 767853" d="M291.661,155.846a2.692,2.692,0,1,0,2.691-2.614,2.653,2.653,0,0,0-2.691,2.614" fill="#375a64"/>
                  <path id="Trazado_767854" data-name="Trazado 767854" d="M283.778,155.846a2.692,2.692,0,1,0,2.691-2.614,2.653,2.653,0,0,0-2.691,2.614" fill="#375a64"/>
                  <path id="Trazado_767855" data-name="Trazado 767855" d="M268.013,155.846a2.692,2.692,0,1,0,2.691-2.614,2.653,2.653,0,0,0-2.691,2.614" fill="#375a64"/>
                  <path id="Trazado_767856" data-name="Trazado 767856" d="M260.13,155.846a2.692,2.692,0,1,0,2.691-2.614,2.653,2.653,0,0,0-2.691,2.614" fill="#375a64"/>
                  <path id="Trazado_767857" data-name="Trazado 767857" d="M236.482,155.846a2.692,2.692,0,1,0,2.691-2.614,2.653,2.653,0,0,0-2.691,2.614" fill="#375a64"/>
                  <path id="Trazado_767858" data-name="Trazado 767858" d="M228.6,155.846a2.692,2.692,0,1,0,2.691-2.614,2.653,2.653,0,0,0-2.691,2.614" fill="#375a64"/>
                  <path id="Trazado_767859" data-name="Trazado 767859" d="M220.717,155.846a2.692,2.692,0,1,0,2.691-2.614,2.653,2.653,0,0,0-2.691,2.614" fill="#375a64"/>
                  <path id="Trazado_767860" data-name="Trazado 767860" d="M212.834,155.846a2.692,2.692,0,1,0,2.691-2.614,2.653,2.653,0,0,0-2.691,2.614" fill="#375a64"/>
                  <path id="Trazado_767861" data-name="Trazado 767861" d="M204.951,155.846a2.692,2.692,0,1,0,2.691-2.614,2.653,2.653,0,0,0-2.691,2.614" fill="#375a64"/>
                  <path id="Trazado_767862" data-name="Trazado 767862" d="M197.068,155.846a2.692,2.692,0,1,0,2.691-2.614,2.653,2.653,0,0,0-2.691,2.614" fill="#375a64"/>
                  <path id="Trazado_767863" data-name="Trazado 767863" d="M189.186,155.846a2.692,2.692,0,1,0,2.691-2.614,2.653,2.653,0,0,0-2.691,2.614" fill="#375a64"/>
                  <path id="Trazado_767864" data-name="Trazado 767864" d="M181.3,155.846a2.692,2.692,0,1,0,2.691-2.614,2.653,2.653,0,0,0-2.691,2.614" fill="#375a64"/>
                  <path id="Trazado_767865" data-name="Trazado 767865" d="M173.42,155.846a2.692,2.692,0,1,0,2.691-2.614,2.653,2.653,0,0,0-2.691,2.614" fill="#375a64"/>
                  <path id="Trazado_767866" data-name="Trazado 767866" d="M165.537,155.846a2.692,2.692,0,1,0,2.691-2.614,2.653,2.653,0,0,0-2.691,2.614" fill="#375a64"/>
                  <path id="Trazado_767867" data-name="Trazado 767867" d="M102.475,155.846a2.692,2.692,0,1,0,2.691-2.614,2.653,2.653,0,0,0-2.691,2.614" fill="#375a64"/>
                  <path id="Trazado_767868" data-name="Trazado 767868" d="M94.593,155.846a2.692,2.692,0,1,0,2.691-2.614,2.653,2.653,0,0,0-2.691,2.614" fill="#375a64"/>
                  <path id="Trazado_767869" data-name="Trazado 767869" d="M78.827,155.846a2.692,2.692,0,1,0,2.691-2.614,2.653,2.653,0,0,0-2.691,2.614" fill="#375a64"/>
                  <path id="Trazado_767870" data-name="Trazado 767870" d="M70.944,155.846a2.692,2.692,0,1,0,2.691-2.614,2.653,2.653,0,0,0-2.691,2.614" fill="#375a64"/>
                  <path id="Trazado_767871" data-name="Trazado 767871" d="M307.427,148.072a2.692,2.692,0,1,0,2.69-2.614,2.653,2.653,0,0,0-2.69,2.614" fill="#375a64"/>
                  <path id="Trazado_767872" data-name="Trazado 767872" d="M299.544,148.072a2.692,2.692,0,1,0,2.691-2.614,2.653,2.653,0,0,0-2.691,2.614" fill="#375a64"/>
                  <path id="Trazado_767873" data-name="Trazado 767873" d="M291.661,148.072a2.692,2.692,0,1,0,2.691-2.614,2.653,2.653,0,0,0-2.691,2.614" fill="#375a64"/>
                  <path id="Trazado_767874" data-name="Trazado 767874" d="M283.778,148.072a2.692,2.692,0,1,0,2.691-2.614,2.653,2.653,0,0,0-2.691,2.614" fill="#375a64"/>
                  <path id="Trazado_767875" data-name="Trazado 767875" d="M275.895,148.072a2.692,2.692,0,1,0,2.691-2.614,2.653,2.653,0,0,0-2.691,2.614" fill="#375a64"/>
                  <path id="Trazado_767876" data-name="Trazado 767876" d="M268.013,148.072a2.692,2.692,0,1,0,2.691-2.614,2.653,2.653,0,0,0-2.691,2.614" fill="#375a64"/>
                  <path id="Trazado_767877" data-name="Trazado 767877" d="M260.13,148.072a2.692,2.692,0,1,0,2.691-2.614,2.653,2.653,0,0,0-2.691,2.614" fill="#375a64"/>
                  <path id="Trazado_767878" data-name="Trazado 767878" d="M252.247,148.072a2.692,2.692,0,1,0,2.691-2.614,2.653,2.653,0,0,0-2.691,2.614" fill="#375a64"/>
                  <path id="Trazado_767879" data-name="Trazado 767879" d="M244.365,148.072a2.692,2.692,0,1,0,2.691-2.614,2.653,2.653,0,0,0-2.691,2.614" fill="#375a64"/>
                  <path id="Trazado_767880" data-name="Trazado 767880" d="M236.482,148.072a2.692,2.692,0,1,0,2.691-2.614,2.653,2.653,0,0,0-2.691,2.614" fill="#375a64"/>
                  <path id="Trazado_767881" data-name="Trazado 767881" d="M228.6,148.072a2.692,2.692,0,1,0,2.691-2.614,2.653,2.653,0,0,0-2.691,2.614" fill="#375a64"/>
                  <path id="Trazado_767882" data-name="Trazado 767882" d="M220.717,148.072a2.692,2.692,0,1,0,2.691-2.614,2.653,2.653,0,0,0-2.691,2.614" fill="#375a64"/>
                  <path id="Trazado_767883" data-name="Trazado 767883" d="M212.834,148.072a2.692,2.692,0,1,0,2.691-2.614,2.653,2.653,0,0,0-2.691,2.614" fill="#375a64"/>
                  <path id="Trazado_767884" data-name="Trazado 767884" d="M204.951,148.072a2.692,2.692,0,1,0,2.691-2.614,2.653,2.653,0,0,0-2.691,2.614" fill="#375a64"/>
                  <path id="Trazado_767885" data-name="Trazado 767885" d="M197.068,148.072a2.692,2.692,0,1,0,2.691-2.614,2.653,2.653,0,0,0-2.691,2.614" fill="#375a64"/>
                  <path id="Trazado_767886" data-name="Trazado 767886" d="M189.186,148.072a2.692,2.692,0,1,0,2.691-2.614,2.653,2.653,0,0,0-2.691,2.614" fill="#375a64"/>
                  <path id="Trazado_767887" data-name="Trazado 767887" d="M181.3,148.072a2.692,2.692,0,1,0,2.691-2.614,2.653,2.653,0,0,0-2.691,2.614" fill="#375a64"/>
                  <path id="Trazado_767888" data-name="Trazado 767888" d="M173.42,148.072a2.692,2.692,0,1,0,2.691-2.614,2.653,2.653,0,0,0-2.691,2.614" fill="#375a64"/>
                  <path id="Trazado_767889" data-name="Trazado 767889" d="M165.537,148.072a2.692,2.692,0,1,0,2.691-2.614,2.653,2.653,0,0,0-2.691,2.614" fill="#375a64"/>
                  <path id="Trazado_767890" data-name="Trazado 767890" d="M94.593,148.072a2.692,2.692,0,1,0,2.691-2.614,2.653,2.653,0,0,0-2.691,2.614" fill="#375a64"/>
                  <path id="Trazado_767891" data-name="Trazado 767891" d="M70.944,148.072a2.692,2.692,0,1,0,2.691-2.614,2.653,2.653,0,0,0-2.691,2.614" fill="#375a64"/>
                  <path id="Trazado_767892" data-name="Trazado 767892" d="M63.062,148.072a2.692,2.692,0,1,0,2.691-2.614,2.653,2.653,0,0,0-2.691,2.614" fill="#375a64"/>
                  <path id="Trazado_767893" data-name="Trazado 767893" d="M323.192,140.3a2.692,2.692,0,1,0,2.69-2.614,2.652,2.652,0,0,0-2.69,2.614" fill="#375a64"/>
                  <path id="Trazado_767894" data-name="Trazado 767894" d="M307.427,140.3a2.692,2.692,0,1,0,2.69-2.614,2.653,2.653,0,0,0-2.69,2.614" fill="#375a64"/>
                  <path id="Trazado_767895" data-name="Trazado 767895" d="M299.544,140.3a2.692,2.692,0,1,0,2.691-2.614,2.653,2.653,0,0,0-2.691,2.614" fill="#375a64"/>
                  <path id="Trazado_767896" data-name="Trazado 767896" d="M291.661,140.3a2.692,2.692,0,1,0,2.691-2.614,2.653,2.653,0,0,0-2.691,2.614" fill="#375a64"/>
                  <path id="Trazado_767897" data-name="Trazado 767897" d="M283.778,140.3a2.692,2.692,0,1,0,2.691-2.614,2.653,2.653,0,0,0-2.691,2.614" fill="#375a64"/>
                  <path id="Trazado_767898" data-name="Trazado 767898" d="M275.895,140.3a2.692,2.692,0,1,0,2.691-2.614,2.653,2.653,0,0,0-2.691,2.614" fill="#375a64"/>
                  <path id="Trazado_767899" data-name="Trazado 767899" d="M268.013,140.3a2.692,2.692,0,1,0,2.691-2.614,2.653,2.653,0,0,0-2.691,2.614" fill="#375a64"/>
                  <path id="Trazado_767900" data-name="Trazado 767900" d="M260.13,140.3a2.692,2.692,0,1,0,2.691-2.614,2.653,2.653,0,0,0-2.691,2.614" fill="#375a64"/>
                  <path id="Trazado_767901" data-name="Trazado 767901" d="M252.247,140.3a2.692,2.692,0,1,0,2.691-2.614,2.653,2.653,0,0,0-2.691,2.614" fill="#375a64"/>
                  <path id="Trazado_767902" data-name="Trazado 767902" d="M244.365,140.3a2.692,2.692,0,1,0,2.691-2.614,2.653,2.653,0,0,0-2.691,2.614" fill="#375a64"/>
                  <path id="Trazado_767903" data-name="Trazado 767903" d="M236.482,140.3a2.692,2.692,0,1,0,2.691-2.614,2.653,2.653,0,0,0-2.691,2.614" fill="#375a64"/>
                  <path id="Trazado_767904" data-name="Trazado 767904" d="M228.6,140.3a2.692,2.692,0,1,0,2.691-2.614A2.653,2.653,0,0,0,228.6,140.3" fill="#375a64"/>
                  <path id="Trazado_767905" data-name="Trazado 767905" d="M220.717,140.3a2.692,2.692,0,1,0,2.691-2.614,2.653,2.653,0,0,0-2.691,2.614" fill="#375a64"/>
                  <path id="Trazado_767906" data-name="Trazado 767906" d="M212.834,140.3a2.692,2.692,0,1,0,2.691-2.614,2.653,2.653,0,0,0-2.691,2.614" fill="#375a64"/>
                  <path id="Trazado_767907" data-name="Trazado 767907" d="M204.951,140.3a2.692,2.692,0,1,0,2.691-2.614,2.653,2.653,0,0,0-2.691,2.614" fill="#375a64"/>
                  <path id="Trazado_767908" data-name="Trazado 767908" d="M197.068,140.3a2.692,2.692,0,1,0,2.691-2.614,2.653,2.653,0,0,0-2.691,2.614" fill="#375a64"/>
                  <path id="Trazado_767909" data-name="Trazado 767909" d="M189.186,140.3a2.692,2.692,0,1,0,2.691-2.614,2.653,2.653,0,0,0-2.691,2.614" fill="#375a64"/>
                  <path id="Trazado_767910" data-name="Trazado 767910" d="M181.3,140.3a2.692,2.692,0,1,0,2.691-2.614A2.653,2.653,0,0,0,181.3,140.3" fill="#375a64"/>
                  <path id="Trazado_767911" data-name="Trazado 767911" d="M173.42,140.3a2.692,2.692,0,1,0,2.691-2.614,2.653,2.653,0,0,0-2.691,2.614" fill="#375a64"/>
                  <path id="Trazado_767912" data-name="Trazado 767912" d="M86.71,140.3a2.692,2.692,0,1,0,2.691-2.614A2.653,2.653,0,0,0,86.71,140.3" fill="#375a64"/>
                  <path id="Trazado_767913" data-name="Trazado 767913" d="M78.827,140.3a2.692,2.692,0,1,0,2.691-2.614,2.653,2.653,0,0,0-2.691,2.614" fill="#375a64"/>
                  <path id="Trazado_767914" data-name="Trazado 767914" d="M70.944,140.3a2.692,2.692,0,1,0,2.691-2.614,2.653,2.653,0,0,0-2.691,2.614" fill="#375a64"/>
                  <path id="Trazado_767915" data-name="Trazado 767915" d="M63.062,140.3a2.692,2.692,0,1,0,2.691-2.614,2.653,2.653,0,0,0-2.691,2.614" fill="#375a64"/>
                  <path id="Trazado_767916" data-name="Trazado 767916" d="M55.179,140.3a2.692,2.692,0,1,0,2.691-2.614,2.653,2.653,0,0,0-2.691,2.614" fill="#375a64"/>
                  <path id="Trazado_767917" data-name="Trazado 767917" d="M307.427,132.524a2.692,2.692,0,1,0,2.69-2.614,2.653,2.653,0,0,0-2.69,2.614" fill="#375a64"/>
                  <path id="Trazado_767918" data-name="Trazado 767918" d="M299.544,132.524a2.692,2.692,0,1,0,2.691-2.614,2.653,2.653,0,0,0-2.691,2.614" fill="#375a64"/>
                  <path id="Trazado_767919" data-name="Trazado 767919" d="M291.661,132.524a2.692,2.692,0,1,0,2.691-2.614,2.653,2.653,0,0,0-2.691,2.614" fill="#375a64"/>
                  <path id="Trazado_767920" data-name="Trazado 767920" d="M283.778,132.524a2.692,2.692,0,1,0,2.691-2.614,2.653,2.653,0,0,0-2.691,2.614" fill="#375a64"/>
                  <path id="Trazado_767921" data-name="Trazado 767921" d="M275.895,132.524a2.692,2.692,0,1,0,2.691-2.614,2.653,2.653,0,0,0-2.691,2.614" fill="#375a64"/>
                  <path id="Trazado_767922" data-name="Trazado 767922" d="M268.013,132.524a2.692,2.692,0,1,0,2.691-2.614,2.653,2.653,0,0,0-2.691,2.614" fill="#375a64"/>
                  <path id="Trazado_767923" data-name="Trazado 767923" d="M260.13,132.524a2.692,2.692,0,1,0,2.691-2.614,2.653,2.653,0,0,0-2.691,2.614" fill="#375a64"/>
                  <path id="Trazado_767924" data-name="Trazado 767924" d="M252.247,132.524a2.692,2.692,0,1,0,2.691-2.614,2.653,2.653,0,0,0-2.691,2.614" fill="#375a64"/>
                  <path id="Trazado_767925" data-name="Trazado 767925" d="M244.365,132.524a2.692,2.692,0,1,0,2.691-2.614,2.653,2.653,0,0,0-2.691,2.614" fill="#375a64"/>
                  <path id="Trazado_767926" data-name="Trazado 767926" d="M228.6,132.524a2.692,2.692,0,1,0,2.691-2.614,2.653,2.653,0,0,0-2.691,2.614" fill="#375a64"/>
                  <path id="Trazado_767927" data-name="Trazado 767927" d="M220.717,132.524a2.692,2.692,0,1,0,2.691-2.614,2.653,2.653,0,0,0-2.691,2.614" fill="#375a64"/>
                  <path id="Trazado_767928" data-name="Trazado 767928" d="M212.834,132.524a2.692,2.692,0,1,0,2.691-2.614,2.653,2.653,0,0,0-2.691,2.614" fill="#375a64"/>
                  <path id="Trazado_767929" data-name="Trazado 767929" d="M204.951,132.524a2.692,2.692,0,1,0,2.691-2.614,2.653,2.653,0,0,0-2.691,2.614" fill="#375a64"/>
                  <path id="Trazado_767930" data-name="Trazado 767930" d="M197.068,132.524a2.692,2.692,0,1,0,2.691-2.614,2.653,2.653,0,0,0-2.691,2.614" fill="#375a64"/>
                  <path id="Trazado_767931" data-name="Trazado 767931" d="M181.3,132.524a2.692,2.692,0,1,0,2.691-2.614,2.653,2.653,0,0,0-2.691,2.614" fill="#375a64"/>
                  <path id="Trazado_767932" data-name="Trazado 767932" d="M173.42,132.524a2.692,2.692,0,1,0,2.691-2.614,2.653,2.653,0,0,0-2.691,2.614" fill="#375a64"/>
                  <path id="Trazado_767933" data-name="Trazado 767933" d="M94.593,132.524a2.692,2.692,0,1,0,2.691-2.614,2.653,2.653,0,0,0-2.691,2.614" fill="#375a64"/>
                  <path id="Trazado_767934" data-name="Trazado 767934" d="M86.71,132.524A2.692,2.692,0,1,0,89.4,129.91a2.653,2.653,0,0,0-2.691,2.614" fill="#375a64"/>
                  <path id="Trazado_767935" data-name="Trazado 767935" d="M78.827,132.524a2.692,2.692,0,1,0,2.691-2.614,2.653,2.653,0,0,0-2.691,2.614" fill="#375a64"/>
                  <path id="Trazado_767936" data-name="Trazado 767936" d="M70.944,132.524a2.692,2.692,0,1,0,2.691-2.614,2.653,2.653,0,0,0-2.691,2.614" fill="#375a64"/>
                  <path id="Trazado_767937" data-name="Trazado 767937" d="M63.062,132.524a2.692,2.692,0,1,0,2.691-2.614,2.653,2.653,0,0,0-2.691,2.614" fill="#375a64"/>
                  <path id="Trazado_767938" data-name="Trazado 767938" d="M55.179,132.524a2.692,2.692,0,1,0,2.691-2.614,2.653,2.653,0,0,0-2.691,2.614" fill="#375a64"/>
                  <path id="Trazado_767939" data-name="Trazado 767939" d="M47.3,132.524a2.692,2.692,0,1,0,2.691-2.614,2.653,2.653,0,0,0-2.691,2.614" fill="#375a64"/>
                  <path id="Trazado_767940" data-name="Trazado 767940" d="M338.957,124.75a2.692,2.692,0,1,0,2.691-2.614,2.653,2.653,0,0,0-2.691,2.614" fill="#375a64"/>
                  <path id="Trazado_767941" data-name="Trazado 767941" d="M323.192,124.75a2.692,2.692,0,1,0,2.69-2.614,2.652,2.652,0,0,0-2.69,2.614" fill="#375a64"/>
                  <path id="Trazado_767942" data-name="Trazado 767942" d="M315.309,124.75A2.692,2.692,0,1,0,318,122.136a2.653,2.653,0,0,0-2.691,2.614" fill="#375a64"/>
                  <path id="Trazado_767943" data-name="Trazado 767943" d="M307.427,124.75a2.692,2.692,0,1,0,2.69-2.614,2.653,2.653,0,0,0-2.69,2.614" fill="#375a64"/>
                  <path id="Trazado_767944" data-name="Trazado 767944" d="M299.544,124.75a2.692,2.692,0,1,0,2.691-2.614,2.653,2.653,0,0,0-2.691,2.614" fill="#375a64"/>
                  <path id="Trazado_767945" data-name="Trazado 767945" d="M291.661,124.75a2.692,2.692,0,1,0,2.691-2.614,2.653,2.653,0,0,0-2.691,2.614" fill="#375a64"/>
                  <path id="Trazado_767946" data-name="Trazado 767946" d="M283.778,124.75a2.692,2.692,0,1,0,2.691-2.614,2.653,2.653,0,0,0-2.691,2.614" fill="#375a64"/>
                  <path id="Trazado_767947" data-name="Trazado 767947" d="M275.895,124.75a2.692,2.692,0,1,0,2.691-2.614,2.653,2.653,0,0,0-2.691,2.614" fill="#375a64"/>
                  <path id="Trazado_767948" data-name="Trazado 767948" d="M268.013,124.75a2.692,2.692,0,1,0,2.691-2.614,2.653,2.653,0,0,0-2.691,2.614" fill="#375a64"/>
                  <path id="Trazado_767949" data-name="Trazado 767949" d="M260.13,124.75a2.692,2.692,0,1,0,2.691-2.614,2.653,2.653,0,0,0-2.691,2.614" fill="#375a64"/>
                  <path id="Trazado_767950" data-name="Trazado 767950" d="M252.247,124.75a2.692,2.692,0,1,0,2.691-2.614,2.653,2.653,0,0,0-2.691,2.614" fill="#375a64"/>
                  <path id="Trazado_767951" data-name="Trazado 767951" d="M244.365,124.75a2.692,2.692,0,1,0,2.691-2.614,2.653,2.653,0,0,0-2.691,2.614" fill="#375a64"/>
                  <path id="Trazado_767952" data-name="Trazado 767952" d="M236.482,124.75a2.692,2.692,0,1,0,2.691-2.614,2.653,2.653,0,0,0-2.691,2.614" fill="#375a64"/>
                  <path id="Trazado_767953" data-name="Trazado 767953" d="M228.6,124.75a2.692,2.692,0,1,0,2.691-2.614,2.653,2.653,0,0,0-2.691,2.614" fill="#375a64"/>
                  <path id="Trazado_767954" data-name="Trazado 767954" d="M204.951,124.75a2.692,2.692,0,1,0,2.691-2.614,2.653,2.653,0,0,0-2.691,2.614" fill="#375a64"/>
                  <path id="Trazado_767955" data-name="Trazado 767955" d="M197.068,124.75a2.692,2.692,0,1,0,2.691-2.614,2.653,2.653,0,0,0-2.691,2.614" fill="#375a64"/>
                  <path id="Trazado_767956" data-name="Trazado 767956" d="M189.186,124.75a2.692,2.692,0,1,0,2.691-2.614,2.653,2.653,0,0,0-2.691,2.614" fill="#375a64"/>
                  <path id="Trazado_767957" data-name="Trazado 767957" d="M181.3,124.75a2.692,2.692,0,1,0,2.691-2.614,2.653,2.653,0,0,0-2.691,2.614" fill="#375a64"/>
                  <path id="Trazado_767958" data-name="Trazado 767958" d="M173.42,124.75a2.692,2.692,0,1,0,2.691-2.614,2.653,2.653,0,0,0-2.691,2.614" fill="#375a64"/>
                  <path id="Trazado_767959" data-name="Trazado 767959" d="M110.358,124.75a2.692,2.692,0,1,0,2.691-2.614,2.653,2.653,0,0,0-2.691,2.614" fill="#375a64"/>
                  <path id="Trazado_767960" data-name="Trazado 767960" d="M102.475,124.75a2.692,2.692,0,1,0,2.691-2.614,2.653,2.653,0,0,0-2.691,2.614" fill="#375a64"/>
                  <path id="Trazado_767961" data-name="Trazado 767961" d="M94.593,124.75a2.692,2.692,0,1,0,2.691-2.614,2.653,2.653,0,0,0-2.691,2.614" fill="#375a64"/>
                  <path id="Trazado_767962" data-name="Trazado 767962" d="M86.71,124.75a2.692,2.692,0,1,0,2.691-2.614,2.653,2.653,0,0,0-2.691,2.614" fill="#375a64"/>
                  <path id="Trazado_767963" data-name="Trazado 767963" d="M78.827,124.75a2.692,2.692,0,1,0,2.691-2.614,2.653,2.653,0,0,0-2.691,2.614" fill="#375a64"/>
                  <path id="Trazado_767964" data-name="Trazado 767964" d="M70.944,124.75a2.692,2.692,0,1,0,2.691-2.614,2.653,2.653,0,0,0-2.691,2.614" fill="#375a64"/>
                  <path id="Trazado_767965" data-name="Trazado 767965" d="M63.062,124.75a2.692,2.692,0,1,0,2.691-2.614,2.653,2.653,0,0,0-2.691,2.614" fill="#375a64"/>
                  <path id="Trazado_767966" data-name="Trazado 767966" d="M55.179,124.75a2.692,2.692,0,1,0,2.691-2.614,2.653,2.653,0,0,0-2.691,2.614" fill="#375a64"/>
                  <path id="Trazado_767967" data-name="Trazado 767967" d="M47.3,124.75a2.692,2.692,0,1,0,2.691-2.614A2.653,2.653,0,0,0,47.3,124.75" fill="#375a64"/>
                  <path id="Trazado_767968" data-name="Trazado 767968" d="M338.957,116.976a2.692,2.692,0,1,0,2.691-2.614,2.654,2.654,0,0,0-2.691,2.614" fill="#375a64"/>
                  <path id="Trazado_767969" data-name="Trazado 767969" d="M331.075,116.976a2.692,2.692,0,1,0,2.691-2.614,2.654,2.654,0,0,0-2.691,2.614" fill="#375a64"/>
                  <path id="Trazado_767970" data-name="Trazado 767970" d="M323.192,116.976a2.692,2.692,0,1,0,2.69-2.614,2.653,2.653,0,0,0-2.69,2.614" fill="#375a64"/>
                  <path id="Trazado_767971" data-name="Trazado 767971" d="M315.309,116.976A2.692,2.692,0,1,0,318,114.362a2.654,2.654,0,0,0-2.691,2.614" fill="#375a64"/>
                  <path id="Trazado_767972" data-name="Trazado 767972" d="M307.427,116.976a2.692,2.692,0,1,0,2.69-2.614,2.654,2.654,0,0,0-2.69,2.614" fill="#375a64"/>
                  <path id="Trazado_767973" data-name="Trazado 767973" d="M299.544,116.976a2.692,2.692,0,1,0,2.691-2.614,2.654,2.654,0,0,0-2.691,2.614" fill="#375a64"/>
                  <path id="Trazado_767974" data-name="Trazado 767974" d="M291.661,116.976a2.692,2.692,0,1,0,2.691-2.614,2.654,2.654,0,0,0-2.691,2.614" fill="#375a64"/>
                  <path id="Trazado_767975" data-name="Trazado 767975" d="M283.778,116.976a2.692,2.692,0,1,0,2.691-2.614,2.654,2.654,0,0,0-2.691,2.614" fill="#375a64"/>
                  <path id="Trazado_767976" data-name="Trazado 767976" d="M275.895,116.976a2.692,2.692,0,1,0,2.691-2.614,2.654,2.654,0,0,0-2.691,2.614" fill="#375a64"/>
                  <path id="Trazado_767977" data-name="Trazado 767977" d="M268.013,116.976a2.692,2.692,0,1,0,2.691-2.614,2.654,2.654,0,0,0-2.691,2.614" fill="#375a64"/>
                  <path id="Trazado_767978" data-name="Trazado 767978" d="M260.13,116.976a2.692,2.692,0,1,0,2.691-2.614,2.654,2.654,0,0,0-2.691,2.614" fill="#375a64"/>
                  <path id="Trazado_767979" data-name="Trazado 767979" d="M252.247,116.976a2.692,2.692,0,1,0,2.691-2.614,2.654,2.654,0,0,0-2.691,2.614" fill="#375a64"/>
                  <path id="Trazado_767980" data-name="Trazado 767980" d="M244.365,116.976a2.692,2.692,0,1,0,2.691-2.614,2.654,2.654,0,0,0-2.691,2.614" fill="#375a64"/>
                  <path id="Trazado_767981" data-name="Trazado 767981" d="M236.482,116.976a2.692,2.692,0,1,0,2.691-2.614,2.654,2.654,0,0,0-2.691,2.614" fill="#375a64"/>
                  <path id="Trazado_767982" data-name="Trazado 767982" d="M228.6,116.976a2.692,2.692,0,1,0,2.691-2.614,2.653,2.653,0,0,0-2.691,2.614" fill="#375a64"/>
                  <path id="Trazado_767983" data-name="Trazado 767983" d="M220.717,116.976a2.692,2.692,0,1,0,2.691-2.614,2.653,2.653,0,0,0-2.691,2.614" fill="#375a64"/>
                  <path id="Trazado_767984" data-name="Trazado 767984" d="M212.834,116.976a2.692,2.692,0,1,0,2.691-2.614,2.654,2.654,0,0,0-2.691,2.614" fill="#375a64"/>
                  <path id="Trazado_767985" data-name="Trazado 767985" d="M204.951,116.976a2.692,2.692,0,1,0,2.691-2.614,2.654,2.654,0,0,0-2.691,2.614" fill="#375a64"/>
                  <path id="Trazado_767986" data-name="Trazado 767986" d="M197.068,116.976a2.692,2.692,0,1,0,2.691-2.614,2.654,2.654,0,0,0-2.691,2.614" fill="#375a64"/>
                  <path id="Trazado_767987" data-name="Trazado 767987" d="M189.186,116.976a2.692,2.692,0,1,0,2.691-2.614,2.654,2.654,0,0,0-2.691,2.614" fill="#375a64"/>
                  <path id="Trazado_767988" data-name="Trazado 767988" d="M181.3,116.976a2.692,2.692,0,1,0,2.691-2.614,2.654,2.654,0,0,0-2.691,2.614" fill="#375a64"/>
                  <path id="Trazado_767989" data-name="Trazado 767989" d="M118.241,116.976a2.692,2.692,0,1,0,2.691-2.614,2.654,2.654,0,0,0-2.691,2.614" fill="#375a64"/>
                  <path id="Trazado_767990" data-name="Trazado 767990" d="M110.358,116.976a2.692,2.692,0,1,0,2.691-2.614,2.654,2.654,0,0,0-2.691,2.614" fill="#375a64"/>
                  <path id="Trazado_767991" data-name="Trazado 767991" d="M102.475,116.976a2.692,2.692,0,1,0,2.691-2.614,2.654,2.654,0,0,0-2.691,2.614" fill="#375a64"/>
                  <path id="Trazado_767992" data-name="Trazado 767992" d="M94.593,116.976a2.692,2.692,0,1,0,2.691-2.614,2.654,2.654,0,0,0-2.691,2.614" fill="#375a64"/>
                  <path id="Trazado_767993" data-name="Trazado 767993" d="M86.71,116.976a2.692,2.692,0,1,0,2.691-2.614,2.654,2.654,0,0,0-2.691,2.614" fill="#375a64"/>
                  <path id="Trazado_767994" data-name="Trazado 767994" d="M78.827,116.976a2.692,2.692,0,1,0,2.691-2.614,2.654,2.654,0,0,0-2.691,2.614" fill="#375a64"/>
                  <path id="Trazado_767995" data-name="Trazado 767995" d="M70.944,116.976a2.692,2.692,0,1,0,2.691-2.614,2.654,2.654,0,0,0-2.691,2.614" fill="#375a64"/>
                  <path id="Trazado_767996" data-name="Trazado 767996" d="M63.062,116.976a2.692,2.692,0,1,0,2.691-2.614,2.654,2.654,0,0,0-2.691,2.614" fill="#375a64"/>
                  <path id="Trazado_767997" data-name="Trazado 767997" d="M55.179,116.976a2.692,2.692,0,1,0,2.691-2.614,2.654,2.654,0,0,0-2.691,2.614" fill="#375a64"/>
                  <path id="Trazado_767998" data-name="Trazado 767998" d="M47.3,116.976a2.692,2.692,0,1,0,2.691-2.614,2.654,2.654,0,0,0-2.691,2.614" fill="#375a64"/>
                  <path id="Trazado_767999" data-name="Trazado 767999" d="M354.723,109.2a2.692,2.692,0,1,0,2.691-2.614,2.653,2.653,0,0,0-2.691,2.614" fill="#375a64"/>
                  <path id="Trazado_768000" data-name="Trazado 768000" d="M323.192,109.2a2.692,2.692,0,1,0,2.69-2.614,2.652,2.652,0,0,0-2.69,2.614" fill="#375a64"/>
                  <path id="Trazado_768001" data-name="Trazado 768001" d="M315.309,109.2A2.692,2.692,0,1,0,318,106.588a2.653,2.653,0,0,0-2.691,2.614" fill="#375a64"/>
                  <path id="Trazado_768002" data-name="Trazado 768002" d="M307.427,109.2a2.692,2.692,0,1,0,2.69-2.614,2.653,2.653,0,0,0-2.69,2.614" fill="#375a64"/>
                  <path id="Trazado_768003" data-name="Trazado 768003" d="M299.544,109.2a2.692,2.692,0,1,0,2.691-2.614,2.653,2.653,0,0,0-2.691,2.614" fill="#375a64"/>
                  <path id="Trazado_768004" data-name="Trazado 768004" d="M291.661,109.2a2.692,2.692,0,1,0,2.691-2.614,2.653,2.653,0,0,0-2.691,2.614" fill="#375a64"/>
                  <path id="Trazado_768005" data-name="Trazado 768005" d="M283.778,109.2a2.692,2.692,0,1,0,2.691-2.614,2.653,2.653,0,0,0-2.691,2.614" fill="#375a64"/>
                  <path id="Trazado_768006" data-name="Trazado 768006" d="M275.895,109.2a2.692,2.692,0,1,0,2.691-2.614,2.653,2.653,0,0,0-2.691,2.614" fill="#375a64"/>
                  <path id="Trazado_768007" data-name="Trazado 768007" d="M268.013,109.2a2.692,2.692,0,1,0,2.691-2.614,2.653,2.653,0,0,0-2.691,2.614" fill="#375a64"/>
                  <path id="Trazado_768008" data-name="Trazado 768008" d="M260.13,109.2a2.692,2.692,0,1,0,2.691-2.614,2.653,2.653,0,0,0-2.691,2.614" fill="#375a64"/>
                  <path id="Trazado_768009" data-name="Trazado 768009" d="M252.247,109.2a2.692,2.692,0,1,0,2.691-2.614,2.653,2.653,0,0,0-2.691,2.614" fill="#375a64"/>
                  <path id="Trazado_768010" data-name="Trazado 768010" d="M244.365,109.2a2.692,2.692,0,1,0,2.691-2.614,2.653,2.653,0,0,0-2.691,2.614" fill="#375a64"/>
                  <path id="Trazado_768011" data-name="Trazado 768011" d="M236.482,109.2a2.692,2.692,0,1,0,2.691-2.614,2.653,2.653,0,0,0-2.691,2.614" fill="#375a64"/>
                  <path id="Trazado_768012" data-name="Trazado 768012" d="M228.6,109.2a2.692,2.692,0,1,0,2.691-2.614A2.653,2.653,0,0,0,228.6,109.2" fill="#375a64"/>
                  <path id="Trazado_768013" data-name="Trazado 768013" d="M220.717,109.2a2.692,2.692,0,1,0,2.691-2.614,2.653,2.653,0,0,0-2.691,2.614" fill="#375a64"/>
                  <path id="Trazado_768014" data-name="Trazado 768014" d="M212.834,109.2a2.692,2.692,0,1,0,2.691-2.614,2.653,2.653,0,0,0-2.691,2.614" fill="#375a64"/>
                  <path id="Trazado_768015" data-name="Trazado 768015" d="M204.951,109.2a2.692,2.692,0,1,0,2.691-2.614,2.653,2.653,0,0,0-2.691,2.614" fill="#375a64"/>
                  <path id="Trazado_768016" data-name="Trazado 768016" d="M197.068,109.2a2.692,2.692,0,1,0,2.691-2.614,2.653,2.653,0,0,0-2.691,2.614" fill="#375a64"/>
                  <path id="Trazado_768017" data-name="Trazado 768017" d="M181.3,109.2a2.692,2.692,0,1,0,2.691-2.614A2.653,2.653,0,0,0,181.3,109.2" fill="#375a64"/>
                  <path id="Trazado_768018" data-name="Trazado 768018" d="M173.42,109.2a2.692,2.692,0,1,0,2.691-2.614,2.653,2.653,0,0,0-2.691,2.614" fill="#375a64"/>
                  <path id="Trazado_768019" data-name="Trazado 768019" d="M118.241,109.2a2.692,2.692,0,1,0,2.691-2.614,2.653,2.653,0,0,0-2.691,2.614" fill="#375a64"/>
                  <path id="Trazado_768020" data-name="Trazado 768020" d="M110.358,109.2a2.692,2.692,0,1,0,2.691-2.614,2.653,2.653,0,0,0-2.691,2.614" fill="#375a64"/>
                  <path id="Trazado_768021" data-name="Trazado 768021" d="M102.475,109.2a2.692,2.692,0,1,0,2.691-2.614,2.653,2.653,0,0,0-2.691,2.614" fill="#375a64"/>
                  <path id="Trazado_768022" data-name="Trazado 768022" d="M94.593,109.2a2.692,2.692,0,1,0,2.691-2.614,2.653,2.653,0,0,0-2.691,2.614" fill="#375a64"/>
                  <path id="Trazado_768023" data-name="Trazado 768023" d="M86.71,109.2a2.692,2.692,0,1,0,2.691-2.614A2.653,2.653,0,0,0,86.71,109.2" fill="#375a64"/>
                  <path id="Trazado_768024" data-name="Trazado 768024" d="M78.827,109.2a2.692,2.692,0,1,0,2.691-2.614,2.653,2.653,0,0,0-2.691,2.614" fill="#375a64"/>
                  <path id="Trazado_768025" data-name="Trazado 768025" d="M70.944,109.2a2.692,2.692,0,1,0,2.691-2.614,2.653,2.653,0,0,0-2.691,2.614" fill="#375a64"/>
                  <path id="Trazado_768026" data-name="Trazado 768026" d="M63.062,109.2a2.692,2.692,0,1,0,2.691-2.614,2.653,2.653,0,0,0-2.691,2.614" fill="#375a64"/>
                  <path id="Trazado_768027" data-name="Trazado 768027" d="M55.179,109.2a2.692,2.692,0,1,0,2.691-2.614,2.653,2.653,0,0,0-2.691,2.614" fill="#375a64"/>
                  <path id="Trazado_768028" data-name="Trazado 768028" d="M47.3,109.2a2.692,2.692,0,1,0,2.691-2.614A2.653,2.653,0,0,0,47.3,109.2" fill="#375a64"/>
                  <path id="Trazado_768029" data-name="Trazado 768029" d="M39.414,109.2a2.692,2.692,0,1,0,2.691-2.614,2.653,2.653,0,0,0-2.691,2.614" fill="#375a64"/>
                  <path id="Trazado_768030" data-name="Trazado 768030" d="M0,109.2a2.653,2.653,0,0,0,2.691,2.614,2.615,2.615,0,1,0,0-5.228A2.653,2.653,0,0,0,0,109.2" fill="#375a64"/>
                  <path id="Trazado_768031" data-name="Trazado 768031" d="M362.606,101.428a2.692,2.692,0,1,0,2.691-2.614,2.653,2.653,0,0,0-2.691,2.614" fill="#375a64"/>
                  <path id="Trazado_768032" data-name="Trazado 768032" d="M346.84,101.428a2.692,2.692,0,1,0,2.691-2.614,2.653,2.653,0,0,0-2.691,2.614" fill="#375a64"/>
                  <path id="Trazado_768033" data-name="Trazado 768033" d="M338.957,101.428a2.692,2.692,0,1,0,2.691-2.614,2.653,2.653,0,0,0-2.691,2.614" fill="#375a64"/>
                  <path id="Trazado_768034" data-name="Trazado 768034" d="M331.075,101.428a2.692,2.692,0,1,0,2.691-2.614,2.653,2.653,0,0,0-2.691,2.614" fill="#375a64"/>
                  <path id="Trazado_768035" data-name="Trazado 768035" d="M323.192,101.428a2.692,2.692,0,1,0,2.69-2.614,2.652,2.652,0,0,0-2.69,2.614" fill="#375a64"/>
                  <path id="Trazado_768036" data-name="Trazado 768036" d="M315.309,101.428A2.692,2.692,0,1,0,318,98.814a2.653,2.653,0,0,0-2.691,2.614" fill="#375a64"/>
                  <path id="Trazado_768037" data-name="Trazado 768037" d="M307.427,101.428a2.692,2.692,0,1,0,2.69-2.614,2.653,2.653,0,0,0-2.69,2.614" fill="#375a64"/>
                  <path id="Trazado_768038" data-name="Trazado 768038" d="M299.544,101.428a2.692,2.692,0,1,0,2.691-2.614,2.653,2.653,0,0,0-2.691,2.614" fill="#375a64"/>
                  <path id="Trazado_768039" data-name="Trazado 768039" d="M291.661,101.428a2.692,2.692,0,1,0,2.691-2.614,2.653,2.653,0,0,0-2.691,2.614" fill="#375a64"/>
                  <path id="Trazado_768040" data-name="Trazado 768040" d="M283.778,101.428a2.692,2.692,0,1,0,2.691-2.614,2.653,2.653,0,0,0-2.691,2.614" fill="#375a64"/>
                  <path id="Trazado_768041" data-name="Trazado 768041" d="M275.895,101.428a2.692,2.692,0,1,0,2.691-2.614,2.653,2.653,0,0,0-2.691,2.614" fill="#375a64"/>
                  <path id="Trazado_768042" data-name="Trazado 768042" d="M268.013,101.428a2.692,2.692,0,1,0,2.691-2.614,2.653,2.653,0,0,0-2.691,2.614" fill="#375a64"/>
                  <path id="Trazado_768043" data-name="Trazado 768043" d="M260.13,101.428a2.692,2.692,0,1,0,2.691-2.614,2.653,2.653,0,0,0-2.691,2.614" fill="#375a64"/>
                  <path id="Trazado_768044" data-name="Trazado 768044" d="M252.247,101.428a2.692,2.692,0,1,0,2.691-2.614,2.653,2.653,0,0,0-2.691,2.614" fill="#375a64"/>
                  <path id="Trazado_768045" data-name="Trazado 768045" d="M244.365,101.428a2.692,2.692,0,1,0,2.691-2.614,2.653,2.653,0,0,0-2.691,2.614" fill="#375a64"/>
                  <path id="Trazado_768046" data-name="Trazado 768046" d="M236.482,101.428a2.692,2.692,0,1,0,2.691-2.614,2.653,2.653,0,0,0-2.691,2.614" fill="#375a64"/>
                  <path id="Trazado_768047" data-name="Trazado 768047" d="M228.6,101.428a2.692,2.692,0,1,0,2.691-2.614,2.653,2.653,0,0,0-2.691,2.614" fill="#375a64"/>
                  <path id="Trazado_768048" data-name="Trazado 768048" d="M220.717,101.428a2.692,2.692,0,1,0,2.691-2.614,2.653,2.653,0,0,0-2.691,2.614" fill="#375a64"/>
                  <path id="Trazado_768049" data-name="Trazado 768049" d="M212.834,101.428a2.692,2.692,0,1,0,2.691-2.614,2.653,2.653,0,0,0-2.691,2.614" fill="#375a64"/>
                  <path id="Trazado_768050" data-name="Trazado 768050" d="M197.068,101.428a2.692,2.692,0,1,0,2.691-2.614,2.653,2.653,0,0,0-2.691,2.614" fill="#375a64"/>
                  <path id="Trazado_768051" data-name="Trazado 768051" d="M189.186,101.428a2.692,2.692,0,1,0,2.691-2.614,2.653,2.653,0,0,0-2.691,2.614" fill="#375a64"/>
                  <path id="Trazado_768052" data-name="Trazado 768052" d="M134.007,101.428a2.692,2.692,0,1,0,2.69-2.614,2.652,2.652,0,0,0-2.69,2.614" fill="#375a64"/>
                  <path id="Trazado_768053" data-name="Trazado 768053" d="M110.358,101.428a2.692,2.692,0,1,0,2.691-2.614,2.653,2.653,0,0,0-2.691,2.614" fill="#375a64"/>
                  <path id="Trazado_768054" data-name="Trazado 768054" d="M102.475,101.428a2.692,2.692,0,1,0,2.691-2.614,2.653,2.653,0,0,0-2.691,2.614" fill="#375a64"/>
                  <path id="Trazado_768055" data-name="Trazado 768055" d="M94.593,101.428a2.692,2.692,0,1,0,2.691-2.614,2.653,2.653,0,0,0-2.691,2.614" fill="#375a64"/>
                  <path id="Trazado_768056" data-name="Trazado 768056" d="M70.944,101.428a2.692,2.692,0,1,0,2.691-2.614,2.653,2.653,0,0,0-2.691,2.614" fill="#375a64"/>
                  <path id="Trazado_768057" data-name="Trazado 768057" d="M63.062,101.428a2.692,2.692,0,1,0,2.691-2.614,2.653,2.653,0,0,0-2.691,2.614" fill="#375a64"/>
                  <path id="Trazado_768058" data-name="Trazado 768058" d="M55.179,101.428a2.692,2.692,0,1,0,2.691-2.614,2.653,2.653,0,0,0-2.691,2.614" fill="#375a64"/>
                  <path id="Trazado_768059" data-name="Trazado 768059" d="M47.3,101.428a2.692,2.692,0,1,0,2.691-2.614,2.653,2.653,0,0,0-2.691,2.614" fill="#375a64"/>
                  <path id="Trazado_768060" data-name="Trazado 768060" d="M39.414,101.428A2.692,2.692,0,1,0,42.1,98.814a2.653,2.653,0,0,0-2.691,2.614" fill="#375a64"/>
                  <path id="Trazado_768061" data-name="Trazado 768061" d="M31.531,101.428a2.692,2.692,0,1,0,2.691-2.614,2.653,2.653,0,0,0-2.691,2.614" fill="#375a64"/>
                  <path id="Trazado_768062" data-name="Trazado 768062" d="M23.648,101.428a2.692,2.692,0,1,0,2.691-2.614,2.653,2.653,0,0,0-2.691,2.614" fill="#375a64"/>
                  <path id="Trazado_768063" data-name="Trazado 768063" d="M15.765,101.428a2.692,2.692,0,1,0,2.691-2.614,2.653,2.653,0,0,0-2.691,2.614" fill="#375a64"/>
                  <path id="Trazado_768064" data-name="Trazado 768064" d="M7.883,101.428a2.692,2.692,0,1,0,2.691-2.614,2.653,2.653,0,0,0-2.691,2.614" fill="#375a64"/>
                  <path id="Trazado_768065" data-name="Trazado 768065" d="M0,101.428a2.653,2.653,0,0,0,2.691,2.614,2.615,2.615,0,1,0,0-5.228A2.653,2.653,0,0,0,0,101.428" fill="#375a64"/>
                  <path id="Trazado_768066" data-name="Trazado 768066" d="M386.254,93.654a2.692,2.692,0,1,0,2.691-2.614,2.653,2.653,0,0,0-2.691,2.614" fill="#375a64"/>
                  <path id="Trazado_768067" data-name="Trazado 768067" d="M370.488,93.654a2.692,2.692,0,1,0,2.691-2.614,2.653,2.653,0,0,0-2.691,2.614" fill="#375a64"/>
                  <path id="Trazado_768068" data-name="Trazado 768068" d="M362.606,93.654A2.692,2.692,0,1,0,365.3,91.04a2.653,2.653,0,0,0-2.691,2.614" fill="#375a64"/>
                  <path id="Trazado_768069" data-name="Trazado 768069" d="M354.723,93.654a2.692,2.692,0,1,0,2.691-2.614,2.653,2.653,0,0,0-2.691,2.614" fill="#375a64"/>
                  <path id="Trazado_768070" data-name="Trazado 768070" d="M346.84,93.654a2.692,2.692,0,1,0,2.691-2.614,2.653,2.653,0,0,0-2.691,2.614" fill="#375a64"/>
                  <path id="Trazado_768071" data-name="Trazado 768071" d="M338.957,93.654a2.692,2.692,0,1,0,2.691-2.614,2.653,2.653,0,0,0-2.691,2.614" fill="#375a64"/>
                  <path id="Trazado_768072" data-name="Trazado 768072" d="M331.075,93.654a2.692,2.692,0,1,0,2.691-2.614,2.653,2.653,0,0,0-2.691,2.614" fill="#375a64"/>
                  <path id="Trazado_768073" data-name="Trazado 768073" d="M323.192,93.654a2.692,2.692,0,1,0,2.69-2.614,2.652,2.652,0,0,0-2.69,2.614" fill="#375a64"/>
                  <path id="Trazado_768074" data-name="Trazado 768074" d="M315.309,93.654A2.692,2.692,0,1,0,318,91.04a2.653,2.653,0,0,0-2.691,2.614" fill="#375a64"/>
                  <path id="Trazado_768075" data-name="Trazado 768075" d="M307.427,93.654a2.692,2.692,0,1,0,2.69-2.614,2.653,2.653,0,0,0-2.69,2.614" fill="#375a64"/>
                  <path id="Trazado_768076" data-name="Trazado 768076" d="M299.544,93.654a2.692,2.692,0,1,0,2.691-2.614,2.653,2.653,0,0,0-2.691,2.614" fill="#375a64"/>
                  <path id="Trazado_768077" data-name="Trazado 768077" d="M291.661,93.654a2.692,2.692,0,1,0,2.691-2.614,2.653,2.653,0,0,0-2.691,2.614" fill="#375a64"/>
                  <path id="Trazado_768078" data-name="Trazado 768078" d="M283.778,93.654a2.692,2.692,0,1,0,2.691-2.614,2.653,2.653,0,0,0-2.691,2.614" fill="#375a64"/>
                  <path id="Trazado_768079" data-name="Trazado 768079" d="M275.895,93.654a2.692,2.692,0,1,0,2.691-2.614,2.653,2.653,0,0,0-2.691,2.614" fill="#375a64"/>
                  <path id="Trazado_768080" data-name="Trazado 768080" d="M268.013,93.654A2.692,2.692,0,1,0,270.7,91.04a2.653,2.653,0,0,0-2.691,2.614" fill="#375a64"/>
                  <path id="Trazado_768081" data-name="Trazado 768081" d="M260.13,93.654a2.692,2.692,0,1,0,2.691-2.614,2.653,2.653,0,0,0-2.691,2.614" fill="#375a64"/>
                  <path id="Trazado_768082" data-name="Trazado 768082" d="M252.247,93.654a2.692,2.692,0,1,0,2.691-2.614,2.653,2.653,0,0,0-2.691,2.614" fill="#375a64"/>
                  <path id="Trazado_768083" data-name="Trazado 768083" d="M244.365,93.654a2.692,2.692,0,1,0,2.691-2.614,2.653,2.653,0,0,0-2.691,2.614" fill="#375a64"/>
                  <path id="Trazado_768084" data-name="Trazado 768084" d="M236.482,93.654a2.692,2.692,0,1,0,2.691-2.614,2.653,2.653,0,0,0-2.691,2.614" fill="#375a64"/>
                  <path id="Trazado_768085" data-name="Trazado 768085" d="M228.6,93.654a2.692,2.692,0,1,0,2.691-2.614,2.653,2.653,0,0,0-2.691,2.614" fill="#375a64"/>
                  <path id="Trazado_768086" data-name="Trazado 768086" d="M220.717,93.654a2.692,2.692,0,1,0,2.691-2.614,2.653,2.653,0,0,0-2.691,2.614" fill="#375a64"/>
                  <path id="Trazado_768087" data-name="Trazado 768087" d="M212.834,93.654a2.692,2.692,0,1,0,2.691-2.614,2.653,2.653,0,0,0-2.691,2.614" fill="#375a64"/>
                  <path id="Trazado_768088" data-name="Trazado 768088" d="M204.951,93.654a2.692,2.692,0,1,0,2.691-2.614,2.653,2.653,0,0,0-2.691,2.614" fill="#375a64"/>
                  <path id="Trazado_768089" data-name="Trazado 768089" d="M197.068,93.654a2.692,2.692,0,1,0,2.691-2.614,2.653,2.653,0,0,0-2.691,2.614" fill="#375a64"/>
                  <path id="Trazado_768090" data-name="Trazado 768090" d="M165.537,93.654a2.692,2.692,0,1,0,2.691-2.614,2.653,2.653,0,0,0-2.691,2.614" fill="#375a64"/>
                  <path id="Trazado_768091" data-name="Trazado 768091" d="M157.655,93.654a2.692,2.692,0,1,0,2.691-2.614,2.653,2.653,0,0,0-2.691,2.614" fill="#375a64"/>
                  <path id="Trazado_768092" data-name="Trazado 768092" d="M134.007,93.654a2.692,2.692,0,1,0,2.69-2.614,2.652,2.652,0,0,0-2.69,2.614" fill="#375a64"/>
                  <path id="Trazado_768093" data-name="Trazado 768093" d="M126.124,93.654a2.692,2.692,0,1,0,2.691-2.614,2.653,2.653,0,0,0-2.691,2.614" fill="#375a64"/>
                  <path id="Trazado_768094" data-name="Trazado 768094" d="M102.475,93.654a2.692,2.692,0,1,0,2.691-2.614,2.653,2.653,0,0,0-2.691,2.614" fill="#375a64"/>
                  <path id="Trazado_768095" data-name="Trazado 768095" d="M94.593,93.654a2.692,2.692,0,1,0,2.691-2.614,2.653,2.653,0,0,0-2.691,2.614" fill="#375a64"/>
                  <path id="Trazado_768096" data-name="Trazado 768096" d="M86.71,93.654A2.692,2.692,0,1,0,89.4,91.04a2.653,2.653,0,0,0-2.691,2.614" fill="#375a64"/>
                  <path id="Trazado_768097" data-name="Trazado 768097" d="M78.827,93.654a2.692,2.692,0,1,0,2.691-2.614,2.653,2.653,0,0,0-2.691,2.614" fill="#375a64"/>
                  <path id="Trazado_768098" data-name="Trazado 768098" d="M70.944,93.654a2.692,2.692,0,1,0,2.691-2.614,2.653,2.653,0,0,0-2.691,2.614" fill="#375a64"/>
                  <path id="Trazado_768099" data-name="Trazado 768099" d="M63.062,93.654a2.692,2.692,0,1,0,2.691-2.614,2.653,2.653,0,0,0-2.691,2.614" fill="#375a64"/>
                  <path id="Trazado_768100" data-name="Trazado 768100" d="M55.179,93.654A2.692,2.692,0,1,0,57.87,91.04a2.653,2.653,0,0,0-2.691,2.614" fill="#375a64"/>
                  <path id="Trazado_768101" data-name="Trazado 768101" d="M47.3,93.654a2.692,2.692,0,1,0,2.691-2.614A2.653,2.653,0,0,0,47.3,93.654" fill="#375a64"/>
                  <path id="Trazado_768102" data-name="Trazado 768102" d="M39.414,93.654A2.692,2.692,0,1,0,42.1,91.04a2.653,2.653,0,0,0-2.691,2.614" fill="#375a64"/>
                  <path id="Trazado_768103" data-name="Trazado 768103" d="M31.531,93.654a2.692,2.692,0,1,0,2.691-2.614,2.653,2.653,0,0,0-2.691,2.614" fill="#375a64"/>
                  <path id="Trazado_768104" data-name="Trazado 768104" d="M23.648,93.654a2.692,2.692,0,1,0,2.691-2.614,2.653,2.653,0,0,0-2.691,2.614" fill="#375a64"/>
                  <path id="Trazado_768105" data-name="Trazado 768105" d="M15.765,93.654a2.692,2.692,0,1,0,2.691-2.614,2.653,2.653,0,0,0-2.691,2.614" fill="#375a64"/>
                  <path id="Trazado_768106" data-name="Trazado 768106" d="M7.883,93.654a2.692,2.692,0,1,0,2.691-2.614,2.653,2.653,0,0,0-2.691,2.614" fill="#375a64"/>
                  <path id="Trazado_768107" data-name="Trazado 768107" d="M0,93.654a2.653,2.653,0,0,0,2.691,2.614,2.615,2.615,0,1,0,0-5.228A2.653,2.653,0,0,0,0,93.654" fill="#375a64"/>
                  <path id="Trazado_768108" data-name="Trazado 768108" d="M378.371,85.88a2.692,2.692,0,1,0,2.691-2.614,2.652,2.652,0,0,0-2.691,2.614" fill="#375a64"/>
                  <path id="Trazado_768109" data-name="Trazado 768109" d="M370.488,85.88a2.692,2.692,0,1,0,2.691-2.614,2.652,2.652,0,0,0-2.691,2.614" fill="#375a64"/>
                  <path id="Trazado_768110" data-name="Trazado 768110" d="M362.606,85.88a2.692,2.692,0,1,0,2.691-2.614,2.652,2.652,0,0,0-2.691,2.614" fill="#375a64"/>
                  <path id="Trazado_768111" data-name="Trazado 768111" d="M354.723,85.88a2.692,2.692,0,1,0,2.691-2.614,2.652,2.652,0,0,0-2.691,2.614" fill="#375a64"/>
                  <path id="Trazado_768112" data-name="Trazado 768112" d="M346.84,85.88a2.692,2.692,0,1,0,2.691-2.614,2.652,2.652,0,0,0-2.691,2.614" fill="#375a64"/>
                  <path id="Trazado_768113" data-name="Trazado 768113" d="M338.957,85.88a2.692,2.692,0,1,0,2.691-2.614,2.652,2.652,0,0,0-2.691,2.614" fill="#375a64"/>
                  <path id="Trazado_768114" data-name="Trazado 768114" d="M331.075,85.88a2.692,2.692,0,1,0,2.691-2.614,2.652,2.652,0,0,0-2.691,2.614" fill="#375a64"/>
                  <path id="Trazado_768115" data-name="Trazado 768115" d="M323.192,85.88a2.692,2.692,0,1,0,2.69-2.614,2.652,2.652,0,0,0-2.69,2.614" fill="#375a64"/>
                  <path id="Trazado_768116" data-name="Trazado 768116" d="M315.309,85.88A2.692,2.692,0,1,0,318,83.266a2.652,2.652,0,0,0-2.691,2.614" fill="#375a64"/>
                  <path id="Trazado_768117" data-name="Trazado 768117" d="M307.427,85.88a2.692,2.692,0,1,0,2.69-2.614,2.652,2.652,0,0,0-2.69,2.614" fill="#375a64"/>
                  <path id="Trazado_768118" data-name="Trazado 768118" d="M299.544,85.88a2.692,2.692,0,1,0,2.691-2.614,2.652,2.652,0,0,0-2.691,2.614" fill="#375a64"/>
                  <path id="Trazado_768119" data-name="Trazado 768119" d="M291.661,85.88a2.692,2.692,0,1,0,2.691-2.614,2.652,2.652,0,0,0-2.691,2.614" fill="#375a64"/>
                  <path id="Trazado_768120" data-name="Trazado 768120" d="M283.778,85.88a2.692,2.692,0,1,0,2.691-2.614,2.652,2.652,0,0,0-2.691,2.614" fill="#375a64"/>
                  <path id="Trazado_768121" data-name="Trazado 768121" d="M275.895,85.88a2.692,2.692,0,1,0,2.691-2.614,2.652,2.652,0,0,0-2.691,2.614" fill="#375a64"/>
                  <path id="Trazado_768122" data-name="Trazado 768122" d="M268.013,85.88a2.692,2.692,0,1,0,2.691-2.614,2.652,2.652,0,0,0-2.691,2.614" fill="#375a64"/>
                  <path id="Trazado_768123" data-name="Trazado 768123" d="M260.13,85.88a2.692,2.692,0,1,0,2.691-2.614,2.652,2.652,0,0,0-2.691,2.614" fill="#375a64"/>
                  <path id="Trazado_768124" data-name="Trazado 768124" d="M252.247,85.88a2.692,2.692,0,1,0,2.691-2.614,2.652,2.652,0,0,0-2.691,2.614" fill="#375a64"/>
                  <path id="Trazado_768125" data-name="Trazado 768125" d="M244.365,85.88a2.692,2.692,0,1,0,2.691-2.614,2.652,2.652,0,0,0-2.691,2.614" fill="#375a64"/>
                  <path id="Trazado_768126" data-name="Trazado 768126" d="M236.482,85.88a2.692,2.692,0,1,0,2.691-2.614,2.652,2.652,0,0,0-2.691,2.614" fill="#375a64"/>
                  <path id="Trazado_768127" data-name="Trazado 768127" d="M228.6,85.88a2.692,2.692,0,1,0,2.691-2.614A2.652,2.652,0,0,0,228.6,85.88" fill="#375a64"/>
                  <path id="Trazado_768128" data-name="Trazado 768128" d="M220.717,85.88a2.692,2.692,0,1,0,2.691-2.614,2.652,2.652,0,0,0-2.691,2.614" fill="#375a64"/>
                  <path id="Trazado_768129" data-name="Trazado 768129" d="M212.834,85.88a2.692,2.692,0,1,0,2.691-2.614,2.652,2.652,0,0,0-2.691,2.614" fill="#375a64"/>
                  <path id="Trazado_768130" data-name="Trazado 768130" d="M204.951,85.88a2.692,2.692,0,1,0,2.691-2.614,2.652,2.652,0,0,0-2.691,2.614" fill="#375a64"/>
                  <path id="Trazado_768131" data-name="Trazado 768131" d="M197.068,85.88a2.692,2.692,0,1,0,2.691-2.614,2.652,2.652,0,0,0-2.691,2.614" fill="#375a64"/>
                  <path id="Trazado_768132" data-name="Trazado 768132" d="M149.772,85.88a2.692,2.692,0,1,0,2.691-2.614,2.652,2.652,0,0,0-2.691,2.614" fill="#375a64"/>
                  <path id="Trazado_768133" data-name="Trazado 768133" d="M141.889,85.88a2.692,2.692,0,1,0,2.691-2.614,2.652,2.652,0,0,0-2.691,2.614" fill="#375a64"/>
                  <path id="Trazado_768134" data-name="Trazado 768134" d="M134.007,85.88a2.692,2.692,0,1,0,2.69-2.614,2.652,2.652,0,0,0-2.69,2.614" fill="#375a64"/>
                  <path id="Trazado_768135" data-name="Trazado 768135" d="M126.124,85.88a2.692,2.692,0,1,0,2.691-2.614,2.652,2.652,0,0,0-2.691,2.614" fill="#375a64"/>
                  <path id="Trazado_768136" data-name="Trazado 768136" d="M102.475,85.88a2.692,2.692,0,1,0,2.691-2.614,2.652,2.652,0,0,0-2.691,2.614" fill="#375a64"/>
                  <path id="Trazado_768137" data-name="Trazado 768137" d="M86.71,85.88A2.692,2.692,0,1,0,89.4,83.266,2.652,2.652,0,0,0,86.71,85.88" fill="#375a64"/>
                  <path id="Trazado_768138" data-name="Trazado 768138" d="M78.827,85.88a2.692,2.692,0,1,0,2.691-2.614,2.652,2.652,0,0,0-2.691,2.614" fill="#375a64"/>
                  <path id="Trazado_768139" data-name="Trazado 768139" d="M63.062,85.88a2.692,2.692,0,1,0,2.691-2.614,2.652,2.652,0,0,0-2.691,2.614" fill="#375a64"/>
                  <path id="Trazado_768140" data-name="Trazado 768140" d="M55.179,85.88a2.692,2.692,0,1,0,2.691-2.614,2.652,2.652,0,0,0-2.691,2.614" fill="#375a64"/>
                  <path id="Trazado_768141" data-name="Trazado 768141" d="M47.3,85.88a2.692,2.692,0,1,0,2.691-2.614A2.652,2.652,0,0,0,47.3,85.88" fill="#375a64"/>
                  <path id="Trazado_768142" data-name="Trazado 768142" d="M39.414,85.88A2.692,2.692,0,1,0,42.1,83.266a2.652,2.652,0,0,0-2.691,2.614" fill="#375a64"/>
                  <path id="Trazado_768143" data-name="Trazado 768143" d="M31.531,85.88a2.692,2.692,0,1,0,2.691-2.614,2.652,2.652,0,0,0-2.691,2.614" fill="#375a64"/>
                  <path id="Trazado_768144" data-name="Trazado 768144" d="M23.648,85.88a2.692,2.692,0,1,0,2.691-2.614,2.652,2.652,0,0,0-2.691,2.614" fill="#375a64"/>
                  <path id="Trazado_768145" data-name="Trazado 768145" d="M15.765,85.88a2.692,2.692,0,1,0,2.691-2.614,2.652,2.652,0,0,0-2.691,2.614" fill="#375a64"/>
                  <path id="Trazado_768146" data-name="Trazado 768146" d="M7.883,85.88a2.692,2.692,0,1,0,2.691-2.614A2.652,2.652,0,0,0,7.883,85.88" fill="#375a64"/>
                  <path id="Trazado_768147" data-name="Trazado 768147" d="M0,85.88a2.652,2.652,0,0,0,2.691,2.613,2.615,2.615,0,1,0,0-5.227A2.653,2.653,0,0,0,0,85.88" fill="#375a64"/>
                  <path id="Trazado_768148" data-name="Trazado 768148" d="M338.957,78.106a2.692,2.692,0,1,0,2.691-2.614,2.653,2.653,0,0,0-2.691,2.614" fill="#375a64"/>
                  <path id="Trazado_768149" data-name="Trazado 768149" d="M315.309,78.106A2.692,2.692,0,1,0,318,75.492a2.653,2.653,0,0,0-2.691,2.614" fill="#375a64"/>
                  <path id="Trazado_768150" data-name="Trazado 768150" d="M307.427,78.106a2.692,2.692,0,1,0,2.69-2.614,2.653,2.653,0,0,0-2.69,2.614" fill="#375a64"/>
                  <path id="Trazado_768151" data-name="Trazado 768151" d="M299.544,78.106a2.692,2.692,0,1,0,2.691-2.614,2.653,2.653,0,0,0-2.691,2.614" fill="#375a64"/>
                  <path id="Trazado_768152" data-name="Trazado 768152" d="M291.661,78.106a2.692,2.692,0,1,0,2.691-2.614,2.653,2.653,0,0,0-2.691,2.614" fill="#375a64"/>
                  <path id="Trazado_768153" data-name="Trazado 768153" d="M283.778,78.106a2.692,2.692,0,1,0,2.691-2.614,2.653,2.653,0,0,0-2.691,2.614" fill="#375a64"/>
                  <path id="Trazado_768154" data-name="Trazado 768154" d="M275.895,78.106a2.692,2.692,0,1,0,2.691-2.614,2.653,2.653,0,0,0-2.691,2.614" fill="#375a64"/>
                  <path id="Trazado_768155" data-name="Trazado 768155" d="M268.013,78.106a2.692,2.692,0,1,0,2.691-2.614,2.653,2.653,0,0,0-2.691,2.614" fill="#375a64"/>
                  <path id="Trazado_768156" data-name="Trazado 768156" d="M260.13,78.106a2.692,2.692,0,1,0,2.691-2.614,2.653,2.653,0,0,0-2.691,2.614" fill="#375a64"/>
                  <path id="Trazado_768157" data-name="Trazado 768157" d="M157.655,78.106a2.692,2.692,0,1,0,2.691-2.614,2.653,2.653,0,0,0-2.691,2.614" fill="#375a64"/>
                  <path id="Trazado_768158" data-name="Trazado 768158" d="M149.772,78.106a2.692,2.692,0,1,0,2.691-2.614,2.653,2.653,0,0,0-2.691,2.614" fill="#375a64"/>
                  <path id="Trazado_768159" data-name="Trazado 768159" d="M141.889,78.106a2.692,2.692,0,1,0,2.691-2.614,2.653,2.653,0,0,0-2.691,2.614" fill="#375a64"/>
                  <path id="Trazado_768160" data-name="Trazado 768160" d="M134.007,78.106a2.692,2.692,0,1,0,2.69-2.614,2.652,2.652,0,0,0-2.69,2.614" fill="#375a64"/>
                  <path id="Trazado_768161" data-name="Trazado 768161" d="M126.124,78.106a2.692,2.692,0,1,0,2.691-2.614,2.653,2.653,0,0,0-2.691,2.614" fill="#375a64"/>
                  <path id="Trazado_768162" data-name="Trazado 768162" d="M94.593,78.106a2.692,2.692,0,1,0,2.691-2.614,2.653,2.653,0,0,0-2.691,2.614" fill="#375a64"/>
                  <path id="Trazado_768163" data-name="Trazado 768163" d="M86.71,78.106A2.692,2.692,0,1,0,89.4,75.492a2.653,2.653,0,0,0-2.691,2.614" fill="#375a64"/>
                  <path id="Trazado_768164" data-name="Trazado 768164" d="M78.827,78.106a2.692,2.692,0,1,0,2.691-2.614,2.653,2.653,0,0,0-2.691,2.614" fill="#375a64"/>
                  <path id="Trazado_768165" data-name="Trazado 768165" d="M70.944,78.106a2.692,2.692,0,1,0,2.691-2.614,2.653,2.653,0,0,0-2.691,2.614" fill="#375a64"/>
                  <path id="Trazado_768166" data-name="Trazado 768166" d="M63.062,78.106a2.692,2.692,0,1,0,2.691-2.614,2.653,2.653,0,0,0-2.691,2.614" fill="#375a64"/>
                  <path id="Trazado_768167" data-name="Trazado 768167" d="M55.179,78.106a2.692,2.692,0,1,0,2.691-2.614,2.653,2.653,0,0,0-2.691,2.614" fill="#375a64"/>
                  <path id="Trazado_768168" data-name="Trazado 768168" d="M47.3,78.106a2.692,2.692,0,1,0,2.691-2.614A2.653,2.653,0,0,0,47.3,78.106" fill="#375a64"/>
                  <path id="Trazado_768169" data-name="Trazado 768169" d="M331.075,70.332a2.692,2.692,0,1,0,2.691-2.614,2.653,2.653,0,0,0-2.691,2.614" fill="#375a64"/>
                  <path id="Trazado_768170" data-name="Trazado 768170" d="M299.544,70.332a2.692,2.692,0,1,0,2.691-2.614,2.653,2.653,0,0,0-2.691,2.614" fill="#375a64"/>
                  <path id="Trazado_768171" data-name="Trazado 768171" d="M291.661,70.332a2.692,2.692,0,1,0,2.691-2.614,2.653,2.653,0,0,0-2.691,2.614" fill="#375a64"/>
                  <path id="Trazado_768172" data-name="Trazado 768172" d="M283.778,70.332a2.692,2.692,0,1,0,2.691-2.614,2.653,2.653,0,0,0-2.691,2.614" fill="#375a64"/>
                  <path id="Trazado_768173" data-name="Trazado 768173" d="M252.247,70.332a2.692,2.692,0,1,0,2.691-2.614,2.653,2.653,0,0,0-2.691,2.614" fill="#375a64"/>
                  <path id="Trazado_768174" data-name="Trazado 768174" d="M157.655,70.332a2.692,2.692,0,1,0,2.691-2.614,2.653,2.653,0,0,0-2.691,2.614" fill="#375a64"/>
                  <path id="Trazado_768175" data-name="Trazado 768175" d="M149.772,70.332a2.692,2.692,0,1,0,2.691-2.614,2.653,2.653,0,0,0-2.691,2.614" fill="#375a64"/>
                  <path id="Trazado_768176" data-name="Trazado 768176" d="M141.889,70.332a2.692,2.692,0,1,0,2.691-2.614,2.653,2.653,0,0,0-2.691,2.614" fill="#375a64"/>
                  <path id="Trazado_768177" data-name="Trazado 768177" d="M134.007,70.332a2.692,2.692,0,1,0,2.69-2.614,2.652,2.652,0,0,0-2.69,2.614" fill="#375a64"/>
                  <path id="Trazado_768178" data-name="Trazado 768178" d="M126.124,70.332a2.692,2.692,0,1,0,2.691-2.614,2.653,2.653,0,0,0-2.691,2.614" fill="#375a64"/>
                  <path id="Trazado_768179" data-name="Trazado 768179" d="M118.241,70.332a2.692,2.692,0,1,0,2.691-2.614,2.653,2.653,0,0,0-2.691,2.614" fill="#375a64"/>
                  <path id="Trazado_768180" data-name="Trazado 768180" d="M110.358,70.332a2.692,2.692,0,1,0,2.691-2.614,2.653,2.653,0,0,0-2.691,2.614" fill="#375a64"/>
                  <path id="Trazado_768181" data-name="Trazado 768181" d="M86.71,70.332A2.692,2.692,0,1,0,89.4,67.718a2.653,2.653,0,0,0-2.691,2.614" fill="#375a64"/>
                  <path id="Trazado_768182" data-name="Trazado 768182" d="M78.827,70.332a2.692,2.692,0,1,0,2.691-2.614,2.653,2.653,0,0,0-2.691,2.614" fill="#375a64"/>
                  <path id="Trazado_768183" data-name="Trazado 768183" d="M70.944,70.332a2.692,2.692,0,1,0,2.691-2.614,2.653,2.653,0,0,0-2.691,2.614" fill="#375a64"/>
                  <path id="Trazado_768184" data-name="Trazado 768184" d="M63.062,70.332a2.692,2.692,0,1,0,2.691-2.614,2.653,2.653,0,0,0-2.691,2.614" fill="#375a64"/>
                  <path id="Trazado_768185" data-name="Trazado 768185" d="M55.179,70.332a2.692,2.692,0,1,0,2.691-2.614,2.653,2.653,0,0,0-2.691,2.614" fill="#375a64"/>
                  <path id="Trazado_768186" data-name="Trazado 768186" d="M47.3,70.332a2.692,2.692,0,1,0,2.691-2.614A2.653,2.653,0,0,0,47.3,70.332" fill="#375a64"/>
                  <path id="Trazado_768187" data-name="Trazado 768187" d="M291.661,62.558a2.692,2.692,0,1,0,2.691-2.614,2.653,2.653,0,0,0-2.691,2.614" fill="#375a64"/>
                  <path id="Trazado_768188" data-name="Trazado 768188" d="M283.778,62.558a2.692,2.692,0,1,0,2.691-2.614,2.653,2.653,0,0,0-2.691,2.614" fill="#375a64"/>
                  <path id="Trazado_768189" data-name="Trazado 768189" d="M204.951,62.558a2.692,2.692,0,1,0,2.691-2.614,2.653,2.653,0,0,0-2.691,2.614" fill="#375a64"/>
                  <path id="Trazado_768190" data-name="Trazado 768190" d="M197.068,62.558a2.692,2.692,0,1,0,2.691-2.614,2.653,2.653,0,0,0-2.691,2.614" fill="#375a64"/>
                  <path id="Trazado_768191" data-name="Trazado 768191" d="M157.655,62.558a2.692,2.692,0,1,0,2.691-2.614,2.653,2.653,0,0,0-2.691,2.614" fill="#375a64"/>
                  <path id="Trazado_768192" data-name="Trazado 768192" d="M149.772,62.558a2.692,2.692,0,1,0,2.691-2.614,2.653,2.653,0,0,0-2.691,2.614" fill="#375a64"/>
                  <path id="Trazado_768193" data-name="Trazado 768193" d="M141.889,62.558a2.692,2.692,0,1,0,2.691-2.614,2.653,2.653,0,0,0-2.691,2.614" fill="#375a64"/>
                  <path id="Trazado_768194" data-name="Trazado 768194" d="M134.007,62.558a2.692,2.692,0,1,0,2.69-2.614,2.652,2.652,0,0,0-2.69,2.614" fill="#375a64"/>
                  <path id="Trazado_768195" data-name="Trazado 768195" d="M126.124,62.558a2.692,2.692,0,1,0,2.691-2.614,2.653,2.653,0,0,0-2.691,2.614" fill="#375a64"/>
                  <path id="Trazado_768196" data-name="Trazado 768196" d="M118.241,62.558a2.692,2.692,0,1,0,2.691-2.614,2.653,2.653,0,0,0-2.691,2.614" fill="#375a64"/>
                  <path id="Trazado_768197" data-name="Trazado 768197" d="M110.358,62.558a2.692,2.692,0,1,0,2.691-2.614,2.653,2.653,0,0,0-2.691,2.614" fill="#375a64"/>
                  <path id="Trazado_768198" data-name="Trazado 768198" d="M94.593,62.558a2.692,2.692,0,1,0,2.691-2.614,2.653,2.653,0,0,0-2.691,2.614" fill="#375a64"/>
                  <path id="Trazado_768199" data-name="Trazado 768199" d="M86.71,62.558A2.692,2.692,0,1,0,89.4,59.944a2.653,2.653,0,0,0-2.691,2.614" fill="#375a64"/>
                  <path id="Trazado_768200" data-name="Trazado 768200" d="M78.827,62.558a2.692,2.692,0,1,0,2.691-2.614,2.653,2.653,0,0,0-2.691,2.614" fill="#375a64"/>
                  <path id="Trazado_768201" data-name="Trazado 768201" d="M157.655,54.784a2.692,2.692,0,1,0,2.691-2.614,2.653,2.653,0,0,0-2.691,2.614" fill="#375a64"/>
                  <path id="Trazado_768202" data-name="Trazado 768202" d="M149.772,54.784a2.692,2.692,0,1,0,2.691-2.614,2.653,2.653,0,0,0-2.691,2.614" fill="#375a64"/>
                  <path id="Trazado_768203" data-name="Trazado 768203" d="M141.889,54.784a2.692,2.692,0,1,0,2.691-2.614,2.653,2.653,0,0,0-2.691,2.614" fill="#375a64"/>
                  <path id="Trazado_768204" data-name="Trazado 768204" d="M134.007,54.784a2.692,2.692,0,1,0,2.69-2.614,2.652,2.652,0,0,0-2.69,2.614" fill="#375a64"/>
                  <path id="Trazado_768205" data-name="Trazado 768205" d="M126.124,54.784a2.692,2.692,0,1,0,2.691-2.614,2.653,2.653,0,0,0-2.691,2.614" fill="#375a64"/>
                  <path id="Trazado_768206" data-name="Trazado 768206" d="M118.241,54.784a2.692,2.692,0,1,0,2.691-2.614,2.653,2.653,0,0,0-2.691,2.614" fill="#375a64"/>
                  <path id="Trazado_768207" data-name="Trazado 768207" d="M110.358,54.784a2.692,2.692,0,1,0,2.691-2.614,2.653,2.653,0,0,0-2.691,2.614" fill="#375a64"/>
                  <path id="Trazado_768208" data-name="Trazado 768208" d="M102.475,54.784a2.692,2.692,0,1,0,2.691-2.614,2.653,2.653,0,0,0-2.691,2.614" fill="#375a64"/>
                  <path id="Trazado_768209" data-name="Trazado 768209" d="M94.593,54.784a2.692,2.692,0,1,0,2.691-2.614,2.653,2.653,0,0,0-2.691,2.614" fill="#375a64"/>
                  <path id="Trazado_768210" data-name="Trazado 768210" d="M86.71,54.784A2.692,2.692,0,1,0,89.4,52.17a2.653,2.653,0,0,0-2.691,2.614" fill="#375a64"/>
                </g>
              </g>
            </g>
            <path id="Trazado_768211" data-name="Trazado 768211" d="M183.994,43.777a9.085,9.085,0,1,1,9.085-9.085,9.1,9.1,0,0,1-9.085,9.085m0-16.242a7.156,7.156,0,1,0,7.157,7.157,7.166,7.166,0,0,0-7.157-7.157" fill="#57dbd8"/>
            <path id="Trazado_768212" data-name="Trazado 768212" d="M188.783,32.033a.964.964,0,0,0-1.364,0l-3.848,3.848-2.465-2.465a.964.964,0,1,0-1.364,1.364l3.147,3.147a.966.966,0,0,0,1.364,0c.017-.017.033-.035.048-.053s.036-.031.054-.049l4.428-4.428a.964.964,0,0,0,0-1.364" fill="#57dbd8"/>
            <path id="Trazado_768213" data-name="Trazado 768213" d="M38.267,219.447l-9.015,5.2a2.786,2.786,0,0,1-2.787,0l-9.016-5.2a2.788,2.788,0,0,1-1.393-2.414v-10.41a2.787,2.787,0,0,1,1.393-2.413l9.016-5.205a2.786,2.786,0,0,1,2.787,0l9.015,5.205a2.788,2.788,0,0,1,1.394,2.413v10.41a2.789,2.789,0,0,1-1.394,2.414" fill="#57dbd8"/>
            <path id="Trazado_768214" data-name="Trazado 768214" d="M27.858,196.056a8.646,8.646,0,1,1,8.645-8.645,8.655,8.655,0,0,1-8.645,8.645m0-15.272a6.627,6.627,0,1,0,6.626,6.627,6.634,6.634,0,0,0-6.626-6.627" fill="#404040"/>
            <path id="Trazado_768215" data-name="Trazado 768215" d="M77.143,219.447l-9.015,5.2a2.786,2.786,0,0,1-2.787,0l-9.016-5.2a2.788,2.788,0,0,1-1.393-2.414v-10.41a2.787,2.787,0,0,1,1.393-2.413l9.016-5.205a2.786,2.786,0,0,1,2.787,0l9.015,5.205a2.788,2.788,0,0,1,1.394,2.413v10.41a2.789,2.789,0,0,1-1.394,2.414" fill="#57dbd8"/>
            <path id="Trazado_768216" data-name="Trazado 768216" d="M66.734,196.056a8.646,8.646,0,1,1,8.646-8.645,8.655,8.655,0,0,1-8.646,8.645m0-15.272a6.627,6.627,0,1,0,6.627,6.627,6.633,6.633,0,0,0-6.627-6.627" fill="#404040"/>
            <path id="Trazado_768217" data-name="Trazado 768217" d="M47.3,222a3.792,3.792,0,0,1-1.9-.507l-9.016-5.205a3.809,3.809,0,0,1-1.9-3.289V202.586a3.809,3.809,0,0,1,1.9-3.288l9.016-5.205a3.8,3.8,0,0,1,3.8,0l9.015,5.205a3.808,3.808,0,0,1,1.9,3.288v10.409a3.808,3.808,0,0,1-1.9,3.289l-9.015,5.205a3.792,3.792,0,0,1-1.9.507m0-26.392a1.772,1.772,0,0,0-.889.238l-9.015,5.205a1.782,1.782,0,0,0-.889,1.539v10.409a1.785,1.785,0,0,0,.889,1.54l9.015,5.205a1.776,1.776,0,0,0,1.778,0l9.015-5.205a1.785,1.785,0,0,0,.889-1.54V202.586a1.782,1.782,0,0,0-.889-1.539l-9.015-5.205a1.772,1.772,0,0,0-.889-.238" fill="#404040"/>
            <path id="Trazado_768218" data-name="Trazado 768218" d="M47.3,192.018a8.646,8.646,0,1,1,8.645-8.645,8.655,8.655,0,0,1-8.645,8.645m0-15.272a6.626,6.626,0,1,0,6.626,6.627,6.633,6.633,0,0,0-6.626-6.627" fill="#404040"/>
            <path id="Trazado_768219" data-name="Trazado 768219" d="M269.135,241.362a16.152,16.152,0,1,1,16.152-16.152,16.171,16.171,0,0,1-16.152,16.152m0-30.285a14.133,14.133,0,1,0,14.133,14.133,14.149,14.149,0,0,0-14.133-14.133" fill="#404040"/>
            <path id="Trazado_768220" data-name="Trazado 768220" d="M268.169,232.589a7.747,7.747,0,0,1-3.021-.818q-1.119-.631-1.12-1.489a1.38,1.38,0,0,1,.44-1.065,1.669,1.669,0,0,1,1.177-.4,6.761,6.761,0,0,1,1.528.365,6.792,6.792,0,0,0,1.962.365,1.649,1.649,0,0,0,1.154-.424,1.467,1.467,0,0,0-.01-2.149,6.163,6.163,0,0,0-2.031-.888,7.388,7.388,0,0,1-3.155-1.592,3.4,3.4,0,0,1-.9-2.479,4.209,4.209,0,0,1,1.064-2.889,5.113,5.113,0,0,1,2.908-1.577v-1.006a1.412,1.412,0,0,1,.193-.832.71.71,0,0,1,.616-.262.743.743,0,0,1,.626.237,1.473,1.473,0,0,1,.182.857v.927a5.893,5.893,0,0,1,2.588.7,1.656,1.656,0,0,1,.942,1.42,1.338,1.338,0,0,1-.39,1.02,1.509,1.509,0,0,1-1.08.37,5.164,5.164,0,0,1-1.251-.252,5.226,5.226,0,0,0-1.312-.251,1.833,1.833,0,0,0-1.163.34,1.079,1.079,0,0,0-.433.892q0,.877,1.911,1.479.444.138.691.217a6.951,6.951,0,0,1,3.006,1.74,3.763,3.763,0,0,1,.947,2.617,4.555,4.555,0,0,1-1.237,3.214,5.019,5.019,0,0,1-3.219,1.558v1.33a1.422,1.422,0,0,1-.2.839.7.7,0,0,1-.606.275.719.719,0,0,1-.622-.256,1.5,1.5,0,0,1-.187-.858Z" fill="#404040"/>
            <path id="Trazado_768221" data-name="Trazado 768221" d="M110.358,34.425A1.631,1.631,0,0,1,109,33.7c-2.315-3.469-7.7-11.96-7.7-15.886a9.056,9.056,0,1,1,18.113,0c0,3.926-5.382,12.417-7.7,15.885a1.632,1.632,0,0,1-1.359.727Zm0-23.65a7.046,7.046,0,0,0-7.038,7.038c0,2.674,3.577,9.039,7.038,14.283,3.461-5.244,7.037-11.609,7.037-14.283a7.046,7.046,0,0,0-7.037-7.038" fill="#404040"/>
            <path id="Trazado_768222" data-name="Trazado 768222" d="M110.358,22.845a5.033,5.033,0,1,1,5.033-5.032,5.038,5.038,0,0,1-5.033,5.032m0-8.047a3.014,3.014,0,1,0,3.014,3.015,3.018,3.018,0,0,0-3.014-3.015" fill="#404040"/>
            <path id="Trazado_768223" data-name="Trazado 768223" d="M41.869,21.787a11.136,11.136,0,0,0-.453-1.7l3.425-1.978A15.193,15.193,0,0,0,42.79,14.56l-3.428,1.979A11.36,11.36,0,0,0,38.121,15.3L40.1,11.87a15.193,15.193,0,0,0-3.553-2.051L34.57,13.244a11.18,11.18,0,0,0-1.7-.453V8.835a15.2,15.2,0,0,0-4.1,0v3.956a11.149,11.149,0,0,0-1.7.453L25.1,9.819a15.193,15.193,0,0,0-3.553,2.051L23.523,15.3a11.273,11.273,0,0,0-1.241,1.241L18.854,14.56A15.193,15.193,0,0,0,16.8,18.113l3.425,1.978a11.137,11.137,0,0,0-.453,1.7H15.818a15.209,15.209,0,0,0,0,4.1h3.957a11.2,11.2,0,0,0,.453,1.7L16.8,29.563a15.193,15.193,0,0,0,2.051,3.553l3.428-1.978a11.351,11.351,0,0,0,1.241,1.24l-1.979,3.428A15.193,15.193,0,0,0,25.1,37.857l1.977-3.425a11.152,11.152,0,0,0,1.7.454v3.956a15.31,15.31,0,0,0,4.1,0V34.886a11.183,11.183,0,0,0,1.7-.454l1.977,3.425A15.193,15.193,0,0,0,40.1,35.806l-1.979-3.428a11.44,11.44,0,0,0,1.241-1.24l3.428,1.978a15.193,15.193,0,0,0,2.051-3.553l-3.425-1.977a11.2,11.2,0,0,0,.453-1.7h3.957a15.318,15.318,0,0,0,0-4.1ZM30.822,30.579a6.741,6.741,0,1,1,6.741-6.741,6.741,6.741,0,0,1-6.741,6.741" fill="#57dbd8"/>
            <path id="Trazado_768224" data-name="Trazado 768224" d="M272.167,38.9H232.238a4.815,4.815,0,0,1-4.809-4.809V17.748a7.025,7.025,0,0,1,7.017-7.018h37.721a4.815,4.815,0,0,1,4.809,4.809V34.086a4.815,4.815,0,0,1-4.809,4.809M234.446,12.749a5,5,0,0,0-5,5V34.086a2.794,2.794,0,0,0,2.79,2.79h39.929a2.794,2.794,0,0,0,2.79-2.79V15.539a2.794,2.794,0,0,0-2.79-2.79Z" fill="#404040"/>
            <path id="Trazado_768225" data-name="Trazado 768225" d="M277.31,17.006H237.381a3.8,3.8,0,0,0-3.8,3.8V39.352a3.8,3.8,0,0,0,3.8,3.8h29.19l7.886,6.679V43.151h2.853a3.8,3.8,0,0,0,3.8-3.8V20.806a3.8,3.8,0,0,0-3.8-3.8" fill="#bebebe"/>
            <path id="Trazado_768226" data-name="Trazado 768226" d="M272.621,25.813H242.07a1.009,1.009,0,1,1,0-2.019h30.551a1.009,1.009,0,0,1,0,2.019" fill="#404040"/>
            <path id="Trazado_768227" data-name="Trazado 768227" d="M272.621,30.74H242.07a1.009,1.009,0,1,1,0-2.019h30.551a1.009,1.009,0,0,1,0,2.019" fill="#404040"/>
            <path id="Trazado_768228" data-name="Trazado 768228" d="M272.621,35.666H242.07a1.01,1.01,0,1,1,0-2.019h30.551a1.01,1.01,0,0,1,0,2.019" fill="#404040"/>
            <path id="Trazado_768229" data-name="Trazado 768229" d="M218.229,251.463H167.511a5.172,5.172,0,0,1-5.167-5.166V216.25a5.173,5.173,0,0,1,5.167-5.166h50.718a5.173,5.173,0,0,1,5.167,5.166V246.3a5.172,5.172,0,0,1-5.167,5.166M167.511,213.1a3.151,3.151,0,0,0-3.148,3.147V246.3a3.15,3.15,0,0,0,3.148,3.147h50.718a3.15,3.15,0,0,0,3.148-3.147V216.25a3.151,3.151,0,0,0-3.148-3.147Z" fill="#404040"/>
            <rect id="Rect치ngulo_359960" data-name="Rect치ngulo 359960" width="52.976" height="32.304" rx="1.129" transform="translate(166.382 215.122)" fill="#bebebe"/>
            <path id="Trazado_768230" data-name="Trazado 768230" d="M222.386,233.629H163.353a1.009,1.009,0,0,1,0-2.019h59.033a1.009,1.009,0,1,1,0,2.019" fill="#404040"/>
            <rect id="Rect치ngulo_359961" data-name="Rect치ngulo 359961" width="6.688" height="6.688" transform="translate(189.526 232.62)" fill="#fff"/>
            <path id="Trazado_768231" data-name="Trazado 768231" d="M196.214,240.318h-6.688a1.01,1.01,0,0,1-1.01-1.01V232.62a1.01,1.01,0,0,1,1.01-1.01h6.688a1.01,1.01,0,0,1,1.009,1.01v6.688a1.01,1.01,0,0,1-1.009,1.01m-5.679-2.019H195.2V233.63h-4.669Z" fill="#404040"/>
            <path id="Trazado_768232" data-name="Trazado 768232" d="M206.371,213.1h-27a1.01,1.01,0,0,1-1.01-1.01V208.6a5.6,5.6,0,0,1,5.594-5.594h17.835a5.6,5.6,0,0,1,5.594,5.594v3.491a1.01,1.01,0,0,1-1.01,1.01m-25.994-2.019h24.985V208.6a3.579,3.579,0,0,0-3.575-3.575H183.952a3.579,3.579,0,0,0-3.575,3.575Z" fill="#404040"/>
            <path id="Trazado_768233" data-name="Trazado 768233" d="M351.153,265.239a1.01,1.01,0,0,1-1.01-1.009v-6.057a1.009,1.009,0,1,1,2.019,0v6.057a1.009,1.009,0,0,1-1.009,1.009" fill="#bebebe"/>
            <path id="Trazado_768234" data-name="Trazado 768234" d="M354.182,262.211h-6.057a1.01,1.01,0,0,1,0-2.019h6.057a1.01,1.01,0,1,1,0,2.019" fill="#bebebe"/>
            <path id="Trazado_768235" data-name="Trazado 768235" d="M144.58,231.274a4.038,4.038,0,1,1,4.038-4.038,4.042,4.042,0,0,1-4.038,4.038m0-6.057a2.019,2.019,0,1,0,2.019,2.019,2.022,2.022,0,0,0-2.019-2.019" fill="#bebebe"/>
            <path id="Trazado_768236" data-name="Trazado 768236" d="M354.454,52.17a6.584,6.584,0,0,0,6.2-4.362,1.181,1.181,0,0,0-1.114-1.577H349.37a1.182,1.182,0,0,0-1.114,1.577,6.584,6.584,0,0,0,6.2,4.362" fill="#57dbd8"/>
            <path id="Trazado_768237" data-name="Trazado 768237" d="M367.475,22.757a13.02,13.02,0,1,0-23.763,7.358c1.785,2.621,3.029,7.167,3.674,11.191a2.245,2.245,0,0,0,2.215,1.9h9.707a2.246,2.246,0,0,0,2.216-1.9c.645-4.024,1.888-8.57,3.673-11.191a12.957,12.957,0,0,0,2.278-7.358" fill="#57dbd8"/>
            <path id="Trazado_768238" data-name="Trazado 768238" d="M354.615,6.341a.963.963,0,0,1-.963-.963V.964a.963.963,0,1,1,1.926,0V5.378a.963.963,0,0,1-.963.963" fill="#57dbd8"/>
            <path id="Trazado_768239" data-name="Trazado 768239" d="M345.926,8.584a.962.962,0,0,1-.835-.482l-2.207-3.823a.963.963,0,0,1,1.668-.963l2.207,3.823a.963.963,0,0,1-.833,1.445" fill="#57dbd8"/>
            <path id="Trazado_768240" data-name="Trazado 768240" d="M339.52,14.87a.968.968,0,0,1-.481-.129l-3.823-2.207a.964.964,0,0,1,.964-1.669L340,13.073a.963.963,0,0,1-.482,1.8" fill="#57dbd8"/>
            <path id="Trazado_768241" data-name="Trazado 768241" d="M337.118,23.517H332.7a.963.963,0,1,1,0-1.926h4.414a.963.963,0,0,1,0,1.926" fill="#57dbd8"/>
            <path id="Trazado_768242" data-name="Trazado 768242" d="M335.538,34.414a.963.963,0,0,1-.482-1.8l3.823-2.208a.963.963,0,0,1,.963,1.669l-3.823,2.207a.968.968,0,0,1-.481.129" fill="#57dbd8"/>
            <path id="Trazado_768243" data-name="Trazado 768243" d="M373.21,34.692a.967.967,0,0,1-.481-.129l-3.823-2.207a.964.964,0,0,1,.964-1.669l3.822,2.208a.963.963,0,0,1-.482,1.8" fill="#57dbd8"/>
            <path id="Trazado_768244" data-name="Trazado 768244" d="M376.2,23.838h-4.414a.963.963,0,0,1,0-1.926H376.2a.963.963,0,1,1,0,1.926" fill="#57dbd8"/>
            <path id="Trazado_768245" data-name="Trazado 768245" d="M369.549,15.148a.963.963,0,0,1-.483-1.8l3.823-2.208a.964.964,0,0,1,.964,1.669l-3.823,2.207a.968.968,0,0,1-.481.129" fill="#57dbd8"/>
            <path id="Trazado_768246" data-name="Trazado 768246" d="M363.261,8.744a.963.963,0,0,1-.833-1.445l2.207-3.823a.963.963,0,0,1,1.668.963L364.1,8.262a.962.962,0,0,1-.835.482" fill="#57dbd8"/>
          </g>
        </g>
      </g>
    </g>
    <g id="Grupo_1026918" data-name="Grupo 1026918">
      <rect id="Rect치ngulo_359660" data-name="Rect치ngulo 359660" width="400" height="276" transform="translate(180 5574)" fill="none"/>
      <g id="Grupo_1026910" data-name="Grupo 1026910" transform="translate(8343.146 11510.119)">
        <g data-type="innerShadowGroup">
          <path id="Trazado_767745-2" data-name="Trazado 767745" d="M40.716,75.376H19.807L16.155,87.2H-.146L23.067,23.906H37.413L60.8,87.2H44.411ZM23.458,63.6H37.065L30.24,41.642Z" transform="translate(-8053 -5854.112)" fill="#91b3fa"/>
          <g transform="matrix(1, 0, 0, 1, -8163.15, -5936.12)" filter="url(#Trazado_767745)">
            <path id="Trazado_767745-3" data-name="Trazado 767745" d="M40.716,75.376H19.807L16.155,87.2H-.146L23.067,23.906H37.413L60.8,87.2H44.411ZM23.458,63.6H37.065L30.24,41.642Z" transform="translate(110.15 82.01)" fill="#fff"/>
          </g>
          <path id="Trazado_767745-4" data-name="Trazado 767745" d="M40.716,75.376H19.807L16.155,87.2H-.146L23.067,23.906H37.413L60.8,87.2H44.411ZM23.458,63.6H37.065L30.24,41.642Z" transform="translate(-8053 -5854.112)" fill="none" stroke="#fff" stroke-width="2"/>
        </g>
        <g data-type="innerShadowGroup">
          <path id="Trazado_767746-2" data-name="Trazado 767746" d="M5.371,87.2V23.906H28.106q12.215,0,18.584,4.478t6.369,13a15.06,15.06,0,0,1-2.26,8.39,13.172,13.172,0,0,1-6.651,5.13,13.339,13.339,0,0,1,7.607,4.869,14.156,14.156,0,0,1,2.652,8.694q0,9.3-5.89,13.976T31.062,87.2ZM20.629,60.292V75.463h10a9.51,9.51,0,0,0,6.347-1.891,6.618,6.618,0,0,0,2.217-5.325q0-7.912-7.868-7.955Zm0-10h7.955q5-.043,7.129-1.831a6.5,6.5,0,0,0,2.13-5.276q0-4.012-2.3-5.777t-7.434-1.766H20.629Z" transform="translate(-7989.505 -5854.112)" fill="#fe7062"/>
          <g transform="matrix(1, 0, 0, 1, -8163.15, -5936.12)" filter="url(#Trazado_767746)">
            <path id="Trazado_767746-3" data-name="Trazado 767746" d="M5.371,87.2V23.906H28.106q12.215,0,18.584,4.478t6.369,13a15.06,15.06,0,0,1-2.26,8.39,13.172,13.172,0,0,1-6.651,5.13,13.339,13.339,0,0,1,7.607,4.869,14.156,14.156,0,0,1,2.652,8.694q0,9.3-5.89,13.976T31.062,87.2ZM20.629,60.292V75.463h10a9.51,9.51,0,0,0,6.347-1.891,6.618,6.618,0,0,0,2.217-5.325q0-7.912-7.868-7.955Zm0-10h7.955q5-.043,7.129-1.831a6.5,6.5,0,0,0,2.13-5.276q0-4.012-2.3-5.777t-7.434-1.766H20.629Z" transform="translate(173.64 82.01)" fill="#fff"/>
          </g>
          <path id="Trazado_767746-4" data-name="Trazado 767746" d="M5.371,87.2V23.906H28.106q12.215,0,18.584,4.478t6.369,13a15.06,15.06,0,0,1-2.26,8.39,13.172,13.172,0,0,1-6.651,5.13,13.339,13.339,0,0,1,7.607,4.869,14.156,14.156,0,0,1,2.652,8.694q0,9.3-5.89,13.976T31.062,87.2ZM20.629,60.292V75.463h10a9.51,9.51,0,0,0,6.347-1.891,6.618,6.618,0,0,0,2.217-5.325q0-7.912-7.868-7.955Zm0-10h7.955q5-.043,7.129-1.831a6.5,6.5,0,0,0,2.13-5.276q0-4.012-2.3-5.777t-7.434-1.766H20.629Z" transform="translate(-7989.505 -5854.112)" fill="none" stroke="#fff" stroke-width="2"/>
        </g>
        <g data-type="innerShadowGroup">
          <path id="Trazado_767747-2" data-name="Trazado 767747" d="M56.36,65.656A23.115,23.115,0,0,1,52.8,77.328a21.514,21.514,0,0,1-9.151,7.847,31.145,31.145,0,0,1-13.454,2.782q-12.476,0-19.649-8.129T3.369,56.875v-3.13a38.312,38.312,0,0,1,3.239-16.28,24.539,24.539,0,0,1,9.325-10.781,26.016,26.016,0,0,1,14.085-3.8q11.52,0,18.519,6.064T56.491,45.66H41.276q-.174-5.782-2.913-8.3t-8.346-2.521q-5.695,0-8.346,4.26T18.888,52.7V57.18q0,10.129,2.543,14.476T30.191,76q5.26,0,8.042-2.478t2.956-7.868Z" transform="translate(-7930.401 -5854)" fill="#57dbd8"/>
          <g transform="matrix(1, 0, 0, 1, -8163.15, -5936.12)" filter="url(#Trazado_767747)">
            <path id="Trazado_767747-3" data-name="Trazado 767747" d="M56.36,65.656A23.115,23.115,0,0,1,52.8,77.328a21.514,21.514,0,0,1-9.151,7.847,31.145,31.145,0,0,1-13.454,2.782q-12.476,0-19.649-8.129T3.369,56.875v-3.13a38.312,38.312,0,0,1,3.239-16.28,24.539,24.539,0,0,1,9.325-10.781,26.016,26.016,0,0,1,14.085-3.8q11.52,0,18.519,6.064T56.491,45.66H41.276q-.174-5.782-2.913-8.3t-8.346-2.521q-5.695,0-8.346,4.26T18.888,52.7V57.18q0,10.129,2.543,14.476T30.191,76q5.26,0,8.042-2.478t2.956-7.868Z" transform="translate(232.75 82.12)" fill="#fff"/>
          </g>
          <path id="Trazado_767747-4" data-name="Trazado 767747" d="M56.36,65.656A23.115,23.115,0,0,1,52.8,77.328a21.514,21.514,0,0,1-9.151,7.847,31.145,31.145,0,0,1-13.454,2.782q-12.476,0-19.649-8.129T3.369,56.875v-3.13a38.312,38.312,0,0,1,3.239-16.28,24.539,24.539,0,0,1,9.325-10.781,26.016,26.016,0,0,1,14.085-3.8q11.52,0,18.519,6.064T56.491,45.66H41.276q-.174-5.782-2.913-8.3t-8.346-2.521q-5.695,0-8.346,4.26T18.888,52.7V57.18q0,10.129,2.543,14.476T30.191,76q5.26,0,8.042-2.478t2.956-7.868Z" transform="translate(-7930.401 -5854)" fill="none" stroke="#fff" stroke-width="2"/>
        </g>
      </g>
    </g>
  </g>
</svg>
