<svg xmlns="http://www.w3.org/2000/svg" xmlns:xlink="http://www.w3.org/1999/xlink" width="118.617" height="119.456" viewBox="0 0 118.617 119.456">
  <defs>
    <radialGradient id="radial-gradient" cx="0.076" cy="0.019" r="1.465" gradientTransform="translate(0.001)" gradientUnits="objectBoundingBox">
      <stop offset="0" stop-color="#f6f6f7"/>
      <stop offset="0.477" stop-color="#f9f9fa"/>
      <stop offset="0.715" stop-color="#fff"/>
    </radialGradient>
    <filter id="Trazado_765630" x="0" y="0.961" width="118.617" height="118.495" filterUnits="userSpaceOnUse">
      <feOffset dy="7" input="SourceAlpha"/>
      <feGaussianBlur stdDeviation="2.5" result="blur"/>
      <feFlood flood-opacity="0.102"/>
      <feComposite operator="in" in2="blur"/>
      <feComposite in="SourceGraphic"/>
    </filter>
  </defs>
  <g id="Grupo_1026535" data-name="Grupo 1026535" transform="translate(-278.841 -9495.5)">
    <g id="Grupo_1025978" data-name="Grupo 1025978" transform="translate(0 7395.669)">
      <g id="Grupo_1024863" data-name="Grupo 1024863" transform="translate(285 2099.831)">
        <g id="Grupo_18420" data-name="Grupo 18420">
          <g id="Grupo_18419" data-name="Grupo 18419">
            <path id="Trazado_40936" data-name="Trazado 40936" d="M299.581,2198.2a52.479,52.479,0,1,1-52.478-52.477A52.478,52.478,0,0,1,299.581,2198.2Z" transform="translate(-194.623 -2145.721)" fill="#fff"/>
          </g>
        </g>
      </g>
      <g transform="matrix(1, 0, 0, 1, 278.84, 2099.83)" filter="url(#Trazado_765630)">
        <path id="Trazado_765630-2" data-name="Trazado 765630" d="M299.094,2197.667a52.478,52.478,0,1,0-52.478,52.479A52.271,52.271,0,0,0,299.094,2197.667Z" transform="translate(-187.98 -2145.19)" fill="url(#radial-gradient)"/>
      </g>
      <path id="Trazado_765631" data-name="Trazado 765631" d="M289.67,2196.985a43.749,43.749,0,1,0-43.749,43.75A43.588,43.588,0,0,0,289.67,2196.985Z" transform="translate(92.17 -44.554)" fill="none" stroke="#fe7062" stroke-miterlimit="10" stroke-width="4"/>
      <g id="Grupo_1024864" data-name="Grupo 1024864" transform="translate(294.298 2129.294)">
        <path id="Trazado_40939" data-name="Trazado 40939" d="M290.9,2164.488a52.485,52.485,0,0,1-90.354,52.261,52.318,52.318,0,0,0,90.354-52.261Z" transform="translate(-200.545 -2164.488)" fill="#eceef0"/>
      </g>
    </g>
    <g id="_042-technician" data-name="042-technician" transform="translate(302.162 9512.4)">
      <g id="Grupo_1026533" data-name="Grupo 1026533" transform="translate(8.959 12.484)">
        <g id="Grupo_1026508" data-name="Grupo 1026508" transform="translate(21.983 0)">
          <g id="Grupo_1026506" data-name="Grupo 1026506">
            <path id="Trazado_766775" data-name="Trazado 766775" d="M217.409,19.617h27.944a1.1,1.1,0,0,1,1.1,1.1V37.662a1.1,1.1,0,0,1-1.1,1.1H217.409a1.1,1.1,0,0,1-1.1-1.1V20.719A1.1,1.1,0,0,1,217.409,19.617Z" transform="translate(-216.307 -19.617)" fill="#eceff1" fill-rule="evenodd"/>
          </g>
          <g id="Grupo_1026507" data-name="Grupo 1026507" transform="translate(27.944)">
            <path id="Trazado_766776" data-name="Trazado 766776" d="M469.871,19.617h1.1a1.1,1.1,0,0,1,1.1,1.1V37.662a1.1,1.1,0,0,1-1.1,1.1h-1.1a1.1,1.1,0,0,0,1.1-1.1V20.719A1.1,1.1,0,0,0,469.871,19.617Z" transform="translate(-469.871 -19.617)" fill="#d1d1d6" fill-rule="evenodd"/>
          </g>
        </g>
        <g id="Grupo_1026513" data-name="Grupo 1026513" transform="translate(25.561 10.948)">
          <g id="Grupo_1026509" data-name="Grupo 1026509">
            <path id="Trazado_766777" data-name="Trazado 766777" d="M258.605,120.317a7,7,0,0,1,2.049.849l1.331-.591,1.569,1.569-.591,1.331a7,7,0,0,1,.85,2.05l1.358.523v2.219l-1.359.523a7,7,0,0,1-.849,2.049l.591,1.331-1.569,1.569-1.331-.591a7,7,0,0,1-2.049.85l-.523,1.358h-2.219L255.34,134a7,7,0,0,1-2.049-.849l-1.331.591-1.569-1.569.591-1.331a7,7,0,0,1-.85-2.05l-1.358-.523v-2.219l1.359-.523a7,7,0,0,1,.849-2.049l-.591-1.331,1.569-1.569,1.331.591a7,7,0,0,1,2.049-.849l.523-1.359h2.219Z" transform="translate(-248.774 -118.958)" fill="#fe7062" fill-rule="evenodd"/>
          </g>
          <g id="Grupo_1026510" data-name="Grupo 1026510" transform="translate(2.98 0)">
            <path id="Trazado_766778" data-name="Trazado 766778" d="M277.35,133.148l-1.331.591-.206-.206,1.248-.554Q277.2,133.067,277.35,133.148Zm5.314-12.831a7,7,0,0,1,2.023.834l.026.016-.38.169a9.241,9.241,0,0,0-2.339-1.018l-.523-1.359h.67Zm-6.851.464.206-.206,1.331.591q-.147.081-.29.169Zm9.768,0,.464-.206,1.569,1.569-.591,1.331a7,7,0,0,1,.85,2.05l1.358.523v2.219l-1.359.523a7,7,0,0,1-.849,2.049l.591,1.331-1.569,1.569-.464-.206,1.363-1.363-.591-1.331a7,7,0,0,0,.849-2.049l1.359-.523v-2.219l-1.358-.523a7,7,0,0,0-.85-2.05l.591-1.331Zm-.893,12.383a7,7,0,0,1-2.023.834l-.523,1.358h-.67l.523-1.358a9.238,9.238,0,0,0,2.339-1.019l.38.169-.026.016Z" transform="translate(-275.813 -118.959)" fill="#fe7062" fill-rule="evenodd"/>
          </g>
          <g id="Grupo_1026511" data-name="Grupo 1026511" transform="translate(2.448 2.456)">
            <circle id="Elipse_8628" data-name="Elipse 8628" cx="4.063" cy="4.063" r="4.063" transform="translate(0 5.745) rotate(-45)" fill="#fff"/>
          </g>
          <g id="Grupo_1026512" data-name="Grupo 1026512" transform="translate(4.136 4.136)">
            <path id="Trazado_766779" data-name="Trazado 766779" d="M290.367,156.488q.144,0,.286.01a4.063,4.063,0,0,0,0,8.105c-.094.007-.189.01-.286.01a4.063,4.063,0,1,1,0-8.126Z" transform="translate(-286.304 -156.488)" fill="#fe7062" fill-rule="evenodd"/>
          </g>
        </g>
        <g id="Grupo_1026529" data-name="Grupo 1026529" transform="translate(0 16.749)">
          <g id="Grupo_1026516" data-name="Grupo 1026516" transform="translate(6.467 3.707)">
            <g id="Grupo_1026514" data-name="Grupo 1026514" transform="translate(0 0)">
              <circle id="Elipse_8629" data-name="Elipse 8629" cx="6.882" cy="6.882" r="6.882" fill="#f6dccd"/>
            </g>
            <g id="Grupo_1026515" data-name="Grupo 1026515" transform="translate(6.331)">
              <path id="Trazado_766780" data-name="Trazado 766780" d="M133.515,205.236a6.882,6.882,0,1,1,0,13.764q-.278,0-.551-.022a6.882,6.882,0,0,0,0-13.72q.273-.022.551-.022Z" transform="translate(-132.964 -205.236)" fill="#f1cbbc" fill-rule="evenodd"/>
            </g>
          </g>
          <g id="Grupo_1026522" data-name="Grupo 1026522" transform="translate(4.519)">
            <g id="Grupo_1026517" data-name="Grupo 1026517" transform="translate(0.016)">
              <path id="Trazado_766781" data-name="Trazado 766781" d="M59.021,183.059H74.567a1.042,1.042,0,1,0,0-2.083h-.21q.023-.293.023-.593a7.588,7.588,0,0,0-5.25-7.219c.115-1.194-1.353-1.568-2.336-1.568s-2.45.374-2.336,1.568a7.589,7.589,0,0,0-5.25,7.219q0,.3.023.593h-.21a1.042,1.042,0,1,0,0,2.083Z" transform="translate(-57.979 -171.596)" fill="#ffe177" fill-rule="evenodd"/>
            </g>
            <g id="Grupo_1026518" data-name="Grupo 1026518" transform="translate(8.279)">
              <path id="Trazado_766782" data-name="Trazado 766782" d="M140.185,183.059h1.1a1.042,1.042,0,1,0,0-2.083h-.21q.023-.293.023-.593a7.588,7.588,0,0,0-5.25-7.219c.115-1.194-1.353-1.568-2.336-1.568a4.189,4.189,0,0,0-.551.037c.9.119,1.879.547,1.785,1.531a7.589,7.589,0,0,1,5.25,7.219q0,.3-.023.593h.21a1.042,1.042,0,1,1,0,2.083Z" transform="translate(-132.963 -171.596)" fill="#ffd064" fill-rule="evenodd"/>
            </g>
            <g id="Grupo_1026521" data-name="Grupo 1026521" transform="translate(0 9.348)">
              <g id="Grupo_1026519" data-name="Grupo 1026519">
                <path id="Trazado_766783" data-name="Trazado 766783" d="M58.894,256.416H74.44a1.057,1.057,0,0,1,0,2.115H58.894a1.057,1.057,0,0,1,0-2.115Z" transform="translate(-57.837 -256.416)" fill="#ffe177" fill-rule="evenodd"/>
              </g>
              <g id="Grupo_1026520" data-name="Grupo 1026520" transform="translate(0)">
                <path id="Trazado_766784" data-name="Trazado 766784" d="M58.9,256.416H74.441a1.057,1.057,0,0,1,0,2.115h-.253a1.061,1.061,0,0,0-1.056-1.013H57.839q0-.022,0-.045A1.06,1.06,0,0,1,58.9,256.416Z" transform="translate(-57.838 -256.416)" fill="#ffd064" fill-rule="evenodd"/>
              </g>
            </g>
          </g>
          <g id="Grupo_1026525" data-name="Grupo 1026525" transform="translate(0 17.471)">
            <g id="Grupo_1026523" data-name="Grupo 1026523">
              <path id="Trazado_766785" data-name="Trazado 766785" d="M17.938,342.275h24.49a1.1,1.1,0,0,0,1.079-1.327,13.614,13.614,0,0,0-26.649,0,1.1,1.1,0,0,0,1.079,1.327Z" transform="translate(-16.833 -330.128)" fill="#91b3fa" fill-rule="evenodd"/>
            </g>
            <g id="Grupo_1026524" data-name="Grupo 1026524" transform="translate(12.247)">
              <path id="Trazado_766786" data-name="Trazado 766786" d="M139.107,342.275h2.2a1.1,1.1,0,0,0,1.079-1.327,13.616,13.616,0,0,0-13.324-10.82c-.371,0-.738.016-1.1.045a13.619,13.619,0,0,1,12.222,10.775,1.1,1.1,0,0,1-1.079,1.327Z" transform="translate(-127.964 -330.128)" fill="#60b7ff" fill-rule="evenodd"/>
            </g>
          </g>
          <g id="Grupo_1026528" data-name="Grupo 1026528" transform="translate(3.524 19.462)">
            <g id="Grupo_1026526" data-name="Grupo 1026526">
              <path id="Trazado_766787" data-name="Trazado 766787" d="M48.812,358.347h19.65v-7.954a13.678,13.678,0,0,0-2.736-2.2v4.083H51.548v-4.083a13.681,13.681,0,0,0-2.736,2.2Z" transform="translate(-48.812 -348.191)" fill="#ffe177" fill-rule="evenodd"/>
            </g>
            <g id="Grupo_1026527" data-name="Grupo 1026527" transform="translate(16.914)">
              <path id="Trazado_766788" data-name="Trazado 766788" d="M202.823,358.347h2.2v-7.954a13.679,13.679,0,0,0-2.736-2.2v1.677q.273.255.532.525Z" transform="translate(-202.291 -348.191)" fill="#ffd064" fill-rule="evenodd"/>
            </g>
          </g>
        </g>
        <g id="Grupo_1026532" data-name="Grupo 1026532" transform="translate(24.217 23.604)">
          <g id="Grupo_1026530" data-name="Grupo 1026530">
            <path id="Trazado_766789" data-name="Trazado 766789" d="M245.859,255.647a4.822,4.822,0,0,1-5.6,6.51.22.22,0,0,1-.1-.37l3.161-3.161-.651-2.428-2.428-.65-3.161,3.161a.22.22,0,0,1-.37-.1,4.822,4.822,0,0,1,6.51-5.6l12.571-12.571a4.822,4.822,0,0,1,5.6-6.51.22.22,0,0,1,.1.37l-3.161,3.161.651,2.428,2.428.651,3.161-3.161a.221.221,0,0,1,.37.1,4.822,4.822,0,0,1-6.51,5.6Z" transform="translate(-236.576 -233.793)" fill="#9facba" fill-rule="evenodd"/>
          </g>
          <g id="Grupo_1026531" data-name="Grupo 1026531" transform="translate(0.037 0)">
            <path id="Trazado_766790" data-name="Trazado 766790" d="M246.161,255.648a4.821,4.821,0,0,1-5.014,6.613,4.821,4.821,0,0,0,3.912-6.613l12.829-12.828a4.81,4.81,0,0,0,.845.257Zm-5.617-.1-3.161,3.161a.22.22,0,0,1-.37-.1,4.839,4.839,0,0,1-.1-.531l2.759-2.759Zm19.461-21.722a4.845,4.845,0,0,1,1.684.1.22.22,0,0,1,.1.37l-3.161,3.161.651,2.428,2.427.65-.233.233-3.3-.883-.651-2.428,3.161-3.161a.22.22,0,0,0-.1-.37A4.84,4.84,0,0,0,260.006,233.825Zm4.232,4.187a4.82,4.82,0,0,1-4.232,5.39,4.821,4.821,0,0,0,5.237-5.921.22.22,0,0,0-.37-.1Z" transform="translate(-236.916 -233.794)" fill="#8d9ca8" fill-rule="evenodd"/>
          </g>
        </g>
      </g>
      <g id="Grupo_1026534" data-name="Grupo 1026534" transform="translate(7.984 11.6)">
        <path id="Trazado_766791" data-name="Trazado 766791" d="M33.932,19.946a.882.882,0,0,1,.881-.882H57.4a.882.882,0,1,1,0,1.763H34.813A.881.881,0,0,1,33.932,19.946Zm3.37-3.208a.882.882,0,0,1,.882-.882H54.032a.882.882,0,0,1,0,1.763H38.183A.882.882,0,0,1,37.3,16.738Zm-5.387-3.154V30.527a.224.224,0,0,0,.22.22h1.594v-.228a.88.88,0,0,1,.565-.822l.941-.363a7.863,7.863,0,0,1,.6-1.438l-.409-.923a.881.881,0,0,1,.182-.981l1.569-1.569a.882.882,0,0,1,.981-.183l.922.41a7.93,7.93,0,0,1,1.437-.6l.363-.941a.883.883,0,0,1,.823-.565h2.22a.882.882,0,0,1,.822.565l.363.941a7.909,7.909,0,0,1,1.437.6l.923-.41a.882.882,0,0,1,.981.183l1.57,1.569a.879.879,0,0,1,.182.981l-.409.923a7.9,7.9,0,0,1,.6,1.438l.941.363a.879.879,0,0,1,.564.822v.228h8.19a.224.224,0,0,0,.22-.22V13.584a.224.224,0,0,0-.22-.22H32.135A.224.224,0,0,0,31.914,13.584Zm18.212,18.55-.793.305a.882.882,0,0,0-.541.618,6.082,6.082,0,0,1-.743,1.791.879.879,0,0,0-.054.82l.345.778-.713.713-.778-.345a.883.883,0,0,0-.82.055,6.133,6.133,0,0,1-1.791.743.881.881,0,0,0-.619.541l-.305.793H42.305l-.3-.795a.882.882,0,0,0-.618-.54,6.136,6.136,0,0,1-1.791-.743.88.88,0,0,0-.82-.055l-.778.345-.713-.713.346-.777a.883.883,0,0,0-.056-.821,6.1,6.1,0,0,1-.742-1.791.88.88,0,0,0-.541-.618l-.793-.305V31.125l.794-.306a.879.879,0,0,0,.541-.618,6.094,6.094,0,0,1,.742-1.791.882.882,0,0,0,.055-.82l-.346-.778.713-.714.778.346a.881.881,0,0,0,.821-.055,6.116,6.116,0,0,1,1.791-.743.882.882,0,0,0,.618-.54l.3-.794h1.008l.305.794a.881.881,0,0,0,.619.54,6.133,6.133,0,0,1,1.791.743.88.88,0,0,0,.82.055l.778-.346.713.714L48,27.589a.881.881,0,0,0,.055.821,6.109,6.109,0,0,1,.742,1.791.88.88,0,0,0,.541.618l.793.305Zm-17.992.377h1.594v.228a.883.883,0,0,0,.565.823l.941.361a7.831,7.831,0,0,0,.6,1.438l-.409.923a.881.881,0,0,0,.182.981l1.569,1.569a.882.882,0,0,0,.981.183l.922-.41a7.938,7.938,0,0,0,1.437.6l.363.941a.883.883,0,0,0,.823.565h2.22a.883.883,0,0,0,.822-.565L45.1,39.2a7.864,7.864,0,0,0,1.438-.6l.922.41a.882.882,0,0,0,.981-.183l1.57-1.569a.879.879,0,0,0,.182-.981l-.409-.923a7.906,7.906,0,0,0,.6-1.438l.941-.363a.879.879,0,0,0,.564-.822v-.228h8.19a1.987,1.987,0,0,0,1.984-1.984V13.584A1.987,1.987,0,0,0,60.079,11.6H32.135a1.986,1.986,0,0,0-1.984,1.984V30.527A1.986,1.986,0,0,0,32.135,32.511Zm27.6,11.18a3.929,3.929,0,0,0,1.135-2.38l-2.142,2.144a.883.883,0,0,1-.852.228l-2.428-.651a.881.881,0,0,1-.624-.623l-.651-2.429a.881.881,0,0,1,.228-.851l2.142-2.143A3.944,3.944,0,0,0,53.3,42.4a.881.881,0,0,1-.193.957L40.534,55.925a.885.885,0,0,1-.956.193,3.943,3.943,0,0,0-5.411,3.241l2.143-2.144a.882.882,0,0,1,.624-.258.9.9,0,0,1,.228.03l2.428.651a.881.881,0,0,1,.624.623l.65,2.429a.878.878,0,0,1-.228.851l-2.143,2.143a3.945,3.945,0,0,0,3.242-5.411.881.881,0,0,1,.193-.958L54.5,44.745a.884.884,0,0,1,.956-.193,3.934,3.934,0,0,0,4.277-.861ZM34.055,55.732a5.77,5.77,0,0,0-.949,1.252V53.423a12.744,12.744,0,0,1,1.111,2.155C34.162,55.628,34.108,55.68,34.055,55.732ZM11.692,53.407v4.56H9.885A12.665,12.665,0,0,1,11.692,53.407ZM22.4,47.585h0A12.714,12.714,0,0,1,28.606,49.2v2.692H16.191v-2.7a12.74,12.74,0,0,1,6.2-1.606Zm-5.739-6.01H28.138A6.013,6.013,0,0,1,22.4,45.82H22.4A6.012,6.012,0,0,1,16.66,41.575Zm-2.195-1.923a.162.162,0,0,1,.16-.16H30.172a.16.16,0,0,1,0,.32H14.626A.162.162,0,0,1,14.465,39.652Zm4.87-7.6.378,2.9a.881.881,0,0,0,.873.768,1.039,1.039,0,0,0,.115-.007.882.882,0,0,0,.76-.989l-.518-3.993a.076.076,0,0,1,0-.009s0-.008,0-.011a.231.231,0,0,1,.06-.207,2.194,2.194,0,0,1,1.4-.4h0a2.194,2.194,0,0,1,1.4.4.231.231,0,0,1,.059.207s0,.008,0,.011l0,.009-.518,3.993a.881.881,0,0,0,.76.989,1.06,1.06,0,0,0,.115.007.882.882,0,0,0,.873-.768l.377-2.9A6.682,6.682,0,0,1,29.1,37.729H27.214V34.3a.882.882,0,0,0-1.764,0v3.426h-6.1V34.3a.882.882,0,1,0-1.764,0v3.426H15.7A6.682,6.682,0,0,1,19.335,32.051Zm12.007,19.2a12.727,12.727,0,0,0-.973-.864v2.384a.881.881,0,0,1-.881.882H15.309a.882.882,0,0,1-.882-.882v-2.4a12.823,12.823,0,0,0-.972.865v6.728H31.342ZM62.364,39.13a5.7,5.7,0,0,1-7.01,7.253L43.563,58.174a5.7,5.7,0,0,1-7.252,7.009.88.88,0,0,1-.349-1.46l3.067-3.067-.387-1.445L37.2,58.823,34.129,61.89a.881.881,0,0,1-1.461-.35,5.732,5.732,0,0,1-.285-1.809H8.866a.881.881,0,0,1-.877-.975A14.5,14.5,0,0,1,18.3,46.411a7.765,7.765,0,0,1-3.466-4.836h-.21a1.923,1.923,0,0,1-.693-3.717,8.441,8.441,0,0,1,5.305-7.7,1.98,1.98,0,0,1,.458-.838,3.86,3.86,0,0,1,2.7-.973h0a3.861,3.861,0,0,1,2.7.973,1.972,1.972,0,0,1,.457.838,8.442,8.442,0,0,1,5.306,7.7,1.923,1.923,0,0,1-.693,3.717h-.21a7.766,7.766,0,0,1-3.47,4.838,14.5,14.5,0,0,1,9.219,8.166,5.684,5.684,0,0,1,3.967-.292L51.469,42.5a5.7,5.7,0,0,1,7.252-7.01.882.882,0,0,1,.35,1.461L56,40.015l.387,1.445,1.445.387L60.9,38.781a.881.881,0,0,1,1.461.349ZM42.81,34.618A2.989,2.989,0,1,1,45.8,31.629,2.992,2.992,0,0,1,42.81,34.618Zm0-7.741a4.752,4.752,0,1,1-4.752,4.752A4.756,4.756,0,0,1,42.81,26.877Z" transform="translate(-7.984 -11.6)" fill="#242222" fill-rule="evenodd"/>
      </g>
    </g>
  </g>
</svg>
