<svg xmlns="http://www.w3.org/2000/svg" width="152" height="152" viewBox="0 0 152 152">
  <g id="Grupo_1026031" data-name="Grupo 1026031" transform="translate(-304 -3074)">
    <g id="Grupo_1020472" data-name="Grupo 1020472" transform="translate(311.173 3081)">
      <circle id="Elipse_8460" data-name="Elipse 8460" cx="76" cy="76" r="76" transform="translate(-7.173 -7)" fill="#57dbd8" opacity="0.45"/>
      <circle id="Elipse_8461" data-name="Elipse 8461" cx="62" cy="62" r="62" transform="translate(6.827 7)" fill="#fff"/>
    </g>
    <g id="_025-prestige" data-name="025-prestige" transform="translate(344 3114)">
      <g id="Grupo_1026013" data-name="Grupo 1026013" transform="translate(40.236 26.441)">
        <path id="Trazado_766332" data-name="Trazado 766332" d="M55.543,24,47.5,34.347h4.6c0,8.9-8.469,16.095-16.095,16.095l1.15,9.2c11.438,0,21.843-11.312,21.843-25.291h4.6Z" transform="translate(-36 -24)" fill="#405d80"/>
      </g>
      <g id="Grupo_1026014" data-name="Grupo 1026014" transform="translate(1.15 31.04)">
        <path id="Trazado_766333" data-name="Trazado 766333" d="M22.693,28H8.9A6.9,6.9,0,0,0,2,34.9V57.89H29.591V34.9A6.9,6.9,0,0,0,22.693,28Z" transform="translate(-2 -28)" fill="#e6e6e6"/>
      </g>
      <g id="Grupo_1026015" data-name="Grupo 1026015" transform="translate(10.347 31.04)">
        <path id="Trazado_766334" data-name="Trazado 766334" d="M14.6,28,10,45.244l4.6,5.381,4.6-4.989Z" transform="translate(-10 -28)" fill="#526273"/>
      </g>
      <g id="Grupo_1026016" data-name="Grupo 1026016" transform="translate(6.898 14.945)">
        <circle id="Elipse_8559" data-name="Elipse 8559" cx="8" cy="8" r="8" transform="translate(0.103 -0.37)" fill="#ffdbac"/>
      </g>
      <g id="Grupo_1026017" data-name="Grupo 1026017" transform="translate(49.433 1.15)">
        <ellipse id="Elipse_8560" data-name="Elipse 8560" cx="10.5" cy="10" rx="10.5" ry="10" transform="translate(-0.434 0.426)" fill="#adc4e6"/>
      </g>
      <g id="Grupo_1026018" data-name="Grupo 1026018" transform="translate(55.181 6.898)">
        <path id="Trazado_766335" data-name="Trazado 766335" d="M53.6,7l1.421,3.027,3.178.486L55.9,12.87,56.44,16.2,53.6,14.625,50.757,16.2,51.3,12.87,49,10.513l3.178-.486Z" transform="translate(-49 -7)" fill="#cc6c66"/>
      </g>
      <g id="Grupo_1026019" data-name="Grupo 1026019" transform="translate(19.543 49.433)">
        <path id="Trazado_766336" data-name="Trazado 766336" d="M39.843,58.945V50.9a6.9,6.9,0,0,0-6.9-6.9h-4.6a6.9,6.9,0,0,0-6.9,6.9v8.047a1.15,1.15,0,0,1-1.15,1.15,2.3,2.3,0,0,0,0,4.6H40.992a2.3,2.3,0,1,0,0-4.6A1.15,1.15,0,0,1,39.843,58.945Z" transform="translate(-18 -44)" fill="#a1a9b3"/>
      </g>
      <g id="Grupo_1026020" data-name="Grupo 1026020" transform="translate(24.09 43.685)">
        <path id="Trazado_766337" data-name="Trazado 766337" d="M37.282,39.658,34.652,39h-9.2l-2.629.658a1.15,1.15,0,0,0-.535,1.928l3.164,3.163h9.2l3.163-3.163A1.149,1.149,0,0,0,37.282,39.658Z" transform="translate(-21.955 -39)" fill="#526273"/>
      </g>
      <g id="Grupo_1026021" data-name="Grupo 1026021" transform="translate(27.77 42.536)">
        <path id="Trazado_766338" data-name="Trazado 766338" d="M33.008,38H26.142a.986.986,0,0,0-.906,1.374L27.6,44.9h3.942l2.367-5.524A.986.986,0,0,0,33.008,38Z" transform="translate(-25.156 -38)" fill="#667280"/>
      </g>
      <path id="Trazado_766339" data-name="Trazado 766339" d="M29.449,50.449A1.15,1.15,0,0,1,30.6,51.6h2.3a3.444,3.444,0,0,0-2.3-3.237V47H28.3v1.361a3.44,3.44,0,0,0,1.15,6.686A1.15,1.15,0,1,1,28.3,56.2H26a3.444,3.444,0,0,0,2.3,3.237V60.8h2.3V59.434a3.44,3.44,0,0,0-1.15-6.686,1.15,1.15,0,1,1,0-2.3Z" transform="translate(2.74 5.882)"/>
      <path id="Trazado_766340" data-name="Trazado 766340" d="M2.15,61.284H22.843v2.3a3.449,3.449,0,1,0,0,6.9H43.536a3.448,3.448,0,0,0,0-6.9h0V62.4c11.623-.7,21.293-11.872,21.82-25.257h3.472a1.15,1.15,0,0,0,.907-1.857L61.687,24.939a1.191,1.191,0,0,0-1.814,0L51.826,35.285a1.15,1.15,0,0,0,.907,1.857h3.4c-.659,7.535-7.69,13.293-14.082,13.751a8.1,8.1,0,0,0-2.428-2.249l2.706-2.166a2.3,2.3,0,0,0-.986-4.049L38.2,41.8a2.188,2.188,0,0,0-.14-.254,2.306,2.306,0,0,0-1.866-.955h-5.3V37.142a8.058,8.058,0,0,0-8.047-8.047h-.835a9.2,9.2,0,1,0-12.126,0H9.047A8.058,8.058,0,0,0,1,37.142V60.134a1.149,1.149,0,0,0,1.15,1.15ZM58.481,35.992a1.149,1.149,0,0,0-1.15-1.15H55.084l5.7-7.324,5.7,7.324H64.229a1.149,1.149,0,0,0-1.15,1.15c0,12.411-9.006,23.349-19.543,24.1V55.536a7.989,7.989,0,0,0-.386-2.454C50.621,52.014,58.481,44.935,58.481,35.992ZM41.236,55.536v8.047a2.3,2.3,0,0,0,2.3,2.3,1.15,1.15,0,0,1,0,2.3H22.843a1.15,1.15,0,0,1,0-2.3,2.3,2.3,0,0,0,2.3-2.3V55.536a5.755,5.755,0,0,1,5.748-5.748h4.6A5.755,5.755,0,0,1,41.236,55.536ZM38.2,44.144l2.692.538-3.729,2.983-.129-.025Zm-2-1.254-1.534,4.6H31.718l-1.532-4.6Zm-7.237,4.843-3.813-3.05,3.015-.6,1.188,3.56c-.132.026-.26.061-.39.093ZM9.047,22.2a6.9,6.9,0,1,1,6.9,6.9A6.9,6.9,0,0,1,9.047,22.2ZM19.273,47.562l-3.295,3.575L12.613,47.2l3.32-12.448ZM3.3,37.142a5.755,5.755,0,0,1,5.748-5.748h5.4l-4.213,15.8a1.15,1.15,0,0,0,.236,1.043l4.6,5.382a1.154,1.154,0,0,0,.853.4h.022a1.15,1.15,0,0,0,.845-.37l4.6-4.99a1.151,1.151,0,0,0,.267-1.069l-4.223-16.2h5.41a5.755,5.755,0,0,1,5.748,5.748v4.11a2.26,2.26,0,0,0-.27.294,2.322,2.322,0,0,0-.252.455l-.048-.239-3.329.666a2.3,2.3,0,0,0-.986,4.05l2.856,2.284a8.045,8.045,0,0,0-3.718,6.774v3.449H3.3Z" transform="translate(-1 0.795)"/>
      <path id="Trazado_766341" data-name="Trazado 766341" d="M59.436,10.3a1.152,1.152,0,0,0-.916-.771L55.95,9.133,54.788,6.661a1.149,1.149,0,0,0-2.081,0L51.547,9.133l-2.571.393a1.15,1.15,0,0,0-.65,1.939l1.893,1.941L49.77,16.16a1.15,1.15,0,0,0,1.691,1.192l2.287-1.263,2.285,1.263a1.15,1.15,0,0,0,1.691-1.192l-.45-2.754,1.893-1.941a1.147,1.147,0,0,0,.268-1.168Zm-4.212,1.919a1.148,1.148,0,0,0-.312.988l.162.991-.77-.425a1.145,1.145,0,0,0-1.111,0l-.77.425.162-.991a1.15,1.15,0,0,0-.312-.988l-.737-.755.966-.147a1.152,1.152,0,0,0,.867-.647l.378-.81.381.81a1.146,1.146,0,0,0,.867.647l.966.147Z" transform="translate(6.032 -0.252)"/>
      <path id="Trazado_766342" data-name="Trazado 766342" d="M46.178,14.737a9.233,9.233,0,0,1-.684-1.942l-2.241.516a11.635,11.635,0,0,0,.854,2.427Z" transform="translate(5.322 0.765)"/>
      <path id="Trazado_766343" data-name="Trazado 766343" d="M43,11.33v.022l2.3-.022A9.221,9.221,0,0,1,45.523,9.3l-2.243-.5A11.554,11.554,0,0,0,43,11.33Z" transform="translate(5.284 0.167)"/>
      <path id="Trazado_766344" data-name="Trazado 766344" d="M47.144,6.213l-1.8-1.428a11.514,11.514,0,0,0-1.365,2.18l2.073.994a9.356,9.356,0,0,1,1.092-1.746Z" transform="translate(5.43 -0.434)"/>
      <path id="Trazado_766345" data-name="Trazado 766345" d="M53.008,19.029l0,2.3a11.552,11.552,0,0,0,2.556-.289L55.057,18.8a9.35,9.35,0,0,1-2.049.23Z" transform="translate(6.781 1.663)"/>
      <path id="Trazado_766346" data-name="Trazado 766346" d="M60.8,13.053l2.243.509a11.6,11.6,0,0,0,.285-2.557v-.044l-2.3.044A9.171,9.171,0,0,1,60.8,13.053Z" transform="translate(7.947 0.49)"/>
      <path id="Trazado_766347" data-name="Trazado 766347" d="M47.011,19.248l1.435-1.8A9.305,9.305,0,0,1,46.986,16l-1.795,1.437A11.663,11.663,0,0,0,47.011,19.248Z" transform="translate(5.612 1.244)"/>
      <path id="Trazado_766348" data-name="Trazado 766348" d="M61.055,17.645a11.492,11.492,0,0,0,1.368-2.177l-2.07-1a9.265,9.265,0,0,1-1.1,1.744Z" transform="translate(7.716 1.015)"/>
      <path id="Trazado_766349" data-name="Trazado 766349" d="M59.393,3.16l-1.428,1.8a9.235,9.235,0,0,1,1.461,1.452l1.792-1.442A11.67,11.67,0,0,0,59.393,3.16Z" transform="translate(7.523 -0.677)"/>
      <path id="Trazado_766350" data-name="Trazado 766350" d="M62.264,6.625,60.2,7.633a9.1,9.1,0,0,1,.686,1.937l2.241-.516A11.379,11.379,0,0,0,62.264,6.625Z" transform="translate(7.857 -0.158)"/>
      <path id="Trazado_766351" data-name="Trazado 766351" d="M48.671,20.285a11.428,11.428,0,0,0,2.433.848l.507-2.243a9.069,9.069,0,0,1-1.941-.676Z" transform="translate(6.132 1.576)"/>
      <path id="Trazado_766352" data-name="Trazado 766352" d="M49.923,4.07,48.917,2a11.644,11.644,0,0,0-2.173,1.375l1.439,1.795a9.216,9.216,0,0,1,1.739-1.1Z" transform="translate(5.844 -0.85)"/>
      <path id="Trazado_766353" data-name="Trazado 766353" d="M53.308,3.3,53.3,1a11.54,11.54,0,0,0-2.556.293l.516,2.241A9.225,9.225,0,0,1,53.308,3.3Z" transform="translate(6.443 -1)"/>
      <path id="Trazado_766354" data-name="Trazado 766354" d="M59.652,19.048l-1.435-1.8a9.263,9.263,0,0,1-1.742,1.1l1,2.07A11.429,11.429,0,0,0,59.652,19.048Z" transform="translate(7.3 1.432)"/>
      <path id="Trazado_766355" data-name="Trazado 766355" d="M57.691,2.082a11.4,11.4,0,0,0-2.434-.84l-.5,2.243a9.1,9.1,0,0,1,1.942.673Z" transform="translate(7.043 -0.964)"/>
    </g>
  </g>
</svg>
