<svg xmlns="http://www.w3.org/2000/svg" width="152" height="152" viewBox="0 0 152 152">
  <g id="Grupo_1026034" data-name="Grupo 1026034" transform="translate(-934 -3074)">
    <g id="Grupo_1020472" data-name="Grupo 1020472" transform="translate(941.173 3081)">
      <path id="Trazado_766267" data-name="Trazado 766267" d="M76,0A76,76,0,1,1,0,76,76,76,0,0,1,76,0Z" transform="translate(-7.173 -7)" fill="#c8d8f8"/>
      <circle id="Elipse_8461" data-name="Elipse 8461" cx="62" cy="62" r="62" transform="translate(6.827 7)" fill="#fff"/>
    </g>
    <g id="_009-distribution" data-name="009-distribution" transform="translate(974 3114)">
      <g id="Grupo_1025989" data-name="Grupo 1025989" transform="translate(51.733 1.15)">
        <circle id="Elipse_8544" data-name="Elipse 8544" cx="9" cy="9" r="9" transform="translate(0.012 0.126)" fill="#e6e6e6"/>
      </g>
      <g id="Grupo_1025990" data-name="Grupo 1025990" transform="translate(56.331 11.496)">
        <path id="Trazado_766292" data-name="Trazado 766292" d="M56.9,11H52.3A2.3,2.3,0,0,0,50,13.3v4.508a9.144,9.144,0,0,0,9.2,0V13.3A2.3,2.3,0,0,0,56.9,11Z" transform="translate(-50 -11)" fill="#759acc"/>
      </g>
      <g id="Grupo_1025991" data-name="Grupo 1025991" transform="translate(58.055 5.748)">
        <circle id="Elipse_8545" data-name="Elipse 8545" cx="2.874" cy="2.874" r="2.874" fill="#759acc"/>
      </g>
      <g id="Grupo_1025992" data-name="Grupo 1025992" transform="translate(1.15 1.15)">
        <ellipse id="Elipse_8546" data-name="Elipse 8546" cx="9.5" cy="9" rx="9.5" ry="9" transform="translate(-0.406 0.126)" fill="#e6e6e6"/>
      </g>
      <g id="Grupo_1025993" data-name="Grupo 1025993" transform="translate(5.748 11.496)">
        <path id="Trazado_766293" data-name="Trazado 766293" d="M12.9,11H8.3A2.3,2.3,0,0,0,6,13.3v4.508a9.144,9.144,0,0,0,9.2,0V13.3A2.3,2.3,0,0,0,12.9,11Z" transform="translate(-6 -11)" fill="#759acc"/>
      </g>
      <g id="Grupo_1025994" data-name="Grupo 1025994" transform="translate(7.472 5.748)">
        <circle id="Elipse_8547" data-name="Elipse 8547" cx="2.874" cy="2.874" r="2.874" fill="#759acc"/>
      </g>
      <g id="Grupo_1025995" data-name="Grupo 1025995" transform="translate(51.733 51.733)">
        <ellipse id="Elipse_8548" data-name="Elipse 8548" cx="9" cy="9.5" rx="9" ry="9.5" transform="translate(0.012 -0.457)" fill="#e6e6e6"/>
      </g>
      <g id="Grupo_1025996" data-name="Grupo 1025996" transform="translate(56.331 62.079)">
        <path id="Trazado_766294" data-name="Trazado 766294" d="M56.9,55H52.3A2.3,2.3,0,0,0,50,57.3v4.508a9.144,9.144,0,0,0,9.2,0V57.3A2.3,2.3,0,0,0,56.9,55Z" transform="translate(-50 -55)" fill="#759acc"/>
      </g>
      <g id="Grupo_1025997" data-name="Grupo 1025997" transform="translate(58.055 56.331)">
        <circle id="Elipse_8549" data-name="Elipse 8549" cx="2.874" cy="2.874" r="2.874" fill="#759acc"/>
      </g>
      <g id="Grupo_1025998" data-name="Grupo 1025998" transform="translate(1.15 51.733)">
        <circle id="Elipse_8550" data-name="Elipse 8550" cx="9.5" cy="9.5" r="9.5" transform="translate(-0.406 -0.457)" fill="#e6e6e6"/>
      </g>
      <g id="Grupo_1025999" data-name="Grupo 1025999" transform="translate(5.748 62.079)">
        <path id="Trazado_766295" data-name="Trazado 766295" d="M12.9,55H8.3A2.3,2.3,0,0,0,6,57.3v4.508a9.144,9.144,0,0,0,9.2,0V57.3A2.3,2.3,0,0,0,12.9,55Z" transform="translate(-6 -55)" fill="#759acc"/>
      </g>
      <g id="Grupo_1026000" data-name="Grupo 1026000" transform="translate(7.472 56.331)">
        <circle id="Elipse_8551" data-name="Elipse 8551" cx="2.874" cy="2.874" r="2.874" fill="#759acc"/>
      </g>
      <g id="Grupo_1026001" data-name="Grupo 1026001" transform="translate(22.992 22.992)">
        <ellipse id="Elipse_8552" data-name="Elipse 8552" cx="13" cy="12.5" rx="13" ry="12.5" transform="translate(-0.249 0.284)" fill="#ffe38f"/>
      </g>
      <path id="Trazado_766296" data-name="Trazado 766296" d="M61.929,21.693a10.373,10.373,0,1,0-8.076-3.9l-8.316,8.316a13.741,13.741,0,0,0-17.8,0L19.424,17.8A10.382,10.382,0,1,0,17.8,19.423l8.316,8.316a13.74,13.74,0,0,0,0,17.8L17.8,53.853a10.38,10.38,0,1,0,1.624,1.626l8.316-8.316a13.741,13.741,0,0,0,17.8,0l8.316,8.316a10.382,10.382,0,1,0,1.627-1.626l-8.316-8.316a13.74,13.74,0,0,0,0-17.8l8.316-8.316a10.292,10.292,0,0,0,6.452,2.27ZM14.8,18.606a7.946,7.946,0,0,1-6.9,0V14.8a1.151,1.151,0,0,1,1.15-1.15h4.6A1.151,1.151,0,0,1,14.8,14.8ZM9.622,9.622a1.724,1.724,0,1,1,1.724,1.724A1.727,1.727,0,0,1,9.622,9.622Zm7.472,7.345V14.8a3.445,3.445,0,0,0-2.251-3.222,3.973,3.973,0,0,0,.527-1.951,4.024,4.024,0,0,0-8.047,0,3.973,3.973,0,0,0,.527,1.951A3.445,3.445,0,0,0,5.6,14.8v2.172a8.047,8.047,0,1,1,11.5,0ZM14.8,69.189a7.946,7.946,0,0,1-6.9,0V65.378a1.151,1.151,0,0,1,1.15-1.15h4.6a1.151,1.151,0,0,1,1.15,1.15ZM9.622,60.205a1.724,1.724,0,1,1,1.724,1.724A1.727,1.727,0,0,1,9.622,60.205Zm7.472,7.345V65.378a3.445,3.445,0,0,0-2.251-3.222,3.973,3.973,0,0,0,.527-1.951,4.024,4.024,0,1,0-8.047,0,3.973,3.973,0,0,0,.527,1.951A3.445,3.445,0,0,0,5.6,65.378V67.55a8.047,8.047,0,1,1,11.5,0Zm48.284,1.639a7.946,7.946,0,0,1-6.9,0V65.378a1.151,1.151,0,0,1,1.15-1.15h4.6a1.151,1.151,0,0,1,1.15,1.15Zm-5.173-8.984a1.724,1.724,0,1,1,1.724,1.724A1.727,1.727,0,0,1,60.205,60.205Zm1.724-6.323A8.039,8.039,0,0,1,67.678,67.55V65.378a3.445,3.445,0,0,0-2.251-3.222,3.973,3.973,0,0,0,.527-1.951,4.024,4.024,0,1,0-8.047,0,3.973,3.973,0,0,0,.527,1.951,3.445,3.445,0,0,0-2.251,3.222V67.55a8.039,8.039,0,0,1,5.748-13.668Zm-13.8-17.244a11.5,11.5,0,1,1-11.5-11.5A11.509,11.509,0,0,1,48.134,36.638ZM65.378,18.606a7.946,7.946,0,0,1-6.9,0V14.8a1.151,1.151,0,0,1,1.15-1.15h4.6a1.151,1.151,0,0,1,1.15,1.15ZM60.205,9.622a1.724,1.724,0,1,1,1.724,1.724A1.727,1.727,0,0,1,60.205,9.622ZM61.929,3.3a8.039,8.039,0,0,1,5.748,13.668V14.8a3.445,3.445,0,0,0-2.251-3.222,3.973,3.973,0,0,0,.527-1.951,4.024,4.024,0,1,0-8.047,0,3.973,3.973,0,0,0,.527,1.951A3.445,3.445,0,0,0,56.181,14.8v2.172A8.039,8.039,0,0,1,61.929,3.3Z" transform="translate(-1 -1)"/>
      <path id="Trazado_766297" data-name="Trazado 766297" d="M32.6,27.449a2.3,2.3,0,0,1,2.3,2.3h2.3a4.594,4.594,0,0,0-3.449-4.435V24h-2.3v1.313a4.589,4.589,0,0,0,1.15,9.034,2.3,2.3,0,1,1-2.3,2.3H28a4.594,4.594,0,0,0,3.449,4.435v1.313h2.3V41.081a4.589,4.589,0,0,0-1.15-9.034,2.3,2.3,0,0,1,0-4.6Z" transform="translate(3.04 2.441)"/>
    </g>
  </g>
</svg>
