<svg xmlns="http://www.w3.org/2000/svg" width="152" height="152" viewBox="0 0 152 152">
  <g id="Grupo_1026035" data-name="Grupo 1026035" transform="translate(-1144 -3074)">
    <g id="Grupo_1020472" data-name="Grupo 1020472" transform="translate(1151.173 3081)">
      <path id="Trazado_766268" data-name="Trazado 766268" d="M76,0A76,76,0,1,1,0,76,76,76,0,0,1,76,0Z" transform="translate(-7.173 -7)" fill="#aeeae8"/>
      <circle id="Elipse_8461" data-name="Elipse 8461" cx="62" cy="62" r="62" transform="translate(6.827 7)" fill="#fff"/>
    </g>
    <g id="_004-credit" data-name="004-credit" transform="translate(1184.001 3117)">
      <g id="Grupo_1025979" data-name="Grupo 1025979" transform="translate(10.644 24.584)">
        <path id="Trazado_766278" data-name="Trazado 766278" d="M38.855,35l-1-.575,1.15-1.991a2.3,2.3,0,0,0-.842-3.141l-1.991-1.15a2.3,2.3,0,1,0-3.982-2.3L30.2,24.693a2.3,2.3,0,0,0-3.141.842l-9.2,15.929.318-5.312a2.11,2.11,0,0,0-4.2-.376L12.117,51.42l-1.724,2.987L23.335,61.88l1.724-2.987,5.983-3.95a2.3,2.3,0,0,0,.724-.769l8.351-14.463A3.45,3.45,0,0,0,38.855,35Z" transform="translate(-10.393 -24.385)" fill="#ffdbac"/>
      </g>
      <g id="Grupo_1025980" data-name="Grupo 1025980" transform="translate(0.995 13.795)">
        <path id="Trazado_766279" data-name="Trazado 766279" d="M30.462,25.613l-1-.575,1.15-1.991a2.3,2.3,0,0,0-.842-3.141l-1.991-1.15a2.3,2.3,0,0,0-3.982-2.3l-1.991-1.15a2.3,2.3,0,0,0-3.141.842l-9.2,15.929.318-5.312a2.11,2.11,0,0,0-4.2-.376L3.724,42.035,2,45.022l12.942,7.472,1.724-2.987,5.983-3.95a2.3,2.3,0,0,0,.724-.769l8.351-14.463a3.449,3.449,0,0,0-1.262-4.712Z" transform="translate(-2 -15)" fill="#ffdbac"/>
      </g>
      <g id="Grupo_1025981" data-name="Grupo 1025981" transform="translate(49.279 10.347)">
        <path id="Trazado_766280" data-name="Trazado 766280" d="M56.071,12H48.024A4.34,4.34,0,0,0,44,16.6V31.543H60.095V16.6A4.34,4.34,0,0,0,56.071,12Z" transform="translate(-44 -12)" fill="#e6e6e6"/>
      </g>
      <g id="Grupo_1025982" data-name="Grupo 1025982" transform="translate(55.027 11.496)">
        <path id="Trazado_766281" data-name="Trazado 766281" d="M51.3,13,49,19.9l2.3,3.449L53.6,19.9Z" transform="translate(-49 -13)" fill="#526273"/>
      </g>
      <g id="Grupo_1025983" data-name="Grupo 1025983" transform="translate(52.728 1.15)">
        <ellipse id="Elipse_8542" data-name="Elipse 8542" cx="4.598" cy="4.598" rx="4.598" ry="4.598" fill="#ffdbac"/>
      </g>
      <g id="Grupo_1025984" data-name="Grupo 1025984" transform="translate(46.98 26.441)">
        <ellipse id="Elipse_8543" data-name="Elipse 8543" cx="10.347" cy="10.347" rx="10.347" ry="10.347" fill="#ffe38f"/>
      </g>
      <g id="Grupo_1025985" data-name="Grupo 1025985" transform="translate(46.98 60.929)">
        <path id="Trazado_766282" data-name="Trazado 766282" d="M63.843,60.6H43.15A1.15,1.15,0,0,1,42,59.449v-2.3A1.15,1.15,0,0,1,43.15,56H63.843a1.15,1.15,0,0,1,1.15,1.15v2.3A1.15,1.15,0,0,1,63.843,60.6Z" transform="translate(-42 -56)" fill="#d9c382"/>
      </g>
      <g id="Grupo_1025986" data-name="Grupo 1025986" transform="translate(45.83 56.331)">
        <path id="Trazado_766283" data-name="Trazado 766283" d="M62.843,56.6H42.15A1.15,1.15,0,0,1,41,55.449v-2.3A1.15,1.15,0,0,1,42.15,52H62.843a1.15,1.15,0,0,1,1.15,1.15v2.3A1.15,1.15,0,0,1,62.843,56.6Z" transform="translate(-41 -52)" fill="#f2dfaa"/>
      </g>
      <g id="Grupo_1025987" data-name="Grupo 1025987" transform="translate(46.98 51.733)">
        <path id="Trazado_766284" data-name="Trazado 766284" d="M63.843,52.6H43.15A1.15,1.15,0,0,1,42,51.449v-2.3A1.15,1.15,0,0,1,43.15,48H63.843a1.15,1.15,0,0,1,1.15,1.15v2.3A1.15,1.15,0,0,1,63.843,52.6Z" transform="translate(-42 -48)" fill="#d9c382"/>
      </g>
      <g id="Grupo_1025988" data-name="Grupo 1025988" transform="translate(45.83 47.134)">
        <path id="Trazado_766285" data-name="Trazado 766285" d="M62.843,48.6H42.15A1.15,1.15,0,0,1,41,47.449v-2.3A1.15,1.15,0,0,1,42.15,44H62.843a1.15,1.15,0,0,1,1.15,1.15v2.3A1.15,1.15,0,0,1,62.843,48.6Z" transform="translate(-41 -44)" fill="#f2dfaa"/>
      </g>
      <path id="Trazado_766286" data-name="Trazado 766286" d="M51.449,32.449A1.151,1.151,0,0,1,52.6,33.6h2.3a3.444,3.444,0,0,0-2.3-3.237V29H50.3v1.361a3.44,3.44,0,0,0,1.15,6.686A1.15,1.15,0,1,1,50.3,38.2H48a3.444,3.444,0,0,0,2.3,3.237V42.8h2.3V41.434a3.44,3.44,0,0,0-1.15-6.686,1.15,1.15,0,0,1,0-2.3Z" transform="translate(5.877 0.89)"/>
      <path id="Trazado_766287" data-name="Trazado 766287" d="M66.441,58.181v-2.3a2.289,2.289,0,0,0-1.181-2,2.206,2.206,0,0,0,.031-.3v-2.3a2.3,2.3,0,0,0-2.3-2.3H59.514A11.435,11.435,0,0,0,61.821,32.89h.022V17.945a5.537,5.537,0,0,0-4.674-5.692,5.69,5.69,0,0,0,1.225-3.505,5.748,5.748,0,1,0-11.5,0,5.69,5.69,0,0,0,1.225,3.505,5.537,5.537,0,0,0-4.674,5.692V32.89h.022a11.435,11.435,0,0,0,2.307,16.095H42.3a2.3,2.3,0,0,0-2.3,2.3v2.3a2.289,2.289,0,0,0,1.181,2,2.207,2.207,0,0,0-.031.3v2.3a2.207,2.207,0,0,0,.031.3,2.289,2.289,0,0,0-1.181,2v2.3a2.289,2.289,0,0,0,1.181,2,2.207,2.207,0,0,0-.031.3v2.3a2.3,2.3,0,0,0,2.3,2.3H64.142a2.3,2.3,0,0,0,2.3-2.3v-2.3a2.289,2.289,0,0,0-1.181-2,2.206,2.206,0,0,0,.031-.3v-2.3a2.206,2.206,0,0,0-.031-.3A2.289,2.289,0,0,0,66.441,58.181ZM42.3,51.284h2.3v2.3H42.3Zm0,11.5v-2.3h2.3v2.3Zm3.449,4.6h-2.3v-2.3h2.3Zm0-9.2h-2.3v-2.3h2.3Zm14.945-6.9h2.3v2.3h-2.3ZM52.646,5.3A3.449,3.449,0,1,1,49.2,8.748,3.453,3.453,0,0,1,52.646,5.3Zm1.03,15.924-1.03,1.546-1.03-1.546,1.03-3.092Zm-7.928-3.279A3.2,3.2,0,0,1,48.622,14.5h2.812l-2.179,6.534a1.149,1.149,0,0,0,.133,1l2.3,3.449a1.151,1.151,0,0,0,1.914,0l2.3-3.449a1.149,1.149,0,0,0,.133-1L53.857,14.5h2.812a3.2,3.2,0,0,1,2.874,3.449V30.613a11.41,11.41,0,0,0-13.8,0Zm6.9,49.433h-4.6v-2.3h4.6ZM46.9,62.78v-2.3h4.6v2.3Zm5.748-4.6h-4.6v-2.3h4.6Zm-5.748-4.6v-2.3h4.6v2.3Zm-3.449-13.8a9.2,9.2,0,1,1,9.2,9.2A9.208,9.208,0,0,1,43.449,39.788Zm14.945,11.5v2.3H53.8v-2.3Zm-4.6,9.2h4.6v2.3H53.8Zm5.748,6.9h-4.6v-2.3h4.6Zm0-9.2h-4.6v-2.3h4.6Zm1.15,2.3h2.3v2.3h-2.3Zm1.15,6.9v-2.3h2.3v2.3Zm0-9.2v-2.3h2.3v2.3Z" transform="translate(4.68 -3)"/>
      <path id="Trazado_766288" data-name="Trazado 766288" d="M1.134,44.518l1.991,1.15L4.85,42.681A1.182,1.182,0,0,0,5,42.243L6.861,26.6a.959.959,0,0,1,.891-.844.959.959,0,0,1,1.021,1.015l-.318,5.312a1.149,1.149,0,0,0,2.143.644l9.2-15.929a1.152,1.152,0,0,1,1.57-.422l.994.575-5.748,9.957,1.991,1.15,6.322-10.95h0a1.149,1.149,0,0,1,2.106.276,1.134,1.134,0,0,1-.116.871h0L20.592,29.2l1.991,1.15L28.332,20.4l1,.575a1.15,1.15,0,0,1,.421,1.57l-2.3,3.982L20.687,38.238l.026-.453a3.26,3.26,0,0,0-6.491-.581L12.389,52.616,10.782,55.4l1.991,1.15L14.5,53.561a1.182,1.182,0,0,0,.146-.438l1.866-15.645a.959.959,0,0,1,1.63-.566.946.946,0,0,1,.282.738L18.1,42.963a1.149,1.149,0,0,0,2.143.644l9.2-15.93h0a1.149,1.149,0,0,1,1.569-.418l1,.575L24.536,40.774l1.991,1.15,8.046-13.937h0a1.149,1.149,0,0,1,2.106.276,1.134,1.134,0,0,1-.116.871h0L28.517,43.071l1.991,1.15L37.98,31.278l1,.575a1.151,1.151,0,0,1,.536.7,1.137,1.137,0,0,1-.116.873l-1.15,1.991L32.5,45.37l1.991,1.15,5.173-8.96A2.3,2.3,0,0,1,40.5,40.7L32.152,55.165a1.122,1.122,0,0,1-.361.384L25.812,59.5a1.146,1.146,0,0,0-.362.384l-1.724,2.987,1.991,1.15L27.3,61.267l5.755-3.8a3.449,3.449,0,0,0,1.088-1.154L42.5,41.849a4.6,4.6,0,0,0-1.684-6.281l.575-.994a3.45,3.45,0,0,0-1.261-4.712l-1.166-.673A3.454,3.454,0,0,0,37.3,25.571a3.455,3.455,0,0,0-3.966.364l-1.167-.673a3.446,3.446,0,0,0-1.1-.394l.679-1.177A3.455,3.455,0,0,0,30.48,18.98l-1.166-.673a3.456,3.456,0,0,0-1.667-3.618,3.456,3.456,0,0,0-3.965.366l-1.167-.674A3.453,3.453,0,0,0,17.8,15.645L11.041,27.358l.026-.451a3.26,3.26,0,0,0-6.491-.582L2.74,41.736Z" transform="translate(-1.135 -1.366)"/>
      <path id="Trazado_766289" data-name="Trazado 766289" d="M0,0H4.6V2.3H0Z" transform="translate(35.365 13.858) rotate(-54.196)"/>
      <path id="Trazado_766290" data-name="Trazado 766290" d="M0,0H2.3V4.516H0Z" transform="translate(30.892 8.71) rotate(-4.416)"/>
      <path id="Trazado_766291" data-name="Trazado 766291" d="M0,0H4.515V2.3H0Z" transform="translate(38.558 16.668) rotate(-14.008)"/>
    </g>
  </g>
</svg>
